G04 (created by PCBNEW (2013-07-07 BZR 4022)-stable) date 23/04/2014 17:50:20*
%MOIN*%
G04 Gerber Fmt 3.4, Leading zero omitted, Abs format*
%FSLAX34Y34*%
G01*
G70*
G90*
G04 APERTURE LIST*
%ADD10C,0.006*%
%ADD11C,0.052*%
%ADD12C,0.128*%
%ADD13R,0.025X0.045*%
%ADD14R,0.045X0.025*%
%ADD15R,0.035X0.055*%
%ADD16R,0.0551X0.0236*%
%ADD17R,0.0394X0.0315*%
%ADD18R,0.0106X0.0394*%
%ADD19R,0.0394X0.0106*%
%ADD20R,0.0165X0.0579*%
%ADD21R,0.212598X0.0787402*%
%ADD22R,0.055X0.055*%
%ADD23R,0.06X0.06*%
%ADD24C,0.06*%
%ADD25R,0.22X0.083*%
%ADD26R,0.244X0.228*%
%ADD27R,0.118X0.063*%
%ADD28R,0.063X0.0866*%
%ADD29C,0.0472441*%
%ADD30R,0.0472441X0.0472441*%
%ADD31C,0.177165*%
%ADD32R,0.055X0.035*%
%ADD33C,0.0590551*%
%ADD34R,0.0335X0.0335*%
%ADD35R,0.027X0.024*%
%ADD36R,0.0669291X0.0669291*%
%ADD37R,0.0590551X0.0590551*%
%ADD38C,0.05*%
%ADD39C,0.035*%
%ADD40C,0.02*%
%ADD41C,0.025*%
%ADD42C,0.03*%
%ADD43C,0.06*%
%ADD44C,0.02*%
%ADD45C,0.05*%
%ADD46C,0.012*%
%ADD47C,0.04*%
%ADD48C,0.015*%
%ADD49C,0.07*%
%ADD50C,0.01*%
%ADD51C,0.008*%
G04 APERTURE END LIST*
G54D10*
G54D11*
X93515Y-14695D03*
X93515Y-15595D03*
X93515Y-19195D03*
X93515Y-20095D03*
X95415Y-18795D03*
X95415Y-17995D03*
X95415Y-17195D03*
X95415Y-16395D03*
X96115Y-17595D03*
X96115Y-16795D03*
X96115Y-18395D03*
X96115Y-15995D03*
G54D12*
X97115Y-14895D03*
X97115Y-19895D03*
G54D11*
X93515Y-6295D03*
X93515Y-7195D03*
X93515Y-10795D03*
X93515Y-11695D03*
X95415Y-10395D03*
X95415Y-9595D03*
X95415Y-8795D03*
X95415Y-7995D03*
X96115Y-9195D03*
X96115Y-8395D03*
X96115Y-9995D03*
X96115Y-7595D03*
G54D12*
X97115Y-6495D03*
X97115Y-11495D03*
G54D13*
X89940Y-15295D03*
X89340Y-15295D03*
X87890Y-15295D03*
X87290Y-15295D03*
G54D14*
X86540Y-11215D03*
X86540Y-11815D03*
G54D13*
X87890Y-16020D03*
X87290Y-16020D03*
G54D14*
X88645Y-11815D03*
X88645Y-11215D03*
X89940Y-11945D03*
X89940Y-12545D03*
G54D13*
X90416Y-19318D03*
X91016Y-19318D03*
X90420Y-16560D03*
X91020Y-16560D03*
X96185Y-13205D03*
X96785Y-13205D03*
G54D15*
X91758Y-7192D03*
X92508Y-7192D03*
X91719Y-20105D03*
X92469Y-20105D03*
X91758Y-15892D03*
X92508Y-15892D03*
X94915Y-13595D03*
X94165Y-13595D03*
X93415Y-13595D03*
X92665Y-13595D03*
X93415Y-12795D03*
X92665Y-12795D03*
X91758Y-11680D03*
X92508Y-11680D03*
G54D16*
X88640Y-12445D03*
X86540Y-12445D03*
X88640Y-12945D03*
X88640Y-13445D03*
X88640Y-13945D03*
X86540Y-12945D03*
X86540Y-13445D03*
X86540Y-13945D03*
G54D17*
X92605Y-14672D03*
X91739Y-15047D03*
X91739Y-14297D03*
X92527Y-18924D03*
X91661Y-19299D03*
X91661Y-18549D03*
G54D18*
X77212Y-19459D03*
X79378Y-16151D03*
X79181Y-16151D03*
X78984Y-16151D03*
X78787Y-16151D03*
X78590Y-16151D03*
X78393Y-16151D03*
X78197Y-16151D03*
X78000Y-16151D03*
X77803Y-16151D03*
X77606Y-16151D03*
X77409Y-16151D03*
X77212Y-16151D03*
G54D19*
X76641Y-16722D03*
X76641Y-16919D03*
X76641Y-17116D03*
X76641Y-17308D03*
X76641Y-17510D03*
X76641Y-17707D03*
X76641Y-17903D03*
X76641Y-18100D03*
X76641Y-18297D03*
X76641Y-18494D03*
X76641Y-18691D03*
X76641Y-18888D03*
G54D18*
X77409Y-19459D03*
X77606Y-19459D03*
X77803Y-19459D03*
X78000Y-19459D03*
X78197Y-19459D03*
X78393Y-19459D03*
X78590Y-19459D03*
X78787Y-19459D03*
X78984Y-19459D03*
X79181Y-19459D03*
X79378Y-19459D03*
G54D19*
X79949Y-18888D03*
X79949Y-18691D03*
X79949Y-18494D03*
X79949Y-18297D03*
X79949Y-18100D03*
X79949Y-17903D03*
X79949Y-17707D03*
X79949Y-17510D03*
X79949Y-17313D03*
X79949Y-17116D03*
X79949Y-16919D03*
X79949Y-16722D03*
G54D20*
X70251Y-4572D03*
X70507Y-4572D03*
X70763Y-4572D03*
X71019Y-4572D03*
X69487Y-2370D03*
X69483Y-4572D03*
X69739Y-4572D03*
X69995Y-4572D03*
X71275Y-2368D03*
X71019Y-2368D03*
X70763Y-2368D03*
X70507Y-2368D03*
X70251Y-2368D03*
X69995Y-2368D03*
X71275Y-4572D03*
X69739Y-2370D03*
X69227Y-4572D03*
X71531Y-4572D03*
X71531Y-2368D03*
X69227Y-2368D03*
X66601Y-4572D03*
X66857Y-4572D03*
X67113Y-4572D03*
X67369Y-4572D03*
X65837Y-2370D03*
X65833Y-4572D03*
X66089Y-4572D03*
X66345Y-4572D03*
X67625Y-2368D03*
X67369Y-2368D03*
X67113Y-2368D03*
X66857Y-2368D03*
X66601Y-2368D03*
X66345Y-2368D03*
X67625Y-4572D03*
X66089Y-2370D03*
X65577Y-4572D03*
X67881Y-4572D03*
X67881Y-2368D03*
X65577Y-2368D03*
G54D21*
X89700Y-4300D03*
X89700Y-6899D03*
G54D15*
X78550Y-9850D03*
X79300Y-9850D03*
X74575Y-2400D03*
X75325Y-2400D03*
G54D13*
X92790Y-25450D03*
X93390Y-25450D03*
X33390Y-26200D03*
X32790Y-26200D03*
X33390Y-26950D03*
X32790Y-26950D03*
X63390Y-25450D03*
X62790Y-25450D03*
X63390Y-26200D03*
X62790Y-26200D03*
X63390Y-26950D03*
X62790Y-26950D03*
X92790Y-26950D03*
X93390Y-26950D03*
X92790Y-26200D03*
X93390Y-26200D03*
G54D14*
X92657Y-27640D03*
X92657Y-28240D03*
G54D13*
X33390Y-25450D03*
X32790Y-25450D03*
X3400Y-26950D03*
X2800Y-26950D03*
X3400Y-26200D03*
X2800Y-26200D03*
X3400Y-25450D03*
X2800Y-25450D03*
G54D14*
X91150Y-8500D03*
X91150Y-9100D03*
G54D13*
X79570Y-14155D03*
X78970Y-14155D03*
G54D14*
X64900Y-2950D03*
X64900Y-2350D03*
X68550Y-2950D03*
X68550Y-2350D03*
G54D13*
X92200Y-400D03*
X92800Y-400D03*
G54D14*
X73040Y-4845D03*
X73040Y-4245D03*
X62667Y-27640D03*
X62667Y-28240D03*
G54D13*
X80715Y-17510D03*
X81315Y-17510D03*
X77845Y-14810D03*
X77245Y-14810D03*
G54D14*
X81840Y-12030D03*
X81840Y-12630D03*
X74745Y-12030D03*
X74745Y-12630D03*
G54D13*
X79575Y-15455D03*
X78975Y-15455D03*
X78975Y-14805D03*
X79575Y-14805D03*
G54D14*
X78600Y-4300D03*
X78600Y-3700D03*
X32667Y-27640D03*
X32667Y-28240D03*
X2667Y-27640D03*
X2667Y-28240D03*
X84420Y-3850D03*
X84420Y-3250D03*
G54D22*
X75250Y-4400D03*
G54D23*
X82875Y-26195D03*
G54D24*
X82875Y-27195D03*
X81875Y-26195D03*
X81875Y-27195D03*
X80875Y-26195D03*
X80875Y-27195D03*
X79875Y-26195D03*
X79875Y-27195D03*
X78875Y-26195D03*
X78875Y-27195D03*
G54D23*
X60657Y-27940D03*
G54D24*
X61657Y-27940D03*
G54D23*
X657Y-27940D03*
G54D24*
X1657Y-27940D03*
G54D23*
X30657Y-27940D03*
G54D24*
X31657Y-27940D03*
G54D23*
X90657Y-27940D03*
G54D24*
X91657Y-27940D03*
G54D25*
X76425Y-12630D03*
X80165Y-12630D03*
G54D26*
X77050Y-7500D03*
G54D27*
X79880Y-8400D03*
X79880Y-6600D03*
G54D26*
X83320Y-7500D03*
G54D27*
X86150Y-8400D03*
X86150Y-6600D03*
G54D28*
X92898Y-4300D03*
X91402Y-4300D03*
G54D29*
X85920Y-3656D03*
G54D30*
X85920Y-4443D03*
G54D29*
X89700Y-9193D03*
G54D30*
X89700Y-8406D03*
G54D29*
X77050Y-3606D03*
G54D30*
X77050Y-4393D03*
G54D29*
X91143Y-1000D03*
G54D30*
X90356Y-1000D03*
G54D31*
X97004Y-993D03*
X97004Y-3946D03*
X95035Y-993D03*
X95035Y-3946D03*
X97004Y-25248D03*
X97004Y-28201D03*
X95035Y-25248D03*
X95035Y-28201D03*
G54D15*
X87275Y-4440D03*
X88025Y-4440D03*
G54D22*
X83370Y-3550D03*
G54D32*
X84040Y-26940D03*
X84040Y-26190D03*
G54D14*
X81370Y-23330D03*
X81370Y-23930D03*
X82360Y-23330D03*
X82360Y-23930D03*
G54D17*
X73898Y-3245D03*
X73032Y-3620D03*
X73032Y-2870D03*
G54D23*
X85285Y-10670D03*
G54D24*
X85285Y-11670D03*
X85285Y-12670D03*
X85285Y-13670D03*
G54D33*
X85285Y-14670D03*
G54D34*
X90815Y-12554D03*
X90815Y-11236D03*
X90815Y-13836D03*
X90815Y-15154D03*
G54D35*
X89940Y-13855D03*
X89940Y-14735D03*
G54D36*
X96610Y-22520D03*
G54D15*
X87782Y-558D03*
X88532Y-558D03*
X88530Y-1306D03*
X89280Y-1306D03*
G54D33*
X77354Y-2373D03*
X76354Y-2373D03*
X81354Y-2373D03*
X80354Y-2373D03*
X79354Y-2373D03*
X84354Y-2373D03*
X83354Y-2373D03*
X82354Y-2373D03*
X88354Y-2373D03*
X87354Y-2373D03*
X86354Y-2373D03*
G54D37*
X91354Y-2373D03*
G54D33*
X90354Y-2373D03*
X78354Y-2373D03*
X89354Y-2373D03*
X85354Y-2373D03*
G54D38*
X86390Y-22575D03*
X86390Y-28490D03*
X86390Y-24075D03*
X82760Y-15435D03*
X81482Y-14155D03*
G54D39*
X84040Y-28565D03*
X77845Y-14155D03*
G54D38*
X80040Y-14155D03*
G54D39*
X93220Y-27640D03*
X33230Y-27640D03*
X63230Y-27640D03*
X3230Y-27640D03*
X90550Y-27105D03*
X60545Y-27105D03*
X30545Y-27110D03*
X545Y-27110D03*
X88025Y-10365D03*
X88025Y-7685D03*
X68550Y-1795D03*
X64920Y-230D03*
X92100Y-18570D03*
X92212Y-14318D03*
G54D40*
X84820Y-6000D03*
X83320Y-6000D03*
X84820Y-7500D03*
X84820Y-9000D03*
X83320Y-9000D03*
X81820Y-9000D03*
X81820Y-7500D03*
X81820Y-6000D03*
X83300Y-8000D03*
X83300Y-7000D03*
X84300Y-8000D03*
X84300Y-7000D03*
X82300Y-7000D03*
X82300Y-8000D03*
X83820Y-8500D03*
X82820Y-8500D03*
X83820Y-8000D03*
X82820Y-8000D03*
X82320Y-8500D03*
X84320Y-8500D03*
X83320Y-8500D03*
X83820Y-7500D03*
X84320Y-6500D03*
X83820Y-6500D03*
X83820Y-7000D03*
X82820Y-7500D03*
X82320Y-7500D03*
X82820Y-6500D03*
X82320Y-6500D03*
X82820Y-7000D03*
X83320Y-6500D03*
X84320Y-7500D03*
G54D39*
X87645Y-1129D03*
X81695Y-17510D03*
X72500Y-2870D03*
G54D38*
X79880Y-7705D03*
X80855Y-8400D03*
X79875Y-9105D03*
G54D40*
X83320Y-7500D03*
G54D39*
X71530Y-4025D03*
X67880Y-4030D03*
X68550Y-3330D03*
X64905Y-3330D03*
X93200Y-400D03*
X89940Y-11545D03*
X90815Y-10795D03*
X89190Y-13945D03*
X90815Y-15595D03*
X97175Y-13205D03*
X88665Y-10845D03*
X79955Y-14805D03*
X76870Y-14810D03*
X79495Y-18105D03*
X78595Y-16605D03*
X74745Y-11580D03*
X81840Y-11580D03*
G54D40*
X86005Y-13445D03*
X82600Y-21075D03*
X82125Y-20600D03*
X83320Y-16565D03*
X80215Y-16565D03*
G54D39*
X86540Y-17530D03*
X86540Y-16020D03*
G54D40*
X74750Y-18475D03*
X75665Y-18475D03*
X75075Y-18805D03*
X75995Y-18805D03*
X62405Y-26200D03*
X62405Y-26630D03*
X77050Y-6000D03*
X78550Y-6000D03*
X78550Y-7500D03*
X78550Y-9000D03*
X77050Y-9000D03*
X75550Y-9000D03*
X75550Y-7500D03*
X75550Y-6000D03*
X77050Y-8000D03*
X77050Y-8500D03*
X77050Y-7500D03*
X77050Y-7000D03*
X76050Y-7500D03*
X76550Y-7500D03*
X76050Y-8000D03*
X78050Y-7000D03*
X78050Y-8000D03*
X76050Y-7000D03*
X77550Y-7500D03*
X76550Y-8500D03*
X77550Y-8500D03*
X78050Y-8500D03*
X76050Y-8500D03*
X76550Y-8000D03*
X77550Y-8000D03*
X77550Y-6500D03*
X78050Y-6500D03*
X77550Y-7000D03*
X76550Y-6500D03*
X76050Y-6500D03*
X76550Y-7000D03*
X77050Y-6500D03*
X78050Y-7500D03*
G54D39*
X93830Y-12200D03*
X93020Y-16390D03*
G54D40*
X92405Y-25765D03*
X92405Y-26200D03*
X32405Y-25765D03*
X32405Y-26200D03*
X32405Y-26635D03*
X2415Y-25770D03*
X2415Y-26200D03*
X2415Y-26635D03*
X92405Y-26630D03*
X62405Y-25765D03*
X78950Y-18455D03*
X78950Y-16605D03*
X78950Y-17330D03*
X79640Y-19485D03*
G54D39*
X94265Y-17195D03*
G54D40*
X94815Y-12795D03*
X93840Y-12795D03*
X69485Y-10560D03*
X71260Y-10560D03*
X71245Y-11215D03*
X69745Y-11215D03*
X70515Y-10965D03*
X71000Y-10965D03*
X73040Y-11965D03*
X73040Y-11170D03*
X71240Y-11755D03*
X69760Y-11755D03*
X71240Y-12085D03*
X69760Y-12085D03*
X69760Y-12755D03*
X71235Y-12755D03*
X71240Y-12415D03*
X69760Y-12415D03*
G54D41*
X91758Y-15892D02*
X91758Y-16851D01*
X82780Y-17070D02*
X82760Y-17050D01*
X91540Y-17070D02*
X82780Y-17070D01*
X91758Y-16851D02*
X91540Y-17070D01*
X91719Y-20105D02*
X91719Y-20830D01*
X89975Y-22575D02*
X91719Y-20830D01*
X89975Y-22575D02*
X86390Y-22575D01*
X91758Y-9829D02*
X91758Y-11680D01*
X91758Y-7192D02*
X91758Y-9829D01*
G54D42*
X91758Y-9829D02*
X91758Y-9836D01*
X91740Y-9855D02*
X91700Y-9855D01*
X91758Y-9836D02*
X91740Y-9855D01*
G54D43*
X79300Y-9850D02*
X82820Y-9850D01*
X82820Y-9850D02*
X82825Y-9855D01*
G54D44*
X91740Y-9895D02*
X91700Y-9855D01*
G54D42*
X82825Y-9855D02*
X91700Y-9855D01*
G54D45*
X86390Y-22570D02*
X86390Y-22575D01*
X82760Y-18940D02*
X86390Y-22570D01*
X82760Y-18065D02*
X82760Y-18940D01*
X86390Y-24075D02*
X86390Y-28490D01*
X82760Y-15435D02*
X82760Y-17050D01*
X82760Y-17050D02*
X82760Y-18065D01*
G54D44*
X80715Y-17510D02*
X80715Y-17690D01*
X81090Y-18065D02*
X82760Y-18065D01*
X80715Y-17690D02*
X81090Y-18065D01*
G54D45*
X82825Y-9855D02*
X82825Y-12812D01*
X81482Y-14155D02*
X80485Y-14155D01*
X82825Y-12812D02*
X81482Y-14155D01*
G54D41*
X84040Y-26940D02*
X84040Y-28565D01*
G54D44*
X77845Y-14810D02*
X77845Y-14155D01*
G54D41*
X79575Y-15455D02*
X80200Y-15455D01*
X80485Y-15170D02*
X80485Y-14155D01*
X80200Y-15455D02*
X80485Y-15170D01*
G54D45*
X80485Y-14155D02*
X80040Y-14155D01*
G54D41*
X80040Y-14155D02*
X79570Y-14155D01*
G54D42*
X93220Y-27640D02*
X92657Y-27640D01*
X33230Y-27640D02*
X32667Y-27640D01*
X62667Y-27640D02*
X63230Y-27640D01*
X2667Y-27640D02*
X3230Y-27640D01*
X92657Y-27640D02*
X92555Y-27640D01*
X92020Y-27105D02*
X90550Y-27105D01*
X92555Y-27640D02*
X92020Y-27105D01*
X62667Y-27640D02*
X62565Y-27640D01*
X62030Y-27105D02*
X60545Y-27105D01*
X62565Y-27640D02*
X62030Y-27105D01*
X32667Y-27640D02*
X32565Y-27640D01*
X32565Y-27640D02*
X32035Y-27110D01*
X32035Y-27110D02*
X30545Y-27110D01*
X2667Y-27640D02*
X2565Y-27640D01*
X2035Y-27110D02*
X545Y-27110D01*
X2565Y-27640D02*
X2035Y-27110D01*
G54D46*
X78000Y-16151D02*
X78000Y-15285D01*
X77845Y-15130D02*
X77845Y-14810D01*
X78000Y-15285D02*
X77845Y-15130D01*
X79949Y-17510D02*
X80715Y-17510D01*
G54D41*
X89280Y-1306D02*
X90312Y-1306D01*
X90312Y-1306D02*
X90356Y-1350D01*
G54D42*
X88025Y-11210D02*
X88025Y-10365D01*
G54D47*
X88025Y-7685D02*
X88025Y-4440D01*
G54D41*
X88025Y-11210D02*
X87890Y-11345D01*
G54D44*
X88025Y-11210D02*
X87890Y-11345D01*
X87890Y-11455D02*
X87890Y-11345D01*
X87890Y-15295D02*
X87890Y-11455D01*
X87890Y-11345D02*
X88025Y-11210D01*
X88025Y-11210D02*
X88030Y-11215D01*
X86540Y-11215D02*
X88030Y-11215D01*
X88630Y-11815D02*
X88645Y-11815D01*
X88030Y-11215D02*
X88630Y-11815D01*
X86540Y-11215D02*
X86125Y-11215D01*
X85670Y-11670D02*
X85285Y-11670D01*
X86125Y-11215D02*
X85670Y-11670D01*
G54D42*
X88030Y-4445D02*
X88025Y-4440D01*
G54D45*
X89950Y-3150D02*
X88490Y-3150D01*
X88490Y-3150D02*
X88025Y-3615D01*
X88025Y-3615D02*
X88025Y-4440D01*
X90354Y-2373D02*
X90354Y-2745D01*
X89950Y-3150D02*
X90354Y-2745D01*
G54D42*
X68550Y-2350D02*
X68550Y-1795D01*
X64920Y-230D02*
X64920Y-2330D01*
X64920Y-2330D02*
X64900Y-2350D01*
G54D48*
X65577Y-4572D02*
X64702Y-4572D01*
X64702Y-4572D02*
X64330Y-4200D01*
X64330Y-4200D02*
X64330Y-2680D01*
X64330Y-2680D02*
X64660Y-2350D01*
X64660Y-2350D02*
X64900Y-2350D01*
G54D41*
X92200Y-400D02*
X90565Y-400D01*
X90356Y-608D02*
X90356Y-1000D01*
X90565Y-400D02*
X90356Y-608D01*
G54D48*
X69227Y-2368D02*
X68568Y-2368D01*
X68568Y-2368D02*
X68550Y-2350D01*
X65577Y-2368D02*
X64918Y-2368D01*
X64918Y-2368D02*
X64900Y-2350D01*
G54D45*
X90356Y-1000D02*
X90356Y-1350D01*
X90356Y-1350D02*
X90356Y-2371D01*
X90356Y-2371D02*
X90354Y-2373D01*
G54D41*
X88640Y-11820D02*
X88645Y-11815D01*
X88640Y-12445D02*
X88640Y-11820D01*
G54D44*
X89340Y-15295D02*
X87890Y-15295D01*
X87890Y-15295D02*
X87890Y-16020D01*
G54D49*
X89700Y-8406D02*
X86156Y-8406D01*
X86156Y-8406D02*
X86150Y-8400D01*
G54D44*
X91150Y-8500D02*
X89793Y-8500D01*
X89793Y-8500D02*
X89700Y-8406D01*
G54D49*
X89700Y-8406D02*
X89700Y-6899D01*
G54D44*
X91661Y-18549D02*
X92079Y-18549D01*
X92079Y-18549D02*
X92100Y-18570D01*
X91739Y-14297D02*
X92191Y-14297D01*
X92191Y-14297D02*
X92212Y-14318D01*
G54D46*
X83320Y-7500D02*
X84820Y-6000D01*
X83320Y-7500D02*
X83320Y-6000D01*
X83320Y-7500D02*
X84820Y-7500D01*
X83320Y-7500D02*
X84820Y-9000D01*
X83320Y-7500D02*
X83320Y-9000D01*
X83320Y-7500D02*
X81820Y-9000D01*
X83320Y-7500D02*
X81820Y-7500D01*
X83320Y-7500D02*
X81820Y-6000D01*
G54D50*
X83320Y-7500D02*
X83320Y-7980D01*
X83320Y-7980D02*
X83300Y-8000D01*
X83320Y-7500D02*
X83320Y-7020D01*
X83320Y-7020D02*
X83300Y-7000D01*
X83320Y-7500D02*
X83800Y-7500D01*
X83800Y-7500D02*
X84300Y-8000D01*
X83800Y-7500D02*
X84300Y-7000D01*
X83320Y-7500D02*
X82800Y-7500D01*
X82800Y-7500D02*
X82300Y-7000D01*
X82800Y-7500D02*
X82300Y-8000D01*
X83320Y-7500D02*
X83320Y-7000D01*
X83320Y-7500D02*
X83320Y-8000D01*
X83320Y-8000D02*
X83820Y-8500D01*
X83320Y-8000D02*
X82820Y-8500D01*
X83320Y-7500D02*
X83820Y-8000D01*
X83320Y-7500D02*
X82820Y-8000D01*
X83320Y-7500D02*
X82320Y-8500D01*
X83320Y-7500D02*
X84320Y-8500D01*
X83320Y-7500D02*
X83320Y-8500D01*
X83320Y-7500D02*
X83820Y-7500D01*
X83320Y-7500D02*
X84320Y-6500D01*
X83320Y-7000D02*
X83820Y-6500D01*
X83320Y-7500D02*
X83820Y-7000D01*
X83320Y-7500D02*
X82820Y-7500D01*
X83320Y-7500D02*
X82320Y-7500D01*
X83320Y-7000D02*
X82820Y-6500D01*
X83320Y-7500D02*
X82320Y-6500D01*
X83320Y-7500D02*
X82820Y-7000D01*
X83320Y-7500D02*
X83320Y-6500D01*
X83320Y-7500D02*
X84320Y-7500D01*
G54D41*
X87782Y-558D02*
X87782Y-992D01*
X87782Y-992D02*
X87645Y-1129D01*
X81315Y-17510D02*
X81695Y-17510D01*
X73032Y-2870D02*
X72500Y-2870D01*
G54D43*
X79880Y-8400D02*
X79880Y-7705D01*
X79880Y-8400D02*
X80855Y-8400D01*
X79880Y-8400D02*
X79880Y-9100D01*
X79880Y-9100D02*
X79875Y-9105D01*
G54D48*
X71531Y-4572D02*
X71531Y-4026D01*
X71531Y-4026D02*
X71530Y-4025D01*
X67881Y-4572D02*
X67881Y-4031D01*
X67881Y-4031D02*
X67880Y-4030D01*
G54D41*
X68550Y-2950D02*
X68550Y-3330D01*
X64900Y-2950D02*
X64900Y-3325D01*
X64900Y-3325D02*
X64905Y-3330D01*
G54D46*
X65837Y-2370D02*
X65837Y-2717D01*
X65605Y-2950D02*
X64900Y-2950D01*
X65837Y-2717D02*
X65605Y-2950D01*
X69487Y-2370D02*
X69487Y-2737D01*
X69275Y-2950D02*
X68550Y-2950D01*
X69487Y-2737D02*
X69275Y-2950D01*
G54D41*
X92800Y-400D02*
X93200Y-400D01*
G54D44*
X78600Y-3700D02*
X77143Y-3700D01*
X77143Y-3700D02*
X77050Y-3606D01*
G54D41*
X84420Y-3250D02*
X85513Y-3250D01*
X85513Y-3250D02*
X85920Y-3656D01*
G54D44*
X91150Y-9100D02*
X89793Y-9100D01*
X89793Y-9100D02*
X89700Y-9193D01*
G54D42*
X95715Y-18795D02*
X96115Y-18395D01*
X95415Y-18795D02*
X95715Y-18795D01*
X95715Y-10395D02*
X96115Y-9995D01*
X95415Y-10395D02*
X95715Y-10395D01*
X89940Y-11945D02*
X89940Y-11545D01*
X90815Y-11236D02*
X90815Y-10795D01*
G54D44*
X88640Y-13945D02*
X89190Y-13945D01*
X90815Y-15154D02*
X90815Y-15595D01*
G54D41*
X96785Y-13205D02*
X97175Y-13205D01*
X88645Y-10865D02*
X88665Y-10845D01*
X88645Y-11215D02*
X88645Y-10865D01*
G54D44*
X79575Y-14805D02*
X79955Y-14805D01*
G54D41*
X77245Y-14810D02*
X76870Y-14810D01*
G54D46*
X79949Y-18100D02*
X79500Y-18100D01*
X79500Y-18100D02*
X79495Y-18105D01*
X78590Y-16151D02*
X78590Y-16600D01*
X78590Y-16600D02*
X78595Y-16605D01*
G54D44*
X74745Y-12030D02*
X74745Y-11580D01*
X81840Y-12030D02*
X81840Y-11580D01*
G54D48*
X86005Y-13445D02*
X86540Y-13445D01*
G54D50*
X79949Y-17313D02*
X80267Y-17313D01*
X82910Y-14670D02*
X85285Y-14670D01*
X80267Y-17313D02*
X82910Y-14670D01*
G54D48*
X86965Y-13445D02*
X87290Y-13770D01*
X86540Y-13445D02*
X86965Y-13445D01*
X87290Y-13770D02*
X87290Y-15295D01*
X86540Y-12945D02*
X86540Y-13445D01*
G54D50*
X79949Y-18888D02*
X80413Y-18888D01*
X91177Y-27460D02*
X91657Y-27940D01*
X90370Y-27460D02*
X91177Y-27460D01*
X90080Y-27170D02*
X90370Y-27460D01*
X90080Y-24015D02*
X90080Y-27170D01*
X89655Y-23590D02*
X90080Y-24015D01*
X85115Y-23590D02*
X89655Y-23590D01*
X82600Y-21075D02*
X85115Y-23590D01*
X80413Y-18888D02*
X82125Y-20600D01*
G54D44*
X92657Y-28240D02*
X91957Y-28240D01*
X91957Y-28240D02*
X91657Y-27940D01*
G54D50*
X79378Y-19459D02*
X79378Y-20272D01*
X71410Y-28240D02*
X62667Y-28240D01*
X79378Y-20272D02*
X71410Y-28240D01*
G54D44*
X62667Y-28240D02*
X61957Y-28240D01*
X61957Y-28240D02*
X61657Y-27940D01*
G54D50*
X78590Y-19459D02*
X78590Y-20041D01*
X55220Y-28240D02*
X32667Y-28240D01*
X58445Y-25015D02*
X55220Y-28240D01*
X73616Y-25015D02*
X58445Y-25015D01*
X78590Y-20041D02*
X73616Y-25015D01*
G54D44*
X32667Y-28240D02*
X31957Y-28240D01*
X31957Y-28240D02*
X31657Y-27940D01*
G54D50*
X77606Y-19459D02*
X77606Y-20007D01*
X12565Y-28240D02*
X2667Y-28240D01*
X16510Y-24294D02*
X12565Y-28240D01*
X73318Y-24294D02*
X16510Y-24294D01*
X77606Y-20007D02*
X73318Y-24294D01*
G54D44*
X2667Y-28240D02*
X1957Y-28240D01*
X1957Y-28240D02*
X1657Y-27940D01*
G54D50*
X69739Y-2370D02*
X69739Y-2058D01*
X83666Y-684D02*
X85354Y-2373D01*
X71112Y-684D02*
X83666Y-684D01*
X69739Y-2058D02*
X71112Y-684D01*
X69995Y-2368D02*
X69995Y-2056D01*
X82846Y-864D02*
X84354Y-2373D01*
X71187Y-864D02*
X82846Y-864D01*
X69995Y-2056D02*
X71187Y-864D01*
X70251Y-2368D02*
X70251Y-2055D01*
X82026Y-1044D02*
X83354Y-2373D01*
X71261Y-1044D02*
X82026Y-1044D01*
X70251Y-2055D02*
X71261Y-1044D01*
X70507Y-2368D02*
X70507Y-2054D01*
X81206Y-1224D02*
X82354Y-2373D01*
X71336Y-1224D02*
X81206Y-1224D01*
X70507Y-2054D02*
X71336Y-1224D01*
X70763Y-2368D02*
X70763Y-2052D01*
X80386Y-1404D02*
X81354Y-2373D01*
X71410Y-1404D02*
X80386Y-1404D01*
X70763Y-2052D02*
X71410Y-1404D01*
X71019Y-2368D02*
X71019Y-2051D01*
X79566Y-1584D02*
X80354Y-2373D01*
X71485Y-1584D02*
X79566Y-1584D01*
X71019Y-2051D02*
X71485Y-1584D01*
X71275Y-2368D02*
X71275Y-2049D01*
X78746Y-1764D02*
X79354Y-2373D01*
X71560Y-1764D02*
X78746Y-1764D01*
X71275Y-2049D02*
X71560Y-1764D01*
X78354Y-2373D02*
X78354Y-2174D01*
X71954Y-1945D02*
X71531Y-2368D01*
X78125Y-1945D02*
X71954Y-1945D01*
X78354Y-2174D02*
X78125Y-1945D01*
X67881Y-2368D02*
X67881Y-1978D01*
X84486Y-504D02*
X86354Y-2373D01*
X69355Y-504D02*
X84486Y-504D01*
X67881Y-1978D02*
X69355Y-504D01*
X67369Y-2368D02*
X67369Y-1981D01*
X86126Y-144D02*
X88354Y-2373D01*
X69205Y-144D02*
X86126Y-144D01*
X67369Y-1981D02*
X69205Y-144D01*
X67625Y-2368D02*
X67625Y-1980D01*
X85306Y-324D02*
X87354Y-2373D01*
X69280Y-324D02*
X85306Y-324D01*
X67625Y-1980D02*
X69280Y-324D01*
G54D48*
X83320Y-16565D02*
X90415Y-16565D01*
G54D50*
X79949Y-16722D02*
X80058Y-16722D01*
X80058Y-16722D02*
X80215Y-16565D01*
G54D48*
X90415Y-16565D02*
X90420Y-16560D01*
G54D50*
X79949Y-18297D02*
X80412Y-18297D01*
X93390Y-25044D02*
X93390Y-25450D01*
X91755Y-23410D02*
X93390Y-25044D01*
X85525Y-23410D02*
X91755Y-23410D01*
X80412Y-18297D02*
X85525Y-23410D01*
X93390Y-25450D02*
X93390Y-25285D01*
X93830Y-26629D02*
X93830Y-24975D01*
X80332Y-17707D02*
X85675Y-23050D01*
X85675Y-23050D02*
X91904Y-23050D01*
X93390Y-26950D02*
X93510Y-26950D01*
X93510Y-26950D02*
X93830Y-26629D01*
X80332Y-17707D02*
X79949Y-17707D01*
X93830Y-24975D02*
X91904Y-23050D01*
X93650Y-26095D02*
X93650Y-25050D01*
X93545Y-26200D02*
X93650Y-26095D01*
X93390Y-26200D02*
X93545Y-26200D01*
X80273Y-17903D02*
X79949Y-17903D01*
X85600Y-23230D02*
X80273Y-17903D01*
X91830Y-23230D02*
X85600Y-23230D01*
X93650Y-25050D02*
X91830Y-23230D01*
G54D48*
X90416Y-19318D02*
X88328Y-19318D01*
X88328Y-19318D02*
X86540Y-17530D01*
X87290Y-16020D02*
X86540Y-16020D01*
X86540Y-13945D02*
X86540Y-16020D01*
X86540Y-13945D02*
X85560Y-13945D01*
X85560Y-13945D02*
X85285Y-13670D01*
G54D50*
X79949Y-16919D02*
X80286Y-16919D01*
X80286Y-16919D02*
X83535Y-13670D01*
X83535Y-13670D02*
X85285Y-13670D01*
X78787Y-19459D02*
X78787Y-20099D01*
X73436Y-25450D02*
X63390Y-25450D01*
X78787Y-20099D02*
X73436Y-25450D01*
X79181Y-19459D02*
X79181Y-20214D01*
X72445Y-26950D02*
X63390Y-26950D01*
X79181Y-20214D02*
X72445Y-26950D01*
X78984Y-19459D02*
X78984Y-20156D01*
X72940Y-26200D02*
X63390Y-26200D01*
X78984Y-20156D02*
X72940Y-26200D01*
X77803Y-19459D02*
X77803Y-20065D01*
X35039Y-27099D02*
X33390Y-25450D01*
X55596Y-27099D02*
X35039Y-27099D01*
X58221Y-24474D02*
X55596Y-27099D01*
X73393Y-24474D02*
X58221Y-24474D01*
X77803Y-20065D02*
X73393Y-24474D01*
X78393Y-19459D02*
X78393Y-19984D01*
X33899Y-27459D02*
X33390Y-26950D01*
X55745Y-27459D02*
X33899Y-27459D01*
X58370Y-24834D02*
X55745Y-27459D01*
X73542Y-24834D02*
X58370Y-24834D01*
X78393Y-19984D02*
X73542Y-24834D01*
X78197Y-19459D02*
X78197Y-19925D01*
X34469Y-27279D02*
X33390Y-26200D01*
X55670Y-27279D02*
X34469Y-27279D01*
X58295Y-24654D02*
X55670Y-27279D01*
X73467Y-24654D02*
X58295Y-24654D01*
X78197Y-19925D02*
X73467Y-24654D01*
X74750Y-18475D02*
X74750Y-22099D01*
X76286Y-18691D02*
X76070Y-18475D01*
X76070Y-18475D02*
X75665Y-18475D01*
X76641Y-18691D02*
X76286Y-18691D01*
X14591Y-25450D02*
X3400Y-25450D01*
X16286Y-23754D02*
X14591Y-25450D01*
X73094Y-23754D02*
X16286Y-23754D01*
X74750Y-22099D02*
X73094Y-23754D01*
X77212Y-19459D02*
X77212Y-20146D01*
X13600Y-26950D02*
X3400Y-26950D01*
X16435Y-24114D02*
X13600Y-26950D01*
X73243Y-24114D02*
X16435Y-24114D01*
X77212Y-20146D02*
X73243Y-24114D01*
X75075Y-18805D02*
X75075Y-22029D01*
X76641Y-18888D02*
X76078Y-18888D01*
X76078Y-18888D02*
X75995Y-18805D01*
X14095Y-26200D02*
X3400Y-26200D01*
X16360Y-23934D02*
X14095Y-26200D01*
X73169Y-23934D02*
X16360Y-23934D01*
X75075Y-22029D02*
X73169Y-23934D01*
G54D48*
X62790Y-26200D02*
X62405Y-26200D01*
G54D41*
X88530Y-1306D02*
X88530Y-1549D01*
X88530Y-1549D02*
X89354Y-2373D01*
X88532Y-558D02*
X88532Y-1304D01*
X88532Y-1304D02*
X88530Y-1306D01*
X75325Y-2400D02*
X76327Y-2400D01*
X76327Y-2400D02*
X76354Y-2373D01*
G54D48*
X62790Y-26950D02*
X62725Y-26950D01*
X62725Y-26950D02*
X62405Y-26630D01*
G54D46*
X77050Y-7500D02*
X77050Y-6000D01*
X77050Y-7500D02*
X78550Y-6000D01*
X77050Y-7500D02*
X78550Y-7500D01*
X77050Y-7500D02*
X78550Y-9000D01*
X77050Y-7500D02*
X77050Y-9000D01*
X77050Y-7500D02*
X75550Y-9000D01*
X77050Y-7500D02*
X75550Y-7500D01*
X77050Y-7500D02*
X75550Y-6000D01*
G54D43*
X77050Y-4393D02*
X77050Y-5915D01*
X78550Y-9850D02*
X78550Y-8950D01*
G54D50*
X77050Y-7500D02*
X77050Y-8000D01*
X77050Y-7500D02*
X77050Y-7000D01*
X77050Y-7500D02*
X76550Y-7500D01*
X76550Y-7500D02*
X76050Y-8000D01*
X77050Y-7500D02*
X77550Y-7500D01*
X77550Y-7500D02*
X78050Y-7000D01*
X77050Y-7500D02*
X77550Y-7500D01*
X77550Y-7500D02*
X78050Y-8000D01*
X76550Y-7500D02*
X76050Y-7000D01*
X77050Y-7500D02*
X77550Y-7500D01*
X77050Y-8000D02*
X76550Y-8500D01*
X77050Y-8000D02*
X77550Y-8500D01*
X77050Y-7500D02*
X78050Y-8500D01*
X77050Y-7500D02*
X76050Y-8500D01*
X77050Y-7500D02*
X76550Y-8000D01*
X77050Y-7500D02*
X77550Y-8000D01*
X77050Y-7000D02*
X77550Y-6500D01*
X77050Y-7500D02*
X78050Y-6500D01*
X77050Y-7500D02*
X77550Y-7000D01*
X77050Y-7000D02*
X76550Y-6500D01*
X77050Y-7500D02*
X76050Y-6500D01*
X77050Y-7500D02*
X76550Y-7000D01*
X77050Y-7500D02*
X77050Y-8500D01*
X77050Y-7500D02*
X77050Y-6500D01*
X77050Y-7500D02*
X76050Y-7500D01*
X77050Y-7500D02*
X78050Y-7500D01*
G54D42*
X77050Y-4393D02*
X75256Y-4393D01*
X75256Y-4393D02*
X75250Y-4400D01*
G54D44*
X78600Y-4300D02*
X77143Y-4300D01*
X77143Y-4300D02*
X77050Y-4393D01*
G54D41*
X92508Y-11680D02*
X93500Y-11680D01*
X93500Y-11680D02*
X93515Y-11695D01*
X92508Y-7192D02*
X93512Y-7192D01*
X93512Y-7192D02*
X93515Y-7195D01*
X92469Y-20105D02*
X93504Y-20105D01*
X93504Y-20105D02*
X93515Y-20095D01*
X92508Y-15892D02*
X93217Y-15892D01*
X93217Y-15892D02*
X93515Y-15595D01*
G54D44*
X81840Y-12630D02*
X80165Y-12630D01*
G54D50*
X78393Y-16151D02*
X78393Y-13717D01*
X79480Y-12630D02*
X80165Y-12630D01*
X78393Y-13717D02*
X79480Y-12630D01*
G54D44*
X74745Y-12630D02*
X76425Y-12630D01*
G54D50*
X78197Y-16151D02*
X78197Y-13717D01*
X77110Y-12630D02*
X76425Y-12630D01*
X78197Y-13717D02*
X77110Y-12630D01*
X78190Y-16151D02*
X78197Y-16151D01*
X78197Y-16144D02*
X78190Y-16151D01*
G54D44*
X93615Y-6295D02*
X93984Y-6664D01*
X93984Y-6664D02*
X93984Y-12045D01*
X93984Y-12045D02*
X93830Y-12200D01*
X93615Y-6295D02*
X93515Y-6295D01*
G54D41*
X92605Y-14672D02*
X93492Y-14672D01*
X93492Y-14672D02*
X93515Y-14695D01*
G54D44*
X93515Y-16885D02*
X93515Y-19195D01*
X93020Y-16390D02*
X93515Y-16885D01*
G54D41*
X92527Y-18924D02*
X93244Y-18924D01*
X93244Y-18924D02*
X93515Y-19195D01*
G54D44*
X91661Y-19299D02*
X91034Y-19299D01*
X91034Y-19299D02*
X91016Y-19318D01*
G54D48*
X91739Y-15047D02*
X91462Y-15047D01*
X91220Y-16560D02*
X91020Y-16560D01*
X91320Y-16460D02*
X91220Y-16560D01*
X91320Y-15190D02*
X91320Y-16460D01*
X91462Y-15047D02*
X91320Y-15190D01*
G54D44*
X92515Y-13445D02*
X92665Y-13595D01*
X90790Y-13445D02*
X92515Y-13445D01*
X89915Y-13445D02*
X90790Y-13445D01*
X88640Y-13445D02*
X89915Y-13445D01*
X90815Y-13470D02*
X90790Y-13445D01*
X90815Y-13836D02*
X90815Y-13470D01*
X89940Y-13470D02*
X89915Y-13445D01*
X89940Y-13855D02*
X89940Y-13470D01*
G54D41*
X84420Y-3850D02*
X84420Y-4390D01*
X84420Y-4390D02*
X84473Y-4443D01*
G54D42*
X83370Y-3550D02*
X83370Y-4400D01*
X83370Y-4400D02*
X83326Y-4443D01*
G54D49*
X85920Y-4443D02*
X84473Y-4443D01*
X84473Y-4443D02*
X83326Y-4443D01*
X83326Y-4443D02*
X80856Y-4443D01*
X80856Y-4443D02*
X79880Y-5420D01*
X79880Y-5420D02*
X79880Y-6600D01*
G54D43*
X87275Y-4440D02*
X85923Y-4440D01*
X85923Y-4440D02*
X85920Y-4443D01*
X85938Y-4425D02*
X85920Y-4443D01*
G54D49*
X85920Y-4443D02*
X85920Y-6370D01*
X85920Y-6370D02*
X86150Y-6600D01*
G54D44*
X92515Y-12945D02*
X92665Y-12795D01*
X90790Y-12945D02*
X92515Y-12945D01*
X89965Y-12945D02*
X90790Y-12945D01*
X88640Y-12945D02*
X89965Y-12945D01*
X90815Y-12945D02*
X90790Y-12945D01*
X90815Y-12554D02*
X90815Y-12945D01*
X89940Y-12945D02*
X89965Y-12945D01*
X89940Y-12545D02*
X89940Y-12945D01*
G54D48*
X81370Y-23930D02*
X81370Y-26690D01*
X81370Y-26690D02*
X81875Y-27195D01*
X82360Y-23930D02*
X82360Y-26680D01*
X82360Y-26680D02*
X82875Y-27195D01*
G54D41*
X82875Y-26195D02*
X84035Y-26195D01*
X84035Y-26195D02*
X84040Y-26190D01*
G54D48*
X92790Y-25450D02*
X92720Y-25450D01*
X92720Y-25450D02*
X92405Y-25765D01*
X92790Y-26200D02*
X92405Y-26200D01*
X32790Y-25450D02*
X32720Y-25450D01*
X32720Y-25450D02*
X32405Y-25765D01*
X32790Y-26200D02*
X32405Y-26200D01*
X32790Y-26950D02*
X32720Y-26950D01*
X32720Y-26950D02*
X32405Y-26635D01*
X2800Y-25450D02*
X2735Y-25450D01*
X2735Y-25450D02*
X2415Y-25770D01*
X2800Y-26200D02*
X2415Y-26200D01*
X2800Y-26950D02*
X2730Y-26950D01*
X2730Y-26950D02*
X2415Y-26635D01*
G54D50*
X78770Y-14155D02*
X78970Y-14155D01*
X78595Y-14330D02*
X78770Y-14155D01*
X78595Y-15680D02*
X78595Y-14330D01*
X78787Y-16151D02*
X78787Y-15872D01*
X78787Y-15872D02*
X78595Y-15680D01*
G54D44*
X89940Y-14735D02*
X89940Y-15295D01*
G54D48*
X92790Y-26950D02*
X92725Y-26950D01*
X92725Y-26950D02*
X92405Y-26630D01*
G54D49*
X91402Y-4300D02*
X89700Y-4300D01*
X89700Y-4300D02*
X89700Y-4300D01*
G54D48*
X62790Y-25450D02*
X62720Y-25450D01*
X62720Y-25450D02*
X62405Y-25765D01*
G54D41*
X74575Y-2400D02*
X74125Y-2400D01*
X73898Y-2627D02*
X73898Y-3245D01*
X74125Y-2400D02*
X73898Y-2627D01*
G54D48*
X73040Y-4245D02*
X73040Y-3628D01*
X73040Y-3628D02*
X73032Y-3620D01*
X78875Y-27195D02*
X78615Y-27195D01*
G54D50*
X78984Y-16571D02*
X78950Y-16605D01*
X78984Y-16571D02*
X78984Y-16151D01*
X78950Y-17330D02*
X78950Y-18455D01*
G54D48*
X79640Y-20299D02*
X79640Y-19485D01*
X78110Y-21829D02*
X79640Y-20299D01*
X78110Y-26690D02*
X78110Y-21829D01*
X78615Y-27195D02*
X78110Y-26690D01*
X78975Y-15455D02*
X78975Y-14805D01*
G54D50*
X78984Y-16151D02*
X78984Y-15464D01*
X78984Y-15464D02*
X78975Y-15455D01*
G54D44*
X95715Y-17195D02*
X96115Y-16795D01*
X95415Y-17195D02*
X95715Y-17195D01*
X95715Y-8795D02*
X96115Y-8395D01*
X95415Y-8795D02*
X95715Y-8795D01*
X94265Y-13495D02*
X94165Y-13595D01*
X94915Y-8795D02*
X94265Y-9445D01*
X95415Y-8795D02*
X94915Y-8795D01*
X94265Y-13145D02*
X94265Y-13495D01*
X94265Y-13220D02*
X94265Y-13145D01*
X94265Y-9445D02*
X94265Y-13220D01*
X94265Y-13220D02*
X94265Y-17195D01*
X94165Y-13595D02*
X93415Y-13595D01*
X95715Y-17995D02*
X96115Y-17595D01*
X95415Y-17995D02*
X95715Y-17995D01*
X95815Y-9495D02*
X96115Y-9195D01*
X95715Y-9595D02*
X95815Y-9495D01*
X93415Y-12795D02*
X93840Y-12795D01*
X94815Y-13495D02*
X94915Y-13595D01*
X94815Y-13170D02*
X94815Y-13495D01*
X94815Y-12795D02*
X94815Y-13170D01*
X95715Y-9595D02*
X95815Y-9495D01*
X95415Y-9595D02*
X95715Y-9595D01*
X94815Y-9920D02*
X94815Y-12795D01*
X94815Y-9920D02*
X95140Y-9595D01*
X95415Y-9595D02*
X95140Y-9595D01*
X94815Y-17395D02*
X95415Y-17995D01*
X94815Y-13170D02*
X94815Y-17395D01*
G54D48*
X86540Y-11815D02*
X86540Y-12445D01*
X86540Y-12445D02*
X85510Y-12445D01*
X85510Y-12445D02*
X85285Y-12670D01*
G54D50*
X79949Y-17116D02*
X79671Y-17116D01*
X79671Y-17116D02*
X79560Y-17005D01*
X79560Y-17005D02*
X79560Y-16615D01*
X79560Y-16615D02*
X83505Y-12670D01*
X83505Y-12670D02*
X85285Y-12670D01*
X78000Y-19459D02*
X78000Y-19200D01*
X81370Y-20820D02*
X81370Y-23330D01*
X79600Y-19050D02*
X81370Y-20820D01*
X78150Y-19050D02*
X79600Y-19050D01*
X78000Y-19200D02*
X78150Y-19050D01*
X79949Y-18494D02*
X80355Y-18494D01*
X82360Y-20498D02*
X82360Y-23330D01*
X80355Y-18494D02*
X82360Y-20498D01*
X69483Y-4572D02*
X69483Y-10558D01*
X71260Y-10560D02*
X71260Y-10635D01*
X77540Y-16915D02*
X71260Y-10635D01*
X79181Y-16734D02*
X79181Y-16151D01*
X79181Y-16734D02*
X79000Y-16915D01*
X79000Y-16915D02*
X77540Y-16915D01*
X69483Y-10558D02*
X69485Y-10560D01*
X76641Y-16722D02*
X76641Y-16716D01*
X69739Y-11209D02*
X69739Y-4572D01*
X69745Y-11215D02*
X69739Y-11209D01*
X71245Y-11320D02*
X71245Y-11215D01*
X76641Y-16716D02*
X71245Y-11320D01*
X69995Y-4572D02*
X69995Y-13389D01*
X77409Y-19204D02*
X77409Y-19459D01*
X77335Y-19130D02*
X77409Y-19204D01*
X77089Y-19130D02*
X77335Y-19130D01*
X76964Y-19255D02*
X77089Y-19130D01*
X75860Y-19255D02*
X76964Y-19255D01*
X69995Y-13389D02*
X75860Y-19255D01*
X70251Y-4572D02*
X70251Y-13391D01*
X77274Y-18691D02*
X79949Y-18691D01*
X76890Y-19075D02*
X77274Y-18691D01*
X75935Y-19075D02*
X76890Y-19075D01*
X70251Y-13391D02*
X75935Y-19075D01*
X76641Y-17903D02*
X76027Y-17903D01*
X70507Y-10957D02*
X70507Y-4572D01*
X70515Y-10965D02*
X70507Y-10957D01*
X71000Y-12875D02*
X71000Y-10965D01*
X76027Y-17903D02*
X71000Y-12875D01*
X70763Y-4572D02*
X70763Y-12893D01*
X75970Y-18100D02*
X76641Y-18100D01*
X70763Y-12893D02*
X75970Y-18100D01*
X71019Y-4572D02*
X71019Y-10648D01*
X79378Y-16821D02*
X79104Y-17095D01*
X79104Y-17095D02*
X77465Y-17095D01*
X79378Y-16821D02*
X79378Y-16151D01*
X71019Y-10648D02*
X77465Y-17095D01*
X77409Y-16151D02*
X77409Y-15899D01*
X71275Y-9765D02*
X71275Y-4572D01*
X77409Y-15899D02*
X71275Y-9765D01*
X73040Y-4845D02*
X73040Y-11170D01*
X77212Y-16137D02*
X73040Y-11965D01*
X77212Y-16137D02*
X77212Y-16151D01*
X69227Y-4572D02*
X69227Y-11222D01*
X76404Y-16919D02*
X71240Y-11755D01*
X76404Y-16919D02*
X76641Y-16919D01*
X69227Y-11222D02*
X69760Y-11755D01*
X67625Y-4572D02*
X67625Y-9950D01*
X76271Y-17116D02*
X71240Y-12085D01*
X76271Y-17116D02*
X76641Y-17116D01*
X67625Y-9950D02*
X69760Y-12085D01*
X67113Y-4572D02*
X67113Y-10108D01*
X75990Y-17510D02*
X76641Y-17510D01*
X75990Y-17510D02*
X71235Y-12755D01*
X67113Y-10108D02*
X69760Y-12755D01*
X67369Y-4572D02*
X67369Y-10024D01*
X76133Y-17308D02*
X71240Y-12415D01*
X76133Y-17308D02*
X76641Y-17308D01*
X67369Y-10024D02*
X69760Y-12415D01*
G54D43*
X92898Y-4300D02*
X92898Y-4378D01*
G54D49*
X92898Y-4378D02*
X96115Y-7595D01*
X95815Y-7595D02*
X95415Y-7995D01*
X96115Y-7595D02*
X95815Y-7595D01*
G54D43*
X96415Y-7595D02*
X96890Y-8070D01*
X96890Y-8070D02*
X96890Y-10200D01*
G54D41*
X95585Y-11505D02*
X95565Y-11525D01*
G54D43*
X96890Y-10200D02*
X95585Y-11505D01*
G54D49*
X96115Y-7595D02*
X96415Y-7595D01*
X95815Y-15995D02*
X95415Y-16395D01*
X96115Y-15995D02*
X95815Y-15995D01*
G54D43*
X95585Y-15765D02*
X95815Y-15995D01*
X95585Y-13065D02*
X95585Y-15765D01*
X95585Y-11505D02*
X95585Y-13065D01*
G54D41*
X95725Y-13205D02*
X95585Y-13065D01*
X96185Y-13205D02*
X95725Y-13205D01*
G54D10*
G36*
X85080Y-9180D02*
X84660Y-9180D01*
X84660Y-8663D01*
X84660Y-6336D01*
X84641Y-6292D01*
X84608Y-6258D01*
X84563Y-6240D01*
X84516Y-6239D01*
X83710Y-6240D01*
X83680Y-6270D01*
X83680Y-7140D01*
X84630Y-7140D01*
X84660Y-7110D01*
X84660Y-6336D01*
X84660Y-8663D01*
X84660Y-7890D01*
X84630Y-7860D01*
X83680Y-7860D01*
X83680Y-8730D01*
X83710Y-8760D01*
X84516Y-8760D01*
X84563Y-8759D01*
X84608Y-8741D01*
X84641Y-8707D01*
X84660Y-8663D01*
X84660Y-9180D01*
X82960Y-9180D01*
X82960Y-8730D01*
X82960Y-7860D01*
X82960Y-7140D01*
X82960Y-6270D01*
X82930Y-6240D01*
X82123Y-6239D01*
X82076Y-6240D01*
X82031Y-6258D01*
X81998Y-6292D01*
X81979Y-6336D01*
X81980Y-7110D01*
X82010Y-7140D01*
X82960Y-7140D01*
X82960Y-7860D01*
X82010Y-7860D01*
X81980Y-7890D01*
X81979Y-8663D01*
X81998Y-8707D01*
X82031Y-8741D01*
X82076Y-8759D01*
X82123Y-8760D01*
X82930Y-8760D01*
X82960Y-8730D01*
X82960Y-9180D01*
X81560Y-9180D01*
X81560Y-5820D01*
X85080Y-5820D01*
X85080Y-9180D01*
X85080Y-9180D01*
G37*
G54D51*
X85080Y-9180D02*
X84660Y-9180D01*
X84660Y-8663D01*
X84660Y-6336D01*
X84641Y-6292D01*
X84608Y-6258D01*
X84563Y-6240D01*
X84516Y-6239D01*
X83710Y-6240D01*
X83680Y-6270D01*
X83680Y-7140D01*
X84630Y-7140D01*
X84660Y-7110D01*
X84660Y-6336D01*
X84660Y-8663D01*
X84660Y-7890D01*
X84630Y-7860D01*
X83680Y-7860D01*
X83680Y-8730D01*
X83710Y-8760D01*
X84516Y-8760D01*
X84563Y-8759D01*
X84608Y-8741D01*
X84641Y-8707D01*
X84660Y-8663D01*
X84660Y-9180D01*
X82960Y-9180D01*
X82960Y-8730D01*
X82960Y-7860D01*
X82960Y-7140D01*
X82960Y-6270D01*
X82930Y-6240D01*
X82123Y-6239D01*
X82076Y-6240D01*
X82031Y-6258D01*
X81998Y-6292D01*
X81979Y-6336D01*
X81980Y-7110D01*
X82010Y-7140D01*
X82960Y-7140D01*
X82960Y-7860D01*
X82010Y-7860D01*
X81980Y-7890D01*
X81979Y-8663D01*
X81998Y-8707D01*
X82031Y-8741D01*
X82076Y-8759D01*
X82123Y-8760D01*
X82930Y-8760D01*
X82960Y-8730D01*
X82960Y-9180D01*
X81560Y-9180D01*
X81560Y-5820D01*
X85080Y-5820D01*
X85080Y-9180D01*
G54D10*
G36*
X78810Y-9180D02*
X78390Y-9180D01*
X78390Y-8663D01*
X78390Y-6336D01*
X78371Y-6292D01*
X78338Y-6258D01*
X78293Y-6240D01*
X78246Y-6239D01*
X77440Y-6240D01*
X77410Y-6270D01*
X77410Y-7140D01*
X78360Y-7140D01*
X78390Y-7110D01*
X78390Y-6336D01*
X78390Y-8663D01*
X78390Y-7890D01*
X78360Y-7860D01*
X77410Y-7860D01*
X77410Y-8730D01*
X77440Y-8760D01*
X78246Y-8760D01*
X78293Y-8759D01*
X78338Y-8741D01*
X78371Y-8707D01*
X78390Y-8663D01*
X78390Y-9180D01*
X76690Y-9180D01*
X76690Y-8730D01*
X76690Y-7860D01*
X76690Y-7140D01*
X76690Y-6270D01*
X76660Y-6240D01*
X75853Y-6239D01*
X75806Y-6240D01*
X75761Y-6258D01*
X75728Y-6292D01*
X75709Y-6336D01*
X75710Y-7110D01*
X75740Y-7140D01*
X76690Y-7140D01*
X76690Y-7860D01*
X75740Y-7860D01*
X75710Y-7890D01*
X75709Y-8663D01*
X75728Y-8707D01*
X75761Y-8741D01*
X75806Y-8759D01*
X75853Y-8760D01*
X76660Y-8760D01*
X76690Y-8730D01*
X76690Y-9180D01*
X75290Y-9180D01*
X75290Y-5820D01*
X78810Y-5820D01*
X78810Y-9180D01*
X78810Y-9180D01*
G37*
G54D51*
X78810Y-9180D02*
X78390Y-9180D01*
X78390Y-8663D01*
X78390Y-6336D01*
X78371Y-6292D01*
X78338Y-6258D01*
X78293Y-6240D01*
X78246Y-6239D01*
X77440Y-6240D01*
X77410Y-6270D01*
X77410Y-7140D01*
X78360Y-7140D01*
X78390Y-7110D01*
X78390Y-6336D01*
X78390Y-8663D01*
X78390Y-7890D01*
X78360Y-7860D01*
X77410Y-7860D01*
X77410Y-8730D01*
X77440Y-8760D01*
X78246Y-8760D01*
X78293Y-8759D01*
X78338Y-8741D01*
X78371Y-8707D01*
X78390Y-8663D01*
X78390Y-9180D01*
X76690Y-9180D01*
X76690Y-8730D01*
X76690Y-7860D01*
X76690Y-7140D01*
X76690Y-6270D01*
X76660Y-6240D01*
X75853Y-6239D01*
X75806Y-6240D01*
X75761Y-6258D01*
X75728Y-6292D01*
X75709Y-6336D01*
X75710Y-7110D01*
X75740Y-7140D01*
X76690Y-7140D01*
X76690Y-7860D01*
X75740Y-7860D01*
X75710Y-7890D01*
X75709Y-8663D01*
X75728Y-8707D01*
X75761Y-8741D01*
X75806Y-8759D01*
X75853Y-8760D01*
X76660Y-8760D01*
X76690Y-8730D01*
X76690Y-9180D01*
X75290Y-9180D01*
X75290Y-5820D01*
X78810Y-5820D01*
X78810Y-9180D01*
M02*
