G04 (created by PCBNEW (2013-07-07 BZR 4022)-stable) date 23/04/2014 17:50:20*
%MOIN*%
G04 Gerber Fmt 3.4, Leading zero omitted, Abs format*
%FSLAX34Y34*%
G01*
G70*
G90*
G04 APERTURE LIST*
%ADD10C,0.006*%
%ADD11C,0.052*%
%ADD12C,0.128*%
%ADD13R,0.055X0.055*%
%ADD14R,0.06X0.06*%
%ADD15C,0.06*%
%ADD16R,0.0511811X0.0275591*%
%ADD17C,0.0472441*%
%ADD18R,0.0472441X0.0472441*%
%ADD19C,0.177165*%
%ADD20C,0.0590551*%
%ADD21R,0.0669291X0.0669291*%
%ADD22R,0.0590551X0.0590551*%
G04 APERTURE END LIST*
G54D10*
G54D11*
X93515Y-14695D03*
X93515Y-15595D03*
X93515Y-19195D03*
X93515Y-20095D03*
X95415Y-18795D03*
X95415Y-17995D03*
X95415Y-17195D03*
X95415Y-16395D03*
X96115Y-17595D03*
X96115Y-16795D03*
X96115Y-18395D03*
X96115Y-15995D03*
G54D12*
X97115Y-14895D03*
X97115Y-19895D03*
G54D11*
X93515Y-6295D03*
X93515Y-7195D03*
X93515Y-10795D03*
X93515Y-11695D03*
X95415Y-10395D03*
X95415Y-9595D03*
X95415Y-8795D03*
X95415Y-7995D03*
X96115Y-9195D03*
X96115Y-8395D03*
X96115Y-9995D03*
X96115Y-7595D03*
G54D12*
X97115Y-6495D03*
X97115Y-11495D03*
G54D13*
X75250Y-4400D03*
G54D14*
X82875Y-26195D03*
G54D15*
X82875Y-27195D03*
X81875Y-26195D03*
X81875Y-27195D03*
X80875Y-26195D03*
X80875Y-27195D03*
X79875Y-26195D03*
X79875Y-27195D03*
X78875Y-26195D03*
X78875Y-27195D03*
G54D14*
X60657Y-27940D03*
G54D15*
X61657Y-27940D03*
G54D14*
X657Y-27940D03*
G54D15*
X1657Y-27940D03*
G54D14*
X30657Y-27940D03*
G54D15*
X31657Y-27940D03*
G54D14*
X90657Y-27940D03*
G54D15*
X91657Y-27940D03*
G54D16*
X91767Y-25766D03*
X91767Y-26200D03*
X91767Y-26633D03*
X90546Y-26633D03*
X90546Y-26200D03*
X90546Y-25766D03*
X61767Y-25766D03*
X61767Y-26200D03*
X61767Y-26633D03*
X60546Y-26633D03*
X60546Y-26200D03*
X60546Y-25766D03*
X1767Y-25766D03*
X1767Y-26200D03*
X1767Y-26633D03*
X546Y-26633D03*
X546Y-26200D03*
X546Y-25766D03*
X31767Y-25766D03*
X31767Y-26200D03*
X31767Y-26633D03*
X30546Y-26633D03*
X30546Y-26200D03*
X30546Y-25766D03*
G54D17*
X85920Y-3656D03*
G54D18*
X85920Y-4443D03*
G54D17*
X89700Y-9193D03*
G54D18*
X89700Y-8406D03*
G54D17*
X77050Y-3606D03*
G54D18*
X77050Y-4393D03*
G54D17*
X91143Y-1000D03*
G54D18*
X90356Y-1000D03*
G54D19*
X97004Y-993D03*
X97004Y-3946D03*
X95035Y-993D03*
X95035Y-3946D03*
X97004Y-25248D03*
X97004Y-28201D03*
X95035Y-25248D03*
X95035Y-28201D03*
G54D13*
X83370Y-3550D03*
G54D14*
X85285Y-10670D03*
G54D15*
X85285Y-11670D03*
X85285Y-12670D03*
X85285Y-13670D03*
G54D20*
X85285Y-14670D03*
G54D21*
X96610Y-22520D03*
G54D20*
X77354Y-2373D03*
X76354Y-2373D03*
X81354Y-2373D03*
X80354Y-2373D03*
X79354Y-2373D03*
X84354Y-2373D03*
X83354Y-2373D03*
X82354Y-2373D03*
X88354Y-2373D03*
X87354Y-2373D03*
X86354Y-2373D03*
G54D22*
X91354Y-2373D03*
G54D20*
X90354Y-2373D03*
X78354Y-2373D03*
X89354Y-2373D03*
X85354Y-2373D03*
M02*
