G04 (created by PCBNEW (2013-07-07 BZR 4022)-stable) date 23/04/2014 17:50:20*
%MOIN*%
G04 Gerber Fmt 3.4, Leading zero omitted, Abs format*
%FSLAX34Y34*%
G01*
G70*
G90*
G04 APERTURE LIST*
%ADD10C,0.006*%
%ADD11C,0.00787402*%
%ADD12C,0.01*%
%ADD13C,0.02*%
G04 APERTURE END LIST*
G54D10*
G54D11*
X90231Y-26908D02*
X90231Y-25530D01*
X92082Y-26908D02*
X90231Y-26908D01*
X92082Y-26908D02*
X92082Y-25530D01*
X90231Y-25530D02*
X92082Y-25530D01*
G54D12*
X91901Y-25245D02*
G75*
G02X91901Y-25245I0J-88D01*
G74*
G01*
G54D11*
X60231Y-26908D02*
X60231Y-25530D01*
X62082Y-26908D02*
X60231Y-26908D01*
X62082Y-26908D02*
X62082Y-25530D01*
X60231Y-25530D02*
X62082Y-25530D01*
G54D12*
X61901Y-25245D02*
G75*
G02X61901Y-25245I0J-88D01*
G74*
G01*
G54D11*
X231Y-26908D02*
X231Y-25530D01*
X2082Y-26908D02*
X231Y-26908D01*
X2082Y-26908D02*
X2082Y-25530D01*
X231Y-25530D02*
X2082Y-25530D01*
G54D12*
X1901Y-25245D02*
G75*
G02X1901Y-25245I0J-88D01*
G74*
G01*
G54D11*
X30231Y-26908D02*
X30231Y-25530D01*
X32082Y-26908D02*
X30231Y-26908D01*
X32082Y-26908D02*
X32082Y-25530D01*
X30231Y-25530D02*
X32082Y-25530D01*
G54D12*
X31901Y-25245D02*
G75*
G02X31901Y-25245I0J-88D01*
G74*
G01*
G54D11*
X94897Y-24026D02*
G75*
G03X94897Y-24026I-590J0D01*
G74*
G01*
X58283Y-24026D02*
G75*
G03X58283Y-24026I-590J0D01*
G74*
G01*
X58283Y-2373D02*
G75*
G03X58283Y-2373I-590J0D01*
G74*
G01*
X94898Y-2373D02*
G75*
G03X94898Y-2373I-591J0D01*
G74*
G01*
G54D13*
X91966Y-1873D02*
G75*
G03X91966Y-1873I-111J0D01*
G74*
G01*
G54D12*
X91854Y-1873D02*
X75854Y-1873D01*
X75854Y-1873D02*
X75854Y-2873D01*
X75854Y-2873D02*
X91854Y-2873D01*
X91854Y-2873D02*
X91854Y-1873D01*
G54D11*
X95291Y-1388D02*
X56708Y-1388D01*
X56708Y-1388D02*
X56708Y-25011D01*
X56708Y-25011D02*
X95291Y-25011D01*
X95291Y-25011D02*
X95291Y-1388D01*
G54D10*
X91513Y-25444D02*
X91665Y-25444D01*
X91665Y-25124D01*
X91406Y-25276D02*
X91299Y-25276D01*
X91254Y-25444D02*
X91406Y-25444D01*
X91406Y-25124D01*
X91254Y-25124D01*
X91116Y-25444D02*
X91116Y-25124D01*
X91040Y-25124D01*
X90995Y-25139D01*
X90964Y-25170D01*
X90949Y-25200D01*
X90934Y-25261D01*
X90934Y-25307D01*
X90949Y-25368D01*
X90964Y-25398D01*
X90995Y-25429D01*
X91040Y-25444D01*
X91116Y-25444D01*
X90629Y-25444D02*
X90812Y-25444D01*
X90720Y-25444D02*
X90720Y-25124D01*
X90751Y-25170D01*
X90781Y-25200D01*
X90812Y-25215D01*
X61513Y-25434D02*
X61665Y-25434D01*
X61665Y-25114D01*
X61406Y-25266D02*
X61299Y-25266D01*
X61254Y-25434D02*
X61406Y-25434D01*
X61406Y-25114D01*
X61254Y-25114D01*
X61116Y-25434D02*
X61116Y-25114D01*
X61040Y-25114D01*
X60995Y-25129D01*
X60964Y-25160D01*
X60949Y-25190D01*
X60934Y-25251D01*
X60934Y-25297D01*
X60949Y-25358D01*
X60964Y-25388D01*
X60995Y-25419D01*
X61040Y-25434D01*
X61116Y-25434D01*
X60812Y-25145D02*
X60796Y-25129D01*
X60766Y-25114D01*
X60690Y-25114D01*
X60659Y-25129D01*
X60644Y-25145D01*
X60629Y-25175D01*
X60629Y-25205D01*
X60644Y-25251D01*
X60827Y-25434D01*
X60629Y-25434D01*
X1518Y-25434D02*
X1670Y-25434D01*
X1670Y-25114D01*
X1411Y-25266D02*
X1304Y-25266D01*
X1259Y-25434D02*
X1411Y-25434D01*
X1411Y-25114D01*
X1259Y-25114D01*
X1121Y-25434D02*
X1121Y-25114D01*
X1045Y-25114D01*
X1000Y-25129D01*
X969Y-25160D01*
X954Y-25190D01*
X939Y-25251D01*
X939Y-25297D01*
X954Y-25358D01*
X969Y-25388D01*
X1000Y-25419D01*
X1045Y-25434D01*
X1121Y-25434D01*
X664Y-25221D02*
X664Y-25434D01*
X740Y-25099D02*
X817Y-25327D01*
X619Y-25327D01*
X31518Y-25439D02*
X31670Y-25439D01*
X31670Y-25119D01*
X31411Y-25271D02*
X31304Y-25271D01*
X31259Y-25439D02*
X31411Y-25439D01*
X31411Y-25119D01*
X31259Y-25119D01*
X31121Y-25439D02*
X31121Y-25119D01*
X31045Y-25119D01*
X31000Y-25134D01*
X30969Y-25165D01*
X30954Y-25195D01*
X30939Y-25256D01*
X30939Y-25302D01*
X30954Y-25363D01*
X30969Y-25393D01*
X31000Y-25424D01*
X31045Y-25439D01*
X31121Y-25439D01*
X30832Y-25119D02*
X30634Y-25119D01*
X30740Y-25241D01*
X30695Y-25241D01*
X30664Y-25256D01*
X30649Y-25271D01*
X30634Y-25302D01*
X30634Y-25378D01*
X30649Y-25409D01*
X30664Y-25424D01*
X30695Y-25439D01*
X30786Y-25439D01*
X30817Y-25424D01*
X30832Y-25409D01*
X76412Y-1242D02*
X76565Y-1242D01*
X76565Y-922D01*
X76123Y-1212D02*
X76138Y-1227D01*
X76184Y-1242D01*
X76214Y-1242D01*
X76260Y-1227D01*
X76290Y-1197D01*
X76306Y-1166D01*
X76321Y-1105D01*
X76321Y-1060D01*
X76306Y-999D01*
X76290Y-968D01*
X76260Y-938D01*
X76214Y-922D01*
X76184Y-922D01*
X76138Y-938D01*
X76123Y-953D01*
X75986Y-1242D02*
X75986Y-922D01*
X75909Y-922D01*
X75864Y-938D01*
X75833Y-968D01*
X75818Y-999D01*
X75803Y-1060D01*
X75803Y-1105D01*
X75818Y-1166D01*
X75833Y-1197D01*
X75864Y-1227D01*
X75909Y-1242D01*
X75986Y-1242D01*
X75498Y-1242D02*
X75681Y-1242D01*
X75589Y-1242D02*
X75589Y-922D01*
X75620Y-968D01*
X75650Y-999D01*
X75681Y-1014D01*
M02*
