G04 #@! TF.FileFunction,Legend,Top*
%FSLAX46Y46*%
G04 Gerber Fmt 4.6, Leading zero omitted, Abs format (unit mm)*
G04 Created by KiCad (PCBNEW (2014-jul-16 BZR unknown)-product) date Ter 09 Dez 2014 13:35:29 BRST*
%MOMM*%
G01*
G04 APERTURE LIST*
%ADD10C,0.152400*%
%ADD11C,0.400000*%
%ADD12C,0.125000*%
%ADD13C,0.300000*%
%ADD14C,0.508000*%
%ADD15C,0.099060*%
%ADD16C,0.254000*%
%ADD17C,0.127000*%
%ADD18C,0.150000*%
%ADD19C,0.200000*%
%ADD20C,0.190500*%
%ADD21C,0.304800*%
%ADD22C,0.078740*%
%ADD23C,0.317500*%
%ADD24C,0.203200*%
G04 APERTURE END LIST*
D10*
D11*
X216616280Y-24356060D02*
X217817700Y-24356060D01*
X216628980Y-25212040D02*
X216628980Y-24389080D01*
X216593420Y-25303480D02*
X216959180Y-24937720D01*
X216263220Y-24973280D02*
X216593420Y-25303480D01*
D12*
X218219530Y-30138000D02*
X218624292Y-30138000D01*
X218671911Y-30114191D01*
X218695721Y-30090381D01*
X218719530Y-30042762D01*
X218719530Y-29947524D01*
X218695721Y-29899905D01*
X218671911Y-29876096D01*
X218624292Y-29852286D01*
X218219530Y-29852286D01*
X218576673Y-29638000D02*
X218576673Y-29399905D01*
X218719530Y-29685619D02*
X218219530Y-29518952D01*
X218719530Y-29352286D01*
X218719530Y-28899905D02*
X218481435Y-29066572D01*
X218719530Y-29185619D02*
X218219530Y-29185619D01*
X218219530Y-28995143D01*
X218243340Y-28947524D01*
X218267150Y-28923715D01*
X218314769Y-28899905D01*
X218386197Y-28899905D01*
X218433816Y-28923715D01*
X218457626Y-28947524D01*
X218481435Y-28995143D01*
X218481435Y-29185619D01*
X218219530Y-28757048D02*
X218219530Y-28471334D01*
X218719530Y-28614191D02*
X218219530Y-28614191D01*
X218719530Y-27923715D02*
X218219530Y-27923715D01*
X218219530Y-27804668D01*
X218243340Y-27733239D01*
X218290959Y-27685620D01*
X218338578Y-27661811D01*
X218433816Y-27638001D01*
X218505245Y-27638001D01*
X218600483Y-27661811D01*
X218648102Y-27685620D01*
X218695721Y-27733239D01*
X218719530Y-27804668D01*
X218719530Y-27923715D01*
X218457626Y-27423715D02*
X218457626Y-27257049D01*
X218719530Y-27185620D02*
X218719530Y-27423715D01*
X218219530Y-27423715D01*
X218219530Y-27185620D01*
X218457626Y-26804668D02*
X218481435Y-26733239D01*
X218505245Y-26709430D01*
X218552864Y-26685620D01*
X218624292Y-26685620D01*
X218671911Y-26709430D01*
X218695721Y-26733239D01*
X218719530Y-26780858D01*
X218719530Y-26971334D01*
X218219530Y-26971334D01*
X218219530Y-26804668D01*
X218243340Y-26757049D01*
X218267150Y-26733239D01*
X218314769Y-26709430D01*
X218362388Y-26709430D01*
X218410007Y-26733239D01*
X218433816Y-26757049D01*
X218457626Y-26804668D01*
X218457626Y-26971334D01*
X218219530Y-26471334D02*
X218624292Y-26471334D01*
X218671911Y-26447525D01*
X218695721Y-26423715D01*
X218719530Y-26376096D01*
X218719530Y-26280858D01*
X218695721Y-26233239D01*
X218671911Y-26209430D01*
X218624292Y-26185620D01*
X218219530Y-26185620D01*
X218243340Y-25685620D02*
X218219530Y-25733239D01*
X218219530Y-25804667D01*
X218243340Y-25876096D01*
X218290959Y-25923715D01*
X218338578Y-25947524D01*
X218433816Y-25971334D01*
X218505245Y-25971334D01*
X218600483Y-25947524D01*
X218648102Y-25923715D01*
X218695721Y-25876096D01*
X218719530Y-25804667D01*
X218719530Y-25757048D01*
X218695721Y-25685620D01*
X218671911Y-25661810D01*
X218505245Y-25661810D01*
X218505245Y-25757048D01*
X218243340Y-25185620D02*
X218219530Y-25233239D01*
X218219530Y-25304667D01*
X218243340Y-25376096D01*
X218290959Y-25423715D01*
X218338578Y-25447524D01*
X218433816Y-25471334D01*
X218505245Y-25471334D01*
X218600483Y-25447524D01*
X218648102Y-25423715D01*
X218695721Y-25376096D01*
X218719530Y-25304667D01*
X218719530Y-25257048D01*
X218695721Y-25185620D01*
X218671911Y-25161810D01*
X218505245Y-25161810D01*
X218505245Y-25257048D01*
X218457626Y-24947524D02*
X218457626Y-24780858D01*
X218719530Y-24709429D02*
X218719530Y-24947524D01*
X218219530Y-24947524D01*
X218219530Y-24709429D01*
X218719530Y-24209429D02*
X218481435Y-24376096D01*
X218719530Y-24495143D02*
X218219530Y-24495143D01*
X218219530Y-24304667D01*
X218243340Y-24257048D01*
X218267150Y-24233239D01*
X218314769Y-24209429D01*
X218386197Y-24209429D01*
X218433816Y-24233239D01*
X218457626Y-24257048D01*
X218481435Y-24304667D01*
X218481435Y-24495143D01*
D13*
X145331571Y-55785856D02*
X143831571Y-55785856D01*
X144903000Y-55285856D01*
X143831571Y-54785856D01*
X145331571Y-54785856D01*
X143831571Y-53785856D02*
X143831571Y-53500142D01*
X143903000Y-53357284D01*
X144045857Y-53214427D01*
X144331571Y-53142999D01*
X144831571Y-53142999D01*
X145117286Y-53214427D01*
X145260143Y-53357284D01*
X145331571Y-53500142D01*
X145331571Y-53785856D01*
X145260143Y-53928713D01*
X145117286Y-54071570D01*
X144831571Y-54142999D01*
X144331571Y-54142999D01*
X144045857Y-54071570D01*
X143903000Y-53928713D01*
X143831571Y-53785856D01*
X145331571Y-52500141D02*
X143831571Y-52500141D01*
X143831571Y-52142998D01*
X143903000Y-51928713D01*
X144045857Y-51785855D01*
X144188714Y-51714427D01*
X144474429Y-51642998D01*
X144688714Y-51642998D01*
X144974429Y-51714427D01*
X145117286Y-51785855D01*
X145260143Y-51928713D01*
X145331571Y-52142998D01*
X145331571Y-52500141D01*
X144545857Y-49357284D02*
X144545857Y-49857284D01*
X145331571Y-49857284D02*
X143831571Y-49857284D01*
X143831571Y-49142998D01*
X143831571Y-48285856D02*
X143831571Y-48000142D01*
X143903000Y-47857284D01*
X144045857Y-47714427D01*
X144331571Y-47642999D01*
X144831571Y-47642999D01*
X145117286Y-47714427D01*
X145260143Y-47857284D01*
X145331571Y-48000142D01*
X145331571Y-48285856D01*
X145260143Y-48428713D01*
X145117286Y-48571570D01*
X144831571Y-48642999D01*
X144331571Y-48642999D01*
X144045857Y-48571570D01*
X143903000Y-48428713D01*
X143831571Y-48285856D01*
X143831571Y-46714427D02*
X143831571Y-46428713D01*
X143903000Y-46285855D01*
X144045857Y-46142998D01*
X144331571Y-46071570D01*
X144831571Y-46071570D01*
X145117286Y-46142998D01*
X145260143Y-46285855D01*
X145331571Y-46428713D01*
X145331571Y-46714427D01*
X145260143Y-46857284D01*
X145117286Y-47000141D01*
X144831571Y-47071570D01*
X144331571Y-47071570D01*
X144045857Y-47000141D01*
X143903000Y-46857284D01*
X143831571Y-46714427D01*
X143831571Y-45642998D02*
X143831571Y-44785855D01*
X145331571Y-45214426D02*
X143831571Y-45214426D01*
X145331571Y-43142998D02*
X143831571Y-43142998D01*
X143831571Y-42571570D01*
X143903000Y-42428712D01*
X143974429Y-42357284D01*
X144117286Y-42285855D01*
X144331571Y-42285855D01*
X144474429Y-42357284D01*
X144545857Y-42428712D01*
X144617286Y-42571570D01*
X144617286Y-43142998D01*
X145331571Y-40785855D02*
X144617286Y-41285855D01*
X145331571Y-41642998D02*
X143831571Y-41642998D01*
X143831571Y-41071570D01*
X143903000Y-40928712D01*
X143974429Y-40857284D01*
X144117286Y-40785855D01*
X144331571Y-40785855D01*
X144474429Y-40857284D01*
X144545857Y-40928712D01*
X144617286Y-41071570D01*
X144617286Y-41642998D01*
X143831571Y-39857284D02*
X143831571Y-39571570D01*
X143903000Y-39428712D01*
X144045857Y-39285855D01*
X144331571Y-39214427D01*
X144831571Y-39214427D01*
X145117286Y-39285855D01*
X145260143Y-39428712D01*
X145331571Y-39571570D01*
X145331571Y-39857284D01*
X145260143Y-40000141D01*
X145117286Y-40142998D01*
X144831571Y-40214427D01*
X144331571Y-40214427D01*
X144045857Y-40142998D01*
X143903000Y-40000141D01*
X143831571Y-39857284D01*
X143831571Y-38785855D02*
X143831571Y-37928712D01*
X145331571Y-38357283D02*
X143831571Y-38357283D01*
X143831571Y-37142998D02*
X143831571Y-36857284D01*
X143903000Y-36714426D01*
X144045857Y-36571569D01*
X144331571Y-36500141D01*
X144831571Y-36500141D01*
X145117286Y-36571569D01*
X145260143Y-36714426D01*
X145331571Y-36857284D01*
X145331571Y-37142998D01*
X145260143Y-37285855D01*
X145117286Y-37428712D01*
X144831571Y-37500141D01*
X144331571Y-37500141D01*
X144045857Y-37428712D01*
X143903000Y-37285855D01*
X143831571Y-37142998D01*
X143831571Y-36071569D02*
X143831571Y-35214426D01*
X145331571Y-35642997D02*
X143831571Y-35642997D01*
X144617286Y-34428712D02*
X145331571Y-34428712D01*
X143831571Y-34928712D02*
X144617286Y-34428712D01*
X143831571Y-33928712D01*
X145331571Y-33428712D02*
X143831571Y-33428712D01*
X143831571Y-32857284D01*
X143903000Y-32714426D01*
X143974429Y-32642998D01*
X144117286Y-32571569D01*
X144331571Y-32571569D01*
X144474429Y-32642998D01*
X144545857Y-32714426D01*
X144617286Y-32857284D01*
X144617286Y-33428712D01*
X144545857Y-31928712D02*
X144545857Y-31428712D01*
X145331571Y-31214426D02*
X145331571Y-31928712D01*
X143831571Y-31928712D01*
X143831571Y-31214426D01*
X145331571Y-28642998D02*
X145331571Y-29500141D01*
X145331571Y-29071569D02*
X143831571Y-29071569D01*
X144045857Y-29214426D01*
X144188714Y-29357284D01*
X144260143Y-29500141D01*
X144760143Y-26857284D02*
X144760143Y-25714427D01*
X143974429Y-23928713D02*
X143903000Y-23857284D01*
X143831571Y-23714427D01*
X143831571Y-23357284D01*
X143903000Y-23214427D01*
X143974429Y-23142998D01*
X144117286Y-23071570D01*
X144260143Y-23071570D01*
X144474429Y-23142998D01*
X145331571Y-24000141D01*
X145331571Y-23071570D01*
X143831571Y-22142999D02*
X143831571Y-22000142D01*
X143903000Y-21857285D01*
X143974429Y-21785856D01*
X144117286Y-21714427D01*
X144403000Y-21642999D01*
X144760143Y-21642999D01*
X145045857Y-21714427D01*
X145188714Y-21785856D01*
X145260143Y-21857285D01*
X145331571Y-22000142D01*
X145331571Y-22142999D01*
X145260143Y-22285856D01*
X145188714Y-22357285D01*
X145045857Y-22428713D01*
X144760143Y-22500142D01*
X144403000Y-22500142D01*
X144117286Y-22428713D01*
X143974429Y-22357285D01*
X143903000Y-22285856D01*
X143831571Y-22142999D01*
X145331571Y-20214428D02*
X145331571Y-21071571D01*
X145331571Y-20642999D02*
X143831571Y-20642999D01*
X144045857Y-20785856D01*
X144188714Y-20928714D01*
X144260143Y-21071571D01*
X144331571Y-18928714D02*
X145331571Y-18928714D01*
X143760143Y-19285857D02*
X144831571Y-19643000D01*
X144831571Y-18714428D01*
X143760143Y-17071572D02*
X145688714Y-18357286D01*
X143831571Y-16285857D02*
X143831571Y-16143000D01*
X143903000Y-16000143D01*
X143974429Y-15928714D01*
X144117286Y-15857285D01*
X144403000Y-15785857D01*
X144760143Y-15785857D01*
X145045857Y-15857285D01*
X145188714Y-15928714D01*
X145260143Y-16000143D01*
X145331571Y-16143000D01*
X145331571Y-16285857D01*
X145260143Y-16428714D01*
X145188714Y-16500143D01*
X145045857Y-16571571D01*
X144760143Y-16643000D01*
X144403000Y-16643000D01*
X144117286Y-16571571D01*
X143974429Y-16500143D01*
X143903000Y-16428714D01*
X143831571Y-16285857D01*
X144331571Y-14500143D02*
X145331571Y-14500143D01*
X143760143Y-14857286D02*
X144831571Y-15214429D01*
X144831571Y-14285857D01*
X143760143Y-12643001D02*
X145688714Y-13928715D01*
X143974429Y-12214429D02*
X143903000Y-12143000D01*
X143831571Y-12000143D01*
X143831571Y-11643000D01*
X143903000Y-11500143D01*
X143974429Y-11428714D01*
X144117286Y-11357286D01*
X144260143Y-11357286D01*
X144474429Y-11428714D01*
X145331571Y-12285857D01*
X145331571Y-11357286D01*
X143831571Y-10857286D02*
X143831571Y-9928715D01*
X144403000Y-10428715D01*
X144403000Y-10214429D01*
X144474429Y-10071572D01*
X144545857Y-10000143D01*
X144688714Y-9928715D01*
X145045857Y-9928715D01*
X145188714Y-10000143D01*
X145260143Y-10071572D01*
X145331571Y-10214429D01*
X145331571Y-10643001D01*
X145260143Y-10785858D01*
X145188714Y-10857286D01*
D11*
X700000Y-72500000D02*
G75*
G03X700000Y-72500000I-500000J0D01*
G01*
X76800000Y-72600000D02*
G75*
G03X76800000Y-72600000I-500000J0D01*
G01*
X153000000Y-72500000D02*
G75*
G03X153000000Y-72500000I-500000J0D01*
G01*
X229200000Y-72500000D02*
G75*
G03X229200000Y-72500000I-500000J0D01*
G01*
X212600000Y-64900000D02*
G75*
G03X212600000Y-64900000I-500000J0D01*
G01*
X215500000Y-25500000D02*
G75*
G03X215500000Y-25500000I-500000J0D01*
G01*
D13*
X234500000Y-6000000D02*
G75*
G03X234500000Y-6000000I-500000J0D01*
G01*
D10*
X210676671Y-11094357D02*
X211160481Y-11094357D01*
X210918576Y-11336262D02*
X210918576Y-10852452D01*
X211765242Y-10701262D02*
X211462861Y-10701262D01*
X211432623Y-11003643D01*
X211462861Y-10973405D01*
X211523338Y-10943167D01*
X211674528Y-10943167D01*
X211735004Y-10973405D01*
X211765242Y-11003643D01*
X211795481Y-11064119D01*
X211795481Y-11215310D01*
X211765242Y-11275786D01*
X211735004Y-11306024D01*
X211674528Y-11336262D01*
X211523338Y-11336262D01*
X211462861Y-11306024D01*
X211432623Y-11275786D01*
X211976909Y-10701262D02*
X212188576Y-11336262D01*
X212400243Y-10701262D01*
X189814200Y-13215257D02*
X190298010Y-13215257D01*
X190056105Y-13457162D02*
X190056105Y-12973352D01*
X190539914Y-12822162D02*
X190933010Y-12822162D01*
X190721343Y-13064067D01*
X190812057Y-13064067D01*
X190872533Y-13094305D01*
X190902771Y-13124543D01*
X190933010Y-13185019D01*
X190933010Y-13336210D01*
X190902771Y-13396686D01*
X190872533Y-13426924D01*
X190812057Y-13457162D01*
X190630629Y-13457162D01*
X190570152Y-13426924D01*
X190539914Y-13396686D01*
X191205152Y-13396686D02*
X191235391Y-13426924D01*
X191205152Y-13457162D01*
X191174914Y-13426924D01*
X191205152Y-13396686D01*
X191205152Y-13457162D01*
X191447057Y-12822162D02*
X191840153Y-12822162D01*
X191628486Y-13064067D01*
X191719200Y-13064067D01*
X191779676Y-13094305D01*
X191809914Y-13124543D01*
X191840153Y-13185019D01*
X191840153Y-13336210D01*
X191809914Y-13396686D01*
X191779676Y-13426924D01*
X191719200Y-13457162D01*
X191537772Y-13457162D01*
X191477295Y-13426924D01*
X191447057Y-13396686D01*
X192021581Y-12822162D02*
X192233248Y-13457162D01*
X192444915Y-12822162D01*
X244918291Y-58928000D02*
X244857814Y-58897762D01*
X244767100Y-58897762D01*
X244676386Y-58928000D01*
X244615910Y-58988476D01*
X244585671Y-59048952D01*
X244555433Y-59169905D01*
X244555433Y-59260619D01*
X244585671Y-59381571D01*
X244615910Y-59442048D01*
X244676386Y-59502524D01*
X244767100Y-59532762D01*
X244827576Y-59532762D01*
X244918291Y-59502524D01*
X244948529Y-59472286D01*
X244948529Y-59260619D01*
X244827576Y-59260619D01*
X245220671Y-59532762D02*
X245220671Y-58897762D01*
X245583529Y-59532762D01*
X245583529Y-58897762D01*
X245885909Y-59532762D02*
X245885909Y-58897762D01*
X246037100Y-58897762D01*
X246127814Y-58928000D01*
X246188290Y-58988476D01*
X246218529Y-59048952D01*
X246248767Y-59169905D01*
X246248767Y-59260619D01*
X246218529Y-59381571D01*
X246188290Y-59442048D01*
X246127814Y-59502524D01*
X246037100Y-59532762D01*
X245885909Y-59532762D01*
D14*
X203080909Y-41414700D02*
G75*
G03X203080909Y-41414700I-401609J0D01*
G01*
D10*
X203128638Y-48977852D02*
X203128638Y-49370948D01*
X202886733Y-49159281D01*
X202886733Y-49249995D01*
X202856495Y-49310471D01*
X202826257Y-49340709D01*
X202765781Y-49370948D01*
X202614590Y-49370948D01*
X202554114Y-49340709D01*
X202523876Y-49310471D01*
X202493638Y-49249995D01*
X202493638Y-49068567D01*
X202523876Y-49008090D01*
X202554114Y-48977852D01*
X203128638Y-49915233D02*
X203128638Y-49794281D01*
X203098400Y-49733805D01*
X203068162Y-49703567D01*
X202977448Y-49643090D01*
X202856495Y-49612852D01*
X202614590Y-49612852D01*
X202554114Y-49643090D01*
X202523876Y-49673329D01*
X202493638Y-49733805D01*
X202493638Y-49854757D01*
X202523876Y-49915233D01*
X202554114Y-49945471D01*
X202614590Y-49975710D01*
X202765781Y-49975710D01*
X202826257Y-49945471D01*
X202856495Y-49915233D01*
X202886733Y-49854757D01*
X202886733Y-49733805D01*
X202856495Y-49673329D01*
X202826257Y-49643090D01*
X202765781Y-49612852D01*
X195162110Y-48940962D02*
X195131872Y-48971200D01*
X195071395Y-49001438D01*
X194920205Y-49001438D01*
X194859729Y-48971200D01*
X194829491Y-48940962D01*
X194799252Y-48880486D01*
X194799252Y-48820010D01*
X194829491Y-48729295D01*
X195192348Y-48366438D01*
X194799252Y-48366438D01*
X194254967Y-48789771D02*
X194254967Y-48366438D01*
X194406157Y-49031676D02*
X194557348Y-48578105D01*
X194164252Y-48578105D01*
X195089538Y-40900048D02*
X195089538Y-40537190D01*
X195089538Y-40718619D02*
X195724538Y-40718619D01*
X195633824Y-40658143D01*
X195573348Y-40597667D01*
X195543110Y-40537190D01*
X195664062Y-41141952D02*
X195694300Y-41172190D01*
X195724538Y-41232667D01*
X195724538Y-41383857D01*
X195694300Y-41444333D01*
X195664062Y-41474571D01*
X195603586Y-41504810D01*
X195543110Y-41504810D01*
X195452395Y-41474571D01*
X195089538Y-41111714D01*
X195089538Y-41504810D01*
D15*
X227138000Y-24752000D02*
X228538000Y-24752000D01*
X226838000Y-24652000D02*
X228838000Y-24652000D01*
X226638000Y-24552000D02*
X229138000Y-24552000D01*
X226538000Y-24452000D02*
X229238000Y-24452000D01*
D16*
X230338000Y-22352000D02*
G75*
G03X230338000Y-22352000I-2500000J0D01*
G01*
D17*
X232156000Y-21209000D02*
X232156000Y-23495000D01*
X232156000Y-23495000D02*
X230886000Y-23495000D01*
X230886000Y-23495000D02*
X230886000Y-21209000D01*
X230886000Y-21209000D02*
X232156000Y-21209000D01*
D15*
X218936800Y-7887000D02*
X217536800Y-7887000D01*
X219236800Y-7987000D02*
X217236800Y-7987000D01*
X219436800Y-8087000D02*
X216936800Y-8087000D01*
X219536800Y-8187000D02*
X216836800Y-8187000D01*
D16*
X220736800Y-10287000D02*
G75*
G03X220736800Y-10287000I-2500000J0D01*
G01*
D17*
X213791800Y-10160000D02*
X213791800Y-7874000D01*
X213791800Y-7874000D02*
X215061800Y-7874000D01*
X215061800Y-7874000D02*
X215061800Y-10160000D01*
X215061800Y-10160000D02*
X213791800Y-10160000D01*
X243928900Y-32905700D02*
X246214900Y-32905700D01*
X246214900Y-32905700D02*
X246214900Y-34175700D01*
X246214900Y-34175700D02*
X243928900Y-34175700D01*
X243928900Y-34175700D02*
X243928900Y-32905700D01*
D15*
X196407000Y-7760000D02*
X195007000Y-7760000D01*
X196707000Y-7860000D02*
X194707000Y-7860000D01*
X196907000Y-7960000D02*
X194407000Y-7960000D01*
X197007000Y-8060000D02*
X194307000Y-8060000D01*
D16*
X198207000Y-10160000D02*
G75*
G03X198207000Y-10160000I-2500000J0D01*
G01*
D17*
X199009000Y-11303000D02*
X199009000Y-9017000D01*
X199009000Y-9017000D02*
X200279000Y-9017000D01*
X200279000Y-9017000D02*
X200279000Y-11303000D01*
X200279000Y-11303000D02*
X199009000Y-11303000D01*
X224523300Y-30391100D02*
X224523300Y-28105100D01*
X224523300Y-28105100D02*
X225793300Y-28105100D01*
X225793300Y-28105100D02*
X225793300Y-30391100D01*
X225793300Y-30391100D02*
X224523300Y-30391100D01*
X200215500Y-36969700D02*
X202501500Y-36969700D01*
X202501500Y-36969700D02*
X202501500Y-38239700D01*
X202501500Y-38239700D02*
X200215500Y-38239700D01*
X200215500Y-38239700D02*
X200215500Y-36969700D01*
X208508600Y-30175200D02*
X208508600Y-32461200D01*
X208508600Y-32461200D02*
X207238600Y-32461200D01*
X207238600Y-32461200D02*
X207238600Y-30175200D01*
X207238600Y-30175200D02*
X208508600Y-30175200D01*
X190487300Y-30175200D02*
X190487300Y-32461200D01*
X190487300Y-32461200D02*
X189217300Y-32461200D01*
X189217300Y-32461200D02*
X189217300Y-30175200D01*
X189217300Y-30175200D02*
X190487300Y-30175200D01*
X198107300Y-38252400D02*
X195821300Y-38252400D01*
X195821300Y-38252400D02*
X195821300Y-36982400D01*
X195821300Y-36982400D02*
X198107300Y-36982400D01*
X198107300Y-36982400D02*
X198107300Y-38252400D01*
X204635100Y-43840400D02*
X206921100Y-43840400D01*
X206921100Y-43840400D02*
X206921100Y-45110400D01*
X206921100Y-45110400D02*
X204635100Y-45110400D01*
X204635100Y-45110400D02*
X204635100Y-43840400D01*
X173482000Y-7874000D02*
X173482000Y-5588000D01*
X173482000Y-5588000D02*
X174752000Y-5588000D01*
X174752000Y-5588000D02*
X174752000Y-7874000D01*
X174752000Y-7874000D02*
X173482000Y-7874000D01*
X164211000Y-7874000D02*
X164211000Y-5588000D01*
X164211000Y-5588000D02*
X165481000Y-5588000D01*
X165481000Y-5588000D02*
X165481000Y-7874000D01*
X165481000Y-7874000D02*
X164211000Y-7874000D01*
D15*
X232905000Y-3240000D02*
X232905000Y-1840000D01*
X232805000Y-3540000D02*
X232805000Y-1540000D01*
X232705000Y-3740000D02*
X232705000Y-1240000D01*
X232605000Y-3840000D02*
X232605000Y-1140000D01*
D16*
X233005000Y-2540000D02*
G75*
G03X233005000Y-2540000I-2500000J0D01*
G01*
D17*
X233807000Y-381000D02*
X236093000Y-381000D01*
X236093000Y-381000D02*
X236093000Y-1651000D01*
X236093000Y-1651000D02*
X233807000Y-1651000D01*
X233807000Y-1651000D02*
X233807000Y-381000D01*
D18*
X238890800Y-12523800D02*
X238890800Y-23800D01*
X238890800Y-23800D02*
X248890800Y-23800D01*
X248890800Y-23800D02*
X248890800Y-12523800D01*
X248890800Y-12523800D02*
X238890800Y-12523800D01*
X238890800Y-74131500D02*
X238890800Y-61631500D01*
X238890800Y-61631500D02*
X248890800Y-61631500D01*
X248890800Y-61631500D02*
X248890800Y-74131500D01*
X248890800Y-74131500D02*
X238890800Y-74131500D01*
D10*
X234011000Y-10922000D02*
X233211000Y-10922000D01*
X234711000Y-10922000D02*
X235411000Y-10922000D01*
X233211000Y-12322000D02*
X233211000Y-9522000D01*
X232811000Y-12322000D02*
X232811000Y-9522000D01*
D19*
X231811000Y-9522000D02*
X236311000Y-9522000D01*
X236311000Y-12322000D02*
X231811000Y-12322000D01*
D10*
X234038000Y-10922000D02*
X234673000Y-11396980D01*
X234673000Y-11396980D02*
X234673000Y-10922000D01*
X234673000Y-10922000D02*
X234673000Y-10447020D01*
X234673000Y-10447020D02*
X234038000Y-10922000D01*
X234038000Y-10922000D02*
X234038000Y-11239500D01*
X234038000Y-11239500D02*
X234195480Y-11396980D01*
X234038000Y-10922000D02*
X234038000Y-10604500D01*
X234038000Y-10604500D02*
X233880520Y-10447020D01*
D20*
X229895400Y-38166040D02*
X229895400Y-35468560D01*
X231444800Y-35468560D02*
X231444800Y-38166040D01*
X231444800Y-36217860D02*
X229895400Y-36217860D01*
X230670100Y-36217860D02*
X231269540Y-36819840D01*
X231269540Y-36819840D02*
X230070660Y-36819840D01*
X230070660Y-36819840D02*
X230670100Y-36217860D01*
X231444800Y-28864560D02*
X231444800Y-31562040D01*
X229895400Y-31562040D02*
X229895400Y-28864560D01*
X229895400Y-30812740D02*
X231444800Y-30812740D01*
X230670100Y-30812740D02*
X230070660Y-30210760D01*
X230070660Y-30210760D02*
X231269540Y-30210760D01*
X231269540Y-30210760D02*
X230670100Y-30812740D01*
X229072440Y-35783520D02*
X227822760Y-35783520D01*
X228871780Y-36210240D02*
X228023420Y-36210240D01*
X228023420Y-36210240D02*
X228447600Y-35783520D01*
X228447600Y-35783520D02*
X228871780Y-36210240D01*
X227822760Y-35458400D02*
X227947220Y-35458400D01*
X229072440Y-35458400D02*
X228947980Y-35458400D01*
X227822760Y-37160200D02*
X227947220Y-37160200D01*
X229072440Y-37160200D02*
X228947980Y-37160200D01*
X227827840Y-35458400D02*
X227827840Y-37160200D01*
X229077520Y-35458400D02*
X229077520Y-37160200D01*
D10*
X228998780Y-72237600D02*
X228998780Y-69697600D01*
X228998780Y-69697600D02*
X234078780Y-69697600D01*
X234078780Y-69697600D02*
X234078780Y-72237600D01*
X234078780Y-72237600D02*
X228998780Y-72237600D01*
X152798780Y-72237600D02*
X152798780Y-69697600D01*
X152798780Y-69697600D02*
X157878780Y-69697600D01*
X157878780Y-69697600D02*
X157878780Y-72237600D01*
X157878780Y-72237600D02*
X152798780Y-72237600D01*
X76598780Y-72237600D02*
X76598780Y-69697600D01*
X76598780Y-69697600D02*
X81678780Y-69697600D01*
X81678780Y-69697600D02*
X81678780Y-72237600D01*
X81678780Y-72237600D02*
X76598780Y-72237600D01*
X398780Y-72237600D02*
X398780Y-69697600D01*
X398780Y-69697600D02*
X5478780Y-69697600D01*
X5478780Y-69697600D02*
X5478780Y-72237600D01*
X5478780Y-72237600D02*
X398780Y-72237600D01*
D16*
X236512100Y-30975300D02*
X248539000Y-30975300D01*
X248539000Y-14719300D02*
X236512100Y-14719300D01*
X236512100Y-30975300D02*
X236512100Y-14719300D01*
X236512100Y-52311300D02*
X248539000Y-52311300D01*
X248539000Y-36055300D02*
X236512100Y-36055300D01*
X236512100Y-52311300D02*
X236512100Y-36055300D01*
D21*
X211772500Y-70345300D02*
X199072500Y-70345300D01*
X199072500Y-70345300D02*
X199072500Y-65265300D01*
X199072500Y-65265300D02*
X211772500Y-65265300D01*
X211772500Y-65265300D02*
X211772500Y-70345300D01*
D22*
X233927550Y-36091980D02*
G75*
G03X233927550Y-36091980I-159070J0D01*
G01*
X234627000Y-38538000D02*
X233611000Y-38538000D01*
X234627000Y-35934500D02*
X233611000Y-35934500D01*
X233611000Y-38538000D02*
X233611000Y-35934500D01*
X234627000Y-35934500D02*
X234627000Y-38538000D01*
X233727550Y-46891980D02*
G75*
G03X233727550Y-46891980I-159070J0D01*
G01*
X234427000Y-49338000D02*
X233411000Y-49338000D01*
X234427000Y-46734500D02*
X233411000Y-46734500D01*
X233411000Y-49338000D02*
X233411000Y-46734500D01*
X234427000Y-46734500D02*
X234427000Y-49338000D01*
X186409650Y-7066280D02*
G75*
G03X186409650Y-7066280I-159070J0D01*
G01*
X187109100Y-9512300D02*
X186093100Y-9512300D01*
X187109100Y-6908800D02*
X186093100Y-6908800D01*
X186093100Y-9512300D02*
X186093100Y-6908800D01*
X187109100Y-6908800D02*
X187109100Y-9512300D01*
D17*
X229285800Y-41427400D02*
X231571800Y-41427400D01*
X231571800Y-41427400D02*
X231571800Y-42697400D01*
X231571800Y-42697400D02*
X229285800Y-42697400D01*
X229285800Y-42697400D02*
X229285800Y-41427400D01*
X229276000Y-48433000D02*
X231562000Y-48433000D01*
X231562000Y-48433000D02*
X231562000Y-49703000D01*
X231562000Y-49703000D02*
X229276000Y-49703000D01*
X229276000Y-49703000D02*
X229276000Y-48433000D01*
D15*
X233511000Y-41130000D02*
X234527000Y-41130000D01*
X233511000Y-39606000D02*
X234552400Y-39606000D01*
X232495000Y-41130000D02*
G75*
G03X232495000Y-41130000I-127000J0D01*
G01*
X233511000Y-41130000D02*
X232495000Y-41130000D01*
X232495000Y-41130000D02*
X232495000Y-39606000D01*
X232495000Y-39606000D02*
X233511000Y-39606000D01*
X234527000Y-39606000D02*
X235543000Y-39606000D01*
X235543000Y-39606000D02*
X235543000Y-41130000D01*
X235543000Y-41130000D02*
X234527000Y-41130000D01*
X233411000Y-51830000D02*
X234427000Y-51830000D01*
X233411000Y-50306000D02*
X234452400Y-50306000D01*
X232395000Y-51830000D02*
G75*
G03X232395000Y-51830000I-127000J0D01*
G01*
X233411000Y-51830000D02*
X232395000Y-51830000D01*
X232395000Y-51830000D02*
X232395000Y-50306000D01*
X232395000Y-50306000D02*
X233411000Y-50306000D01*
X234427000Y-50306000D02*
X235443000Y-50306000D01*
X235443000Y-50306000D02*
X235443000Y-51830000D01*
X235443000Y-51830000D02*
X234427000Y-51830000D01*
X233511000Y-19030000D02*
X234527000Y-19030000D01*
X233511000Y-17506000D02*
X234552400Y-17506000D01*
X232495000Y-19030000D02*
G75*
G03X232495000Y-19030000I-127000J0D01*
G01*
X233511000Y-19030000D02*
X232495000Y-19030000D01*
X232495000Y-19030000D02*
X232495000Y-17506000D01*
X232495000Y-17506000D02*
X233511000Y-17506000D01*
X234527000Y-17506000D02*
X235543000Y-17506000D01*
X235543000Y-17506000D02*
X235543000Y-19030000D01*
X235543000Y-19030000D02*
X234527000Y-19030000D01*
X233511000Y-30430000D02*
X234527000Y-30430000D01*
X233511000Y-28906000D02*
X234552400Y-28906000D01*
X232495000Y-30430000D02*
G75*
G03X232495000Y-30430000I-127000J0D01*
G01*
X233511000Y-30430000D02*
X232495000Y-30430000D01*
X232495000Y-30430000D02*
X232495000Y-28906000D01*
X232495000Y-28906000D02*
X233511000Y-28906000D01*
X234527000Y-28906000D02*
X235543000Y-28906000D01*
X235543000Y-28906000D02*
X235543000Y-30430000D01*
X235543000Y-30430000D02*
X234527000Y-30430000D01*
D17*
X235983780Y-69824600D02*
X235983780Y-72110600D01*
X235983780Y-72110600D02*
X234713780Y-72110600D01*
X234713780Y-72110600D02*
X234713780Y-69824600D01*
X234713780Y-69824600D02*
X235983780Y-69824600D01*
X159809180Y-69824600D02*
X159809180Y-72110600D01*
X159809180Y-72110600D02*
X158539180Y-72110600D01*
X158539180Y-72110600D02*
X158539180Y-69824600D01*
X158539180Y-69824600D02*
X159809180Y-69824600D01*
X83609180Y-69824600D02*
X83609180Y-72110600D01*
X83609180Y-72110600D02*
X82339180Y-72110600D01*
X82339180Y-72110600D02*
X82339180Y-69824600D01*
X82339180Y-69824600D02*
X83609180Y-69824600D01*
X7409180Y-69824600D02*
X7409180Y-72110600D01*
X7409180Y-72110600D02*
X6139180Y-72110600D01*
X6139180Y-72110600D02*
X6139180Y-69824600D01*
X6139180Y-69824600D02*
X7409180Y-69824600D01*
D15*
X240639600Y-33769300D02*
X239623600Y-33769300D01*
X240639600Y-35293300D02*
X239598200Y-35293300D01*
X241909600Y-33769300D02*
G75*
G03X241909600Y-33769300I-127000J0D01*
G01*
X240639600Y-33769300D02*
X241655600Y-33769300D01*
X241655600Y-33769300D02*
X241655600Y-35293300D01*
X241655600Y-35293300D02*
X240639600Y-35293300D01*
X239623600Y-35293300D02*
X238607600Y-35293300D01*
X238607600Y-35293300D02*
X238607600Y-33769300D01*
X238607600Y-33769300D02*
X239623600Y-33769300D01*
X236829600Y-31737300D02*
X235813600Y-31737300D01*
X236829600Y-33261300D02*
X235788200Y-33261300D01*
X238099600Y-31737300D02*
G75*
G03X238099600Y-31737300I-127000J0D01*
G01*
X236829600Y-31737300D02*
X237845600Y-31737300D01*
X237845600Y-31737300D02*
X237845600Y-33261300D01*
X237845600Y-33261300D02*
X236829600Y-33261300D01*
X235813600Y-33261300D02*
X234797600Y-33261300D01*
X234797600Y-33261300D02*
X234797600Y-31737300D01*
X234797600Y-31737300D02*
X235813600Y-31737300D01*
X236829600Y-33769300D02*
X235813600Y-33769300D01*
X236829600Y-35293300D02*
X235788200Y-35293300D01*
X238099600Y-33769300D02*
G75*
G03X238099600Y-33769300I-127000J0D01*
G01*
X236829600Y-33769300D02*
X237845600Y-33769300D01*
X237845600Y-33769300D02*
X237845600Y-35293300D01*
X237845600Y-35293300D02*
X236829600Y-35293300D01*
X235813600Y-35293300D02*
X234797600Y-35293300D01*
X234797600Y-35293300D02*
X234797600Y-33769300D01*
X234797600Y-33769300D02*
X235813600Y-33769300D01*
D17*
X235305600Y-64008000D02*
X237591600Y-64008000D01*
X237591600Y-64008000D02*
X237591600Y-65278000D01*
X237591600Y-65278000D02*
X235305600Y-65278000D01*
X235305600Y-65278000D02*
X235305600Y-64008000D01*
X235305600Y-65913000D02*
X237591600Y-65913000D01*
X237591600Y-65913000D02*
X237591600Y-67183000D01*
X237591600Y-67183000D02*
X235305600Y-67183000D01*
X235305600Y-67183000D02*
X235305600Y-65913000D01*
X235305600Y-67818000D02*
X237591600Y-67818000D01*
X237591600Y-67818000D02*
X237591600Y-69088000D01*
X237591600Y-69088000D02*
X235305600Y-69088000D01*
X235305600Y-69088000D02*
X235305600Y-67818000D01*
X161391600Y-65278000D02*
X159105600Y-65278000D01*
X159105600Y-65278000D02*
X159105600Y-64008000D01*
X159105600Y-64008000D02*
X161391600Y-64008000D01*
X161391600Y-64008000D02*
X161391600Y-65278000D01*
X161391600Y-67183000D02*
X159105600Y-67183000D01*
X159105600Y-67183000D02*
X159105600Y-65913000D01*
X159105600Y-65913000D02*
X161391600Y-65913000D01*
X161391600Y-65913000D02*
X161391600Y-67183000D01*
X161391600Y-69088000D02*
X159105600Y-69088000D01*
X159105600Y-69088000D02*
X159105600Y-67818000D01*
X159105600Y-67818000D02*
X161391600Y-67818000D01*
X161391600Y-67818000D02*
X161391600Y-69088000D01*
X85191600Y-65278000D02*
X82905600Y-65278000D01*
X82905600Y-65278000D02*
X82905600Y-64008000D01*
X82905600Y-64008000D02*
X85191600Y-64008000D01*
X85191600Y-64008000D02*
X85191600Y-65278000D01*
X85191600Y-67183000D02*
X82905600Y-67183000D01*
X82905600Y-67183000D02*
X82905600Y-65913000D01*
X82905600Y-65913000D02*
X85191600Y-65913000D01*
X85191600Y-65913000D02*
X85191600Y-67183000D01*
X85191600Y-69088000D02*
X82905600Y-69088000D01*
X82905600Y-69088000D02*
X82905600Y-67818000D01*
X82905600Y-67818000D02*
X85191600Y-67818000D01*
X85191600Y-67818000D02*
X85191600Y-69088000D01*
X9017000Y-65278000D02*
X6731000Y-65278000D01*
X6731000Y-65278000D02*
X6731000Y-64008000D01*
X6731000Y-64008000D02*
X9017000Y-64008000D01*
X9017000Y-64008000D02*
X9017000Y-65278000D01*
X9017000Y-67183000D02*
X6731000Y-67183000D01*
X6731000Y-67183000D02*
X6731000Y-65913000D01*
X6731000Y-65913000D02*
X9017000Y-65913000D01*
X9017000Y-65913000D02*
X9017000Y-67183000D01*
X9017000Y-69088000D02*
X6731000Y-69088000D01*
X6731000Y-69088000D02*
X6731000Y-67818000D01*
X6731000Y-67818000D02*
X9017000Y-67818000D01*
X9017000Y-67818000D02*
X9017000Y-69088000D01*
D15*
X199961500Y-25781000D02*
X200977500Y-25781000D01*
X199961500Y-24257000D02*
X201002900Y-24257000D01*
X198945500Y-25781000D02*
G75*
G03X198945500Y-25781000I-127000J0D01*
G01*
X199961500Y-25781000D02*
X198945500Y-25781000D01*
X198945500Y-25781000D02*
X198945500Y-24257000D01*
X198945500Y-24257000D02*
X199961500Y-24257000D01*
X200977500Y-24257000D02*
X201993500Y-24257000D01*
X201993500Y-24257000D02*
X201993500Y-25781000D01*
X201993500Y-25781000D02*
X200977500Y-25781000D01*
D17*
X229082600Y-29959300D02*
X229082600Y-32245300D01*
X229082600Y-32245300D02*
X227812600Y-32245300D01*
X227812600Y-32245300D02*
X227812600Y-29959300D01*
X227812600Y-29959300D02*
X229082600Y-29959300D01*
X228828600Y-39484300D02*
X226542600Y-39484300D01*
X226542600Y-39484300D02*
X226542600Y-38214300D01*
X226542600Y-38214300D02*
X228828600Y-38214300D01*
X228828600Y-38214300D02*
X228828600Y-39484300D01*
X223621600Y-39484300D02*
X221335600Y-39484300D01*
X221335600Y-39484300D02*
X221335600Y-38214300D01*
X221335600Y-38214300D02*
X223621600Y-38214300D01*
X223621600Y-38214300D02*
X223621600Y-39484300D01*
X220446600Y-28105100D02*
X220446600Y-30391100D01*
X220446600Y-30391100D02*
X219176600Y-30391100D01*
X219176600Y-30391100D02*
X219176600Y-28105100D01*
X219176600Y-28105100D02*
X220446600Y-28105100D01*
X223621600Y-41325800D02*
X221335600Y-41325800D01*
X221335600Y-41325800D02*
X221335600Y-40055800D01*
X221335600Y-40055800D02*
X223621600Y-40055800D01*
X223621600Y-40055800D02*
X223621600Y-41325800D01*
X202488800Y-36588700D02*
X200202800Y-36588700D01*
X200202800Y-36588700D02*
X200202800Y-35318700D01*
X200202800Y-35318700D02*
X202488800Y-35318700D01*
X202488800Y-35318700D02*
X202488800Y-36588700D01*
X202501500Y-39890700D02*
X200215500Y-39890700D01*
X200215500Y-39890700D02*
X200215500Y-38620700D01*
X200215500Y-38620700D02*
X202501500Y-38620700D01*
X202501500Y-38620700D02*
X202501500Y-39890700D01*
D15*
X225311000Y-4080000D02*
X226327000Y-4080000D01*
X225311000Y-2556000D02*
X226352400Y-2556000D01*
X224295000Y-4080000D02*
G75*
G03X224295000Y-4080000I-127000J0D01*
G01*
X225311000Y-4080000D02*
X224295000Y-4080000D01*
X224295000Y-4080000D02*
X224295000Y-2556000D01*
X224295000Y-2556000D02*
X225311000Y-2556000D01*
X226327000Y-2556000D02*
X227343000Y-2556000D01*
X227343000Y-2556000D02*
X227343000Y-4080000D01*
X227343000Y-4080000D02*
X226327000Y-4080000D01*
X223411000Y-2180000D02*
X224427000Y-2180000D01*
X223411000Y-656000D02*
X224452400Y-656000D01*
X222395000Y-2180000D02*
G75*
G03X222395000Y-2180000I-127000J0D01*
G01*
X223411000Y-2180000D02*
X222395000Y-2180000D01*
X222395000Y-2180000D02*
X222395000Y-656000D01*
X222395000Y-656000D02*
X223411000Y-656000D01*
X224427000Y-656000D02*
X225443000Y-656000D01*
X225443000Y-656000D02*
X225443000Y-2180000D01*
X225443000Y-2180000D02*
X224427000Y-2180000D01*
D17*
X184886600Y-12687300D02*
X184886600Y-10401300D01*
X184886600Y-10401300D02*
X186156600Y-10401300D01*
X186156600Y-10401300D02*
X186156600Y-12687300D01*
X186156600Y-12687300D02*
X184886600Y-12687300D01*
D15*
X189865000Y-6858000D02*
X190881000Y-6858000D01*
X189865000Y-5334000D02*
X190906400Y-5334000D01*
X188849000Y-6858000D02*
G75*
G03X188849000Y-6858000I-127000J0D01*
G01*
X189865000Y-6858000D02*
X188849000Y-6858000D01*
X188849000Y-6858000D02*
X188849000Y-5334000D01*
X188849000Y-5334000D02*
X189865000Y-5334000D01*
X190881000Y-5334000D02*
X191897000Y-5334000D01*
X191897000Y-5334000D02*
X191897000Y-6858000D01*
X191897000Y-6858000D02*
X190881000Y-6858000D01*
X221119700Y-16764000D02*
X221119700Y-17780000D01*
X222643700Y-16764000D02*
X222643700Y-17805400D01*
X221246700Y-15621000D02*
G75*
G03X221246700Y-15621000I-127000J0D01*
G01*
X221119700Y-16764000D02*
X221119700Y-15748000D01*
X221119700Y-15748000D02*
X222643700Y-15748000D01*
X222643700Y-15748000D02*
X222643700Y-16764000D01*
X222643700Y-17780000D02*
X222643700Y-18796000D01*
X222643700Y-18796000D02*
X221119700Y-18796000D01*
X221119700Y-18796000D02*
X221119700Y-17780000D01*
X212752940Y-66895980D02*
X212752940Y-67911980D01*
X214276940Y-66895980D02*
X214276940Y-67937380D01*
X212879940Y-65752980D02*
G75*
G03X212879940Y-65752980I-127000J0D01*
G01*
X212752940Y-66895980D02*
X212752940Y-65879980D01*
X212752940Y-65879980D02*
X214276940Y-65879980D01*
X214276940Y-65879980D02*
X214276940Y-66895980D01*
X214276940Y-67911980D02*
X214276940Y-68927980D01*
X214276940Y-68927980D02*
X212752940Y-68927980D01*
X212752940Y-68927980D02*
X212752940Y-67911980D01*
D17*
X209829400Y-58877200D02*
X209829400Y-61163200D01*
X209829400Y-61163200D02*
X208559400Y-61163200D01*
X208559400Y-61163200D02*
X208559400Y-58877200D01*
X208559400Y-58877200D02*
X209829400Y-58877200D01*
X207314800Y-58877200D02*
X207314800Y-61163200D01*
X207314800Y-61163200D02*
X206044800Y-61163200D01*
X206044800Y-61163200D02*
X206044800Y-58877200D01*
X206044800Y-58877200D02*
X207314800Y-58877200D01*
D16*
X230588000Y-12024000D02*
X230588000Y-16424000D01*
X230588000Y-16424000D02*
X225088000Y-16424000D01*
X225088000Y-16424000D02*
X225088000Y-12024000D01*
X225088000Y-12024000D02*
X230588000Y-12024000D01*
D23*
X192405000Y-9906000D02*
X189865000Y-9906000D01*
X192405000Y-12446000D02*
X189865000Y-12446000D01*
D21*
X192405000Y-9906000D02*
X192405000Y-12446000D01*
X189865000Y-12446000D02*
X189865000Y-9906000D01*
D23*
X213029800Y-7747000D02*
X210489800Y-7747000D01*
X213029800Y-10287000D02*
X210489800Y-10287000D01*
D21*
X213029800Y-7747000D02*
X213029800Y-10287000D01*
X210489800Y-10287000D02*
X210489800Y-7747000D01*
D23*
X244119400Y-58470800D02*
X246659400Y-58470800D01*
X244119400Y-55930800D02*
X246659400Y-55930800D01*
D21*
X244119400Y-58470800D02*
X244119400Y-55930800D01*
X246659400Y-55930800D02*
X246659400Y-58470800D01*
D17*
X201967742Y-42344340D02*
G75*
G03X201967742Y-42344340I-279042J0D01*
G01*
X202008740Y-41777920D02*
X195729860Y-41777920D01*
X195729860Y-41777920D02*
X195422520Y-42085260D01*
X195422520Y-42085260D02*
X195422520Y-48364140D01*
X195422520Y-48364140D02*
X195729860Y-48671480D01*
X195729860Y-48671480D02*
X202008740Y-48671480D01*
X202008740Y-48671480D02*
X202316080Y-48364140D01*
X202316080Y-48364140D02*
X202316080Y-42085260D01*
X202316080Y-42085260D02*
X202008740Y-41777920D01*
D24*
X214833200Y-22250400D02*
X208432400Y-22250400D01*
X208432400Y-22250400D02*
X208432400Y-16052800D01*
X208432400Y-16052800D02*
X208432400Y-15849600D01*
X208432400Y-15849600D02*
X214807800Y-15849600D01*
X220421200Y-22250400D02*
X220421200Y-15849600D01*
X220421200Y-15849600D02*
X214833200Y-15849600D01*
X214833200Y-15849600D02*
X214833200Y-22250400D01*
X214833200Y-22250400D02*
X220421200Y-22250400D01*
X214833200Y-22047200D02*
X214833200Y-16078200D01*
X198907400Y-22250400D02*
X192506600Y-22250400D01*
X192506600Y-22250400D02*
X192506600Y-16052800D01*
X192506600Y-16052800D02*
X192506600Y-15849600D01*
X192506600Y-15849600D02*
X198882000Y-15849600D01*
X204495400Y-22250400D02*
X204495400Y-15849600D01*
X204495400Y-15849600D02*
X198907400Y-15849600D01*
X198907400Y-15849600D02*
X198907400Y-22250400D01*
X198907400Y-22250400D02*
X204495400Y-22250400D01*
X198907400Y-22047200D02*
X198907400Y-16078200D01*
D17*
X220700600Y-30848300D02*
X220573600Y-30848300D01*
X220573600Y-30848300D02*
X220573600Y-36182300D01*
X224383600Y-36182300D02*
X224383600Y-30848300D01*
X224383600Y-30848300D02*
X220700600Y-30848300D01*
X222986600Y-30848300D02*
X222986600Y-31356300D01*
X222986600Y-31356300D02*
X221970600Y-31356300D01*
X221970600Y-31356300D02*
X221970600Y-30848300D01*
X224383600Y-36182300D02*
X220573600Y-36182300D01*
X175461400Y-6527800D02*
X175461400Y-11099800D01*
X182065400Y-11099800D02*
X182065400Y-6527800D01*
X175554381Y-11297800D02*
G75*
G03X175554381Y-11297800I-283981J0D01*
G01*
X166190400Y-6527800D02*
X166190400Y-11099800D01*
X172794400Y-11099800D02*
X172794400Y-6527800D01*
X166283381Y-11297800D02*
G75*
G03X166283381Y-11297800I-283981J0D01*
G01*
D10*
X192519300Y-29667200D02*
X192519300Y-30759400D01*
X205244700Y-33401000D02*
X205244700Y-34493200D01*
X205244700Y-34493200D02*
X192519300Y-34493200D01*
X192519300Y-34493200D02*
X192519300Y-33401000D01*
X192519300Y-29667200D02*
X205219300Y-29667200D01*
X205219300Y-29667200D02*
X205219300Y-30759400D01*
D21*
X217906600Y-25831800D02*
X217906600Y-38531800D01*
X217906600Y-38531800D02*
X212826600Y-38531800D01*
X212826600Y-38531800D02*
X212826600Y-25831800D01*
X212826600Y-25831800D02*
X217906600Y-25831800D01*
D15*
X212090000Y-35765740D02*
X212090000Y-34749740D01*
X210566000Y-35765740D02*
X210566000Y-34724340D01*
X212217000Y-36908740D02*
G75*
G03X212217000Y-36908740I-127000J0D01*
G01*
X212090000Y-35765740D02*
X212090000Y-36781740D01*
X212090000Y-36781740D02*
X210566000Y-36781740D01*
X210566000Y-36781740D02*
X210566000Y-35765740D01*
X210566000Y-34749740D02*
X210566000Y-33733740D01*
X210566000Y-33733740D02*
X212090000Y-33733740D01*
X212090000Y-33733740D02*
X212090000Y-34749740D01*
X216496900Y-40719701D02*
X217512900Y-40719701D01*
X216496900Y-39195701D02*
X217538300Y-39195701D01*
X215480900Y-40719701D02*
G75*
G03X215480900Y-40719701I-127000J0D01*
G01*
X216496900Y-40719701D02*
X215480900Y-40719701D01*
X215480900Y-40719701D02*
X215480900Y-39195701D01*
X215480900Y-39195701D02*
X216496900Y-39195701D01*
X217512900Y-39195701D02*
X218528900Y-39195701D01*
X218528900Y-39195701D02*
X218528900Y-40719701D01*
X218528900Y-40719701D02*
X217512900Y-40719701D01*
D10*
X227702534Y-25817286D02*
X227663829Y-25855990D01*
X227547715Y-25894695D01*
X227470305Y-25894695D01*
X227354191Y-25855990D01*
X227276782Y-25778581D01*
X227238077Y-25701171D01*
X227199372Y-25546352D01*
X227199372Y-25430238D01*
X227238077Y-25275419D01*
X227276782Y-25198010D01*
X227354191Y-25120600D01*
X227470305Y-25081895D01*
X227547715Y-25081895D01*
X227663829Y-25120600D01*
X227702534Y-25159305D01*
X228476629Y-25894695D02*
X228012172Y-25894695D01*
X228244401Y-25894695D02*
X228244401Y-25081895D01*
X228166991Y-25198010D01*
X228089582Y-25275419D01*
X228012172Y-25314124D01*
X231385534Y-20991286D02*
X231346829Y-21029990D01*
X231230715Y-21068695D01*
X231153305Y-21068695D01*
X231037191Y-21029990D01*
X230959782Y-20952581D01*
X230921077Y-20875171D01*
X230882372Y-20720352D01*
X230882372Y-20604238D01*
X230921077Y-20449419D01*
X230959782Y-20372010D01*
X231037191Y-20294600D01*
X231153305Y-20255895D01*
X231230715Y-20255895D01*
X231346829Y-20294600D01*
X231385534Y-20333305D01*
X231695172Y-20333305D02*
X231733877Y-20294600D01*
X231811286Y-20255895D01*
X232004810Y-20255895D01*
X232082220Y-20294600D01*
X232120924Y-20333305D01*
X232159629Y-20410714D01*
X232159629Y-20488124D01*
X232120924Y-20604238D01*
X231656467Y-21068695D01*
X232159629Y-21068695D01*
X218101334Y-13752286D02*
X218062629Y-13790990D01*
X217946515Y-13829695D01*
X217869105Y-13829695D01*
X217752991Y-13790990D01*
X217675582Y-13713581D01*
X217636877Y-13636171D01*
X217598172Y-13481352D01*
X217598172Y-13365238D01*
X217636877Y-13210419D01*
X217675582Y-13133010D01*
X217752991Y-13055600D01*
X217869105Y-13016895D01*
X217946515Y-13016895D01*
X218062629Y-13055600D01*
X218101334Y-13094305D01*
X218372267Y-13016895D02*
X218875429Y-13016895D01*
X218604496Y-13326533D01*
X218720610Y-13326533D01*
X218798020Y-13365238D01*
X218836724Y-13403943D01*
X218875429Y-13481352D01*
X218875429Y-13674876D01*
X218836724Y-13752286D01*
X218798020Y-13790990D01*
X218720610Y-13829695D01*
X218488382Y-13829695D01*
X218410972Y-13790990D01*
X218372267Y-13752286D01*
X214291334Y-11085286D02*
X214252629Y-11123990D01*
X214136515Y-11162695D01*
X214059105Y-11162695D01*
X213942991Y-11123990D01*
X213865582Y-11046581D01*
X213826877Y-10969171D01*
X213788172Y-10814352D01*
X213788172Y-10698238D01*
X213826877Y-10543419D01*
X213865582Y-10466010D01*
X213942991Y-10388600D01*
X214059105Y-10349895D01*
X214136515Y-10349895D01*
X214252629Y-10388600D01*
X214291334Y-10427305D01*
X214988020Y-10620829D02*
X214988020Y-11162695D01*
X214794496Y-10311190D02*
X214600972Y-10891762D01*
X215104134Y-10891762D01*
X244974534Y-35215286D02*
X244935829Y-35253990D01*
X244819715Y-35292695D01*
X244742305Y-35292695D01*
X244626191Y-35253990D01*
X244548782Y-35176581D01*
X244510077Y-35099171D01*
X244471372Y-34944352D01*
X244471372Y-34828238D01*
X244510077Y-34673419D01*
X244548782Y-34596010D01*
X244626191Y-34518600D01*
X244742305Y-34479895D01*
X244819715Y-34479895D01*
X244935829Y-34518600D01*
X244974534Y-34557305D01*
X245709924Y-34479895D02*
X245322877Y-34479895D01*
X245284172Y-34866943D01*
X245322877Y-34828238D01*
X245400286Y-34789533D01*
X245593810Y-34789533D01*
X245671220Y-34828238D01*
X245709924Y-34866943D01*
X245748629Y-34944352D01*
X245748629Y-35137876D01*
X245709924Y-35215286D01*
X245671220Y-35253990D01*
X245593810Y-35292695D01*
X245400286Y-35292695D01*
X245322877Y-35253990D01*
X245284172Y-35215286D01*
X195571534Y-13752286D02*
X195532829Y-13790990D01*
X195416715Y-13829695D01*
X195339305Y-13829695D01*
X195223191Y-13790990D01*
X195145782Y-13713581D01*
X195107077Y-13636171D01*
X195068372Y-13481352D01*
X195068372Y-13365238D01*
X195107077Y-13210419D01*
X195145782Y-13133010D01*
X195223191Y-13055600D01*
X195339305Y-13016895D01*
X195416715Y-13016895D01*
X195532829Y-13055600D01*
X195571534Y-13094305D01*
X196268220Y-13016895D02*
X196113401Y-13016895D01*
X196035991Y-13055600D01*
X195997286Y-13094305D01*
X195919877Y-13210419D01*
X195881172Y-13365238D01*
X195881172Y-13674876D01*
X195919877Y-13752286D01*
X195958582Y-13790990D01*
X196035991Y-13829695D01*
X196190810Y-13829695D01*
X196268220Y-13790990D01*
X196306924Y-13752286D01*
X196345629Y-13674876D01*
X196345629Y-13481352D01*
X196306924Y-13403943D01*
X196268220Y-13365238D01*
X196190810Y-13326533D01*
X196035991Y-13326533D01*
X195958582Y-13365238D01*
X195919877Y-13403943D01*
X195881172Y-13481352D01*
X199508534Y-12228286D02*
X199469829Y-12266990D01*
X199353715Y-12305695D01*
X199276305Y-12305695D01*
X199160191Y-12266990D01*
X199082782Y-12189581D01*
X199044077Y-12112171D01*
X199005372Y-11957352D01*
X199005372Y-11841238D01*
X199044077Y-11686419D01*
X199082782Y-11609010D01*
X199160191Y-11531600D01*
X199276305Y-11492895D01*
X199353715Y-11492895D01*
X199469829Y-11531600D01*
X199508534Y-11570305D01*
X199779467Y-11492895D02*
X200321334Y-11492895D01*
X199972991Y-12305695D01*
X226731286Y-29345466D02*
X226769990Y-29384171D01*
X226808695Y-29500285D01*
X226808695Y-29577695D01*
X226769990Y-29693809D01*
X226692581Y-29771218D01*
X226615171Y-29809923D01*
X226460352Y-29848628D01*
X226344238Y-29848628D01*
X226189419Y-29809923D01*
X226112010Y-29771218D01*
X226034600Y-29693809D01*
X225995895Y-29577695D01*
X225995895Y-29500285D01*
X226034600Y-29384171D01*
X226073305Y-29345466D01*
X226344238Y-28881009D02*
X226305533Y-28958418D01*
X226266829Y-28997123D01*
X226189419Y-29035828D01*
X226150714Y-29035828D01*
X226073305Y-28997123D01*
X226034600Y-28958418D01*
X225995895Y-28881009D01*
X225995895Y-28726190D01*
X226034600Y-28648780D01*
X226073305Y-28610076D01*
X226150714Y-28571371D01*
X226189419Y-28571371D01*
X226266829Y-28610076D01*
X226305533Y-28648780D01*
X226344238Y-28726190D01*
X226344238Y-28881009D01*
X226382943Y-28958418D01*
X226421648Y-28997123D01*
X226499057Y-29035828D01*
X226653876Y-29035828D01*
X226731286Y-28997123D01*
X226769990Y-28958418D01*
X226808695Y-28881009D01*
X226808695Y-28726190D01*
X226769990Y-28648780D01*
X226731286Y-28610076D01*
X226653876Y-28571371D01*
X226499057Y-28571371D01*
X226421648Y-28610076D01*
X226382943Y-28648780D01*
X226344238Y-28726190D01*
X199934286Y-37727466D02*
X199972990Y-37766171D01*
X200011695Y-37882285D01*
X200011695Y-37959695D01*
X199972990Y-38075809D01*
X199895581Y-38153218D01*
X199818171Y-38191923D01*
X199663352Y-38230628D01*
X199547238Y-38230628D01*
X199392419Y-38191923D01*
X199315010Y-38153218D01*
X199237600Y-38075809D01*
X199198895Y-37959695D01*
X199198895Y-37882285D01*
X199237600Y-37766171D01*
X199276305Y-37727466D01*
X200011695Y-37340418D02*
X200011695Y-37185599D01*
X199972990Y-37108190D01*
X199934286Y-37069485D01*
X199818171Y-36992076D01*
X199663352Y-36953371D01*
X199353714Y-36953371D01*
X199276305Y-36992076D01*
X199237600Y-37030780D01*
X199198895Y-37108190D01*
X199198895Y-37263009D01*
X199237600Y-37340418D01*
X199276305Y-37379123D01*
X199353714Y-37417828D01*
X199547238Y-37417828D01*
X199624648Y-37379123D01*
X199663352Y-37340418D01*
X199702057Y-37263009D01*
X199702057Y-37108190D01*
X199663352Y-37030780D01*
X199624648Y-36992076D01*
X199547238Y-36953371D01*
X207351086Y-33424586D02*
X207312381Y-33463290D01*
X207196267Y-33501995D01*
X207118857Y-33501995D01*
X207002743Y-33463290D01*
X206925334Y-33385881D01*
X206886629Y-33308471D01*
X206847924Y-33153652D01*
X206847924Y-33037538D01*
X206886629Y-32882719D01*
X206925334Y-32805310D01*
X207002743Y-32727900D01*
X207118857Y-32689195D01*
X207196267Y-32689195D01*
X207312381Y-32727900D01*
X207351086Y-32766605D01*
X208125181Y-33501995D02*
X207660724Y-33501995D01*
X207892953Y-33501995D02*
X207892953Y-32689195D01*
X207815543Y-32805310D01*
X207738134Y-32882719D01*
X207660724Y-32921424D01*
X208628343Y-32689195D02*
X208705752Y-32689195D01*
X208783162Y-32727900D01*
X208821867Y-32766605D01*
X208860571Y-32844014D01*
X208899276Y-32998833D01*
X208899276Y-33192357D01*
X208860571Y-33347176D01*
X208821867Y-33424586D01*
X208783162Y-33463290D01*
X208705752Y-33501995D01*
X208628343Y-33501995D01*
X208550933Y-33463290D01*
X208512229Y-33424586D01*
X208473524Y-33347176D01*
X208434819Y-33192357D01*
X208434819Y-32998833D01*
X208473524Y-32844014D01*
X208512229Y-32766605D01*
X208550933Y-32727900D01*
X208628343Y-32689195D01*
X189367886Y-33424586D02*
X189329181Y-33463290D01*
X189213067Y-33501995D01*
X189135657Y-33501995D01*
X189019543Y-33463290D01*
X188942134Y-33385881D01*
X188903429Y-33308471D01*
X188864724Y-33153652D01*
X188864724Y-33037538D01*
X188903429Y-32882719D01*
X188942134Y-32805310D01*
X189019543Y-32727900D01*
X189135657Y-32689195D01*
X189213067Y-32689195D01*
X189329181Y-32727900D01*
X189367886Y-32766605D01*
X190141981Y-33501995D02*
X189677524Y-33501995D01*
X189909753Y-33501995D02*
X189909753Y-32689195D01*
X189832343Y-32805310D01*
X189754934Y-32882719D01*
X189677524Y-32921424D01*
X190916076Y-33501995D02*
X190451619Y-33501995D01*
X190683848Y-33501995D02*
X190683848Y-32689195D01*
X190606438Y-32805310D01*
X190529029Y-32882719D01*
X190451619Y-32921424D01*
X196441786Y-39304686D02*
X196403081Y-39343390D01*
X196286967Y-39382095D01*
X196209557Y-39382095D01*
X196093443Y-39343390D01*
X196016034Y-39265981D01*
X195977329Y-39188571D01*
X195938624Y-39033752D01*
X195938624Y-38917638D01*
X195977329Y-38762819D01*
X196016034Y-38685410D01*
X196093443Y-38608000D01*
X196209557Y-38569295D01*
X196286967Y-38569295D01*
X196403081Y-38608000D01*
X196441786Y-38646705D01*
X197215881Y-39382095D02*
X196751424Y-39382095D01*
X196983653Y-39382095D02*
X196983653Y-38569295D01*
X196906243Y-38685410D01*
X196828834Y-38762819D01*
X196751424Y-38801524D01*
X197525519Y-38646705D02*
X197564224Y-38608000D01*
X197641633Y-38569295D01*
X197835157Y-38569295D01*
X197912567Y-38608000D01*
X197951271Y-38646705D01*
X197989976Y-38724114D01*
X197989976Y-38801524D01*
X197951271Y-38917638D01*
X197486814Y-39382095D01*
X197989976Y-39382095D01*
X205242886Y-43355986D02*
X205204181Y-43394690D01*
X205088067Y-43433395D01*
X205010657Y-43433395D01*
X204894543Y-43394690D01*
X204817134Y-43317281D01*
X204778429Y-43239871D01*
X204739724Y-43085052D01*
X204739724Y-42968938D01*
X204778429Y-42814119D01*
X204817134Y-42736710D01*
X204894543Y-42659300D01*
X205010657Y-42620595D01*
X205088067Y-42620595D01*
X205204181Y-42659300D01*
X205242886Y-42698005D01*
X206016981Y-43433395D02*
X205552524Y-43433395D01*
X205784753Y-43433395D02*
X205784753Y-42620595D01*
X205707343Y-42736710D01*
X205629934Y-42814119D01*
X205552524Y-42852824D01*
X206287914Y-42620595D02*
X206791076Y-42620595D01*
X206520143Y-42930233D01*
X206636257Y-42930233D01*
X206713667Y-42968938D01*
X206752371Y-43007643D01*
X206791076Y-43085052D01*
X206791076Y-43278576D01*
X206752371Y-43355986D01*
X206713667Y-43394690D01*
X206636257Y-43433395D01*
X206404029Y-43433395D01*
X206326619Y-43394690D01*
X206287914Y-43355986D01*
X173607186Y-9764486D02*
X173568481Y-9803190D01*
X173452367Y-9841895D01*
X173374957Y-9841895D01*
X173258843Y-9803190D01*
X173181434Y-9725781D01*
X173142729Y-9648371D01*
X173104024Y-9493552D01*
X173104024Y-9377438D01*
X173142729Y-9222619D01*
X173181434Y-9145210D01*
X173258843Y-9067800D01*
X173374957Y-9029095D01*
X173452367Y-9029095D01*
X173568481Y-9067800D01*
X173607186Y-9106505D01*
X174381281Y-9841895D02*
X173916824Y-9841895D01*
X174149053Y-9841895D02*
X174149053Y-9029095D01*
X174071643Y-9145210D01*
X173994234Y-9222619D01*
X173916824Y-9261324D01*
X175077967Y-9300029D02*
X175077967Y-9841895D01*
X174884443Y-8990390D02*
X174690919Y-9570962D01*
X175194081Y-9570962D01*
X164323486Y-5243286D02*
X164284781Y-5281990D01*
X164168667Y-5320695D01*
X164091257Y-5320695D01*
X163975143Y-5281990D01*
X163897734Y-5204581D01*
X163859029Y-5127171D01*
X163820324Y-4972352D01*
X163820324Y-4856238D01*
X163859029Y-4701419D01*
X163897734Y-4624010D01*
X163975143Y-4546600D01*
X164091257Y-4507895D01*
X164168667Y-4507895D01*
X164284781Y-4546600D01*
X164323486Y-4585305D01*
X165097581Y-5320695D02*
X164633124Y-5320695D01*
X164865353Y-5320695D02*
X164865353Y-4507895D01*
X164787943Y-4624010D01*
X164710534Y-4701419D01*
X164633124Y-4740124D01*
X165832971Y-4507895D02*
X165445924Y-4507895D01*
X165407219Y-4894943D01*
X165445924Y-4856238D01*
X165523333Y-4817533D01*
X165716857Y-4817533D01*
X165794267Y-4856238D01*
X165832971Y-4894943D01*
X165871676Y-4972352D01*
X165871676Y-5165876D01*
X165832971Y-5243286D01*
X165794267Y-5281990D01*
X165716857Y-5320695D01*
X165523333Y-5320695D01*
X165445924Y-5281990D01*
X165407219Y-5243286D01*
X226667786Y-1268186D02*
X226629081Y-1306890D01*
X226512967Y-1345595D01*
X226435557Y-1345595D01*
X226319443Y-1306890D01*
X226242034Y-1229481D01*
X226203329Y-1152071D01*
X226164624Y-997252D01*
X226164624Y-881138D01*
X226203329Y-726319D01*
X226242034Y-648910D01*
X226319443Y-571500D01*
X226435557Y-532795D01*
X226512967Y-532795D01*
X226629081Y-571500D01*
X226667786Y-610205D01*
X227441881Y-1345595D02*
X226977424Y-1345595D01*
X227209653Y-1345595D02*
X227209653Y-532795D01*
X227132243Y-648910D01*
X227054834Y-726319D01*
X226977424Y-765024D01*
X228138567Y-532795D02*
X227983748Y-532795D01*
X227906338Y-571500D01*
X227867633Y-610205D01*
X227790224Y-726319D01*
X227751519Y-881138D01*
X227751519Y-1190776D01*
X227790224Y-1268186D01*
X227828929Y-1306890D01*
X227906338Y-1345595D01*
X228061157Y-1345595D01*
X228138567Y-1306890D01*
X228177271Y-1268186D01*
X228215976Y-1190776D01*
X228215976Y-997252D01*
X228177271Y-919843D01*
X228138567Y-881138D01*
X228061157Y-842433D01*
X227906338Y-842433D01*
X227828929Y-881138D01*
X227790224Y-919843D01*
X227751519Y-997252D01*
X234427486Y-2703286D02*
X234388781Y-2741990D01*
X234272667Y-2780695D01*
X234195257Y-2780695D01*
X234079143Y-2741990D01*
X234001734Y-2664581D01*
X233963029Y-2587171D01*
X233924324Y-2432352D01*
X233924324Y-2316238D01*
X233963029Y-2161419D01*
X234001734Y-2084010D01*
X234079143Y-2006600D01*
X234195257Y-1967895D01*
X234272667Y-1967895D01*
X234388781Y-2006600D01*
X234427486Y-2045305D01*
X235201581Y-2780695D02*
X234737124Y-2780695D01*
X234969353Y-2780695D02*
X234969353Y-1967895D01*
X234891943Y-2084010D01*
X234814534Y-2161419D01*
X234737124Y-2200124D01*
X235472514Y-1967895D02*
X236014381Y-1967895D01*
X235666038Y-2780695D01*
X233461077Y-8622695D02*
X233461077Y-7809895D01*
X233654601Y-7809895D01*
X233770715Y-7848600D01*
X233848124Y-7926010D01*
X233886829Y-8003419D01*
X233925534Y-8158238D01*
X233925534Y-8274352D01*
X233886829Y-8429171D01*
X233848124Y-8506581D01*
X233770715Y-8583990D01*
X233654601Y-8622695D01*
X233461077Y-8622695D01*
X234699629Y-8622695D02*
X234235172Y-8622695D01*
X234467401Y-8622695D02*
X234467401Y-7809895D01*
X234389991Y-7926010D01*
X234312582Y-8003419D01*
X234235172Y-8042124D01*
X230032077Y-34403695D02*
X230032077Y-33590895D01*
X230225601Y-33590895D01*
X230341715Y-33629600D01*
X230419124Y-33707010D01*
X230457829Y-33784419D01*
X230496534Y-33939238D01*
X230496534Y-34055352D01*
X230457829Y-34210171D01*
X230419124Y-34287581D01*
X230341715Y-34364990D01*
X230225601Y-34403695D01*
X230032077Y-34403695D01*
X230806172Y-33668305D02*
X230844877Y-33629600D01*
X230922286Y-33590895D01*
X231115810Y-33590895D01*
X231193220Y-33629600D01*
X231231924Y-33668305D01*
X231270629Y-33745714D01*
X231270629Y-33823124D01*
X231231924Y-33939238D01*
X230767467Y-34403695D01*
X231270629Y-34403695D01*
X230119077Y-26835695D02*
X230119077Y-26022895D01*
X230312601Y-26022895D01*
X230428715Y-26061600D01*
X230506124Y-26139010D01*
X230544829Y-26216419D01*
X230583534Y-26371238D01*
X230583534Y-26487352D01*
X230544829Y-26642171D01*
X230506124Y-26719581D01*
X230428715Y-26796990D01*
X230312601Y-26835695D01*
X230119077Y-26835695D01*
X230854467Y-26022895D02*
X231357629Y-26022895D01*
X231086696Y-26332533D01*
X231202810Y-26332533D01*
X231280220Y-26371238D01*
X231318924Y-26409943D01*
X231357629Y-26487352D01*
X231357629Y-26680876D01*
X231318924Y-26758286D01*
X231280220Y-26796990D01*
X231202810Y-26835695D01*
X230970582Y-26835695D01*
X230893172Y-26796990D01*
X230854467Y-26758286D01*
X227873077Y-34403695D02*
X227873077Y-33590895D01*
X228066601Y-33590895D01*
X228182715Y-33629600D01*
X228260124Y-33707010D01*
X228298829Y-33784419D01*
X228337534Y-33939238D01*
X228337534Y-34055352D01*
X228298829Y-34210171D01*
X228260124Y-34287581D01*
X228182715Y-34364990D01*
X228066601Y-34403695D01*
X227873077Y-34403695D01*
X229034220Y-33861829D02*
X229034220Y-34403695D01*
X228840696Y-33552190D02*
X228647172Y-34132762D01*
X229150334Y-34132762D01*
X230106704Y-72865343D02*
X229835771Y-72865343D01*
X229835771Y-73291095D02*
X229835771Y-72478295D01*
X230222818Y-72478295D01*
X230687276Y-72478295D02*
X230842095Y-72478295D01*
X230919504Y-72517000D01*
X230996914Y-72594410D01*
X231035619Y-72749229D01*
X231035619Y-73020162D01*
X230996914Y-73174981D01*
X230919504Y-73252390D01*
X230842095Y-73291095D01*
X230687276Y-73291095D01*
X230609866Y-73252390D01*
X230532457Y-73174981D01*
X230493752Y-73020162D01*
X230493752Y-72749229D01*
X230532457Y-72594410D01*
X230609866Y-72517000D01*
X230687276Y-72478295D01*
X231538781Y-72478295D02*
X231693600Y-72478295D01*
X231771009Y-72517000D01*
X231848419Y-72594410D01*
X231887124Y-72749229D01*
X231887124Y-73020162D01*
X231848419Y-73174981D01*
X231771009Y-73252390D01*
X231693600Y-73291095D01*
X231538781Y-73291095D01*
X231461371Y-73252390D01*
X231383962Y-73174981D01*
X231345257Y-73020162D01*
X231345257Y-72749229D01*
X231383962Y-72594410D01*
X231461371Y-72517000D01*
X231538781Y-72478295D01*
X232119353Y-72478295D02*
X232583810Y-72478295D01*
X232351581Y-73291095D02*
X232351581Y-72478295D01*
X233280495Y-73291095D02*
X232816038Y-73291095D01*
X233048267Y-73291095D02*
X233048267Y-72478295D01*
X232970857Y-72594410D01*
X232893448Y-72671819D01*
X232816038Y-72710524D01*
X153906704Y-72865343D02*
X153635771Y-72865343D01*
X153635771Y-73291095D02*
X153635771Y-72478295D01*
X154022818Y-72478295D01*
X154487276Y-72478295D02*
X154642095Y-72478295D01*
X154719504Y-72517000D01*
X154796914Y-72594410D01*
X154835619Y-72749229D01*
X154835619Y-73020162D01*
X154796914Y-73174981D01*
X154719504Y-73252390D01*
X154642095Y-73291095D01*
X154487276Y-73291095D01*
X154409866Y-73252390D01*
X154332457Y-73174981D01*
X154293752Y-73020162D01*
X154293752Y-72749229D01*
X154332457Y-72594410D01*
X154409866Y-72517000D01*
X154487276Y-72478295D01*
X155338781Y-72478295D02*
X155493600Y-72478295D01*
X155571009Y-72517000D01*
X155648419Y-72594410D01*
X155687124Y-72749229D01*
X155687124Y-73020162D01*
X155648419Y-73174981D01*
X155571009Y-73252390D01*
X155493600Y-73291095D01*
X155338781Y-73291095D01*
X155261371Y-73252390D01*
X155183962Y-73174981D01*
X155145257Y-73020162D01*
X155145257Y-72749229D01*
X155183962Y-72594410D01*
X155261371Y-72517000D01*
X155338781Y-72478295D01*
X155919353Y-72478295D02*
X156383810Y-72478295D01*
X156151581Y-73291095D02*
X156151581Y-72478295D01*
X156616038Y-72555705D02*
X156654743Y-72517000D01*
X156732152Y-72478295D01*
X156925676Y-72478295D01*
X157003086Y-72517000D01*
X157041790Y-72555705D01*
X157080495Y-72633114D01*
X157080495Y-72710524D01*
X157041790Y-72826638D01*
X156577333Y-73291095D01*
X157080495Y-73291095D01*
X77706704Y-72865343D02*
X77435771Y-72865343D01*
X77435771Y-73291095D02*
X77435771Y-72478295D01*
X77822818Y-72478295D01*
X78287276Y-72478295D02*
X78442095Y-72478295D01*
X78519504Y-72517000D01*
X78596914Y-72594410D01*
X78635619Y-72749229D01*
X78635619Y-73020162D01*
X78596914Y-73174981D01*
X78519504Y-73252390D01*
X78442095Y-73291095D01*
X78287276Y-73291095D01*
X78209866Y-73252390D01*
X78132457Y-73174981D01*
X78093752Y-73020162D01*
X78093752Y-72749229D01*
X78132457Y-72594410D01*
X78209866Y-72517000D01*
X78287276Y-72478295D01*
X79138781Y-72478295D02*
X79293600Y-72478295D01*
X79371009Y-72517000D01*
X79448419Y-72594410D01*
X79487124Y-72749229D01*
X79487124Y-73020162D01*
X79448419Y-73174981D01*
X79371009Y-73252390D01*
X79293600Y-73291095D01*
X79138781Y-73291095D01*
X79061371Y-73252390D01*
X78983962Y-73174981D01*
X78945257Y-73020162D01*
X78945257Y-72749229D01*
X78983962Y-72594410D01*
X79061371Y-72517000D01*
X79138781Y-72478295D01*
X79719353Y-72478295D02*
X80183810Y-72478295D01*
X79951581Y-73291095D02*
X79951581Y-72478295D01*
X80377333Y-72478295D02*
X80880495Y-72478295D01*
X80609562Y-72787933D01*
X80725676Y-72787933D01*
X80803086Y-72826638D01*
X80841790Y-72865343D01*
X80880495Y-72942752D01*
X80880495Y-73136276D01*
X80841790Y-73213686D01*
X80803086Y-73252390D01*
X80725676Y-73291095D01*
X80493448Y-73291095D01*
X80416038Y-73252390D01*
X80377333Y-73213686D01*
X1506704Y-72865343D02*
X1235771Y-72865343D01*
X1235771Y-73291095D02*
X1235771Y-72478295D01*
X1622818Y-72478295D01*
X2087276Y-72478295D02*
X2242095Y-72478295D01*
X2319504Y-72517000D01*
X2396914Y-72594410D01*
X2435619Y-72749229D01*
X2435619Y-73020162D01*
X2396914Y-73174981D01*
X2319504Y-73252390D01*
X2242095Y-73291095D01*
X2087276Y-73291095D01*
X2009866Y-73252390D01*
X1932457Y-73174981D01*
X1893752Y-73020162D01*
X1893752Y-72749229D01*
X1932457Y-72594410D01*
X2009866Y-72517000D01*
X2087276Y-72478295D01*
X2938781Y-72478295D02*
X3093600Y-72478295D01*
X3171009Y-72517000D01*
X3248419Y-72594410D01*
X3287124Y-72749229D01*
X3287124Y-73020162D01*
X3248419Y-73174981D01*
X3171009Y-73252390D01*
X3093600Y-73291095D01*
X2938781Y-73291095D01*
X2861371Y-73252390D01*
X2783962Y-73174981D01*
X2745257Y-73020162D01*
X2745257Y-72749229D01*
X2783962Y-72594410D01*
X2861371Y-72517000D01*
X2938781Y-72478295D01*
X3519353Y-72478295D02*
X3983810Y-72478295D01*
X3751581Y-73291095D02*
X3751581Y-72478295D01*
X4603086Y-72749229D02*
X4603086Y-73291095D01*
X4409562Y-72439590D02*
X4216038Y-73020162D01*
X4719200Y-73020162D01*
X235241495Y-22991233D02*
X235822067Y-22991233D01*
X235938181Y-23029937D01*
X236015590Y-23107347D01*
X236054295Y-23223461D01*
X236054295Y-23300871D01*
X236054295Y-22178433D02*
X236054295Y-22642890D01*
X236054295Y-22410661D02*
X235241495Y-22410661D01*
X235357610Y-22488071D01*
X235435019Y-22565480D01*
X235473724Y-22642890D01*
X235241495Y-44327233D02*
X235822067Y-44327233D01*
X235938181Y-44365937D01*
X236015590Y-44443347D01*
X236054295Y-44559461D01*
X236054295Y-44636871D01*
X235318905Y-43978890D02*
X235280200Y-43940185D01*
X235241495Y-43862776D01*
X235241495Y-43669252D01*
X235280200Y-43591842D01*
X235318905Y-43553138D01*
X235396314Y-43514433D01*
X235473724Y-43514433D01*
X235589838Y-43553138D01*
X236054295Y-44017595D01*
X236054295Y-43514433D01*
X204619377Y-64616995D02*
X204619377Y-63804195D01*
X204929015Y-63804195D01*
X205006424Y-63842900D01*
X205045129Y-63881605D01*
X205083834Y-63959014D01*
X205083834Y-64075129D01*
X205045129Y-64152538D01*
X205006424Y-64191243D01*
X204929015Y-64229948D01*
X204619377Y-64229948D01*
X205393472Y-63881605D02*
X205432177Y-63842900D01*
X205509586Y-63804195D01*
X205703110Y-63804195D01*
X205780520Y-63842900D01*
X205819224Y-63881605D01*
X205857929Y-63959014D01*
X205857929Y-64036424D01*
X205819224Y-64152538D01*
X205354767Y-64616995D01*
X205857929Y-64616995D01*
X232541590Y-35613105D02*
X232464181Y-35574400D01*
X232386771Y-35496990D01*
X232270657Y-35380876D01*
X232193248Y-35342171D01*
X232115838Y-35342171D01*
X232154543Y-35535695D02*
X232077133Y-35496990D01*
X231999724Y-35419581D01*
X231961019Y-35264762D01*
X231961019Y-34993829D01*
X231999724Y-34839010D01*
X232077133Y-34761600D01*
X232154543Y-34722895D01*
X232309362Y-34722895D01*
X232386771Y-34761600D01*
X232464181Y-34839010D01*
X232502886Y-34993829D01*
X232502886Y-35264762D01*
X232464181Y-35419581D01*
X232386771Y-35496990D01*
X232309362Y-35535695D01*
X232154543Y-35535695D01*
X233276981Y-35535695D02*
X232812524Y-35535695D01*
X233044753Y-35535695D02*
X233044753Y-34722895D01*
X232967343Y-34839010D01*
X232889934Y-34916419D01*
X232812524Y-34955124D01*
X233841590Y-46613105D02*
X233764181Y-46574400D01*
X233686771Y-46496990D01*
X233570657Y-46380876D01*
X233493248Y-46342171D01*
X233415838Y-46342171D01*
X233454543Y-46535695D02*
X233377133Y-46496990D01*
X233299724Y-46419581D01*
X233261019Y-46264762D01*
X233261019Y-45993829D01*
X233299724Y-45839010D01*
X233377133Y-45761600D01*
X233454543Y-45722895D01*
X233609362Y-45722895D01*
X233686771Y-45761600D01*
X233764181Y-45839010D01*
X233802886Y-45993829D01*
X233802886Y-46264762D01*
X233764181Y-46419581D01*
X233686771Y-46496990D01*
X233609362Y-46535695D01*
X233454543Y-46535695D01*
X234112524Y-45800305D02*
X234151229Y-45761600D01*
X234228638Y-45722895D01*
X234422162Y-45722895D01*
X234499572Y-45761600D01*
X234538276Y-45800305D01*
X234576981Y-45877714D01*
X234576981Y-45955124D01*
X234538276Y-46071238D01*
X234073819Y-46535695D01*
X234576981Y-46535695D01*
X186410890Y-6290605D02*
X186333481Y-6251900D01*
X186256071Y-6174490D01*
X186139957Y-6058376D01*
X186062548Y-6019671D01*
X185985138Y-6019671D01*
X186023843Y-6213195D02*
X185946433Y-6174490D01*
X185869024Y-6097081D01*
X185830319Y-5942262D01*
X185830319Y-5671329D01*
X185869024Y-5516510D01*
X185946433Y-5439100D01*
X186023843Y-5400395D01*
X186178662Y-5400395D01*
X186256071Y-5439100D01*
X186333481Y-5516510D01*
X186372186Y-5671329D01*
X186372186Y-5942262D01*
X186333481Y-6097081D01*
X186256071Y-6174490D01*
X186178662Y-6213195D01*
X186023843Y-6213195D01*
X186643119Y-5400395D02*
X187146281Y-5400395D01*
X186875348Y-5710033D01*
X186991462Y-5710033D01*
X187068872Y-5748738D01*
X187107576Y-5787443D01*
X187146281Y-5864852D01*
X187146281Y-6058376D01*
X187107576Y-6135786D01*
X187068872Y-6174490D01*
X186991462Y-6213195D01*
X186759234Y-6213195D01*
X186681824Y-6174490D01*
X186643119Y-6135786D01*
X230318734Y-43776295D02*
X230047801Y-43389248D01*
X229854277Y-43776295D02*
X229854277Y-42963495D01*
X230163915Y-42963495D01*
X230241324Y-43002200D01*
X230280029Y-43040905D01*
X230318734Y-43118314D01*
X230318734Y-43234429D01*
X230280029Y-43311838D01*
X230241324Y-43350543D01*
X230163915Y-43389248D01*
X229854277Y-43389248D01*
X231092829Y-43776295D02*
X230628372Y-43776295D01*
X230860601Y-43776295D02*
X230860601Y-42963495D01*
X230783191Y-43079610D01*
X230705782Y-43157019D01*
X230628372Y-43195724D01*
X230308934Y-50781895D02*
X230038001Y-50394848D01*
X229844477Y-50781895D02*
X229844477Y-49969095D01*
X230154115Y-49969095D01*
X230231524Y-50007800D01*
X230270229Y-50046505D01*
X230308934Y-50123914D01*
X230308934Y-50240029D01*
X230270229Y-50317438D01*
X230231524Y-50356143D01*
X230154115Y-50394848D01*
X229844477Y-50394848D01*
X230618572Y-50046505D02*
X230657277Y-50007800D01*
X230734686Y-49969095D01*
X230928210Y-49969095D01*
X231005620Y-50007800D01*
X231044324Y-50046505D01*
X231083029Y-50123914D01*
X231083029Y-50201324D01*
X231044324Y-50317438D01*
X230579867Y-50781895D01*
X231083029Y-50781895D01*
X233883534Y-42435695D02*
X233612601Y-42048648D01*
X233419077Y-42435695D02*
X233419077Y-41622895D01*
X233728715Y-41622895D01*
X233806124Y-41661600D01*
X233844829Y-41700305D01*
X233883534Y-41777714D01*
X233883534Y-41893829D01*
X233844829Y-41971238D01*
X233806124Y-42009943D01*
X233728715Y-42048648D01*
X233419077Y-42048648D01*
X234154467Y-41622895D02*
X234657629Y-41622895D01*
X234386696Y-41932533D01*
X234502810Y-41932533D01*
X234580220Y-41971238D01*
X234618924Y-42009943D01*
X234657629Y-42087352D01*
X234657629Y-42280876D01*
X234618924Y-42358286D01*
X234580220Y-42396990D01*
X234502810Y-42435695D01*
X234270582Y-42435695D01*
X234193172Y-42396990D01*
X234154467Y-42358286D01*
X233783534Y-53135695D02*
X233512601Y-52748648D01*
X233319077Y-53135695D02*
X233319077Y-52322895D01*
X233628715Y-52322895D01*
X233706124Y-52361600D01*
X233744829Y-52400305D01*
X233783534Y-52477714D01*
X233783534Y-52593829D01*
X233744829Y-52671238D01*
X233706124Y-52709943D01*
X233628715Y-52748648D01*
X233319077Y-52748648D01*
X234480220Y-52593829D02*
X234480220Y-53135695D01*
X234286696Y-52284190D02*
X234093172Y-52864762D01*
X234596334Y-52864762D01*
X233845434Y-17378395D02*
X233574501Y-16991348D01*
X233380977Y-17378395D02*
X233380977Y-16565595D01*
X233690615Y-16565595D01*
X233768024Y-16604300D01*
X233806729Y-16643005D01*
X233845434Y-16720414D01*
X233845434Y-16836529D01*
X233806729Y-16913938D01*
X233768024Y-16952643D01*
X233690615Y-16991348D01*
X233380977Y-16991348D01*
X234580824Y-16565595D02*
X234193777Y-16565595D01*
X234155072Y-16952643D01*
X234193777Y-16913938D01*
X234271186Y-16875233D01*
X234464710Y-16875233D01*
X234542120Y-16913938D01*
X234580824Y-16952643D01*
X234619529Y-17030052D01*
X234619529Y-17223576D01*
X234580824Y-17300986D01*
X234542120Y-17339690D01*
X234464710Y-17378395D01*
X234271186Y-17378395D01*
X234193777Y-17339690D01*
X234155072Y-17300986D01*
X233783534Y-28735695D02*
X233512601Y-28348648D01*
X233319077Y-28735695D02*
X233319077Y-27922895D01*
X233628715Y-27922895D01*
X233706124Y-27961600D01*
X233744829Y-28000305D01*
X233783534Y-28077714D01*
X233783534Y-28193829D01*
X233744829Y-28271238D01*
X233706124Y-28309943D01*
X233628715Y-28348648D01*
X233319077Y-28348648D01*
X234480220Y-27922895D02*
X234325401Y-27922895D01*
X234247991Y-27961600D01*
X234209286Y-28000305D01*
X234131877Y-28116419D01*
X234093172Y-28271238D01*
X234093172Y-28580876D01*
X234131877Y-28658286D01*
X234170582Y-28696990D01*
X234247991Y-28735695D01*
X234402810Y-28735695D01*
X234480220Y-28696990D01*
X234518924Y-28658286D01*
X234557629Y-28580876D01*
X234557629Y-28387352D01*
X234518924Y-28309943D01*
X234480220Y-28271238D01*
X234402810Y-28232533D01*
X234247991Y-28232533D01*
X234170582Y-28271238D01*
X234131877Y-28309943D01*
X234093172Y-28387352D01*
X235233634Y-73100595D02*
X234962701Y-72713548D01*
X234769177Y-73100595D02*
X234769177Y-72287795D01*
X235078815Y-72287795D01*
X235156224Y-72326500D01*
X235194929Y-72365205D01*
X235233634Y-72442614D01*
X235233634Y-72558729D01*
X235194929Y-72636138D01*
X235156224Y-72674843D01*
X235078815Y-72713548D01*
X234769177Y-72713548D01*
X235504567Y-72287795D02*
X236046434Y-72287795D01*
X235698091Y-73100595D01*
X159059034Y-73100595D02*
X158788101Y-72713548D01*
X158594577Y-73100595D02*
X158594577Y-72287795D01*
X158904215Y-72287795D01*
X158981624Y-72326500D01*
X159020329Y-72365205D01*
X159059034Y-72442614D01*
X159059034Y-72558729D01*
X159020329Y-72636138D01*
X158981624Y-72674843D01*
X158904215Y-72713548D01*
X158594577Y-72713548D01*
X159523491Y-72636138D02*
X159446082Y-72597433D01*
X159407377Y-72558729D01*
X159368672Y-72481319D01*
X159368672Y-72442614D01*
X159407377Y-72365205D01*
X159446082Y-72326500D01*
X159523491Y-72287795D01*
X159678310Y-72287795D01*
X159755720Y-72326500D01*
X159794424Y-72365205D01*
X159833129Y-72442614D01*
X159833129Y-72481319D01*
X159794424Y-72558729D01*
X159755720Y-72597433D01*
X159678310Y-72636138D01*
X159523491Y-72636138D01*
X159446082Y-72674843D01*
X159407377Y-72713548D01*
X159368672Y-72790957D01*
X159368672Y-72945776D01*
X159407377Y-73023186D01*
X159446082Y-73061890D01*
X159523491Y-73100595D01*
X159678310Y-73100595D01*
X159755720Y-73061890D01*
X159794424Y-73023186D01*
X159833129Y-72945776D01*
X159833129Y-72790957D01*
X159794424Y-72713548D01*
X159755720Y-72674843D01*
X159678310Y-72636138D01*
X82820934Y-73100595D02*
X82550001Y-72713548D01*
X82356477Y-73100595D02*
X82356477Y-72287795D01*
X82666115Y-72287795D01*
X82743524Y-72326500D01*
X82782229Y-72365205D01*
X82820934Y-72442614D01*
X82820934Y-72558729D01*
X82782229Y-72636138D01*
X82743524Y-72674843D01*
X82666115Y-72713548D01*
X82356477Y-72713548D01*
X83207982Y-73100595D02*
X83362801Y-73100595D01*
X83440210Y-73061890D01*
X83478915Y-73023186D01*
X83556324Y-72907071D01*
X83595029Y-72752252D01*
X83595029Y-72442614D01*
X83556324Y-72365205D01*
X83517620Y-72326500D01*
X83440210Y-72287795D01*
X83285391Y-72287795D01*
X83207982Y-72326500D01*
X83169277Y-72365205D01*
X83130572Y-72442614D01*
X83130572Y-72636138D01*
X83169277Y-72713548D01*
X83207982Y-72752252D01*
X83285391Y-72790957D01*
X83440210Y-72790957D01*
X83517620Y-72752252D01*
X83556324Y-72713548D01*
X83595029Y-72636138D01*
X6259286Y-73113295D02*
X5988353Y-72726248D01*
X5794829Y-73113295D02*
X5794829Y-72300495D01*
X6104467Y-72300495D01*
X6181876Y-72339200D01*
X6220581Y-72377905D01*
X6259286Y-72455314D01*
X6259286Y-72571429D01*
X6220581Y-72648838D01*
X6181876Y-72687543D01*
X6104467Y-72726248D01*
X5794829Y-72726248D01*
X7033381Y-73113295D02*
X6568924Y-73113295D01*
X6801153Y-73113295D02*
X6801153Y-72300495D01*
X6723743Y-72416610D01*
X6646334Y-72494019D01*
X6568924Y-72532724D01*
X7536543Y-72300495D02*
X7613952Y-72300495D01*
X7691362Y-72339200D01*
X7730067Y-72377905D01*
X7768771Y-72455314D01*
X7807476Y-72610133D01*
X7807476Y-72803657D01*
X7768771Y-72958476D01*
X7730067Y-73035886D01*
X7691362Y-73074590D01*
X7613952Y-73113295D01*
X7536543Y-73113295D01*
X7459133Y-73074590D01*
X7420429Y-73035886D01*
X7381724Y-72958476D01*
X7343019Y-72803657D01*
X7343019Y-72610133D01*
X7381724Y-72455314D01*
X7420429Y-72377905D01*
X7459133Y-72339200D01*
X7536543Y-72300495D01*
X239609086Y-33628995D02*
X239338153Y-33241948D01*
X239144629Y-33628995D02*
X239144629Y-32816195D01*
X239454267Y-32816195D01*
X239531676Y-32854900D01*
X239570381Y-32893605D01*
X239609086Y-32971014D01*
X239609086Y-33087129D01*
X239570381Y-33164538D01*
X239531676Y-33203243D01*
X239454267Y-33241948D01*
X239144629Y-33241948D01*
X240383181Y-33628995D02*
X239918724Y-33628995D01*
X240150953Y-33628995D02*
X240150953Y-32816195D01*
X240073543Y-32932310D01*
X239996134Y-33009719D01*
X239918724Y-33048424D01*
X241157276Y-33628995D02*
X240692819Y-33628995D01*
X240925048Y-33628995D02*
X240925048Y-32816195D01*
X240847638Y-32932310D01*
X240770229Y-33009719D01*
X240692819Y-33048424D01*
X234682695Y-32780514D02*
X234295648Y-33051447D01*
X234682695Y-33244971D02*
X233869895Y-33244971D01*
X233869895Y-32935333D01*
X233908600Y-32857924D01*
X233947305Y-32819219D01*
X234024714Y-32780514D01*
X234140829Y-32780514D01*
X234218238Y-32819219D01*
X234256943Y-32857924D01*
X234295648Y-32935333D01*
X234295648Y-33244971D01*
X234682695Y-32006419D02*
X234682695Y-32470876D01*
X234682695Y-32238647D02*
X233869895Y-32238647D01*
X233986010Y-32316057D01*
X234063419Y-32393466D01*
X234102124Y-32470876D01*
X233947305Y-31696781D02*
X233908600Y-31658076D01*
X233869895Y-31580667D01*
X233869895Y-31387143D01*
X233908600Y-31309733D01*
X233947305Y-31271029D01*
X234024714Y-31232324D01*
X234102124Y-31232324D01*
X234218238Y-31271029D01*
X234682695Y-31735486D01*
X234682695Y-31232324D01*
X234682695Y-35193514D02*
X234295648Y-35464447D01*
X234682695Y-35657971D02*
X233869895Y-35657971D01*
X233869895Y-35348333D01*
X233908600Y-35270924D01*
X233947305Y-35232219D01*
X234024714Y-35193514D01*
X234140829Y-35193514D01*
X234218238Y-35232219D01*
X234256943Y-35270924D01*
X234295648Y-35348333D01*
X234295648Y-35657971D01*
X234682695Y-34419419D02*
X234682695Y-34883876D01*
X234682695Y-34651647D02*
X233869895Y-34651647D01*
X233986010Y-34729057D01*
X234063419Y-34806466D01*
X234102124Y-34883876D01*
X233869895Y-34148486D02*
X233869895Y-33645324D01*
X234179533Y-33916257D01*
X234179533Y-33800143D01*
X234218238Y-33722733D01*
X234256943Y-33684029D01*
X234334352Y-33645324D01*
X234527876Y-33645324D01*
X234605286Y-33684029D01*
X234643990Y-33722733D01*
X234682695Y-33800143D01*
X234682695Y-34032371D01*
X234643990Y-34109781D01*
X234605286Y-34148486D01*
X235824486Y-63740695D02*
X235553553Y-63353648D01*
X235360029Y-63740695D02*
X235360029Y-62927895D01*
X235669667Y-62927895D01*
X235747076Y-62966600D01*
X235785781Y-63005305D01*
X235824486Y-63082714D01*
X235824486Y-63198829D01*
X235785781Y-63276238D01*
X235747076Y-63314943D01*
X235669667Y-63353648D01*
X235360029Y-63353648D01*
X236598581Y-63740695D02*
X236134124Y-63740695D01*
X236366353Y-63740695D02*
X236366353Y-62927895D01*
X236288943Y-63044010D01*
X236211534Y-63121419D01*
X236134124Y-63160124D01*
X237295267Y-63198829D02*
X237295267Y-63740695D01*
X237101743Y-62889190D02*
X236908219Y-63469762D01*
X237411381Y-63469762D01*
X238619695Y-66816514D02*
X238232648Y-67087447D01*
X238619695Y-67280971D02*
X237806895Y-67280971D01*
X237806895Y-66971333D01*
X237845600Y-66893924D01*
X237884305Y-66855219D01*
X237961714Y-66816514D01*
X238077829Y-66816514D01*
X238155238Y-66855219D01*
X238193943Y-66893924D01*
X238232648Y-66971333D01*
X238232648Y-67280971D01*
X238619695Y-66042419D02*
X238619695Y-66506876D01*
X238619695Y-66274647D02*
X237806895Y-66274647D01*
X237923010Y-66352057D01*
X238000419Y-66429466D01*
X238039124Y-66506876D01*
X237806895Y-65307029D02*
X237806895Y-65694076D01*
X238193943Y-65732781D01*
X238155238Y-65694076D01*
X238116533Y-65616667D01*
X238116533Y-65423143D01*
X238155238Y-65345733D01*
X238193943Y-65307029D01*
X238271352Y-65268324D01*
X238464876Y-65268324D01*
X238542286Y-65307029D01*
X238580990Y-65345733D01*
X238619695Y-65423143D01*
X238619695Y-65616667D01*
X238580990Y-65694076D01*
X238542286Y-65732781D01*
X238619695Y-69229514D02*
X238232648Y-69500447D01*
X238619695Y-69693971D02*
X237806895Y-69693971D01*
X237806895Y-69384333D01*
X237845600Y-69306924D01*
X237884305Y-69268219D01*
X237961714Y-69229514D01*
X238077829Y-69229514D01*
X238155238Y-69268219D01*
X238193943Y-69306924D01*
X238232648Y-69384333D01*
X238232648Y-69693971D01*
X238619695Y-68455419D02*
X238619695Y-68919876D01*
X238619695Y-68687647D02*
X237806895Y-68687647D01*
X237923010Y-68765057D01*
X238000419Y-68842466D01*
X238039124Y-68919876D01*
X237806895Y-67758733D02*
X237806895Y-67913552D01*
X237845600Y-67990962D01*
X237884305Y-68029667D01*
X238000419Y-68107076D01*
X238155238Y-68145781D01*
X238464876Y-68145781D01*
X238542286Y-68107076D01*
X238580990Y-68068371D01*
X238619695Y-67990962D01*
X238619695Y-67836143D01*
X238580990Y-67758733D01*
X238542286Y-67720029D01*
X238464876Y-67681324D01*
X238271352Y-67681324D01*
X238193943Y-67720029D01*
X238155238Y-67758733D01*
X238116533Y-67836143D01*
X238116533Y-67990962D01*
X238155238Y-68068371D01*
X238193943Y-68107076D01*
X238271352Y-68145781D01*
X159751486Y-63867695D02*
X159480553Y-63480648D01*
X159287029Y-63867695D02*
X159287029Y-63054895D01*
X159596667Y-63054895D01*
X159674076Y-63093600D01*
X159712781Y-63132305D01*
X159751486Y-63209714D01*
X159751486Y-63325829D01*
X159712781Y-63403238D01*
X159674076Y-63441943D01*
X159596667Y-63480648D01*
X159287029Y-63480648D01*
X160525581Y-63867695D02*
X160061124Y-63867695D01*
X160293353Y-63867695D02*
X160293353Y-63054895D01*
X160215943Y-63171010D01*
X160138534Y-63248419D01*
X160061124Y-63287124D01*
X160796514Y-63054895D02*
X161338381Y-63054895D01*
X160990038Y-63867695D01*
X162419695Y-66816514D02*
X162032648Y-67087447D01*
X162419695Y-67280971D02*
X161606895Y-67280971D01*
X161606895Y-66971333D01*
X161645600Y-66893924D01*
X161684305Y-66855219D01*
X161761714Y-66816514D01*
X161877829Y-66816514D01*
X161955238Y-66855219D01*
X161993943Y-66893924D01*
X162032648Y-66971333D01*
X162032648Y-67280971D01*
X162419695Y-66042419D02*
X162419695Y-66506876D01*
X162419695Y-66274647D02*
X161606895Y-66274647D01*
X161723010Y-66352057D01*
X161800419Y-66429466D01*
X161839124Y-66506876D01*
X161955238Y-65577962D02*
X161916533Y-65655371D01*
X161877829Y-65694076D01*
X161800419Y-65732781D01*
X161761714Y-65732781D01*
X161684305Y-65694076D01*
X161645600Y-65655371D01*
X161606895Y-65577962D01*
X161606895Y-65423143D01*
X161645600Y-65345733D01*
X161684305Y-65307029D01*
X161761714Y-65268324D01*
X161800419Y-65268324D01*
X161877829Y-65307029D01*
X161916533Y-65345733D01*
X161955238Y-65423143D01*
X161955238Y-65577962D01*
X161993943Y-65655371D01*
X162032648Y-65694076D01*
X162110057Y-65732781D01*
X162264876Y-65732781D01*
X162342286Y-65694076D01*
X162380990Y-65655371D01*
X162419695Y-65577962D01*
X162419695Y-65423143D01*
X162380990Y-65345733D01*
X162342286Y-65307029D01*
X162264876Y-65268324D01*
X162110057Y-65268324D01*
X162032648Y-65307029D01*
X161993943Y-65345733D01*
X161955238Y-65423143D01*
X162419695Y-69356514D02*
X162032648Y-69627447D01*
X162419695Y-69820971D02*
X161606895Y-69820971D01*
X161606895Y-69511333D01*
X161645600Y-69433924D01*
X161684305Y-69395219D01*
X161761714Y-69356514D01*
X161877829Y-69356514D01*
X161955238Y-69395219D01*
X161993943Y-69433924D01*
X162032648Y-69511333D01*
X162032648Y-69820971D01*
X162419695Y-68582419D02*
X162419695Y-69046876D01*
X162419695Y-68814647D02*
X161606895Y-68814647D01*
X161723010Y-68892057D01*
X161800419Y-68969466D01*
X161839124Y-69046876D01*
X162419695Y-68195371D02*
X162419695Y-68040552D01*
X162380990Y-67963143D01*
X162342286Y-67924438D01*
X162226171Y-67847029D01*
X162071352Y-67808324D01*
X161761714Y-67808324D01*
X161684305Y-67847029D01*
X161645600Y-67885733D01*
X161606895Y-67963143D01*
X161606895Y-68117962D01*
X161645600Y-68195371D01*
X161684305Y-68234076D01*
X161761714Y-68272781D01*
X161955238Y-68272781D01*
X162032648Y-68234076D01*
X162071352Y-68195371D01*
X162110057Y-68117962D01*
X162110057Y-67963143D01*
X162071352Y-67885733D01*
X162032648Y-67847029D01*
X161955238Y-67808324D01*
X83551486Y-63867695D02*
X83280553Y-63480648D01*
X83087029Y-63867695D02*
X83087029Y-63054895D01*
X83396667Y-63054895D01*
X83474076Y-63093600D01*
X83512781Y-63132305D01*
X83551486Y-63209714D01*
X83551486Y-63325829D01*
X83512781Y-63403238D01*
X83474076Y-63441943D01*
X83396667Y-63480648D01*
X83087029Y-63480648D01*
X83861124Y-63132305D02*
X83899829Y-63093600D01*
X83977238Y-63054895D01*
X84170762Y-63054895D01*
X84248172Y-63093600D01*
X84286876Y-63132305D01*
X84325581Y-63209714D01*
X84325581Y-63287124D01*
X84286876Y-63403238D01*
X83822419Y-63867695D01*
X84325581Y-63867695D01*
X84828743Y-63054895D02*
X84906152Y-63054895D01*
X84983562Y-63093600D01*
X85022267Y-63132305D01*
X85060971Y-63209714D01*
X85099676Y-63364533D01*
X85099676Y-63558057D01*
X85060971Y-63712876D01*
X85022267Y-63790286D01*
X84983562Y-63828990D01*
X84906152Y-63867695D01*
X84828743Y-63867695D01*
X84751333Y-63828990D01*
X84712629Y-63790286D01*
X84673924Y-63712876D01*
X84635219Y-63558057D01*
X84635219Y-63364533D01*
X84673924Y-63209714D01*
X84712629Y-63132305D01*
X84751333Y-63093600D01*
X84828743Y-63054895D01*
X86219695Y-66816514D02*
X85832648Y-67087447D01*
X86219695Y-67280971D02*
X85406895Y-67280971D01*
X85406895Y-66971333D01*
X85445600Y-66893924D01*
X85484305Y-66855219D01*
X85561714Y-66816514D01*
X85677829Y-66816514D01*
X85755238Y-66855219D01*
X85793943Y-66893924D01*
X85832648Y-66971333D01*
X85832648Y-67280971D01*
X85484305Y-66506876D02*
X85445600Y-66468171D01*
X85406895Y-66390762D01*
X85406895Y-66197238D01*
X85445600Y-66119828D01*
X85484305Y-66081124D01*
X85561714Y-66042419D01*
X85639124Y-66042419D01*
X85755238Y-66081124D01*
X86219695Y-66545581D01*
X86219695Y-66042419D01*
X86219695Y-65268324D02*
X86219695Y-65732781D01*
X86219695Y-65500552D02*
X85406895Y-65500552D01*
X85523010Y-65577962D01*
X85600419Y-65655371D01*
X85639124Y-65732781D01*
X86219695Y-69229514D02*
X85832648Y-69500447D01*
X86219695Y-69693971D02*
X85406895Y-69693971D01*
X85406895Y-69384333D01*
X85445600Y-69306924D01*
X85484305Y-69268219D01*
X85561714Y-69229514D01*
X85677829Y-69229514D01*
X85755238Y-69268219D01*
X85793943Y-69306924D01*
X85832648Y-69384333D01*
X85832648Y-69693971D01*
X85484305Y-68919876D02*
X85445600Y-68881171D01*
X85406895Y-68803762D01*
X85406895Y-68610238D01*
X85445600Y-68532828D01*
X85484305Y-68494124D01*
X85561714Y-68455419D01*
X85639124Y-68455419D01*
X85755238Y-68494124D01*
X86219695Y-68958581D01*
X86219695Y-68455419D01*
X85484305Y-68145781D02*
X85445600Y-68107076D01*
X85406895Y-68029667D01*
X85406895Y-67836143D01*
X85445600Y-67758733D01*
X85484305Y-67720029D01*
X85561714Y-67681324D01*
X85639124Y-67681324D01*
X85755238Y-67720029D01*
X86219695Y-68184486D01*
X86219695Y-67681324D01*
X7351486Y-63791495D02*
X7080553Y-63404448D01*
X6887029Y-63791495D02*
X6887029Y-62978695D01*
X7196667Y-62978695D01*
X7274076Y-63017400D01*
X7312781Y-63056105D01*
X7351486Y-63133514D01*
X7351486Y-63249629D01*
X7312781Y-63327038D01*
X7274076Y-63365743D01*
X7196667Y-63404448D01*
X6887029Y-63404448D01*
X7661124Y-63056105D02*
X7699829Y-63017400D01*
X7777238Y-62978695D01*
X7970762Y-62978695D01*
X8048172Y-63017400D01*
X8086876Y-63056105D01*
X8125581Y-63133514D01*
X8125581Y-63210924D01*
X8086876Y-63327038D01*
X7622419Y-63791495D01*
X8125581Y-63791495D01*
X8396514Y-62978695D02*
X8899676Y-62978695D01*
X8628743Y-63288333D01*
X8744857Y-63288333D01*
X8822267Y-63327038D01*
X8860971Y-63365743D01*
X8899676Y-63443152D01*
X8899676Y-63636676D01*
X8860971Y-63714086D01*
X8822267Y-63752790D01*
X8744857Y-63791495D01*
X8512629Y-63791495D01*
X8435219Y-63752790D01*
X8396514Y-63714086D01*
X10146695Y-66740314D02*
X9759648Y-67011247D01*
X10146695Y-67204771D02*
X9333895Y-67204771D01*
X9333895Y-66895133D01*
X9372600Y-66817724D01*
X9411305Y-66779019D01*
X9488714Y-66740314D01*
X9604829Y-66740314D01*
X9682238Y-66779019D01*
X9720943Y-66817724D01*
X9759648Y-66895133D01*
X9759648Y-67204771D01*
X9411305Y-66430676D02*
X9372600Y-66391971D01*
X9333895Y-66314562D01*
X9333895Y-66121038D01*
X9372600Y-66043628D01*
X9411305Y-66004924D01*
X9488714Y-65966219D01*
X9566124Y-65966219D01*
X9682238Y-66004924D01*
X10146695Y-66469381D01*
X10146695Y-65966219D01*
X9604829Y-65269533D02*
X10146695Y-65269533D01*
X9295190Y-65463057D02*
X9875762Y-65656581D01*
X9875762Y-65153419D01*
X10146695Y-69280314D02*
X9759648Y-69551247D01*
X10146695Y-69744771D02*
X9333895Y-69744771D01*
X9333895Y-69435133D01*
X9372600Y-69357724D01*
X9411305Y-69319019D01*
X9488714Y-69280314D01*
X9604829Y-69280314D01*
X9682238Y-69319019D01*
X9720943Y-69357724D01*
X9759648Y-69435133D01*
X9759648Y-69744771D01*
X9411305Y-68970676D02*
X9372600Y-68931971D01*
X9333895Y-68854562D01*
X9333895Y-68661038D01*
X9372600Y-68583628D01*
X9411305Y-68544924D01*
X9488714Y-68506219D01*
X9566124Y-68506219D01*
X9682238Y-68544924D01*
X10146695Y-69009381D01*
X10146695Y-68506219D01*
X9333895Y-67770829D02*
X9333895Y-68157876D01*
X9720943Y-68196581D01*
X9682238Y-68157876D01*
X9643533Y-68080467D01*
X9643533Y-67886943D01*
X9682238Y-67809533D01*
X9720943Y-67770829D01*
X9798352Y-67732124D01*
X9991876Y-67732124D01*
X10069286Y-67770829D01*
X10107990Y-67809533D01*
X10146695Y-67886943D01*
X10146695Y-68080467D01*
X10107990Y-68157876D01*
X10069286Y-68196581D01*
X200077486Y-24167695D02*
X199806553Y-23780648D01*
X199613029Y-24167695D02*
X199613029Y-23354895D01*
X199922667Y-23354895D01*
X200000076Y-23393600D01*
X200038781Y-23432305D01*
X200077486Y-23509714D01*
X200077486Y-23625829D01*
X200038781Y-23703238D01*
X200000076Y-23741943D01*
X199922667Y-23780648D01*
X199613029Y-23780648D01*
X200387124Y-23432305D02*
X200425829Y-23393600D01*
X200503238Y-23354895D01*
X200696762Y-23354895D01*
X200774172Y-23393600D01*
X200812876Y-23432305D01*
X200851581Y-23509714D01*
X200851581Y-23587124D01*
X200812876Y-23703238D01*
X200348419Y-24167695D01*
X200851581Y-24167695D01*
X201548267Y-23354895D02*
X201393448Y-23354895D01*
X201316038Y-23393600D01*
X201277333Y-23432305D01*
X201199924Y-23548419D01*
X201161219Y-23703238D01*
X201161219Y-24012876D01*
X201199924Y-24090286D01*
X201238629Y-24128990D01*
X201316038Y-24167695D01*
X201470857Y-24167695D01*
X201548267Y-24128990D01*
X201586971Y-24090286D01*
X201625676Y-24012876D01*
X201625676Y-23819352D01*
X201586971Y-23741943D01*
X201548267Y-23703238D01*
X201470857Y-23664533D01*
X201316038Y-23664533D01*
X201238629Y-23703238D01*
X201199924Y-23741943D01*
X201161219Y-23819352D01*
X227608795Y-31624814D02*
X227221748Y-31895747D01*
X227608795Y-32089271D02*
X226795995Y-32089271D01*
X226795995Y-31779633D01*
X226834700Y-31702224D01*
X226873405Y-31663519D01*
X226950814Y-31624814D01*
X227066929Y-31624814D01*
X227144338Y-31663519D01*
X227183043Y-31702224D01*
X227221748Y-31779633D01*
X227221748Y-32089271D01*
X226873405Y-31315176D02*
X226834700Y-31276471D01*
X226795995Y-31199062D01*
X226795995Y-31005538D01*
X226834700Y-30928128D01*
X226873405Y-30889424D01*
X226950814Y-30850719D01*
X227028224Y-30850719D01*
X227144338Y-30889424D01*
X227608795Y-31353881D01*
X227608795Y-30850719D01*
X226795995Y-30579786D02*
X226795995Y-30037919D01*
X227608795Y-30386262D01*
X227188486Y-40626695D02*
X226917553Y-40239648D01*
X226724029Y-40626695D02*
X226724029Y-39813895D01*
X227033667Y-39813895D01*
X227111076Y-39852600D01*
X227149781Y-39891305D01*
X227188486Y-39968714D01*
X227188486Y-40084829D01*
X227149781Y-40162238D01*
X227111076Y-40200943D01*
X227033667Y-40239648D01*
X226724029Y-40239648D01*
X227498124Y-39891305D02*
X227536829Y-39852600D01*
X227614238Y-39813895D01*
X227807762Y-39813895D01*
X227885172Y-39852600D01*
X227923876Y-39891305D01*
X227962581Y-39968714D01*
X227962581Y-40046124D01*
X227923876Y-40162238D01*
X227459419Y-40626695D01*
X227962581Y-40626695D01*
X228427038Y-40162238D02*
X228349629Y-40123533D01*
X228310924Y-40084829D01*
X228272219Y-40007419D01*
X228272219Y-39968714D01*
X228310924Y-39891305D01*
X228349629Y-39852600D01*
X228427038Y-39813895D01*
X228581857Y-39813895D01*
X228659267Y-39852600D01*
X228697971Y-39891305D01*
X228736676Y-39968714D01*
X228736676Y-40007419D01*
X228697971Y-40084829D01*
X228659267Y-40123533D01*
X228581857Y-40162238D01*
X228427038Y-40162238D01*
X228349629Y-40200943D01*
X228310924Y-40239648D01*
X228272219Y-40317057D01*
X228272219Y-40471876D01*
X228310924Y-40549286D01*
X228349629Y-40587990D01*
X228427038Y-40626695D01*
X228581857Y-40626695D01*
X228659267Y-40587990D01*
X228697971Y-40549286D01*
X228736676Y-40471876D01*
X228736676Y-40317057D01*
X228697971Y-40239648D01*
X228659267Y-40200943D01*
X228581857Y-40162238D01*
X221956086Y-37883495D02*
X221685153Y-37496448D01*
X221491629Y-37883495D02*
X221491629Y-37070695D01*
X221801267Y-37070695D01*
X221878676Y-37109400D01*
X221917381Y-37148105D01*
X221956086Y-37225514D01*
X221956086Y-37341629D01*
X221917381Y-37419038D01*
X221878676Y-37457743D01*
X221801267Y-37496448D01*
X221491629Y-37496448D01*
X222265724Y-37148105D02*
X222304429Y-37109400D01*
X222381838Y-37070695D01*
X222575362Y-37070695D01*
X222652772Y-37109400D01*
X222691476Y-37148105D01*
X222730181Y-37225514D01*
X222730181Y-37302924D01*
X222691476Y-37419038D01*
X222227019Y-37883495D01*
X222730181Y-37883495D01*
X223117229Y-37883495D02*
X223272048Y-37883495D01*
X223349457Y-37844790D01*
X223388162Y-37806086D01*
X223465571Y-37689971D01*
X223504276Y-37535152D01*
X223504276Y-37225514D01*
X223465571Y-37148105D01*
X223426867Y-37109400D01*
X223349457Y-37070695D01*
X223194638Y-37070695D01*
X223117229Y-37109400D01*
X223078524Y-37148105D01*
X223039819Y-37225514D01*
X223039819Y-37419038D01*
X223078524Y-37496448D01*
X223117229Y-37535152D01*
X223194638Y-37573857D01*
X223349457Y-37573857D01*
X223426867Y-37535152D01*
X223465571Y-37496448D01*
X223504276Y-37419038D01*
X219695486Y-27698095D02*
X219424553Y-27311048D01*
X219231029Y-27698095D02*
X219231029Y-26885295D01*
X219540667Y-26885295D01*
X219618076Y-26924000D01*
X219656781Y-26962705D01*
X219695486Y-27040114D01*
X219695486Y-27156229D01*
X219656781Y-27233638D01*
X219618076Y-27272343D01*
X219540667Y-27311048D01*
X219231029Y-27311048D01*
X219966419Y-26885295D02*
X220469581Y-26885295D01*
X220198648Y-27194933D01*
X220314762Y-27194933D01*
X220392172Y-27233638D01*
X220430876Y-27272343D01*
X220469581Y-27349752D01*
X220469581Y-27543276D01*
X220430876Y-27620686D01*
X220392172Y-27659390D01*
X220314762Y-27698095D01*
X220082534Y-27698095D01*
X220005124Y-27659390D01*
X219966419Y-27620686D01*
X220972743Y-26885295D02*
X221050152Y-26885295D01*
X221127562Y-26924000D01*
X221166267Y-26962705D01*
X221204971Y-27040114D01*
X221243676Y-27194933D01*
X221243676Y-27388457D01*
X221204971Y-27543276D01*
X221166267Y-27620686D01*
X221127562Y-27659390D01*
X221050152Y-27698095D01*
X220972743Y-27698095D01*
X220895333Y-27659390D01*
X220856629Y-27620686D01*
X220817924Y-27543276D01*
X220779219Y-27388457D01*
X220779219Y-27194933D01*
X220817924Y-27040114D01*
X220856629Y-26962705D01*
X220895333Y-26924000D01*
X220972743Y-26885295D01*
X224776695Y-41137114D02*
X224389648Y-41408047D01*
X224776695Y-41601571D02*
X223963895Y-41601571D01*
X223963895Y-41291933D01*
X224002600Y-41214524D01*
X224041305Y-41175819D01*
X224118714Y-41137114D01*
X224234829Y-41137114D01*
X224312238Y-41175819D01*
X224350943Y-41214524D01*
X224389648Y-41291933D01*
X224389648Y-41601571D01*
X223963895Y-40866181D02*
X223963895Y-40363019D01*
X224273533Y-40633952D01*
X224273533Y-40517838D01*
X224312238Y-40440428D01*
X224350943Y-40401724D01*
X224428352Y-40363019D01*
X224621876Y-40363019D01*
X224699286Y-40401724D01*
X224737990Y-40440428D01*
X224776695Y-40517838D01*
X224776695Y-40750066D01*
X224737990Y-40827476D01*
X224699286Y-40866181D01*
X224776695Y-39588924D02*
X224776695Y-40053381D01*
X224776695Y-39821152D02*
X223963895Y-39821152D01*
X224080010Y-39898562D01*
X224157419Y-39975971D01*
X224196124Y-40053381D01*
X203567695Y-36463514D02*
X203180648Y-36734447D01*
X203567695Y-36927971D02*
X202754895Y-36927971D01*
X202754895Y-36618333D01*
X202793600Y-36540924D01*
X202832305Y-36502219D01*
X202909714Y-36463514D01*
X203025829Y-36463514D01*
X203103238Y-36502219D01*
X203141943Y-36540924D01*
X203180648Y-36618333D01*
X203180648Y-36927971D01*
X202754895Y-36192581D02*
X202754895Y-35689419D01*
X203064533Y-35960352D01*
X203064533Y-35844238D01*
X203103238Y-35766828D01*
X203141943Y-35728124D01*
X203219352Y-35689419D01*
X203412876Y-35689419D01*
X203490286Y-35728124D01*
X203528990Y-35766828D01*
X203567695Y-35844238D01*
X203567695Y-36076466D01*
X203528990Y-36153876D01*
X203490286Y-36192581D01*
X202832305Y-35379781D02*
X202793600Y-35341076D01*
X202754895Y-35263667D01*
X202754895Y-35070143D01*
X202793600Y-34992733D01*
X202832305Y-34954029D01*
X202909714Y-34915324D01*
X202987124Y-34915324D01*
X203103238Y-34954029D01*
X203567695Y-35418486D01*
X203567695Y-34915324D01*
X203567695Y-39765514D02*
X203180648Y-40036447D01*
X203567695Y-40229971D02*
X202754895Y-40229971D01*
X202754895Y-39920333D01*
X202793600Y-39842924D01*
X202832305Y-39804219D01*
X202909714Y-39765514D01*
X203025829Y-39765514D01*
X203103238Y-39804219D01*
X203141943Y-39842924D01*
X203180648Y-39920333D01*
X203180648Y-40229971D01*
X202754895Y-39494581D02*
X202754895Y-38991419D01*
X203064533Y-39262352D01*
X203064533Y-39146238D01*
X203103238Y-39068828D01*
X203141943Y-39030124D01*
X203219352Y-38991419D01*
X203412876Y-38991419D01*
X203490286Y-39030124D01*
X203528990Y-39068828D01*
X203567695Y-39146238D01*
X203567695Y-39378466D01*
X203528990Y-39455876D01*
X203490286Y-39494581D01*
X202754895Y-38720486D02*
X202754895Y-38217324D01*
X203064533Y-38488257D01*
X203064533Y-38372143D01*
X203103238Y-38294733D01*
X203141943Y-38256029D01*
X203219352Y-38217324D01*
X203412876Y-38217324D01*
X203490286Y-38256029D01*
X203528990Y-38294733D01*
X203567695Y-38372143D01*
X203567695Y-38604371D01*
X203528990Y-38681781D01*
X203490286Y-38720486D01*
X224186695Y-3840514D02*
X223799648Y-4111447D01*
X224186695Y-4304971D02*
X223373895Y-4304971D01*
X223373895Y-3995333D01*
X223412600Y-3917924D01*
X223451305Y-3879219D01*
X223528714Y-3840514D01*
X223644829Y-3840514D01*
X223722238Y-3879219D01*
X223760943Y-3917924D01*
X223799648Y-3995333D01*
X223799648Y-4304971D01*
X223373895Y-3569581D02*
X223373895Y-3066419D01*
X223683533Y-3337352D01*
X223683533Y-3221238D01*
X223722238Y-3143828D01*
X223760943Y-3105124D01*
X223838352Y-3066419D01*
X224031876Y-3066419D01*
X224109286Y-3105124D01*
X224147990Y-3143828D01*
X224186695Y-3221238D01*
X224186695Y-3453466D01*
X224147990Y-3530876D01*
X224109286Y-3569581D01*
X223644829Y-2369733D02*
X224186695Y-2369733D01*
X223335190Y-2563257D02*
X223915762Y-2756781D01*
X223915762Y-2253619D01*
X221986695Y-1990514D02*
X221599648Y-2261447D01*
X221986695Y-2454971D02*
X221173895Y-2454971D01*
X221173895Y-2145333D01*
X221212600Y-2067924D01*
X221251305Y-2029219D01*
X221328714Y-1990514D01*
X221444829Y-1990514D01*
X221522238Y-2029219D01*
X221560943Y-2067924D01*
X221599648Y-2145333D01*
X221599648Y-2454971D01*
X221173895Y-1719581D02*
X221173895Y-1216419D01*
X221483533Y-1487352D01*
X221483533Y-1371238D01*
X221522238Y-1293828D01*
X221560943Y-1255124D01*
X221638352Y-1216419D01*
X221831876Y-1216419D01*
X221909286Y-1255124D01*
X221947990Y-1293828D01*
X221986695Y-1371238D01*
X221986695Y-1603466D01*
X221947990Y-1680876D01*
X221909286Y-1719581D01*
X221173895Y-481029D02*
X221173895Y-868076D01*
X221560943Y-906781D01*
X221522238Y-868076D01*
X221483533Y-790667D01*
X221483533Y-597143D01*
X221522238Y-519733D01*
X221560943Y-481029D01*
X221638352Y-442324D01*
X221831876Y-442324D01*
X221909286Y-481029D01*
X221947990Y-519733D01*
X221986695Y-597143D01*
X221986695Y-790667D01*
X221947990Y-868076D01*
X221909286Y-906781D01*
X184999086Y-13816995D02*
X184728153Y-13429948D01*
X184534629Y-13816995D02*
X184534629Y-13004195D01*
X184844267Y-13004195D01*
X184921676Y-13042900D01*
X184960381Y-13081605D01*
X184999086Y-13159014D01*
X184999086Y-13275129D01*
X184960381Y-13352538D01*
X184921676Y-13391243D01*
X184844267Y-13429948D01*
X184534629Y-13429948D01*
X185270019Y-13004195D02*
X185773181Y-13004195D01*
X185502248Y-13313833D01*
X185618362Y-13313833D01*
X185695772Y-13352538D01*
X185734476Y-13391243D01*
X185773181Y-13468652D01*
X185773181Y-13662176D01*
X185734476Y-13739586D01*
X185695772Y-13778290D01*
X185618362Y-13816995D01*
X185386134Y-13816995D01*
X185308724Y-13778290D01*
X185270019Y-13739586D01*
X186469867Y-13004195D02*
X186315048Y-13004195D01*
X186237638Y-13042900D01*
X186198933Y-13081605D01*
X186121524Y-13197719D01*
X186082819Y-13352538D01*
X186082819Y-13662176D01*
X186121524Y-13739586D01*
X186160229Y-13778290D01*
X186237638Y-13816995D01*
X186392457Y-13816995D01*
X186469867Y-13778290D01*
X186508571Y-13739586D01*
X186547276Y-13662176D01*
X186547276Y-13468652D01*
X186508571Y-13391243D01*
X186469867Y-13352538D01*
X186392457Y-13313833D01*
X186237638Y-13313833D01*
X186160229Y-13352538D01*
X186121524Y-13391243D01*
X186082819Y-13468652D01*
X189723486Y-5066695D02*
X189452553Y-4679648D01*
X189259029Y-5066695D02*
X189259029Y-4253895D01*
X189568667Y-4253895D01*
X189646076Y-4292600D01*
X189684781Y-4331305D01*
X189723486Y-4408714D01*
X189723486Y-4524829D01*
X189684781Y-4602238D01*
X189646076Y-4640943D01*
X189568667Y-4679648D01*
X189259029Y-4679648D01*
X189994419Y-4253895D02*
X190497581Y-4253895D01*
X190226648Y-4563533D01*
X190342762Y-4563533D01*
X190420172Y-4602238D01*
X190458876Y-4640943D01*
X190497581Y-4718352D01*
X190497581Y-4911876D01*
X190458876Y-4989286D01*
X190420172Y-5027990D01*
X190342762Y-5066695D01*
X190110534Y-5066695D01*
X190033124Y-5027990D01*
X189994419Y-4989286D01*
X190768514Y-4253895D02*
X191310381Y-4253895D01*
X190962038Y-5066695D01*
X221194086Y-15226695D02*
X220923153Y-14839648D01*
X220729629Y-15226695D02*
X220729629Y-14413895D01*
X221039267Y-14413895D01*
X221116676Y-14452600D01*
X221155381Y-14491305D01*
X221194086Y-14568714D01*
X221194086Y-14684829D01*
X221155381Y-14762238D01*
X221116676Y-14800943D01*
X221039267Y-14839648D01*
X220729629Y-14839648D01*
X221465019Y-14413895D02*
X221968181Y-14413895D01*
X221697248Y-14723533D01*
X221813362Y-14723533D01*
X221890772Y-14762238D01*
X221929476Y-14800943D01*
X221968181Y-14878352D01*
X221968181Y-15071876D01*
X221929476Y-15149286D01*
X221890772Y-15187990D01*
X221813362Y-15226695D01*
X221581134Y-15226695D01*
X221503724Y-15187990D01*
X221465019Y-15149286D01*
X222432638Y-14762238D02*
X222355229Y-14723533D01*
X222316524Y-14684829D01*
X222277819Y-14607419D01*
X222277819Y-14568714D01*
X222316524Y-14491305D01*
X222355229Y-14452600D01*
X222432638Y-14413895D01*
X222587457Y-14413895D01*
X222664867Y-14452600D01*
X222703571Y-14491305D01*
X222742276Y-14568714D01*
X222742276Y-14607419D01*
X222703571Y-14684829D01*
X222664867Y-14723533D01*
X222587457Y-14762238D01*
X222432638Y-14762238D01*
X222355229Y-14800943D01*
X222316524Y-14839648D01*
X222277819Y-14917057D01*
X222277819Y-15071876D01*
X222316524Y-15149286D01*
X222355229Y-15187990D01*
X222432638Y-15226695D01*
X222587457Y-15226695D01*
X222664867Y-15187990D01*
X222703571Y-15149286D01*
X222742276Y-15071876D01*
X222742276Y-14917057D01*
X222703571Y-14839648D01*
X222664867Y-14800943D01*
X222587457Y-14762238D01*
X212444235Y-67901594D02*
X212057188Y-68172527D01*
X212444235Y-68366051D02*
X211631435Y-68366051D01*
X211631435Y-68056413D01*
X211670140Y-67979004D01*
X211708845Y-67940299D01*
X211786254Y-67901594D01*
X211902369Y-67901594D01*
X211979778Y-67940299D01*
X212018483Y-67979004D01*
X212057188Y-68056413D01*
X212057188Y-68366051D01*
X211631435Y-67630661D02*
X211631435Y-67127499D01*
X211941073Y-67398432D01*
X211941073Y-67282318D01*
X211979778Y-67204908D01*
X212018483Y-67166204D01*
X212095892Y-67127499D01*
X212289416Y-67127499D01*
X212366826Y-67166204D01*
X212405530Y-67204908D01*
X212444235Y-67282318D01*
X212444235Y-67514546D01*
X212405530Y-67591956D01*
X212366826Y-67630661D01*
X212444235Y-66740451D02*
X212444235Y-66585632D01*
X212405530Y-66508223D01*
X212366826Y-66469518D01*
X212250711Y-66392109D01*
X212095892Y-66353404D01*
X211786254Y-66353404D01*
X211708845Y-66392109D01*
X211670140Y-66430813D01*
X211631435Y-66508223D01*
X211631435Y-66663042D01*
X211670140Y-66740451D01*
X211708845Y-66779156D01*
X211786254Y-66817861D01*
X211979778Y-66817861D01*
X212057188Y-66779156D01*
X212095892Y-66740451D01*
X212134597Y-66663042D01*
X212134597Y-66508223D01*
X212095892Y-66430813D01*
X212057188Y-66392109D01*
X211979778Y-66353404D01*
X208659186Y-58698795D02*
X208388253Y-58311748D01*
X208194729Y-58698795D02*
X208194729Y-57885995D01*
X208504367Y-57885995D01*
X208581776Y-57924700D01*
X208620481Y-57963405D01*
X208659186Y-58040814D01*
X208659186Y-58156929D01*
X208620481Y-58234338D01*
X208581776Y-58273043D01*
X208504367Y-58311748D01*
X208194729Y-58311748D01*
X209355872Y-58156929D02*
X209355872Y-58698795D01*
X209162348Y-57847290D02*
X208968824Y-58427862D01*
X209471986Y-58427862D01*
X209936443Y-57885995D02*
X210013852Y-57885995D01*
X210091262Y-57924700D01*
X210129967Y-57963405D01*
X210168671Y-58040814D01*
X210207376Y-58195633D01*
X210207376Y-58389157D01*
X210168671Y-58543976D01*
X210129967Y-58621386D01*
X210091262Y-58660090D01*
X210013852Y-58698795D01*
X209936443Y-58698795D01*
X209859033Y-58660090D01*
X209820329Y-58621386D01*
X209781624Y-58543976D01*
X209742919Y-58389157D01*
X209742919Y-58195633D01*
X209781624Y-58040814D01*
X209820329Y-57963405D01*
X209859033Y-57924700D01*
X209936443Y-57885995D01*
X206195386Y-58647995D02*
X205924453Y-58260948D01*
X205730929Y-58647995D02*
X205730929Y-57835195D01*
X206040567Y-57835195D01*
X206117976Y-57873900D01*
X206156681Y-57912605D01*
X206195386Y-57990014D01*
X206195386Y-58106129D01*
X206156681Y-58183538D01*
X206117976Y-58222243D01*
X206040567Y-58260948D01*
X205730929Y-58260948D01*
X206892072Y-58106129D02*
X206892072Y-58647995D01*
X206698548Y-57796490D02*
X206505024Y-58377062D01*
X207008186Y-58377062D01*
X207743576Y-58647995D02*
X207279119Y-58647995D01*
X207511348Y-58647995D02*
X207511348Y-57835195D01*
X207433938Y-57951310D01*
X207356529Y-58028719D01*
X207279119Y-58067424D01*
X227392896Y-9765695D02*
X227121963Y-9378648D01*
X226928439Y-9765695D02*
X226928439Y-8952895D01*
X227238077Y-8952895D01*
X227315486Y-8991600D01*
X227354191Y-9030305D01*
X227392896Y-9107714D01*
X227392896Y-9223829D01*
X227354191Y-9301238D01*
X227315486Y-9339943D01*
X227238077Y-9378648D01*
X226928439Y-9378648D01*
X227625125Y-8952895D02*
X228089582Y-8952895D01*
X227857353Y-9765695D02*
X227857353Y-8952895D01*
X228786267Y-9765695D02*
X228321810Y-9765695D01*
X228554039Y-9765695D02*
X228554039Y-8952895D01*
X228476629Y-9069010D01*
X228399220Y-9146419D01*
X228321810Y-9185124D01*
X190109325Y-8571895D02*
X190573782Y-8571895D01*
X190341553Y-9384695D02*
X190341553Y-8571895D01*
X190844715Y-9384695D02*
X190844715Y-8571895D01*
X191154353Y-8571895D01*
X191231762Y-8610600D01*
X191270467Y-8649305D01*
X191309172Y-8726714D01*
X191309172Y-8842829D01*
X191270467Y-8920238D01*
X191231762Y-8958943D01*
X191154353Y-8997648D01*
X190844715Y-8997648D01*
X192083267Y-9384695D02*
X191618810Y-9384695D01*
X191851039Y-9384695D02*
X191851039Y-8571895D01*
X191773629Y-8688010D01*
X191696220Y-8765419D01*
X191618810Y-8804124D01*
X209257295Y-10118875D02*
X209257295Y-9654418D01*
X210070095Y-9886647D02*
X209257295Y-9886647D01*
X210070095Y-9383485D02*
X209257295Y-9383485D01*
X209257295Y-9073847D01*
X209296000Y-8996438D01*
X209334705Y-8957733D01*
X209412114Y-8919028D01*
X209528229Y-8919028D01*
X209605638Y-8957733D01*
X209644343Y-8996438D01*
X209683048Y-9073847D01*
X209683048Y-9383485D01*
X209334705Y-8609390D02*
X209296000Y-8570685D01*
X209257295Y-8493276D01*
X209257295Y-8299752D01*
X209296000Y-8222342D01*
X209334705Y-8183638D01*
X209412114Y-8144933D01*
X209489524Y-8144933D01*
X209605638Y-8183638D01*
X210070095Y-8648095D01*
X210070095Y-8144933D01*
X244363725Y-54755695D02*
X244828182Y-54755695D01*
X244595953Y-55568495D02*
X244595953Y-54755695D01*
X245099115Y-55568495D02*
X245099115Y-54755695D01*
X245408753Y-54755695D01*
X245486162Y-54794400D01*
X245524867Y-54833105D01*
X245563572Y-54910514D01*
X245563572Y-55026629D01*
X245524867Y-55104038D01*
X245486162Y-55142743D01*
X245408753Y-55181448D01*
X245099115Y-55181448D01*
X245834505Y-54755695D02*
X246337667Y-54755695D01*
X246066734Y-55065333D01*
X246182848Y-55065333D01*
X246260258Y-55104038D01*
X246298962Y-55142743D01*
X246337667Y-55220152D01*
X246337667Y-55413676D01*
X246298962Y-55491086D01*
X246260258Y-55529790D01*
X246182848Y-55568495D01*
X245950620Y-55568495D01*
X245873210Y-55529790D01*
X245834505Y-55491086D01*
X198681824Y-50253295D02*
X198681824Y-50911276D01*
X198720529Y-50988686D01*
X198759233Y-51027390D01*
X198836643Y-51066095D01*
X198991462Y-51066095D01*
X199068871Y-51027390D01*
X199107576Y-50988686D01*
X199146281Y-50911276D01*
X199146281Y-50253295D01*
X199959081Y-51066095D02*
X199494624Y-51066095D01*
X199726853Y-51066095D02*
X199726853Y-50253295D01*
X199649443Y-50369410D01*
X199572034Y-50446819D01*
X199494624Y-50485524D01*
X211013524Y-23684895D02*
X211013524Y-24342876D01*
X211052229Y-24420286D01*
X211090933Y-24458990D01*
X211168343Y-24497695D01*
X211323162Y-24497695D01*
X211400571Y-24458990D01*
X211439276Y-24420286D01*
X211477981Y-24342876D01*
X211477981Y-23684895D01*
X211826324Y-23762305D02*
X211865029Y-23723600D01*
X211942438Y-23684895D01*
X212135962Y-23684895D01*
X212213372Y-23723600D01*
X212252076Y-23762305D01*
X212290781Y-23839714D01*
X212290781Y-23917124D01*
X212252076Y-24033238D01*
X211787619Y-24497695D01*
X212290781Y-24497695D01*
X195138524Y-23684895D02*
X195138524Y-24342876D01*
X195177229Y-24420286D01*
X195215933Y-24458990D01*
X195293343Y-24497695D01*
X195448162Y-24497695D01*
X195525571Y-24458990D01*
X195564276Y-24420286D01*
X195602981Y-24342876D01*
X195602981Y-23684895D01*
X195912619Y-23684895D02*
X196415781Y-23684895D01*
X196144848Y-23994533D01*
X196260962Y-23994533D01*
X196338372Y-24033238D01*
X196377076Y-24071943D01*
X196415781Y-24149352D01*
X196415781Y-24342876D01*
X196377076Y-24420286D01*
X196338372Y-24458990D01*
X196260962Y-24497695D01*
X196028734Y-24497695D01*
X195951324Y-24458990D01*
X195912619Y-24420286D01*
X221859324Y-29704695D02*
X221859324Y-30362676D01*
X221898029Y-30440086D01*
X221936733Y-30478790D01*
X222014143Y-30517495D01*
X222168962Y-30517495D01*
X222246371Y-30478790D01*
X222285076Y-30440086D01*
X222323781Y-30362676D01*
X222323781Y-29704695D01*
X223059172Y-29975629D02*
X223059172Y-30517495D01*
X222865648Y-29665990D02*
X222672124Y-30246562D01*
X223175286Y-30246562D01*
X178196724Y-4126895D02*
X178196724Y-4784876D01*
X178235429Y-4862286D01*
X178274133Y-4900990D01*
X178351543Y-4939695D01*
X178506362Y-4939695D01*
X178583771Y-4900990D01*
X178622476Y-4862286D01*
X178661181Y-4784876D01*
X178661181Y-4126895D01*
X179435276Y-4126895D02*
X179048229Y-4126895D01*
X179009524Y-4513943D01*
X179048229Y-4475238D01*
X179125638Y-4436533D01*
X179319162Y-4436533D01*
X179396572Y-4475238D01*
X179435276Y-4513943D01*
X179473981Y-4591352D01*
X179473981Y-4784876D01*
X179435276Y-4862286D01*
X179396572Y-4900990D01*
X179319162Y-4939695D01*
X179125638Y-4939695D01*
X179048229Y-4900990D01*
X179009524Y-4862286D01*
X168925724Y-4126895D02*
X168925724Y-4784876D01*
X168964429Y-4862286D01*
X169003133Y-4900990D01*
X169080543Y-4939695D01*
X169235362Y-4939695D01*
X169312771Y-4900990D01*
X169351476Y-4862286D01*
X169390181Y-4784876D01*
X169390181Y-4126895D01*
X170125572Y-4126895D02*
X169970753Y-4126895D01*
X169893343Y-4165600D01*
X169854638Y-4204305D01*
X169777229Y-4320419D01*
X169738524Y-4475238D01*
X169738524Y-4784876D01*
X169777229Y-4862286D01*
X169815934Y-4900990D01*
X169893343Y-4939695D01*
X170048162Y-4939695D01*
X170125572Y-4900990D01*
X170164276Y-4862286D01*
X170202981Y-4784876D01*
X170202981Y-4591352D01*
X170164276Y-4513943D01*
X170125572Y-4475238D01*
X170048162Y-4436533D01*
X169893343Y-4436533D01*
X169815934Y-4475238D01*
X169777229Y-4513943D01*
X169738524Y-4591352D01*
X198236719Y-28447395D02*
X198778586Y-29260195D01*
X198778586Y-28447395D02*
X198236719Y-29260195D01*
X199513976Y-29260195D02*
X199049519Y-29260195D01*
X199281748Y-29260195D02*
X199281748Y-28447395D01*
X199204338Y-28563510D01*
X199126929Y-28640919D01*
X199049519Y-28679624D01*
X212282435Y-30559223D02*
X211469635Y-30559223D01*
X211469635Y-30249585D01*
X211508340Y-30172176D01*
X211547045Y-30133471D01*
X211624454Y-30094766D01*
X211740569Y-30094766D01*
X211817978Y-30133471D01*
X211856683Y-30172176D01*
X211895388Y-30249585D01*
X211895388Y-30559223D01*
X212282435Y-29320671D02*
X212282435Y-29785128D01*
X212282435Y-29552899D02*
X211469635Y-29552899D01*
X211585750Y-29630309D01*
X211663159Y-29707718D01*
X211701864Y-29785128D01*
X210287619Y-35910883D02*
X209803810Y-36249549D01*
X210287619Y-36491454D02*
X209271619Y-36491454D01*
X209271619Y-36104407D01*
X209320000Y-36007645D01*
X209368381Y-35959264D01*
X209465143Y-35910883D01*
X209610286Y-35910883D01*
X209707048Y-35959264D01*
X209755429Y-36007645D01*
X209803810Y-36104407D01*
X209803810Y-36491454D01*
X209610286Y-35040026D02*
X210287619Y-35040026D01*
X209223238Y-35281930D02*
X209948952Y-35523835D01*
X209948952Y-34894883D01*
X209368381Y-34556216D02*
X209320000Y-34507835D01*
X209271619Y-34411073D01*
X209271619Y-34169169D01*
X209320000Y-34072407D01*
X209368381Y-34024026D01*
X209465143Y-33975645D01*
X209561905Y-33975645D01*
X209707048Y-34024026D01*
X210287619Y-34604597D01*
X210287619Y-33975645D01*
X216351757Y-41993699D02*
X216013091Y-41509890D01*
X215771186Y-41993699D02*
X215771186Y-40977699D01*
X216158233Y-40977699D01*
X216254995Y-41026080D01*
X216303376Y-41074461D01*
X216351757Y-41171223D01*
X216351757Y-41316366D01*
X216303376Y-41413128D01*
X216254995Y-41461509D01*
X216158233Y-41509890D01*
X215771186Y-41509890D01*
X217222614Y-41316366D02*
X217222614Y-41993699D01*
X216980710Y-40929318D02*
X216738805Y-41655032D01*
X217367757Y-41655032D01*
X217658043Y-40977699D02*
X218286995Y-40977699D01*
X217948329Y-41364747D01*
X218093471Y-41364747D01*
X218190233Y-41413128D01*
X218238614Y-41461509D01*
X218286995Y-41558270D01*
X218286995Y-41800175D01*
X218238614Y-41896937D01*
X218190233Y-41945318D01*
X218093471Y-41993699D01*
X217803186Y-41993699D01*
X217706424Y-41945318D01*
X217658043Y-41896937D01*
M02*
