G04 #@! TF.FileFunction,Soldermask,Top*
%FSLAX46Y46*%
G04 Gerber Fmt 4.6, Leading zero omitted, Abs format (unit mm)*
G04 Created by KiCad (PCBNEW (2014-jul-16 BZR unknown)-product) date Seg 08 Dez 2014 18:41:33 BRST*
%MOMM*%
G01*
G04 APERTURE LIST*
%ADD10C,0.152400*%
%ADD11C,1.600000*%
%ADD12R,1.600000X1.600000*%
%ADD13R,1.143000X0.635000*%
%ADD14R,0.635000X1.143000*%
%ADD15C,4.500000*%
%ADD16R,1.500000X2.600000*%
%ADD17R,0.850900X1.016000*%
%ADD18R,0.685800X0.609600*%
%ADD19R,1.524000X1.524000*%
%ADD20C,1.524000*%
%ADD21C,1.320800*%
%ADD22C,3.251200*%
%ADD23C,1.500000*%
%ADD24R,1.500000X1.500000*%
%ADD25R,1.000760X0.800100*%
%ADD26R,0.889000X1.397000*%
%ADD27R,1.397000X0.889000*%
%ADD28R,5.400000X2.000000*%
%ADD29R,1.700000X1.700000*%
%ADD30R,0.269240X1.000760*%
%ADD31R,1.000760X0.269240*%
%ADD32R,6.197600X5.791200*%
%ADD33R,2.997200X1.600200*%
%ADD34R,1.399540X0.599440*%
%ADD35R,0.419100X1.470660*%
%ADD36R,5.588000X2.108200*%
G04 APERTURE END LIST*
D10*
D11*
X227838000Y-23352000D03*
D12*
X227838000Y-21352000D03*
D13*
X231521000Y-21590000D03*
X231521000Y-23114000D03*
D11*
X218236800Y-9287000D03*
D12*
X218236800Y-11287000D03*
D13*
X214426800Y-9779000D03*
X214426800Y-8255000D03*
D14*
X244309900Y-33540700D03*
X245833900Y-33540700D03*
D11*
X195707000Y-9160000D03*
D12*
X195707000Y-11160000D03*
D13*
X199644000Y-10922000D03*
X199644000Y-9398000D03*
X225158300Y-30010100D03*
X225158300Y-28486100D03*
D14*
X200596500Y-37604700D03*
X202120500Y-37604700D03*
D13*
X207873600Y-30556200D03*
X207873600Y-32080200D03*
X189852300Y-30556200D03*
X189852300Y-32080200D03*
D14*
X197726300Y-37617400D03*
X196202300Y-37617400D03*
X205016100Y-44475400D03*
X206540100Y-44475400D03*
D13*
X174117000Y-7493000D03*
X174117000Y-5969000D03*
X164846000Y-7493000D03*
X164846000Y-5969000D03*
D11*
X231505000Y-2540000D03*
D12*
X229505000Y-2540000D03*
D14*
X234188000Y-1016000D03*
X235712000Y-1016000D03*
D15*
X246390800Y-2523800D03*
X246390800Y-10023800D03*
X241390800Y-2523800D03*
X241390800Y-10023800D03*
X246390800Y-64131500D03*
X246390800Y-71631500D03*
X241390800Y-64131500D03*
X241390800Y-71631500D03*
D16*
X236311000Y-10922000D03*
X231811000Y-10922000D03*
D17*
X230670100Y-35039300D03*
X230670100Y-38595300D03*
X230670100Y-31991300D03*
X230670100Y-28435300D03*
D18*
X228447600Y-35191700D03*
X228447600Y-37426900D03*
D19*
X230268780Y-70967600D03*
D20*
X232808780Y-70967600D03*
D19*
X154068780Y-70967600D03*
D20*
X156608780Y-70967600D03*
D19*
X77868780Y-70967600D03*
D20*
X80408780Y-70967600D03*
D19*
X1668780Y-70967600D03*
D20*
X4208780Y-70967600D03*
D21*
X237528100Y-15989300D03*
X237528100Y-18275300D03*
X237528100Y-27419300D03*
X237528100Y-29705300D03*
X242354100Y-26403300D03*
X242354100Y-24371300D03*
X242354100Y-22339300D03*
X242354100Y-20307300D03*
X244132100Y-23355300D03*
X244132100Y-21323300D03*
X244132100Y-25387300D03*
X244132100Y-19291300D03*
D22*
X246672100Y-16497300D03*
X246672100Y-29197300D03*
D21*
X237528100Y-37325300D03*
X237528100Y-39611300D03*
X237528100Y-48755300D03*
X237528100Y-51041300D03*
X242354100Y-47739300D03*
X242354100Y-45707300D03*
X242354100Y-43675300D03*
X242354100Y-41643300D03*
X244132100Y-44691300D03*
X244132100Y-42659300D03*
X244132100Y-46723300D03*
X244132100Y-40627300D03*
D22*
X246672100Y-37833300D03*
X246672100Y-50533300D03*
D23*
X196480000Y-6028000D03*
X193940000Y-6028000D03*
X206640000Y-6028000D03*
X204100000Y-6028000D03*
X201560000Y-6028000D03*
X214260000Y-6028000D03*
X211720000Y-6028000D03*
X209180000Y-6028000D03*
X224420000Y-6028000D03*
X221880000Y-6028000D03*
X219340000Y-6028000D03*
D24*
X232040000Y-6028000D03*
D23*
X229500000Y-6028000D03*
X199020000Y-6028000D03*
X226960000Y-6028000D03*
X216800000Y-6028000D03*
D19*
X216623900Y-27101800D03*
D20*
X216623900Y-29641800D03*
X216623900Y-32181800D03*
X216623900Y-34721800D03*
D23*
X216623900Y-37261800D03*
D19*
X210502500Y-66535300D03*
D20*
X210502500Y-69075300D03*
X207962500Y-66535300D03*
X207962500Y-69075300D03*
X205422500Y-66535300D03*
X205422500Y-69075300D03*
X202882500Y-66535300D03*
X202882500Y-69075300D03*
X200342500Y-66535300D03*
X200342500Y-69075300D03*
D25*
X235218820Y-37268000D03*
X233019180Y-38220500D03*
X233019180Y-36315500D03*
X235018820Y-48068000D03*
X232819180Y-49020500D03*
X232819180Y-47115500D03*
X187700920Y-8242300D03*
X185501280Y-9194800D03*
X185501280Y-7289800D03*
D14*
X229666800Y-42062400D03*
X231190800Y-42062400D03*
X229657000Y-49068000D03*
X231181000Y-49068000D03*
D26*
X233066500Y-40368000D03*
X234971500Y-40368000D03*
X232966500Y-51068000D03*
X234871500Y-51068000D03*
X233066500Y-18268000D03*
X234971500Y-18268000D03*
X233066500Y-29668000D03*
X234971500Y-29668000D03*
D13*
X235348780Y-70205600D03*
X235348780Y-71729600D03*
X159174180Y-70205600D03*
X159174180Y-71729600D03*
X82974180Y-70205600D03*
X82974180Y-71729600D03*
X6774180Y-70205600D03*
X6774180Y-71729600D03*
D26*
X241084100Y-34531300D03*
X239179100Y-34531300D03*
X237274100Y-32499300D03*
X235369100Y-32499300D03*
X237274100Y-34531300D03*
X235369100Y-34531300D03*
D14*
X235686600Y-64643000D03*
X237210600Y-64643000D03*
X235686600Y-66548000D03*
X237210600Y-66548000D03*
X235686600Y-68453000D03*
X237210600Y-68453000D03*
X161010600Y-64643000D03*
X159486600Y-64643000D03*
X161010600Y-66548000D03*
X159486600Y-66548000D03*
X161010600Y-68453000D03*
X159486600Y-68453000D03*
X84810600Y-64643000D03*
X83286600Y-64643000D03*
X84810600Y-66548000D03*
X83286600Y-66548000D03*
X84810600Y-68453000D03*
X83286600Y-68453000D03*
X8636000Y-64643000D03*
X7112000Y-64643000D03*
X8636000Y-66548000D03*
X7112000Y-66548000D03*
X8636000Y-68453000D03*
X7112000Y-68453000D03*
D26*
X199517000Y-25019000D03*
X201422000Y-25019000D03*
D13*
X228447600Y-30340300D03*
X228447600Y-31864300D03*
D14*
X228447600Y-38849300D03*
X226923600Y-38849300D03*
X223240600Y-38849300D03*
X221716600Y-38849300D03*
D13*
X219811600Y-28486100D03*
X219811600Y-30010100D03*
D14*
X223240600Y-40690800D03*
X221716600Y-40690800D03*
X202107800Y-35953700D03*
X200583800Y-35953700D03*
X202120500Y-39255700D03*
X200596500Y-39255700D03*
D26*
X224866500Y-3318000D03*
X226771500Y-3318000D03*
X222966500Y-1418000D03*
X224871500Y-1418000D03*
D13*
X185521600Y-12306300D03*
X185521600Y-10782300D03*
D26*
X189420500Y-6096000D03*
X191325500Y-6096000D03*
D27*
X221881700Y-16319500D03*
X221881700Y-18224500D03*
X213461600Y-68427600D03*
X213461600Y-66522600D03*
D13*
X209194400Y-59258200D03*
X209194400Y-60782200D03*
X206679800Y-59258200D03*
X206679800Y-60782200D03*
D28*
X227838000Y-10924000D03*
X227838000Y-17524000D03*
D29*
X191135000Y-11176000D03*
X211759800Y-9017000D03*
X245389400Y-57200800D03*
D30*
X196118480Y-49425860D03*
X201620120Y-41023540D03*
X201119740Y-41023540D03*
X200619360Y-41023540D03*
X200118980Y-41023540D03*
X199618600Y-41023540D03*
X199118220Y-41023540D03*
X198620380Y-41023540D03*
X198120000Y-41023540D03*
X197619620Y-41023540D03*
X197119240Y-41023540D03*
X196618860Y-41023540D03*
X196118480Y-41023540D03*
D31*
X194668140Y-42473880D03*
X194668140Y-42974260D03*
X194668140Y-43474640D03*
X194668140Y-43962320D03*
X194668140Y-44475400D03*
X194668140Y-44975780D03*
X194668140Y-45473620D03*
X194668140Y-45974000D03*
X194668140Y-46474380D03*
X194668140Y-46974760D03*
X194668140Y-47475140D03*
X194668140Y-47975520D03*
D30*
X196618860Y-49425860D03*
X197119240Y-49425860D03*
X197619620Y-49425860D03*
X198120000Y-49425860D03*
X198620380Y-49425860D03*
X199118220Y-49425860D03*
X199618600Y-49425860D03*
X200118980Y-49425860D03*
X200619360Y-49425860D03*
X201119740Y-49425860D03*
X201620120Y-49425860D03*
D31*
X203070460Y-47975520D03*
X203070460Y-47475140D03*
X203070460Y-46974760D03*
X203070460Y-46474380D03*
X203070460Y-45974000D03*
X203070460Y-45473620D03*
X203070460Y-44975780D03*
X203070460Y-44475400D03*
X203070460Y-43975020D03*
X203070460Y-43474640D03*
X203070460Y-42974260D03*
X203070460Y-42473880D03*
D32*
X211632800Y-19050000D03*
D33*
X218821000Y-21336000D03*
X218821000Y-16764000D03*
D32*
X195707000Y-19050000D03*
D33*
X202895200Y-21336000D03*
X202895200Y-16764000D03*
D34*
X225145600Y-31610300D03*
X219811600Y-31610300D03*
X225145600Y-32880300D03*
X225145600Y-34150300D03*
X225145600Y-35420300D03*
X219811600Y-32880300D03*
X219811600Y-34150300D03*
X219811600Y-35420300D03*
D35*
X178438280Y-11612880D03*
X179088520Y-11612880D03*
X179738760Y-11612880D03*
X180389000Y-11612880D03*
X176497720Y-6019800D03*
X176487560Y-11612880D03*
X177137800Y-11612880D03*
X177788040Y-11612880D03*
X181039240Y-6014720D03*
X180389000Y-6014720D03*
X179738760Y-6014720D03*
X179088520Y-6014720D03*
X178438280Y-6014720D03*
X177788040Y-6014720D03*
X181039240Y-11612880D03*
X177137800Y-6019800D03*
X175837320Y-11612880D03*
X181689480Y-11612880D03*
X181689480Y-6014720D03*
X175837320Y-6014720D03*
X169167280Y-11612880D03*
X169817520Y-11612880D03*
X170467760Y-11612880D03*
X171118000Y-11612880D03*
X167226720Y-6019800D03*
X167216560Y-11612880D03*
X167866800Y-11612880D03*
X168517040Y-11612880D03*
X171768240Y-6014720D03*
X171118000Y-6014720D03*
X170467760Y-6014720D03*
X169817520Y-6014720D03*
X169167280Y-6014720D03*
X168517040Y-6014720D03*
X171768240Y-11612880D03*
X167866800Y-6019800D03*
X166566320Y-11612880D03*
X172418480Y-11612880D03*
X172418480Y-6014720D03*
X166566320Y-6014720D03*
D36*
X194119500Y-32080200D03*
X203619100Y-32080200D03*
M02*
