M48
;DRILL file {kicad (2014-jul-16 BZR unknown)-product} date Sex 05 Dez 2014 16:19:28 BRST
;FORMAT={-:-/ absolute / inch / decimal}
FMAT,2
INCH,TZ
T1C0.012
T2C0.020
T3C0.025
T4C0.028
T5C0.035
T6C0.039
T7C0.040
T8C0.059
T9C0.128
T10C0.138
%
G90
G05
M72
T1
X5.2565Y-9.157
X5.2565Y-9.2
X5.2565Y-9.2435
X8.2555Y-9.1565
X8.2555Y-9.2
X8.2555Y-9.2435
X11.2555Y-9.1565
X11.2555Y-9.2
X11.2555Y-9.243
X11.9635Y-7.636
X11.9895Y-7.7015
X11.991Y-7.7555
X11.991Y-7.7885
X11.991Y-7.8215
X11.991Y-7.8555
X12.0665Y-7.6765
X12.115Y-7.6765
X12.1385Y-7.8555
X12.139Y-7.7555
X12.139Y-7.7885
X12.139Y-7.8215
X12.1395Y-7.7015
X12.141Y-7.636
X12.319Y-7.697
X12.319Y-7.7765
X12.49Y-8.4275
X12.5225Y-8.4605
X12.57Y-7.18
X12.57Y-7.33
X12.57Y-7.48
X12.5815Y-8.4275
X12.6145Y-8.4605
X12.62Y-7.23
X12.62Y-7.28
X12.62Y-7.33
X12.62Y-7.38
X12.62Y-7.43
X12.67Y-7.23
X12.67Y-7.28
X12.67Y-7.33
X12.67Y-7.38
X12.67Y-7.43
X12.72Y-7.18
X12.72Y-7.23
X12.72Y-7.28
X12.72Y-7.33
X12.72Y-7.38
X12.72Y-7.43
X12.72Y-7.48
X12.77Y-7.23
X12.77Y-7.28
X12.77Y-7.33
X12.77Y-7.38
X12.77Y-7.43
X12.82Y-7.23
X12.82Y-7.28
X12.82Y-7.33
X12.82Y-7.38
X12.82Y-7.43
X12.87Y-7.18
X12.87Y-7.33
X12.87Y-7.48
X12.91Y-8.2405
X12.91Y-8.313
X12.91Y-8.4255
X12.979Y-8.5285
X13.0365Y-8.2365
X13.197Y-7.18
X13.197Y-7.33
X13.197Y-7.48
X13.2275Y-8.64
X13.245Y-7.28
X13.245Y-7.38
X13.247Y-7.23
X13.247Y-7.33
X13.247Y-7.43
X13.275Y-8.6875
X13.297Y-7.23
X13.297Y-7.28
X13.297Y-7.33
X13.297Y-7.38
X13.297Y-7.43
X13.345Y-7.28
X13.345Y-7.38
X13.347Y-7.18
X13.347Y-7.23
X13.347Y-7.33
X13.347Y-7.43
X13.347Y-7.48
X13.347Y-8.2365
X13.397Y-7.23
X13.397Y-7.28
X13.397Y-7.33
X13.397Y-7.38
X13.397Y-7.43
X13.445Y-7.28
X13.445Y-7.38
X13.447Y-7.23
X13.447Y-7.33
X13.447Y-7.43
X13.497Y-7.18
X13.497Y-7.33
X13.497Y-7.48
X13.6155Y-7.9245
X14.2555Y-9.1565
X14.2555Y-9.2
X14.2555Y-9.243
X14.399Y-7.8595
X14.4965Y-7.8595
T2
X13.0025Y-7.4905
X13.003Y-7.3505
X13.019Y-7.9955
X13.1005Y-7.42
X13.1633Y-7.9955
X13.291Y-8.1235
X13.654Y-8.8375
X13.654Y-8.9875
X13.654Y-9.429
T3
X5.0695Y-9.291
X5.338Y-9.344
X8.0695Y-9.291
X8.338Y-9.344
X11.0695Y-9.2905
X11.338Y-9.344
X11.5055Y-6.913
X11.507Y-6.603
X11.803Y-6.983
X11.87Y-6.7595
X11.87Y-6.913
X12.168Y-6.9825
X12.265Y-6.867
X12.4895Y-7.738
X12.702Y-8.061
X12.7995Y-7.9955
X12.8745Y-8.2405
X12.9645Y-8.3905
X13.0105Y-8.0605
X13.1845Y-8.331
X13.199Y-7.738
X13.419Y-9.4365
X13.669Y-8.182
X13.669Y-8.333
X13.7795Y-6.6929
X13.8175Y-7.3485
X13.8175Y-7.6165
X13.8815Y-7.6645
X13.934Y-7.9745
X14.009Y-7.7345
X14.07Y-9.2905
X14.0965Y-7.6595
X14.0965Y-8.1395
X14.225Y-8.437
X14.2362Y-8.0118
X14.317Y-8.219
X14.335Y-6.62
X14.337Y-9.344
X14.398Y-7.8
X14.4415Y-8.2995
X14.7325Y-7.9005
T4
X12.72Y-6.9406
X12.72Y-7.0194
X13.607Y-6.9456
X13.607Y-7.0244
X13.985Y-7.4206
X13.985Y-7.4994
X14.0506Y-6.68
X14.1294Y-6.68
T5
X14.3665Y-7.2095
X14.3665Y-7.2995
X14.3665Y-7.6595
X14.3665Y-7.7495
X14.3665Y-8.0495
X14.3665Y-8.1395
X14.3665Y-8.4995
X14.3665Y-8.5895
X14.5565Y-7.3795
X14.5565Y-7.4595
X14.5565Y-7.5395
X14.5565Y-7.6195
X14.5565Y-8.2195
X14.5565Y-8.2995
X14.5565Y-8.3795
X14.5565Y-8.4595
X14.6265Y-7.3395
X14.6265Y-7.4195
X14.6265Y-7.4995
X14.6265Y-7.5795
X14.6265Y-8.1795
X14.6265Y-8.2595
X14.6265Y-8.3395
X14.6265Y-8.4195
T6
X12.6504Y-6.8173
X12.7504Y-6.8173
X12.8504Y-6.8173
X12.9504Y-6.8173
X13.0504Y-6.8173
X13.1504Y-6.8173
X13.2504Y-6.8173
X13.3504Y-6.8173
X13.4504Y-6.8173
X13.5435Y-8.047
X13.5504Y-6.8173
X13.6504Y-6.8173
X13.7504Y-6.8173
X13.8504Y-6.8173
X13.9504Y-6.8173
X14.0504Y-6.8173
X14.1504Y-6.8173
T7
X5.0807Y-9.374
X5.1807Y-9.374
X8.0807Y-9.374
X8.1807Y-9.374
X11.0807Y-9.374
X11.1807Y-9.374
X12.9025Y-9.1995
X12.9025Y-9.2995
X13.0025Y-9.1995
X13.0025Y-9.2995
X13.1025Y-9.1995
X13.1025Y-9.2995
X13.2025Y-9.1995
X13.2025Y-9.2995
X13.3025Y-9.1995
X13.3025Y-9.2995
X13.5435Y-7.647
X13.5435Y-7.747
X13.5435Y-7.847
X13.5435Y-7.947
X14.0807Y-9.374
X14.1807Y-9.374
T8
X12.54Y-7.02
X13.352Y-6.935
X14.676Y-8.832
T9
X14.7265Y-7.2295
X14.7265Y-7.7295
X14.7265Y-8.0695
X14.7265Y-8.5695
T10
X14.5186Y-6.6794
X14.5186Y-6.9746
X14.5186Y-9.1049
X14.5186Y-9.4001
X14.7154Y-6.6794
X14.7154Y-6.9746
X14.7154Y-9.1049
X14.7154Y-9.4001
T0
M30
