G04 #@! TF.FileFunction,Soldermask,Bot*
%FSLAX46Y46*%
G04 Gerber Fmt 4.6, Leading zero omitted, Abs format (unit mm)*
G04 Created by KiCad (PCBNEW (2014-jul-16 BZR unknown)-product) date Sex 12 Dez 2014 16:35:17 BRST*
%MOMM*%
G01*
G04 APERTURE LIST*
%ADD10C,0.152400*%
%ADD11C,1.600000*%
%ADD12R,1.600000X1.600000*%
%ADD13C,4.500000*%
%ADD14R,1.524000X1.524000*%
%ADD15C,1.524000*%
%ADD16C,1.320800*%
%ADD17C,3.251200*%
%ADD18C,1.500000*%
%ADD19R,1.500000X1.500000*%
%ADD20R,1.300000X0.700000*%
%ADD21R,1.700000X1.700000*%
G04 APERTURE END LIST*
D10*
D11*
X227838000Y-23352000D03*
D12*
X227838000Y-21352000D03*
D11*
X218236800Y-9287000D03*
D12*
X218236800Y-11287000D03*
D11*
X195707000Y-9160000D03*
D12*
X195707000Y-11160000D03*
D11*
X231505000Y-2540000D03*
D12*
X229505000Y-2540000D03*
D13*
X246390800Y-2523800D03*
X246390800Y-10023800D03*
X241390800Y-2523800D03*
X241390800Y-10023800D03*
X246390800Y-64131500D03*
X246390800Y-71631500D03*
X241390800Y-64131500D03*
X241390800Y-71631500D03*
D14*
X230268780Y-70967600D03*
D15*
X232808780Y-70967600D03*
D14*
X154068780Y-70967600D03*
D15*
X156608780Y-70967600D03*
D14*
X77868780Y-70967600D03*
D15*
X80408780Y-70967600D03*
D14*
X1668780Y-70967600D03*
D15*
X4208780Y-70967600D03*
D16*
X237528100Y-15989300D03*
X237528100Y-18275300D03*
X237528100Y-27419300D03*
X237528100Y-29705300D03*
X242354100Y-26403300D03*
X242354100Y-24371300D03*
X242354100Y-22339300D03*
X242354100Y-20307300D03*
X244132100Y-23355300D03*
X244132100Y-21323300D03*
X244132100Y-25387300D03*
X244132100Y-19291300D03*
D17*
X246672100Y-16497300D03*
X246672100Y-29197300D03*
D16*
X237528100Y-37325300D03*
X237528100Y-39611300D03*
X237528100Y-48755300D03*
X237528100Y-51041300D03*
X242354100Y-47739300D03*
X242354100Y-45707300D03*
X242354100Y-43675300D03*
X242354100Y-41643300D03*
X244132100Y-44691300D03*
X244132100Y-42659300D03*
X244132100Y-46723300D03*
X244132100Y-40627300D03*
D17*
X246672100Y-37833300D03*
X246672100Y-50533300D03*
D18*
X196480000Y-6028000D03*
X193940000Y-6028000D03*
X206640000Y-6028000D03*
X204100000Y-6028000D03*
X201560000Y-6028000D03*
X214260000Y-6028000D03*
X211720000Y-6028000D03*
X209180000Y-6028000D03*
X224420000Y-6028000D03*
X221880000Y-6028000D03*
X219340000Y-6028000D03*
D19*
X232040000Y-6028000D03*
D18*
X229500000Y-6028000D03*
X199020000Y-6028000D03*
X226960000Y-6028000D03*
X216800000Y-6028000D03*
D20*
X233088780Y-65448000D03*
X233088780Y-66548000D03*
X233088780Y-67648000D03*
X229988780Y-67648000D03*
X229988780Y-66548000D03*
X229988780Y-65448000D03*
X156888780Y-65448000D03*
X156888780Y-66548000D03*
X156888780Y-67648000D03*
X153788780Y-67648000D03*
X153788780Y-66548000D03*
X153788780Y-65448000D03*
X80688780Y-65448000D03*
X80688780Y-66548000D03*
X80688780Y-67648000D03*
X77588780Y-67648000D03*
X77588780Y-66548000D03*
X77588780Y-65448000D03*
X4488780Y-65448000D03*
X4488780Y-66548000D03*
X4488780Y-67648000D03*
X1388780Y-67648000D03*
X1388780Y-66548000D03*
X1388780Y-65448000D03*
D14*
X210502500Y-66535300D03*
D15*
X210502500Y-69075300D03*
X207962500Y-66535300D03*
X207962500Y-69075300D03*
X205422500Y-66535300D03*
X205422500Y-69075300D03*
X202882500Y-66535300D03*
X202882500Y-69075300D03*
X200342500Y-66535300D03*
X200342500Y-69075300D03*
D21*
X191135000Y-11176000D03*
X211759800Y-9017000D03*
X245389400Y-57200800D03*
D14*
X214096600Y-27101800D03*
D15*
X216636600Y-27101800D03*
X214096600Y-29641800D03*
X216636600Y-29641800D03*
X214096600Y-32181800D03*
X216636600Y-32181800D03*
X214096600Y-34721800D03*
X216636600Y-34721800D03*
X214096600Y-37261800D03*
X216636600Y-37261800D03*
D11*
X241119000Y-56368000D03*
D12*
X241119000Y-54368000D03*
M02*
