G04 #@! TF.FileFunction,Copper,L2,Bot,Signal*
%FSLAX46Y46*%
G04 Gerber Fmt 4.6, Leading zero omitted, Abs format (unit mm)*
G04 Created by KiCad (PCBNEW (2014-jul-16 BZR unknown)-product) date Seg 08 Dez 2014 19:54:15 BRST*
%MOMM*%
G01*
G04 APERTURE LIST*
%ADD10C,0.152400*%
%ADD11C,1.600000*%
%ADD12R,1.600000X1.600000*%
%ADD13C,4.500000*%
%ADD14R,1.524000X1.524000*%
%ADD15C,1.524000*%
%ADD16C,1.320800*%
%ADD17C,3.251200*%
%ADD18C,1.500000*%
%ADD19R,1.500000X1.500000*%
%ADD20R,1.300000X0.700000*%
%ADD21R,1.700000X1.700000*%
%ADD22C,0.889000*%
%ADD23C,1.270000*%
%ADD24C,0.508000*%
%ADD25C,0.508000*%
%ADD26C,0.762000*%
%ADD27C,0.635000*%
%ADD28C,1.270000*%
%ADD29C,1.016000*%
%ADD30C,0.381000*%
%ADD31C,0.254000*%
G04 APERTURE END LIST*
D10*
D11*
X227838000Y-23352000D03*
D12*
X227838000Y-21352000D03*
D11*
X218236800Y-9287000D03*
D12*
X218236800Y-11287000D03*
D11*
X195707000Y-9160000D03*
D12*
X195707000Y-11160000D03*
D11*
X231505000Y-2540000D03*
D12*
X229505000Y-2540000D03*
D13*
X246390800Y-2523800D03*
X246390800Y-10023800D03*
X241390800Y-2523800D03*
X241390800Y-10023800D03*
X246390800Y-64131500D03*
X246390800Y-71631500D03*
X241390800Y-64131500D03*
X241390800Y-71631500D03*
D14*
X230268780Y-70967600D03*
D15*
X232808780Y-70967600D03*
D14*
X154068780Y-70967600D03*
D15*
X156608780Y-70967600D03*
D14*
X77868780Y-70967600D03*
D15*
X80408780Y-70967600D03*
D14*
X1668780Y-70967600D03*
D15*
X4208780Y-70967600D03*
D16*
X237528100Y-15989300D03*
X237528100Y-18275300D03*
X237528100Y-27419300D03*
X237528100Y-29705300D03*
X242354100Y-26403300D03*
X242354100Y-24371300D03*
X242354100Y-22339300D03*
X242354100Y-20307300D03*
X244132100Y-23355300D03*
X244132100Y-21323300D03*
X244132100Y-25387300D03*
X244132100Y-19291300D03*
D17*
X246672100Y-16497300D03*
X246672100Y-29197300D03*
D16*
X237528100Y-37325300D03*
X237528100Y-39611300D03*
X237528100Y-48755300D03*
X237528100Y-51041300D03*
X242354100Y-47739300D03*
X242354100Y-45707300D03*
X242354100Y-43675300D03*
X242354100Y-41643300D03*
X244132100Y-44691300D03*
X244132100Y-42659300D03*
X244132100Y-46723300D03*
X244132100Y-40627300D03*
D17*
X246672100Y-37833300D03*
X246672100Y-50533300D03*
D18*
X196480000Y-6028000D03*
X193940000Y-6028000D03*
X206640000Y-6028000D03*
X204100000Y-6028000D03*
X201560000Y-6028000D03*
X214260000Y-6028000D03*
X211720000Y-6028000D03*
X209180000Y-6028000D03*
X224420000Y-6028000D03*
X221880000Y-6028000D03*
X219340000Y-6028000D03*
D19*
X232040000Y-6028000D03*
D18*
X229500000Y-6028000D03*
X199020000Y-6028000D03*
X226960000Y-6028000D03*
X216800000Y-6028000D03*
D20*
X233088780Y-65448000D03*
X233088780Y-66548000D03*
X233088780Y-67648000D03*
X229988780Y-67648000D03*
X229988780Y-66548000D03*
X229988780Y-65448000D03*
X156888780Y-65448000D03*
X156888780Y-66548000D03*
X156888780Y-67648000D03*
X153788780Y-67648000D03*
X153788780Y-66548000D03*
X153788780Y-65448000D03*
X80688780Y-65448000D03*
X80688780Y-66548000D03*
X80688780Y-67648000D03*
X77588780Y-67648000D03*
X77588780Y-66548000D03*
X77588780Y-65448000D03*
X4488780Y-65448000D03*
X4488780Y-66548000D03*
X4488780Y-67648000D03*
X1388780Y-67648000D03*
X1388780Y-66548000D03*
X1388780Y-65448000D03*
D14*
X216623900Y-27101800D03*
D15*
X216623900Y-29641800D03*
X216623900Y-32181800D03*
X216623900Y-34721800D03*
D18*
X216623900Y-37261800D03*
D14*
X210502500Y-66535300D03*
D15*
X210502500Y-69075300D03*
X207962500Y-66535300D03*
X207962500Y-69075300D03*
X205422500Y-66535300D03*
X205422500Y-69075300D03*
X202882500Y-66535300D03*
X202882500Y-69075300D03*
X200342500Y-66535300D03*
X200342500Y-69075300D03*
D21*
X191135000Y-11176000D03*
X211759800Y-9017000D03*
X245389400Y-57200800D03*
D22*
X1384300Y-68859400D03*
X77584300Y-68859400D03*
X153784300Y-68846700D03*
X229997000Y-68846700D03*
X8204200Y-70205600D03*
X160604200Y-70205600D03*
X84404200Y-70205600D03*
X236778800Y-70205600D03*
D23*
X203301600Y-35953700D03*
D22*
X197726300Y-35953700D03*
X213461600Y-72555100D03*
D23*
X206965798Y-35953700D03*
X210210400Y-39204900D03*
X219430600Y-61150500D03*
X219430600Y-72364600D03*
X219430600Y-57340500D03*
D22*
X164896800Y-584200D03*
X174117000Y-4559300D03*
X223583500Y-19519900D03*
X223583500Y-26327100D03*
X207873600Y-29413200D03*
X189852300Y-29413200D03*
X199631300Y-42176700D03*
X201917300Y-45986700D03*
X195249800Y-37617400D03*
X203085700Y-37604700D03*
X225209100Y-27546300D03*
X246824500Y-33540700D03*
X230670100Y-39611300D03*
X226542600Y-35420300D03*
X230670100Y-27419300D03*
X228447600Y-29324300D03*
X236728000Y-1016000D03*
X164858700Y-8458200D03*
X174117000Y-8458200D03*
X172415200Y-10236200D03*
X181686200Y-10223500D03*
D24*
X211632800Y-19050000D03*
D23*
X202882500Y-23126700D03*
X205371700Y-21336000D03*
X202895200Y-19570700D03*
D22*
X184150000Y-7289800D03*
X207505300Y-44475400D03*
X222619000Y-2868000D03*
D24*
X214172800Y-19050000D03*
X211632800Y-16510000D03*
X210362800Y-17780000D03*
X209092800Y-16510000D03*
X210362800Y-16510000D03*
X209092800Y-19050000D03*
X210362800Y-19050000D03*
X212902800Y-17780000D03*
X212902800Y-16510000D03*
X214172800Y-16510000D03*
X212902800Y-19050000D03*
X211632800Y-21590000D03*
X214172800Y-21590000D03*
X209092800Y-21590000D03*
X210362800Y-20320000D03*
X212902800Y-20320000D03*
X210362800Y-21590000D03*
X212902800Y-21590000D03*
X209042000Y-20320000D03*
X209042000Y-17780000D03*
X214122000Y-17780000D03*
X214122000Y-20320000D03*
X211582000Y-17780000D03*
X211582000Y-20320000D03*
X207822800Y-15240000D03*
X207822800Y-19050000D03*
X207822800Y-22860000D03*
X211632800Y-22860000D03*
X215442800Y-22860000D03*
X215442800Y-19050000D03*
X211632800Y-15240000D03*
X215442800Y-15240000D03*
D22*
X234219000Y-36368000D03*
X233934000Y-47167800D03*
D24*
X218452700Y-34150300D03*
X208597500Y-52324000D03*
X209804000Y-53530500D03*
X209953860Y-52461160D03*
X199735440Y-46448980D03*
X204048360Y-45852080D03*
X199781160Y-44998640D03*
X192189100Y-46926500D03*
X189865000Y-46926500D03*
X193027300Y-47764700D03*
X190690500Y-47764700D03*
X202285600Y-49491900D03*
X200533000Y-44018200D03*
X200533000Y-42176700D03*
X200533000Y-46875700D03*
D22*
X239433100Y-43675300D03*
D24*
X238353600Y-32499300D03*
X240830100Y-32499300D03*
X181000400Y-26822400D03*
X176491900Y-26822400D03*
X177152300Y-28486100D03*
X180962300Y-28486100D03*
X180340000Y-27851100D03*
X179108100Y-27851100D03*
X185521600Y-28371800D03*
X185521600Y-30391100D03*
X177190400Y-29857700D03*
X180949600Y-29857700D03*
X177190400Y-30695900D03*
X180949600Y-30695900D03*
X180936900Y-32397700D03*
X177190400Y-32397700D03*
X177190400Y-31534100D03*
X180949600Y-31534100D03*
X198247000Y-19050000D03*
X195707000Y-16510000D03*
X194437000Y-17780000D03*
X193167000Y-16510000D03*
X194437000Y-16510000D03*
X196977000Y-17780000D03*
X198247000Y-16510000D03*
X196977000Y-16510000D03*
X196977000Y-20320000D03*
X194437000Y-20320000D03*
X193167000Y-21590000D03*
X198247000Y-21590000D03*
X196977000Y-21590000D03*
X194437000Y-21590000D03*
X196977000Y-19050000D03*
X193167000Y-17780000D03*
X198247000Y-20320000D03*
X198247000Y-17780000D03*
X193167000Y-20320000D03*
X194437000Y-19050000D03*
X193167000Y-19050000D03*
X195707000Y-17780000D03*
X195707000Y-19050000D03*
X195707000Y-21590000D03*
X195707000Y-20320000D03*
X191897000Y-15240000D03*
X191897000Y-19050000D03*
X191897000Y-22860000D03*
X195707000Y-22860000D03*
X199517000Y-22860000D03*
X199517000Y-19050000D03*
X199517000Y-15240000D03*
X195707000Y-15240000D03*
D22*
X238328200Y-30988000D03*
X236270800Y-41630600D03*
D24*
X234708700Y-65443100D03*
X234708700Y-66548000D03*
X234708700Y-67640200D03*
X158508700Y-65443100D03*
X158508700Y-66548000D03*
X158508700Y-67640200D03*
X82308700Y-65443100D03*
X82308700Y-66548000D03*
X82308700Y-67652900D03*
X6134100Y-65455800D03*
X6134100Y-66548000D03*
X6134100Y-67652900D03*
D22*
X219811600Y-40690800D03*
X219811600Y-44526200D03*
D24*
X203746100Y-42075100D03*
X211632800Y-42075100D03*
D25*
X229988780Y-65448000D02*
X229988780Y-66548000D01*
X229988780Y-66548000D02*
X229988780Y-67648000D01*
X153788780Y-65448000D02*
X153788780Y-66548000D01*
X153788780Y-66548000D02*
X153788780Y-67648000D01*
X77588780Y-65448000D02*
X77588780Y-66548000D01*
X77588780Y-66548000D02*
X77588780Y-67648000D01*
X1388780Y-65448000D02*
X1388780Y-66548000D01*
X1388780Y-66548000D02*
X1388780Y-67648000D01*
D26*
X1384300Y-68859400D02*
X1388780Y-68854920D01*
X1388780Y-68854920D02*
X1388780Y-67648000D01*
X77588780Y-68854920D02*
X77588780Y-67648000D01*
X77584300Y-68859400D02*
X77588780Y-68854920D01*
X153784300Y-68846700D02*
X153788780Y-68842220D01*
X153788780Y-68842220D02*
X153788780Y-67648000D01*
X229997000Y-68846700D02*
X229988780Y-68838480D01*
X229988780Y-68838480D02*
X229988780Y-67648000D01*
X8204200Y-72618600D02*
X8204200Y-70205600D01*
X9169400Y-73583800D02*
X8204200Y-72618600D01*
X84404200Y-73583800D02*
X9169400Y-73583800D01*
X160616900Y-73583800D02*
X84404200Y-73583800D01*
X160604200Y-73571100D02*
X160616900Y-73583800D01*
X160604200Y-70205600D02*
X160604200Y-73571100D01*
X84404200Y-73583800D02*
X84404200Y-70205600D01*
X160616900Y-73583800D02*
X160604200Y-73571100D01*
X236778800Y-72821800D02*
X236016800Y-73583800D01*
X236778800Y-70205600D02*
X236778800Y-72821800D01*
X219214700Y-73583800D02*
X236016800Y-73583800D01*
X213461600Y-73583800D02*
X219214700Y-73583800D01*
X160616900Y-73583800D02*
X213461600Y-73583800D01*
D27*
X197726300Y-35953700D02*
X203301600Y-35953700D01*
X213461600Y-72555100D02*
X213461600Y-73583800D01*
D28*
X210210400Y-39204900D02*
X210210400Y-39198302D01*
X206965798Y-35953700D02*
X210210400Y-39198302D01*
D26*
X219430600Y-72364600D02*
X219430600Y-73367900D01*
X219430600Y-73367900D02*
X219214700Y-73583800D01*
D28*
X219430600Y-57340500D02*
X219430600Y-61150500D01*
D26*
X196545200Y-584200D02*
X174066200Y-584200D01*
X228561900Y-584200D02*
X196545200Y-584200D01*
X229505000Y-2540000D02*
X229505000Y-1527300D01*
X229505000Y-1527300D02*
X228561900Y-584200D01*
X174066200Y-584200D02*
X164896800Y-584200D01*
X174117000Y-635000D02*
X174066200Y-584200D01*
X174117000Y-4559300D02*
X174117000Y-635000D01*
X196480000Y-649400D02*
X196545200Y-584200D01*
X196480000Y-6028000D02*
X196480000Y-649400D01*
D29*
X223583500Y-19519900D02*
X223583500Y-26327100D01*
D30*
X217424000Y-37261800D02*
X218452700Y-36233100D01*
X218452700Y-36233100D02*
X218452700Y-34150300D01*
X216623900Y-37261800D02*
X217424000Y-37261800D01*
D31*
X208597500Y-52324000D02*
X209804000Y-53530500D01*
X204467460Y-46974760D02*
X209953860Y-52461160D01*
X201701400Y-46974760D02*
X204467460Y-46974760D01*
X200891140Y-46164500D02*
X201701400Y-46974760D01*
X200019920Y-46164500D02*
X200891140Y-46164500D01*
X199735440Y-46448980D02*
X200019920Y-46164500D01*
X203205080Y-45008800D02*
X204048360Y-45852080D01*
X199791320Y-45008800D02*
X203205080Y-45008800D01*
X199781160Y-44998640D02*
X199791320Y-45008800D01*
X192189100Y-46926500D02*
X189865000Y-46926500D01*
X190690500Y-47764700D02*
X193027300Y-47764700D01*
X200533000Y-47739300D02*
X202285600Y-49491900D01*
X200533000Y-44018200D02*
X200533000Y-42176700D01*
X200533000Y-46875700D02*
X200533000Y-47739300D01*
D25*
X239433100Y-43675300D02*
X242354100Y-43675300D01*
X238353600Y-32499300D02*
X240830100Y-32499300D01*
D31*
X176491900Y-26822400D02*
X181000400Y-26822400D01*
X180962300Y-28486100D02*
X177152300Y-28486100D01*
X180340000Y-27851100D02*
X179108100Y-27851100D01*
X185521600Y-30391100D02*
X185521600Y-28371800D01*
X177190400Y-29857700D02*
X180949600Y-29857700D01*
X177190400Y-30695900D02*
X180949600Y-30695900D01*
X177190400Y-32397700D02*
X180936900Y-32397700D01*
X177190400Y-31534100D02*
X180949600Y-31534100D01*
D25*
X237528100Y-31788100D02*
X238328200Y-30988000D01*
X237528100Y-37325300D02*
X237528100Y-31788100D01*
X237045500Y-27419300D02*
X236270800Y-28194000D01*
X236270800Y-28194000D02*
X236270800Y-41630600D01*
X237528100Y-27419300D02*
X237045500Y-27419300D01*
D30*
X234708700Y-65443100D02*
X234703800Y-65448000D01*
X234703800Y-65448000D02*
X233088780Y-65448000D01*
X234708700Y-66548000D02*
X233088780Y-66548000D01*
X234708700Y-67640200D02*
X234700900Y-67648000D01*
X234700900Y-67648000D02*
X233088780Y-67648000D01*
X158508700Y-65443100D02*
X158503800Y-65448000D01*
X158503800Y-65448000D02*
X156888780Y-65448000D01*
X158508700Y-66548000D02*
X156888780Y-66548000D01*
X158508700Y-67640200D02*
X158500900Y-67648000D01*
X158500900Y-67648000D02*
X156888780Y-67648000D01*
X82308700Y-65443100D02*
X82303800Y-65448000D01*
X82303800Y-65448000D02*
X80688780Y-65448000D01*
X82308700Y-66548000D02*
X80688780Y-66548000D01*
X82308700Y-67652900D02*
X82303800Y-67648000D01*
X82303800Y-67648000D02*
X80688780Y-67648000D01*
X6134100Y-65455800D02*
X6126300Y-65448000D01*
X6126300Y-65448000D02*
X4488780Y-65448000D01*
X6134100Y-66548000D02*
X4488780Y-66548000D01*
X6134100Y-67652900D02*
X6129200Y-67648000D01*
X6129200Y-67648000D02*
X4488780Y-67648000D01*
X219811600Y-44526200D02*
X219811600Y-40690800D01*
X211632800Y-42075100D02*
X203746100Y-42075100D01*
D10*
G36*
X248540600Y-73788600D02*
X248135454Y-73788600D01*
X248201070Y-73693217D01*
X246390800Y-71882947D01*
X246139353Y-72134394D01*
X246139353Y-71631500D01*
X244329083Y-69821230D01*
X243952885Y-70080024D01*
X243892802Y-70234745D01*
X243828715Y-70080024D01*
X243452517Y-69821230D01*
X243201070Y-70072677D01*
X243201070Y-69569783D01*
X243201070Y-66193217D01*
X241390800Y-64382947D01*
X241139353Y-64634394D01*
X241139353Y-64131500D01*
X239329083Y-62321230D01*
X238952885Y-62580024D01*
X238544736Y-63631073D01*
X238569874Y-64758308D01*
X238952885Y-65682976D01*
X239329083Y-65941770D01*
X241139353Y-64131500D01*
X241139353Y-64634394D01*
X239580530Y-66193217D01*
X239839324Y-66569415D01*
X240890373Y-66977564D01*
X242017608Y-66952426D01*
X242942276Y-66569415D01*
X243201070Y-66193217D01*
X243201070Y-69569783D01*
X242942276Y-69193585D01*
X241891227Y-68785436D01*
X240763992Y-68810574D01*
X239839324Y-69193585D01*
X239580530Y-69569783D01*
X241390800Y-71380053D01*
X243201070Y-69569783D01*
X243201070Y-70072677D01*
X241642247Y-71631500D01*
X243452517Y-73441770D01*
X243828715Y-73182976D01*
X243888797Y-73028254D01*
X243952885Y-73182976D01*
X244329083Y-73441770D01*
X246139353Y-71631500D01*
X246139353Y-72134394D01*
X244580530Y-73693217D01*
X244646145Y-73788600D01*
X243135454Y-73788600D01*
X243201070Y-73693217D01*
X241390800Y-71882947D01*
X241139353Y-72134394D01*
X241139353Y-71631500D01*
X239329083Y-69821230D01*
X238952885Y-70080024D01*
X238544736Y-71131073D01*
X238569874Y-72258308D01*
X238952885Y-73182976D01*
X239329083Y-73441770D01*
X241139353Y-71631500D01*
X241139353Y-72134394D01*
X239580530Y-73693217D01*
X239646145Y-73788600D01*
X238468063Y-73788600D01*
X238468063Y-50855182D01*
X238468063Y-48569182D01*
X238325288Y-48223641D01*
X238061149Y-47959041D01*
X237715858Y-47815663D01*
X237341982Y-47815337D01*
X236996441Y-47958112D01*
X236731841Y-48222251D01*
X236588463Y-48567542D01*
X236588137Y-48941418D01*
X236730912Y-49286959D01*
X236995051Y-49551559D01*
X237340342Y-49694937D01*
X237714218Y-49695263D01*
X238059759Y-49552488D01*
X238324359Y-49288349D01*
X238467737Y-48943058D01*
X238468063Y-48569182D01*
X238468063Y-50855182D01*
X238325288Y-50509641D01*
X238061149Y-50245041D01*
X237715858Y-50101663D01*
X237341982Y-50101337D01*
X236996441Y-50244112D01*
X236731841Y-50508251D01*
X236588463Y-50853542D01*
X236588137Y-51227418D01*
X236730912Y-51572959D01*
X236995051Y-51837559D01*
X237340342Y-51980937D01*
X237714218Y-51981263D01*
X238059759Y-51838488D01*
X238324359Y-51574349D01*
X238467737Y-51229058D01*
X238468063Y-50855182D01*
X238468063Y-73788600D01*
X236745946Y-73788600D01*
X237245773Y-73288773D01*
X237245774Y-73288773D01*
X237388930Y-73074524D01*
X237439200Y-72821800D01*
X237439200Y-70502846D01*
X237502574Y-70350224D01*
X237502825Y-70062239D01*
X237392850Y-69796079D01*
X237189392Y-69592265D01*
X236923424Y-69481826D01*
X236635439Y-69481575D01*
X236369279Y-69591550D01*
X236165465Y-69795008D01*
X236055026Y-70060976D01*
X236054775Y-70348961D01*
X236118400Y-70502945D01*
X236118400Y-72548253D01*
X235743253Y-72923400D01*
X235242192Y-72923400D01*
X235242192Y-67534566D01*
X235161158Y-67338448D01*
X235011241Y-67188269D01*
X234815265Y-67106893D01*
X234603066Y-67106708D01*
X234430283Y-67178100D01*
X233994203Y-67178100D01*
X233941476Y-67097832D01*
X233941067Y-67097556D01*
X233994836Y-67017900D01*
X234449433Y-67017900D01*
X234602135Y-67081307D01*
X234814334Y-67081492D01*
X235010452Y-67000458D01*
X235160631Y-66850541D01*
X235242007Y-66654565D01*
X235242192Y-66442366D01*
X235161158Y-66246248D01*
X235011241Y-66096069D01*
X234815265Y-66014693D01*
X234603066Y-66014508D01*
X234449161Y-66078100D01*
X233994203Y-66078100D01*
X233941476Y-65997832D01*
X233941067Y-65997556D01*
X233994836Y-65917900D01*
X234461233Y-65917900D01*
X234602135Y-65976407D01*
X234814334Y-65976592D01*
X235010452Y-65895558D01*
X235160631Y-65745641D01*
X235242007Y-65549665D01*
X235242192Y-65337466D01*
X235161158Y-65141348D01*
X235011241Y-64991169D01*
X234815265Y-64909793D01*
X234603066Y-64909608D01*
X234437302Y-64978100D01*
X233994203Y-64978100D01*
X233941476Y-64897832D01*
X233848622Y-64835154D01*
X233738780Y-64813126D01*
X233374200Y-64813126D01*
X233374200Y-6894204D01*
X233374200Y-6661795D01*
X233374200Y-6351850D01*
X233374200Y-5704150D01*
X233374200Y-5394205D01*
X233374200Y-5161796D01*
X233285261Y-4947078D01*
X233120923Y-4782739D01*
X232907896Y-4694500D01*
X232907896Y-2693953D01*
X232860022Y-2145369D01*
X232742192Y-1860901D01*
X232516525Y-1779922D01*
X232265078Y-2031369D01*
X231756447Y-2540000D01*
X232516525Y-3300078D01*
X232742192Y-3219099D01*
X232907896Y-2693953D01*
X232907896Y-4694500D01*
X232906205Y-4693800D01*
X232363850Y-4693800D01*
X232265078Y-4792572D01*
X232217800Y-4839850D01*
X232217800Y-5850200D01*
X233228150Y-5850200D01*
X233374200Y-5704150D01*
X233374200Y-6351850D01*
X233228150Y-6205800D01*
X232217800Y-6205800D01*
X232217800Y-7216150D01*
X232363850Y-7362200D01*
X232906205Y-7362200D01*
X233120923Y-7273261D01*
X233285261Y-7108922D01*
X233374200Y-6894204D01*
X233374200Y-64813126D01*
X232438780Y-64813126D01*
X232332246Y-64833796D01*
X232238612Y-64895304D01*
X232175934Y-64988158D01*
X232153906Y-65098000D01*
X232153906Y-65798000D01*
X232174576Y-65904534D01*
X232236084Y-65998168D01*
X232236492Y-65998443D01*
X232175934Y-66088158D01*
X232153906Y-66198000D01*
X232153906Y-66898000D01*
X232174576Y-67004534D01*
X232236084Y-67098168D01*
X232236492Y-67098443D01*
X232175934Y-67188158D01*
X232153906Y-67298000D01*
X232153906Y-67998000D01*
X232174576Y-68104534D01*
X232236084Y-68198168D01*
X232328938Y-68260846D01*
X232438780Y-68282874D01*
X233738780Y-68282874D01*
X233845314Y-68262204D01*
X233938948Y-68200696D01*
X233994836Y-68117900D01*
X234468217Y-68117900D01*
X234602135Y-68173507D01*
X234814334Y-68173692D01*
X235010452Y-68092658D01*
X235160631Y-67942741D01*
X235242007Y-67746765D01*
X235242192Y-67534566D01*
X235242192Y-72923400D01*
X233850360Y-72923400D01*
X233850360Y-70761362D01*
X233692151Y-70378465D01*
X233399456Y-70085259D01*
X233016836Y-69926381D01*
X232602542Y-69926020D01*
X232219645Y-70084229D01*
X231926439Y-70376924D01*
X231862200Y-70531628D01*
X231862200Y-7216150D01*
X231862200Y-6205800D01*
X231862200Y-5850200D01*
X231862200Y-4839850D01*
X231716150Y-4693800D01*
X231173795Y-4693800D01*
X230959077Y-4782739D01*
X230794739Y-4947078D01*
X230705800Y-5161796D01*
X230705800Y-5394205D01*
X230705800Y-5704150D01*
X230851850Y-5850200D01*
X231862200Y-5850200D01*
X231862200Y-6205800D01*
X230851850Y-6205800D01*
X230705800Y-6351850D01*
X230705800Y-6661795D01*
X230705800Y-6894204D01*
X230794739Y-7108922D01*
X230959077Y-7273261D01*
X231173795Y-7362200D01*
X231716150Y-7362200D01*
X231862200Y-7216150D01*
X231862200Y-70531628D01*
X231767561Y-70759544D01*
X231767200Y-71173838D01*
X231925409Y-71556735D01*
X232218104Y-71849941D01*
X232600724Y-72008819D01*
X233015018Y-72009180D01*
X233397915Y-71850971D01*
X233691121Y-71558276D01*
X233849999Y-71175656D01*
X233850360Y-70761362D01*
X233850360Y-72923400D01*
X231614980Y-72923400D01*
X231614980Y-71845804D01*
X231614980Y-71613395D01*
X231614980Y-71291450D01*
X231614980Y-70643750D01*
X231614980Y-70321805D01*
X231614980Y-70089396D01*
X231526041Y-69874678D01*
X231361703Y-69710339D01*
X231146985Y-69621400D01*
X230923654Y-69621400D01*
X230923654Y-67998000D01*
X230923654Y-67298000D01*
X230902984Y-67191466D01*
X230841476Y-67097832D01*
X230841067Y-67097556D01*
X230901626Y-67007842D01*
X230923654Y-66898000D01*
X230923654Y-66198000D01*
X230902984Y-66091466D01*
X230841476Y-65997832D01*
X230841067Y-65997556D01*
X230901626Y-65907842D01*
X230923654Y-65798000D01*
X230923654Y-65098000D01*
X230902984Y-64991466D01*
X230841476Y-64897832D01*
X230748622Y-64835154D01*
X230638780Y-64813126D01*
X230529578Y-64813126D01*
X230529578Y-5824138D01*
X230373192Y-5445654D01*
X230083870Y-5155826D01*
X229705659Y-4998779D01*
X229296138Y-4998422D01*
X228917654Y-5154808D01*
X228627826Y-5444130D01*
X228470779Y-5822341D01*
X228470422Y-6231862D01*
X228626808Y-6610346D01*
X228916130Y-6900174D01*
X229294341Y-7057221D01*
X229703862Y-7057578D01*
X230082346Y-6901192D01*
X230372174Y-6611870D01*
X230529221Y-6233659D01*
X230529578Y-5824138D01*
X230529578Y-64813126D01*
X229338780Y-64813126D01*
X229240896Y-64832117D01*
X229240896Y-23505953D01*
X229193022Y-22957369D01*
X229075192Y-22672901D01*
X228922874Y-22618242D01*
X228849527Y-22591922D01*
X228922874Y-22518576D01*
X228960622Y-22480828D01*
X228922874Y-22443080D01*
X228835948Y-22356154D01*
X228838168Y-22354696D01*
X228900846Y-22261842D01*
X228922874Y-22152000D01*
X228922874Y-20552000D01*
X228902204Y-20445466D01*
X228840696Y-20351832D01*
X228747842Y-20289154D01*
X228638000Y-20267126D01*
X227989578Y-20267126D01*
X227989578Y-5824138D01*
X227833192Y-5445654D01*
X227543870Y-5155826D01*
X227165659Y-4998779D01*
X226756138Y-4998422D01*
X226377654Y-5154808D01*
X226087826Y-5444130D01*
X225930779Y-5822341D01*
X225930422Y-6231862D01*
X226086808Y-6610346D01*
X226376130Y-6900174D01*
X226754341Y-7057221D01*
X227163862Y-7057578D01*
X227542346Y-6901192D01*
X227832174Y-6611870D01*
X227989221Y-6233659D01*
X227989578Y-5824138D01*
X227989578Y-20267126D01*
X227038000Y-20267126D01*
X226931466Y-20287796D01*
X226837832Y-20349304D01*
X226775154Y-20442158D01*
X226753126Y-20552000D01*
X226753126Y-22152000D01*
X226773796Y-22258534D01*
X226835304Y-22352168D01*
X226840518Y-22355687D01*
X226715378Y-22480828D01*
X226826472Y-22591922D01*
X226600808Y-22672901D01*
X226435104Y-23198047D01*
X226482978Y-23746631D01*
X226600808Y-24031099D01*
X226826475Y-24112078D01*
X227586553Y-23352000D01*
X227572410Y-23337857D01*
X227823857Y-23086410D01*
X227838000Y-23100553D01*
X227852142Y-23086410D01*
X228103589Y-23337857D01*
X228089447Y-23352000D01*
X228849525Y-24112078D01*
X229075192Y-24031099D01*
X229240896Y-23505953D01*
X229240896Y-64832117D01*
X229232246Y-64833796D01*
X229138612Y-64895304D01*
X229075934Y-64988158D01*
X229053906Y-65098000D01*
X229053906Y-65798000D01*
X229074576Y-65904534D01*
X229136084Y-65998168D01*
X229136492Y-65998443D01*
X229075934Y-66088158D01*
X229053906Y-66198000D01*
X229053906Y-66898000D01*
X229074576Y-67004534D01*
X229136084Y-67098168D01*
X229136492Y-67098443D01*
X229075934Y-67188158D01*
X229053906Y-67298000D01*
X229053906Y-67998000D01*
X229074576Y-68104534D01*
X229136084Y-68198168D01*
X229228938Y-68260846D01*
X229328380Y-68280788D01*
X229328380Y-68569249D01*
X229273226Y-68702076D01*
X229272975Y-68990061D01*
X229382950Y-69256221D01*
X229586408Y-69460035D01*
X229852376Y-69570474D01*
X230140361Y-69570725D01*
X230406521Y-69460750D01*
X230610335Y-69257292D01*
X230720774Y-68991324D01*
X230721025Y-68703339D01*
X230649180Y-68529460D01*
X230649180Y-68280856D01*
X230745314Y-68262204D01*
X230838948Y-68200696D01*
X230901626Y-68107842D01*
X230923654Y-67998000D01*
X230923654Y-69621400D01*
X230592630Y-69621400D01*
X230446580Y-69767450D01*
X230446580Y-70789800D01*
X231468930Y-70789800D01*
X231614980Y-70643750D01*
X231614980Y-71291450D01*
X231468930Y-71145400D01*
X230446580Y-71145400D01*
X230446580Y-72167750D01*
X230592630Y-72313800D01*
X231146985Y-72313800D01*
X231361703Y-72224861D01*
X231526041Y-72060522D01*
X231614980Y-71845804D01*
X231614980Y-72923400D01*
X230090980Y-72923400D01*
X230090980Y-72167750D01*
X230090980Y-71145400D01*
X230090980Y-70789800D01*
X230090980Y-69767450D01*
X229944930Y-69621400D01*
X229390575Y-69621400D01*
X229175857Y-69710339D01*
X229011519Y-69874678D01*
X228922580Y-70089396D01*
X228922580Y-70321805D01*
X228922580Y-70643750D01*
X229068630Y-70789800D01*
X230090980Y-70789800D01*
X230090980Y-71145400D01*
X229068630Y-71145400D01*
X228922580Y-71291450D01*
X228922580Y-71613395D01*
X228922580Y-71845804D01*
X229011519Y-72060522D01*
X229175857Y-72224861D01*
X229390575Y-72313800D01*
X229944930Y-72313800D01*
X230090980Y-72167750D01*
X230090980Y-72923400D01*
X228598078Y-72923400D01*
X228598078Y-24363525D01*
X227838000Y-23603447D01*
X227586553Y-23854894D01*
X227077922Y-24363525D01*
X227158901Y-24589192D01*
X227684047Y-24754896D01*
X228232631Y-24707022D01*
X228517099Y-24589192D01*
X228598078Y-24363525D01*
X228598078Y-72923400D01*
X225449578Y-72923400D01*
X225449578Y-5824138D01*
X225293192Y-5445654D01*
X225003870Y-5155826D01*
X224625659Y-4998779D01*
X224216138Y-4998422D01*
X223837654Y-5154808D01*
X223547826Y-5444130D01*
X223390779Y-5822341D01*
X223390422Y-6231862D01*
X223546808Y-6610346D01*
X223836130Y-6900174D01*
X224214341Y-7057221D01*
X224623862Y-7057578D01*
X225002346Y-6901192D01*
X225292174Y-6611870D01*
X225449221Y-6233659D01*
X225449578Y-5824138D01*
X225449578Y-72923400D01*
X224370900Y-72923400D01*
X224370900Y-26327100D01*
X224370900Y-19519900D01*
X224310963Y-19218575D01*
X224140276Y-18963124D01*
X223884825Y-18792437D01*
X223583500Y-18732500D01*
X223282175Y-18792437D01*
X223026724Y-18963124D01*
X222909578Y-19138445D01*
X222909578Y-5824138D01*
X222753192Y-5445654D01*
X222463870Y-5155826D01*
X222085659Y-4998779D01*
X221676138Y-4998422D01*
X221297654Y-5154808D01*
X221007826Y-5444130D01*
X220850779Y-5822341D01*
X220850422Y-6231862D01*
X221006808Y-6610346D01*
X221296130Y-6900174D01*
X221674341Y-7057221D01*
X222083862Y-7057578D01*
X222462346Y-6901192D01*
X222752174Y-6611870D01*
X222909221Y-6233659D01*
X222909578Y-5824138D01*
X222909578Y-19138445D01*
X222856037Y-19218575D01*
X222796100Y-19519900D01*
X222796100Y-26327100D01*
X222856037Y-26628425D01*
X223026724Y-26883876D01*
X223282175Y-27054563D01*
X223583500Y-27114500D01*
X223884825Y-27054563D01*
X224140276Y-26883876D01*
X224310963Y-26628425D01*
X224370900Y-26327100D01*
X224370900Y-72923400D01*
X220535625Y-72923400D01*
X220535625Y-44382839D01*
X220425650Y-44116679D01*
X220281500Y-43972276D01*
X220281500Y-41244576D01*
X220424935Y-41101392D01*
X220535374Y-40835424D01*
X220535625Y-40547439D01*
X220425650Y-40281279D01*
X220369578Y-40225108D01*
X220369578Y-5824138D01*
X220213192Y-5445654D01*
X219923870Y-5155826D01*
X219545659Y-4998779D01*
X219136138Y-4998422D01*
X218757654Y-5154808D01*
X218467826Y-5444130D01*
X218310779Y-5822341D01*
X218310422Y-6231862D01*
X218466808Y-6610346D01*
X218756130Y-6900174D01*
X219134341Y-7057221D01*
X219543862Y-7057578D01*
X219922346Y-6901192D01*
X220212174Y-6611870D01*
X220369221Y-6233659D01*
X220369578Y-5824138D01*
X220369578Y-40225108D01*
X220222192Y-40077465D01*
X219956224Y-39967026D01*
X219668239Y-39966775D01*
X219639696Y-39978568D01*
X219639696Y-9440953D01*
X219591822Y-8892369D01*
X219473992Y-8607901D01*
X219248325Y-8526922D01*
X218996878Y-8778369D01*
X218996878Y-8275475D01*
X218915899Y-8049808D01*
X218390753Y-7884104D01*
X217842169Y-7931978D01*
X217829578Y-7937193D01*
X217829578Y-5824138D01*
X217673192Y-5445654D01*
X217383870Y-5155826D01*
X217005659Y-4998779D01*
X216596138Y-4998422D01*
X216217654Y-5154808D01*
X215927826Y-5444130D01*
X215770779Y-5822341D01*
X215770422Y-6231862D01*
X215926808Y-6610346D01*
X216216130Y-6900174D01*
X216594341Y-7057221D01*
X217003862Y-7057578D01*
X217382346Y-6901192D01*
X217672174Y-6611870D01*
X217829221Y-6233659D01*
X217829578Y-5824138D01*
X217829578Y-7937193D01*
X217557701Y-8049808D01*
X217476722Y-8275475D01*
X218236800Y-9035553D01*
X218996878Y-8275475D01*
X218996878Y-8778369D01*
X218488247Y-9287000D01*
X218502389Y-9301142D01*
X218250942Y-9552589D01*
X218236800Y-9538447D01*
X218222657Y-9552589D01*
X217985353Y-9315285D01*
X217971210Y-9301142D01*
X217985353Y-9287000D01*
X217225275Y-8526922D01*
X216999608Y-8607901D01*
X216833904Y-9133047D01*
X216881778Y-9681631D01*
X216999608Y-9966099D01*
X217225272Y-10047077D01*
X217114178Y-10158172D01*
X217238851Y-10282845D01*
X217236632Y-10284304D01*
X217173954Y-10377158D01*
X217151926Y-10487000D01*
X217151926Y-12087000D01*
X217172596Y-12193534D01*
X217234104Y-12287168D01*
X217326958Y-12349846D01*
X217436800Y-12371874D01*
X219036800Y-12371874D01*
X219143334Y-12351204D01*
X219236968Y-12289696D01*
X219299646Y-12196842D01*
X219321674Y-12087000D01*
X219321674Y-10487000D01*
X219301004Y-10380466D01*
X219239496Y-10286832D01*
X219234281Y-10283312D01*
X219359422Y-10158172D01*
X219248327Y-10047077D01*
X219473992Y-9966099D01*
X219639696Y-9440953D01*
X219639696Y-39978568D01*
X219402079Y-40076750D01*
X219321674Y-40157014D01*
X219198265Y-40280208D01*
X219087826Y-40546176D01*
X219087575Y-40834161D01*
X219197550Y-41100321D01*
X219341700Y-41244723D01*
X219341700Y-43972423D01*
X219198265Y-44115608D01*
X219087826Y-44381576D01*
X219087575Y-44669561D01*
X219197550Y-44935721D01*
X219401008Y-45139535D01*
X219666976Y-45249974D01*
X219954961Y-45250225D01*
X220221121Y-45140250D01*
X220424935Y-44936792D01*
X220535374Y-44670824D01*
X220535625Y-44382839D01*
X220535625Y-72923400D01*
X220165109Y-72923400D01*
X220205338Y-72883242D01*
X220344841Y-72547283D01*
X220345158Y-72183513D01*
X220345158Y-60969413D01*
X220345000Y-60969030D01*
X220345000Y-57340724D01*
X220345000Y-57340500D01*
X220345158Y-57159413D01*
X220275395Y-56990574D01*
X220206242Y-56823211D01*
X220077178Y-56693922D01*
X219949242Y-56565762D01*
X219780526Y-56495705D01*
X219613283Y-56426259D01*
X219249513Y-56425942D01*
X218986192Y-56534744D01*
X218986192Y-34044666D01*
X218905158Y-33848548D01*
X218755241Y-33698369D01*
X218559265Y-33616993D01*
X218347066Y-33616808D01*
X218150948Y-33697842D01*
X218000769Y-33847759D01*
X217970100Y-33921618D01*
X217970100Y-27980005D01*
X217970100Y-27425650D01*
X217970100Y-26777950D01*
X217970100Y-26223595D01*
X217881161Y-26008877D01*
X217716822Y-25844539D01*
X217502104Y-25755600D01*
X217269695Y-25755600D01*
X216947750Y-25755600D01*
X216801700Y-25901650D01*
X216801700Y-26924000D01*
X217824050Y-26924000D01*
X217970100Y-26777950D01*
X217970100Y-27425650D01*
X217824050Y-27279600D01*
X216801700Y-27279600D01*
X216801700Y-28301950D01*
X216947750Y-28448000D01*
X217269695Y-28448000D01*
X217502104Y-28448000D01*
X217716822Y-28359061D01*
X217881161Y-28194723D01*
X217970100Y-27980005D01*
X217970100Y-33921618D01*
X217919393Y-34043735D01*
X217919208Y-34255934D01*
X217982800Y-34409838D01*
X217982800Y-36038461D01*
X217665480Y-36355781D01*
X217665480Y-34515562D01*
X217665480Y-31975562D01*
X217665480Y-29435562D01*
X217507271Y-29052665D01*
X217214576Y-28759459D01*
X216831956Y-28600581D01*
X216446100Y-28600244D01*
X216446100Y-28301950D01*
X216446100Y-27279600D01*
X216446100Y-26924000D01*
X216446100Y-25901650D01*
X216300050Y-25755600D01*
X215978105Y-25755600D01*
X215745696Y-25755600D01*
X215530978Y-25844539D01*
X215366639Y-26008877D01*
X215289578Y-26194918D01*
X215289578Y-5824138D01*
X215133192Y-5445654D01*
X214843870Y-5155826D01*
X214465659Y-4998779D01*
X214056138Y-4998422D01*
X213677654Y-5154808D01*
X213387826Y-5444130D01*
X213230779Y-5822341D01*
X213230422Y-6231862D01*
X213386808Y-6610346D01*
X213676130Y-6900174D01*
X214054341Y-7057221D01*
X214463862Y-7057578D01*
X214842346Y-6901192D01*
X215132174Y-6611870D01*
X215289221Y-6233659D01*
X215289578Y-5824138D01*
X215289578Y-26194918D01*
X215277700Y-26223595D01*
X215277700Y-26777950D01*
X215423750Y-26924000D01*
X216446100Y-26924000D01*
X216446100Y-27279600D01*
X215423750Y-27279600D01*
X215277700Y-27425650D01*
X215277700Y-27980005D01*
X215366639Y-28194723D01*
X215530978Y-28359061D01*
X215745696Y-28448000D01*
X215978105Y-28448000D01*
X216300050Y-28448000D01*
X216446100Y-28301950D01*
X216446100Y-28600244D01*
X216417662Y-28600220D01*
X216034765Y-28758429D01*
X215741559Y-29051124D01*
X215582681Y-29433744D01*
X215582320Y-29848038D01*
X215740529Y-30230935D01*
X216033224Y-30524141D01*
X216415844Y-30683019D01*
X216830138Y-30683380D01*
X217213035Y-30525171D01*
X217506241Y-30232476D01*
X217665119Y-29849856D01*
X217665480Y-29435562D01*
X217665480Y-31975562D01*
X217507271Y-31592665D01*
X217214576Y-31299459D01*
X216831956Y-31140581D01*
X216417662Y-31140220D01*
X216034765Y-31298429D01*
X215741559Y-31591124D01*
X215582681Y-31973744D01*
X215582320Y-32388038D01*
X215740529Y-32770935D01*
X216033224Y-33064141D01*
X216415844Y-33223019D01*
X216830138Y-33223380D01*
X217213035Y-33065171D01*
X217506241Y-32772476D01*
X217665119Y-32389856D01*
X217665480Y-31975562D01*
X217665480Y-34515562D01*
X217507271Y-34132665D01*
X217214576Y-33839459D01*
X216831956Y-33680581D01*
X216417662Y-33680220D01*
X216034765Y-33838429D01*
X215741559Y-34131124D01*
X215582681Y-34513744D01*
X215582320Y-34928038D01*
X215740529Y-35310935D01*
X216033224Y-35604141D01*
X216415844Y-35763019D01*
X216830138Y-35763380D01*
X217213035Y-35605171D01*
X217506241Y-35312476D01*
X217665119Y-34929856D01*
X217665480Y-34515562D01*
X217665480Y-36355781D01*
X217419517Y-36601744D01*
X217207770Y-36389626D01*
X216829559Y-36232579D01*
X216420038Y-36232222D01*
X216041554Y-36388608D01*
X215751726Y-36677930D01*
X215594679Y-37056141D01*
X215594322Y-37465662D01*
X215750708Y-37844146D01*
X216040030Y-38133974D01*
X216418241Y-38291021D01*
X216827762Y-38291378D01*
X217206246Y-38134992D01*
X217496074Y-37845670D01*
X217554148Y-37705811D01*
X217603823Y-37695931D01*
X217756269Y-37594069D01*
X218784969Y-36565370D01*
X218784969Y-36565369D01*
X218886831Y-36412923D01*
X218922599Y-36233100D01*
X218922600Y-36233100D01*
X218922600Y-34409566D01*
X218986007Y-34256865D01*
X218986192Y-34044666D01*
X218986192Y-56534744D01*
X218913311Y-56564858D01*
X218655862Y-56821858D01*
X218516359Y-57157817D01*
X218516042Y-57521587D01*
X218516200Y-57521969D01*
X218516200Y-61150275D01*
X218516042Y-61331587D01*
X218585805Y-61500426D01*
X218654958Y-61667789D01*
X218784022Y-61797078D01*
X218911958Y-61925238D01*
X219080674Y-61995295D01*
X219247917Y-62064741D01*
X219430600Y-62064900D01*
X219611687Y-62065058D01*
X219780526Y-61995295D01*
X219947889Y-61926142D01*
X220077178Y-61797078D01*
X220205338Y-61669142D01*
X220275395Y-61500426D01*
X220344841Y-61333183D01*
X220345000Y-61150500D01*
X220345158Y-60969413D01*
X220345158Y-72183513D01*
X220206242Y-71847311D01*
X219949242Y-71589862D01*
X219613283Y-71450359D01*
X219249513Y-71450042D01*
X218913311Y-71588958D01*
X218655862Y-71845958D01*
X218516359Y-72181917D01*
X218516042Y-72545687D01*
X218654958Y-72881889D01*
X218696396Y-72923400D01*
X214092496Y-72923400D01*
X214185374Y-72699724D01*
X214185625Y-72411739D01*
X214075650Y-72145579D01*
X213872192Y-71941765D01*
X213606224Y-71831326D01*
X213318239Y-71831075D01*
X213052079Y-71941050D01*
X212894674Y-72098180D01*
X212894674Y-9867000D01*
X212894674Y-8167000D01*
X212874004Y-8060466D01*
X212812496Y-7966832D01*
X212749578Y-7924361D01*
X212749578Y-5824138D01*
X212593192Y-5445654D01*
X212303870Y-5155826D01*
X211925659Y-4998779D01*
X211516138Y-4998422D01*
X211137654Y-5154808D01*
X210847826Y-5444130D01*
X210690779Y-5822341D01*
X210690422Y-6231862D01*
X210846808Y-6610346D01*
X211136130Y-6900174D01*
X211514341Y-7057221D01*
X211923862Y-7057578D01*
X212302346Y-6901192D01*
X212592174Y-6611870D01*
X212749221Y-6233659D01*
X212749578Y-5824138D01*
X212749578Y-7924361D01*
X212719642Y-7904154D01*
X212609800Y-7882126D01*
X210909800Y-7882126D01*
X210803266Y-7902796D01*
X210709632Y-7964304D01*
X210646954Y-8057158D01*
X210624926Y-8167000D01*
X210624926Y-9867000D01*
X210645596Y-9973534D01*
X210707104Y-10067168D01*
X210799958Y-10129846D01*
X210909800Y-10151874D01*
X212609800Y-10151874D01*
X212716334Y-10131204D01*
X212809968Y-10069696D01*
X212872646Y-9976842D01*
X212894674Y-9867000D01*
X212894674Y-72098180D01*
X212848265Y-72144508D01*
X212737826Y-72410476D01*
X212737575Y-72698461D01*
X212830517Y-72923400D01*
X212166292Y-72923400D01*
X212166292Y-41969466D01*
X212085258Y-41773348D01*
X211935341Y-41623169D01*
X211739365Y-41541793D01*
X211527166Y-41541608D01*
X211373261Y-41605200D01*
X211124958Y-41605200D01*
X211124958Y-39023813D01*
X211057725Y-38861098D01*
X211057725Y-38861097D01*
X211055195Y-38848377D01*
X211055195Y-38848376D01*
X211048052Y-38837687D01*
X211048051Y-38837684D01*
X210986042Y-38687611D01*
X210870311Y-38571678D01*
X210870310Y-38571677D01*
X210856978Y-38551724D01*
X210856978Y-38551723D01*
X210209578Y-37904323D01*
X210209578Y-5824138D01*
X210053192Y-5445654D01*
X209763870Y-5155826D01*
X209385659Y-4998779D01*
X208976138Y-4998422D01*
X208597654Y-5154808D01*
X208307826Y-5444130D01*
X208150779Y-5822341D01*
X208150422Y-6231862D01*
X208306808Y-6610346D01*
X208596130Y-6900174D01*
X208974341Y-7057221D01*
X209383862Y-7057578D01*
X209762346Y-6901192D01*
X210052174Y-6611870D01*
X210209221Y-6233659D01*
X210209578Y-5824138D01*
X210209578Y-37904323D01*
X207669578Y-35364323D01*
X207669578Y-5824138D01*
X207513192Y-5445654D01*
X207223870Y-5155826D01*
X206845659Y-4998779D01*
X206436138Y-4998422D01*
X206057654Y-5154808D01*
X205767826Y-5444130D01*
X205610779Y-5822341D01*
X205610422Y-6231862D01*
X205766808Y-6610346D01*
X206056130Y-6900174D01*
X206434341Y-7057221D01*
X206843862Y-7057578D01*
X207222346Y-6901192D01*
X207512174Y-6611870D01*
X207669221Y-6233659D01*
X207669578Y-5824138D01*
X207669578Y-35364323D01*
X207612653Y-35307399D01*
X207612376Y-35307122D01*
X207484440Y-35178962D01*
X207148481Y-35039459D01*
X206784711Y-35039142D01*
X206448509Y-35178058D01*
X206191060Y-35435058D01*
X206051557Y-35771017D01*
X206051240Y-36134787D01*
X206190156Y-36470989D01*
X206319220Y-36600278D01*
X206447156Y-36728438D01*
X206447538Y-36728597D01*
X209430271Y-39711330D01*
X209434758Y-39722189D01*
X209563822Y-39851478D01*
X209691758Y-39979638D01*
X209860474Y-40049695D01*
X210027717Y-40119141D01*
X210210400Y-40119300D01*
X210391487Y-40119458D01*
X210560326Y-40049695D01*
X210727689Y-39980542D01*
X210856978Y-39851478D01*
X210985138Y-39723542D01*
X211055195Y-39554826D01*
X211124641Y-39387583D01*
X211124800Y-39204900D01*
X211124958Y-39023813D01*
X211124958Y-41605200D01*
X205129578Y-41605200D01*
X205129578Y-5824138D01*
X204973192Y-5445654D01*
X204683870Y-5155826D01*
X204305659Y-4998779D01*
X203896138Y-4998422D01*
X203517654Y-5154808D01*
X203227826Y-5444130D01*
X203070779Y-5822341D01*
X203070422Y-6231862D01*
X203226808Y-6610346D01*
X203516130Y-6900174D01*
X203894341Y-7057221D01*
X204303862Y-7057578D01*
X204682346Y-6901192D01*
X204972174Y-6611870D01*
X205129221Y-6233659D01*
X205129578Y-5824138D01*
X205129578Y-41605200D01*
X204216158Y-41605200D01*
X204216158Y-35772613D01*
X204077242Y-35436411D01*
X203820242Y-35178962D01*
X203484283Y-35039459D01*
X203120513Y-35039142D01*
X202784311Y-35178058D01*
X202605256Y-35356800D01*
X202589578Y-35356800D01*
X202589578Y-5824138D01*
X202433192Y-5445654D01*
X202143870Y-5155826D01*
X201765659Y-4998779D01*
X201356138Y-4998422D01*
X200977654Y-5154808D01*
X200687826Y-5444130D01*
X200530779Y-5822341D01*
X200530422Y-6231862D01*
X200686808Y-6610346D01*
X200976130Y-6900174D01*
X201354341Y-7057221D01*
X201763862Y-7057578D01*
X202142346Y-6901192D01*
X202432174Y-6611870D01*
X202589221Y-6233659D01*
X202589578Y-5824138D01*
X202589578Y-35356800D01*
X200558400Y-35356800D01*
X200558400Y-23698200D01*
X200558400Y-14401800D01*
X200049578Y-14401800D01*
X200049578Y-5824138D01*
X199893192Y-5445654D01*
X199603870Y-5155826D01*
X199225659Y-4998779D01*
X198816138Y-4998422D01*
X198437654Y-5154808D01*
X198147826Y-5444130D01*
X197990779Y-5822341D01*
X197990422Y-6231862D01*
X198146808Y-6610346D01*
X198436130Y-6900174D01*
X198814341Y-7057221D01*
X199223862Y-7057578D01*
X199602346Y-6901192D01*
X199892174Y-6611870D01*
X200049221Y-6233659D01*
X200049578Y-5824138D01*
X200049578Y-14401800D01*
X197109896Y-14401800D01*
X197109896Y-9313953D01*
X197062022Y-8765369D01*
X196944192Y-8480901D01*
X196718525Y-8399922D01*
X196467078Y-8651369D01*
X196467078Y-8148475D01*
X196386099Y-7922808D01*
X195860953Y-7757104D01*
X195312369Y-7804978D01*
X195027901Y-7922808D01*
X194969578Y-8085338D01*
X194969578Y-5824138D01*
X194813192Y-5445654D01*
X194523870Y-5155826D01*
X194145659Y-4998779D01*
X193736138Y-4998422D01*
X193357654Y-5154808D01*
X193067826Y-5444130D01*
X192910779Y-5822341D01*
X192910422Y-6231862D01*
X193066808Y-6610346D01*
X193356130Y-6900174D01*
X193734341Y-7057221D01*
X194143862Y-7057578D01*
X194522346Y-6901192D01*
X194812174Y-6611870D01*
X194969221Y-6233659D01*
X194969578Y-5824138D01*
X194969578Y-8085338D01*
X194946922Y-8148475D01*
X195707000Y-8908553D01*
X196467078Y-8148475D01*
X196467078Y-8651369D01*
X195958447Y-9160000D01*
X195972589Y-9174142D01*
X195721142Y-9425589D01*
X195707000Y-9411447D01*
X195692857Y-9425589D01*
X195455553Y-9188285D01*
X195441410Y-9174142D01*
X195455553Y-9160000D01*
X194695475Y-8399922D01*
X194469808Y-8480901D01*
X194304104Y-9006047D01*
X194351978Y-9554631D01*
X194469808Y-9839099D01*
X194695472Y-9920077D01*
X194584378Y-10031172D01*
X194709051Y-10155845D01*
X194706832Y-10157304D01*
X194644154Y-10250158D01*
X194622126Y-10360000D01*
X194622126Y-11960000D01*
X194642796Y-12066534D01*
X194704304Y-12160168D01*
X194797158Y-12222846D01*
X194907000Y-12244874D01*
X196507000Y-12244874D01*
X196613534Y-12224204D01*
X196707168Y-12162696D01*
X196769846Y-12069842D01*
X196791874Y-11960000D01*
X196791874Y-10360000D01*
X196771204Y-10253466D01*
X196709696Y-10159832D01*
X196704481Y-10156312D01*
X196829622Y-10031172D01*
X196718527Y-9920077D01*
X196944192Y-9839099D01*
X197109896Y-9313953D01*
X197109896Y-14401800D01*
X196791874Y-14401800D01*
X192269874Y-14401800D01*
X192269874Y-12026000D01*
X192269874Y-10326000D01*
X192249204Y-10219466D01*
X192187696Y-10125832D01*
X192094842Y-10063154D01*
X191985000Y-10041126D01*
X190285000Y-10041126D01*
X190178466Y-10061796D01*
X190084832Y-10123304D01*
X190022154Y-10216158D01*
X190000126Y-10326000D01*
X190000126Y-12026000D01*
X190020796Y-12132534D01*
X190082304Y-12226168D01*
X190175158Y-12288846D01*
X190285000Y-12310874D01*
X191985000Y-12310874D01*
X192091534Y-12290204D01*
X192185168Y-12228696D01*
X192247846Y-12135842D01*
X192269874Y-12026000D01*
X192269874Y-14401800D01*
X190855600Y-14401800D01*
X190855600Y-23698200D01*
X200558400Y-23698200D01*
X200558400Y-35356800D01*
X198153298Y-35356800D01*
X198136892Y-35340365D01*
X197870924Y-35229926D01*
X197582939Y-35229675D01*
X197316779Y-35339650D01*
X197112965Y-35543108D01*
X197002526Y-35809076D01*
X197002275Y-36097061D01*
X197112250Y-36363221D01*
X197315708Y-36567035D01*
X197581676Y-36677474D01*
X197869661Y-36677725D01*
X198135821Y-36567750D01*
X198153001Y-36550600D01*
X202605430Y-36550600D01*
X202782958Y-36728438D01*
X203118917Y-36867941D01*
X203482687Y-36868258D01*
X203818889Y-36729342D01*
X204076338Y-36472342D01*
X204215841Y-36136383D01*
X204216158Y-35772613D01*
X204216158Y-41605200D01*
X204005366Y-41605200D01*
X203852665Y-41541793D01*
X203640466Y-41541608D01*
X203444348Y-41622642D01*
X203294169Y-41772559D01*
X203212793Y-41968535D01*
X203212608Y-42180734D01*
X203293642Y-42376852D01*
X203443559Y-42527031D01*
X203639535Y-42608407D01*
X203851734Y-42608592D01*
X204005638Y-42545000D01*
X211373533Y-42545000D01*
X211526235Y-42608407D01*
X211738434Y-42608592D01*
X211934552Y-42527558D01*
X212084731Y-42377641D01*
X212166107Y-42181665D01*
X212166292Y-41969466D01*
X212166292Y-72923400D01*
X211549374Y-72923400D01*
X211549374Y-67297300D01*
X211549374Y-65773300D01*
X211528704Y-65666766D01*
X211467196Y-65573132D01*
X211374342Y-65510454D01*
X211264500Y-65488426D01*
X210487352Y-65488426D01*
X210487352Y-52355526D01*
X210406318Y-52159408D01*
X210256401Y-52009229D01*
X210060425Y-51927853D01*
X209995232Y-51927796D01*
X204754828Y-46687392D01*
X204622983Y-46599295D01*
X204581852Y-46591113D01*
X204581852Y-45746446D01*
X204500818Y-45550328D01*
X204350901Y-45400149D01*
X204154925Y-45318773D01*
X204089732Y-45318716D01*
X203492448Y-44721432D01*
X203360603Y-44633335D01*
X203205080Y-44602400D01*
X201066492Y-44602400D01*
X201066492Y-43912566D01*
X200985458Y-43716448D01*
X200939400Y-43670309D01*
X200939400Y-42524692D01*
X200984931Y-42479241D01*
X201066307Y-42283265D01*
X201066492Y-42071066D01*
X200985458Y-41874948D01*
X200835541Y-41724769D01*
X200639565Y-41643393D01*
X200427366Y-41643208D01*
X200231248Y-41724242D01*
X200081069Y-41874159D01*
X199999693Y-42070135D01*
X199999508Y-42282334D01*
X200080542Y-42478452D01*
X200126600Y-42524590D01*
X200126600Y-43670207D01*
X200081069Y-43715659D01*
X199999693Y-43911635D01*
X199999508Y-44123834D01*
X200080542Y-44319952D01*
X200230459Y-44470131D01*
X200426435Y-44551507D01*
X200638634Y-44551692D01*
X200834752Y-44470658D01*
X200984931Y-44320741D01*
X201066307Y-44124765D01*
X201066492Y-43912566D01*
X201066492Y-44602400D01*
X200139294Y-44602400D01*
X200083701Y-44546709D01*
X199887725Y-44465333D01*
X199675526Y-44465148D01*
X199479408Y-44546182D01*
X199329229Y-44696099D01*
X199247853Y-44892075D01*
X199247668Y-45104274D01*
X199328702Y-45300392D01*
X199478619Y-45450571D01*
X199674595Y-45531947D01*
X199886794Y-45532132D01*
X200082912Y-45451098D01*
X200118872Y-45415200D01*
X203036744Y-45415200D01*
X203514924Y-45893380D01*
X203514868Y-45957714D01*
X203595902Y-46153832D01*
X203745819Y-46304011D01*
X203941795Y-46385387D01*
X204153994Y-46385572D01*
X204350112Y-46304538D01*
X204500291Y-46154621D01*
X204581667Y-45958645D01*
X204581852Y-45746446D01*
X204581852Y-46591113D01*
X204467460Y-46568360D01*
X201869735Y-46568360D01*
X201178508Y-45877132D01*
X201046663Y-45789035D01*
X200891140Y-45758100D01*
X200019920Y-45758100D01*
X199864397Y-45789035D01*
X199732551Y-45877132D01*
X199694139Y-45915544D01*
X199629806Y-45915488D01*
X199433688Y-45996522D01*
X199283509Y-46146439D01*
X199202133Y-46342415D01*
X199201948Y-46554614D01*
X199282982Y-46750732D01*
X199432899Y-46900911D01*
X199628875Y-46982287D01*
X199841074Y-46982472D01*
X199999564Y-46916985D01*
X199999508Y-46981334D01*
X200080542Y-47177452D01*
X200126600Y-47223590D01*
X200126600Y-47739300D01*
X200157535Y-47894823D01*
X200245632Y-48026668D01*
X201752164Y-49533200D01*
X201752108Y-49597534D01*
X201833142Y-49793652D01*
X201983059Y-49943831D01*
X202179035Y-50025207D01*
X202391234Y-50025392D01*
X202587352Y-49944358D01*
X202737531Y-49794441D01*
X202818907Y-49598465D01*
X202819092Y-49386266D01*
X202738058Y-49190148D01*
X202588141Y-49039969D01*
X202392165Y-48958593D01*
X202326972Y-48958536D01*
X200939400Y-47570964D01*
X200939400Y-47223692D01*
X200984931Y-47178241D01*
X201066307Y-46982265D01*
X201066366Y-46914462D01*
X201414032Y-47262128D01*
X201545877Y-47350225D01*
X201545878Y-47350225D01*
X201701400Y-47381160D01*
X204299124Y-47381160D01*
X208711917Y-51793953D01*
X208704065Y-51790693D01*
X208491866Y-51790508D01*
X208295748Y-51871542D01*
X208145569Y-52021459D01*
X208064193Y-52217435D01*
X208064008Y-52429634D01*
X208145042Y-52625752D01*
X208294959Y-52775931D01*
X208490935Y-52857307D01*
X208556127Y-52857363D01*
X209270564Y-53571800D01*
X209270508Y-53636134D01*
X209351542Y-53832252D01*
X209501459Y-53982431D01*
X209697435Y-54063807D01*
X209909634Y-54063992D01*
X210105752Y-53982958D01*
X210255931Y-53833041D01*
X210337307Y-53637065D01*
X210337492Y-53424866D01*
X210256458Y-53228748D01*
X210106541Y-53078569D01*
X209910565Y-52997193D01*
X209845372Y-52997136D01*
X209839442Y-52991206D01*
X209847295Y-52994467D01*
X210059494Y-52994652D01*
X210255612Y-52913618D01*
X210405791Y-52763701D01*
X210487167Y-52567725D01*
X210487352Y-52355526D01*
X210487352Y-65488426D01*
X209740500Y-65488426D01*
X209633966Y-65509096D01*
X209540332Y-65570604D01*
X209477654Y-65663458D01*
X209455626Y-65773300D01*
X209455626Y-67297300D01*
X209476296Y-67403834D01*
X209537804Y-67497468D01*
X209630658Y-67560146D01*
X209740500Y-67582174D01*
X211264500Y-67582174D01*
X211371034Y-67561504D01*
X211464668Y-67499996D01*
X211527346Y-67407142D01*
X211549374Y-67297300D01*
X211549374Y-72923400D01*
X211544080Y-72923400D01*
X211544080Y-68869062D01*
X211385871Y-68486165D01*
X211093176Y-68192959D01*
X210710556Y-68034081D01*
X210296262Y-68033720D01*
X209913365Y-68191929D01*
X209620159Y-68484624D01*
X209461281Y-68867244D01*
X209460920Y-69281538D01*
X209619129Y-69664435D01*
X209911824Y-69957641D01*
X210294444Y-70116519D01*
X210708738Y-70116880D01*
X211091635Y-69958671D01*
X211384841Y-69665976D01*
X211543719Y-69283356D01*
X211544080Y-68869062D01*
X211544080Y-72923400D01*
X209327411Y-72923400D01*
X209327411Y-66680134D01*
X209278939Y-66146780D01*
X209168088Y-65879162D01*
X208946346Y-65802901D01*
X208694899Y-66054348D01*
X208694899Y-65551454D01*
X208618638Y-65329712D01*
X208107334Y-65170389D01*
X207573980Y-65218861D01*
X207306362Y-65329712D01*
X207230101Y-65551454D01*
X207962500Y-66283853D01*
X208694899Y-65551454D01*
X208694899Y-66054348D01*
X208213947Y-66535300D01*
X208946346Y-67267699D01*
X209168088Y-67191438D01*
X209327411Y-66680134D01*
X209327411Y-72923400D01*
X209004080Y-72923400D01*
X209004080Y-68869062D01*
X208845871Y-68486165D01*
X208694899Y-68334929D01*
X208694899Y-67519146D01*
X207962500Y-66786747D01*
X207711053Y-67038194D01*
X207711053Y-66535300D01*
X206978654Y-65802901D01*
X206756912Y-65879162D01*
X206701606Y-66056650D01*
X206628088Y-65879162D01*
X206406346Y-65802901D01*
X206154899Y-66054348D01*
X206154899Y-65551454D01*
X206078638Y-65329712D01*
X205567334Y-65170389D01*
X205033980Y-65218861D01*
X204766362Y-65329712D01*
X204690101Y-65551454D01*
X205422500Y-66283853D01*
X206154899Y-65551454D01*
X206154899Y-66054348D01*
X205673947Y-66535300D01*
X206406346Y-67267699D01*
X206628088Y-67191438D01*
X206683393Y-67013949D01*
X206756912Y-67191438D01*
X206978654Y-67267699D01*
X207711053Y-66535300D01*
X207711053Y-67038194D01*
X207230101Y-67519146D01*
X207306362Y-67740888D01*
X207817666Y-67900211D01*
X208351020Y-67851739D01*
X208618638Y-67740888D01*
X208694899Y-67519146D01*
X208694899Y-68334929D01*
X208553176Y-68192959D01*
X208170556Y-68034081D01*
X207756262Y-68033720D01*
X207373365Y-68191929D01*
X207080159Y-68484624D01*
X206921281Y-68867244D01*
X206920920Y-69281538D01*
X207079129Y-69664435D01*
X207371824Y-69957641D01*
X207754444Y-70116519D01*
X208168738Y-70116880D01*
X208551635Y-69958671D01*
X208844841Y-69665976D01*
X209003719Y-69283356D01*
X209004080Y-68869062D01*
X209004080Y-72923400D01*
X206464080Y-72923400D01*
X206464080Y-68869062D01*
X206305871Y-68486165D01*
X206154899Y-68334929D01*
X206154899Y-67519146D01*
X205422500Y-66786747D01*
X205171053Y-67038194D01*
X205171053Y-66535300D01*
X204438654Y-65802901D01*
X204216912Y-65879162D01*
X204161606Y-66056650D01*
X204088088Y-65879162D01*
X203866346Y-65802901D01*
X203614899Y-66054348D01*
X203614899Y-65551454D01*
X203538638Y-65329712D01*
X203027334Y-65170389D01*
X202493980Y-65218861D01*
X202226362Y-65329712D01*
X202150101Y-65551454D01*
X202882500Y-66283853D01*
X203614899Y-65551454D01*
X203614899Y-66054348D01*
X203133947Y-66535300D01*
X203866346Y-67267699D01*
X204088088Y-67191438D01*
X204143393Y-67013949D01*
X204216912Y-67191438D01*
X204438654Y-67267699D01*
X205171053Y-66535300D01*
X205171053Y-67038194D01*
X204690101Y-67519146D01*
X204766362Y-67740888D01*
X205277666Y-67900211D01*
X205811020Y-67851739D01*
X206078638Y-67740888D01*
X206154899Y-67519146D01*
X206154899Y-68334929D01*
X206013176Y-68192959D01*
X205630556Y-68034081D01*
X205216262Y-68033720D01*
X204833365Y-68191929D01*
X204540159Y-68484624D01*
X204381281Y-68867244D01*
X204380920Y-69281538D01*
X204539129Y-69664435D01*
X204831824Y-69957641D01*
X205214444Y-70116519D01*
X205628738Y-70116880D01*
X206011635Y-69958671D01*
X206304841Y-69665976D01*
X206463719Y-69283356D01*
X206464080Y-68869062D01*
X206464080Y-72923400D01*
X203924080Y-72923400D01*
X203924080Y-68869062D01*
X203765871Y-68486165D01*
X203614899Y-68334929D01*
X203614899Y-67519146D01*
X202882500Y-66786747D01*
X202631053Y-67038194D01*
X202631053Y-66535300D01*
X201898654Y-65802901D01*
X201676912Y-65879162D01*
X201621606Y-66056650D01*
X201548088Y-65879162D01*
X201326346Y-65802901D01*
X201074899Y-66054348D01*
X201074899Y-65551454D01*
X200998638Y-65329712D01*
X200487334Y-65170389D01*
X199953980Y-65218861D01*
X199686362Y-65329712D01*
X199610101Y-65551454D01*
X200342500Y-66283853D01*
X201074899Y-65551454D01*
X201074899Y-66054348D01*
X200593947Y-66535300D01*
X201326346Y-67267699D01*
X201548088Y-67191438D01*
X201603393Y-67013949D01*
X201676912Y-67191438D01*
X201898654Y-67267699D01*
X202631053Y-66535300D01*
X202631053Y-67038194D01*
X202150101Y-67519146D01*
X202226362Y-67740888D01*
X202737666Y-67900211D01*
X203271020Y-67851739D01*
X203538638Y-67740888D01*
X203614899Y-67519146D01*
X203614899Y-68334929D01*
X203473176Y-68192959D01*
X203090556Y-68034081D01*
X202676262Y-68033720D01*
X202293365Y-68191929D01*
X202000159Y-68484624D01*
X201841281Y-68867244D01*
X201840920Y-69281538D01*
X201999129Y-69664435D01*
X202291824Y-69957641D01*
X202674444Y-70116519D01*
X203088738Y-70116880D01*
X203471635Y-69958671D01*
X203764841Y-69665976D01*
X203923719Y-69283356D01*
X203924080Y-68869062D01*
X203924080Y-72923400D01*
X201384080Y-72923400D01*
X201384080Y-68869062D01*
X201225871Y-68486165D01*
X201074899Y-68334929D01*
X201074899Y-67519146D01*
X200342500Y-66786747D01*
X200091053Y-67038194D01*
X200091053Y-66535300D01*
X199358654Y-65802901D01*
X199136912Y-65879162D01*
X198977589Y-66390466D01*
X199026061Y-66923820D01*
X199136912Y-67191438D01*
X199358654Y-67267699D01*
X200091053Y-66535300D01*
X200091053Y-67038194D01*
X199610101Y-67519146D01*
X199686362Y-67740888D01*
X200197666Y-67900211D01*
X200731020Y-67851739D01*
X200998638Y-67740888D01*
X201074899Y-67519146D01*
X201074899Y-68334929D01*
X200933176Y-68192959D01*
X200550556Y-68034081D01*
X200136262Y-68033720D01*
X199753365Y-68191929D01*
X199460159Y-68484624D01*
X199301281Y-68867244D01*
X199300920Y-69281538D01*
X199459129Y-69664435D01*
X199751824Y-69957641D01*
X200134444Y-70116519D01*
X200548738Y-70116880D01*
X200931635Y-69958671D01*
X201224841Y-69665976D01*
X201383719Y-69283356D01*
X201384080Y-68869062D01*
X201384080Y-72923400D01*
X195550400Y-72923400D01*
X195550400Y-66548000D01*
X195388309Y-65733114D01*
X194926713Y-65042287D01*
X194235886Y-64580691D01*
X193560792Y-64446406D01*
X193560792Y-47659066D01*
X193479758Y-47462948D01*
X193329841Y-47312769D01*
X193133865Y-47231393D01*
X192921666Y-47231208D01*
X192725548Y-47312242D01*
X192679409Y-47358300D01*
X192511546Y-47358300D01*
X192641031Y-47229041D01*
X192722407Y-47033065D01*
X192722592Y-46820866D01*
X192641558Y-46624748D01*
X192491641Y-46474569D01*
X192295665Y-46393193D01*
X192083466Y-46393008D01*
X191887348Y-46474042D01*
X191841209Y-46520100D01*
X190212992Y-46520100D01*
X190167541Y-46474569D01*
X189971565Y-46393193D01*
X189759366Y-46393008D01*
X189563248Y-46474042D01*
X189413069Y-46623959D01*
X189331693Y-46819935D01*
X189331508Y-47032134D01*
X189412542Y-47228252D01*
X189562459Y-47378431D01*
X189758435Y-47459807D01*
X189970634Y-47459992D01*
X190166752Y-47378958D01*
X190212890Y-47332900D01*
X190368053Y-47332900D01*
X190238569Y-47462159D01*
X190157193Y-47658135D01*
X190157008Y-47870334D01*
X190238042Y-48066452D01*
X190387959Y-48216631D01*
X190583935Y-48298007D01*
X190796134Y-48298192D01*
X190992252Y-48217158D01*
X191038390Y-48171100D01*
X192679307Y-48171100D01*
X192724759Y-48216631D01*
X192920735Y-48298007D01*
X193132934Y-48298192D01*
X193329052Y-48217158D01*
X193479231Y-48067241D01*
X193560607Y-47871265D01*
X193560792Y-47659066D01*
X193560792Y-64446406D01*
X193421000Y-64418600D01*
X192606114Y-64580691D01*
X191915287Y-65042287D01*
X191453691Y-65733114D01*
X191291600Y-66548000D01*
X191453691Y-67362886D01*
X191915287Y-68053713D01*
X192606114Y-68515309D01*
X193421000Y-68677400D01*
X194235886Y-68515309D01*
X194926713Y-68053713D01*
X195388309Y-67362886D01*
X195550400Y-66548000D01*
X195550400Y-72923400D01*
X186055092Y-72923400D01*
X186055092Y-30285466D01*
X185974058Y-30089348D01*
X185928000Y-30043209D01*
X185928000Y-28719792D01*
X185973531Y-28674341D01*
X186054907Y-28478365D01*
X186055092Y-28266166D01*
X185974058Y-28070048D01*
X185824141Y-27919869D01*
X185628165Y-27838493D01*
X185415966Y-27838308D01*
X185219848Y-27919342D01*
X185069669Y-28069259D01*
X184988293Y-28265235D01*
X184988108Y-28477434D01*
X185069142Y-28673552D01*
X185115200Y-28719690D01*
X185115200Y-30043107D01*
X185069669Y-30088559D01*
X184988293Y-30284535D01*
X184988108Y-30496734D01*
X185069142Y-30692852D01*
X185219059Y-30843031D01*
X185415035Y-30924407D01*
X185627234Y-30924592D01*
X185823352Y-30843558D01*
X185973531Y-30693641D01*
X186054907Y-30497665D01*
X186055092Y-30285466D01*
X186055092Y-72923400D01*
X181533892Y-72923400D01*
X181533892Y-26716766D01*
X181452858Y-26520648D01*
X181302941Y-26370469D01*
X181106965Y-26289093D01*
X180894766Y-26288908D01*
X180698648Y-26369942D01*
X180652509Y-26416000D01*
X176839892Y-26416000D01*
X176794441Y-26370469D01*
X176598465Y-26289093D01*
X176386266Y-26288908D01*
X176190148Y-26369942D01*
X176039969Y-26519859D01*
X175958593Y-26715835D01*
X175958408Y-26928034D01*
X176039442Y-27124152D01*
X176189359Y-27274331D01*
X176385335Y-27355707D01*
X176597534Y-27355892D01*
X176793652Y-27274858D01*
X176839790Y-27228800D01*
X180652407Y-27228800D01*
X180697859Y-27274331D01*
X180893835Y-27355707D01*
X181106034Y-27355892D01*
X181302152Y-27274858D01*
X181452331Y-27124941D01*
X181533707Y-26928965D01*
X181533892Y-26716766D01*
X181533892Y-72923400D01*
X181495792Y-72923400D01*
X181495792Y-28380466D01*
X181414758Y-28184348D01*
X181264841Y-28034169D01*
X181068865Y-27952793D01*
X180873311Y-27952622D01*
X180873492Y-27745466D01*
X180792458Y-27549348D01*
X180642541Y-27399169D01*
X180446565Y-27317793D01*
X180234366Y-27317608D01*
X180038248Y-27398642D01*
X179992109Y-27444700D01*
X179456092Y-27444700D01*
X179410641Y-27399169D01*
X179214665Y-27317793D01*
X179002466Y-27317608D01*
X178806348Y-27398642D01*
X178656169Y-27548559D01*
X178574793Y-27744535D01*
X178574608Y-27956734D01*
X178625416Y-28079700D01*
X177500292Y-28079700D01*
X177454841Y-28034169D01*
X177258865Y-27952793D01*
X177046666Y-27952608D01*
X176850548Y-28033642D01*
X176700369Y-28183559D01*
X176618993Y-28379535D01*
X176618808Y-28591734D01*
X176699842Y-28787852D01*
X176849759Y-28938031D01*
X177045735Y-29019407D01*
X177257934Y-29019592D01*
X177454052Y-28938558D01*
X177500190Y-28892500D01*
X180614307Y-28892500D01*
X180659759Y-28938031D01*
X180855735Y-29019407D01*
X181067934Y-29019592D01*
X181264052Y-28938558D01*
X181414231Y-28788641D01*
X181495607Y-28592665D01*
X181495792Y-28380466D01*
X181495792Y-72923400D01*
X181483092Y-72923400D01*
X181483092Y-31428466D01*
X181402058Y-31232348D01*
X181284841Y-31114926D01*
X181401531Y-30998441D01*
X181482907Y-30802465D01*
X181483092Y-30590266D01*
X181402058Y-30394148D01*
X181284841Y-30276726D01*
X181401531Y-30160241D01*
X181482907Y-29964265D01*
X181483092Y-29752066D01*
X181402058Y-29555948D01*
X181252141Y-29405769D01*
X181056165Y-29324393D01*
X180843966Y-29324208D01*
X180647848Y-29405242D01*
X180601709Y-29451300D01*
X177538392Y-29451300D01*
X177492941Y-29405769D01*
X177296965Y-29324393D01*
X177084766Y-29324208D01*
X176888648Y-29405242D01*
X176738469Y-29555159D01*
X176657093Y-29751135D01*
X176656908Y-29963334D01*
X176737942Y-30159452D01*
X176855158Y-30276873D01*
X176738469Y-30393359D01*
X176657093Y-30589335D01*
X176656908Y-30801534D01*
X176737942Y-30997652D01*
X176855158Y-31115073D01*
X176738469Y-31231559D01*
X176657093Y-31427535D01*
X176656908Y-31639734D01*
X176737942Y-31835852D01*
X176867858Y-31965995D01*
X176738469Y-32095159D01*
X176657093Y-32291135D01*
X176656908Y-32503334D01*
X176737942Y-32699452D01*
X176887859Y-32849631D01*
X177083835Y-32931007D01*
X177296034Y-32931192D01*
X177492152Y-32850158D01*
X177538290Y-32804100D01*
X180588907Y-32804100D01*
X180634359Y-32849631D01*
X180830335Y-32931007D01*
X181042534Y-32931192D01*
X181238652Y-32850158D01*
X181388831Y-32700241D01*
X181470207Y-32504265D01*
X181470392Y-32292066D01*
X181389358Y-32095948D01*
X181265780Y-31972154D01*
X181401531Y-31836641D01*
X181482907Y-31640665D01*
X181483092Y-31428466D01*
X181483092Y-72923400D01*
X161264600Y-72923400D01*
X161264600Y-70502846D01*
X161327974Y-70350224D01*
X161328225Y-70062239D01*
X161218250Y-69796079D01*
X161014792Y-69592265D01*
X160748824Y-69481826D01*
X160460839Y-69481575D01*
X160194679Y-69591550D01*
X159990865Y-69795008D01*
X159880426Y-70060976D01*
X159880175Y-70348961D01*
X159943800Y-70502945D01*
X159943800Y-72923400D01*
X159042192Y-72923400D01*
X159042192Y-67534566D01*
X158961158Y-67338448D01*
X158811241Y-67188269D01*
X158615265Y-67106893D01*
X158403066Y-67106708D01*
X158230283Y-67178100D01*
X157794203Y-67178100D01*
X157741476Y-67097832D01*
X157741067Y-67097556D01*
X157794836Y-67017900D01*
X158249433Y-67017900D01*
X158402135Y-67081307D01*
X158614334Y-67081492D01*
X158810452Y-67000458D01*
X158960631Y-66850541D01*
X159042007Y-66654565D01*
X159042192Y-66442366D01*
X158961158Y-66246248D01*
X158811241Y-66096069D01*
X158615265Y-66014693D01*
X158403066Y-66014508D01*
X158249161Y-66078100D01*
X157794203Y-66078100D01*
X157741476Y-65997832D01*
X157741067Y-65997556D01*
X157794836Y-65917900D01*
X158261233Y-65917900D01*
X158402135Y-65976407D01*
X158614334Y-65976592D01*
X158810452Y-65895558D01*
X158960631Y-65745641D01*
X159042007Y-65549665D01*
X159042192Y-65337466D01*
X158961158Y-65141348D01*
X158811241Y-64991169D01*
X158615265Y-64909793D01*
X158403066Y-64909608D01*
X158237302Y-64978100D01*
X157794203Y-64978100D01*
X157741476Y-64897832D01*
X157648622Y-64835154D01*
X157538780Y-64813126D01*
X156238780Y-64813126D01*
X156132246Y-64833796D01*
X156038612Y-64895304D01*
X155975934Y-64988158D01*
X155953906Y-65098000D01*
X155953906Y-65798000D01*
X155974576Y-65904534D01*
X156036084Y-65998168D01*
X156036492Y-65998443D01*
X155975934Y-66088158D01*
X155953906Y-66198000D01*
X155953906Y-66898000D01*
X155974576Y-67004534D01*
X156036084Y-67098168D01*
X156036492Y-67098443D01*
X155975934Y-67188158D01*
X155953906Y-67298000D01*
X155953906Y-67998000D01*
X155974576Y-68104534D01*
X156036084Y-68198168D01*
X156128938Y-68260846D01*
X156238780Y-68282874D01*
X157538780Y-68282874D01*
X157645314Y-68262204D01*
X157738948Y-68200696D01*
X157794836Y-68117900D01*
X158268217Y-68117900D01*
X158402135Y-68173507D01*
X158614334Y-68173692D01*
X158810452Y-68092658D01*
X158960631Y-67942741D01*
X159042007Y-67746765D01*
X159042192Y-67534566D01*
X159042192Y-72923400D01*
X157650360Y-72923400D01*
X157650360Y-70761362D01*
X157492151Y-70378465D01*
X157199456Y-70085259D01*
X156816836Y-69926381D01*
X156402542Y-69926020D01*
X156019645Y-70084229D01*
X155726439Y-70376924D01*
X155567561Y-70759544D01*
X155567200Y-71173838D01*
X155725409Y-71556735D01*
X156018104Y-71849941D01*
X156400724Y-72008819D01*
X156815018Y-72009180D01*
X157197915Y-71850971D01*
X157491121Y-71558276D01*
X157649999Y-71175656D01*
X157650360Y-70761362D01*
X157650360Y-72923400D01*
X155414980Y-72923400D01*
X155414980Y-71845804D01*
X155414980Y-71613395D01*
X155414980Y-71291450D01*
X155414980Y-70643750D01*
X155414980Y-70321805D01*
X155414980Y-70089396D01*
X155326041Y-69874678D01*
X155161703Y-69710339D01*
X154946985Y-69621400D01*
X154723654Y-69621400D01*
X154723654Y-67998000D01*
X154723654Y-67298000D01*
X154702984Y-67191466D01*
X154641476Y-67097832D01*
X154641067Y-67097556D01*
X154701626Y-67007842D01*
X154723654Y-66898000D01*
X154723654Y-66198000D01*
X154702984Y-66091466D01*
X154641476Y-65997832D01*
X154641067Y-65997556D01*
X154701626Y-65907842D01*
X154723654Y-65798000D01*
X154723654Y-65098000D01*
X154702984Y-64991466D01*
X154641476Y-64897832D01*
X154548622Y-64835154D01*
X154438780Y-64813126D01*
X153138780Y-64813126D01*
X153032246Y-64833796D01*
X152938612Y-64895304D01*
X152875934Y-64988158D01*
X152853906Y-65098000D01*
X152853906Y-65798000D01*
X152874576Y-65904534D01*
X152936084Y-65998168D01*
X152936492Y-65998443D01*
X152875934Y-66088158D01*
X152853906Y-66198000D01*
X152853906Y-66898000D01*
X152874576Y-67004534D01*
X152936084Y-67098168D01*
X152936492Y-67098443D01*
X152875934Y-67188158D01*
X152853906Y-67298000D01*
X152853906Y-67998000D01*
X152874576Y-68104534D01*
X152936084Y-68198168D01*
X153028938Y-68260846D01*
X153128380Y-68280788D01*
X153128380Y-68538664D01*
X153060526Y-68702076D01*
X153060275Y-68990061D01*
X153170250Y-69256221D01*
X153373708Y-69460035D01*
X153639676Y-69570474D01*
X153927661Y-69570725D01*
X154193821Y-69460750D01*
X154397635Y-69257292D01*
X154508074Y-68991324D01*
X154508325Y-68703339D01*
X154449180Y-68560197D01*
X154449180Y-68280856D01*
X154545314Y-68262204D01*
X154638948Y-68200696D01*
X154701626Y-68107842D01*
X154723654Y-67998000D01*
X154723654Y-69621400D01*
X154392630Y-69621400D01*
X154246580Y-69767450D01*
X154246580Y-70789800D01*
X155268930Y-70789800D01*
X155414980Y-70643750D01*
X155414980Y-71291450D01*
X155268930Y-71145400D01*
X154246580Y-71145400D01*
X154246580Y-72167750D01*
X154392630Y-72313800D01*
X154946985Y-72313800D01*
X155161703Y-72224861D01*
X155326041Y-72060522D01*
X155414980Y-71845804D01*
X155414980Y-72923400D01*
X153890980Y-72923400D01*
X153890980Y-72167750D01*
X153890980Y-71145400D01*
X153890980Y-70789800D01*
X153890980Y-69767450D01*
X153744930Y-69621400D01*
X153190575Y-69621400D01*
X152975857Y-69710339D01*
X152811519Y-69874678D01*
X152722580Y-70089396D01*
X152722580Y-70321805D01*
X152722580Y-70643750D01*
X152868630Y-70789800D01*
X153890980Y-70789800D01*
X153890980Y-71145400D01*
X152868630Y-71145400D01*
X152722580Y-71291450D01*
X152722580Y-71613395D01*
X152722580Y-71845804D01*
X152811519Y-72060522D01*
X152975857Y-72224861D01*
X153190575Y-72313800D01*
X153744930Y-72313800D01*
X153890980Y-72167750D01*
X153890980Y-72923400D01*
X148667080Y-72923400D01*
X148667080Y-6019800D01*
X148504989Y-5204914D01*
X148043393Y-4514087D01*
X147352566Y-4052491D01*
X146537680Y-3890400D01*
X145722794Y-4052491D01*
X145031967Y-4514087D01*
X144570371Y-5204914D01*
X144408280Y-6019800D01*
X144570371Y-6834686D01*
X145031967Y-7525513D01*
X145722794Y-7987109D01*
X146537680Y-8149200D01*
X147352566Y-7987109D01*
X148043393Y-7525513D01*
X148504989Y-6834686D01*
X148667080Y-6019800D01*
X148667080Y-72923400D01*
X119375800Y-72923400D01*
X119375800Y-66548000D01*
X119213709Y-65733114D01*
X118752113Y-65042287D01*
X118061286Y-64580691D01*
X117246400Y-64418600D01*
X116431514Y-64580691D01*
X115740687Y-65042287D01*
X115279091Y-65733114D01*
X115117000Y-66548000D01*
X115279091Y-67362886D01*
X115740687Y-68053713D01*
X116431514Y-68515309D01*
X117246400Y-68677400D01*
X118061286Y-68515309D01*
X118752113Y-68053713D01*
X119213709Y-67362886D01*
X119375800Y-66548000D01*
X119375800Y-72923400D01*
X85064600Y-72923400D01*
X85064600Y-70502846D01*
X85127974Y-70350224D01*
X85128225Y-70062239D01*
X85018250Y-69796079D01*
X84814792Y-69592265D01*
X84548824Y-69481826D01*
X84260839Y-69481575D01*
X83994679Y-69591550D01*
X83790865Y-69795008D01*
X83680426Y-70060976D01*
X83680175Y-70348961D01*
X83743800Y-70502945D01*
X83743800Y-72923400D01*
X82842192Y-72923400D01*
X82842192Y-67547266D01*
X82761158Y-67351148D01*
X82611241Y-67200969D01*
X82415265Y-67119593D01*
X82203066Y-67119408D01*
X82061019Y-67178100D01*
X81594203Y-67178100D01*
X81541476Y-67097832D01*
X81541067Y-67097556D01*
X81594836Y-67017900D01*
X82049433Y-67017900D01*
X82202135Y-67081307D01*
X82414334Y-67081492D01*
X82610452Y-67000458D01*
X82760631Y-66850541D01*
X82842007Y-66654565D01*
X82842192Y-66442366D01*
X82761158Y-66246248D01*
X82611241Y-66096069D01*
X82415265Y-66014693D01*
X82203066Y-66014508D01*
X82049161Y-66078100D01*
X81594203Y-66078100D01*
X81541476Y-65997832D01*
X81541067Y-65997556D01*
X81594836Y-65917900D01*
X82061233Y-65917900D01*
X82202135Y-65976407D01*
X82414334Y-65976592D01*
X82610452Y-65895558D01*
X82760631Y-65745641D01*
X82842007Y-65549665D01*
X82842192Y-65337466D01*
X82761158Y-65141348D01*
X82611241Y-64991169D01*
X82415265Y-64909793D01*
X82203066Y-64909608D01*
X82037302Y-64978100D01*
X81594203Y-64978100D01*
X81541476Y-64897832D01*
X81448622Y-64835154D01*
X81338780Y-64813126D01*
X80038780Y-64813126D01*
X79932246Y-64833796D01*
X79838612Y-64895304D01*
X79775934Y-64988158D01*
X79753906Y-65098000D01*
X79753906Y-65798000D01*
X79774576Y-65904534D01*
X79836084Y-65998168D01*
X79836492Y-65998443D01*
X79775934Y-66088158D01*
X79753906Y-66198000D01*
X79753906Y-66898000D01*
X79774576Y-67004534D01*
X79836084Y-67098168D01*
X79836492Y-67098443D01*
X79775934Y-67188158D01*
X79753906Y-67298000D01*
X79753906Y-67998000D01*
X79774576Y-68104534D01*
X79836084Y-68198168D01*
X79928938Y-68260846D01*
X80038780Y-68282874D01*
X81338780Y-68282874D01*
X81445314Y-68262204D01*
X81538948Y-68200696D01*
X81594836Y-68117900D01*
X82037632Y-68117900D01*
X82202135Y-68186207D01*
X82414334Y-68186392D01*
X82610452Y-68105358D01*
X82760631Y-67955441D01*
X82842007Y-67759465D01*
X82842192Y-67547266D01*
X82842192Y-72923400D01*
X81450360Y-72923400D01*
X81450360Y-70761362D01*
X81292151Y-70378465D01*
X80999456Y-70085259D01*
X80616836Y-69926381D01*
X80202542Y-69926020D01*
X79819645Y-70084229D01*
X79526439Y-70376924D01*
X79367561Y-70759544D01*
X79367200Y-71173838D01*
X79525409Y-71556735D01*
X79818104Y-71849941D01*
X80200724Y-72008819D01*
X80615018Y-72009180D01*
X80997915Y-71850971D01*
X81291121Y-71558276D01*
X81449999Y-71175656D01*
X81450360Y-70761362D01*
X81450360Y-72923400D01*
X79214980Y-72923400D01*
X79214980Y-71845804D01*
X79214980Y-71613395D01*
X79214980Y-71291450D01*
X79214980Y-70643750D01*
X79214980Y-70321805D01*
X79214980Y-70089396D01*
X79126041Y-69874678D01*
X78961703Y-69710339D01*
X78746985Y-69621400D01*
X78523654Y-69621400D01*
X78523654Y-67998000D01*
X78523654Y-67298000D01*
X78502984Y-67191466D01*
X78441476Y-67097832D01*
X78441067Y-67097556D01*
X78501626Y-67007842D01*
X78523654Y-66898000D01*
X78523654Y-66198000D01*
X78502984Y-66091466D01*
X78441476Y-65997832D01*
X78441067Y-65997556D01*
X78501626Y-65907842D01*
X78523654Y-65798000D01*
X78523654Y-65098000D01*
X78502984Y-64991466D01*
X78441476Y-64897832D01*
X78348622Y-64835154D01*
X78238780Y-64813126D01*
X76938780Y-64813126D01*
X76832246Y-64833796D01*
X76738612Y-64895304D01*
X76675934Y-64988158D01*
X76653906Y-65098000D01*
X76653906Y-65798000D01*
X76674576Y-65904534D01*
X76736084Y-65998168D01*
X76736492Y-65998443D01*
X76675934Y-66088158D01*
X76653906Y-66198000D01*
X76653906Y-66898000D01*
X76674576Y-67004534D01*
X76736084Y-67098168D01*
X76736492Y-67098443D01*
X76675934Y-67188158D01*
X76653906Y-67298000D01*
X76653906Y-67998000D01*
X76674576Y-68104534D01*
X76736084Y-68198168D01*
X76828938Y-68260846D01*
X76928380Y-68280788D01*
X76928380Y-68551364D01*
X76860526Y-68714776D01*
X76860275Y-69002761D01*
X76970250Y-69268921D01*
X77173708Y-69472735D01*
X77439676Y-69583174D01*
X77727661Y-69583425D01*
X77993821Y-69473450D01*
X78197635Y-69269992D01*
X78308074Y-69004024D01*
X78308325Y-68716039D01*
X78249180Y-68572897D01*
X78249180Y-68280856D01*
X78345314Y-68262204D01*
X78438948Y-68200696D01*
X78501626Y-68107842D01*
X78523654Y-67998000D01*
X78523654Y-69621400D01*
X78192630Y-69621400D01*
X78046580Y-69767450D01*
X78046580Y-70789800D01*
X79068930Y-70789800D01*
X79214980Y-70643750D01*
X79214980Y-71291450D01*
X79068930Y-71145400D01*
X78046580Y-71145400D01*
X78046580Y-72167750D01*
X78192630Y-72313800D01*
X78746985Y-72313800D01*
X78961703Y-72224861D01*
X79126041Y-72060522D01*
X79214980Y-71845804D01*
X79214980Y-72923400D01*
X77690980Y-72923400D01*
X77690980Y-72167750D01*
X77690980Y-71145400D01*
X77690980Y-70789800D01*
X77690980Y-69767450D01*
X77544930Y-69621400D01*
X76990575Y-69621400D01*
X76775857Y-69710339D01*
X76611519Y-69874678D01*
X76522580Y-70089396D01*
X76522580Y-70321805D01*
X76522580Y-70643750D01*
X76668630Y-70789800D01*
X77690980Y-70789800D01*
X77690980Y-71145400D01*
X76668630Y-71145400D01*
X76522580Y-71291450D01*
X76522580Y-71613395D01*
X76522580Y-71845804D01*
X76611519Y-72060522D01*
X76775857Y-72224861D01*
X76990575Y-72313800D01*
X77544930Y-72313800D01*
X77690980Y-72167750D01*
X77690980Y-72923400D01*
X43175800Y-72923400D01*
X43175800Y-66548000D01*
X43013709Y-65733114D01*
X42552113Y-65042287D01*
X41861286Y-64580691D01*
X41046400Y-64418600D01*
X40231514Y-64580691D01*
X39540687Y-65042287D01*
X39079091Y-65733114D01*
X38917000Y-66548000D01*
X39079091Y-67362886D01*
X39540687Y-68053713D01*
X40231514Y-68515309D01*
X41046400Y-68677400D01*
X41861286Y-68515309D01*
X42552113Y-68053713D01*
X43013709Y-67362886D01*
X43175800Y-66548000D01*
X43175800Y-72923400D01*
X9442946Y-72923400D01*
X8864600Y-72345054D01*
X8864600Y-70502846D01*
X8927974Y-70350224D01*
X8928225Y-70062239D01*
X8818250Y-69796079D01*
X8614792Y-69592265D01*
X8348824Y-69481826D01*
X8060839Y-69481575D01*
X7794679Y-69591550D01*
X7590865Y-69795008D01*
X7480426Y-70060976D01*
X7480175Y-70348961D01*
X7543800Y-70502945D01*
X7543800Y-72618600D01*
X7594070Y-72871324D01*
X7737227Y-73085573D01*
X8440253Y-73788600D01*
X6667592Y-73788600D01*
X6667592Y-67547266D01*
X6586558Y-67351148D01*
X6436641Y-67200969D01*
X6240665Y-67119593D01*
X6028466Y-67119408D01*
X5886419Y-67178100D01*
X5394203Y-67178100D01*
X5341476Y-67097832D01*
X5341067Y-67097556D01*
X5394836Y-67017900D01*
X5874833Y-67017900D01*
X6027535Y-67081307D01*
X6239734Y-67081492D01*
X6435852Y-67000458D01*
X6586031Y-66850541D01*
X6667407Y-66654565D01*
X6667592Y-66442366D01*
X6586558Y-66246248D01*
X6436641Y-66096069D01*
X6240665Y-66014693D01*
X6028466Y-66014508D01*
X5874561Y-66078100D01*
X5394203Y-66078100D01*
X5341476Y-65997832D01*
X5341067Y-65997556D01*
X5394836Y-65917900D01*
X5856048Y-65917900D01*
X6027535Y-65989107D01*
X6239734Y-65989292D01*
X6435852Y-65908258D01*
X6586031Y-65758341D01*
X6667407Y-65562365D01*
X6667592Y-65350166D01*
X6586558Y-65154048D01*
X6436641Y-65003869D01*
X6240665Y-64922493D01*
X6028466Y-64922308D01*
X5893438Y-64978100D01*
X5394203Y-64978100D01*
X5341476Y-64897832D01*
X5248622Y-64835154D01*
X5138780Y-64813126D01*
X3838780Y-64813126D01*
X3732246Y-64833796D01*
X3638612Y-64895304D01*
X3575934Y-64988158D01*
X3553906Y-65098000D01*
X3553906Y-65798000D01*
X3574576Y-65904534D01*
X3636084Y-65998168D01*
X3636492Y-65998443D01*
X3575934Y-66088158D01*
X3553906Y-66198000D01*
X3553906Y-66898000D01*
X3574576Y-67004534D01*
X3636084Y-67098168D01*
X3636492Y-67098443D01*
X3575934Y-67188158D01*
X3553906Y-67298000D01*
X3553906Y-67998000D01*
X3574576Y-68104534D01*
X3636084Y-68198168D01*
X3728938Y-68260846D01*
X3838780Y-68282874D01*
X5138780Y-68282874D01*
X5245314Y-68262204D01*
X5338948Y-68200696D01*
X5394836Y-68117900D01*
X5863032Y-68117900D01*
X6027535Y-68186207D01*
X6239734Y-68186392D01*
X6435852Y-68105358D01*
X6586031Y-67955441D01*
X6667407Y-67759465D01*
X6667592Y-67547266D01*
X6667592Y-73788600D01*
X5250360Y-73788600D01*
X5250360Y-70761362D01*
X5092151Y-70378465D01*
X4799456Y-70085259D01*
X4416836Y-69926381D01*
X4002542Y-69926020D01*
X3619645Y-70084229D01*
X3326439Y-70376924D01*
X3167561Y-70759544D01*
X3167200Y-71173838D01*
X3325409Y-71556735D01*
X3618104Y-71849941D01*
X4000724Y-72008819D01*
X4415018Y-72009180D01*
X4797915Y-71850971D01*
X5091121Y-71558276D01*
X5249999Y-71175656D01*
X5250360Y-70761362D01*
X5250360Y-73788600D01*
X3014980Y-73788600D01*
X3014980Y-71845804D01*
X3014980Y-71613395D01*
X3014980Y-71291450D01*
X3014980Y-70643750D01*
X3014980Y-70321805D01*
X3014980Y-70089396D01*
X2926041Y-69874678D01*
X2761703Y-69710339D01*
X2546985Y-69621400D01*
X2323654Y-69621400D01*
X2323654Y-67998000D01*
X2323654Y-67298000D01*
X2302984Y-67191466D01*
X2241476Y-67097832D01*
X2241067Y-67097556D01*
X2301626Y-67007842D01*
X2323654Y-66898000D01*
X2323654Y-66198000D01*
X2302984Y-66091466D01*
X2241476Y-65997832D01*
X2241067Y-65997556D01*
X2301626Y-65907842D01*
X2323654Y-65798000D01*
X2323654Y-65098000D01*
X2302984Y-64991466D01*
X2241476Y-64897832D01*
X2148622Y-64835154D01*
X2038780Y-64813126D01*
X738780Y-64813126D01*
X632246Y-64833796D01*
X538612Y-64895304D01*
X475934Y-64988158D01*
X453906Y-65098000D01*
X453906Y-65798000D01*
X474576Y-65904534D01*
X536084Y-65998168D01*
X536492Y-65998443D01*
X475934Y-66088158D01*
X453906Y-66198000D01*
X453906Y-66898000D01*
X474576Y-67004534D01*
X536084Y-67098168D01*
X536492Y-67098443D01*
X475934Y-67188158D01*
X453906Y-67298000D01*
X453906Y-67998000D01*
X474576Y-68104534D01*
X536084Y-68198168D01*
X628938Y-68260846D01*
X728380Y-68280788D01*
X728380Y-68551364D01*
X660526Y-68714776D01*
X660275Y-69002761D01*
X770250Y-69268921D01*
X973708Y-69472735D01*
X1239676Y-69583174D01*
X1527661Y-69583425D01*
X1793821Y-69473450D01*
X1997635Y-69269992D01*
X2108074Y-69004024D01*
X2108325Y-68716039D01*
X2049180Y-68572897D01*
X2049180Y-68280856D01*
X2145314Y-68262204D01*
X2238948Y-68200696D01*
X2301626Y-68107842D01*
X2323654Y-67998000D01*
X2323654Y-69621400D01*
X1992630Y-69621400D01*
X1846580Y-69767450D01*
X1846580Y-70789800D01*
X2868930Y-70789800D01*
X3014980Y-70643750D01*
X3014980Y-71291450D01*
X2868930Y-71145400D01*
X1846580Y-71145400D01*
X1846580Y-72167750D01*
X1992630Y-72313800D01*
X2546985Y-72313800D01*
X2761703Y-72224861D01*
X2926041Y-72060522D01*
X3014980Y-71845804D01*
X3014980Y-73788600D01*
X379400Y-73788600D01*
X379400Y-71982979D01*
X411519Y-72060522D01*
X575857Y-72224861D01*
X790575Y-72313800D01*
X1344930Y-72313800D01*
X1490980Y-72167750D01*
X1490980Y-71145400D01*
X1470980Y-71145400D01*
X1470980Y-70789800D01*
X1490980Y-70789800D01*
X1490980Y-69767450D01*
X1344930Y-69621400D01*
X790575Y-69621400D01*
X575857Y-69710339D01*
X411519Y-69874678D01*
X379400Y-69952220D01*
X379400Y-59307400D01*
X142240000Y-59307400D01*
X142385190Y-59278520D01*
X142508276Y-59196276D01*
X142590520Y-59073190D01*
X142619400Y-58928000D01*
X142619400Y-379400D01*
X164198013Y-379400D01*
X164173026Y-439576D01*
X164172775Y-727561D01*
X164282750Y-993721D01*
X164486208Y-1197535D01*
X164752176Y-1307974D01*
X165040161Y-1308225D01*
X165194145Y-1244600D01*
X173456600Y-1244600D01*
X173456600Y-4262053D01*
X173393226Y-4414676D01*
X173392975Y-4702661D01*
X173502950Y-4968821D01*
X173706408Y-5172635D01*
X173972376Y-5283074D01*
X174260361Y-5283325D01*
X174526521Y-5173350D01*
X174730335Y-4969892D01*
X174840774Y-4703924D01*
X174841025Y-4415939D01*
X174777400Y-4261954D01*
X174777400Y-1244600D01*
X195819600Y-1244600D01*
X195819600Y-5232725D01*
X195607826Y-5444130D01*
X195450779Y-5822341D01*
X195450422Y-6231862D01*
X195606808Y-6610346D01*
X195896130Y-6900174D01*
X196274341Y-7057221D01*
X196683862Y-7057578D01*
X197062346Y-6901192D01*
X197352174Y-6611870D01*
X197509221Y-6233659D01*
X197509578Y-5824138D01*
X197353192Y-5445654D01*
X197140400Y-5232489D01*
X197140400Y-1244600D01*
X228288354Y-1244600D01*
X228550837Y-1507083D01*
X228504832Y-1537304D01*
X228442154Y-1630158D01*
X228420126Y-1740000D01*
X228420126Y-3340000D01*
X228440796Y-3446534D01*
X228502304Y-3540168D01*
X228595158Y-3602846D01*
X228705000Y-3624874D01*
X230305000Y-3624874D01*
X230411534Y-3604204D01*
X230505168Y-3542696D01*
X230508687Y-3537481D01*
X230633828Y-3662622D01*
X230744922Y-3551527D01*
X230825901Y-3777192D01*
X231351047Y-3942896D01*
X231899631Y-3895022D01*
X232184099Y-3777192D01*
X232265078Y-3551525D01*
X231505000Y-2791447D01*
X231490857Y-2805589D01*
X231239410Y-2554142D01*
X231253553Y-2540000D01*
X231239410Y-2525857D01*
X231490857Y-2274410D01*
X231505000Y-2288553D01*
X232265078Y-1528475D01*
X232184099Y-1302808D01*
X231658953Y-1137104D01*
X231110369Y-1184978D01*
X230825901Y-1302808D01*
X230744922Y-1528472D01*
X230633828Y-1417378D01*
X230509154Y-1542051D01*
X230507696Y-1539832D01*
X230414842Y-1477154D01*
X230305000Y-1455126D01*
X230151043Y-1455126D01*
X230115130Y-1274576D01*
X229971973Y-1060327D01*
X229291046Y-379400D01*
X239637409Y-379400D01*
X239580530Y-462083D01*
X241390800Y-2272353D01*
X243201070Y-462083D01*
X243144190Y-379400D01*
X244637409Y-379400D01*
X244580530Y-462083D01*
X246390800Y-2272353D01*
X248201070Y-462083D01*
X248144190Y-379400D01*
X248540600Y-379400D01*
X248540600Y-774124D01*
X248452517Y-713530D01*
X246642247Y-2523800D01*
X248452517Y-4334070D01*
X248540600Y-4273475D01*
X248540600Y-8274124D01*
X248452517Y-8213530D01*
X248201070Y-8464977D01*
X248201070Y-7962083D01*
X248201070Y-4585517D01*
X246390800Y-2775247D01*
X246139353Y-3026694D01*
X246139353Y-2523800D01*
X244329083Y-713530D01*
X243952885Y-972324D01*
X243892802Y-1127045D01*
X243828715Y-972324D01*
X243452517Y-713530D01*
X241642247Y-2523800D01*
X243452517Y-4334070D01*
X243828715Y-4075276D01*
X243888797Y-3920554D01*
X243952885Y-4075276D01*
X244329083Y-4334070D01*
X246139353Y-2523800D01*
X246139353Y-3026694D01*
X244580530Y-4585517D01*
X244839324Y-4961715D01*
X245890373Y-5369864D01*
X247017608Y-5344726D01*
X247942276Y-4961715D01*
X248201070Y-4585517D01*
X248201070Y-7962083D01*
X247942276Y-7585885D01*
X246891227Y-7177736D01*
X245763992Y-7202874D01*
X244839324Y-7585885D01*
X244580530Y-7962083D01*
X246390800Y-9772353D01*
X248201070Y-7962083D01*
X248201070Y-8464977D01*
X246642247Y-10023800D01*
X248452517Y-11834070D01*
X248540600Y-11773475D01*
X248540600Y-16030899D01*
X248288022Y-15419614D01*
X248201070Y-15332509D01*
X248201070Y-12085517D01*
X246390800Y-10275247D01*
X246139353Y-10526694D01*
X246139353Y-10023800D01*
X244329083Y-8213530D01*
X243952885Y-8472324D01*
X243892802Y-8627045D01*
X243828715Y-8472324D01*
X243452517Y-8213530D01*
X243201070Y-8464977D01*
X243201070Y-7962083D01*
X243201070Y-4585517D01*
X241390800Y-2775247D01*
X241139353Y-3026694D01*
X241139353Y-2523800D01*
X239329083Y-713530D01*
X238952885Y-972324D01*
X238544736Y-2023373D01*
X238569874Y-3150608D01*
X238952885Y-4075276D01*
X239329083Y-4334070D01*
X241139353Y-2523800D01*
X241139353Y-3026694D01*
X239580530Y-4585517D01*
X239839324Y-4961715D01*
X240890373Y-5369864D01*
X242017608Y-5344726D01*
X242942276Y-4961715D01*
X243201070Y-4585517D01*
X243201070Y-7962083D01*
X242942276Y-7585885D01*
X241891227Y-7177736D01*
X240763992Y-7202874D01*
X239839324Y-7585885D01*
X239580530Y-7962083D01*
X241390800Y-9772353D01*
X243201070Y-7962083D01*
X243201070Y-8464977D01*
X241642247Y-10023800D01*
X243452517Y-11834070D01*
X243828715Y-11575276D01*
X243888797Y-11420554D01*
X243952885Y-11575276D01*
X244329083Y-11834070D01*
X246139353Y-10023800D01*
X246139353Y-10526694D01*
X244580530Y-12085517D01*
X244839324Y-12461715D01*
X245890373Y-12869864D01*
X247017608Y-12844726D01*
X247942276Y-12461715D01*
X248201070Y-12085517D01*
X248201070Y-15332509D01*
X247752605Y-14883261D01*
X247052690Y-14592632D01*
X246294835Y-14591970D01*
X245594414Y-14881378D01*
X245058061Y-15416795D01*
X244767432Y-16116710D01*
X244766770Y-16874565D01*
X245056178Y-17574986D01*
X245591595Y-18111339D01*
X246291510Y-18401968D01*
X247049365Y-18402630D01*
X247749786Y-18113222D01*
X248286139Y-17577805D01*
X248540600Y-16964992D01*
X248540600Y-28730899D01*
X248288022Y-28119614D01*
X247752605Y-27583261D01*
X247052690Y-27292632D01*
X246294835Y-27291970D01*
X245594414Y-27581378D01*
X245395355Y-27780089D01*
X245395355Y-25507729D01*
X245345282Y-25015136D01*
X245253110Y-24792611D01*
X245072063Y-24738104D01*
X245072063Y-23169182D01*
X245072063Y-21137182D01*
X245072063Y-19105182D01*
X244929288Y-18759641D01*
X244665149Y-18495041D01*
X244319858Y-18351663D01*
X243945982Y-18351337D01*
X243600441Y-18494112D01*
X243335841Y-18758251D01*
X243201070Y-19082814D01*
X243201070Y-12085517D01*
X241390800Y-10275247D01*
X241139353Y-10526694D01*
X241139353Y-10023800D01*
X239329083Y-8213530D01*
X238952885Y-8472324D01*
X238544736Y-9523373D01*
X238569874Y-10650608D01*
X238952885Y-11575276D01*
X239329083Y-11834070D01*
X241139353Y-10023800D01*
X241139353Y-10526694D01*
X239580530Y-12085517D01*
X239839324Y-12461715D01*
X240890373Y-12869864D01*
X242017608Y-12844726D01*
X242942276Y-12461715D01*
X243201070Y-12085517D01*
X243201070Y-19082814D01*
X243192463Y-19103542D01*
X243192137Y-19477418D01*
X243334912Y-19822959D01*
X243599051Y-20087559D01*
X243944342Y-20230937D01*
X244318218Y-20231263D01*
X244663759Y-20088488D01*
X244928359Y-19824349D01*
X245071737Y-19479058D01*
X245072063Y-19105182D01*
X245072063Y-21137182D01*
X244929288Y-20791641D01*
X244665149Y-20527041D01*
X244319858Y-20383663D01*
X243945982Y-20383337D01*
X243600441Y-20526112D01*
X243335841Y-20790251D01*
X243294063Y-20890863D01*
X243294063Y-20121182D01*
X243151288Y-19775641D01*
X242887149Y-19511041D01*
X242541858Y-19367663D01*
X242167982Y-19367337D01*
X241822441Y-19510112D01*
X241557841Y-19774251D01*
X241414463Y-20119542D01*
X241414137Y-20493418D01*
X241556912Y-20838959D01*
X241821051Y-21103559D01*
X242166342Y-21246937D01*
X242540218Y-21247263D01*
X242885759Y-21104488D01*
X243150359Y-20840349D01*
X243293737Y-20495058D01*
X243294063Y-20121182D01*
X243294063Y-20890863D01*
X243192463Y-21135542D01*
X243192137Y-21509418D01*
X243334912Y-21854959D01*
X243599051Y-22119559D01*
X243944342Y-22262937D01*
X244318218Y-22263263D01*
X244663759Y-22120488D01*
X244928359Y-21856349D01*
X245071737Y-21511058D01*
X245072063Y-21137182D01*
X245072063Y-23169182D01*
X244929288Y-22823641D01*
X244665149Y-22559041D01*
X244319858Y-22415663D01*
X243945982Y-22415337D01*
X243600441Y-22558112D01*
X243335841Y-22822251D01*
X243294063Y-22922863D01*
X243294063Y-22153182D01*
X243151288Y-21807641D01*
X242887149Y-21543041D01*
X242541858Y-21399663D01*
X242167982Y-21399337D01*
X241822441Y-21542112D01*
X241557841Y-21806251D01*
X241414463Y-22151542D01*
X241414137Y-22525418D01*
X241556912Y-22870959D01*
X241821051Y-23135559D01*
X242166342Y-23278937D01*
X242540218Y-23279263D01*
X242885759Y-23136488D01*
X243150359Y-22872349D01*
X243293737Y-22527058D01*
X243294063Y-22153182D01*
X243294063Y-22922863D01*
X243192463Y-23167542D01*
X243192137Y-23541418D01*
X243334912Y-23886959D01*
X243599051Y-24151559D01*
X243706591Y-24196213D01*
X243537411Y-24266290D01*
X243473806Y-24477556D01*
X243361574Y-24365324D01*
X243293846Y-24433051D01*
X243294063Y-24185182D01*
X243151288Y-23839641D01*
X242887149Y-23575041D01*
X242541858Y-23431663D01*
X242167982Y-23431337D01*
X241822441Y-23574112D01*
X241557841Y-23838251D01*
X241414463Y-24183542D01*
X241414137Y-24557418D01*
X241556912Y-24902959D01*
X241821051Y-25167559D01*
X241928591Y-25212213D01*
X241759411Y-25282290D01*
X241695806Y-25493559D01*
X242354100Y-26151853D01*
X242368242Y-26137710D01*
X242619689Y-26389157D01*
X242605547Y-26403300D01*
X243263841Y-27061594D01*
X243475110Y-26997989D01*
X243614999Y-26531581D01*
X244011671Y-26650555D01*
X244504264Y-26600482D01*
X244726789Y-26508310D01*
X244790394Y-26297041D01*
X244132100Y-25638747D01*
X244117957Y-25652889D01*
X243866510Y-25401442D01*
X243880653Y-25387300D01*
X243866510Y-25373157D01*
X244117957Y-25121710D01*
X244132100Y-25135853D01*
X244790394Y-24477559D01*
X244726789Y-24266290D01*
X244530686Y-24207472D01*
X244663759Y-24152488D01*
X244928359Y-23888349D01*
X245071737Y-23543058D01*
X245072063Y-23169182D01*
X245072063Y-24738104D01*
X245041841Y-24729006D01*
X244383547Y-25387300D01*
X245041841Y-26045594D01*
X245253110Y-25981989D01*
X245395355Y-25507729D01*
X245395355Y-27780089D01*
X245058061Y-28116795D01*
X244790394Y-28761411D01*
X244767432Y-28816710D01*
X244766770Y-29574565D01*
X245056178Y-30274986D01*
X245591595Y-30811339D01*
X246291510Y-31101968D01*
X247049365Y-31102630D01*
X247749786Y-30813222D01*
X248286139Y-30277805D01*
X248540600Y-29664992D01*
X248540600Y-37366899D01*
X248288022Y-36755614D01*
X247752605Y-36219261D01*
X247052690Y-35928632D01*
X246294835Y-35927970D01*
X245594414Y-36217378D01*
X245058061Y-36752795D01*
X244767432Y-37452710D01*
X244766770Y-38210565D01*
X245056178Y-38910986D01*
X245591595Y-39447339D01*
X246291510Y-39737968D01*
X247049365Y-39738630D01*
X247749786Y-39449222D01*
X248286139Y-38913805D01*
X248540600Y-38300992D01*
X248540600Y-50066899D01*
X248288022Y-49455614D01*
X247752605Y-48919261D01*
X247052690Y-48628632D01*
X246294835Y-48627970D01*
X245594414Y-48917378D01*
X245395355Y-49116089D01*
X245395355Y-46843729D01*
X245345282Y-46351136D01*
X245253110Y-46128611D01*
X245072063Y-46074104D01*
X245072063Y-44505182D01*
X245072063Y-42473182D01*
X245072063Y-40441182D01*
X244929288Y-40095641D01*
X244665149Y-39831041D01*
X244319858Y-39687663D01*
X243945982Y-39687337D01*
X243600441Y-39830112D01*
X243335841Y-40094251D01*
X243192463Y-40439542D01*
X243192137Y-40813418D01*
X243334912Y-41158959D01*
X243599051Y-41423559D01*
X243944342Y-41566937D01*
X244318218Y-41567263D01*
X244663759Y-41424488D01*
X244928359Y-41160349D01*
X245071737Y-40815058D01*
X245072063Y-40441182D01*
X245072063Y-42473182D01*
X244929288Y-42127641D01*
X244665149Y-41863041D01*
X244319858Y-41719663D01*
X243945982Y-41719337D01*
X243600441Y-41862112D01*
X243335841Y-42126251D01*
X243294063Y-42226863D01*
X243294063Y-41457182D01*
X243151288Y-41111641D01*
X243012394Y-40972504D01*
X243012394Y-27313041D01*
X242354100Y-26654747D01*
X242102653Y-26906194D01*
X242102653Y-26403300D01*
X241444359Y-25745006D01*
X241233090Y-25808611D01*
X241090845Y-26282871D01*
X241140918Y-26775464D01*
X241233090Y-26997989D01*
X241444359Y-27061594D01*
X242102653Y-26403300D01*
X242102653Y-26906194D01*
X241695806Y-27313041D01*
X241759411Y-27524310D01*
X242233671Y-27666555D01*
X242726264Y-27616482D01*
X242948789Y-27524310D01*
X243012394Y-27313041D01*
X243012394Y-40972504D01*
X242887149Y-40847041D01*
X242541858Y-40703663D01*
X242167982Y-40703337D01*
X241822441Y-40846112D01*
X241557841Y-41110251D01*
X241414463Y-41455542D01*
X241414137Y-41829418D01*
X241556912Y-42174959D01*
X241821051Y-42439559D01*
X242166342Y-42582937D01*
X242540218Y-42583263D01*
X242885759Y-42440488D01*
X243150359Y-42176349D01*
X243293737Y-41831058D01*
X243294063Y-41457182D01*
X243294063Y-42226863D01*
X243192463Y-42471542D01*
X243192137Y-42845418D01*
X243334912Y-43190959D01*
X243599051Y-43455559D01*
X243944342Y-43598937D01*
X244318218Y-43599263D01*
X244663759Y-43456488D01*
X244928359Y-43192349D01*
X245071737Y-42847058D01*
X245072063Y-42473182D01*
X245072063Y-44505182D01*
X244929288Y-44159641D01*
X244665149Y-43895041D01*
X244319858Y-43751663D01*
X243945982Y-43751337D01*
X243600441Y-43894112D01*
X243335841Y-44158251D01*
X243294063Y-44258863D01*
X243294063Y-43489182D01*
X243151288Y-43143641D01*
X242887149Y-42879041D01*
X242541858Y-42735663D01*
X242167982Y-42735337D01*
X241822441Y-42878112D01*
X241558192Y-43141900D01*
X241363592Y-43141900D01*
X241363592Y-32393666D01*
X241322897Y-32295177D01*
X241282558Y-32197548D01*
X241207271Y-32122130D01*
X241207271Y-32122129D01*
X241207269Y-32122128D01*
X241132641Y-32047369D01*
X240936665Y-31965993D01*
X240830100Y-31965900D01*
X240829991Y-31965900D01*
X240724466Y-31965808D01*
X240724243Y-31965900D01*
X238353600Y-31965900D01*
X238353599Y-31965900D01*
X238247966Y-31965808D01*
X238061500Y-32042853D01*
X238061500Y-32009042D01*
X238358615Y-31711926D01*
X238471561Y-31712025D01*
X238737721Y-31602050D01*
X238941535Y-31398592D01*
X239051974Y-31132624D01*
X239052225Y-30844639D01*
X238942250Y-30578479D01*
X238738792Y-30374665D01*
X238472824Y-30264226D01*
X238298588Y-30264074D01*
X238324359Y-30238349D01*
X238467737Y-29893058D01*
X238468063Y-29519182D01*
X238325288Y-29173641D01*
X238061149Y-28909041D01*
X237715858Y-28765663D01*
X237341982Y-28765337D01*
X236996441Y-28908112D01*
X236804200Y-29100018D01*
X236804200Y-28414942D01*
X237001079Y-28218062D01*
X237340342Y-28358937D01*
X237714218Y-28359263D01*
X238059759Y-28216488D01*
X238324359Y-27952349D01*
X238467737Y-27607058D01*
X238468063Y-27233182D01*
X238468063Y-18089182D01*
X238468063Y-15803182D01*
X238325288Y-15457641D01*
X238061149Y-15193041D01*
X237715858Y-15049663D01*
X237341982Y-15049337D01*
X236996441Y-15192112D01*
X236731841Y-15456251D01*
X236588463Y-15801542D01*
X236588137Y-16175418D01*
X236730912Y-16520959D01*
X236995051Y-16785559D01*
X237340342Y-16928937D01*
X237714218Y-16929263D01*
X238059759Y-16786488D01*
X238324359Y-16522349D01*
X238467737Y-16177058D01*
X238468063Y-15803182D01*
X238468063Y-18089182D01*
X238325288Y-17743641D01*
X238061149Y-17479041D01*
X237715858Y-17335663D01*
X237341982Y-17335337D01*
X236996441Y-17478112D01*
X236731841Y-17742251D01*
X236588463Y-18087542D01*
X236588137Y-18461418D01*
X236730912Y-18806959D01*
X236995051Y-19071559D01*
X237340342Y-19214937D01*
X237714218Y-19215263D01*
X238059759Y-19072488D01*
X238324359Y-18808349D01*
X238467737Y-18463058D01*
X238468063Y-18089182D01*
X238468063Y-27233182D01*
X238325288Y-26887641D01*
X238061149Y-26623041D01*
X237715858Y-26479663D01*
X237341982Y-26479337D01*
X236996441Y-26622112D01*
X236731841Y-26886251D01*
X236666252Y-27044205D01*
X235893629Y-27816829D01*
X235778003Y-27989877D01*
X235737400Y-28194000D01*
X235737400Y-41140212D01*
X235657465Y-41220008D01*
X235547026Y-41485976D01*
X235546775Y-41773961D01*
X235656750Y-42040121D01*
X235860208Y-42243935D01*
X236126176Y-42354374D01*
X236414161Y-42354625D01*
X236680321Y-42244650D01*
X236884135Y-42041192D01*
X236994574Y-41775224D01*
X236994825Y-41487239D01*
X236884850Y-41221079D01*
X236804200Y-41140287D01*
X236804200Y-40216374D01*
X236995051Y-40407559D01*
X237340342Y-40550937D01*
X237714218Y-40551263D01*
X238059759Y-40408488D01*
X238324359Y-40144349D01*
X238467737Y-39799058D01*
X238468063Y-39425182D01*
X238325288Y-39079641D01*
X238061149Y-38815041D01*
X237715858Y-38671663D01*
X237341982Y-38671337D01*
X236996441Y-38814112D01*
X236804200Y-39006018D01*
X236804200Y-37930374D01*
X236995051Y-38121559D01*
X237340342Y-38264937D01*
X237714218Y-38265263D01*
X238059759Y-38122488D01*
X238324359Y-37858349D01*
X238467737Y-37513058D01*
X238468063Y-37139182D01*
X238325288Y-36793641D01*
X238061500Y-36529392D01*
X238061500Y-32955566D01*
X238149477Y-32992097D01*
X238247035Y-33032607D01*
X238353599Y-33032699D01*
X238353600Y-33032700D01*
X238353708Y-33032700D01*
X238459234Y-33032792D01*
X238459456Y-33032700D01*
X240830100Y-33032700D01*
X240830100Y-33032699D01*
X240935734Y-33032792D01*
X241034223Y-32992097D01*
X241131852Y-32951758D01*
X241207269Y-32876471D01*
X241207271Y-32876471D01*
X241207271Y-32876469D01*
X241282031Y-32801841D01*
X241322897Y-32703423D01*
X241363407Y-32605865D01*
X241363499Y-32499300D01*
X241363500Y-32499300D01*
X241363499Y-32499299D01*
X241363592Y-32393666D01*
X241363592Y-43141900D01*
X239923487Y-43141900D01*
X239843692Y-43061965D01*
X239577724Y-42951526D01*
X239289739Y-42951275D01*
X239023579Y-43061250D01*
X238819765Y-43264708D01*
X238709326Y-43530676D01*
X238709075Y-43818661D01*
X238819050Y-44084821D01*
X239022508Y-44288635D01*
X239288476Y-44399074D01*
X239576461Y-44399325D01*
X239842621Y-44289350D01*
X239923412Y-44208700D01*
X241558649Y-44208700D01*
X241821051Y-44471559D01*
X242166342Y-44614937D01*
X242540218Y-44615263D01*
X242885759Y-44472488D01*
X243150359Y-44208349D01*
X243293737Y-43863058D01*
X243294063Y-43489182D01*
X243294063Y-44258863D01*
X243192463Y-44503542D01*
X243192137Y-44877418D01*
X243334912Y-45222959D01*
X243599051Y-45487559D01*
X243706591Y-45532213D01*
X243537411Y-45602290D01*
X243473806Y-45813556D01*
X243361574Y-45701324D01*
X243293846Y-45769051D01*
X243294063Y-45521182D01*
X243151288Y-45175641D01*
X242887149Y-44911041D01*
X242541858Y-44767663D01*
X242167982Y-44767337D01*
X241822441Y-44910112D01*
X241557841Y-45174251D01*
X241414463Y-45519542D01*
X241414137Y-45893418D01*
X241556912Y-46238959D01*
X241821051Y-46503559D01*
X241928591Y-46548213D01*
X241759411Y-46618290D01*
X241695806Y-46829559D01*
X242354100Y-47487853D01*
X242368242Y-47473710D01*
X242619689Y-47725157D01*
X242605547Y-47739300D01*
X243263841Y-48397594D01*
X243475110Y-48333989D01*
X243614999Y-47867581D01*
X244011671Y-47986555D01*
X244504264Y-47936482D01*
X244726789Y-47844310D01*
X244790394Y-47633041D01*
X244132100Y-46974747D01*
X244117957Y-46988889D01*
X243866510Y-46737442D01*
X243880653Y-46723300D01*
X243866510Y-46709157D01*
X244117957Y-46457710D01*
X244132100Y-46471853D01*
X244790394Y-45813559D01*
X244726789Y-45602290D01*
X244530686Y-45543472D01*
X244663759Y-45488488D01*
X244928359Y-45224349D01*
X245071737Y-44879058D01*
X245072063Y-44505182D01*
X245072063Y-46074104D01*
X245041841Y-46065006D01*
X244383547Y-46723300D01*
X245041841Y-47381594D01*
X245253110Y-47317989D01*
X245395355Y-46843729D01*
X245395355Y-49116089D01*
X245058061Y-49452795D01*
X244790394Y-50097411D01*
X244767432Y-50152710D01*
X244766770Y-50910565D01*
X245056178Y-51610986D01*
X245591595Y-52147339D01*
X246291510Y-52437968D01*
X247049365Y-52438630D01*
X247749786Y-52149222D01*
X248286139Y-51613805D01*
X248540600Y-51000992D01*
X248540600Y-62381824D01*
X248452517Y-62321230D01*
X248201070Y-62572677D01*
X248201070Y-62069783D01*
X247942276Y-61693585D01*
X246891227Y-61285436D01*
X246823600Y-61286944D01*
X246823600Y-58167004D01*
X246823600Y-57934595D01*
X246823600Y-57524650D01*
X246823600Y-56876950D01*
X246823600Y-56467005D01*
X246823600Y-56234596D01*
X246734661Y-56019878D01*
X246570323Y-55855539D01*
X246355605Y-55766600D01*
X245713250Y-55766600D01*
X245567200Y-55912650D01*
X245567200Y-57023000D01*
X246677550Y-57023000D01*
X246823600Y-56876950D01*
X246823600Y-57524650D01*
X246677550Y-57378600D01*
X245567200Y-57378600D01*
X245567200Y-58488950D01*
X245713250Y-58635000D01*
X246355605Y-58635000D01*
X246570323Y-58546061D01*
X246734661Y-58381722D01*
X246823600Y-58167004D01*
X246823600Y-61286944D01*
X245763992Y-61310574D01*
X245211600Y-61539382D01*
X245211600Y-58488950D01*
X245211600Y-57378600D01*
X245211600Y-57023000D01*
X245211600Y-55912650D01*
X245065550Y-55766600D01*
X244423195Y-55766600D01*
X244208477Y-55855539D01*
X244044139Y-56019878D01*
X243955200Y-56234596D01*
X243955200Y-56467005D01*
X243955200Y-56876950D01*
X244101250Y-57023000D01*
X245211600Y-57023000D01*
X245211600Y-57378600D01*
X244101250Y-57378600D01*
X243955200Y-57524650D01*
X243955200Y-57934595D01*
X243955200Y-58167004D01*
X244044139Y-58381722D01*
X244208477Y-58546061D01*
X244423195Y-58635000D01*
X245065550Y-58635000D01*
X245211600Y-58488950D01*
X245211600Y-61539382D01*
X244839324Y-61693585D01*
X244580530Y-62069783D01*
X246390800Y-63880053D01*
X248201070Y-62069783D01*
X248201070Y-62572677D01*
X246642247Y-64131500D01*
X248452517Y-65941770D01*
X248540600Y-65881175D01*
X248540600Y-69881824D01*
X248452517Y-69821230D01*
X248201070Y-70072677D01*
X248201070Y-69569783D01*
X248201070Y-66193217D01*
X246390800Y-64382947D01*
X246139353Y-64634394D01*
X246139353Y-64131500D01*
X244329083Y-62321230D01*
X243952885Y-62580024D01*
X243892802Y-62734745D01*
X243828715Y-62580024D01*
X243452517Y-62321230D01*
X243201070Y-62572677D01*
X243201070Y-62069783D01*
X243012394Y-61795512D01*
X243012394Y-48649041D01*
X242354100Y-47990747D01*
X242102653Y-48242194D01*
X242102653Y-47739300D01*
X241444359Y-47081006D01*
X241233090Y-47144611D01*
X241090845Y-47618871D01*
X241140918Y-48111464D01*
X241233090Y-48333989D01*
X241444359Y-48397594D01*
X242102653Y-47739300D01*
X242102653Y-48242194D01*
X241695806Y-48649041D01*
X241759411Y-48860310D01*
X242233671Y-49002555D01*
X242726264Y-48952482D01*
X242948789Y-48860310D01*
X243012394Y-48649041D01*
X243012394Y-61795512D01*
X242942276Y-61693585D01*
X241891227Y-61285436D01*
X240763992Y-61310574D01*
X239839324Y-61693585D01*
X239580530Y-62069783D01*
X241390800Y-63880053D01*
X243201070Y-62069783D01*
X243201070Y-62572677D01*
X241642247Y-64131500D01*
X243452517Y-65941770D01*
X243828715Y-65682976D01*
X243888797Y-65528254D01*
X243952885Y-65682976D01*
X244329083Y-65941770D01*
X246139353Y-64131500D01*
X246139353Y-64634394D01*
X244580530Y-66193217D01*
X244839324Y-66569415D01*
X245890373Y-66977564D01*
X247017608Y-66952426D01*
X247942276Y-66569415D01*
X248201070Y-66193217D01*
X248201070Y-69569783D01*
X247942276Y-69193585D01*
X246891227Y-68785436D01*
X245763992Y-68810574D01*
X244839324Y-69193585D01*
X244580530Y-69569783D01*
X246390800Y-71380053D01*
X248201070Y-69569783D01*
X248201070Y-70072677D01*
X246642247Y-71631500D01*
X248452517Y-73441770D01*
X248540600Y-73381175D01*
X248540600Y-73788600D01*
X248540600Y-73788600D01*
G37*
X248540600Y-73788600D02*
X248135454Y-73788600D01*
X248201070Y-73693217D01*
X246390800Y-71882947D01*
X246139353Y-72134394D01*
X246139353Y-71631500D01*
X244329083Y-69821230D01*
X243952885Y-70080024D01*
X243892802Y-70234745D01*
X243828715Y-70080024D01*
X243452517Y-69821230D01*
X243201070Y-70072677D01*
X243201070Y-69569783D01*
X243201070Y-66193217D01*
X241390800Y-64382947D01*
X241139353Y-64634394D01*
X241139353Y-64131500D01*
X239329083Y-62321230D01*
X238952885Y-62580024D01*
X238544736Y-63631073D01*
X238569874Y-64758308D01*
X238952885Y-65682976D01*
X239329083Y-65941770D01*
X241139353Y-64131500D01*
X241139353Y-64634394D01*
X239580530Y-66193217D01*
X239839324Y-66569415D01*
X240890373Y-66977564D01*
X242017608Y-66952426D01*
X242942276Y-66569415D01*
X243201070Y-66193217D01*
X243201070Y-69569783D01*
X242942276Y-69193585D01*
X241891227Y-68785436D01*
X240763992Y-68810574D01*
X239839324Y-69193585D01*
X239580530Y-69569783D01*
X241390800Y-71380053D01*
X243201070Y-69569783D01*
X243201070Y-70072677D01*
X241642247Y-71631500D01*
X243452517Y-73441770D01*
X243828715Y-73182976D01*
X243888797Y-73028254D01*
X243952885Y-73182976D01*
X244329083Y-73441770D01*
X246139353Y-71631500D01*
X246139353Y-72134394D01*
X244580530Y-73693217D01*
X244646145Y-73788600D01*
X243135454Y-73788600D01*
X243201070Y-73693217D01*
X241390800Y-71882947D01*
X241139353Y-72134394D01*
X241139353Y-71631500D01*
X239329083Y-69821230D01*
X238952885Y-70080024D01*
X238544736Y-71131073D01*
X238569874Y-72258308D01*
X238952885Y-73182976D01*
X239329083Y-73441770D01*
X241139353Y-71631500D01*
X241139353Y-72134394D01*
X239580530Y-73693217D01*
X239646145Y-73788600D01*
X238468063Y-73788600D01*
X238468063Y-50855182D01*
X238468063Y-48569182D01*
X238325288Y-48223641D01*
X238061149Y-47959041D01*
X237715858Y-47815663D01*
X237341982Y-47815337D01*
X236996441Y-47958112D01*
X236731841Y-48222251D01*
X236588463Y-48567542D01*
X236588137Y-48941418D01*
X236730912Y-49286959D01*
X236995051Y-49551559D01*
X237340342Y-49694937D01*
X237714218Y-49695263D01*
X238059759Y-49552488D01*
X238324359Y-49288349D01*
X238467737Y-48943058D01*
X238468063Y-48569182D01*
X238468063Y-50855182D01*
X238325288Y-50509641D01*
X238061149Y-50245041D01*
X237715858Y-50101663D01*
X237341982Y-50101337D01*
X236996441Y-50244112D01*
X236731841Y-50508251D01*
X236588463Y-50853542D01*
X236588137Y-51227418D01*
X236730912Y-51572959D01*
X236995051Y-51837559D01*
X237340342Y-51980937D01*
X237714218Y-51981263D01*
X238059759Y-51838488D01*
X238324359Y-51574349D01*
X238467737Y-51229058D01*
X238468063Y-50855182D01*
X238468063Y-73788600D01*
X236745946Y-73788600D01*
X237245773Y-73288773D01*
X237245774Y-73288773D01*
X237388930Y-73074524D01*
X237439200Y-72821800D01*
X237439200Y-70502846D01*
X237502574Y-70350224D01*
X237502825Y-70062239D01*
X237392850Y-69796079D01*
X237189392Y-69592265D01*
X236923424Y-69481826D01*
X236635439Y-69481575D01*
X236369279Y-69591550D01*
X236165465Y-69795008D01*
X236055026Y-70060976D01*
X236054775Y-70348961D01*
X236118400Y-70502945D01*
X236118400Y-72548253D01*
X235743253Y-72923400D01*
X235242192Y-72923400D01*
X235242192Y-67534566D01*
X235161158Y-67338448D01*
X235011241Y-67188269D01*
X234815265Y-67106893D01*
X234603066Y-67106708D01*
X234430283Y-67178100D01*
X233994203Y-67178100D01*
X233941476Y-67097832D01*
X233941067Y-67097556D01*
X233994836Y-67017900D01*
X234449433Y-67017900D01*
X234602135Y-67081307D01*
X234814334Y-67081492D01*
X235010452Y-67000458D01*
X235160631Y-66850541D01*
X235242007Y-66654565D01*
X235242192Y-66442366D01*
X235161158Y-66246248D01*
X235011241Y-66096069D01*
X234815265Y-66014693D01*
X234603066Y-66014508D01*
X234449161Y-66078100D01*
X233994203Y-66078100D01*
X233941476Y-65997832D01*
X233941067Y-65997556D01*
X233994836Y-65917900D01*
X234461233Y-65917900D01*
X234602135Y-65976407D01*
X234814334Y-65976592D01*
X235010452Y-65895558D01*
X235160631Y-65745641D01*
X235242007Y-65549665D01*
X235242192Y-65337466D01*
X235161158Y-65141348D01*
X235011241Y-64991169D01*
X234815265Y-64909793D01*
X234603066Y-64909608D01*
X234437302Y-64978100D01*
X233994203Y-64978100D01*
X233941476Y-64897832D01*
X233848622Y-64835154D01*
X233738780Y-64813126D01*
X233374200Y-64813126D01*
X233374200Y-6894204D01*
X233374200Y-6661795D01*
X233374200Y-6351850D01*
X233374200Y-5704150D01*
X233374200Y-5394205D01*
X233374200Y-5161796D01*
X233285261Y-4947078D01*
X233120923Y-4782739D01*
X232907896Y-4694500D01*
X232907896Y-2693953D01*
X232860022Y-2145369D01*
X232742192Y-1860901D01*
X232516525Y-1779922D01*
X232265078Y-2031369D01*
X231756447Y-2540000D01*
X232516525Y-3300078D01*
X232742192Y-3219099D01*
X232907896Y-2693953D01*
X232907896Y-4694500D01*
X232906205Y-4693800D01*
X232363850Y-4693800D01*
X232265078Y-4792572D01*
X232217800Y-4839850D01*
X232217800Y-5850200D01*
X233228150Y-5850200D01*
X233374200Y-5704150D01*
X233374200Y-6351850D01*
X233228150Y-6205800D01*
X232217800Y-6205800D01*
X232217800Y-7216150D01*
X232363850Y-7362200D01*
X232906205Y-7362200D01*
X233120923Y-7273261D01*
X233285261Y-7108922D01*
X233374200Y-6894204D01*
X233374200Y-64813126D01*
X232438780Y-64813126D01*
X232332246Y-64833796D01*
X232238612Y-64895304D01*
X232175934Y-64988158D01*
X232153906Y-65098000D01*
X232153906Y-65798000D01*
X232174576Y-65904534D01*
X232236084Y-65998168D01*
X232236492Y-65998443D01*
X232175934Y-66088158D01*
X232153906Y-66198000D01*
X232153906Y-66898000D01*
X232174576Y-67004534D01*
X232236084Y-67098168D01*
X232236492Y-67098443D01*
X232175934Y-67188158D01*
X232153906Y-67298000D01*
X232153906Y-67998000D01*
X232174576Y-68104534D01*
X232236084Y-68198168D01*
X232328938Y-68260846D01*
X232438780Y-68282874D01*
X233738780Y-68282874D01*
X233845314Y-68262204D01*
X233938948Y-68200696D01*
X233994836Y-68117900D01*
X234468217Y-68117900D01*
X234602135Y-68173507D01*
X234814334Y-68173692D01*
X235010452Y-68092658D01*
X235160631Y-67942741D01*
X235242007Y-67746765D01*
X235242192Y-67534566D01*
X235242192Y-72923400D01*
X233850360Y-72923400D01*
X233850360Y-70761362D01*
X233692151Y-70378465D01*
X233399456Y-70085259D01*
X233016836Y-69926381D01*
X232602542Y-69926020D01*
X232219645Y-70084229D01*
X231926439Y-70376924D01*
X231862200Y-70531628D01*
X231862200Y-7216150D01*
X231862200Y-6205800D01*
X231862200Y-5850200D01*
X231862200Y-4839850D01*
X231716150Y-4693800D01*
X231173795Y-4693800D01*
X230959077Y-4782739D01*
X230794739Y-4947078D01*
X230705800Y-5161796D01*
X230705800Y-5394205D01*
X230705800Y-5704150D01*
X230851850Y-5850200D01*
X231862200Y-5850200D01*
X231862200Y-6205800D01*
X230851850Y-6205800D01*
X230705800Y-6351850D01*
X230705800Y-6661795D01*
X230705800Y-6894204D01*
X230794739Y-7108922D01*
X230959077Y-7273261D01*
X231173795Y-7362200D01*
X231716150Y-7362200D01*
X231862200Y-7216150D01*
X231862200Y-70531628D01*
X231767561Y-70759544D01*
X231767200Y-71173838D01*
X231925409Y-71556735D01*
X232218104Y-71849941D01*
X232600724Y-72008819D01*
X233015018Y-72009180D01*
X233397915Y-71850971D01*
X233691121Y-71558276D01*
X233849999Y-71175656D01*
X233850360Y-70761362D01*
X233850360Y-72923400D01*
X231614980Y-72923400D01*
X231614980Y-71845804D01*
X231614980Y-71613395D01*
X231614980Y-71291450D01*
X231614980Y-70643750D01*
X231614980Y-70321805D01*
X231614980Y-70089396D01*
X231526041Y-69874678D01*
X231361703Y-69710339D01*
X231146985Y-69621400D01*
X230923654Y-69621400D01*
X230923654Y-67998000D01*
X230923654Y-67298000D01*
X230902984Y-67191466D01*
X230841476Y-67097832D01*
X230841067Y-67097556D01*
X230901626Y-67007842D01*
X230923654Y-66898000D01*
X230923654Y-66198000D01*
X230902984Y-66091466D01*
X230841476Y-65997832D01*
X230841067Y-65997556D01*
X230901626Y-65907842D01*
X230923654Y-65798000D01*
X230923654Y-65098000D01*
X230902984Y-64991466D01*
X230841476Y-64897832D01*
X230748622Y-64835154D01*
X230638780Y-64813126D01*
X230529578Y-64813126D01*
X230529578Y-5824138D01*
X230373192Y-5445654D01*
X230083870Y-5155826D01*
X229705659Y-4998779D01*
X229296138Y-4998422D01*
X228917654Y-5154808D01*
X228627826Y-5444130D01*
X228470779Y-5822341D01*
X228470422Y-6231862D01*
X228626808Y-6610346D01*
X228916130Y-6900174D01*
X229294341Y-7057221D01*
X229703862Y-7057578D01*
X230082346Y-6901192D01*
X230372174Y-6611870D01*
X230529221Y-6233659D01*
X230529578Y-5824138D01*
X230529578Y-64813126D01*
X229338780Y-64813126D01*
X229240896Y-64832117D01*
X229240896Y-23505953D01*
X229193022Y-22957369D01*
X229075192Y-22672901D01*
X228922874Y-22618242D01*
X228849527Y-22591922D01*
X228922874Y-22518576D01*
X228960622Y-22480828D01*
X228922874Y-22443080D01*
X228835948Y-22356154D01*
X228838168Y-22354696D01*
X228900846Y-22261842D01*
X228922874Y-22152000D01*
X228922874Y-20552000D01*
X228902204Y-20445466D01*
X228840696Y-20351832D01*
X228747842Y-20289154D01*
X228638000Y-20267126D01*
X227989578Y-20267126D01*
X227989578Y-5824138D01*
X227833192Y-5445654D01*
X227543870Y-5155826D01*
X227165659Y-4998779D01*
X226756138Y-4998422D01*
X226377654Y-5154808D01*
X226087826Y-5444130D01*
X225930779Y-5822341D01*
X225930422Y-6231862D01*
X226086808Y-6610346D01*
X226376130Y-6900174D01*
X226754341Y-7057221D01*
X227163862Y-7057578D01*
X227542346Y-6901192D01*
X227832174Y-6611870D01*
X227989221Y-6233659D01*
X227989578Y-5824138D01*
X227989578Y-20267126D01*
X227038000Y-20267126D01*
X226931466Y-20287796D01*
X226837832Y-20349304D01*
X226775154Y-20442158D01*
X226753126Y-20552000D01*
X226753126Y-22152000D01*
X226773796Y-22258534D01*
X226835304Y-22352168D01*
X226840518Y-22355687D01*
X226715378Y-22480828D01*
X226826472Y-22591922D01*
X226600808Y-22672901D01*
X226435104Y-23198047D01*
X226482978Y-23746631D01*
X226600808Y-24031099D01*
X226826475Y-24112078D01*
X227586553Y-23352000D01*
X227572410Y-23337857D01*
X227823857Y-23086410D01*
X227838000Y-23100553D01*
X227852142Y-23086410D01*
X228103589Y-23337857D01*
X228089447Y-23352000D01*
X228849525Y-24112078D01*
X229075192Y-24031099D01*
X229240896Y-23505953D01*
X229240896Y-64832117D01*
X229232246Y-64833796D01*
X229138612Y-64895304D01*
X229075934Y-64988158D01*
X229053906Y-65098000D01*
X229053906Y-65798000D01*
X229074576Y-65904534D01*
X229136084Y-65998168D01*
X229136492Y-65998443D01*
X229075934Y-66088158D01*
X229053906Y-66198000D01*
X229053906Y-66898000D01*
X229074576Y-67004534D01*
X229136084Y-67098168D01*
X229136492Y-67098443D01*
X229075934Y-67188158D01*
X229053906Y-67298000D01*
X229053906Y-67998000D01*
X229074576Y-68104534D01*
X229136084Y-68198168D01*
X229228938Y-68260846D01*
X229328380Y-68280788D01*
X229328380Y-68569249D01*
X229273226Y-68702076D01*
X229272975Y-68990061D01*
X229382950Y-69256221D01*
X229586408Y-69460035D01*
X229852376Y-69570474D01*
X230140361Y-69570725D01*
X230406521Y-69460750D01*
X230610335Y-69257292D01*
X230720774Y-68991324D01*
X230721025Y-68703339D01*
X230649180Y-68529460D01*
X230649180Y-68280856D01*
X230745314Y-68262204D01*
X230838948Y-68200696D01*
X230901626Y-68107842D01*
X230923654Y-67998000D01*
X230923654Y-69621400D01*
X230592630Y-69621400D01*
X230446580Y-69767450D01*
X230446580Y-70789800D01*
X231468930Y-70789800D01*
X231614980Y-70643750D01*
X231614980Y-71291450D01*
X231468930Y-71145400D01*
X230446580Y-71145400D01*
X230446580Y-72167750D01*
X230592630Y-72313800D01*
X231146985Y-72313800D01*
X231361703Y-72224861D01*
X231526041Y-72060522D01*
X231614980Y-71845804D01*
X231614980Y-72923400D01*
X230090980Y-72923400D01*
X230090980Y-72167750D01*
X230090980Y-71145400D01*
X230090980Y-70789800D01*
X230090980Y-69767450D01*
X229944930Y-69621400D01*
X229390575Y-69621400D01*
X229175857Y-69710339D01*
X229011519Y-69874678D01*
X228922580Y-70089396D01*
X228922580Y-70321805D01*
X228922580Y-70643750D01*
X229068630Y-70789800D01*
X230090980Y-70789800D01*
X230090980Y-71145400D01*
X229068630Y-71145400D01*
X228922580Y-71291450D01*
X228922580Y-71613395D01*
X228922580Y-71845804D01*
X229011519Y-72060522D01*
X229175857Y-72224861D01*
X229390575Y-72313800D01*
X229944930Y-72313800D01*
X230090980Y-72167750D01*
X230090980Y-72923400D01*
X228598078Y-72923400D01*
X228598078Y-24363525D01*
X227838000Y-23603447D01*
X227586553Y-23854894D01*
X227077922Y-24363525D01*
X227158901Y-24589192D01*
X227684047Y-24754896D01*
X228232631Y-24707022D01*
X228517099Y-24589192D01*
X228598078Y-24363525D01*
X228598078Y-72923400D01*
X225449578Y-72923400D01*
X225449578Y-5824138D01*
X225293192Y-5445654D01*
X225003870Y-5155826D01*
X224625659Y-4998779D01*
X224216138Y-4998422D01*
X223837654Y-5154808D01*
X223547826Y-5444130D01*
X223390779Y-5822341D01*
X223390422Y-6231862D01*
X223546808Y-6610346D01*
X223836130Y-6900174D01*
X224214341Y-7057221D01*
X224623862Y-7057578D01*
X225002346Y-6901192D01*
X225292174Y-6611870D01*
X225449221Y-6233659D01*
X225449578Y-5824138D01*
X225449578Y-72923400D01*
X224370900Y-72923400D01*
X224370900Y-26327100D01*
X224370900Y-19519900D01*
X224310963Y-19218575D01*
X224140276Y-18963124D01*
X223884825Y-18792437D01*
X223583500Y-18732500D01*
X223282175Y-18792437D01*
X223026724Y-18963124D01*
X222909578Y-19138445D01*
X222909578Y-5824138D01*
X222753192Y-5445654D01*
X222463870Y-5155826D01*
X222085659Y-4998779D01*
X221676138Y-4998422D01*
X221297654Y-5154808D01*
X221007826Y-5444130D01*
X220850779Y-5822341D01*
X220850422Y-6231862D01*
X221006808Y-6610346D01*
X221296130Y-6900174D01*
X221674341Y-7057221D01*
X222083862Y-7057578D01*
X222462346Y-6901192D01*
X222752174Y-6611870D01*
X222909221Y-6233659D01*
X222909578Y-5824138D01*
X222909578Y-19138445D01*
X222856037Y-19218575D01*
X222796100Y-19519900D01*
X222796100Y-26327100D01*
X222856037Y-26628425D01*
X223026724Y-26883876D01*
X223282175Y-27054563D01*
X223583500Y-27114500D01*
X223884825Y-27054563D01*
X224140276Y-26883876D01*
X224310963Y-26628425D01*
X224370900Y-26327100D01*
X224370900Y-72923400D01*
X220535625Y-72923400D01*
X220535625Y-44382839D01*
X220425650Y-44116679D01*
X220281500Y-43972276D01*
X220281500Y-41244576D01*
X220424935Y-41101392D01*
X220535374Y-40835424D01*
X220535625Y-40547439D01*
X220425650Y-40281279D01*
X220369578Y-40225108D01*
X220369578Y-5824138D01*
X220213192Y-5445654D01*
X219923870Y-5155826D01*
X219545659Y-4998779D01*
X219136138Y-4998422D01*
X218757654Y-5154808D01*
X218467826Y-5444130D01*
X218310779Y-5822341D01*
X218310422Y-6231862D01*
X218466808Y-6610346D01*
X218756130Y-6900174D01*
X219134341Y-7057221D01*
X219543862Y-7057578D01*
X219922346Y-6901192D01*
X220212174Y-6611870D01*
X220369221Y-6233659D01*
X220369578Y-5824138D01*
X220369578Y-40225108D01*
X220222192Y-40077465D01*
X219956224Y-39967026D01*
X219668239Y-39966775D01*
X219639696Y-39978568D01*
X219639696Y-9440953D01*
X219591822Y-8892369D01*
X219473992Y-8607901D01*
X219248325Y-8526922D01*
X218996878Y-8778369D01*
X218996878Y-8275475D01*
X218915899Y-8049808D01*
X218390753Y-7884104D01*
X217842169Y-7931978D01*
X217829578Y-7937193D01*
X217829578Y-5824138D01*
X217673192Y-5445654D01*
X217383870Y-5155826D01*
X217005659Y-4998779D01*
X216596138Y-4998422D01*
X216217654Y-5154808D01*
X215927826Y-5444130D01*
X215770779Y-5822341D01*
X215770422Y-6231862D01*
X215926808Y-6610346D01*
X216216130Y-6900174D01*
X216594341Y-7057221D01*
X217003862Y-7057578D01*
X217382346Y-6901192D01*
X217672174Y-6611870D01*
X217829221Y-6233659D01*
X217829578Y-5824138D01*
X217829578Y-7937193D01*
X217557701Y-8049808D01*
X217476722Y-8275475D01*
X218236800Y-9035553D01*
X218996878Y-8275475D01*
X218996878Y-8778369D01*
X218488247Y-9287000D01*
X218502389Y-9301142D01*
X218250942Y-9552589D01*
X218236800Y-9538447D01*
X218222657Y-9552589D01*
X217985353Y-9315285D01*
X217971210Y-9301142D01*
X217985353Y-9287000D01*
X217225275Y-8526922D01*
X216999608Y-8607901D01*
X216833904Y-9133047D01*
X216881778Y-9681631D01*
X216999608Y-9966099D01*
X217225272Y-10047077D01*
X217114178Y-10158172D01*
X217238851Y-10282845D01*
X217236632Y-10284304D01*
X217173954Y-10377158D01*
X217151926Y-10487000D01*
X217151926Y-12087000D01*
X217172596Y-12193534D01*
X217234104Y-12287168D01*
X217326958Y-12349846D01*
X217436800Y-12371874D01*
X219036800Y-12371874D01*
X219143334Y-12351204D01*
X219236968Y-12289696D01*
X219299646Y-12196842D01*
X219321674Y-12087000D01*
X219321674Y-10487000D01*
X219301004Y-10380466D01*
X219239496Y-10286832D01*
X219234281Y-10283312D01*
X219359422Y-10158172D01*
X219248327Y-10047077D01*
X219473992Y-9966099D01*
X219639696Y-9440953D01*
X219639696Y-39978568D01*
X219402079Y-40076750D01*
X219321674Y-40157014D01*
X219198265Y-40280208D01*
X219087826Y-40546176D01*
X219087575Y-40834161D01*
X219197550Y-41100321D01*
X219341700Y-41244723D01*
X219341700Y-43972423D01*
X219198265Y-44115608D01*
X219087826Y-44381576D01*
X219087575Y-44669561D01*
X219197550Y-44935721D01*
X219401008Y-45139535D01*
X219666976Y-45249974D01*
X219954961Y-45250225D01*
X220221121Y-45140250D01*
X220424935Y-44936792D01*
X220535374Y-44670824D01*
X220535625Y-44382839D01*
X220535625Y-72923400D01*
X220165109Y-72923400D01*
X220205338Y-72883242D01*
X220344841Y-72547283D01*
X220345158Y-72183513D01*
X220345158Y-60969413D01*
X220345000Y-60969030D01*
X220345000Y-57340724D01*
X220345000Y-57340500D01*
X220345158Y-57159413D01*
X220275395Y-56990574D01*
X220206242Y-56823211D01*
X220077178Y-56693922D01*
X219949242Y-56565762D01*
X219780526Y-56495705D01*
X219613283Y-56426259D01*
X219249513Y-56425942D01*
X218986192Y-56534744D01*
X218986192Y-34044666D01*
X218905158Y-33848548D01*
X218755241Y-33698369D01*
X218559265Y-33616993D01*
X218347066Y-33616808D01*
X218150948Y-33697842D01*
X218000769Y-33847759D01*
X217970100Y-33921618D01*
X217970100Y-27980005D01*
X217970100Y-27425650D01*
X217970100Y-26777950D01*
X217970100Y-26223595D01*
X217881161Y-26008877D01*
X217716822Y-25844539D01*
X217502104Y-25755600D01*
X217269695Y-25755600D01*
X216947750Y-25755600D01*
X216801700Y-25901650D01*
X216801700Y-26924000D01*
X217824050Y-26924000D01*
X217970100Y-26777950D01*
X217970100Y-27425650D01*
X217824050Y-27279600D01*
X216801700Y-27279600D01*
X216801700Y-28301950D01*
X216947750Y-28448000D01*
X217269695Y-28448000D01*
X217502104Y-28448000D01*
X217716822Y-28359061D01*
X217881161Y-28194723D01*
X217970100Y-27980005D01*
X217970100Y-33921618D01*
X217919393Y-34043735D01*
X217919208Y-34255934D01*
X217982800Y-34409838D01*
X217982800Y-36038461D01*
X217665480Y-36355781D01*
X217665480Y-34515562D01*
X217665480Y-31975562D01*
X217665480Y-29435562D01*
X217507271Y-29052665D01*
X217214576Y-28759459D01*
X216831956Y-28600581D01*
X216446100Y-28600244D01*
X216446100Y-28301950D01*
X216446100Y-27279600D01*
X216446100Y-26924000D01*
X216446100Y-25901650D01*
X216300050Y-25755600D01*
X215978105Y-25755600D01*
X215745696Y-25755600D01*
X215530978Y-25844539D01*
X215366639Y-26008877D01*
X215289578Y-26194918D01*
X215289578Y-5824138D01*
X215133192Y-5445654D01*
X214843870Y-5155826D01*
X214465659Y-4998779D01*
X214056138Y-4998422D01*
X213677654Y-5154808D01*
X213387826Y-5444130D01*
X213230779Y-5822341D01*
X213230422Y-6231862D01*
X213386808Y-6610346D01*
X213676130Y-6900174D01*
X214054341Y-7057221D01*
X214463862Y-7057578D01*
X214842346Y-6901192D01*
X215132174Y-6611870D01*
X215289221Y-6233659D01*
X215289578Y-5824138D01*
X215289578Y-26194918D01*
X215277700Y-26223595D01*
X215277700Y-26777950D01*
X215423750Y-26924000D01*
X216446100Y-26924000D01*
X216446100Y-27279600D01*
X215423750Y-27279600D01*
X215277700Y-27425650D01*
X215277700Y-27980005D01*
X215366639Y-28194723D01*
X215530978Y-28359061D01*
X215745696Y-28448000D01*
X215978105Y-28448000D01*
X216300050Y-28448000D01*
X216446100Y-28301950D01*
X216446100Y-28600244D01*
X216417662Y-28600220D01*
X216034765Y-28758429D01*
X215741559Y-29051124D01*
X215582681Y-29433744D01*
X215582320Y-29848038D01*
X215740529Y-30230935D01*
X216033224Y-30524141D01*
X216415844Y-30683019D01*
X216830138Y-30683380D01*
X217213035Y-30525171D01*
X217506241Y-30232476D01*
X217665119Y-29849856D01*
X217665480Y-29435562D01*
X217665480Y-31975562D01*
X217507271Y-31592665D01*
X217214576Y-31299459D01*
X216831956Y-31140581D01*
X216417662Y-31140220D01*
X216034765Y-31298429D01*
X215741559Y-31591124D01*
X215582681Y-31973744D01*
X215582320Y-32388038D01*
X215740529Y-32770935D01*
X216033224Y-33064141D01*
X216415844Y-33223019D01*
X216830138Y-33223380D01*
X217213035Y-33065171D01*
X217506241Y-32772476D01*
X217665119Y-32389856D01*
X217665480Y-31975562D01*
X217665480Y-34515562D01*
X217507271Y-34132665D01*
X217214576Y-33839459D01*
X216831956Y-33680581D01*
X216417662Y-33680220D01*
X216034765Y-33838429D01*
X215741559Y-34131124D01*
X215582681Y-34513744D01*
X215582320Y-34928038D01*
X215740529Y-35310935D01*
X216033224Y-35604141D01*
X216415844Y-35763019D01*
X216830138Y-35763380D01*
X217213035Y-35605171D01*
X217506241Y-35312476D01*
X217665119Y-34929856D01*
X217665480Y-34515562D01*
X217665480Y-36355781D01*
X217419517Y-36601744D01*
X217207770Y-36389626D01*
X216829559Y-36232579D01*
X216420038Y-36232222D01*
X216041554Y-36388608D01*
X215751726Y-36677930D01*
X215594679Y-37056141D01*
X215594322Y-37465662D01*
X215750708Y-37844146D01*
X216040030Y-38133974D01*
X216418241Y-38291021D01*
X216827762Y-38291378D01*
X217206246Y-38134992D01*
X217496074Y-37845670D01*
X217554148Y-37705811D01*
X217603823Y-37695931D01*
X217756269Y-37594069D01*
X218784969Y-36565370D01*
X218784969Y-36565369D01*
X218886831Y-36412923D01*
X218922599Y-36233100D01*
X218922600Y-36233100D01*
X218922600Y-34409566D01*
X218986007Y-34256865D01*
X218986192Y-34044666D01*
X218986192Y-56534744D01*
X218913311Y-56564858D01*
X218655862Y-56821858D01*
X218516359Y-57157817D01*
X218516042Y-57521587D01*
X218516200Y-57521969D01*
X218516200Y-61150275D01*
X218516042Y-61331587D01*
X218585805Y-61500426D01*
X218654958Y-61667789D01*
X218784022Y-61797078D01*
X218911958Y-61925238D01*
X219080674Y-61995295D01*
X219247917Y-62064741D01*
X219430600Y-62064900D01*
X219611687Y-62065058D01*
X219780526Y-61995295D01*
X219947889Y-61926142D01*
X220077178Y-61797078D01*
X220205338Y-61669142D01*
X220275395Y-61500426D01*
X220344841Y-61333183D01*
X220345000Y-61150500D01*
X220345158Y-60969413D01*
X220345158Y-72183513D01*
X220206242Y-71847311D01*
X219949242Y-71589862D01*
X219613283Y-71450359D01*
X219249513Y-71450042D01*
X218913311Y-71588958D01*
X218655862Y-71845958D01*
X218516359Y-72181917D01*
X218516042Y-72545687D01*
X218654958Y-72881889D01*
X218696396Y-72923400D01*
X214092496Y-72923400D01*
X214185374Y-72699724D01*
X214185625Y-72411739D01*
X214075650Y-72145579D01*
X213872192Y-71941765D01*
X213606224Y-71831326D01*
X213318239Y-71831075D01*
X213052079Y-71941050D01*
X212894674Y-72098180D01*
X212894674Y-9867000D01*
X212894674Y-8167000D01*
X212874004Y-8060466D01*
X212812496Y-7966832D01*
X212749578Y-7924361D01*
X212749578Y-5824138D01*
X212593192Y-5445654D01*
X212303870Y-5155826D01*
X211925659Y-4998779D01*
X211516138Y-4998422D01*
X211137654Y-5154808D01*
X210847826Y-5444130D01*
X210690779Y-5822341D01*
X210690422Y-6231862D01*
X210846808Y-6610346D01*
X211136130Y-6900174D01*
X211514341Y-7057221D01*
X211923862Y-7057578D01*
X212302346Y-6901192D01*
X212592174Y-6611870D01*
X212749221Y-6233659D01*
X212749578Y-5824138D01*
X212749578Y-7924361D01*
X212719642Y-7904154D01*
X212609800Y-7882126D01*
X210909800Y-7882126D01*
X210803266Y-7902796D01*
X210709632Y-7964304D01*
X210646954Y-8057158D01*
X210624926Y-8167000D01*
X210624926Y-9867000D01*
X210645596Y-9973534D01*
X210707104Y-10067168D01*
X210799958Y-10129846D01*
X210909800Y-10151874D01*
X212609800Y-10151874D01*
X212716334Y-10131204D01*
X212809968Y-10069696D01*
X212872646Y-9976842D01*
X212894674Y-9867000D01*
X212894674Y-72098180D01*
X212848265Y-72144508D01*
X212737826Y-72410476D01*
X212737575Y-72698461D01*
X212830517Y-72923400D01*
X212166292Y-72923400D01*
X212166292Y-41969466D01*
X212085258Y-41773348D01*
X211935341Y-41623169D01*
X211739365Y-41541793D01*
X211527166Y-41541608D01*
X211373261Y-41605200D01*
X211124958Y-41605200D01*
X211124958Y-39023813D01*
X211057725Y-38861098D01*
X211057725Y-38861097D01*
X211055195Y-38848377D01*
X211055195Y-38848376D01*
X211048052Y-38837687D01*
X211048051Y-38837684D01*
X210986042Y-38687611D01*
X210870311Y-38571678D01*
X210870310Y-38571677D01*
X210856978Y-38551724D01*
X210856978Y-38551723D01*
X210209578Y-37904323D01*
X210209578Y-5824138D01*
X210053192Y-5445654D01*
X209763870Y-5155826D01*
X209385659Y-4998779D01*
X208976138Y-4998422D01*
X208597654Y-5154808D01*
X208307826Y-5444130D01*
X208150779Y-5822341D01*
X208150422Y-6231862D01*
X208306808Y-6610346D01*
X208596130Y-6900174D01*
X208974341Y-7057221D01*
X209383862Y-7057578D01*
X209762346Y-6901192D01*
X210052174Y-6611870D01*
X210209221Y-6233659D01*
X210209578Y-5824138D01*
X210209578Y-37904323D01*
X207669578Y-35364323D01*
X207669578Y-5824138D01*
X207513192Y-5445654D01*
X207223870Y-5155826D01*
X206845659Y-4998779D01*
X206436138Y-4998422D01*
X206057654Y-5154808D01*
X205767826Y-5444130D01*
X205610779Y-5822341D01*
X205610422Y-6231862D01*
X205766808Y-6610346D01*
X206056130Y-6900174D01*
X206434341Y-7057221D01*
X206843862Y-7057578D01*
X207222346Y-6901192D01*
X207512174Y-6611870D01*
X207669221Y-6233659D01*
X207669578Y-5824138D01*
X207669578Y-35364323D01*
X207612653Y-35307399D01*
X207612376Y-35307122D01*
X207484440Y-35178962D01*
X207148481Y-35039459D01*
X206784711Y-35039142D01*
X206448509Y-35178058D01*
X206191060Y-35435058D01*
X206051557Y-35771017D01*
X206051240Y-36134787D01*
X206190156Y-36470989D01*
X206319220Y-36600278D01*
X206447156Y-36728438D01*
X206447538Y-36728597D01*
X209430271Y-39711330D01*
X209434758Y-39722189D01*
X209563822Y-39851478D01*
X209691758Y-39979638D01*
X209860474Y-40049695D01*
X210027717Y-40119141D01*
X210210400Y-40119300D01*
X210391487Y-40119458D01*
X210560326Y-40049695D01*
X210727689Y-39980542D01*
X210856978Y-39851478D01*
X210985138Y-39723542D01*
X211055195Y-39554826D01*
X211124641Y-39387583D01*
X211124800Y-39204900D01*
X211124958Y-39023813D01*
X211124958Y-41605200D01*
X205129578Y-41605200D01*
X205129578Y-5824138D01*
X204973192Y-5445654D01*
X204683870Y-5155826D01*
X204305659Y-4998779D01*
X203896138Y-4998422D01*
X203517654Y-5154808D01*
X203227826Y-5444130D01*
X203070779Y-5822341D01*
X203070422Y-6231862D01*
X203226808Y-6610346D01*
X203516130Y-6900174D01*
X203894341Y-7057221D01*
X204303862Y-7057578D01*
X204682346Y-6901192D01*
X204972174Y-6611870D01*
X205129221Y-6233659D01*
X205129578Y-5824138D01*
X205129578Y-41605200D01*
X204216158Y-41605200D01*
X204216158Y-35772613D01*
X204077242Y-35436411D01*
X203820242Y-35178962D01*
X203484283Y-35039459D01*
X203120513Y-35039142D01*
X202784311Y-35178058D01*
X202605256Y-35356800D01*
X202589578Y-35356800D01*
X202589578Y-5824138D01*
X202433192Y-5445654D01*
X202143870Y-5155826D01*
X201765659Y-4998779D01*
X201356138Y-4998422D01*
X200977654Y-5154808D01*
X200687826Y-5444130D01*
X200530779Y-5822341D01*
X200530422Y-6231862D01*
X200686808Y-6610346D01*
X200976130Y-6900174D01*
X201354341Y-7057221D01*
X201763862Y-7057578D01*
X202142346Y-6901192D01*
X202432174Y-6611870D01*
X202589221Y-6233659D01*
X202589578Y-5824138D01*
X202589578Y-35356800D01*
X200558400Y-35356800D01*
X200558400Y-23698200D01*
X200558400Y-14401800D01*
X200049578Y-14401800D01*
X200049578Y-5824138D01*
X199893192Y-5445654D01*
X199603870Y-5155826D01*
X199225659Y-4998779D01*
X198816138Y-4998422D01*
X198437654Y-5154808D01*
X198147826Y-5444130D01*
X197990779Y-5822341D01*
X197990422Y-6231862D01*
X198146808Y-6610346D01*
X198436130Y-6900174D01*
X198814341Y-7057221D01*
X199223862Y-7057578D01*
X199602346Y-6901192D01*
X199892174Y-6611870D01*
X200049221Y-6233659D01*
X200049578Y-5824138D01*
X200049578Y-14401800D01*
X197109896Y-14401800D01*
X197109896Y-9313953D01*
X197062022Y-8765369D01*
X196944192Y-8480901D01*
X196718525Y-8399922D01*
X196467078Y-8651369D01*
X196467078Y-8148475D01*
X196386099Y-7922808D01*
X195860953Y-7757104D01*
X195312369Y-7804978D01*
X195027901Y-7922808D01*
X194969578Y-8085338D01*
X194969578Y-5824138D01*
X194813192Y-5445654D01*
X194523870Y-5155826D01*
X194145659Y-4998779D01*
X193736138Y-4998422D01*
X193357654Y-5154808D01*
X193067826Y-5444130D01*
X192910779Y-5822341D01*
X192910422Y-6231862D01*
X193066808Y-6610346D01*
X193356130Y-6900174D01*
X193734341Y-7057221D01*
X194143862Y-7057578D01*
X194522346Y-6901192D01*
X194812174Y-6611870D01*
X194969221Y-6233659D01*
X194969578Y-5824138D01*
X194969578Y-8085338D01*
X194946922Y-8148475D01*
X195707000Y-8908553D01*
X196467078Y-8148475D01*
X196467078Y-8651369D01*
X195958447Y-9160000D01*
X195972589Y-9174142D01*
X195721142Y-9425589D01*
X195707000Y-9411447D01*
X195692857Y-9425589D01*
X195455553Y-9188285D01*
X195441410Y-9174142D01*
X195455553Y-9160000D01*
X194695475Y-8399922D01*
X194469808Y-8480901D01*
X194304104Y-9006047D01*
X194351978Y-9554631D01*
X194469808Y-9839099D01*
X194695472Y-9920077D01*
X194584378Y-10031172D01*
X194709051Y-10155845D01*
X194706832Y-10157304D01*
X194644154Y-10250158D01*
X194622126Y-10360000D01*
X194622126Y-11960000D01*
X194642796Y-12066534D01*
X194704304Y-12160168D01*
X194797158Y-12222846D01*
X194907000Y-12244874D01*
X196507000Y-12244874D01*
X196613534Y-12224204D01*
X196707168Y-12162696D01*
X196769846Y-12069842D01*
X196791874Y-11960000D01*
X196791874Y-10360000D01*
X196771204Y-10253466D01*
X196709696Y-10159832D01*
X196704481Y-10156312D01*
X196829622Y-10031172D01*
X196718527Y-9920077D01*
X196944192Y-9839099D01*
X197109896Y-9313953D01*
X197109896Y-14401800D01*
X196791874Y-14401800D01*
X192269874Y-14401800D01*
X192269874Y-12026000D01*
X192269874Y-10326000D01*
X192249204Y-10219466D01*
X192187696Y-10125832D01*
X192094842Y-10063154D01*
X191985000Y-10041126D01*
X190285000Y-10041126D01*
X190178466Y-10061796D01*
X190084832Y-10123304D01*
X190022154Y-10216158D01*
X190000126Y-10326000D01*
X190000126Y-12026000D01*
X190020796Y-12132534D01*
X190082304Y-12226168D01*
X190175158Y-12288846D01*
X190285000Y-12310874D01*
X191985000Y-12310874D01*
X192091534Y-12290204D01*
X192185168Y-12228696D01*
X192247846Y-12135842D01*
X192269874Y-12026000D01*
X192269874Y-14401800D01*
X190855600Y-14401800D01*
X190855600Y-23698200D01*
X200558400Y-23698200D01*
X200558400Y-35356800D01*
X198153298Y-35356800D01*
X198136892Y-35340365D01*
X197870924Y-35229926D01*
X197582939Y-35229675D01*
X197316779Y-35339650D01*
X197112965Y-35543108D01*
X197002526Y-35809076D01*
X197002275Y-36097061D01*
X197112250Y-36363221D01*
X197315708Y-36567035D01*
X197581676Y-36677474D01*
X197869661Y-36677725D01*
X198135821Y-36567750D01*
X198153001Y-36550600D01*
X202605430Y-36550600D01*
X202782958Y-36728438D01*
X203118917Y-36867941D01*
X203482687Y-36868258D01*
X203818889Y-36729342D01*
X204076338Y-36472342D01*
X204215841Y-36136383D01*
X204216158Y-35772613D01*
X204216158Y-41605200D01*
X204005366Y-41605200D01*
X203852665Y-41541793D01*
X203640466Y-41541608D01*
X203444348Y-41622642D01*
X203294169Y-41772559D01*
X203212793Y-41968535D01*
X203212608Y-42180734D01*
X203293642Y-42376852D01*
X203443559Y-42527031D01*
X203639535Y-42608407D01*
X203851734Y-42608592D01*
X204005638Y-42545000D01*
X211373533Y-42545000D01*
X211526235Y-42608407D01*
X211738434Y-42608592D01*
X211934552Y-42527558D01*
X212084731Y-42377641D01*
X212166107Y-42181665D01*
X212166292Y-41969466D01*
X212166292Y-72923400D01*
X211549374Y-72923400D01*
X211549374Y-67297300D01*
X211549374Y-65773300D01*
X211528704Y-65666766D01*
X211467196Y-65573132D01*
X211374342Y-65510454D01*
X211264500Y-65488426D01*
X210487352Y-65488426D01*
X210487352Y-52355526D01*
X210406318Y-52159408D01*
X210256401Y-52009229D01*
X210060425Y-51927853D01*
X209995232Y-51927796D01*
X204754828Y-46687392D01*
X204622983Y-46599295D01*
X204581852Y-46591113D01*
X204581852Y-45746446D01*
X204500818Y-45550328D01*
X204350901Y-45400149D01*
X204154925Y-45318773D01*
X204089732Y-45318716D01*
X203492448Y-44721432D01*
X203360603Y-44633335D01*
X203205080Y-44602400D01*
X201066492Y-44602400D01*
X201066492Y-43912566D01*
X200985458Y-43716448D01*
X200939400Y-43670309D01*
X200939400Y-42524692D01*
X200984931Y-42479241D01*
X201066307Y-42283265D01*
X201066492Y-42071066D01*
X200985458Y-41874948D01*
X200835541Y-41724769D01*
X200639565Y-41643393D01*
X200427366Y-41643208D01*
X200231248Y-41724242D01*
X200081069Y-41874159D01*
X199999693Y-42070135D01*
X199999508Y-42282334D01*
X200080542Y-42478452D01*
X200126600Y-42524590D01*
X200126600Y-43670207D01*
X200081069Y-43715659D01*
X199999693Y-43911635D01*
X199999508Y-44123834D01*
X200080542Y-44319952D01*
X200230459Y-44470131D01*
X200426435Y-44551507D01*
X200638634Y-44551692D01*
X200834752Y-44470658D01*
X200984931Y-44320741D01*
X201066307Y-44124765D01*
X201066492Y-43912566D01*
X201066492Y-44602400D01*
X200139294Y-44602400D01*
X200083701Y-44546709D01*
X199887725Y-44465333D01*
X199675526Y-44465148D01*
X199479408Y-44546182D01*
X199329229Y-44696099D01*
X199247853Y-44892075D01*
X199247668Y-45104274D01*
X199328702Y-45300392D01*
X199478619Y-45450571D01*
X199674595Y-45531947D01*
X199886794Y-45532132D01*
X200082912Y-45451098D01*
X200118872Y-45415200D01*
X203036744Y-45415200D01*
X203514924Y-45893380D01*
X203514868Y-45957714D01*
X203595902Y-46153832D01*
X203745819Y-46304011D01*
X203941795Y-46385387D01*
X204153994Y-46385572D01*
X204350112Y-46304538D01*
X204500291Y-46154621D01*
X204581667Y-45958645D01*
X204581852Y-45746446D01*
X204581852Y-46591113D01*
X204467460Y-46568360D01*
X201869735Y-46568360D01*
X201178508Y-45877132D01*
X201046663Y-45789035D01*
X200891140Y-45758100D01*
X200019920Y-45758100D01*
X199864397Y-45789035D01*
X199732551Y-45877132D01*
X199694139Y-45915544D01*
X199629806Y-45915488D01*
X199433688Y-45996522D01*
X199283509Y-46146439D01*
X199202133Y-46342415D01*
X199201948Y-46554614D01*
X199282982Y-46750732D01*
X199432899Y-46900911D01*
X199628875Y-46982287D01*
X199841074Y-46982472D01*
X199999564Y-46916985D01*
X199999508Y-46981334D01*
X200080542Y-47177452D01*
X200126600Y-47223590D01*
X200126600Y-47739300D01*
X200157535Y-47894823D01*
X200245632Y-48026668D01*
X201752164Y-49533200D01*
X201752108Y-49597534D01*
X201833142Y-49793652D01*
X201983059Y-49943831D01*
X202179035Y-50025207D01*
X202391234Y-50025392D01*
X202587352Y-49944358D01*
X202737531Y-49794441D01*
X202818907Y-49598465D01*
X202819092Y-49386266D01*
X202738058Y-49190148D01*
X202588141Y-49039969D01*
X202392165Y-48958593D01*
X202326972Y-48958536D01*
X200939400Y-47570964D01*
X200939400Y-47223692D01*
X200984931Y-47178241D01*
X201066307Y-46982265D01*
X201066366Y-46914462D01*
X201414032Y-47262128D01*
X201545877Y-47350225D01*
X201545878Y-47350225D01*
X201701400Y-47381160D01*
X204299124Y-47381160D01*
X208711917Y-51793953D01*
X208704065Y-51790693D01*
X208491866Y-51790508D01*
X208295748Y-51871542D01*
X208145569Y-52021459D01*
X208064193Y-52217435D01*
X208064008Y-52429634D01*
X208145042Y-52625752D01*
X208294959Y-52775931D01*
X208490935Y-52857307D01*
X208556127Y-52857363D01*
X209270564Y-53571800D01*
X209270508Y-53636134D01*
X209351542Y-53832252D01*
X209501459Y-53982431D01*
X209697435Y-54063807D01*
X209909634Y-54063992D01*
X210105752Y-53982958D01*
X210255931Y-53833041D01*
X210337307Y-53637065D01*
X210337492Y-53424866D01*
X210256458Y-53228748D01*
X210106541Y-53078569D01*
X209910565Y-52997193D01*
X209845372Y-52997136D01*
X209839442Y-52991206D01*
X209847295Y-52994467D01*
X210059494Y-52994652D01*
X210255612Y-52913618D01*
X210405791Y-52763701D01*
X210487167Y-52567725D01*
X210487352Y-52355526D01*
X210487352Y-65488426D01*
X209740500Y-65488426D01*
X209633966Y-65509096D01*
X209540332Y-65570604D01*
X209477654Y-65663458D01*
X209455626Y-65773300D01*
X209455626Y-67297300D01*
X209476296Y-67403834D01*
X209537804Y-67497468D01*
X209630658Y-67560146D01*
X209740500Y-67582174D01*
X211264500Y-67582174D01*
X211371034Y-67561504D01*
X211464668Y-67499996D01*
X211527346Y-67407142D01*
X211549374Y-67297300D01*
X211549374Y-72923400D01*
X211544080Y-72923400D01*
X211544080Y-68869062D01*
X211385871Y-68486165D01*
X211093176Y-68192959D01*
X210710556Y-68034081D01*
X210296262Y-68033720D01*
X209913365Y-68191929D01*
X209620159Y-68484624D01*
X209461281Y-68867244D01*
X209460920Y-69281538D01*
X209619129Y-69664435D01*
X209911824Y-69957641D01*
X210294444Y-70116519D01*
X210708738Y-70116880D01*
X211091635Y-69958671D01*
X211384841Y-69665976D01*
X211543719Y-69283356D01*
X211544080Y-68869062D01*
X211544080Y-72923400D01*
X209327411Y-72923400D01*
X209327411Y-66680134D01*
X209278939Y-66146780D01*
X209168088Y-65879162D01*
X208946346Y-65802901D01*
X208694899Y-66054348D01*
X208694899Y-65551454D01*
X208618638Y-65329712D01*
X208107334Y-65170389D01*
X207573980Y-65218861D01*
X207306362Y-65329712D01*
X207230101Y-65551454D01*
X207962500Y-66283853D01*
X208694899Y-65551454D01*
X208694899Y-66054348D01*
X208213947Y-66535300D01*
X208946346Y-67267699D01*
X209168088Y-67191438D01*
X209327411Y-66680134D01*
X209327411Y-72923400D01*
X209004080Y-72923400D01*
X209004080Y-68869062D01*
X208845871Y-68486165D01*
X208694899Y-68334929D01*
X208694899Y-67519146D01*
X207962500Y-66786747D01*
X207711053Y-67038194D01*
X207711053Y-66535300D01*
X206978654Y-65802901D01*
X206756912Y-65879162D01*
X206701606Y-66056650D01*
X206628088Y-65879162D01*
X206406346Y-65802901D01*
X206154899Y-66054348D01*
X206154899Y-65551454D01*
X206078638Y-65329712D01*
X205567334Y-65170389D01*
X205033980Y-65218861D01*
X204766362Y-65329712D01*
X204690101Y-65551454D01*
X205422500Y-66283853D01*
X206154899Y-65551454D01*
X206154899Y-66054348D01*
X205673947Y-66535300D01*
X206406346Y-67267699D01*
X206628088Y-67191438D01*
X206683393Y-67013949D01*
X206756912Y-67191438D01*
X206978654Y-67267699D01*
X207711053Y-66535300D01*
X207711053Y-67038194D01*
X207230101Y-67519146D01*
X207306362Y-67740888D01*
X207817666Y-67900211D01*
X208351020Y-67851739D01*
X208618638Y-67740888D01*
X208694899Y-67519146D01*
X208694899Y-68334929D01*
X208553176Y-68192959D01*
X208170556Y-68034081D01*
X207756262Y-68033720D01*
X207373365Y-68191929D01*
X207080159Y-68484624D01*
X206921281Y-68867244D01*
X206920920Y-69281538D01*
X207079129Y-69664435D01*
X207371824Y-69957641D01*
X207754444Y-70116519D01*
X208168738Y-70116880D01*
X208551635Y-69958671D01*
X208844841Y-69665976D01*
X209003719Y-69283356D01*
X209004080Y-68869062D01*
X209004080Y-72923400D01*
X206464080Y-72923400D01*
X206464080Y-68869062D01*
X206305871Y-68486165D01*
X206154899Y-68334929D01*
X206154899Y-67519146D01*
X205422500Y-66786747D01*
X205171053Y-67038194D01*
X205171053Y-66535300D01*
X204438654Y-65802901D01*
X204216912Y-65879162D01*
X204161606Y-66056650D01*
X204088088Y-65879162D01*
X203866346Y-65802901D01*
X203614899Y-66054348D01*
X203614899Y-65551454D01*
X203538638Y-65329712D01*
X203027334Y-65170389D01*
X202493980Y-65218861D01*
X202226362Y-65329712D01*
X202150101Y-65551454D01*
X202882500Y-66283853D01*
X203614899Y-65551454D01*
X203614899Y-66054348D01*
X203133947Y-66535300D01*
X203866346Y-67267699D01*
X204088088Y-67191438D01*
X204143393Y-67013949D01*
X204216912Y-67191438D01*
X204438654Y-67267699D01*
X205171053Y-66535300D01*
X205171053Y-67038194D01*
X204690101Y-67519146D01*
X204766362Y-67740888D01*
X205277666Y-67900211D01*
X205811020Y-67851739D01*
X206078638Y-67740888D01*
X206154899Y-67519146D01*
X206154899Y-68334929D01*
X206013176Y-68192959D01*
X205630556Y-68034081D01*
X205216262Y-68033720D01*
X204833365Y-68191929D01*
X204540159Y-68484624D01*
X204381281Y-68867244D01*
X204380920Y-69281538D01*
X204539129Y-69664435D01*
X204831824Y-69957641D01*
X205214444Y-70116519D01*
X205628738Y-70116880D01*
X206011635Y-69958671D01*
X206304841Y-69665976D01*
X206463719Y-69283356D01*
X206464080Y-68869062D01*
X206464080Y-72923400D01*
X203924080Y-72923400D01*
X203924080Y-68869062D01*
X203765871Y-68486165D01*
X203614899Y-68334929D01*
X203614899Y-67519146D01*
X202882500Y-66786747D01*
X202631053Y-67038194D01*
X202631053Y-66535300D01*
X201898654Y-65802901D01*
X201676912Y-65879162D01*
X201621606Y-66056650D01*
X201548088Y-65879162D01*
X201326346Y-65802901D01*
X201074899Y-66054348D01*
X201074899Y-65551454D01*
X200998638Y-65329712D01*
X200487334Y-65170389D01*
X199953980Y-65218861D01*
X199686362Y-65329712D01*
X199610101Y-65551454D01*
X200342500Y-66283853D01*
X201074899Y-65551454D01*
X201074899Y-66054348D01*
X200593947Y-66535300D01*
X201326346Y-67267699D01*
X201548088Y-67191438D01*
X201603393Y-67013949D01*
X201676912Y-67191438D01*
X201898654Y-67267699D01*
X202631053Y-66535300D01*
X202631053Y-67038194D01*
X202150101Y-67519146D01*
X202226362Y-67740888D01*
X202737666Y-67900211D01*
X203271020Y-67851739D01*
X203538638Y-67740888D01*
X203614899Y-67519146D01*
X203614899Y-68334929D01*
X203473176Y-68192959D01*
X203090556Y-68034081D01*
X202676262Y-68033720D01*
X202293365Y-68191929D01*
X202000159Y-68484624D01*
X201841281Y-68867244D01*
X201840920Y-69281538D01*
X201999129Y-69664435D01*
X202291824Y-69957641D01*
X202674444Y-70116519D01*
X203088738Y-70116880D01*
X203471635Y-69958671D01*
X203764841Y-69665976D01*
X203923719Y-69283356D01*
X203924080Y-68869062D01*
X203924080Y-72923400D01*
X201384080Y-72923400D01*
X201384080Y-68869062D01*
X201225871Y-68486165D01*
X201074899Y-68334929D01*
X201074899Y-67519146D01*
X200342500Y-66786747D01*
X200091053Y-67038194D01*
X200091053Y-66535300D01*
X199358654Y-65802901D01*
X199136912Y-65879162D01*
X198977589Y-66390466D01*
X199026061Y-66923820D01*
X199136912Y-67191438D01*
X199358654Y-67267699D01*
X200091053Y-66535300D01*
X200091053Y-67038194D01*
X199610101Y-67519146D01*
X199686362Y-67740888D01*
X200197666Y-67900211D01*
X200731020Y-67851739D01*
X200998638Y-67740888D01*
X201074899Y-67519146D01*
X201074899Y-68334929D01*
X200933176Y-68192959D01*
X200550556Y-68034081D01*
X200136262Y-68033720D01*
X199753365Y-68191929D01*
X199460159Y-68484624D01*
X199301281Y-68867244D01*
X199300920Y-69281538D01*
X199459129Y-69664435D01*
X199751824Y-69957641D01*
X200134444Y-70116519D01*
X200548738Y-70116880D01*
X200931635Y-69958671D01*
X201224841Y-69665976D01*
X201383719Y-69283356D01*
X201384080Y-68869062D01*
X201384080Y-72923400D01*
X195550400Y-72923400D01*
X195550400Y-66548000D01*
X195388309Y-65733114D01*
X194926713Y-65042287D01*
X194235886Y-64580691D01*
X193560792Y-64446406D01*
X193560792Y-47659066D01*
X193479758Y-47462948D01*
X193329841Y-47312769D01*
X193133865Y-47231393D01*
X192921666Y-47231208D01*
X192725548Y-47312242D01*
X192679409Y-47358300D01*
X192511546Y-47358300D01*
X192641031Y-47229041D01*
X192722407Y-47033065D01*
X192722592Y-46820866D01*
X192641558Y-46624748D01*
X192491641Y-46474569D01*
X192295665Y-46393193D01*
X192083466Y-46393008D01*
X191887348Y-46474042D01*
X191841209Y-46520100D01*
X190212992Y-46520100D01*
X190167541Y-46474569D01*
X189971565Y-46393193D01*
X189759366Y-46393008D01*
X189563248Y-46474042D01*
X189413069Y-46623959D01*
X189331693Y-46819935D01*
X189331508Y-47032134D01*
X189412542Y-47228252D01*
X189562459Y-47378431D01*
X189758435Y-47459807D01*
X189970634Y-47459992D01*
X190166752Y-47378958D01*
X190212890Y-47332900D01*
X190368053Y-47332900D01*
X190238569Y-47462159D01*
X190157193Y-47658135D01*
X190157008Y-47870334D01*
X190238042Y-48066452D01*
X190387959Y-48216631D01*
X190583935Y-48298007D01*
X190796134Y-48298192D01*
X190992252Y-48217158D01*
X191038390Y-48171100D01*
X192679307Y-48171100D01*
X192724759Y-48216631D01*
X192920735Y-48298007D01*
X193132934Y-48298192D01*
X193329052Y-48217158D01*
X193479231Y-48067241D01*
X193560607Y-47871265D01*
X193560792Y-47659066D01*
X193560792Y-64446406D01*
X193421000Y-64418600D01*
X192606114Y-64580691D01*
X191915287Y-65042287D01*
X191453691Y-65733114D01*
X191291600Y-66548000D01*
X191453691Y-67362886D01*
X191915287Y-68053713D01*
X192606114Y-68515309D01*
X193421000Y-68677400D01*
X194235886Y-68515309D01*
X194926713Y-68053713D01*
X195388309Y-67362886D01*
X195550400Y-66548000D01*
X195550400Y-72923400D01*
X186055092Y-72923400D01*
X186055092Y-30285466D01*
X185974058Y-30089348D01*
X185928000Y-30043209D01*
X185928000Y-28719792D01*
X185973531Y-28674341D01*
X186054907Y-28478365D01*
X186055092Y-28266166D01*
X185974058Y-28070048D01*
X185824141Y-27919869D01*
X185628165Y-27838493D01*
X185415966Y-27838308D01*
X185219848Y-27919342D01*
X185069669Y-28069259D01*
X184988293Y-28265235D01*
X184988108Y-28477434D01*
X185069142Y-28673552D01*
X185115200Y-28719690D01*
X185115200Y-30043107D01*
X185069669Y-30088559D01*
X184988293Y-30284535D01*
X184988108Y-30496734D01*
X185069142Y-30692852D01*
X185219059Y-30843031D01*
X185415035Y-30924407D01*
X185627234Y-30924592D01*
X185823352Y-30843558D01*
X185973531Y-30693641D01*
X186054907Y-30497665D01*
X186055092Y-30285466D01*
X186055092Y-72923400D01*
X181533892Y-72923400D01*
X181533892Y-26716766D01*
X181452858Y-26520648D01*
X181302941Y-26370469D01*
X181106965Y-26289093D01*
X180894766Y-26288908D01*
X180698648Y-26369942D01*
X180652509Y-26416000D01*
X176839892Y-26416000D01*
X176794441Y-26370469D01*
X176598465Y-26289093D01*
X176386266Y-26288908D01*
X176190148Y-26369942D01*
X176039969Y-26519859D01*
X175958593Y-26715835D01*
X175958408Y-26928034D01*
X176039442Y-27124152D01*
X176189359Y-27274331D01*
X176385335Y-27355707D01*
X176597534Y-27355892D01*
X176793652Y-27274858D01*
X176839790Y-27228800D01*
X180652407Y-27228800D01*
X180697859Y-27274331D01*
X180893835Y-27355707D01*
X181106034Y-27355892D01*
X181302152Y-27274858D01*
X181452331Y-27124941D01*
X181533707Y-26928965D01*
X181533892Y-26716766D01*
X181533892Y-72923400D01*
X181495792Y-72923400D01*
X181495792Y-28380466D01*
X181414758Y-28184348D01*
X181264841Y-28034169D01*
X181068865Y-27952793D01*
X180873311Y-27952622D01*
X180873492Y-27745466D01*
X180792458Y-27549348D01*
X180642541Y-27399169D01*
X180446565Y-27317793D01*
X180234366Y-27317608D01*
X180038248Y-27398642D01*
X179992109Y-27444700D01*
X179456092Y-27444700D01*
X179410641Y-27399169D01*
X179214665Y-27317793D01*
X179002466Y-27317608D01*
X178806348Y-27398642D01*
X178656169Y-27548559D01*
X178574793Y-27744535D01*
X178574608Y-27956734D01*
X178625416Y-28079700D01*
X177500292Y-28079700D01*
X177454841Y-28034169D01*
X177258865Y-27952793D01*
X177046666Y-27952608D01*
X176850548Y-28033642D01*
X176700369Y-28183559D01*
X176618993Y-28379535D01*
X176618808Y-28591734D01*
X176699842Y-28787852D01*
X176849759Y-28938031D01*
X177045735Y-29019407D01*
X177257934Y-29019592D01*
X177454052Y-28938558D01*
X177500190Y-28892500D01*
X180614307Y-28892500D01*
X180659759Y-28938031D01*
X180855735Y-29019407D01*
X181067934Y-29019592D01*
X181264052Y-28938558D01*
X181414231Y-28788641D01*
X181495607Y-28592665D01*
X181495792Y-28380466D01*
X181495792Y-72923400D01*
X181483092Y-72923400D01*
X181483092Y-31428466D01*
X181402058Y-31232348D01*
X181284841Y-31114926D01*
X181401531Y-30998441D01*
X181482907Y-30802465D01*
X181483092Y-30590266D01*
X181402058Y-30394148D01*
X181284841Y-30276726D01*
X181401531Y-30160241D01*
X181482907Y-29964265D01*
X181483092Y-29752066D01*
X181402058Y-29555948D01*
X181252141Y-29405769D01*
X181056165Y-29324393D01*
X180843966Y-29324208D01*
X180647848Y-29405242D01*
X180601709Y-29451300D01*
X177538392Y-29451300D01*
X177492941Y-29405769D01*
X177296965Y-29324393D01*
X177084766Y-29324208D01*
X176888648Y-29405242D01*
X176738469Y-29555159D01*
X176657093Y-29751135D01*
X176656908Y-29963334D01*
X176737942Y-30159452D01*
X176855158Y-30276873D01*
X176738469Y-30393359D01*
X176657093Y-30589335D01*
X176656908Y-30801534D01*
X176737942Y-30997652D01*
X176855158Y-31115073D01*
X176738469Y-31231559D01*
X176657093Y-31427535D01*
X176656908Y-31639734D01*
X176737942Y-31835852D01*
X176867858Y-31965995D01*
X176738469Y-32095159D01*
X176657093Y-32291135D01*
X176656908Y-32503334D01*
X176737942Y-32699452D01*
X176887859Y-32849631D01*
X177083835Y-32931007D01*
X177296034Y-32931192D01*
X177492152Y-32850158D01*
X177538290Y-32804100D01*
X180588907Y-32804100D01*
X180634359Y-32849631D01*
X180830335Y-32931007D01*
X181042534Y-32931192D01*
X181238652Y-32850158D01*
X181388831Y-32700241D01*
X181470207Y-32504265D01*
X181470392Y-32292066D01*
X181389358Y-32095948D01*
X181265780Y-31972154D01*
X181401531Y-31836641D01*
X181482907Y-31640665D01*
X181483092Y-31428466D01*
X181483092Y-72923400D01*
X161264600Y-72923400D01*
X161264600Y-70502846D01*
X161327974Y-70350224D01*
X161328225Y-70062239D01*
X161218250Y-69796079D01*
X161014792Y-69592265D01*
X160748824Y-69481826D01*
X160460839Y-69481575D01*
X160194679Y-69591550D01*
X159990865Y-69795008D01*
X159880426Y-70060976D01*
X159880175Y-70348961D01*
X159943800Y-70502945D01*
X159943800Y-72923400D01*
X159042192Y-72923400D01*
X159042192Y-67534566D01*
X158961158Y-67338448D01*
X158811241Y-67188269D01*
X158615265Y-67106893D01*
X158403066Y-67106708D01*
X158230283Y-67178100D01*
X157794203Y-67178100D01*
X157741476Y-67097832D01*
X157741067Y-67097556D01*
X157794836Y-67017900D01*
X158249433Y-67017900D01*
X158402135Y-67081307D01*
X158614334Y-67081492D01*
X158810452Y-67000458D01*
X158960631Y-66850541D01*
X159042007Y-66654565D01*
X159042192Y-66442366D01*
X158961158Y-66246248D01*
X158811241Y-66096069D01*
X158615265Y-66014693D01*
X158403066Y-66014508D01*
X158249161Y-66078100D01*
X157794203Y-66078100D01*
X157741476Y-65997832D01*
X157741067Y-65997556D01*
X157794836Y-65917900D01*
X158261233Y-65917900D01*
X158402135Y-65976407D01*
X158614334Y-65976592D01*
X158810452Y-65895558D01*
X158960631Y-65745641D01*
X159042007Y-65549665D01*
X159042192Y-65337466D01*
X158961158Y-65141348D01*
X158811241Y-64991169D01*
X158615265Y-64909793D01*
X158403066Y-64909608D01*
X158237302Y-64978100D01*
X157794203Y-64978100D01*
X157741476Y-64897832D01*
X157648622Y-64835154D01*
X157538780Y-64813126D01*
X156238780Y-64813126D01*
X156132246Y-64833796D01*
X156038612Y-64895304D01*
X155975934Y-64988158D01*
X155953906Y-65098000D01*
X155953906Y-65798000D01*
X155974576Y-65904534D01*
X156036084Y-65998168D01*
X156036492Y-65998443D01*
X155975934Y-66088158D01*
X155953906Y-66198000D01*
X155953906Y-66898000D01*
X155974576Y-67004534D01*
X156036084Y-67098168D01*
X156036492Y-67098443D01*
X155975934Y-67188158D01*
X155953906Y-67298000D01*
X155953906Y-67998000D01*
X155974576Y-68104534D01*
X156036084Y-68198168D01*
X156128938Y-68260846D01*
X156238780Y-68282874D01*
X157538780Y-68282874D01*
X157645314Y-68262204D01*
X157738948Y-68200696D01*
X157794836Y-68117900D01*
X158268217Y-68117900D01*
X158402135Y-68173507D01*
X158614334Y-68173692D01*
X158810452Y-68092658D01*
X158960631Y-67942741D01*
X159042007Y-67746765D01*
X159042192Y-67534566D01*
X159042192Y-72923400D01*
X157650360Y-72923400D01*
X157650360Y-70761362D01*
X157492151Y-70378465D01*
X157199456Y-70085259D01*
X156816836Y-69926381D01*
X156402542Y-69926020D01*
X156019645Y-70084229D01*
X155726439Y-70376924D01*
X155567561Y-70759544D01*
X155567200Y-71173838D01*
X155725409Y-71556735D01*
X156018104Y-71849941D01*
X156400724Y-72008819D01*
X156815018Y-72009180D01*
X157197915Y-71850971D01*
X157491121Y-71558276D01*
X157649999Y-71175656D01*
X157650360Y-70761362D01*
X157650360Y-72923400D01*
X155414980Y-72923400D01*
X155414980Y-71845804D01*
X155414980Y-71613395D01*
X155414980Y-71291450D01*
X155414980Y-70643750D01*
X155414980Y-70321805D01*
X155414980Y-70089396D01*
X155326041Y-69874678D01*
X155161703Y-69710339D01*
X154946985Y-69621400D01*
X154723654Y-69621400D01*
X154723654Y-67998000D01*
X154723654Y-67298000D01*
X154702984Y-67191466D01*
X154641476Y-67097832D01*
X154641067Y-67097556D01*
X154701626Y-67007842D01*
X154723654Y-66898000D01*
X154723654Y-66198000D01*
X154702984Y-66091466D01*
X154641476Y-65997832D01*
X154641067Y-65997556D01*
X154701626Y-65907842D01*
X154723654Y-65798000D01*
X154723654Y-65098000D01*
X154702984Y-64991466D01*
X154641476Y-64897832D01*
X154548622Y-64835154D01*
X154438780Y-64813126D01*
X153138780Y-64813126D01*
X153032246Y-64833796D01*
X152938612Y-64895304D01*
X152875934Y-64988158D01*
X152853906Y-65098000D01*
X152853906Y-65798000D01*
X152874576Y-65904534D01*
X152936084Y-65998168D01*
X152936492Y-65998443D01*
X152875934Y-66088158D01*
X152853906Y-66198000D01*
X152853906Y-66898000D01*
X152874576Y-67004534D01*
X152936084Y-67098168D01*
X152936492Y-67098443D01*
X152875934Y-67188158D01*
X152853906Y-67298000D01*
X152853906Y-67998000D01*
X152874576Y-68104534D01*
X152936084Y-68198168D01*
X153028938Y-68260846D01*
X153128380Y-68280788D01*
X153128380Y-68538664D01*
X153060526Y-68702076D01*
X153060275Y-68990061D01*
X153170250Y-69256221D01*
X153373708Y-69460035D01*
X153639676Y-69570474D01*
X153927661Y-69570725D01*
X154193821Y-69460750D01*
X154397635Y-69257292D01*
X154508074Y-68991324D01*
X154508325Y-68703339D01*
X154449180Y-68560197D01*
X154449180Y-68280856D01*
X154545314Y-68262204D01*
X154638948Y-68200696D01*
X154701626Y-68107842D01*
X154723654Y-67998000D01*
X154723654Y-69621400D01*
X154392630Y-69621400D01*
X154246580Y-69767450D01*
X154246580Y-70789800D01*
X155268930Y-70789800D01*
X155414980Y-70643750D01*
X155414980Y-71291450D01*
X155268930Y-71145400D01*
X154246580Y-71145400D01*
X154246580Y-72167750D01*
X154392630Y-72313800D01*
X154946985Y-72313800D01*
X155161703Y-72224861D01*
X155326041Y-72060522D01*
X155414980Y-71845804D01*
X155414980Y-72923400D01*
X153890980Y-72923400D01*
X153890980Y-72167750D01*
X153890980Y-71145400D01*
X153890980Y-70789800D01*
X153890980Y-69767450D01*
X153744930Y-69621400D01*
X153190575Y-69621400D01*
X152975857Y-69710339D01*
X152811519Y-69874678D01*
X152722580Y-70089396D01*
X152722580Y-70321805D01*
X152722580Y-70643750D01*
X152868630Y-70789800D01*
X153890980Y-70789800D01*
X153890980Y-71145400D01*
X152868630Y-71145400D01*
X152722580Y-71291450D01*
X152722580Y-71613395D01*
X152722580Y-71845804D01*
X152811519Y-72060522D01*
X152975857Y-72224861D01*
X153190575Y-72313800D01*
X153744930Y-72313800D01*
X153890980Y-72167750D01*
X153890980Y-72923400D01*
X148667080Y-72923400D01*
X148667080Y-6019800D01*
X148504989Y-5204914D01*
X148043393Y-4514087D01*
X147352566Y-4052491D01*
X146537680Y-3890400D01*
X145722794Y-4052491D01*
X145031967Y-4514087D01*
X144570371Y-5204914D01*
X144408280Y-6019800D01*
X144570371Y-6834686D01*
X145031967Y-7525513D01*
X145722794Y-7987109D01*
X146537680Y-8149200D01*
X147352566Y-7987109D01*
X148043393Y-7525513D01*
X148504989Y-6834686D01*
X148667080Y-6019800D01*
X148667080Y-72923400D01*
X119375800Y-72923400D01*
X119375800Y-66548000D01*
X119213709Y-65733114D01*
X118752113Y-65042287D01*
X118061286Y-64580691D01*
X117246400Y-64418600D01*
X116431514Y-64580691D01*
X115740687Y-65042287D01*
X115279091Y-65733114D01*
X115117000Y-66548000D01*
X115279091Y-67362886D01*
X115740687Y-68053713D01*
X116431514Y-68515309D01*
X117246400Y-68677400D01*
X118061286Y-68515309D01*
X118752113Y-68053713D01*
X119213709Y-67362886D01*
X119375800Y-66548000D01*
X119375800Y-72923400D01*
X85064600Y-72923400D01*
X85064600Y-70502846D01*
X85127974Y-70350224D01*
X85128225Y-70062239D01*
X85018250Y-69796079D01*
X84814792Y-69592265D01*
X84548824Y-69481826D01*
X84260839Y-69481575D01*
X83994679Y-69591550D01*
X83790865Y-69795008D01*
X83680426Y-70060976D01*
X83680175Y-70348961D01*
X83743800Y-70502945D01*
X83743800Y-72923400D01*
X82842192Y-72923400D01*
X82842192Y-67547266D01*
X82761158Y-67351148D01*
X82611241Y-67200969D01*
X82415265Y-67119593D01*
X82203066Y-67119408D01*
X82061019Y-67178100D01*
X81594203Y-67178100D01*
X81541476Y-67097832D01*
X81541067Y-67097556D01*
X81594836Y-67017900D01*
X82049433Y-67017900D01*
X82202135Y-67081307D01*
X82414334Y-67081492D01*
X82610452Y-67000458D01*
X82760631Y-66850541D01*
X82842007Y-66654565D01*
X82842192Y-66442366D01*
X82761158Y-66246248D01*
X82611241Y-66096069D01*
X82415265Y-66014693D01*
X82203066Y-66014508D01*
X82049161Y-66078100D01*
X81594203Y-66078100D01*
X81541476Y-65997832D01*
X81541067Y-65997556D01*
X81594836Y-65917900D01*
X82061233Y-65917900D01*
X82202135Y-65976407D01*
X82414334Y-65976592D01*
X82610452Y-65895558D01*
X82760631Y-65745641D01*
X82842007Y-65549665D01*
X82842192Y-65337466D01*
X82761158Y-65141348D01*
X82611241Y-64991169D01*
X82415265Y-64909793D01*
X82203066Y-64909608D01*
X82037302Y-64978100D01*
X81594203Y-64978100D01*
X81541476Y-64897832D01*
X81448622Y-64835154D01*
X81338780Y-64813126D01*
X80038780Y-64813126D01*
X79932246Y-64833796D01*
X79838612Y-64895304D01*
X79775934Y-64988158D01*
X79753906Y-65098000D01*
X79753906Y-65798000D01*
X79774576Y-65904534D01*
X79836084Y-65998168D01*
X79836492Y-65998443D01*
X79775934Y-66088158D01*
X79753906Y-66198000D01*
X79753906Y-66898000D01*
X79774576Y-67004534D01*
X79836084Y-67098168D01*
X79836492Y-67098443D01*
X79775934Y-67188158D01*
X79753906Y-67298000D01*
X79753906Y-67998000D01*
X79774576Y-68104534D01*
X79836084Y-68198168D01*
X79928938Y-68260846D01*
X80038780Y-68282874D01*
X81338780Y-68282874D01*
X81445314Y-68262204D01*
X81538948Y-68200696D01*
X81594836Y-68117900D01*
X82037632Y-68117900D01*
X82202135Y-68186207D01*
X82414334Y-68186392D01*
X82610452Y-68105358D01*
X82760631Y-67955441D01*
X82842007Y-67759465D01*
X82842192Y-67547266D01*
X82842192Y-72923400D01*
X81450360Y-72923400D01*
X81450360Y-70761362D01*
X81292151Y-70378465D01*
X80999456Y-70085259D01*
X80616836Y-69926381D01*
X80202542Y-69926020D01*
X79819645Y-70084229D01*
X79526439Y-70376924D01*
X79367561Y-70759544D01*
X79367200Y-71173838D01*
X79525409Y-71556735D01*
X79818104Y-71849941D01*
X80200724Y-72008819D01*
X80615018Y-72009180D01*
X80997915Y-71850971D01*
X81291121Y-71558276D01*
X81449999Y-71175656D01*
X81450360Y-70761362D01*
X81450360Y-72923400D01*
X79214980Y-72923400D01*
X79214980Y-71845804D01*
X79214980Y-71613395D01*
X79214980Y-71291450D01*
X79214980Y-70643750D01*
X79214980Y-70321805D01*
X79214980Y-70089396D01*
X79126041Y-69874678D01*
X78961703Y-69710339D01*
X78746985Y-69621400D01*
X78523654Y-69621400D01*
X78523654Y-67998000D01*
X78523654Y-67298000D01*
X78502984Y-67191466D01*
X78441476Y-67097832D01*
X78441067Y-67097556D01*
X78501626Y-67007842D01*
X78523654Y-66898000D01*
X78523654Y-66198000D01*
X78502984Y-66091466D01*
X78441476Y-65997832D01*
X78441067Y-65997556D01*
X78501626Y-65907842D01*
X78523654Y-65798000D01*
X78523654Y-65098000D01*
X78502984Y-64991466D01*
X78441476Y-64897832D01*
X78348622Y-64835154D01*
X78238780Y-64813126D01*
X76938780Y-64813126D01*
X76832246Y-64833796D01*
X76738612Y-64895304D01*
X76675934Y-64988158D01*
X76653906Y-65098000D01*
X76653906Y-65798000D01*
X76674576Y-65904534D01*
X76736084Y-65998168D01*
X76736492Y-65998443D01*
X76675934Y-66088158D01*
X76653906Y-66198000D01*
X76653906Y-66898000D01*
X76674576Y-67004534D01*
X76736084Y-67098168D01*
X76736492Y-67098443D01*
X76675934Y-67188158D01*
X76653906Y-67298000D01*
X76653906Y-67998000D01*
X76674576Y-68104534D01*
X76736084Y-68198168D01*
X76828938Y-68260846D01*
X76928380Y-68280788D01*
X76928380Y-68551364D01*
X76860526Y-68714776D01*
X76860275Y-69002761D01*
X76970250Y-69268921D01*
X77173708Y-69472735D01*
X77439676Y-69583174D01*
X77727661Y-69583425D01*
X77993821Y-69473450D01*
X78197635Y-69269992D01*
X78308074Y-69004024D01*
X78308325Y-68716039D01*
X78249180Y-68572897D01*
X78249180Y-68280856D01*
X78345314Y-68262204D01*
X78438948Y-68200696D01*
X78501626Y-68107842D01*
X78523654Y-67998000D01*
X78523654Y-69621400D01*
X78192630Y-69621400D01*
X78046580Y-69767450D01*
X78046580Y-70789800D01*
X79068930Y-70789800D01*
X79214980Y-70643750D01*
X79214980Y-71291450D01*
X79068930Y-71145400D01*
X78046580Y-71145400D01*
X78046580Y-72167750D01*
X78192630Y-72313800D01*
X78746985Y-72313800D01*
X78961703Y-72224861D01*
X79126041Y-72060522D01*
X79214980Y-71845804D01*
X79214980Y-72923400D01*
X77690980Y-72923400D01*
X77690980Y-72167750D01*
X77690980Y-71145400D01*
X77690980Y-70789800D01*
X77690980Y-69767450D01*
X77544930Y-69621400D01*
X76990575Y-69621400D01*
X76775857Y-69710339D01*
X76611519Y-69874678D01*
X76522580Y-70089396D01*
X76522580Y-70321805D01*
X76522580Y-70643750D01*
X76668630Y-70789800D01*
X77690980Y-70789800D01*
X77690980Y-71145400D01*
X76668630Y-71145400D01*
X76522580Y-71291450D01*
X76522580Y-71613395D01*
X76522580Y-71845804D01*
X76611519Y-72060522D01*
X76775857Y-72224861D01*
X76990575Y-72313800D01*
X77544930Y-72313800D01*
X77690980Y-72167750D01*
X77690980Y-72923400D01*
X43175800Y-72923400D01*
X43175800Y-66548000D01*
X43013709Y-65733114D01*
X42552113Y-65042287D01*
X41861286Y-64580691D01*
X41046400Y-64418600D01*
X40231514Y-64580691D01*
X39540687Y-65042287D01*
X39079091Y-65733114D01*
X38917000Y-66548000D01*
X39079091Y-67362886D01*
X39540687Y-68053713D01*
X40231514Y-68515309D01*
X41046400Y-68677400D01*
X41861286Y-68515309D01*
X42552113Y-68053713D01*
X43013709Y-67362886D01*
X43175800Y-66548000D01*
X43175800Y-72923400D01*
X9442946Y-72923400D01*
X8864600Y-72345054D01*
X8864600Y-70502846D01*
X8927974Y-70350224D01*
X8928225Y-70062239D01*
X8818250Y-69796079D01*
X8614792Y-69592265D01*
X8348824Y-69481826D01*
X8060839Y-69481575D01*
X7794679Y-69591550D01*
X7590865Y-69795008D01*
X7480426Y-70060976D01*
X7480175Y-70348961D01*
X7543800Y-70502945D01*
X7543800Y-72618600D01*
X7594070Y-72871324D01*
X7737227Y-73085573D01*
X8440253Y-73788600D01*
X6667592Y-73788600D01*
X6667592Y-67547266D01*
X6586558Y-67351148D01*
X6436641Y-67200969D01*
X6240665Y-67119593D01*
X6028466Y-67119408D01*
X5886419Y-67178100D01*
X5394203Y-67178100D01*
X5341476Y-67097832D01*
X5341067Y-67097556D01*
X5394836Y-67017900D01*
X5874833Y-67017900D01*
X6027535Y-67081307D01*
X6239734Y-67081492D01*
X6435852Y-67000458D01*
X6586031Y-66850541D01*
X6667407Y-66654565D01*
X6667592Y-66442366D01*
X6586558Y-66246248D01*
X6436641Y-66096069D01*
X6240665Y-66014693D01*
X6028466Y-66014508D01*
X5874561Y-66078100D01*
X5394203Y-66078100D01*
X5341476Y-65997832D01*
X5341067Y-65997556D01*
X5394836Y-65917900D01*
X5856048Y-65917900D01*
X6027535Y-65989107D01*
X6239734Y-65989292D01*
X6435852Y-65908258D01*
X6586031Y-65758341D01*
X6667407Y-65562365D01*
X6667592Y-65350166D01*
X6586558Y-65154048D01*
X6436641Y-65003869D01*
X6240665Y-64922493D01*
X6028466Y-64922308D01*
X5893438Y-64978100D01*
X5394203Y-64978100D01*
X5341476Y-64897832D01*
X5248622Y-64835154D01*
X5138780Y-64813126D01*
X3838780Y-64813126D01*
X3732246Y-64833796D01*
X3638612Y-64895304D01*
X3575934Y-64988158D01*
X3553906Y-65098000D01*
X3553906Y-65798000D01*
X3574576Y-65904534D01*
X3636084Y-65998168D01*
X3636492Y-65998443D01*
X3575934Y-66088158D01*
X3553906Y-66198000D01*
X3553906Y-66898000D01*
X3574576Y-67004534D01*
X3636084Y-67098168D01*
X3636492Y-67098443D01*
X3575934Y-67188158D01*
X3553906Y-67298000D01*
X3553906Y-67998000D01*
X3574576Y-68104534D01*
X3636084Y-68198168D01*
X3728938Y-68260846D01*
X3838780Y-68282874D01*
X5138780Y-68282874D01*
X5245314Y-68262204D01*
X5338948Y-68200696D01*
X5394836Y-68117900D01*
X5863032Y-68117900D01*
X6027535Y-68186207D01*
X6239734Y-68186392D01*
X6435852Y-68105358D01*
X6586031Y-67955441D01*
X6667407Y-67759465D01*
X6667592Y-67547266D01*
X6667592Y-73788600D01*
X5250360Y-73788600D01*
X5250360Y-70761362D01*
X5092151Y-70378465D01*
X4799456Y-70085259D01*
X4416836Y-69926381D01*
X4002542Y-69926020D01*
X3619645Y-70084229D01*
X3326439Y-70376924D01*
X3167561Y-70759544D01*
X3167200Y-71173838D01*
X3325409Y-71556735D01*
X3618104Y-71849941D01*
X4000724Y-72008819D01*
X4415018Y-72009180D01*
X4797915Y-71850971D01*
X5091121Y-71558276D01*
X5249999Y-71175656D01*
X5250360Y-70761362D01*
X5250360Y-73788600D01*
X3014980Y-73788600D01*
X3014980Y-71845804D01*
X3014980Y-71613395D01*
X3014980Y-71291450D01*
X3014980Y-70643750D01*
X3014980Y-70321805D01*
X3014980Y-70089396D01*
X2926041Y-69874678D01*
X2761703Y-69710339D01*
X2546985Y-69621400D01*
X2323654Y-69621400D01*
X2323654Y-67998000D01*
X2323654Y-67298000D01*
X2302984Y-67191466D01*
X2241476Y-67097832D01*
X2241067Y-67097556D01*
X2301626Y-67007842D01*
X2323654Y-66898000D01*
X2323654Y-66198000D01*
X2302984Y-66091466D01*
X2241476Y-65997832D01*
X2241067Y-65997556D01*
X2301626Y-65907842D01*
X2323654Y-65798000D01*
X2323654Y-65098000D01*
X2302984Y-64991466D01*
X2241476Y-64897832D01*
X2148622Y-64835154D01*
X2038780Y-64813126D01*
X738780Y-64813126D01*
X632246Y-64833796D01*
X538612Y-64895304D01*
X475934Y-64988158D01*
X453906Y-65098000D01*
X453906Y-65798000D01*
X474576Y-65904534D01*
X536084Y-65998168D01*
X536492Y-65998443D01*
X475934Y-66088158D01*
X453906Y-66198000D01*
X453906Y-66898000D01*
X474576Y-67004534D01*
X536084Y-67098168D01*
X536492Y-67098443D01*
X475934Y-67188158D01*
X453906Y-67298000D01*
X453906Y-67998000D01*
X474576Y-68104534D01*
X536084Y-68198168D01*
X628938Y-68260846D01*
X728380Y-68280788D01*
X728380Y-68551364D01*
X660526Y-68714776D01*
X660275Y-69002761D01*
X770250Y-69268921D01*
X973708Y-69472735D01*
X1239676Y-69583174D01*
X1527661Y-69583425D01*
X1793821Y-69473450D01*
X1997635Y-69269992D01*
X2108074Y-69004024D01*
X2108325Y-68716039D01*
X2049180Y-68572897D01*
X2049180Y-68280856D01*
X2145314Y-68262204D01*
X2238948Y-68200696D01*
X2301626Y-68107842D01*
X2323654Y-67998000D01*
X2323654Y-69621400D01*
X1992630Y-69621400D01*
X1846580Y-69767450D01*
X1846580Y-70789800D01*
X2868930Y-70789800D01*
X3014980Y-70643750D01*
X3014980Y-71291450D01*
X2868930Y-71145400D01*
X1846580Y-71145400D01*
X1846580Y-72167750D01*
X1992630Y-72313800D01*
X2546985Y-72313800D01*
X2761703Y-72224861D01*
X2926041Y-72060522D01*
X3014980Y-71845804D01*
X3014980Y-73788600D01*
X379400Y-73788600D01*
X379400Y-71982979D01*
X411519Y-72060522D01*
X575857Y-72224861D01*
X790575Y-72313800D01*
X1344930Y-72313800D01*
X1490980Y-72167750D01*
X1490980Y-71145400D01*
X1470980Y-71145400D01*
X1470980Y-70789800D01*
X1490980Y-70789800D01*
X1490980Y-69767450D01*
X1344930Y-69621400D01*
X790575Y-69621400D01*
X575857Y-69710339D01*
X411519Y-69874678D01*
X379400Y-69952220D01*
X379400Y-59307400D01*
X142240000Y-59307400D01*
X142385190Y-59278520D01*
X142508276Y-59196276D01*
X142590520Y-59073190D01*
X142619400Y-58928000D01*
X142619400Y-379400D01*
X164198013Y-379400D01*
X164173026Y-439576D01*
X164172775Y-727561D01*
X164282750Y-993721D01*
X164486208Y-1197535D01*
X164752176Y-1307974D01*
X165040161Y-1308225D01*
X165194145Y-1244600D01*
X173456600Y-1244600D01*
X173456600Y-4262053D01*
X173393226Y-4414676D01*
X173392975Y-4702661D01*
X173502950Y-4968821D01*
X173706408Y-5172635D01*
X173972376Y-5283074D01*
X174260361Y-5283325D01*
X174526521Y-5173350D01*
X174730335Y-4969892D01*
X174840774Y-4703924D01*
X174841025Y-4415939D01*
X174777400Y-4261954D01*
X174777400Y-1244600D01*
X195819600Y-1244600D01*
X195819600Y-5232725D01*
X195607826Y-5444130D01*
X195450779Y-5822341D01*
X195450422Y-6231862D01*
X195606808Y-6610346D01*
X195896130Y-6900174D01*
X196274341Y-7057221D01*
X196683862Y-7057578D01*
X197062346Y-6901192D01*
X197352174Y-6611870D01*
X197509221Y-6233659D01*
X197509578Y-5824138D01*
X197353192Y-5445654D01*
X197140400Y-5232489D01*
X197140400Y-1244600D01*
X228288354Y-1244600D01*
X228550837Y-1507083D01*
X228504832Y-1537304D01*
X228442154Y-1630158D01*
X228420126Y-1740000D01*
X228420126Y-3340000D01*
X228440796Y-3446534D01*
X228502304Y-3540168D01*
X228595158Y-3602846D01*
X228705000Y-3624874D01*
X230305000Y-3624874D01*
X230411534Y-3604204D01*
X230505168Y-3542696D01*
X230508687Y-3537481D01*
X230633828Y-3662622D01*
X230744922Y-3551527D01*
X230825901Y-3777192D01*
X231351047Y-3942896D01*
X231899631Y-3895022D01*
X232184099Y-3777192D01*
X232265078Y-3551525D01*
X231505000Y-2791447D01*
X231490857Y-2805589D01*
X231239410Y-2554142D01*
X231253553Y-2540000D01*
X231239410Y-2525857D01*
X231490857Y-2274410D01*
X231505000Y-2288553D01*
X232265078Y-1528475D01*
X232184099Y-1302808D01*
X231658953Y-1137104D01*
X231110369Y-1184978D01*
X230825901Y-1302808D01*
X230744922Y-1528472D01*
X230633828Y-1417378D01*
X230509154Y-1542051D01*
X230507696Y-1539832D01*
X230414842Y-1477154D01*
X230305000Y-1455126D01*
X230151043Y-1455126D01*
X230115130Y-1274576D01*
X229971973Y-1060327D01*
X229291046Y-379400D01*
X239637409Y-379400D01*
X239580530Y-462083D01*
X241390800Y-2272353D01*
X243201070Y-462083D01*
X243144190Y-379400D01*
X244637409Y-379400D01*
X244580530Y-462083D01*
X246390800Y-2272353D01*
X248201070Y-462083D01*
X248144190Y-379400D01*
X248540600Y-379400D01*
X248540600Y-774124D01*
X248452517Y-713530D01*
X246642247Y-2523800D01*
X248452517Y-4334070D01*
X248540600Y-4273475D01*
X248540600Y-8274124D01*
X248452517Y-8213530D01*
X248201070Y-8464977D01*
X248201070Y-7962083D01*
X248201070Y-4585517D01*
X246390800Y-2775247D01*
X246139353Y-3026694D01*
X246139353Y-2523800D01*
X244329083Y-713530D01*
X243952885Y-972324D01*
X243892802Y-1127045D01*
X243828715Y-972324D01*
X243452517Y-713530D01*
X241642247Y-2523800D01*
X243452517Y-4334070D01*
X243828715Y-4075276D01*
X243888797Y-3920554D01*
X243952885Y-4075276D01*
X244329083Y-4334070D01*
X246139353Y-2523800D01*
X246139353Y-3026694D01*
X244580530Y-4585517D01*
X244839324Y-4961715D01*
X245890373Y-5369864D01*
X247017608Y-5344726D01*
X247942276Y-4961715D01*
X248201070Y-4585517D01*
X248201070Y-7962083D01*
X247942276Y-7585885D01*
X246891227Y-7177736D01*
X245763992Y-7202874D01*
X244839324Y-7585885D01*
X244580530Y-7962083D01*
X246390800Y-9772353D01*
X248201070Y-7962083D01*
X248201070Y-8464977D01*
X246642247Y-10023800D01*
X248452517Y-11834070D01*
X248540600Y-11773475D01*
X248540600Y-16030899D01*
X248288022Y-15419614D01*
X248201070Y-15332509D01*
X248201070Y-12085517D01*
X246390800Y-10275247D01*
X246139353Y-10526694D01*
X246139353Y-10023800D01*
X244329083Y-8213530D01*
X243952885Y-8472324D01*
X243892802Y-8627045D01*
X243828715Y-8472324D01*
X243452517Y-8213530D01*
X243201070Y-8464977D01*
X243201070Y-7962083D01*
X243201070Y-4585517D01*
X241390800Y-2775247D01*
X241139353Y-3026694D01*
X241139353Y-2523800D01*
X239329083Y-713530D01*
X238952885Y-972324D01*
X238544736Y-2023373D01*
X238569874Y-3150608D01*
X238952885Y-4075276D01*
X239329083Y-4334070D01*
X241139353Y-2523800D01*
X241139353Y-3026694D01*
X239580530Y-4585517D01*
X239839324Y-4961715D01*
X240890373Y-5369864D01*
X242017608Y-5344726D01*
X242942276Y-4961715D01*
X243201070Y-4585517D01*
X243201070Y-7962083D01*
X242942276Y-7585885D01*
X241891227Y-7177736D01*
X240763992Y-7202874D01*
X239839324Y-7585885D01*
X239580530Y-7962083D01*
X241390800Y-9772353D01*
X243201070Y-7962083D01*
X243201070Y-8464977D01*
X241642247Y-10023800D01*
X243452517Y-11834070D01*
X243828715Y-11575276D01*
X243888797Y-11420554D01*
X243952885Y-11575276D01*
X244329083Y-11834070D01*
X246139353Y-10023800D01*
X246139353Y-10526694D01*
X244580530Y-12085517D01*
X244839324Y-12461715D01*
X245890373Y-12869864D01*
X247017608Y-12844726D01*
X247942276Y-12461715D01*
X248201070Y-12085517D01*
X248201070Y-15332509D01*
X247752605Y-14883261D01*
X247052690Y-14592632D01*
X246294835Y-14591970D01*
X245594414Y-14881378D01*
X245058061Y-15416795D01*
X244767432Y-16116710D01*
X244766770Y-16874565D01*
X245056178Y-17574986D01*
X245591595Y-18111339D01*
X246291510Y-18401968D01*
X247049365Y-18402630D01*
X247749786Y-18113222D01*
X248286139Y-17577805D01*
X248540600Y-16964992D01*
X248540600Y-28730899D01*
X248288022Y-28119614D01*
X247752605Y-27583261D01*
X247052690Y-27292632D01*
X246294835Y-27291970D01*
X245594414Y-27581378D01*
X245395355Y-27780089D01*
X245395355Y-25507729D01*
X245345282Y-25015136D01*
X245253110Y-24792611D01*
X245072063Y-24738104D01*
X245072063Y-23169182D01*
X245072063Y-21137182D01*
X245072063Y-19105182D01*
X244929288Y-18759641D01*
X244665149Y-18495041D01*
X244319858Y-18351663D01*
X243945982Y-18351337D01*
X243600441Y-18494112D01*
X243335841Y-18758251D01*
X243201070Y-19082814D01*
X243201070Y-12085517D01*
X241390800Y-10275247D01*
X241139353Y-10526694D01*
X241139353Y-10023800D01*
X239329083Y-8213530D01*
X238952885Y-8472324D01*
X238544736Y-9523373D01*
X238569874Y-10650608D01*
X238952885Y-11575276D01*
X239329083Y-11834070D01*
X241139353Y-10023800D01*
X241139353Y-10526694D01*
X239580530Y-12085517D01*
X239839324Y-12461715D01*
X240890373Y-12869864D01*
X242017608Y-12844726D01*
X242942276Y-12461715D01*
X243201070Y-12085517D01*
X243201070Y-19082814D01*
X243192463Y-19103542D01*
X243192137Y-19477418D01*
X243334912Y-19822959D01*
X243599051Y-20087559D01*
X243944342Y-20230937D01*
X244318218Y-20231263D01*
X244663759Y-20088488D01*
X244928359Y-19824349D01*
X245071737Y-19479058D01*
X245072063Y-19105182D01*
X245072063Y-21137182D01*
X244929288Y-20791641D01*
X244665149Y-20527041D01*
X244319858Y-20383663D01*
X243945982Y-20383337D01*
X243600441Y-20526112D01*
X243335841Y-20790251D01*
X243294063Y-20890863D01*
X243294063Y-20121182D01*
X243151288Y-19775641D01*
X242887149Y-19511041D01*
X242541858Y-19367663D01*
X242167982Y-19367337D01*
X241822441Y-19510112D01*
X241557841Y-19774251D01*
X241414463Y-20119542D01*
X241414137Y-20493418D01*
X241556912Y-20838959D01*
X241821051Y-21103559D01*
X242166342Y-21246937D01*
X242540218Y-21247263D01*
X242885759Y-21104488D01*
X243150359Y-20840349D01*
X243293737Y-20495058D01*
X243294063Y-20121182D01*
X243294063Y-20890863D01*
X243192463Y-21135542D01*
X243192137Y-21509418D01*
X243334912Y-21854959D01*
X243599051Y-22119559D01*
X243944342Y-22262937D01*
X244318218Y-22263263D01*
X244663759Y-22120488D01*
X244928359Y-21856349D01*
X245071737Y-21511058D01*
X245072063Y-21137182D01*
X245072063Y-23169182D01*
X244929288Y-22823641D01*
X244665149Y-22559041D01*
X244319858Y-22415663D01*
X243945982Y-22415337D01*
X243600441Y-22558112D01*
X243335841Y-22822251D01*
X243294063Y-22922863D01*
X243294063Y-22153182D01*
X243151288Y-21807641D01*
X242887149Y-21543041D01*
X242541858Y-21399663D01*
X242167982Y-21399337D01*
X241822441Y-21542112D01*
X241557841Y-21806251D01*
X241414463Y-22151542D01*
X241414137Y-22525418D01*
X241556912Y-22870959D01*
X241821051Y-23135559D01*
X242166342Y-23278937D01*
X242540218Y-23279263D01*
X242885759Y-23136488D01*
X243150359Y-22872349D01*
X243293737Y-22527058D01*
X243294063Y-22153182D01*
X243294063Y-22922863D01*
X243192463Y-23167542D01*
X243192137Y-23541418D01*
X243334912Y-23886959D01*
X243599051Y-24151559D01*
X243706591Y-24196213D01*
X243537411Y-24266290D01*
X243473806Y-24477556D01*
X243361574Y-24365324D01*
X243293846Y-24433051D01*
X243294063Y-24185182D01*
X243151288Y-23839641D01*
X242887149Y-23575041D01*
X242541858Y-23431663D01*
X242167982Y-23431337D01*
X241822441Y-23574112D01*
X241557841Y-23838251D01*
X241414463Y-24183542D01*
X241414137Y-24557418D01*
X241556912Y-24902959D01*
X241821051Y-25167559D01*
X241928591Y-25212213D01*
X241759411Y-25282290D01*
X241695806Y-25493559D01*
X242354100Y-26151853D01*
X242368242Y-26137710D01*
X242619689Y-26389157D01*
X242605547Y-26403300D01*
X243263841Y-27061594D01*
X243475110Y-26997989D01*
X243614999Y-26531581D01*
X244011671Y-26650555D01*
X244504264Y-26600482D01*
X244726789Y-26508310D01*
X244790394Y-26297041D01*
X244132100Y-25638747D01*
X244117957Y-25652889D01*
X243866510Y-25401442D01*
X243880653Y-25387300D01*
X243866510Y-25373157D01*
X244117957Y-25121710D01*
X244132100Y-25135853D01*
X244790394Y-24477559D01*
X244726789Y-24266290D01*
X244530686Y-24207472D01*
X244663759Y-24152488D01*
X244928359Y-23888349D01*
X245071737Y-23543058D01*
X245072063Y-23169182D01*
X245072063Y-24738104D01*
X245041841Y-24729006D01*
X244383547Y-25387300D01*
X245041841Y-26045594D01*
X245253110Y-25981989D01*
X245395355Y-25507729D01*
X245395355Y-27780089D01*
X245058061Y-28116795D01*
X244790394Y-28761411D01*
X244767432Y-28816710D01*
X244766770Y-29574565D01*
X245056178Y-30274986D01*
X245591595Y-30811339D01*
X246291510Y-31101968D01*
X247049365Y-31102630D01*
X247749786Y-30813222D01*
X248286139Y-30277805D01*
X248540600Y-29664992D01*
X248540600Y-37366899D01*
X248288022Y-36755614D01*
X247752605Y-36219261D01*
X247052690Y-35928632D01*
X246294835Y-35927970D01*
X245594414Y-36217378D01*
X245058061Y-36752795D01*
X244767432Y-37452710D01*
X244766770Y-38210565D01*
X245056178Y-38910986D01*
X245591595Y-39447339D01*
X246291510Y-39737968D01*
X247049365Y-39738630D01*
X247749786Y-39449222D01*
X248286139Y-38913805D01*
X248540600Y-38300992D01*
X248540600Y-50066899D01*
X248288022Y-49455614D01*
X247752605Y-48919261D01*
X247052690Y-48628632D01*
X246294835Y-48627970D01*
X245594414Y-48917378D01*
X245395355Y-49116089D01*
X245395355Y-46843729D01*
X245345282Y-46351136D01*
X245253110Y-46128611D01*
X245072063Y-46074104D01*
X245072063Y-44505182D01*
X245072063Y-42473182D01*
X245072063Y-40441182D01*
X244929288Y-40095641D01*
X244665149Y-39831041D01*
X244319858Y-39687663D01*
X243945982Y-39687337D01*
X243600441Y-39830112D01*
X243335841Y-40094251D01*
X243192463Y-40439542D01*
X243192137Y-40813418D01*
X243334912Y-41158959D01*
X243599051Y-41423559D01*
X243944342Y-41566937D01*
X244318218Y-41567263D01*
X244663759Y-41424488D01*
X244928359Y-41160349D01*
X245071737Y-40815058D01*
X245072063Y-40441182D01*
X245072063Y-42473182D01*
X244929288Y-42127641D01*
X244665149Y-41863041D01*
X244319858Y-41719663D01*
X243945982Y-41719337D01*
X243600441Y-41862112D01*
X243335841Y-42126251D01*
X243294063Y-42226863D01*
X243294063Y-41457182D01*
X243151288Y-41111641D01*
X243012394Y-40972504D01*
X243012394Y-27313041D01*
X242354100Y-26654747D01*
X242102653Y-26906194D01*
X242102653Y-26403300D01*
X241444359Y-25745006D01*
X241233090Y-25808611D01*
X241090845Y-26282871D01*
X241140918Y-26775464D01*
X241233090Y-26997989D01*
X241444359Y-27061594D01*
X242102653Y-26403300D01*
X242102653Y-26906194D01*
X241695806Y-27313041D01*
X241759411Y-27524310D01*
X242233671Y-27666555D01*
X242726264Y-27616482D01*
X242948789Y-27524310D01*
X243012394Y-27313041D01*
X243012394Y-40972504D01*
X242887149Y-40847041D01*
X242541858Y-40703663D01*
X242167982Y-40703337D01*
X241822441Y-40846112D01*
X241557841Y-41110251D01*
X241414463Y-41455542D01*
X241414137Y-41829418D01*
X241556912Y-42174959D01*
X241821051Y-42439559D01*
X242166342Y-42582937D01*
X242540218Y-42583263D01*
X242885759Y-42440488D01*
X243150359Y-42176349D01*
X243293737Y-41831058D01*
X243294063Y-41457182D01*
X243294063Y-42226863D01*
X243192463Y-42471542D01*
X243192137Y-42845418D01*
X243334912Y-43190959D01*
X243599051Y-43455559D01*
X243944342Y-43598937D01*
X244318218Y-43599263D01*
X244663759Y-43456488D01*
X244928359Y-43192349D01*
X245071737Y-42847058D01*
X245072063Y-42473182D01*
X245072063Y-44505182D01*
X244929288Y-44159641D01*
X244665149Y-43895041D01*
X244319858Y-43751663D01*
X243945982Y-43751337D01*
X243600441Y-43894112D01*
X243335841Y-44158251D01*
X243294063Y-44258863D01*
X243294063Y-43489182D01*
X243151288Y-43143641D01*
X242887149Y-42879041D01*
X242541858Y-42735663D01*
X242167982Y-42735337D01*
X241822441Y-42878112D01*
X241558192Y-43141900D01*
X241363592Y-43141900D01*
X241363592Y-32393666D01*
X241322897Y-32295177D01*
X241282558Y-32197548D01*
X241207271Y-32122130D01*
X241207271Y-32122129D01*
X241207269Y-32122128D01*
X241132641Y-32047369D01*
X240936665Y-31965993D01*
X240830100Y-31965900D01*
X240829991Y-31965900D01*
X240724466Y-31965808D01*
X240724243Y-31965900D01*
X238353600Y-31965900D01*
X238353599Y-31965900D01*
X238247966Y-31965808D01*
X238061500Y-32042853D01*
X238061500Y-32009042D01*
X238358615Y-31711926D01*
X238471561Y-31712025D01*
X238737721Y-31602050D01*
X238941535Y-31398592D01*
X239051974Y-31132624D01*
X239052225Y-30844639D01*
X238942250Y-30578479D01*
X238738792Y-30374665D01*
X238472824Y-30264226D01*
X238298588Y-30264074D01*
X238324359Y-30238349D01*
X238467737Y-29893058D01*
X238468063Y-29519182D01*
X238325288Y-29173641D01*
X238061149Y-28909041D01*
X237715858Y-28765663D01*
X237341982Y-28765337D01*
X236996441Y-28908112D01*
X236804200Y-29100018D01*
X236804200Y-28414942D01*
X237001079Y-28218062D01*
X237340342Y-28358937D01*
X237714218Y-28359263D01*
X238059759Y-28216488D01*
X238324359Y-27952349D01*
X238467737Y-27607058D01*
X238468063Y-27233182D01*
X238468063Y-18089182D01*
X238468063Y-15803182D01*
X238325288Y-15457641D01*
X238061149Y-15193041D01*
X237715858Y-15049663D01*
X237341982Y-15049337D01*
X236996441Y-15192112D01*
X236731841Y-15456251D01*
X236588463Y-15801542D01*
X236588137Y-16175418D01*
X236730912Y-16520959D01*
X236995051Y-16785559D01*
X237340342Y-16928937D01*
X237714218Y-16929263D01*
X238059759Y-16786488D01*
X238324359Y-16522349D01*
X238467737Y-16177058D01*
X238468063Y-15803182D01*
X238468063Y-18089182D01*
X238325288Y-17743641D01*
X238061149Y-17479041D01*
X237715858Y-17335663D01*
X237341982Y-17335337D01*
X236996441Y-17478112D01*
X236731841Y-17742251D01*
X236588463Y-18087542D01*
X236588137Y-18461418D01*
X236730912Y-18806959D01*
X236995051Y-19071559D01*
X237340342Y-19214937D01*
X237714218Y-19215263D01*
X238059759Y-19072488D01*
X238324359Y-18808349D01*
X238467737Y-18463058D01*
X238468063Y-18089182D01*
X238468063Y-27233182D01*
X238325288Y-26887641D01*
X238061149Y-26623041D01*
X237715858Y-26479663D01*
X237341982Y-26479337D01*
X236996441Y-26622112D01*
X236731841Y-26886251D01*
X236666252Y-27044205D01*
X235893629Y-27816829D01*
X235778003Y-27989877D01*
X235737400Y-28194000D01*
X235737400Y-41140212D01*
X235657465Y-41220008D01*
X235547026Y-41485976D01*
X235546775Y-41773961D01*
X235656750Y-42040121D01*
X235860208Y-42243935D01*
X236126176Y-42354374D01*
X236414161Y-42354625D01*
X236680321Y-42244650D01*
X236884135Y-42041192D01*
X236994574Y-41775224D01*
X236994825Y-41487239D01*
X236884850Y-41221079D01*
X236804200Y-41140287D01*
X236804200Y-40216374D01*
X236995051Y-40407559D01*
X237340342Y-40550937D01*
X237714218Y-40551263D01*
X238059759Y-40408488D01*
X238324359Y-40144349D01*
X238467737Y-39799058D01*
X238468063Y-39425182D01*
X238325288Y-39079641D01*
X238061149Y-38815041D01*
X237715858Y-38671663D01*
X237341982Y-38671337D01*
X236996441Y-38814112D01*
X236804200Y-39006018D01*
X236804200Y-37930374D01*
X236995051Y-38121559D01*
X237340342Y-38264937D01*
X237714218Y-38265263D01*
X238059759Y-38122488D01*
X238324359Y-37858349D01*
X238467737Y-37513058D01*
X238468063Y-37139182D01*
X238325288Y-36793641D01*
X238061500Y-36529392D01*
X238061500Y-32955566D01*
X238149477Y-32992097D01*
X238247035Y-33032607D01*
X238353599Y-33032699D01*
X238353600Y-33032700D01*
X238353708Y-33032700D01*
X238459234Y-33032792D01*
X238459456Y-33032700D01*
X240830100Y-33032700D01*
X240830100Y-33032699D01*
X240935734Y-33032792D01*
X241034223Y-32992097D01*
X241131852Y-32951758D01*
X241207269Y-32876471D01*
X241207271Y-32876471D01*
X241207271Y-32876469D01*
X241282031Y-32801841D01*
X241322897Y-32703423D01*
X241363407Y-32605865D01*
X241363499Y-32499300D01*
X241363500Y-32499300D01*
X241363499Y-32499299D01*
X241363592Y-32393666D01*
X241363592Y-43141900D01*
X239923487Y-43141900D01*
X239843692Y-43061965D01*
X239577724Y-42951526D01*
X239289739Y-42951275D01*
X239023579Y-43061250D01*
X238819765Y-43264708D01*
X238709326Y-43530676D01*
X238709075Y-43818661D01*
X238819050Y-44084821D01*
X239022508Y-44288635D01*
X239288476Y-44399074D01*
X239576461Y-44399325D01*
X239842621Y-44289350D01*
X239923412Y-44208700D01*
X241558649Y-44208700D01*
X241821051Y-44471559D01*
X242166342Y-44614937D01*
X242540218Y-44615263D01*
X242885759Y-44472488D01*
X243150359Y-44208349D01*
X243293737Y-43863058D01*
X243294063Y-43489182D01*
X243294063Y-44258863D01*
X243192463Y-44503542D01*
X243192137Y-44877418D01*
X243334912Y-45222959D01*
X243599051Y-45487559D01*
X243706591Y-45532213D01*
X243537411Y-45602290D01*
X243473806Y-45813556D01*
X243361574Y-45701324D01*
X243293846Y-45769051D01*
X243294063Y-45521182D01*
X243151288Y-45175641D01*
X242887149Y-44911041D01*
X242541858Y-44767663D01*
X242167982Y-44767337D01*
X241822441Y-44910112D01*
X241557841Y-45174251D01*
X241414463Y-45519542D01*
X241414137Y-45893418D01*
X241556912Y-46238959D01*
X241821051Y-46503559D01*
X241928591Y-46548213D01*
X241759411Y-46618290D01*
X241695806Y-46829559D01*
X242354100Y-47487853D01*
X242368242Y-47473710D01*
X242619689Y-47725157D01*
X242605547Y-47739300D01*
X243263841Y-48397594D01*
X243475110Y-48333989D01*
X243614999Y-47867581D01*
X244011671Y-47986555D01*
X244504264Y-47936482D01*
X244726789Y-47844310D01*
X244790394Y-47633041D01*
X244132100Y-46974747D01*
X244117957Y-46988889D01*
X243866510Y-46737442D01*
X243880653Y-46723300D01*
X243866510Y-46709157D01*
X244117957Y-46457710D01*
X244132100Y-46471853D01*
X244790394Y-45813559D01*
X244726789Y-45602290D01*
X244530686Y-45543472D01*
X244663759Y-45488488D01*
X244928359Y-45224349D01*
X245071737Y-44879058D01*
X245072063Y-44505182D01*
X245072063Y-46074104D01*
X245041841Y-46065006D01*
X244383547Y-46723300D01*
X245041841Y-47381594D01*
X245253110Y-47317989D01*
X245395355Y-46843729D01*
X245395355Y-49116089D01*
X245058061Y-49452795D01*
X244790394Y-50097411D01*
X244767432Y-50152710D01*
X244766770Y-50910565D01*
X245056178Y-51610986D01*
X245591595Y-52147339D01*
X246291510Y-52437968D01*
X247049365Y-52438630D01*
X247749786Y-52149222D01*
X248286139Y-51613805D01*
X248540600Y-51000992D01*
X248540600Y-62381824D01*
X248452517Y-62321230D01*
X248201070Y-62572677D01*
X248201070Y-62069783D01*
X247942276Y-61693585D01*
X246891227Y-61285436D01*
X246823600Y-61286944D01*
X246823600Y-58167004D01*
X246823600Y-57934595D01*
X246823600Y-57524650D01*
X246823600Y-56876950D01*
X246823600Y-56467005D01*
X246823600Y-56234596D01*
X246734661Y-56019878D01*
X246570323Y-55855539D01*
X246355605Y-55766600D01*
X245713250Y-55766600D01*
X245567200Y-55912650D01*
X245567200Y-57023000D01*
X246677550Y-57023000D01*
X246823600Y-56876950D01*
X246823600Y-57524650D01*
X246677550Y-57378600D01*
X245567200Y-57378600D01*
X245567200Y-58488950D01*
X245713250Y-58635000D01*
X246355605Y-58635000D01*
X246570323Y-58546061D01*
X246734661Y-58381722D01*
X246823600Y-58167004D01*
X246823600Y-61286944D01*
X245763992Y-61310574D01*
X245211600Y-61539382D01*
X245211600Y-58488950D01*
X245211600Y-57378600D01*
X245211600Y-57023000D01*
X245211600Y-55912650D01*
X245065550Y-55766600D01*
X244423195Y-55766600D01*
X244208477Y-55855539D01*
X244044139Y-56019878D01*
X243955200Y-56234596D01*
X243955200Y-56467005D01*
X243955200Y-56876950D01*
X244101250Y-57023000D01*
X245211600Y-57023000D01*
X245211600Y-57378600D01*
X244101250Y-57378600D01*
X243955200Y-57524650D01*
X243955200Y-57934595D01*
X243955200Y-58167004D01*
X244044139Y-58381722D01*
X244208477Y-58546061D01*
X244423195Y-58635000D01*
X245065550Y-58635000D01*
X245211600Y-58488950D01*
X245211600Y-61539382D01*
X244839324Y-61693585D01*
X244580530Y-62069783D01*
X246390800Y-63880053D01*
X248201070Y-62069783D01*
X248201070Y-62572677D01*
X246642247Y-64131500D01*
X248452517Y-65941770D01*
X248540600Y-65881175D01*
X248540600Y-69881824D01*
X248452517Y-69821230D01*
X248201070Y-70072677D01*
X248201070Y-69569783D01*
X248201070Y-66193217D01*
X246390800Y-64382947D01*
X246139353Y-64634394D01*
X246139353Y-64131500D01*
X244329083Y-62321230D01*
X243952885Y-62580024D01*
X243892802Y-62734745D01*
X243828715Y-62580024D01*
X243452517Y-62321230D01*
X243201070Y-62572677D01*
X243201070Y-62069783D01*
X243012394Y-61795512D01*
X243012394Y-48649041D01*
X242354100Y-47990747D01*
X242102653Y-48242194D01*
X242102653Y-47739300D01*
X241444359Y-47081006D01*
X241233090Y-47144611D01*
X241090845Y-47618871D01*
X241140918Y-48111464D01*
X241233090Y-48333989D01*
X241444359Y-48397594D01*
X242102653Y-47739300D01*
X242102653Y-48242194D01*
X241695806Y-48649041D01*
X241759411Y-48860310D01*
X242233671Y-49002555D01*
X242726264Y-48952482D01*
X242948789Y-48860310D01*
X243012394Y-48649041D01*
X243012394Y-61795512D01*
X242942276Y-61693585D01*
X241891227Y-61285436D01*
X240763992Y-61310574D01*
X239839324Y-61693585D01*
X239580530Y-62069783D01*
X241390800Y-63880053D01*
X243201070Y-62069783D01*
X243201070Y-62572677D01*
X241642247Y-64131500D01*
X243452517Y-65941770D01*
X243828715Y-65682976D01*
X243888797Y-65528254D01*
X243952885Y-65682976D01*
X244329083Y-65941770D01*
X246139353Y-64131500D01*
X246139353Y-64634394D01*
X244580530Y-66193217D01*
X244839324Y-66569415D01*
X245890373Y-66977564D01*
X247017608Y-66952426D01*
X247942276Y-66569415D01*
X248201070Y-66193217D01*
X248201070Y-69569783D01*
X247942276Y-69193585D01*
X246891227Y-68785436D01*
X245763992Y-68810574D01*
X244839324Y-69193585D01*
X244580530Y-69569783D01*
X246390800Y-71380053D01*
X248201070Y-69569783D01*
X248201070Y-70072677D01*
X246642247Y-71631500D01*
X248452517Y-73441770D01*
X248540600Y-73381175D01*
X248540600Y-73788600D01*
M02*
