G04 #@! TF.FileFunction,Legend,Bot*
%FSLAX46Y46*%
G04 Gerber Fmt 4.6, Leading zero omitted, Abs format (unit mm)*
G04 Created by KiCad (PCBNEW (2014-jul-16 BZR unknown)-product) date Qua 17 Dez 2014 17:24:30 BRST*
%MOMM*%
G01*
G04 APERTURE LIST*
%ADD10C,0.152400*%
%ADD11C,0.200000*%
%ADD12C,0.508000*%
%ADD13C,0.254000*%
G04 APERTURE END LIST*
D10*
D11*
X241040000Y-61028000D02*
G75*
G03X241040000Y-61028000I-1500000J0D01*
G01*
X148040000Y-61028000D02*
G75*
G03X148040000Y-61028000I-1500000J0D01*
G01*
X148040000Y-6028000D02*
G75*
G03X148040000Y-6028000I-1500000J0D01*
G01*
X241043330Y-6028000D02*
G75*
G03X241043330Y-6028000I-1503330J0D01*
G01*
D12*
X233593981Y-4758000D02*
G75*
G03X233593981Y-4758000I-283981J0D01*
G01*
D13*
X233310000Y-4758000D02*
X192670000Y-4758000D01*
X192670000Y-4758000D02*
X192670000Y-7298000D01*
X192670000Y-7298000D02*
X233310000Y-7298000D01*
X233310000Y-7298000D02*
X233310000Y-4758000D01*
D11*
X242040000Y-3528000D02*
X144040000Y-3528000D01*
X144040000Y-3528000D02*
X144040000Y-63528000D01*
X144040000Y-63528000D02*
X242040000Y-63528000D01*
X242040000Y-63528000D02*
X242040000Y-3528000D01*
X229188780Y-68348000D02*
X229188780Y-64848000D01*
X233888780Y-68348000D02*
X229188780Y-68348000D01*
X233888780Y-68348000D02*
X233888780Y-64848000D01*
X229188780Y-64848000D02*
X233888780Y-64848000D01*
D13*
X233428780Y-64124390D02*
G75*
G02X233428780Y-64124390I0J-223610D01*
G01*
D11*
X152988780Y-68348000D02*
X152988780Y-64848000D01*
X157688780Y-68348000D02*
X152988780Y-68348000D01*
X157688780Y-68348000D02*
X157688780Y-64848000D01*
X152988780Y-64848000D02*
X157688780Y-64848000D01*
D13*
X157228780Y-64124390D02*
G75*
G02X157228780Y-64124390I0J-223610D01*
G01*
D11*
X76788780Y-68348000D02*
X76788780Y-64848000D01*
X81488780Y-68348000D02*
X76788780Y-68348000D01*
X81488780Y-68348000D02*
X81488780Y-64848000D01*
X76788780Y-64848000D02*
X81488780Y-64848000D01*
D13*
X81028780Y-64124390D02*
G75*
G02X81028780Y-64124390I0J-223610D01*
G01*
D11*
X588780Y-68348000D02*
X588780Y-64848000D01*
X5288780Y-68348000D02*
X588780Y-68348000D01*
X5288780Y-68348000D02*
X5288780Y-64848000D01*
X588780Y-64848000D02*
X5288780Y-64848000D01*
D13*
X4828780Y-64124390D02*
G75*
G02X4828780Y-64124390I0J-223610D01*
G01*
D10*
X194088267Y-3195695D02*
X194475314Y-3195695D01*
X194475314Y-2382895D01*
X193352876Y-3118286D02*
X193391581Y-3156990D01*
X193507695Y-3195695D01*
X193585105Y-3195695D01*
X193701219Y-3156990D01*
X193778628Y-3079581D01*
X193817333Y-3002171D01*
X193856038Y-2847352D01*
X193856038Y-2731238D01*
X193817333Y-2576419D01*
X193778628Y-2499010D01*
X193701219Y-2421600D01*
X193585105Y-2382895D01*
X193507695Y-2382895D01*
X193391581Y-2421600D01*
X193352876Y-2460305D01*
X193004533Y-3195695D02*
X193004533Y-2382895D01*
X192811009Y-2382895D01*
X192694895Y-2421600D01*
X192617486Y-2499010D01*
X192578781Y-2576419D01*
X192540076Y-2731238D01*
X192540076Y-2847352D01*
X192578781Y-3002171D01*
X192617486Y-3079581D01*
X192694895Y-3156990D01*
X192811009Y-3195695D01*
X193004533Y-3195695D01*
X191765981Y-3195695D02*
X192230438Y-3195695D01*
X191998209Y-3195695D02*
X191998209Y-2382895D01*
X192075619Y-2499010D01*
X192153028Y-2576419D01*
X192230438Y-2615124D01*
X232443262Y-64667795D02*
X232830309Y-64667795D01*
X232830309Y-63854995D01*
X232172328Y-64242043D02*
X231901395Y-64242043D01*
X231785281Y-64667795D02*
X232172328Y-64667795D01*
X232172328Y-63854995D01*
X231785281Y-63854995D01*
X231436938Y-64667795D02*
X231436938Y-63854995D01*
X231243414Y-63854995D01*
X231127300Y-63893700D01*
X231049891Y-63971110D01*
X231011186Y-64048519D01*
X230972481Y-64203338D01*
X230972481Y-64319452D01*
X231011186Y-64474271D01*
X231049891Y-64551681D01*
X231127300Y-64629090D01*
X231243414Y-64667795D01*
X231436938Y-64667795D01*
X230198386Y-64667795D02*
X230662843Y-64667795D01*
X230430614Y-64667795D02*
X230430614Y-63854995D01*
X230508024Y-63971110D01*
X230585433Y-64048519D01*
X230662843Y-64087224D01*
X156243262Y-64642395D02*
X156630309Y-64642395D01*
X156630309Y-63829595D01*
X155972328Y-64216643D02*
X155701395Y-64216643D01*
X155585281Y-64642395D02*
X155972328Y-64642395D01*
X155972328Y-63829595D01*
X155585281Y-63829595D01*
X155236938Y-64642395D02*
X155236938Y-63829595D01*
X155043414Y-63829595D01*
X154927300Y-63868300D01*
X154849891Y-63945710D01*
X154811186Y-64023119D01*
X154772481Y-64177938D01*
X154772481Y-64294052D01*
X154811186Y-64448871D01*
X154849891Y-64526281D01*
X154927300Y-64603690D01*
X155043414Y-64642395D01*
X155236938Y-64642395D01*
X154462843Y-63907005D02*
X154424138Y-63868300D01*
X154346729Y-63829595D01*
X154153205Y-63829595D01*
X154075795Y-63868300D01*
X154037091Y-63907005D01*
X153998386Y-63984414D01*
X153998386Y-64061824D01*
X154037091Y-64177938D01*
X154501548Y-64642395D01*
X153998386Y-64642395D01*
X80055962Y-64655095D02*
X80443009Y-64655095D01*
X80443009Y-63842295D01*
X79785028Y-64229343D02*
X79514095Y-64229343D01*
X79397981Y-64655095D02*
X79785028Y-64655095D01*
X79785028Y-63842295D01*
X79397981Y-63842295D01*
X79049638Y-64655095D02*
X79049638Y-63842295D01*
X78856114Y-63842295D01*
X78740000Y-63881000D01*
X78662591Y-63958410D01*
X78623886Y-64035819D01*
X78585181Y-64190638D01*
X78585181Y-64306752D01*
X78623886Y-64461571D01*
X78662591Y-64538981D01*
X78740000Y-64616390D01*
X78856114Y-64655095D01*
X79049638Y-64655095D01*
X78314248Y-63842295D02*
X77811086Y-63842295D01*
X78082019Y-64151933D01*
X77965905Y-64151933D01*
X77888495Y-64190638D01*
X77849791Y-64229343D01*
X77811086Y-64306752D01*
X77811086Y-64500276D01*
X77849791Y-64577686D01*
X77888495Y-64616390D01*
X77965905Y-64655095D01*
X78198133Y-64655095D01*
X78275543Y-64616390D01*
X78314248Y-64577686D01*
X3855962Y-64642395D02*
X4243009Y-64642395D01*
X4243009Y-63829595D01*
X3585028Y-64216643D02*
X3314095Y-64216643D01*
X3197981Y-64642395D02*
X3585028Y-64642395D01*
X3585028Y-63829595D01*
X3197981Y-63829595D01*
X2849638Y-64642395D02*
X2849638Y-63829595D01*
X2656114Y-63829595D01*
X2540000Y-63868300D01*
X2462591Y-63945710D01*
X2423886Y-64023119D01*
X2385181Y-64177938D01*
X2385181Y-64294052D01*
X2423886Y-64448871D01*
X2462591Y-64526281D01*
X2540000Y-64603690D01*
X2656114Y-64642395D01*
X2849638Y-64642395D01*
X1688495Y-64100529D02*
X1688495Y-64642395D01*
X1882019Y-63790890D02*
X2075543Y-64371462D01*
X1572381Y-64371462D01*
M02*
