M48
;DRILL file {Pcbnew (2013-07-07 BZR 4022)-stable} date 23/04/2014 17:50:23
;FORMAT={-:-/ absolute / inch / decimal}
FMAT,2
INCH,TZ
T1C0.012
T2C0.020
T3C0.024
T4C0.025
T5C0.032
T6C0.035
T7C0.039
T8C0.040
T9C0.059
T10C0.128
T11C0.138
%
G90
G05
M72
T1
X0.2415Y2.577
X0.2415Y2.62
X0.2415Y2.6635
X3.2405Y2.5765
X3.2405Y2.62
X3.2405Y2.6635
X6.2405Y2.5765
X6.2405Y2.62
X6.2405Y2.663
X6.9485Y1.056
X6.9745Y1.1215
X6.976Y1.1755
X6.976Y1.2085
X6.976Y1.2415
X6.976Y1.2755
X7.0515Y1.0965
X7.1Y1.0965
X7.1235Y1.2755
X7.124Y1.1755
X7.124Y1.2085
X7.124Y1.2415
X7.1245Y1.1215
X7.126Y1.056
X7.304Y1.117
X7.304Y1.1965
X7.475Y1.8475
X7.5075Y1.8805
X7.555Y0.6
X7.555Y0.75
X7.555Y0.9
X7.5665Y1.8475
X7.5995Y1.8805
X7.605Y0.65
X7.605Y0.7
X7.605Y0.75
X7.605Y0.8
X7.605Y0.85
X7.655Y0.65
X7.655Y0.7
X7.655Y0.75
X7.655Y0.8
X7.655Y0.85
X7.705Y0.6
X7.705Y0.65
X7.705Y0.7
X7.705Y0.75
X7.705Y0.8
X7.705Y0.85
X7.705Y0.9
X7.755Y0.65
X7.755Y0.7
X7.755Y0.75
X7.755Y0.8
X7.755Y0.85
X7.805Y0.65
X7.805Y0.7
X7.805Y0.75
X7.805Y0.8
X7.805Y0.85
X7.855Y0.6
X7.855Y0.75
X7.855Y0.9
X7.895Y1.6605
X7.895Y1.733
X7.895Y1.8455
X7.964Y1.9485
X8.0215Y1.6565
X8.182Y0.6
X8.182Y0.75
X8.182Y0.9
X8.2125Y2.06
X8.23Y0.7
X8.23Y0.8
X8.232Y0.65
X8.232Y0.75
X8.232Y0.85
X8.26Y2.1075
X8.282Y0.65
X8.282Y0.7
X8.282Y0.75
X8.282Y0.8
X8.282Y0.85
X8.33Y0.7
X8.33Y0.8
X8.332Y0.6
X8.332Y0.65
X8.332Y0.75
X8.332Y0.85
X8.332Y0.9
X8.332Y1.6565
X8.382Y0.65
X8.382Y0.7
X8.382Y0.75
X8.382Y0.8
X8.382Y0.85
X8.43Y0.7
X8.43Y0.8
X8.432Y0.65
X8.432Y0.75
X8.432Y0.85
X8.482Y0.6
X8.482Y0.75
X8.482Y0.9
X8.6005Y1.3445
X9.2405Y2.5765
X9.2405Y2.62
X9.2405Y2.663
X9.384Y1.2795
X9.4815Y1.2795
T2
X7.9875Y0.9105
X7.988Y0.7705
X8.004Y1.4155
X8.0855Y0.84
X8.1483Y1.4155
X8.276Y1.5435
X8.639Y2.2575
X8.639Y2.4075
X8.639Y2.849
T3
X7.705Y0.3606
X7.705Y0.4394
X8.592Y0.3656
X8.592Y0.4444
X8.97Y0.8406
X8.97Y0.9194
X9.0356Y0.1
X9.1144Y0.1
T4
X0.0545Y2.711
X0.323Y2.764
X3.0545Y2.711
X3.323Y2.764
X6.0545Y2.7105
X6.323Y2.764
X6.4905Y0.333
X6.492Y0.023
X6.788Y0.403
X6.855Y0.1795
X6.855Y0.333
X7.153Y0.4025
X7.25Y0.287
X7.4745Y1.158
X7.687Y1.481
X7.7845Y1.4155
X7.8595Y1.6605
X7.9495Y1.8105
X7.9955Y1.4805
X8.1695Y1.751
X8.184Y1.158
X8.404Y2.8565
X8.654Y1.602
X8.654Y1.753
X8.7645Y0.1129
X8.8025Y0.7685
X8.8025Y1.0365
X8.8665Y1.0845
X8.919Y1.3945
X8.994Y1.1545
X9.055Y2.7105
X9.0815Y1.0795
X9.0815Y1.5595
X9.21Y1.857
X9.2212Y1.4318
X9.302Y1.639
X9.32Y0.04
X9.322Y2.764
X9.383Y1.22
X9.4265Y1.7195
X9.7175Y1.3205
T5
X7.525Y0.44
X8.337Y0.355
T6
X9.3515Y0.6295
X9.3515Y0.7195
X9.3515Y1.0795
X9.3515Y1.1695
X9.3515Y1.4695
X9.3515Y1.5595
X9.3515Y1.9195
X9.3515Y2.0095
X9.5415Y0.7995
X9.5415Y0.8795
X9.5415Y0.9595
X9.5415Y1.0395
X9.5415Y1.6395
X9.5415Y1.7195
X9.5415Y1.7995
X9.5415Y1.8795
X9.6115Y0.7595
X9.6115Y0.8395
X9.6115Y0.9195
X9.6115Y0.9995
X9.6115Y1.5995
X9.6115Y1.6795
X9.6115Y1.7595
X9.6115Y1.8395
T7
X7.6354Y0.2373
X7.7354Y0.2373
X7.8354Y0.2373
X7.9354Y0.2373
X8.0354Y0.2373
X8.1354Y0.2373
X8.2354Y0.2373
X8.3354Y0.2373
X8.4354Y0.2373
X8.5285Y1.467
X8.5354Y0.2373
X8.6354Y0.2373
X8.7354Y0.2373
X8.8354Y0.2373
X8.9354Y0.2373
X9.0354Y0.2373
X9.1354Y0.2373
T8
X0.0657Y2.794
X0.1657Y2.794
X3.0657Y2.794
X3.1657Y2.794
X6.0657Y2.794
X6.1657Y2.794
X7.8875Y2.6195
X7.8875Y2.7195
X7.9875Y2.6195
X7.9875Y2.7195
X8.0875Y2.6195
X8.0875Y2.7195
X8.1875Y2.6195
X8.1875Y2.7195
X8.2875Y2.6195
X8.2875Y2.7195
X8.5285Y1.067
X8.5285Y1.167
X8.5285Y1.267
X8.5285Y1.367
X9.0657Y2.794
X9.1657Y2.794
T9
X9.661Y2.252
T10
X9.7115Y0.6495
X9.7115Y1.1495
X9.7115Y1.4895
X9.7115Y1.9895
T11
X9.5036Y0.0994
X9.5036Y0.3946
X9.5036Y2.5249
X9.5036Y2.8201
X9.7004Y0.0994
X9.7004Y0.3946
X9.7004Y2.5249
X9.7004Y2.8201
T0
M30
