G04 (created by PCBNEW (2013-07-07 BZR 4022)-stable) date 23/04/2014 17:50:20*
%MOIN*%
G04 Gerber Fmt 3.4, Leading zero omitted, Abs format*
%FSLAX34Y34*%
G01*
G70*
G90*
G04 APERTURE LIST*
%ADD10C,0.006*%
%ADD11C,0.052*%
%ADD12C,0.128*%
%ADD13R,0.025X0.045*%
%ADD14R,0.045X0.025*%
%ADD15R,0.035X0.055*%
%ADD16R,0.0551X0.0236*%
%ADD17R,0.0394X0.0315*%
%ADD18R,0.0106X0.0394*%
%ADD19R,0.0394X0.0106*%
%ADD20R,0.0165X0.0579*%
%ADD21R,0.212598X0.0787402*%
%ADD22R,0.055X0.055*%
%ADD23R,0.06X0.06*%
%ADD24C,0.06*%
%ADD25R,0.22X0.083*%
%ADD26R,0.244X0.228*%
%ADD27R,0.118X0.063*%
%ADD28R,0.063X0.0866*%
%ADD29C,0.0472441*%
%ADD30R,0.0472441X0.0472441*%
%ADD31C,0.177165*%
%ADD32R,0.055X0.035*%
%ADD33C,0.0590551*%
%ADD34R,0.0335X0.0335*%
%ADD35R,0.027X0.024*%
%ADD36R,0.0669291X0.0669291*%
%ADD37R,0.0590551X0.0590551*%
G04 APERTURE END LIST*
G54D10*
G54D11*
X93515Y-14695D03*
X93515Y-15595D03*
X93515Y-19195D03*
X93515Y-20095D03*
X95415Y-18795D03*
X95415Y-17995D03*
X95415Y-17195D03*
X95415Y-16395D03*
X96115Y-17595D03*
X96115Y-16795D03*
X96115Y-18395D03*
X96115Y-15995D03*
G54D12*
X97115Y-14895D03*
X97115Y-19895D03*
G54D11*
X93515Y-6295D03*
X93515Y-7195D03*
X93515Y-10795D03*
X93515Y-11695D03*
X95415Y-10395D03*
X95415Y-9595D03*
X95415Y-8795D03*
X95415Y-7995D03*
X96115Y-9195D03*
X96115Y-8395D03*
X96115Y-9995D03*
X96115Y-7595D03*
G54D12*
X97115Y-6495D03*
X97115Y-11495D03*
G54D13*
X89940Y-15295D03*
X89340Y-15295D03*
X87890Y-15295D03*
X87290Y-15295D03*
G54D14*
X86540Y-11215D03*
X86540Y-11815D03*
G54D13*
X87890Y-16020D03*
X87290Y-16020D03*
G54D14*
X88645Y-11815D03*
X88645Y-11215D03*
X89940Y-11945D03*
X89940Y-12545D03*
G54D13*
X90416Y-19318D03*
X91016Y-19318D03*
X90420Y-16560D03*
X91020Y-16560D03*
X96185Y-13205D03*
X96785Y-13205D03*
G54D15*
X91758Y-7192D03*
X92508Y-7192D03*
X91719Y-20105D03*
X92469Y-20105D03*
X91758Y-15892D03*
X92508Y-15892D03*
X94915Y-13595D03*
X94165Y-13595D03*
X93415Y-13595D03*
X92665Y-13595D03*
X93415Y-12795D03*
X92665Y-12795D03*
X91758Y-11680D03*
X92508Y-11680D03*
G54D16*
X88640Y-12445D03*
X86540Y-12445D03*
X88640Y-12945D03*
X88640Y-13445D03*
X88640Y-13945D03*
X86540Y-12945D03*
X86540Y-13445D03*
X86540Y-13945D03*
G54D17*
X92605Y-14672D03*
X91739Y-15047D03*
X91739Y-14297D03*
X92527Y-18924D03*
X91661Y-19299D03*
X91661Y-18549D03*
G54D18*
X77212Y-19459D03*
X79378Y-16151D03*
X79181Y-16151D03*
X78984Y-16151D03*
X78787Y-16151D03*
X78590Y-16151D03*
X78393Y-16151D03*
X78197Y-16151D03*
X78000Y-16151D03*
X77803Y-16151D03*
X77606Y-16151D03*
X77409Y-16151D03*
X77212Y-16151D03*
G54D19*
X76641Y-16722D03*
X76641Y-16919D03*
X76641Y-17116D03*
X76641Y-17308D03*
X76641Y-17510D03*
X76641Y-17707D03*
X76641Y-17903D03*
X76641Y-18100D03*
X76641Y-18297D03*
X76641Y-18494D03*
X76641Y-18691D03*
X76641Y-18888D03*
G54D18*
X77409Y-19459D03*
X77606Y-19459D03*
X77803Y-19459D03*
X78000Y-19459D03*
X78197Y-19459D03*
X78393Y-19459D03*
X78590Y-19459D03*
X78787Y-19459D03*
X78984Y-19459D03*
X79181Y-19459D03*
X79378Y-19459D03*
G54D19*
X79949Y-18888D03*
X79949Y-18691D03*
X79949Y-18494D03*
X79949Y-18297D03*
X79949Y-18100D03*
X79949Y-17903D03*
X79949Y-17707D03*
X79949Y-17510D03*
X79949Y-17313D03*
X79949Y-17116D03*
X79949Y-16919D03*
X79949Y-16722D03*
G54D20*
X70251Y-4572D03*
X70507Y-4572D03*
X70763Y-4572D03*
X71019Y-4572D03*
X69487Y-2370D03*
X69483Y-4572D03*
X69739Y-4572D03*
X69995Y-4572D03*
X71275Y-2368D03*
X71019Y-2368D03*
X70763Y-2368D03*
X70507Y-2368D03*
X70251Y-2368D03*
X69995Y-2368D03*
X71275Y-4572D03*
X69739Y-2370D03*
X69227Y-4572D03*
X71531Y-4572D03*
X71531Y-2368D03*
X69227Y-2368D03*
X66601Y-4572D03*
X66857Y-4572D03*
X67113Y-4572D03*
X67369Y-4572D03*
X65837Y-2370D03*
X65833Y-4572D03*
X66089Y-4572D03*
X66345Y-4572D03*
X67625Y-2368D03*
X67369Y-2368D03*
X67113Y-2368D03*
X66857Y-2368D03*
X66601Y-2368D03*
X66345Y-2368D03*
X67625Y-4572D03*
X66089Y-2370D03*
X65577Y-4572D03*
X67881Y-4572D03*
X67881Y-2368D03*
X65577Y-2368D03*
G54D21*
X89700Y-4300D03*
X89700Y-6899D03*
G54D15*
X78550Y-9850D03*
X79300Y-9850D03*
X74575Y-2400D03*
X75325Y-2400D03*
G54D13*
X92790Y-25450D03*
X93390Y-25450D03*
X33390Y-26200D03*
X32790Y-26200D03*
X33390Y-26950D03*
X32790Y-26950D03*
X63390Y-25450D03*
X62790Y-25450D03*
X63390Y-26200D03*
X62790Y-26200D03*
X63390Y-26950D03*
X62790Y-26950D03*
X92790Y-26950D03*
X93390Y-26950D03*
X92790Y-26200D03*
X93390Y-26200D03*
G54D14*
X92657Y-27640D03*
X92657Y-28240D03*
G54D13*
X33390Y-25450D03*
X32790Y-25450D03*
X3400Y-26950D03*
X2800Y-26950D03*
X3400Y-26200D03*
X2800Y-26200D03*
X3400Y-25450D03*
X2800Y-25450D03*
G54D14*
X91150Y-8500D03*
X91150Y-9100D03*
G54D13*
X79570Y-14155D03*
X78970Y-14155D03*
G54D14*
X64900Y-2950D03*
X64900Y-2350D03*
X68550Y-2950D03*
X68550Y-2350D03*
G54D13*
X92200Y-400D03*
X92800Y-400D03*
G54D14*
X73040Y-4845D03*
X73040Y-4245D03*
X62667Y-27640D03*
X62667Y-28240D03*
G54D13*
X80715Y-17510D03*
X81315Y-17510D03*
X77845Y-14810D03*
X77245Y-14810D03*
G54D14*
X81840Y-12030D03*
X81840Y-12630D03*
X74745Y-12030D03*
X74745Y-12630D03*
G54D13*
X79575Y-15455D03*
X78975Y-15455D03*
X78975Y-14805D03*
X79575Y-14805D03*
G54D14*
X78600Y-4300D03*
X78600Y-3700D03*
X32667Y-27640D03*
X32667Y-28240D03*
X2667Y-27640D03*
X2667Y-28240D03*
X84420Y-3850D03*
X84420Y-3250D03*
G54D22*
X75250Y-4400D03*
G54D23*
X82875Y-26195D03*
G54D24*
X82875Y-27195D03*
X81875Y-26195D03*
X81875Y-27195D03*
X80875Y-26195D03*
X80875Y-27195D03*
X79875Y-26195D03*
X79875Y-27195D03*
X78875Y-26195D03*
X78875Y-27195D03*
G54D23*
X60657Y-27940D03*
G54D24*
X61657Y-27940D03*
G54D23*
X657Y-27940D03*
G54D24*
X1657Y-27940D03*
G54D23*
X30657Y-27940D03*
G54D24*
X31657Y-27940D03*
G54D23*
X90657Y-27940D03*
G54D24*
X91657Y-27940D03*
G54D25*
X76425Y-12630D03*
X80165Y-12630D03*
G54D26*
X77050Y-7500D03*
G54D27*
X79880Y-8400D03*
X79880Y-6600D03*
G54D26*
X83320Y-7500D03*
G54D27*
X86150Y-8400D03*
X86150Y-6600D03*
G54D28*
X92898Y-4300D03*
X91402Y-4300D03*
G54D29*
X85920Y-3656D03*
G54D30*
X85920Y-4443D03*
G54D29*
X89700Y-9193D03*
G54D30*
X89700Y-8406D03*
G54D29*
X77050Y-3606D03*
G54D30*
X77050Y-4393D03*
G54D29*
X91143Y-1000D03*
G54D30*
X90356Y-1000D03*
G54D31*
X97004Y-993D03*
X97004Y-3946D03*
X95035Y-993D03*
X95035Y-3946D03*
X97004Y-25248D03*
X97004Y-28201D03*
X95035Y-25248D03*
X95035Y-28201D03*
G54D15*
X87275Y-4440D03*
X88025Y-4440D03*
G54D22*
X83370Y-3550D03*
G54D32*
X84040Y-26940D03*
X84040Y-26190D03*
G54D14*
X81370Y-23330D03*
X81370Y-23930D03*
X82360Y-23330D03*
X82360Y-23930D03*
G54D17*
X73898Y-3245D03*
X73032Y-3620D03*
X73032Y-2870D03*
G54D23*
X85285Y-10670D03*
G54D24*
X85285Y-11670D03*
X85285Y-12670D03*
X85285Y-13670D03*
G54D33*
X85285Y-14670D03*
G54D34*
X90815Y-12554D03*
X90815Y-11236D03*
X90815Y-13836D03*
X90815Y-15154D03*
G54D35*
X89940Y-13855D03*
X89940Y-14735D03*
G54D36*
X96610Y-22520D03*
G54D15*
X87782Y-558D03*
X88532Y-558D03*
X88530Y-1306D03*
X89280Y-1306D03*
G54D33*
X77354Y-2373D03*
X76354Y-2373D03*
X81354Y-2373D03*
X80354Y-2373D03*
X79354Y-2373D03*
X84354Y-2373D03*
X83354Y-2373D03*
X82354Y-2373D03*
X88354Y-2373D03*
X87354Y-2373D03*
X86354Y-2373D03*
G54D37*
X91354Y-2373D03*
G54D33*
X90354Y-2373D03*
X78354Y-2373D03*
X89354Y-2373D03*
X85354Y-2373D03*
M02*
