G04 #@! TF.FileFunction,Legend,Top*
%FSLAX46Y46*%
G04 Gerber Fmt 4.6, Leading zero omitted, Abs format (unit mm)*
G04 Created by KiCad (PCBNEW (2014-jul-16 BZR unknown)-product) date Sex 05 Dez 2014 16:19:23 BRST*
%MOMM*%
G01*
G04 APERTURE LIST*
%ADD10C,0.152400*%
%ADD11C,0.300000*%
%ADD12C,0.400000*%
%ADD13C,0.508000*%
%ADD14C,0.099060*%
%ADD15C,0.254000*%
%ADD16C,0.127000*%
%ADD17C,0.150000*%
%ADD18C,0.200000*%
%ADD19C,0.190500*%
%ADD20C,0.304800*%
%ADD21C,0.078740*%
%ADD22C,0.317500*%
%ADD23C,0.203200*%
G04 APERTURE END LIST*
D10*
D11*
X145331571Y-55785856D02*
X143831571Y-55785856D01*
X144903000Y-55285856D01*
X143831571Y-54785856D01*
X145331571Y-54785856D01*
X143831571Y-53785856D02*
X143831571Y-53500142D01*
X143903000Y-53357284D01*
X144045857Y-53214427D01*
X144331571Y-53142999D01*
X144831571Y-53142999D01*
X145117286Y-53214427D01*
X145260143Y-53357284D01*
X145331571Y-53500142D01*
X145331571Y-53785856D01*
X145260143Y-53928713D01*
X145117286Y-54071570D01*
X144831571Y-54142999D01*
X144331571Y-54142999D01*
X144045857Y-54071570D01*
X143903000Y-53928713D01*
X143831571Y-53785856D01*
X145331571Y-52500141D02*
X143831571Y-52500141D01*
X143831571Y-52142998D01*
X143903000Y-51928713D01*
X144045857Y-51785855D01*
X144188714Y-51714427D01*
X144474429Y-51642998D01*
X144688714Y-51642998D01*
X144974429Y-51714427D01*
X145117286Y-51785855D01*
X145260143Y-51928713D01*
X145331571Y-52142998D01*
X145331571Y-52500141D01*
X144545857Y-49357284D02*
X144545857Y-49857284D01*
X145331571Y-49857284D02*
X143831571Y-49857284D01*
X143831571Y-49142998D01*
X143831571Y-48285856D02*
X143831571Y-48000142D01*
X143903000Y-47857284D01*
X144045857Y-47714427D01*
X144331571Y-47642999D01*
X144831571Y-47642999D01*
X145117286Y-47714427D01*
X145260143Y-47857284D01*
X145331571Y-48000142D01*
X145331571Y-48285856D01*
X145260143Y-48428713D01*
X145117286Y-48571570D01*
X144831571Y-48642999D01*
X144331571Y-48642999D01*
X144045857Y-48571570D01*
X143903000Y-48428713D01*
X143831571Y-48285856D01*
X143831571Y-46714427D02*
X143831571Y-46428713D01*
X143903000Y-46285855D01*
X144045857Y-46142998D01*
X144331571Y-46071570D01*
X144831571Y-46071570D01*
X145117286Y-46142998D01*
X145260143Y-46285855D01*
X145331571Y-46428713D01*
X145331571Y-46714427D01*
X145260143Y-46857284D01*
X145117286Y-47000141D01*
X144831571Y-47071570D01*
X144331571Y-47071570D01*
X144045857Y-47000141D01*
X143903000Y-46857284D01*
X143831571Y-46714427D01*
X143831571Y-45642998D02*
X143831571Y-44785855D01*
X145331571Y-45214426D02*
X143831571Y-45214426D01*
X145331571Y-43142998D02*
X143831571Y-43142998D01*
X143831571Y-42571570D01*
X143903000Y-42428712D01*
X143974429Y-42357284D01*
X144117286Y-42285855D01*
X144331571Y-42285855D01*
X144474429Y-42357284D01*
X144545857Y-42428712D01*
X144617286Y-42571570D01*
X144617286Y-43142998D01*
X145331571Y-40785855D02*
X144617286Y-41285855D01*
X145331571Y-41642998D02*
X143831571Y-41642998D01*
X143831571Y-41071570D01*
X143903000Y-40928712D01*
X143974429Y-40857284D01*
X144117286Y-40785855D01*
X144331571Y-40785855D01*
X144474429Y-40857284D01*
X144545857Y-40928712D01*
X144617286Y-41071570D01*
X144617286Y-41642998D01*
X143831571Y-39857284D02*
X143831571Y-39571570D01*
X143903000Y-39428712D01*
X144045857Y-39285855D01*
X144331571Y-39214427D01*
X144831571Y-39214427D01*
X145117286Y-39285855D01*
X145260143Y-39428712D01*
X145331571Y-39571570D01*
X145331571Y-39857284D01*
X145260143Y-40000141D01*
X145117286Y-40142998D01*
X144831571Y-40214427D01*
X144331571Y-40214427D01*
X144045857Y-40142998D01*
X143903000Y-40000141D01*
X143831571Y-39857284D01*
X143831571Y-38785855D02*
X143831571Y-37928712D01*
X145331571Y-38357283D02*
X143831571Y-38357283D01*
X143831571Y-37142998D02*
X143831571Y-36857284D01*
X143903000Y-36714426D01*
X144045857Y-36571569D01*
X144331571Y-36500141D01*
X144831571Y-36500141D01*
X145117286Y-36571569D01*
X145260143Y-36714426D01*
X145331571Y-36857284D01*
X145331571Y-37142998D01*
X145260143Y-37285855D01*
X145117286Y-37428712D01*
X144831571Y-37500141D01*
X144331571Y-37500141D01*
X144045857Y-37428712D01*
X143903000Y-37285855D01*
X143831571Y-37142998D01*
X143831571Y-36071569D02*
X143831571Y-35214426D01*
X145331571Y-35642997D02*
X143831571Y-35642997D01*
X144617286Y-34428712D02*
X145331571Y-34428712D01*
X143831571Y-34928712D02*
X144617286Y-34428712D01*
X143831571Y-33928712D01*
X145331571Y-33428712D02*
X143831571Y-33428712D01*
X143831571Y-32857284D01*
X143903000Y-32714426D01*
X143974429Y-32642998D01*
X144117286Y-32571569D01*
X144331571Y-32571569D01*
X144474429Y-32642998D01*
X144545857Y-32714426D01*
X144617286Y-32857284D01*
X144617286Y-33428712D01*
X144545857Y-31928712D02*
X144545857Y-31428712D01*
X145331571Y-31214426D02*
X145331571Y-31928712D01*
X143831571Y-31928712D01*
X143831571Y-31214426D01*
X145331571Y-28642998D02*
X145331571Y-29500141D01*
X145331571Y-29071569D02*
X143831571Y-29071569D01*
X144045857Y-29214426D01*
X144188714Y-29357284D01*
X144260143Y-29500141D01*
X144760143Y-26857284D02*
X144760143Y-25714427D01*
X143974429Y-23928713D02*
X143903000Y-23857284D01*
X143831571Y-23714427D01*
X143831571Y-23357284D01*
X143903000Y-23214427D01*
X143974429Y-23142998D01*
X144117286Y-23071570D01*
X144260143Y-23071570D01*
X144474429Y-23142998D01*
X145331571Y-24000141D01*
X145331571Y-23071570D01*
X143831571Y-22142999D02*
X143831571Y-22000142D01*
X143903000Y-21857285D01*
X143974429Y-21785856D01*
X144117286Y-21714427D01*
X144403000Y-21642999D01*
X144760143Y-21642999D01*
X145045857Y-21714427D01*
X145188714Y-21785856D01*
X145260143Y-21857285D01*
X145331571Y-22000142D01*
X145331571Y-22142999D01*
X145260143Y-22285856D01*
X145188714Y-22357285D01*
X145045857Y-22428713D01*
X144760143Y-22500142D01*
X144403000Y-22500142D01*
X144117286Y-22428713D01*
X143974429Y-22357285D01*
X143903000Y-22285856D01*
X143831571Y-22142999D01*
X145331571Y-20214428D02*
X145331571Y-21071571D01*
X145331571Y-20642999D02*
X143831571Y-20642999D01*
X144045857Y-20785856D01*
X144188714Y-20928714D01*
X144260143Y-21071571D01*
X144331571Y-18928714D02*
X145331571Y-18928714D01*
X143760143Y-19285857D02*
X144831571Y-19643000D01*
X144831571Y-18714428D01*
X143760143Y-17071572D02*
X145688714Y-18357286D01*
X143831571Y-16285857D02*
X143831571Y-16143000D01*
X143903000Y-16000143D01*
X143974429Y-15928714D01*
X144117286Y-15857285D01*
X144403000Y-15785857D01*
X144760143Y-15785857D01*
X145045857Y-15857285D01*
X145188714Y-15928714D01*
X145260143Y-16000143D01*
X145331571Y-16143000D01*
X145331571Y-16285857D01*
X145260143Y-16428714D01*
X145188714Y-16500143D01*
X145045857Y-16571571D01*
X144760143Y-16643000D01*
X144403000Y-16643000D01*
X144117286Y-16571571D01*
X143974429Y-16500143D01*
X143903000Y-16428714D01*
X143831571Y-16285857D01*
X144331571Y-14500143D02*
X145331571Y-14500143D01*
X143760143Y-14857286D02*
X144831571Y-15214429D01*
X144831571Y-14285857D01*
X143760143Y-12643001D02*
X145688714Y-13928715D01*
X143974429Y-12214429D02*
X143903000Y-12143000D01*
X143831571Y-12000143D01*
X143831571Y-11643000D01*
X143903000Y-11500143D01*
X143974429Y-11428714D01*
X144117286Y-11357286D01*
X144260143Y-11357286D01*
X144474429Y-11428714D01*
X145331571Y-12285857D01*
X145331571Y-11357286D01*
X143831571Y-10857286D02*
X143831571Y-9928715D01*
X144403000Y-10428715D01*
X144403000Y-10214429D01*
X144474429Y-10071572D01*
X144545857Y-10000143D01*
X144688714Y-9928715D01*
X145045857Y-9928715D01*
X145188714Y-10000143D01*
X145260143Y-10071572D01*
X145331571Y-10214429D01*
X145331571Y-10643001D01*
X145260143Y-10785858D01*
X145188714Y-10857286D01*
D12*
X700000Y-72500000D02*
G75*
G03X700000Y-72500000I-500000J0D01*
G01*
X76800000Y-72600000D02*
G75*
G03X76800000Y-72600000I-500000J0D01*
G01*
X153000000Y-72500000D02*
G75*
G03X153000000Y-72500000I-500000J0D01*
G01*
X229200000Y-72500000D02*
G75*
G03X229200000Y-72500000I-500000J0D01*
G01*
X212600000Y-64900000D02*
G75*
G03X212600000Y-64900000I-500000J0D01*
G01*
X215500000Y-25500000D02*
G75*
G03X215500000Y-25500000I-500000J0D01*
G01*
D11*
X234500000Y-6000000D02*
G75*
G03X234500000Y-6000000I-500000J0D01*
G01*
D10*
X210676671Y-11094357D02*
X211160481Y-11094357D01*
X210918576Y-11336262D02*
X210918576Y-10852452D01*
X211765242Y-10701262D02*
X211462861Y-10701262D01*
X211432623Y-11003643D01*
X211462861Y-10973405D01*
X211523338Y-10943167D01*
X211674528Y-10943167D01*
X211735004Y-10973405D01*
X211765242Y-11003643D01*
X211795481Y-11064119D01*
X211795481Y-11215310D01*
X211765242Y-11275786D01*
X211735004Y-11306024D01*
X211674528Y-11336262D01*
X211523338Y-11336262D01*
X211462861Y-11306024D01*
X211432623Y-11275786D01*
X211976909Y-10701262D02*
X212188576Y-11336262D01*
X212400243Y-10701262D01*
X189814200Y-13215257D02*
X190298010Y-13215257D01*
X190056105Y-13457162D02*
X190056105Y-12973352D01*
X190539914Y-12822162D02*
X190933010Y-12822162D01*
X190721343Y-13064067D01*
X190812057Y-13064067D01*
X190872533Y-13094305D01*
X190902771Y-13124543D01*
X190933010Y-13185019D01*
X190933010Y-13336210D01*
X190902771Y-13396686D01*
X190872533Y-13426924D01*
X190812057Y-13457162D01*
X190630629Y-13457162D01*
X190570152Y-13426924D01*
X190539914Y-13396686D01*
X191205152Y-13396686D02*
X191235391Y-13426924D01*
X191205152Y-13457162D01*
X191174914Y-13426924D01*
X191205152Y-13396686D01*
X191205152Y-13457162D01*
X191447057Y-12822162D02*
X191840153Y-12822162D01*
X191628486Y-13064067D01*
X191719200Y-13064067D01*
X191779676Y-13094305D01*
X191809914Y-13124543D01*
X191840153Y-13185019D01*
X191840153Y-13336210D01*
X191809914Y-13396686D01*
X191779676Y-13426924D01*
X191719200Y-13457162D01*
X191537772Y-13457162D01*
X191477295Y-13426924D01*
X191447057Y-13396686D01*
X192021581Y-12822162D02*
X192233248Y-13457162D01*
X192444915Y-12822162D01*
X244918291Y-58928000D02*
X244857814Y-58897762D01*
X244767100Y-58897762D01*
X244676386Y-58928000D01*
X244615910Y-58988476D01*
X244585671Y-59048952D01*
X244555433Y-59169905D01*
X244555433Y-59260619D01*
X244585671Y-59381571D01*
X244615910Y-59442048D01*
X244676386Y-59502524D01*
X244767100Y-59532762D01*
X244827576Y-59532762D01*
X244918291Y-59502524D01*
X244948529Y-59472286D01*
X244948529Y-59260619D01*
X244827576Y-59260619D01*
X245220671Y-59532762D02*
X245220671Y-58897762D01*
X245583529Y-59532762D01*
X245583529Y-58897762D01*
X245885909Y-59532762D02*
X245885909Y-58897762D01*
X246037100Y-58897762D01*
X246127814Y-58928000D01*
X246188290Y-58988476D01*
X246218529Y-59048952D01*
X246248767Y-59169905D01*
X246248767Y-59260619D01*
X246218529Y-59381571D01*
X246188290Y-59442048D01*
X246127814Y-59502524D01*
X246037100Y-59532762D01*
X245885909Y-59532762D01*
D13*
X203080909Y-41414700D02*
G75*
G03X203080909Y-41414700I-401609J0D01*
G01*
D10*
X203128638Y-48977852D02*
X203128638Y-49370948D01*
X202886733Y-49159281D01*
X202886733Y-49249995D01*
X202856495Y-49310471D01*
X202826257Y-49340709D01*
X202765781Y-49370948D01*
X202614590Y-49370948D01*
X202554114Y-49340709D01*
X202523876Y-49310471D01*
X202493638Y-49249995D01*
X202493638Y-49068567D01*
X202523876Y-49008090D01*
X202554114Y-48977852D01*
X203128638Y-49915233D02*
X203128638Y-49794281D01*
X203098400Y-49733805D01*
X203068162Y-49703567D01*
X202977448Y-49643090D01*
X202856495Y-49612852D01*
X202614590Y-49612852D01*
X202554114Y-49643090D01*
X202523876Y-49673329D01*
X202493638Y-49733805D01*
X202493638Y-49854757D01*
X202523876Y-49915233D01*
X202554114Y-49945471D01*
X202614590Y-49975710D01*
X202765781Y-49975710D01*
X202826257Y-49945471D01*
X202856495Y-49915233D01*
X202886733Y-49854757D01*
X202886733Y-49733805D01*
X202856495Y-49673329D01*
X202826257Y-49643090D01*
X202765781Y-49612852D01*
X195162110Y-48940962D02*
X195131872Y-48971200D01*
X195071395Y-49001438D01*
X194920205Y-49001438D01*
X194859729Y-48971200D01*
X194829491Y-48940962D01*
X194799252Y-48880486D01*
X194799252Y-48820010D01*
X194829491Y-48729295D01*
X195192348Y-48366438D01*
X194799252Y-48366438D01*
X194254967Y-48789771D02*
X194254967Y-48366438D01*
X194406157Y-49031676D02*
X194557348Y-48578105D01*
X194164252Y-48578105D01*
X195089538Y-40900048D02*
X195089538Y-40537190D01*
X195089538Y-40718619D02*
X195724538Y-40718619D01*
X195633824Y-40658143D01*
X195573348Y-40597667D01*
X195543110Y-40537190D01*
X195664062Y-41141952D02*
X195694300Y-41172190D01*
X195724538Y-41232667D01*
X195724538Y-41383857D01*
X195694300Y-41444333D01*
X195664062Y-41474571D01*
X195603586Y-41504810D01*
X195543110Y-41504810D01*
X195452395Y-41474571D01*
X195089538Y-41111714D01*
X195089538Y-41504810D01*
D14*
X227138000Y-24752000D02*
X228538000Y-24752000D01*
X226838000Y-24652000D02*
X228838000Y-24652000D01*
X226638000Y-24552000D02*
X229138000Y-24552000D01*
X226538000Y-24452000D02*
X229238000Y-24452000D01*
D15*
X230338000Y-22352000D02*
G75*
G03X230338000Y-22352000I-2500000J0D01*
G01*
D16*
X232156000Y-21209000D02*
X232156000Y-23495000D01*
X232156000Y-23495000D02*
X230886000Y-23495000D01*
X230886000Y-23495000D02*
X230886000Y-21209000D01*
X230886000Y-21209000D02*
X232156000Y-21209000D01*
D14*
X218936800Y-7887000D02*
X217536800Y-7887000D01*
X219236800Y-7987000D02*
X217236800Y-7987000D01*
X219436800Y-8087000D02*
X216936800Y-8087000D01*
X219536800Y-8187000D02*
X216836800Y-8187000D01*
D15*
X220736800Y-10287000D02*
G75*
G03X220736800Y-10287000I-2500000J0D01*
G01*
D16*
X213791800Y-10160000D02*
X213791800Y-7874000D01*
X213791800Y-7874000D02*
X215061800Y-7874000D01*
X215061800Y-7874000D02*
X215061800Y-10160000D01*
X215061800Y-10160000D02*
X213791800Y-10160000D01*
X243928900Y-32905700D02*
X246214900Y-32905700D01*
X246214900Y-32905700D02*
X246214900Y-34175700D01*
X246214900Y-34175700D02*
X243928900Y-34175700D01*
X243928900Y-34175700D02*
X243928900Y-32905700D01*
D14*
X196407000Y-7760000D02*
X195007000Y-7760000D01*
X196707000Y-7860000D02*
X194707000Y-7860000D01*
X196907000Y-7960000D02*
X194407000Y-7960000D01*
X197007000Y-8060000D02*
X194307000Y-8060000D01*
D15*
X198207000Y-10160000D02*
G75*
G03X198207000Y-10160000I-2500000J0D01*
G01*
D16*
X199009000Y-11303000D02*
X199009000Y-9017000D01*
X199009000Y-9017000D02*
X200279000Y-9017000D01*
X200279000Y-9017000D02*
X200279000Y-11303000D01*
X200279000Y-11303000D02*
X199009000Y-11303000D01*
X224523300Y-30391100D02*
X224523300Y-28105100D01*
X224523300Y-28105100D02*
X225793300Y-28105100D01*
X225793300Y-28105100D02*
X225793300Y-30391100D01*
X225793300Y-30391100D02*
X224523300Y-30391100D01*
X200215500Y-36969700D02*
X202501500Y-36969700D01*
X202501500Y-36969700D02*
X202501500Y-38239700D01*
X202501500Y-38239700D02*
X200215500Y-38239700D01*
X200215500Y-38239700D02*
X200215500Y-36969700D01*
X208508600Y-30175200D02*
X208508600Y-32461200D01*
X208508600Y-32461200D02*
X207238600Y-32461200D01*
X207238600Y-32461200D02*
X207238600Y-30175200D01*
X207238600Y-30175200D02*
X208508600Y-30175200D01*
X190487300Y-30175200D02*
X190487300Y-32461200D01*
X190487300Y-32461200D02*
X189217300Y-32461200D01*
X189217300Y-32461200D02*
X189217300Y-30175200D01*
X189217300Y-30175200D02*
X190487300Y-30175200D01*
X198107300Y-38252400D02*
X195821300Y-38252400D01*
X195821300Y-38252400D02*
X195821300Y-36982400D01*
X195821300Y-36982400D02*
X198107300Y-36982400D01*
X198107300Y-36982400D02*
X198107300Y-38252400D01*
X204635100Y-43840400D02*
X206921100Y-43840400D01*
X206921100Y-43840400D02*
X206921100Y-45110400D01*
X206921100Y-45110400D02*
X204635100Y-45110400D01*
X204635100Y-45110400D02*
X204635100Y-43840400D01*
X173482000Y-7874000D02*
X173482000Y-5588000D01*
X173482000Y-5588000D02*
X174752000Y-5588000D01*
X174752000Y-5588000D02*
X174752000Y-7874000D01*
X174752000Y-7874000D02*
X173482000Y-7874000D01*
X164211000Y-7874000D02*
X164211000Y-5588000D01*
X164211000Y-5588000D02*
X165481000Y-5588000D01*
X165481000Y-5588000D02*
X165481000Y-7874000D01*
X165481000Y-7874000D02*
X164211000Y-7874000D01*
D14*
X232905000Y-3240000D02*
X232905000Y-1840000D01*
X232805000Y-3540000D02*
X232805000Y-1540000D01*
X232705000Y-3740000D02*
X232705000Y-1240000D01*
X232605000Y-3840000D02*
X232605000Y-1140000D01*
D15*
X233005000Y-2540000D02*
G75*
G03X233005000Y-2540000I-2500000J0D01*
G01*
D16*
X233807000Y-381000D02*
X236093000Y-381000D01*
X236093000Y-381000D02*
X236093000Y-1651000D01*
X236093000Y-1651000D02*
X233807000Y-1651000D01*
X233807000Y-1651000D02*
X233807000Y-381000D01*
D17*
X238890800Y-12523800D02*
X238890800Y-23800D01*
X238890800Y-23800D02*
X248890800Y-23800D01*
X248890800Y-23800D02*
X248890800Y-12523800D01*
X248890800Y-12523800D02*
X238890800Y-12523800D01*
X238890800Y-74131500D02*
X238890800Y-61631500D01*
X238890800Y-61631500D02*
X248890800Y-61631500D01*
X248890800Y-61631500D02*
X248890800Y-74131500D01*
X248890800Y-74131500D02*
X238890800Y-74131500D01*
D10*
X234011000Y-10922000D02*
X233211000Y-10922000D01*
X234711000Y-10922000D02*
X235411000Y-10922000D01*
X233211000Y-12322000D02*
X233211000Y-9522000D01*
X232811000Y-12322000D02*
X232811000Y-9522000D01*
D18*
X231811000Y-9522000D02*
X236311000Y-9522000D01*
X236311000Y-12322000D02*
X231811000Y-12322000D01*
D10*
X234038000Y-10922000D02*
X234673000Y-11396980D01*
X234673000Y-11396980D02*
X234673000Y-10922000D01*
X234673000Y-10922000D02*
X234673000Y-10447020D01*
X234673000Y-10447020D02*
X234038000Y-10922000D01*
X234038000Y-10922000D02*
X234038000Y-11239500D01*
X234038000Y-11239500D02*
X234195480Y-11396980D01*
X234038000Y-10922000D02*
X234038000Y-10604500D01*
X234038000Y-10604500D02*
X233880520Y-10447020D01*
D19*
X229895400Y-38166040D02*
X229895400Y-35468560D01*
X231444800Y-35468560D02*
X231444800Y-38166040D01*
X231444800Y-36217860D02*
X229895400Y-36217860D01*
X230670100Y-36217860D02*
X231269540Y-36819840D01*
X231269540Y-36819840D02*
X230070660Y-36819840D01*
X230070660Y-36819840D02*
X230670100Y-36217860D01*
X231444800Y-28864560D02*
X231444800Y-31562040D01*
X229895400Y-31562040D02*
X229895400Y-28864560D01*
X229895400Y-30812740D02*
X231444800Y-30812740D01*
X230670100Y-30812740D02*
X230070660Y-30210760D01*
X230070660Y-30210760D02*
X231269540Y-30210760D01*
X231269540Y-30210760D02*
X230670100Y-30812740D01*
X229072440Y-35783520D02*
X227822760Y-35783520D01*
X228871780Y-36210240D02*
X228023420Y-36210240D01*
X228023420Y-36210240D02*
X228447600Y-35783520D01*
X228447600Y-35783520D02*
X228871780Y-36210240D01*
X227822760Y-35458400D02*
X227947220Y-35458400D01*
X229072440Y-35458400D02*
X228947980Y-35458400D01*
X227822760Y-37160200D02*
X227947220Y-37160200D01*
X229072440Y-37160200D02*
X228947980Y-37160200D01*
X227827840Y-35458400D02*
X227827840Y-37160200D01*
X229077520Y-35458400D02*
X229077520Y-37160200D01*
D10*
X228998780Y-72237600D02*
X228998780Y-69697600D01*
X228998780Y-69697600D02*
X234078780Y-69697600D01*
X234078780Y-69697600D02*
X234078780Y-72237600D01*
X234078780Y-72237600D02*
X228998780Y-72237600D01*
X152798780Y-72237600D02*
X152798780Y-69697600D01*
X152798780Y-69697600D02*
X157878780Y-69697600D01*
X157878780Y-69697600D02*
X157878780Y-72237600D01*
X157878780Y-72237600D02*
X152798780Y-72237600D01*
X76598780Y-72237600D02*
X76598780Y-69697600D01*
X76598780Y-69697600D02*
X81678780Y-69697600D01*
X81678780Y-69697600D02*
X81678780Y-72237600D01*
X81678780Y-72237600D02*
X76598780Y-72237600D01*
X398780Y-72237600D02*
X398780Y-69697600D01*
X398780Y-69697600D02*
X5478780Y-69697600D01*
X5478780Y-69697600D02*
X5478780Y-72237600D01*
X5478780Y-72237600D02*
X398780Y-72237600D01*
D15*
X236512100Y-30975300D02*
X248539000Y-30975300D01*
X248539000Y-14719300D02*
X236512100Y-14719300D01*
X236512100Y-30975300D02*
X236512100Y-14719300D01*
X236512100Y-52311300D02*
X248539000Y-52311300D01*
X248539000Y-36055300D02*
X236512100Y-36055300D01*
X236512100Y-52311300D02*
X236512100Y-36055300D01*
X215353900Y-25831800D02*
X215353900Y-38531800D01*
X217893900Y-38531800D02*
X217893900Y-25831800D01*
X217893900Y-25831800D02*
X215353900Y-25831800D01*
X215353900Y-38531800D02*
X217893900Y-38531800D01*
D20*
X211772500Y-70345300D02*
X199072500Y-70345300D01*
X199072500Y-70345300D02*
X199072500Y-65265300D01*
X199072500Y-65265300D02*
X211772500Y-65265300D01*
X211772500Y-65265300D02*
X211772500Y-70345300D01*
D21*
X233927550Y-36091980D02*
G75*
G03X233927550Y-36091980I-159070J0D01*
G01*
X234627000Y-38538000D02*
X233611000Y-38538000D01*
X234627000Y-35934500D02*
X233611000Y-35934500D01*
X233611000Y-38538000D02*
X233611000Y-35934500D01*
X234627000Y-35934500D02*
X234627000Y-38538000D01*
X233727550Y-46891980D02*
G75*
G03X233727550Y-46891980I-159070J0D01*
G01*
X234427000Y-49338000D02*
X233411000Y-49338000D01*
X234427000Y-46734500D02*
X233411000Y-46734500D01*
X233411000Y-49338000D02*
X233411000Y-46734500D01*
X234427000Y-46734500D02*
X234427000Y-49338000D01*
X186409650Y-7066280D02*
G75*
G03X186409650Y-7066280I-159070J0D01*
G01*
X187109100Y-9512300D02*
X186093100Y-9512300D01*
X187109100Y-6908800D02*
X186093100Y-6908800D01*
X186093100Y-9512300D02*
X186093100Y-6908800D01*
X187109100Y-6908800D02*
X187109100Y-9512300D01*
D16*
X229285800Y-41427400D02*
X231571800Y-41427400D01*
X231571800Y-41427400D02*
X231571800Y-42697400D01*
X231571800Y-42697400D02*
X229285800Y-42697400D01*
X229285800Y-42697400D02*
X229285800Y-41427400D01*
X229276000Y-48433000D02*
X231562000Y-48433000D01*
X231562000Y-48433000D02*
X231562000Y-49703000D01*
X231562000Y-49703000D02*
X229276000Y-49703000D01*
X229276000Y-49703000D02*
X229276000Y-48433000D01*
D14*
X233511000Y-41130000D02*
X234527000Y-41130000D01*
X233511000Y-39606000D02*
X234552400Y-39606000D01*
X232495000Y-41130000D02*
G75*
G03X232495000Y-41130000I-127000J0D01*
G01*
X233511000Y-41130000D02*
X232495000Y-41130000D01*
X232495000Y-41130000D02*
X232495000Y-39606000D01*
X232495000Y-39606000D02*
X233511000Y-39606000D01*
X234527000Y-39606000D02*
X235543000Y-39606000D01*
X235543000Y-39606000D02*
X235543000Y-41130000D01*
X235543000Y-41130000D02*
X234527000Y-41130000D01*
X233411000Y-51830000D02*
X234427000Y-51830000D01*
X233411000Y-50306000D02*
X234452400Y-50306000D01*
X232395000Y-51830000D02*
G75*
G03X232395000Y-51830000I-127000J0D01*
G01*
X233411000Y-51830000D02*
X232395000Y-51830000D01*
X232395000Y-51830000D02*
X232395000Y-50306000D01*
X232395000Y-50306000D02*
X233411000Y-50306000D01*
X234427000Y-50306000D02*
X235443000Y-50306000D01*
X235443000Y-50306000D02*
X235443000Y-51830000D01*
X235443000Y-51830000D02*
X234427000Y-51830000D01*
X233511000Y-19030000D02*
X234527000Y-19030000D01*
X233511000Y-17506000D02*
X234552400Y-17506000D01*
X232495000Y-19030000D02*
G75*
G03X232495000Y-19030000I-127000J0D01*
G01*
X233511000Y-19030000D02*
X232495000Y-19030000D01*
X232495000Y-19030000D02*
X232495000Y-17506000D01*
X232495000Y-17506000D02*
X233511000Y-17506000D01*
X234527000Y-17506000D02*
X235543000Y-17506000D01*
X235543000Y-17506000D02*
X235543000Y-19030000D01*
X235543000Y-19030000D02*
X234527000Y-19030000D01*
X233511000Y-30430000D02*
X234527000Y-30430000D01*
X233511000Y-28906000D02*
X234552400Y-28906000D01*
X232495000Y-30430000D02*
G75*
G03X232495000Y-30430000I-127000J0D01*
G01*
X233511000Y-30430000D02*
X232495000Y-30430000D01*
X232495000Y-30430000D02*
X232495000Y-28906000D01*
X232495000Y-28906000D02*
X233511000Y-28906000D01*
X234527000Y-28906000D02*
X235543000Y-28906000D01*
X235543000Y-28906000D02*
X235543000Y-30430000D01*
X235543000Y-30430000D02*
X234527000Y-30430000D01*
D16*
X235983780Y-69824600D02*
X235983780Y-72110600D01*
X235983780Y-72110600D02*
X234713780Y-72110600D01*
X234713780Y-72110600D02*
X234713780Y-69824600D01*
X234713780Y-69824600D02*
X235983780Y-69824600D01*
X159809180Y-69824600D02*
X159809180Y-72110600D01*
X159809180Y-72110600D02*
X158539180Y-72110600D01*
X158539180Y-72110600D02*
X158539180Y-69824600D01*
X158539180Y-69824600D02*
X159809180Y-69824600D01*
X83609180Y-69824600D02*
X83609180Y-72110600D01*
X83609180Y-72110600D02*
X82339180Y-72110600D01*
X82339180Y-72110600D02*
X82339180Y-69824600D01*
X82339180Y-69824600D02*
X83609180Y-69824600D01*
X7409180Y-69824600D02*
X7409180Y-72110600D01*
X7409180Y-72110600D02*
X6139180Y-72110600D01*
X6139180Y-72110600D02*
X6139180Y-69824600D01*
X6139180Y-69824600D02*
X7409180Y-69824600D01*
D14*
X240639600Y-33769300D02*
X239623600Y-33769300D01*
X240639600Y-35293300D02*
X239598200Y-35293300D01*
X241909600Y-33769300D02*
G75*
G03X241909600Y-33769300I-127000J0D01*
G01*
X240639600Y-33769300D02*
X241655600Y-33769300D01*
X241655600Y-33769300D02*
X241655600Y-35293300D01*
X241655600Y-35293300D02*
X240639600Y-35293300D01*
X239623600Y-35293300D02*
X238607600Y-35293300D01*
X238607600Y-35293300D02*
X238607600Y-33769300D01*
X238607600Y-33769300D02*
X239623600Y-33769300D01*
X236829600Y-31737300D02*
X235813600Y-31737300D01*
X236829600Y-33261300D02*
X235788200Y-33261300D01*
X238099600Y-31737300D02*
G75*
G03X238099600Y-31737300I-127000J0D01*
G01*
X236829600Y-31737300D02*
X237845600Y-31737300D01*
X237845600Y-31737300D02*
X237845600Y-33261300D01*
X237845600Y-33261300D02*
X236829600Y-33261300D01*
X235813600Y-33261300D02*
X234797600Y-33261300D01*
X234797600Y-33261300D02*
X234797600Y-31737300D01*
X234797600Y-31737300D02*
X235813600Y-31737300D01*
X236829600Y-33769300D02*
X235813600Y-33769300D01*
X236829600Y-35293300D02*
X235788200Y-35293300D01*
X238099600Y-33769300D02*
G75*
G03X238099600Y-33769300I-127000J0D01*
G01*
X236829600Y-33769300D02*
X237845600Y-33769300D01*
X237845600Y-33769300D02*
X237845600Y-35293300D01*
X237845600Y-35293300D02*
X236829600Y-35293300D01*
X235813600Y-35293300D02*
X234797600Y-35293300D01*
X234797600Y-35293300D02*
X234797600Y-33769300D01*
X234797600Y-33769300D02*
X235813600Y-33769300D01*
D16*
X235305600Y-64008000D02*
X237591600Y-64008000D01*
X237591600Y-64008000D02*
X237591600Y-65278000D01*
X237591600Y-65278000D02*
X235305600Y-65278000D01*
X235305600Y-65278000D02*
X235305600Y-64008000D01*
X235305600Y-65913000D02*
X237591600Y-65913000D01*
X237591600Y-65913000D02*
X237591600Y-67183000D01*
X237591600Y-67183000D02*
X235305600Y-67183000D01*
X235305600Y-67183000D02*
X235305600Y-65913000D01*
X235305600Y-67818000D02*
X237591600Y-67818000D01*
X237591600Y-67818000D02*
X237591600Y-69088000D01*
X237591600Y-69088000D02*
X235305600Y-69088000D01*
X235305600Y-69088000D02*
X235305600Y-67818000D01*
X161391600Y-65278000D02*
X159105600Y-65278000D01*
X159105600Y-65278000D02*
X159105600Y-64008000D01*
X159105600Y-64008000D02*
X161391600Y-64008000D01*
X161391600Y-64008000D02*
X161391600Y-65278000D01*
X161391600Y-67183000D02*
X159105600Y-67183000D01*
X159105600Y-67183000D02*
X159105600Y-65913000D01*
X159105600Y-65913000D02*
X161391600Y-65913000D01*
X161391600Y-65913000D02*
X161391600Y-67183000D01*
X161391600Y-69088000D02*
X159105600Y-69088000D01*
X159105600Y-69088000D02*
X159105600Y-67818000D01*
X159105600Y-67818000D02*
X161391600Y-67818000D01*
X161391600Y-67818000D02*
X161391600Y-69088000D01*
X85191600Y-65278000D02*
X82905600Y-65278000D01*
X82905600Y-65278000D02*
X82905600Y-64008000D01*
X82905600Y-64008000D02*
X85191600Y-64008000D01*
X85191600Y-64008000D02*
X85191600Y-65278000D01*
X85191600Y-67183000D02*
X82905600Y-67183000D01*
X82905600Y-67183000D02*
X82905600Y-65913000D01*
X82905600Y-65913000D02*
X85191600Y-65913000D01*
X85191600Y-65913000D02*
X85191600Y-67183000D01*
X85191600Y-69088000D02*
X82905600Y-69088000D01*
X82905600Y-69088000D02*
X82905600Y-67818000D01*
X82905600Y-67818000D02*
X85191600Y-67818000D01*
X85191600Y-67818000D02*
X85191600Y-69088000D01*
X9017000Y-65278000D02*
X6731000Y-65278000D01*
X6731000Y-65278000D02*
X6731000Y-64008000D01*
X6731000Y-64008000D02*
X9017000Y-64008000D01*
X9017000Y-64008000D02*
X9017000Y-65278000D01*
X9017000Y-67183000D02*
X6731000Y-67183000D01*
X6731000Y-67183000D02*
X6731000Y-65913000D01*
X6731000Y-65913000D02*
X9017000Y-65913000D01*
X9017000Y-65913000D02*
X9017000Y-67183000D01*
X9017000Y-69088000D02*
X6731000Y-69088000D01*
X6731000Y-69088000D02*
X6731000Y-67818000D01*
X6731000Y-67818000D02*
X9017000Y-67818000D01*
X9017000Y-67818000D02*
X9017000Y-69088000D01*
D14*
X199961500Y-25781000D02*
X200977500Y-25781000D01*
X199961500Y-24257000D02*
X201002900Y-24257000D01*
X198945500Y-25781000D02*
G75*
G03X198945500Y-25781000I-127000J0D01*
G01*
X199961500Y-25781000D02*
X198945500Y-25781000D01*
X198945500Y-25781000D02*
X198945500Y-24257000D01*
X198945500Y-24257000D02*
X199961500Y-24257000D01*
X200977500Y-24257000D02*
X201993500Y-24257000D01*
X201993500Y-24257000D02*
X201993500Y-25781000D01*
X201993500Y-25781000D02*
X200977500Y-25781000D01*
D16*
X229082600Y-29959300D02*
X229082600Y-32245300D01*
X229082600Y-32245300D02*
X227812600Y-32245300D01*
X227812600Y-32245300D02*
X227812600Y-29959300D01*
X227812600Y-29959300D02*
X229082600Y-29959300D01*
X228828600Y-39484300D02*
X226542600Y-39484300D01*
X226542600Y-39484300D02*
X226542600Y-38214300D01*
X226542600Y-38214300D02*
X228828600Y-38214300D01*
X228828600Y-38214300D02*
X228828600Y-39484300D01*
X223621600Y-39484300D02*
X221335600Y-39484300D01*
X221335600Y-39484300D02*
X221335600Y-38214300D01*
X221335600Y-38214300D02*
X223621600Y-38214300D01*
X223621600Y-38214300D02*
X223621600Y-39484300D01*
X220446600Y-28105100D02*
X220446600Y-30391100D01*
X220446600Y-30391100D02*
X219176600Y-30391100D01*
X219176600Y-30391100D02*
X219176600Y-28105100D01*
X219176600Y-28105100D02*
X220446600Y-28105100D01*
X223621600Y-41325800D02*
X221335600Y-41325800D01*
X221335600Y-41325800D02*
X221335600Y-40055800D01*
X221335600Y-40055800D02*
X223621600Y-40055800D01*
X223621600Y-40055800D02*
X223621600Y-41325800D01*
X202488800Y-36588700D02*
X200202800Y-36588700D01*
X200202800Y-36588700D02*
X200202800Y-35318700D01*
X200202800Y-35318700D02*
X202488800Y-35318700D01*
X202488800Y-35318700D02*
X202488800Y-36588700D01*
X202501500Y-39890700D02*
X200215500Y-39890700D01*
X200215500Y-39890700D02*
X200215500Y-38620700D01*
X200215500Y-38620700D02*
X202501500Y-38620700D01*
X202501500Y-38620700D02*
X202501500Y-39890700D01*
D14*
X225311000Y-4080000D02*
X226327000Y-4080000D01*
X225311000Y-2556000D02*
X226352400Y-2556000D01*
X224295000Y-4080000D02*
G75*
G03X224295000Y-4080000I-127000J0D01*
G01*
X225311000Y-4080000D02*
X224295000Y-4080000D01*
X224295000Y-4080000D02*
X224295000Y-2556000D01*
X224295000Y-2556000D02*
X225311000Y-2556000D01*
X226327000Y-2556000D02*
X227343000Y-2556000D01*
X227343000Y-2556000D02*
X227343000Y-4080000D01*
X227343000Y-4080000D02*
X226327000Y-4080000D01*
X223411000Y-2180000D02*
X224427000Y-2180000D01*
X223411000Y-656000D02*
X224452400Y-656000D01*
X222395000Y-2180000D02*
G75*
G03X222395000Y-2180000I-127000J0D01*
G01*
X223411000Y-2180000D02*
X222395000Y-2180000D01*
X222395000Y-2180000D02*
X222395000Y-656000D01*
X222395000Y-656000D02*
X223411000Y-656000D01*
X224427000Y-656000D02*
X225443000Y-656000D01*
X225443000Y-656000D02*
X225443000Y-2180000D01*
X225443000Y-2180000D02*
X224427000Y-2180000D01*
D16*
X184886600Y-12687300D02*
X184886600Y-10401300D01*
X184886600Y-10401300D02*
X186156600Y-10401300D01*
X186156600Y-10401300D02*
X186156600Y-12687300D01*
X186156600Y-12687300D02*
X184886600Y-12687300D01*
D14*
X189865000Y-6858000D02*
X190881000Y-6858000D01*
X189865000Y-5334000D02*
X190906400Y-5334000D01*
X188849000Y-6858000D02*
G75*
G03X188849000Y-6858000I-127000J0D01*
G01*
X189865000Y-6858000D02*
X188849000Y-6858000D01*
X188849000Y-6858000D02*
X188849000Y-5334000D01*
X188849000Y-5334000D02*
X189865000Y-5334000D01*
X190881000Y-5334000D02*
X191897000Y-5334000D01*
X191897000Y-5334000D02*
X191897000Y-6858000D01*
X191897000Y-6858000D02*
X190881000Y-6858000D01*
X222123000Y-12039600D02*
X223139000Y-12039600D01*
X222123000Y-10515600D02*
X223164400Y-10515600D01*
X221107000Y-12039600D02*
G75*
G03X221107000Y-12039600I-127000J0D01*
G01*
X222123000Y-12039600D02*
X221107000Y-12039600D01*
X221107000Y-12039600D02*
X221107000Y-10515600D01*
X221107000Y-10515600D02*
X222123000Y-10515600D01*
X223139000Y-10515600D02*
X224155000Y-10515600D01*
X224155000Y-10515600D02*
X224155000Y-12039600D01*
X224155000Y-12039600D02*
X223139000Y-12039600D01*
X214223600Y-67983100D02*
X214223600Y-66967100D01*
X212699600Y-67983100D02*
X212699600Y-66941700D01*
X214350600Y-69126100D02*
G75*
G03X214350600Y-69126100I-127000J0D01*
G01*
X214223600Y-67983100D02*
X214223600Y-68999100D01*
X214223600Y-68999100D02*
X212699600Y-68999100D01*
X212699600Y-68999100D02*
X212699600Y-67983100D01*
X212699600Y-66967100D02*
X212699600Y-65951100D01*
X212699600Y-65951100D02*
X214223600Y-65951100D01*
X214223600Y-65951100D02*
X214223600Y-66967100D01*
D16*
X209829400Y-58877200D02*
X209829400Y-61163200D01*
X209829400Y-61163200D02*
X208559400Y-61163200D01*
X208559400Y-61163200D02*
X208559400Y-58877200D01*
X208559400Y-58877200D02*
X209829400Y-58877200D01*
X207314800Y-58877200D02*
X207314800Y-61163200D01*
X207314800Y-61163200D02*
X206044800Y-61163200D01*
X206044800Y-61163200D02*
X206044800Y-58877200D01*
X206044800Y-58877200D02*
X207314800Y-58877200D01*
D15*
X230588000Y-12024000D02*
X230588000Y-16424000D01*
X230588000Y-16424000D02*
X225088000Y-16424000D01*
X225088000Y-16424000D02*
X225088000Y-12024000D01*
X225088000Y-12024000D02*
X230588000Y-12024000D01*
D22*
X192405000Y-9906000D02*
X189865000Y-9906000D01*
X192405000Y-12446000D02*
X189865000Y-12446000D01*
D20*
X192405000Y-9906000D02*
X192405000Y-12446000D01*
X189865000Y-12446000D02*
X189865000Y-9906000D01*
D22*
X213029800Y-7747000D02*
X210489800Y-7747000D01*
X213029800Y-10287000D02*
X210489800Y-10287000D01*
D20*
X213029800Y-7747000D02*
X213029800Y-10287000D01*
X210489800Y-10287000D02*
X210489800Y-7747000D01*
D22*
X244119400Y-58470800D02*
X246659400Y-58470800D01*
X244119400Y-55930800D02*
X246659400Y-55930800D01*
D20*
X244119400Y-58470800D02*
X244119400Y-55930800D01*
X246659400Y-55930800D02*
X246659400Y-58470800D01*
D16*
X201967742Y-42344340D02*
G75*
G03X201967742Y-42344340I-279042J0D01*
G01*
X202008740Y-41777920D02*
X195729860Y-41777920D01*
X195729860Y-41777920D02*
X195422520Y-42085260D01*
X195422520Y-42085260D02*
X195422520Y-48364140D01*
X195422520Y-48364140D02*
X195729860Y-48671480D01*
X195729860Y-48671480D02*
X202008740Y-48671480D01*
X202008740Y-48671480D02*
X202316080Y-48364140D01*
X202316080Y-48364140D02*
X202316080Y-42085260D01*
X202316080Y-42085260D02*
X202008740Y-41777920D01*
D23*
X214833200Y-22250400D02*
X208432400Y-22250400D01*
X208432400Y-22250400D02*
X208432400Y-16052800D01*
X208432400Y-16052800D02*
X208432400Y-15849600D01*
X208432400Y-15849600D02*
X214807800Y-15849600D01*
X220421200Y-22250400D02*
X220421200Y-15849600D01*
X220421200Y-15849600D02*
X214833200Y-15849600D01*
X214833200Y-15849600D02*
X214833200Y-22250400D01*
X214833200Y-22250400D02*
X220421200Y-22250400D01*
X214833200Y-22047200D02*
X214833200Y-16078200D01*
X198907400Y-22250400D02*
X192506600Y-22250400D01*
X192506600Y-22250400D02*
X192506600Y-16052800D01*
X192506600Y-16052800D02*
X192506600Y-15849600D01*
X192506600Y-15849600D02*
X198882000Y-15849600D01*
X204495400Y-22250400D02*
X204495400Y-15849600D01*
X204495400Y-15849600D02*
X198907400Y-15849600D01*
X198907400Y-15849600D02*
X198907400Y-22250400D01*
X198907400Y-22250400D02*
X204495400Y-22250400D01*
X198907400Y-22047200D02*
X198907400Y-16078200D01*
D16*
X220700600Y-30848300D02*
X220573600Y-30848300D01*
X220573600Y-30848300D02*
X220573600Y-36182300D01*
X224383600Y-36182300D02*
X224383600Y-30848300D01*
X224383600Y-30848300D02*
X220700600Y-30848300D01*
X222986600Y-30848300D02*
X222986600Y-31356300D01*
X222986600Y-31356300D02*
X221970600Y-31356300D01*
X221970600Y-31356300D02*
X221970600Y-30848300D01*
X224383600Y-36182300D02*
X220573600Y-36182300D01*
X175461400Y-6527800D02*
X175461400Y-11099800D01*
X182065400Y-11099800D02*
X182065400Y-6527800D01*
X175554381Y-11297800D02*
G75*
G03X175554381Y-11297800I-283981J0D01*
G01*
X166190400Y-6527800D02*
X166190400Y-11099800D01*
X172794400Y-11099800D02*
X172794400Y-6527800D01*
X166283381Y-11297800D02*
G75*
G03X166283381Y-11297800I-283981J0D01*
G01*
D10*
X192519300Y-29667200D02*
X192519300Y-30759400D01*
X205244700Y-33401000D02*
X205244700Y-34493200D01*
X205244700Y-34493200D02*
X192519300Y-34493200D01*
X192519300Y-34493200D02*
X192519300Y-33401000D01*
X192519300Y-29667200D02*
X205219300Y-29667200D01*
X205219300Y-29667200D02*
X205219300Y-30759400D01*
X227768667Y-19414857D02*
X227720286Y-19463238D01*
X227575143Y-19511619D01*
X227478381Y-19511619D01*
X227333239Y-19463238D01*
X227236477Y-19366476D01*
X227188096Y-19269714D01*
X227139715Y-19076190D01*
X227139715Y-18931048D01*
X227188096Y-18737524D01*
X227236477Y-18640762D01*
X227333239Y-18544000D01*
X227478381Y-18495619D01*
X227575143Y-18495619D01*
X227720286Y-18544000D01*
X227768667Y-18592381D01*
X228736286Y-19511619D02*
X228155715Y-19511619D01*
X228446001Y-19511619D02*
X228446001Y-18495619D01*
X228349239Y-18640762D01*
X228252477Y-18737524D01*
X228155715Y-18785905D01*
X231372834Y-20953186D02*
X231334129Y-20991890D01*
X231218015Y-21030595D01*
X231140605Y-21030595D01*
X231024491Y-20991890D01*
X230947082Y-20914481D01*
X230908377Y-20837071D01*
X230869672Y-20682252D01*
X230869672Y-20566138D01*
X230908377Y-20411319D01*
X230947082Y-20333910D01*
X231024491Y-20256500D01*
X231140605Y-20217795D01*
X231218015Y-20217795D01*
X231334129Y-20256500D01*
X231372834Y-20295205D01*
X231682472Y-20295205D02*
X231721177Y-20256500D01*
X231798586Y-20217795D01*
X231992110Y-20217795D01*
X232069520Y-20256500D01*
X232108224Y-20295205D01*
X232146929Y-20372614D01*
X232146929Y-20450024D01*
X232108224Y-20566138D01*
X231643767Y-21030595D01*
X232146929Y-21030595D01*
X217967467Y-13949857D02*
X217919086Y-13998238D01*
X217773943Y-14046619D01*
X217677181Y-14046619D01*
X217532039Y-13998238D01*
X217435277Y-13901476D01*
X217386896Y-13804714D01*
X217338515Y-13611190D01*
X217338515Y-13466048D01*
X217386896Y-13272524D01*
X217435277Y-13175762D01*
X217532039Y-13079000D01*
X217677181Y-13030619D01*
X217773943Y-13030619D01*
X217919086Y-13079000D01*
X217967467Y-13127381D01*
X218306134Y-13030619D02*
X218935086Y-13030619D01*
X218596420Y-13417667D01*
X218741562Y-13417667D01*
X218838324Y-13466048D01*
X218886705Y-13514429D01*
X218935086Y-13611190D01*
X218935086Y-13853095D01*
X218886705Y-13949857D01*
X218838324Y-13998238D01*
X218741562Y-14046619D01*
X218451277Y-14046619D01*
X218354515Y-13998238D01*
X218306134Y-13949857D01*
X214304034Y-10996386D02*
X214265329Y-11035090D01*
X214149215Y-11073795D01*
X214071805Y-11073795D01*
X213955691Y-11035090D01*
X213878282Y-10957681D01*
X213839577Y-10880271D01*
X213800872Y-10725452D01*
X213800872Y-10609338D01*
X213839577Y-10454519D01*
X213878282Y-10377110D01*
X213955691Y-10299700D01*
X214071805Y-10260995D01*
X214149215Y-10260995D01*
X214265329Y-10299700D01*
X214304034Y-10338405D01*
X215000720Y-10531929D02*
X215000720Y-11073795D01*
X214807196Y-10222290D02*
X214613672Y-10802862D01*
X215116834Y-10802862D01*
X243673086Y-33688866D02*
X243711790Y-33727571D01*
X243750495Y-33843685D01*
X243750495Y-33921095D01*
X243711790Y-34037209D01*
X243634381Y-34114618D01*
X243556971Y-34153323D01*
X243402152Y-34192028D01*
X243286038Y-34192028D01*
X243131219Y-34153323D01*
X243053810Y-34114618D01*
X242976400Y-34037209D01*
X242937695Y-33921095D01*
X242937695Y-33843685D01*
X242976400Y-33727571D01*
X243015105Y-33688866D01*
X242937695Y-32953476D02*
X242937695Y-33340523D01*
X243324743Y-33379228D01*
X243286038Y-33340523D01*
X243247333Y-33263114D01*
X243247333Y-33069590D01*
X243286038Y-32992180D01*
X243324743Y-32953476D01*
X243402152Y-32914771D01*
X243595676Y-32914771D01*
X243673086Y-32953476D01*
X243711790Y-32992180D01*
X243750495Y-33069590D01*
X243750495Y-33263114D01*
X243711790Y-33340523D01*
X243673086Y-33379228D01*
X195437667Y-13822857D02*
X195389286Y-13871238D01*
X195244143Y-13919619D01*
X195147381Y-13919619D01*
X195002239Y-13871238D01*
X194905477Y-13774476D01*
X194857096Y-13677714D01*
X194808715Y-13484190D01*
X194808715Y-13339048D01*
X194857096Y-13145524D01*
X194905477Y-13048762D01*
X195002239Y-12952000D01*
X195147381Y-12903619D01*
X195244143Y-12903619D01*
X195389286Y-12952000D01*
X195437667Y-13000381D01*
X196308524Y-12903619D02*
X196115001Y-12903619D01*
X196018239Y-12952000D01*
X195969858Y-13000381D01*
X195873096Y-13145524D01*
X195824715Y-13339048D01*
X195824715Y-13726095D01*
X195873096Y-13822857D01*
X195921477Y-13871238D01*
X196018239Y-13919619D01*
X196211762Y-13919619D01*
X196308524Y-13871238D01*
X196356905Y-13822857D01*
X196405286Y-13726095D01*
X196405286Y-13484190D01*
X196356905Y-13387429D01*
X196308524Y-13339048D01*
X196211762Y-13290667D01*
X196018239Y-13290667D01*
X195921477Y-13339048D01*
X195873096Y-13387429D01*
X195824715Y-13484190D01*
X199521234Y-12139386D02*
X199482529Y-12178090D01*
X199366415Y-12216795D01*
X199289005Y-12216795D01*
X199172891Y-12178090D01*
X199095482Y-12100681D01*
X199056777Y-12023271D01*
X199018072Y-11868452D01*
X199018072Y-11752338D01*
X199056777Y-11597519D01*
X199095482Y-11520110D01*
X199172891Y-11442700D01*
X199289005Y-11403995D01*
X199366415Y-11403995D01*
X199482529Y-11442700D01*
X199521234Y-11481405D01*
X199792167Y-11403995D02*
X200334034Y-11403995D01*
X199985691Y-12216795D01*
X225035534Y-31227486D02*
X224996829Y-31266190D01*
X224880715Y-31304895D01*
X224803305Y-31304895D01*
X224687191Y-31266190D01*
X224609782Y-31188781D01*
X224571077Y-31111371D01*
X224532372Y-30956552D01*
X224532372Y-30840438D01*
X224571077Y-30685619D01*
X224609782Y-30608210D01*
X224687191Y-30530800D01*
X224803305Y-30492095D01*
X224880715Y-30492095D01*
X224996829Y-30530800D01*
X225035534Y-30569505D01*
X225499991Y-30840438D02*
X225422582Y-30801733D01*
X225383877Y-30763029D01*
X225345172Y-30685619D01*
X225345172Y-30646914D01*
X225383877Y-30569505D01*
X225422582Y-30530800D01*
X225499991Y-30492095D01*
X225654810Y-30492095D01*
X225732220Y-30530800D01*
X225770924Y-30569505D01*
X225809629Y-30646914D01*
X225809629Y-30685619D01*
X225770924Y-30763029D01*
X225732220Y-30801733D01*
X225654810Y-30840438D01*
X225499991Y-30840438D01*
X225422582Y-30879143D01*
X225383877Y-30917848D01*
X225345172Y-30995257D01*
X225345172Y-31150076D01*
X225383877Y-31227486D01*
X225422582Y-31266190D01*
X225499991Y-31304895D01*
X225654810Y-31304895D01*
X225732220Y-31266190D01*
X225770924Y-31227486D01*
X225809629Y-31150076D01*
X225809629Y-30995257D01*
X225770924Y-30917848D01*
X225732220Y-30879143D01*
X225654810Y-30840438D01*
X199959686Y-37752866D02*
X199998390Y-37791571D01*
X200037095Y-37907685D01*
X200037095Y-37985095D01*
X199998390Y-38101209D01*
X199920981Y-38178618D01*
X199843571Y-38217323D01*
X199688752Y-38256028D01*
X199572638Y-38256028D01*
X199417819Y-38217323D01*
X199340410Y-38178618D01*
X199263000Y-38101209D01*
X199224295Y-37985095D01*
X199224295Y-37907685D01*
X199263000Y-37791571D01*
X199301705Y-37752866D01*
X200037095Y-37365818D02*
X200037095Y-37210999D01*
X199998390Y-37133590D01*
X199959686Y-37094885D01*
X199843571Y-37017476D01*
X199688752Y-36978771D01*
X199379114Y-36978771D01*
X199301705Y-37017476D01*
X199263000Y-37056180D01*
X199224295Y-37133590D01*
X199224295Y-37288409D01*
X199263000Y-37365818D01*
X199301705Y-37404523D01*
X199379114Y-37443228D01*
X199572638Y-37443228D01*
X199650048Y-37404523D01*
X199688752Y-37365818D01*
X199727457Y-37288409D01*
X199727457Y-37133590D01*
X199688752Y-37056180D01*
X199650048Y-37017476D01*
X199572638Y-36978771D01*
X207338386Y-29919386D02*
X207299681Y-29958090D01*
X207183567Y-29996795D01*
X207106157Y-29996795D01*
X206990043Y-29958090D01*
X206912634Y-29880681D01*
X206873929Y-29803271D01*
X206835224Y-29648452D01*
X206835224Y-29532338D01*
X206873929Y-29377519D01*
X206912634Y-29300110D01*
X206990043Y-29222700D01*
X207106157Y-29183995D01*
X207183567Y-29183995D01*
X207299681Y-29222700D01*
X207338386Y-29261405D01*
X208112481Y-29996795D02*
X207648024Y-29996795D01*
X207880253Y-29996795D02*
X207880253Y-29183995D01*
X207802843Y-29300110D01*
X207725434Y-29377519D01*
X207648024Y-29416224D01*
X208615643Y-29183995D02*
X208693052Y-29183995D01*
X208770462Y-29222700D01*
X208809167Y-29261405D01*
X208847871Y-29338814D01*
X208886576Y-29493633D01*
X208886576Y-29687157D01*
X208847871Y-29841976D01*
X208809167Y-29919386D01*
X208770462Y-29958090D01*
X208693052Y-29996795D01*
X208615643Y-29996795D01*
X208538233Y-29958090D01*
X208499529Y-29919386D01*
X208460824Y-29841976D01*
X208422119Y-29687157D01*
X208422119Y-29493633D01*
X208460824Y-29338814D01*
X208499529Y-29261405D01*
X208538233Y-29222700D01*
X208615643Y-29183995D01*
X189317086Y-29919386D02*
X189278381Y-29958090D01*
X189162267Y-29996795D01*
X189084857Y-29996795D01*
X188968743Y-29958090D01*
X188891334Y-29880681D01*
X188852629Y-29803271D01*
X188813924Y-29648452D01*
X188813924Y-29532338D01*
X188852629Y-29377519D01*
X188891334Y-29300110D01*
X188968743Y-29222700D01*
X189084857Y-29183995D01*
X189162267Y-29183995D01*
X189278381Y-29222700D01*
X189317086Y-29261405D01*
X190091181Y-29996795D02*
X189626724Y-29996795D01*
X189858953Y-29996795D02*
X189858953Y-29183995D01*
X189781543Y-29300110D01*
X189704134Y-29377519D01*
X189626724Y-29416224D01*
X190865276Y-29996795D02*
X190400819Y-29996795D01*
X190633048Y-29996795D02*
X190633048Y-29183995D01*
X190555638Y-29300110D01*
X190478229Y-29377519D01*
X190400819Y-29416224D01*
X198943686Y-38127214D02*
X198982390Y-38165919D01*
X199021095Y-38282033D01*
X199021095Y-38359443D01*
X198982390Y-38475557D01*
X198904981Y-38552966D01*
X198827571Y-38591671D01*
X198672752Y-38630376D01*
X198556638Y-38630376D01*
X198401819Y-38591671D01*
X198324410Y-38552966D01*
X198247000Y-38475557D01*
X198208295Y-38359443D01*
X198208295Y-38282033D01*
X198247000Y-38165919D01*
X198285705Y-38127214D01*
X199021095Y-37353119D02*
X199021095Y-37817576D01*
X199021095Y-37585347D02*
X198208295Y-37585347D01*
X198324410Y-37662757D01*
X198401819Y-37740166D01*
X198440524Y-37817576D01*
X198285705Y-37043481D02*
X198247000Y-37004776D01*
X198208295Y-36927367D01*
X198208295Y-36733843D01*
X198247000Y-36656433D01*
X198285705Y-36617729D01*
X198363114Y-36579024D01*
X198440524Y-36579024D01*
X198556638Y-36617729D01*
X199021095Y-37082186D01*
X199021095Y-36579024D01*
X204379286Y-45010614D02*
X204417990Y-45049319D01*
X204456695Y-45165433D01*
X204456695Y-45242843D01*
X204417990Y-45358957D01*
X204340581Y-45436366D01*
X204263171Y-45475071D01*
X204108352Y-45513776D01*
X203992238Y-45513776D01*
X203837419Y-45475071D01*
X203760010Y-45436366D01*
X203682600Y-45358957D01*
X203643895Y-45242843D01*
X203643895Y-45165433D01*
X203682600Y-45049319D01*
X203721305Y-45010614D01*
X204456695Y-44236519D02*
X204456695Y-44700976D01*
X204456695Y-44468747D02*
X203643895Y-44468747D01*
X203760010Y-44546157D01*
X203837419Y-44623566D01*
X203876124Y-44700976D01*
X203643895Y-43965586D02*
X203643895Y-43462424D01*
X203953533Y-43733357D01*
X203953533Y-43617243D01*
X203992238Y-43539833D01*
X204030943Y-43501129D01*
X204108352Y-43462424D01*
X204301876Y-43462424D01*
X204379286Y-43501129D01*
X204417990Y-43539833D01*
X204456695Y-43617243D01*
X204456695Y-43849471D01*
X204417990Y-43926881D01*
X204379286Y-43965586D01*
X173607186Y-8710386D02*
X173568481Y-8749090D01*
X173452367Y-8787795D01*
X173374957Y-8787795D01*
X173258843Y-8749090D01*
X173181434Y-8671681D01*
X173142729Y-8594271D01*
X173104024Y-8439452D01*
X173104024Y-8323338D01*
X173142729Y-8168519D01*
X173181434Y-8091110D01*
X173258843Y-8013700D01*
X173374957Y-7974995D01*
X173452367Y-7974995D01*
X173568481Y-8013700D01*
X173607186Y-8052405D01*
X174381281Y-8787795D02*
X173916824Y-8787795D01*
X174149053Y-8787795D02*
X174149053Y-7974995D01*
X174071643Y-8091110D01*
X173994234Y-8168519D01*
X173916824Y-8207224D01*
X175077967Y-8245929D02*
X175077967Y-8787795D01*
X174884443Y-7936290D02*
X174690919Y-8516862D01*
X175194081Y-8516862D01*
X164336186Y-8710386D02*
X164297481Y-8749090D01*
X164181367Y-8787795D01*
X164103957Y-8787795D01*
X163987843Y-8749090D01*
X163910434Y-8671681D01*
X163871729Y-8594271D01*
X163833024Y-8439452D01*
X163833024Y-8323338D01*
X163871729Y-8168519D01*
X163910434Y-8091110D01*
X163987843Y-8013700D01*
X164103957Y-7974995D01*
X164181367Y-7974995D01*
X164297481Y-8013700D01*
X164336186Y-8052405D01*
X165110281Y-8787795D02*
X164645824Y-8787795D01*
X164878053Y-8787795D02*
X164878053Y-7974995D01*
X164800643Y-8091110D01*
X164723234Y-8168519D01*
X164645824Y-8207224D01*
X165845671Y-7974995D02*
X165458624Y-7974995D01*
X165419919Y-8362043D01*
X165458624Y-8323338D01*
X165536033Y-8284633D01*
X165729557Y-8284633D01*
X165806967Y-8323338D01*
X165845671Y-8362043D01*
X165884376Y-8439452D01*
X165884376Y-8632976D01*
X165845671Y-8710386D01*
X165806967Y-8749090D01*
X165729557Y-8787795D01*
X165536033Y-8787795D01*
X165458624Y-8749090D01*
X165419919Y-8710386D01*
X227567857Y-3093143D02*
X227616238Y-3141524D01*
X227664619Y-3286667D01*
X227664619Y-3383429D01*
X227616238Y-3528571D01*
X227519476Y-3625333D01*
X227422714Y-3673714D01*
X227229190Y-3722095D01*
X227084048Y-3722095D01*
X226890524Y-3673714D01*
X226793762Y-3625333D01*
X226697000Y-3528571D01*
X226648619Y-3383429D01*
X226648619Y-3286667D01*
X226697000Y-3141524D01*
X226745381Y-3093143D01*
X227664619Y-2125524D02*
X227664619Y-2706095D01*
X227664619Y-2415809D02*
X226648619Y-2415809D01*
X226793762Y-2512571D01*
X226890524Y-2609333D01*
X226938905Y-2706095D01*
X226648619Y-1254667D02*
X226648619Y-1448190D01*
X226697000Y-1544952D01*
X226745381Y-1593333D01*
X226890524Y-1690095D01*
X227084048Y-1738476D01*
X227471095Y-1738476D01*
X227567857Y-1690095D01*
X227616238Y-1641714D01*
X227664619Y-1544952D01*
X227664619Y-1351429D01*
X227616238Y-1254667D01*
X227567857Y-1206286D01*
X227471095Y-1157905D01*
X227229190Y-1157905D01*
X227132429Y-1206286D01*
X227084048Y-1254667D01*
X227035667Y-1351429D01*
X227035667Y-1544952D01*
X227084048Y-1641714D01*
X227132429Y-1690095D01*
X227229190Y-1738476D01*
X233551186Y-1551214D02*
X233589890Y-1589919D01*
X233628595Y-1706033D01*
X233628595Y-1783443D01*
X233589890Y-1899557D01*
X233512481Y-1976966D01*
X233435071Y-2015671D01*
X233280252Y-2054376D01*
X233164138Y-2054376D01*
X233009319Y-2015671D01*
X232931910Y-1976966D01*
X232854500Y-1899557D01*
X232815795Y-1783443D01*
X232815795Y-1706033D01*
X232854500Y-1589919D01*
X232893205Y-1551214D01*
X233628595Y-777119D02*
X233628595Y-1241576D01*
X233628595Y-1009347D02*
X232815795Y-1009347D01*
X232931910Y-1086757D01*
X233009319Y-1164166D01*
X233048024Y-1241576D01*
X232815795Y-506186D02*
X232815795Y35681D01*
X233628595Y-312662D01*
X233211096Y-13881619D02*
X233211096Y-12865619D01*
X233453001Y-12865619D01*
X233598143Y-12914000D01*
X233694905Y-13010762D01*
X233743286Y-13107524D01*
X233791667Y-13301048D01*
X233791667Y-13446190D01*
X233743286Y-13639714D01*
X233694905Y-13736476D01*
X233598143Y-13833238D01*
X233453001Y-13881619D01*
X233211096Y-13881619D01*
X234759286Y-13881619D02*
X234178715Y-13881619D01*
X234469001Y-13881619D02*
X234469001Y-12865619D01*
X234372239Y-13010762D01*
X234275477Y-13107524D01*
X234178715Y-13155905D01*
X232577519Y-37567204D02*
X231561519Y-37567204D01*
X231561519Y-37325299D01*
X231609900Y-37180157D01*
X231706662Y-37083395D01*
X231803424Y-37035014D01*
X231996948Y-36986633D01*
X232142090Y-36986633D01*
X232335614Y-37035014D01*
X232432376Y-37083395D01*
X232529138Y-37180157D01*
X232577519Y-37325299D01*
X232577519Y-37567204D01*
X231658281Y-36599585D02*
X231609900Y-36551204D01*
X231561519Y-36454442D01*
X231561519Y-36212538D01*
X231609900Y-36115776D01*
X231658281Y-36067395D01*
X231755043Y-36019014D01*
X231851805Y-36019014D01*
X231996948Y-36067395D01*
X232577519Y-36647966D01*
X232577519Y-36019014D01*
X229681919Y-30963204D02*
X228665919Y-30963204D01*
X228665919Y-30721299D01*
X228714300Y-30576157D01*
X228811062Y-30479395D01*
X228907824Y-30431014D01*
X229101348Y-30382633D01*
X229246490Y-30382633D01*
X229440014Y-30431014D01*
X229536776Y-30479395D01*
X229633538Y-30576157D01*
X229681919Y-30721299D01*
X229681919Y-30963204D01*
X228665919Y-30043966D02*
X228665919Y-29415014D01*
X229052967Y-29753680D01*
X229052967Y-29608538D01*
X229101348Y-29511776D01*
X229149729Y-29463395D01*
X229246490Y-29415014D01*
X229488395Y-29415014D01*
X229585157Y-29463395D01*
X229633538Y-29511776D01*
X229681919Y-29608538D01*
X229681919Y-29898823D01*
X229633538Y-29995585D01*
X229585157Y-30043966D01*
X227873077Y-34403695D02*
X227873077Y-33590895D01*
X228066601Y-33590895D01*
X228182715Y-33629600D01*
X228260124Y-33707010D01*
X228298829Y-33784419D01*
X228337534Y-33939238D01*
X228337534Y-34055352D01*
X228298829Y-34210171D01*
X228260124Y-34287581D01*
X228182715Y-34364990D01*
X228066601Y-34403695D01*
X227873077Y-34403695D01*
X229034220Y-33861829D02*
X229034220Y-34403695D01*
X228840696Y-33552190D02*
X228647172Y-34132762D01*
X229150334Y-34132762D01*
X230106704Y-72865343D02*
X229835771Y-72865343D01*
X229835771Y-73291095D02*
X229835771Y-72478295D01*
X230222818Y-72478295D01*
X230687276Y-72478295D02*
X230842095Y-72478295D01*
X230919504Y-72517000D01*
X230996914Y-72594410D01*
X231035619Y-72749229D01*
X231035619Y-73020162D01*
X230996914Y-73174981D01*
X230919504Y-73252390D01*
X230842095Y-73291095D01*
X230687276Y-73291095D01*
X230609866Y-73252390D01*
X230532457Y-73174981D01*
X230493752Y-73020162D01*
X230493752Y-72749229D01*
X230532457Y-72594410D01*
X230609866Y-72517000D01*
X230687276Y-72478295D01*
X231538781Y-72478295D02*
X231693600Y-72478295D01*
X231771009Y-72517000D01*
X231848419Y-72594410D01*
X231887124Y-72749229D01*
X231887124Y-73020162D01*
X231848419Y-73174981D01*
X231771009Y-73252390D01*
X231693600Y-73291095D01*
X231538781Y-73291095D01*
X231461371Y-73252390D01*
X231383962Y-73174981D01*
X231345257Y-73020162D01*
X231345257Y-72749229D01*
X231383962Y-72594410D01*
X231461371Y-72517000D01*
X231538781Y-72478295D01*
X232119353Y-72478295D02*
X232583810Y-72478295D01*
X232351581Y-73291095D02*
X232351581Y-72478295D01*
X233280495Y-73291095D02*
X232816038Y-73291095D01*
X233048267Y-73291095D02*
X233048267Y-72478295D01*
X232970857Y-72594410D01*
X232893448Y-72671819D01*
X232816038Y-72710524D01*
X153906704Y-72865343D02*
X153635771Y-72865343D01*
X153635771Y-73291095D02*
X153635771Y-72478295D01*
X154022818Y-72478295D01*
X154487276Y-72478295D02*
X154642095Y-72478295D01*
X154719504Y-72517000D01*
X154796914Y-72594410D01*
X154835619Y-72749229D01*
X154835619Y-73020162D01*
X154796914Y-73174981D01*
X154719504Y-73252390D01*
X154642095Y-73291095D01*
X154487276Y-73291095D01*
X154409866Y-73252390D01*
X154332457Y-73174981D01*
X154293752Y-73020162D01*
X154293752Y-72749229D01*
X154332457Y-72594410D01*
X154409866Y-72517000D01*
X154487276Y-72478295D01*
X155338781Y-72478295D02*
X155493600Y-72478295D01*
X155571009Y-72517000D01*
X155648419Y-72594410D01*
X155687124Y-72749229D01*
X155687124Y-73020162D01*
X155648419Y-73174981D01*
X155571009Y-73252390D01*
X155493600Y-73291095D01*
X155338781Y-73291095D01*
X155261371Y-73252390D01*
X155183962Y-73174981D01*
X155145257Y-73020162D01*
X155145257Y-72749229D01*
X155183962Y-72594410D01*
X155261371Y-72517000D01*
X155338781Y-72478295D01*
X155919353Y-72478295D02*
X156383810Y-72478295D01*
X156151581Y-73291095D02*
X156151581Y-72478295D01*
X156616038Y-72555705D02*
X156654743Y-72517000D01*
X156732152Y-72478295D01*
X156925676Y-72478295D01*
X157003086Y-72517000D01*
X157041790Y-72555705D01*
X157080495Y-72633114D01*
X157080495Y-72710524D01*
X157041790Y-72826638D01*
X156577333Y-73291095D01*
X157080495Y-73291095D01*
X77706704Y-72865343D02*
X77435771Y-72865343D01*
X77435771Y-73291095D02*
X77435771Y-72478295D01*
X77822818Y-72478295D01*
X78287276Y-72478295D02*
X78442095Y-72478295D01*
X78519504Y-72517000D01*
X78596914Y-72594410D01*
X78635619Y-72749229D01*
X78635619Y-73020162D01*
X78596914Y-73174981D01*
X78519504Y-73252390D01*
X78442095Y-73291095D01*
X78287276Y-73291095D01*
X78209866Y-73252390D01*
X78132457Y-73174981D01*
X78093752Y-73020162D01*
X78093752Y-72749229D01*
X78132457Y-72594410D01*
X78209866Y-72517000D01*
X78287276Y-72478295D01*
X79138781Y-72478295D02*
X79293600Y-72478295D01*
X79371009Y-72517000D01*
X79448419Y-72594410D01*
X79487124Y-72749229D01*
X79487124Y-73020162D01*
X79448419Y-73174981D01*
X79371009Y-73252390D01*
X79293600Y-73291095D01*
X79138781Y-73291095D01*
X79061371Y-73252390D01*
X78983962Y-73174981D01*
X78945257Y-73020162D01*
X78945257Y-72749229D01*
X78983962Y-72594410D01*
X79061371Y-72517000D01*
X79138781Y-72478295D01*
X79719353Y-72478295D02*
X80183810Y-72478295D01*
X79951581Y-73291095D02*
X79951581Y-72478295D01*
X80377333Y-72478295D02*
X80880495Y-72478295D01*
X80609562Y-72787933D01*
X80725676Y-72787933D01*
X80803086Y-72826638D01*
X80841790Y-72865343D01*
X80880495Y-72942752D01*
X80880495Y-73136276D01*
X80841790Y-73213686D01*
X80803086Y-73252390D01*
X80725676Y-73291095D01*
X80493448Y-73291095D01*
X80416038Y-73252390D01*
X80377333Y-73213686D01*
X1506704Y-72865343D02*
X1235771Y-72865343D01*
X1235771Y-73291095D02*
X1235771Y-72478295D01*
X1622818Y-72478295D01*
X2087276Y-72478295D02*
X2242095Y-72478295D01*
X2319504Y-72517000D01*
X2396914Y-72594410D01*
X2435619Y-72749229D01*
X2435619Y-73020162D01*
X2396914Y-73174981D01*
X2319504Y-73252390D01*
X2242095Y-73291095D01*
X2087276Y-73291095D01*
X2009866Y-73252390D01*
X1932457Y-73174981D01*
X1893752Y-73020162D01*
X1893752Y-72749229D01*
X1932457Y-72594410D01*
X2009866Y-72517000D01*
X2087276Y-72478295D01*
X2938781Y-72478295D02*
X3093600Y-72478295D01*
X3171009Y-72517000D01*
X3248419Y-72594410D01*
X3287124Y-72749229D01*
X3287124Y-73020162D01*
X3248419Y-73174981D01*
X3171009Y-73252390D01*
X3093600Y-73291095D01*
X2938781Y-73291095D01*
X2861371Y-73252390D01*
X2783962Y-73174981D01*
X2745257Y-73020162D01*
X2745257Y-72749229D01*
X2783962Y-72594410D01*
X2861371Y-72517000D01*
X2938781Y-72478295D01*
X3519353Y-72478295D02*
X3983810Y-72478295D01*
X3751581Y-73291095D02*
X3751581Y-72478295D01*
X4603086Y-72749229D02*
X4603086Y-73291095D01*
X4409562Y-72439590D02*
X4216038Y-73020162D01*
X4719200Y-73020162D01*
X235295319Y-23046267D02*
X236021033Y-23046267D01*
X236166176Y-23094647D01*
X236262938Y-23191409D01*
X236311319Y-23336552D01*
X236311319Y-23433314D01*
X236311319Y-22030267D02*
X236311319Y-22610838D01*
X236311319Y-22320552D02*
X235295319Y-22320552D01*
X235440462Y-22417314D01*
X235537224Y-22514076D01*
X235585605Y-22610838D01*
X235295319Y-44382267D02*
X236021033Y-44382267D01*
X236166176Y-44430647D01*
X236262938Y-44527409D01*
X236311319Y-44672552D01*
X236311319Y-44769314D01*
X235392081Y-43946838D02*
X235343700Y-43898457D01*
X235295319Y-43801695D01*
X235295319Y-43559791D01*
X235343700Y-43463029D01*
X235392081Y-43414648D01*
X235488843Y-43366267D01*
X235585605Y-43366267D01*
X235730748Y-43414648D01*
X236311319Y-43995219D01*
X236311319Y-43366267D01*
X214781795Y-32845223D02*
X213968995Y-32845223D01*
X213968995Y-32535585D01*
X214007700Y-32458176D01*
X214046405Y-32419471D01*
X214123814Y-32380766D01*
X214239929Y-32380766D01*
X214317338Y-32419471D01*
X214356043Y-32458176D01*
X214394748Y-32535585D01*
X214394748Y-32845223D01*
X214781795Y-31606671D02*
X214781795Y-32071128D01*
X214781795Y-31838899D02*
X213968995Y-31838899D01*
X214085110Y-31916309D01*
X214162519Y-31993718D01*
X214201224Y-32071128D01*
X204619377Y-64616995D02*
X204619377Y-63804195D01*
X204929015Y-63804195D01*
X205006424Y-63842900D01*
X205045129Y-63881605D01*
X205083834Y-63959014D01*
X205083834Y-64075129D01*
X205045129Y-64152538D01*
X205006424Y-64191243D01*
X204929015Y-64229948D01*
X204619377Y-64229948D01*
X205393472Y-63881605D02*
X205432177Y-63842900D01*
X205509586Y-63804195D01*
X205703110Y-63804195D01*
X205780520Y-63842900D01*
X205819224Y-63881605D01*
X205857929Y-63959014D01*
X205857929Y-64036424D01*
X205819224Y-64152538D01*
X205354767Y-64616995D01*
X205857929Y-64616995D01*
X232287781Y-37364762D02*
X232239400Y-37461524D01*
X232142638Y-37558286D01*
X231997495Y-37703429D01*
X231949114Y-37800190D01*
X231949114Y-37896952D01*
X232191019Y-37848571D02*
X232142638Y-37945333D01*
X232045876Y-38042095D01*
X231852352Y-38090476D01*
X231513686Y-38090476D01*
X231320162Y-38042095D01*
X231223400Y-37945333D01*
X231175019Y-37848571D01*
X231175019Y-37655048D01*
X231223400Y-37558286D01*
X231320162Y-37461524D01*
X231513686Y-37413143D01*
X231852352Y-37413143D01*
X232045876Y-37461524D01*
X232142638Y-37558286D01*
X232191019Y-37655048D01*
X232191019Y-37848571D01*
X232191019Y-36445524D02*
X232191019Y-37026095D01*
X232191019Y-36735809D02*
X231175019Y-36735809D01*
X231320162Y-36832571D01*
X231416924Y-36929333D01*
X231465305Y-37026095D01*
X232087781Y-48164762D02*
X232039400Y-48261524D01*
X231942638Y-48358286D01*
X231797495Y-48503429D01*
X231749114Y-48600190D01*
X231749114Y-48696952D01*
X231991019Y-48648571D02*
X231942638Y-48745333D01*
X231845876Y-48842095D01*
X231652352Y-48890476D01*
X231313686Y-48890476D01*
X231120162Y-48842095D01*
X231023400Y-48745333D01*
X230975019Y-48648571D01*
X230975019Y-48455048D01*
X231023400Y-48358286D01*
X231120162Y-48261524D01*
X231313686Y-48213143D01*
X231652352Y-48213143D01*
X231845876Y-48261524D01*
X231942638Y-48358286D01*
X231991019Y-48455048D01*
X231991019Y-48648571D01*
X231071781Y-47826095D02*
X231023400Y-47777714D01*
X230975019Y-47680952D01*
X230975019Y-47439048D01*
X231023400Y-47342286D01*
X231071781Y-47293905D01*
X231168543Y-47245524D01*
X231265305Y-47245524D01*
X231410448Y-47293905D01*
X231991019Y-47874476D01*
X231991019Y-47245524D01*
X184769881Y-8339062D02*
X184721500Y-8435824D01*
X184624738Y-8532586D01*
X184479595Y-8677729D01*
X184431214Y-8774490D01*
X184431214Y-8871252D01*
X184673119Y-8822871D02*
X184624738Y-8919633D01*
X184527976Y-9016395D01*
X184334452Y-9064776D01*
X183995786Y-9064776D01*
X183802262Y-9016395D01*
X183705500Y-8919633D01*
X183657119Y-8822871D01*
X183657119Y-8629348D01*
X183705500Y-8532586D01*
X183802262Y-8435824D01*
X183995786Y-8387443D01*
X184334452Y-8387443D01*
X184527976Y-8435824D01*
X184624738Y-8532586D01*
X184673119Y-8629348D01*
X184673119Y-8822871D01*
X183657119Y-8048776D02*
X183657119Y-7419824D01*
X184044167Y-7758490D01*
X184044167Y-7613348D01*
X184092548Y-7516586D01*
X184140929Y-7468205D01*
X184237690Y-7419824D01*
X184479595Y-7419824D01*
X184576357Y-7468205D01*
X184624738Y-7516586D01*
X184673119Y-7613348D01*
X184673119Y-7903633D01*
X184624738Y-8000395D01*
X184576357Y-8048776D01*
X229107395Y-42210566D02*
X228720348Y-42481499D01*
X229107395Y-42675023D02*
X228294595Y-42675023D01*
X228294595Y-42365385D01*
X228333300Y-42287976D01*
X228372005Y-42249271D01*
X228449414Y-42210566D01*
X228565529Y-42210566D01*
X228642938Y-42249271D01*
X228681643Y-42287976D01*
X228720348Y-42365385D01*
X228720348Y-42675023D01*
X229107395Y-41436471D02*
X229107395Y-41900928D01*
X229107395Y-41668699D02*
X228294595Y-41668699D01*
X228410710Y-41746109D01*
X228488119Y-41823518D01*
X228526824Y-41900928D01*
X229097595Y-49216166D02*
X228710548Y-49487099D01*
X229097595Y-49680623D02*
X228284795Y-49680623D01*
X228284795Y-49370985D01*
X228323500Y-49293576D01*
X228362205Y-49254871D01*
X228439614Y-49216166D01*
X228555729Y-49216166D01*
X228633138Y-49254871D01*
X228671843Y-49293576D01*
X228710548Y-49370985D01*
X228710548Y-49680623D01*
X228362205Y-48906528D02*
X228323500Y-48867823D01*
X228284795Y-48790414D01*
X228284795Y-48596890D01*
X228323500Y-48519480D01*
X228362205Y-48480776D01*
X228439614Y-48442071D01*
X228517024Y-48442071D01*
X228633138Y-48480776D01*
X229097595Y-48945233D01*
X229097595Y-48442071D01*
X233849667Y-39327619D02*
X233511001Y-38843810D01*
X233269096Y-39327619D02*
X233269096Y-38311619D01*
X233656143Y-38311619D01*
X233752905Y-38360000D01*
X233801286Y-38408381D01*
X233849667Y-38505143D01*
X233849667Y-38650286D01*
X233801286Y-38747048D01*
X233752905Y-38795429D01*
X233656143Y-38843810D01*
X233269096Y-38843810D01*
X234188334Y-38311619D02*
X234817286Y-38311619D01*
X234478620Y-38698667D01*
X234623762Y-38698667D01*
X234720524Y-38747048D01*
X234768905Y-38795429D01*
X234817286Y-38892190D01*
X234817286Y-39134095D01*
X234768905Y-39230857D01*
X234720524Y-39279238D01*
X234623762Y-39327619D01*
X234333477Y-39327619D01*
X234236715Y-39279238D01*
X234188334Y-39230857D01*
X233749667Y-50027619D02*
X233411001Y-49543810D01*
X233169096Y-50027619D02*
X233169096Y-49011619D01*
X233556143Y-49011619D01*
X233652905Y-49060000D01*
X233701286Y-49108381D01*
X233749667Y-49205143D01*
X233749667Y-49350286D01*
X233701286Y-49447048D01*
X233652905Y-49495429D01*
X233556143Y-49543810D01*
X233169096Y-49543810D01*
X234620524Y-49350286D02*
X234620524Y-50027619D01*
X234378620Y-48963238D02*
X234136715Y-49688952D01*
X234765667Y-49688952D01*
X233849667Y-17227619D02*
X233511001Y-16743810D01*
X233269096Y-17227619D02*
X233269096Y-16211619D01*
X233656143Y-16211619D01*
X233752905Y-16260000D01*
X233801286Y-16308381D01*
X233849667Y-16405143D01*
X233849667Y-16550286D01*
X233801286Y-16647048D01*
X233752905Y-16695429D01*
X233656143Y-16743810D01*
X233269096Y-16743810D01*
X234768905Y-16211619D02*
X234285096Y-16211619D01*
X234236715Y-16695429D01*
X234285096Y-16647048D01*
X234381858Y-16598667D01*
X234623762Y-16598667D01*
X234720524Y-16647048D01*
X234768905Y-16695429D01*
X234817286Y-16792190D01*
X234817286Y-17034095D01*
X234768905Y-17130857D01*
X234720524Y-17179238D01*
X234623762Y-17227619D01*
X234381858Y-17227619D01*
X234285096Y-17179238D01*
X234236715Y-17130857D01*
X233849667Y-28627619D02*
X233511001Y-28143810D01*
X233269096Y-28627619D02*
X233269096Y-27611619D01*
X233656143Y-27611619D01*
X233752905Y-27660000D01*
X233801286Y-27708381D01*
X233849667Y-27805143D01*
X233849667Y-27950286D01*
X233801286Y-28047048D01*
X233752905Y-28095429D01*
X233656143Y-28143810D01*
X233269096Y-28143810D01*
X234720524Y-27611619D02*
X234527001Y-27611619D01*
X234430239Y-27660000D01*
X234381858Y-27708381D01*
X234285096Y-27853524D01*
X234236715Y-28047048D01*
X234236715Y-28434095D01*
X234285096Y-28530857D01*
X234333477Y-28579238D01*
X234430239Y-28627619D01*
X234623762Y-28627619D01*
X234720524Y-28579238D01*
X234768905Y-28530857D01*
X234817286Y-28434095D01*
X234817286Y-28192190D01*
X234768905Y-28095429D01*
X234720524Y-28047048D01*
X234623762Y-27998667D01*
X234430239Y-27998667D01*
X234333477Y-28047048D01*
X234285096Y-28095429D01*
X234236715Y-28192190D01*
X235200614Y-69646195D02*
X234929681Y-69259148D01*
X234736157Y-69646195D02*
X234736157Y-68833395D01*
X235045795Y-68833395D01*
X235123204Y-68872100D01*
X235161909Y-68910805D01*
X235200614Y-68988214D01*
X235200614Y-69104329D01*
X235161909Y-69181738D01*
X235123204Y-69220443D01*
X235045795Y-69259148D01*
X234736157Y-69259148D01*
X235471547Y-68833395D02*
X236013414Y-68833395D01*
X235665071Y-69646195D01*
X159026014Y-69646195D02*
X158755081Y-69259148D01*
X158561557Y-69646195D02*
X158561557Y-68833395D01*
X158871195Y-68833395D01*
X158948604Y-68872100D01*
X158987309Y-68910805D01*
X159026014Y-68988214D01*
X159026014Y-69104329D01*
X158987309Y-69181738D01*
X158948604Y-69220443D01*
X158871195Y-69259148D01*
X158561557Y-69259148D01*
X159490471Y-69181738D02*
X159413062Y-69143033D01*
X159374357Y-69104329D01*
X159335652Y-69026919D01*
X159335652Y-68988214D01*
X159374357Y-68910805D01*
X159413062Y-68872100D01*
X159490471Y-68833395D01*
X159645290Y-68833395D01*
X159722700Y-68872100D01*
X159761404Y-68910805D01*
X159800109Y-68988214D01*
X159800109Y-69026919D01*
X159761404Y-69104329D01*
X159722700Y-69143033D01*
X159645290Y-69181738D01*
X159490471Y-69181738D01*
X159413062Y-69220443D01*
X159374357Y-69259148D01*
X159335652Y-69336557D01*
X159335652Y-69491376D01*
X159374357Y-69568786D01*
X159413062Y-69607490D01*
X159490471Y-69646195D01*
X159645290Y-69646195D01*
X159722700Y-69607490D01*
X159761404Y-69568786D01*
X159800109Y-69491376D01*
X159800109Y-69336557D01*
X159761404Y-69259148D01*
X159722700Y-69220443D01*
X159645290Y-69181738D01*
X82826014Y-69646195D02*
X82555081Y-69259148D01*
X82361557Y-69646195D02*
X82361557Y-68833395D01*
X82671195Y-68833395D01*
X82748604Y-68872100D01*
X82787309Y-68910805D01*
X82826014Y-68988214D01*
X82826014Y-69104329D01*
X82787309Y-69181738D01*
X82748604Y-69220443D01*
X82671195Y-69259148D01*
X82361557Y-69259148D01*
X83213062Y-69646195D02*
X83367881Y-69646195D01*
X83445290Y-69607490D01*
X83483995Y-69568786D01*
X83561404Y-69452671D01*
X83600109Y-69297852D01*
X83600109Y-68988214D01*
X83561404Y-68910805D01*
X83522700Y-68872100D01*
X83445290Y-68833395D01*
X83290471Y-68833395D01*
X83213062Y-68872100D01*
X83174357Y-68910805D01*
X83135652Y-68988214D01*
X83135652Y-69181738D01*
X83174357Y-69259148D01*
X83213062Y-69297852D01*
X83290471Y-69336557D01*
X83445290Y-69336557D01*
X83522700Y-69297852D01*
X83561404Y-69259148D01*
X83600109Y-69181738D01*
X6238966Y-69646195D02*
X5968033Y-69259148D01*
X5774509Y-69646195D02*
X5774509Y-68833395D01*
X6084147Y-68833395D01*
X6161556Y-68872100D01*
X6200261Y-68910805D01*
X6238966Y-68988214D01*
X6238966Y-69104329D01*
X6200261Y-69181738D01*
X6161556Y-69220443D01*
X6084147Y-69259148D01*
X5774509Y-69259148D01*
X7013061Y-69646195D02*
X6548604Y-69646195D01*
X6780833Y-69646195D02*
X6780833Y-68833395D01*
X6703423Y-68949510D01*
X6626014Y-69026919D01*
X6548604Y-69065624D01*
X7516223Y-68833395D02*
X7593632Y-68833395D01*
X7671042Y-68872100D01*
X7709747Y-68910805D01*
X7748451Y-68988214D01*
X7787156Y-69143033D01*
X7787156Y-69336557D01*
X7748451Y-69491376D01*
X7709747Y-69568786D01*
X7671042Y-69607490D01*
X7593632Y-69646195D01*
X7516223Y-69646195D01*
X7438813Y-69607490D01*
X7400109Y-69568786D01*
X7361404Y-69491376D01*
X7322699Y-69336557D01*
X7322699Y-69143033D01*
X7361404Y-68988214D01*
X7400109Y-68910805D01*
X7438813Y-68872100D01*
X7516223Y-68833395D01*
X239478457Y-36490919D02*
X239139791Y-36007110D01*
X238897886Y-36490919D02*
X238897886Y-35474919D01*
X239284933Y-35474919D01*
X239381695Y-35523300D01*
X239430076Y-35571681D01*
X239478457Y-35668443D01*
X239478457Y-35813586D01*
X239430076Y-35910348D01*
X239381695Y-35958729D01*
X239284933Y-36007110D01*
X238897886Y-36007110D01*
X240446076Y-36490919D02*
X239865505Y-36490919D01*
X240155791Y-36490919D02*
X240155791Y-35474919D01*
X240059029Y-35620062D01*
X239962267Y-35716824D01*
X239865505Y-35765205D01*
X241413695Y-36490919D02*
X240833124Y-36490919D01*
X241123410Y-36490919D02*
X241123410Y-35474919D01*
X241026648Y-35620062D01*
X240929886Y-35716824D01*
X240833124Y-35765205D01*
X235668457Y-34458919D02*
X235329791Y-33975110D01*
X235087886Y-34458919D02*
X235087886Y-33442919D01*
X235474933Y-33442919D01*
X235571695Y-33491300D01*
X235620076Y-33539681D01*
X235668457Y-33636443D01*
X235668457Y-33781586D01*
X235620076Y-33878348D01*
X235571695Y-33926729D01*
X235474933Y-33975110D01*
X235087886Y-33975110D01*
X236636076Y-34458919D02*
X236055505Y-34458919D01*
X236345791Y-34458919D02*
X236345791Y-33442919D01*
X236249029Y-33588062D01*
X236152267Y-33684824D01*
X236055505Y-33733205D01*
X237023124Y-33539681D02*
X237071505Y-33491300D01*
X237168267Y-33442919D01*
X237410171Y-33442919D01*
X237506933Y-33491300D01*
X237555314Y-33539681D01*
X237603695Y-33636443D01*
X237603695Y-33733205D01*
X237555314Y-33878348D01*
X236974743Y-34458919D01*
X237603695Y-34458919D01*
X235668457Y-36490919D02*
X235329791Y-36007110D01*
X235087886Y-36490919D02*
X235087886Y-35474919D01*
X235474933Y-35474919D01*
X235571695Y-35523300D01*
X235620076Y-35571681D01*
X235668457Y-35668443D01*
X235668457Y-35813586D01*
X235620076Y-35910348D01*
X235571695Y-35958729D01*
X235474933Y-36007110D01*
X235087886Y-36007110D01*
X236636076Y-36490919D02*
X236055505Y-36490919D01*
X236345791Y-36490919D02*
X236345791Y-35474919D01*
X236249029Y-35620062D01*
X236152267Y-35716824D01*
X236055505Y-35765205D01*
X236974743Y-35474919D02*
X237603695Y-35474919D01*
X237265029Y-35861967D01*
X237410171Y-35861967D01*
X237506933Y-35910348D01*
X237555314Y-35958729D01*
X237603695Y-36055490D01*
X237603695Y-36297395D01*
X237555314Y-36394157D01*
X237506933Y-36442538D01*
X237410171Y-36490919D01*
X237119886Y-36490919D01*
X237023124Y-36442538D01*
X236974743Y-36394157D01*
X235127195Y-65178214D02*
X234740148Y-65449147D01*
X235127195Y-65642671D02*
X234314395Y-65642671D01*
X234314395Y-65333033D01*
X234353100Y-65255624D01*
X234391805Y-65216919D01*
X234469214Y-65178214D01*
X234585329Y-65178214D01*
X234662738Y-65216919D01*
X234701443Y-65255624D01*
X234740148Y-65333033D01*
X234740148Y-65642671D01*
X235127195Y-64404119D02*
X235127195Y-64868576D01*
X235127195Y-64636347D02*
X234314395Y-64636347D01*
X234430510Y-64713757D01*
X234507919Y-64791166D01*
X234546624Y-64868576D01*
X234585329Y-63707433D02*
X235127195Y-63707433D01*
X234275690Y-63900957D02*
X234856262Y-64094481D01*
X234856262Y-63591319D01*
X235127195Y-67083214D02*
X234740148Y-67354147D01*
X235127195Y-67547671D02*
X234314395Y-67547671D01*
X234314395Y-67238033D01*
X234353100Y-67160624D01*
X234391805Y-67121919D01*
X234469214Y-67083214D01*
X234585329Y-67083214D01*
X234662738Y-67121919D01*
X234701443Y-67160624D01*
X234740148Y-67238033D01*
X234740148Y-67547671D01*
X235127195Y-66309119D02*
X235127195Y-66773576D01*
X235127195Y-66541347D02*
X234314395Y-66541347D01*
X234430510Y-66618757D01*
X234507919Y-66696166D01*
X234546624Y-66773576D01*
X234314395Y-65573729D02*
X234314395Y-65960776D01*
X234701443Y-65999481D01*
X234662738Y-65960776D01*
X234624033Y-65883367D01*
X234624033Y-65689843D01*
X234662738Y-65612433D01*
X234701443Y-65573729D01*
X234778852Y-65535024D01*
X234972376Y-65535024D01*
X235049786Y-65573729D01*
X235088490Y-65612433D01*
X235127195Y-65689843D01*
X235127195Y-65883367D01*
X235088490Y-65960776D01*
X235049786Y-65999481D01*
X235127195Y-68988214D02*
X234740148Y-69259147D01*
X235127195Y-69452671D02*
X234314395Y-69452671D01*
X234314395Y-69143033D01*
X234353100Y-69065624D01*
X234391805Y-69026919D01*
X234469214Y-68988214D01*
X234585329Y-68988214D01*
X234662738Y-69026919D01*
X234701443Y-69065624D01*
X234740148Y-69143033D01*
X234740148Y-69452671D01*
X235127195Y-68214119D02*
X235127195Y-68678576D01*
X235127195Y-68446347D02*
X234314395Y-68446347D01*
X234430510Y-68523757D01*
X234507919Y-68601166D01*
X234546624Y-68678576D01*
X234314395Y-67517433D02*
X234314395Y-67672252D01*
X234353100Y-67749662D01*
X234391805Y-67788367D01*
X234507919Y-67865776D01*
X234662738Y-67904481D01*
X234972376Y-67904481D01*
X235049786Y-67865776D01*
X235088490Y-67827071D01*
X235127195Y-67749662D01*
X235127195Y-67594843D01*
X235088490Y-67517433D01*
X235049786Y-67478729D01*
X234972376Y-67440024D01*
X234778852Y-67440024D01*
X234701443Y-67478729D01*
X234662738Y-67517433D01*
X234624033Y-67594843D01*
X234624033Y-67749662D01*
X234662738Y-67827071D01*
X234701443Y-67865776D01*
X234778852Y-67904481D01*
X162305395Y-65152814D02*
X161918348Y-65423747D01*
X162305395Y-65617271D02*
X161492595Y-65617271D01*
X161492595Y-65307633D01*
X161531300Y-65230224D01*
X161570005Y-65191519D01*
X161647414Y-65152814D01*
X161763529Y-65152814D01*
X161840938Y-65191519D01*
X161879643Y-65230224D01*
X161918348Y-65307633D01*
X161918348Y-65617271D01*
X162305395Y-64378719D02*
X162305395Y-64843176D01*
X162305395Y-64610947D02*
X161492595Y-64610947D01*
X161608710Y-64688357D01*
X161686119Y-64765766D01*
X161724824Y-64843176D01*
X161492595Y-64107786D02*
X161492595Y-63565919D01*
X162305395Y-63914262D01*
X162305395Y-67057814D02*
X161918348Y-67328747D01*
X162305395Y-67522271D02*
X161492595Y-67522271D01*
X161492595Y-67212633D01*
X161531300Y-67135224D01*
X161570005Y-67096519D01*
X161647414Y-67057814D01*
X161763529Y-67057814D01*
X161840938Y-67096519D01*
X161879643Y-67135224D01*
X161918348Y-67212633D01*
X161918348Y-67522271D01*
X162305395Y-66283719D02*
X162305395Y-66748176D01*
X162305395Y-66515947D02*
X161492595Y-66515947D01*
X161608710Y-66593357D01*
X161686119Y-66670766D01*
X161724824Y-66748176D01*
X161840938Y-65819262D02*
X161802233Y-65896671D01*
X161763529Y-65935376D01*
X161686119Y-65974081D01*
X161647414Y-65974081D01*
X161570005Y-65935376D01*
X161531300Y-65896671D01*
X161492595Y-65819262D01*
X161492595Y-65664443D01*
X161531300Y-65587033D01*
X161570005Y-65548329D01*
X161647414Y-65509624D01*
X161686119Y-65509624D01*
X161763529Y-65548329D01*
X161802233Y-65587033D01*
X161840938Y-65664443D01*
X161840938Y-65819262D01*
X161879643Y-65896671D01*
X161918348Y-65935376D01*
X161995757Y-65974081D01*
X162150576Y-65974081D01*
X162227986Y-65935376D01*
X162266690Y-65896671D01*
X162305395Y-65819262D01*
X162305395Y-65664443D01*
X162266690Y-65587033D01*
X162227986Y-65548329D01*
X162150576Y-65509624D01*
X161995757Y-65509624D01*
X161918348Y-65548329D01*
X161879643Y-65587033D01*
X161840938Y-65664443D01*
X162305395Y-68962814D02*
X161918348Y-69233747D01*
X162305395Y-69427271D02*
X161492595Y-69427271D01*
X161492595Y-69117633D01*
X161531300Y-69040224D01*
X161570005Y-69001519D01*
X161647414Y-68962814D01*
X161763529Y-68962814D01*
X161840938Y-69001519D01*
X161879643Y-69040224D01*
X161918348Y-69117633D01*
X161918348Y-69427271D01*
X162305395Y-68188719D02*
X162305395Y-68653176D01*
X162305395Y-68420947D02*
X161492595Y-68420947D01*
X161608710Y-68498357D01*
X161686119Y-68575766D01*
X161724824Y-68653176D01*
X162305395Y-67801671D02*
X162305395Y-67646852D01*
X162266690Y-67569443D01*
X162227986Y-67530738D01*
X162111871Y-67453329D01*
X161957052Y-67414624D01*
X161647414Y-67414624D01*
X161570005Y-67453329D01*
X161531300Y-67492033D01*
X161492595Y-67569443D01*
X161492595Y-67724262D01*
X161531300Y-67801671D01*
X161570005Y-67840376D01*
X161647414Y-67879081D01*
X161840938Y-67879081D01*
X161918348Y-67840376D01*
X161957052Y-67801671D01*
X161995757Y-67724262D01*
X161995757Y-67569443D01*
X161957052Y-67492033D01*
X161918348Y-67453329D01*
X161840938Y-67414624D01*
X86105395Y-65152814D02*
X85718348Y-65423747D01*
X86105395Y-65617271D02*
X85292595Y-65617271D01*
X85292595Y-65307633D01*
X85331300Y-65230224D01*
X85370005Y-65191519D01*
X85447414Y-65152814D01*
X85563529Y-65152814D01*
X85640938Y-65191519D01*
X85679643Y-65230224D01*
X85718348Y-65307633D01*
X85718348Y-65617271D01*
X85370005Y-64843176D02*
X85331300Y-64804471D01*
X85292595Y-64727062D01*
X85292595Y-64533538D01*
X85331300Y-64456128D01*
X85370005Y-64417424D01*
X85447414Y-64378719D01*
X85524824Y-64378719D01*
X85640938Y-64417424D01*
X86105395Y-64881881D01*
X86105395Y-64378719D01*
X85292595Y-63875557D02*
X85292595Y-63798148D01*
X85331300Y-63720738D01*
X85370005Y-63682033D01*
X85447414Y-63643329D01*
X85602233Y-63604624D01*
X85795757Y-63604624D01*
X85950576Y-63643329D01*
X86027986Y-63682033D01*
X86066690Y-63720738D01*
X86105395Y-63798148D01*
X86105395Y-63875557D01*
X86066690Y-63952967D01*
X86027986Y-63991671D01*
X85950576Y-64030376D01*
X85795757Y-64069081D01*
X85602233Y-64069081D01*
X85447414Y-64030376D01*
X85370005Y-63991671D01*
X85331300Y-63952967D01*
X85292595Y-63875557D01*
X86105395Y-67057814D02*
X85718348Y-67328747D01*
X86105395Y-67522271D02*
X85292595Y-67522271D01*
X85292595Y-67212633D01*
X85331300Y-67135224D01*
X85370005Y-67096519D01*
X85447414Y-67057814D01*
X85563529Y-67057814D01*
X85640938Y-67096519D01*
X85679643Y-67135224D01*
X85718348Y-67212633D01*
X85718348Y-67522271D01*
X85370005Y-66748176D02*
X85331300Y-66709471D01*
X85292595Y-66632062D01*
X85292595Y-66438538D01*
X85331300Y-66361128D01*
X85370005Y-66322424D01*
X85447414Y-66283719D01*
X85524824Y-66283719D01*
X85640938Y-66322424D01*
X86105395Y-66786881D01*
X86105395Y-66283719D01*
X86105395Y-65509624D02*
X86105395Y-65974081D01*
X86105395Y-65741852D02*
X85292595Y-65741852D01*
X85408710Y-65819262D01*
X85486119Y-65896671D01*
X85524824Y-65974081D01*
X86105395Y-68962814D02*
X85718348Y-69233747D01*
X86105395Y-69427271D02*
X85292595Y-69427271D01*
X85292595Y-69117633D01*
X85331300Y-69040224D01*
X85370005Y-69001519D01*
X85447414Y-68962814D01*
X85563529Y-68962814D01*
X85640938Y-69001519D01*
X85679643Y-69040224D01*
X85718348Y-69117633D01*
X85718348Y-69427271D01*
X85370005Y-68653176D02*
X85331300Y-68614471D01*
X85292595Y-68537062D01*
X85292595Y-68343538D01*
X85331300Y-68266128D01*
X85370005Y-68227424D01*
X85447414Y-68188719D01*
X85524824Y-68188719D01*
X85640938Y-68227424D01*
X86105395Y-68691881D01*
X86105395Y-68188719D01*
X85370005Y-67879081D02*
X85331300Y-67840376D01*
X85292595Y-67762967D01*
X85292595Y-67569443D01*
X85331300Y-67492033D01*
X85370005Y-67453329D01*
X85447414Y-67414624D01*
X85524824Y-67414624D01*
X85640938Y-67453329D01*
X86105395Y-67917786D01*
X86105395Y-67414624D01*
X9930795Y-65152814D02*
X9543748Y-65423747D01*
X9930795Y-65617271D02*
X9117995Y-65617271D01*
X9117995Y-65307633D01*
X9156700Y-65230224D01*
X9195405Y-65191519D01*
X9272814Y-65152814D01*
X9388929Y-65152814D01*
X9466338Y-65191519D01*
X9505043Y-65230224D01*
X9543748Y-65307633D01*
X9543748Y-65617271D01*
X9195405Y-64843176D02*
X9156700Y-64804471D01*
X9117995Y-64727062D01*
X9117995Y-64533538D01*
X9156700Y-64456128D01*
X9195405Y-64417424D01*
X9272814Y-64378719D01*
X9350224Y-64378719D01*
X9466338Y-64417424D01*
X9930795Y-64881881D01*
X9930795Y-64378719D01*
X9117995Y-64107786D02*
X9117995Y-63604624D01*
X9427633Y-63875557D01*
X9427633Y-63759443D01*
X9466338Y-63682033D01*
X9505043Y-63643329D01*
X9582452Y-63604624D01*
X9775976Y-63604624D01*
X9853386Y-63643329D01*
X9892090Y-63682033D01*
X9930795Y-63759443D01*
X9930795Y-63991671D01*
X9892090Y-64069081D01*
X9853386Y-64107786D01*
X9930795Y-67057814D02*
X9543748Y-67328747D01*
X9930795Y-67522271D02*
X9117995Y-67522271D01*
X9117995Y-67212633D01*
X9156700Y-67135224D01*
X9195405Y-67096519D01*
X9272814Y-67057814D01*
X9388929Y-67057814D01*
X9466338Y-67096519D01*
X9505043Y-67135224D01*
X9543748Y-67212633D01*
X9543748Y-67522271D01*
X9195405Y-66748176D02*
X9156700Y-66709471D01*
X9117995Y-66632062D01*
X9117995Y-66438538D01*
X9156700Y-66361128D01*
X9195405Y-66322424D01*
X9272814Y-66283719D01*
X9350224Y-66283719D01*
X9466338Y-66322424D01*
X9930795Y-66786881D01*
X9930795Y-66283719D01*
X9388929Y-65587033D02*
X9930795Y-65587033D01*
X9079290Y-65780557D02*
X9659862Y-65974081D01*
X9659862Y-65470919D01*
X9930795Y-68962814D02*
X9543748Y-69233747D01*
X9930795Y-69427271D02*
X9117995Y-69427271D01*
X9117995Y-69117633D01*
X9156700Y-69040224D01*
X9195405Y-69001519D01*
X9272814Y-68962814D01*
X9388929Y-68962814D01*
X9466338Y-69001519D01*
X9505043Y-69040224D01*
X9543748Y-69117633D01*
X9543748Y-69427271D01*
X9195405Y-68653176D02*
X9156700Y-68614471D01*
X9117995Y-68537062D01*
X9117995Y-68343538D01*
X9156700Y-68266128D01*
X9195405Y-68227424D01*
X9272814Y-68188719D01*
X9350224Y-68188719D01*
X9466338Y-68227424D01*
X9930795Y-68691881D01*
X9930795Y-68188719D01*
X9117995Y-67453329D02*
X9117995Y-67840376D01*
X9505043Y-67879081D01*
X9466338Y-67840376D01*
X9427633Y-67762967D01*
X9427633Y-67569443D01*
X9466338Y-67492033D01*
X9505043Y-67453329D01*
X9582452Y-67414624D01*
X9775976Y-67414624D01*
X9853386Y-67453329D01*
X9892090Y-67492033D01*
X9930795Y-67569443D01*
X9930795Y-67762967D01*
X9892090Y-67840376D01*
X9853386Y-67879081D01*
X199816357Y-23978619D02*
X199477691Y-23494810D01*
X199235786Y-23978619D02*
X199235786Y-22962619D01*
X199622833Y-22962619D01*
X199719595Y-23011000D01*
X199767976Y-23059381D01*
X199816357Y-23156143D01*
X199816357Y-23301286D01*
X199767976Y-23398048D01*
X199719595Y-23446429D01*
X199622833Y-23494810D01*
X199235786Y-23494810D01*
X200203405Y-23059381D02*
X200251786Y-23011000D01*
X200348548Y-22962619D01*
X200590452Y-22962619D01*
X200687214Y-23011000D01*
X200735595Y-23059381D01*
X200783976Y-23156143D01*
X200783976Y-23252905D01*
X200735595Y-23398048D01*
X200155024Y-23978619D01*
X200783976Y-23978619D01*
X201654833Y-22962619D02*
X201461310Y-22962619D01*
X201364548Y-23011000D01*
X201316167Y-23059381D01*
X201219405Y-23204524D01*
X201171024Y-23398048D01*
X201171024Y-23785095D01*
X201219405Y-23881857D01*
X201267786Y-23930238D01*
X201364548Y-23978619D01*
X201558071Y-23978619D01*
X201654833Y-23930238D01*
X201703214Y-23881857D01*
X201751595Y-23785095D01*
X201751595Y-23543190D01*
X201703214Y-23446429D01*
X201654833Y-23398048D01*
X201558071Y-23349667D01*
X201364548Y-23349667D01*
X201267786Y-23398048D01*
X201219405Y-23446429D01*
X201171024Y-23543190D01*
X227912386Y-29780895D02*
X227641453Y-29393848D01*
X227447929Y-29780895D02*
X227447929Y-28968095D01*
X227757567Y-28968095D01*
X227834976Y-29006800D01*
X227873681Y-29045505D01*
X227912386Y-29122914D01*
X227912386Y-29239029D01*
X227873681Y-29316438D01*
X227834976Y-29355143D01*
X227757567Y-29393848D01*
X227447929Y-29393848D01*
X228222024Y-29045505D02*
X228260729Y-29006800D01*
X228338138Y-28968095D01*
X228531662Y-28968095D01*
X228609072Y-29006800D01*
X228647776Y-29045505D01*
X228686481Y-29122914D01*
X228686481Y-29200324D01*
X228647776Y-29316438D01*
X228183319Y-29780895D01*
X228686481Y-29780895D01*
X228957414Y-28968095D02*
X229499281Y-28968095D01*
X229150938Y-29780895D01*
X229742395Y-39359114D02*
X229355348Y-39630047D01*
X229742395Y-39823571D02*
X228929595Y-39823571D01*
X228929595Y-39513933D01*
X228968300Y-39436524D01*
X229007005Y-39397819D01*
X229084414Y-39359114D01*
X229200529Y-39359114D01*
X229277938Y-39397819D01*
X229316643Y-39436524D01*
X229355348Y-39513933D01*
X229355348Y-39823571D01*
X229007005Y-39049476D02*
X228968300Y-39010771D01*
X228929595Y-38933362D01*
X228929595Y-38739838D01*
X228968300Y-38662428D01*
X229007005Y-38623724D01*
X229084414Y-38585019D01*
X229161824Y-38585019D01*
X229277938Y-38623724D01*
X229742395Y-39088181D01*
X229742395Y-38585019D01*
X229277938Y-38120562D02*
X229239233Y-38197971D01*
X229200529Y-38236676D01*
X229123119Y-38275381D01*
X229084414Y-38275381D01*
X229007005Y-38236676D01*
X228968300Y-38197971D01*
X228929595Y-38120562D01*
X228929595Y-37965743D01*
X228968300Y-37888333D01*
X229007005Y-37849629D01*
X229084414Y-37810924D01*
X229123119Y-37810924D01*
X229200529Y-37849629D01*
X229239233Y-37888333D01*
X229277938Y-37965743D01*
X229277938Y-38120562D01*
X229316643Y-38197971D01*
X229355348Y-38236676D01*
X229432757Y-38275381D01*
X229587576Y-38275381D01*
X229664986Y-38236676D01*
X229703690Y-38197971D01*
X229742395Y-38120562D01*
X229742395Y-37965743D01*
X229703690Y-37888333D01*
X229664986Y-37849629D01*
X229587576Y-37810924D01*
X229432757Y-37810924D01*
X229355348Y-37849629D01*
X229316643Y-37888333D01*
X229277938Y-37965743D01*
X224535395Y-39359114D02*
X224148348Y-39630047D01*
X224535395Y-39823571D02*
X223722595Y-39823571D01*
X223722595Y-39513933D01*
X223761300Y-39436524D01*
X223800005Y-39397819D01*
X223877414Y-39359114D01*
X223993529Y-39359114D01*
X224070938Y-39397819D01*
X224109643Y-39436524D01*
X224148348Y-39513933D01*
X224148348Y-39823571D01*
X223800005Y-39049476D02*
X223761300Y-39010771D01*
X223722595Y-38933362D01*
X223722595Y-38739838D01*
X223761300Y-38662428D01*
X223800005Y-38623724D01*
X223877414Y-38585019D01*
X223954824Y-38585019D01*
X224070938Y-38623724D01*
X224535395Y-39088181D01*
X224535395Y-38585019D01*
X224535395Y-38197971D02*
X224535395Y-38043152D01*
X224496690Y-37965743D01*
X224457986Y-37927038D01*
X224341871Y-37849629D01*
X224187052Y-37810924D01*
X223877414Y-37810924D01*
X223800005Y-37849629D01*
X223761300Y-37888333D01*
X223722595Y-37965743D01*
X223722595Y-38120562D01*
X223761300Y-38197971D01*
X223800005Y-38236676D01*
X223877414Y-38275381D01*
X224070938Y-38275381D01*
X224148348Y-38236676D01*
X224187052Y-38197971D01*
X224225757Y-38120562D01*
X224225757Y-37965743D01*
X224187052Y-37888333D01*
X224148348Y-37849629D01*
X224070938Y-37810924D01*
X219276386Y-27926695D02*
X219005453Y-27539648D01*
X218811929Y-27926695D02*
X218811929Y-27113895D01*
X219121567Y-27113895D01*
X219198976Y-27152600D01*
X219237681Y-27191305D01*
X219276386Y-27268714D01*
X219276386Y-27384829D01*
X219237681Y-27462238D01*
X219198976Y-27500943D01*
X219121567Y-27539648D01*
X218811929Y-27539648D01*
X219547319Y-27113895D02*
X220050481Y-27113895D01*
X219779548Y-27423533D01*
X219895662Y-27423533D01*
X219973072Y-27462238D01*
X220011776Y-27500943D01*
X220050481Y-27578352D01*
X220050481Y-27771876D01*
X220011776Y-27849286D01*
X219973072Y-27887990D01*
X219895662Y-27926695D01*
X219663434Y-27926695D01*
X219586024Y-27887990D01*
X219547319Y-27849286D01*
X220553643Y-27113895D02*
X220631052Y-27113895D01*
X220708462Y-27152600D01*
X220747167Y-27191305D01*
X220785871Y-27268714D01*
X220824576Y-27423533D01*
X220824576Y-27617057D01*
X220785871Y-27771876D01*
X220747167Y-27849286D01*
X220708462Y-27887990D01*
X220631052Y-27926695D01*
X220553643Y-27926695D01*
X220476233Y-27887990D01*
X220437529Y-27849286D01*
X220398824Y-27771876D01*
X220360119Y-27617057D01*
X220360119Y-27423533D01*
X220398824Y-27268714D01*
X220437529Y-27191305D01*
X220476233Y-27152600D01*
X220553643Y-27113895D01*
X224535395Y-41200614D02*
X224148348Y-41471547D01*
X224535395Y-41665071D02*
X223722595Y-41665071D01*
X223722595Y-41355433D01*
X223761300Y-41278024D01*
X223800005Y-41239319D01*
X223877414Y-41200614D01*
X223993529Y-41200614D01*
X224070938Y-41239319D01*
X224109643Y-41278024D01*
X224148348Y-41355433D01*
X224148348Y-41665071D01*
X223722595Y-40929681D02*
X223722595Y-40426519D01*
X224032233Y-40697452D01*
X224032233Y-40581338D01*
X224070938Y-40503928D01*
X224109643Y-40465224D01*
X224187052Y-40426519D01*
X224380576Y-40426519D01*
X224457986Y-40465224D01*
X224496690Y-40503928D01*
X224535395Y-40581338D01*
X224535395Y-40813566D01*
X224496690Y-40890976D01*
X224457986Y-40929681D01*
X224535395Y-39652424D02*
X224535395Y-40116881D01*
X224535395Y-39884652D02*
X223722595Y-39884652D01*
X223838710Y-39962062D01*
X223916119Y-40039471D01*
X223954824Y-40116881D01*
X203402595Y-36463514D02*
X203015548Y-36734447D01*
X203402595Y-36927971D02*
X202589795Y-36927971D01*
X202589795Y-36618333D01*
X202628500Y-36540924D01*
X202667205Y-36502219D01*
X202744614Y-36463514D01*
X202860729Y-36463514D01*
X202938138Y-36502219D01*
X202976843Y-36540924D01*
X203015548Y-36618333D01*
X203015548Y-36927971D01*
X202589795Y-36192581D02*
X202589795Y-35689419D01*
X202899433Y-35960352D01*
X202899433Y-35844238D01*
X202938138Y-35766828D01*
X202976843Y-35728124D01*
X203054252Y-35689419D01*
X203247776Y-35689419D01*
X203325186Y-35728124D01*
X203363890Y-35766828D01*
X203402595Y-35844238D01*
X203402595Y-36076466D01*
X203363890Y-36153876D01*
X203325186Y-36192581D01*
X202667205Y-35379781D02*
X202628500Y-35341076D01*
X202589795Y-35263667D01*
X202589795Y-35070143D01*
X202628500Y-34992733D01*
X202667205Y-34954029D01*
X202744614Y-34915324D01*
X202822024Y-34915324D01*
X202938138Y-34954029D01*
X203402595Y-35418486D01*
X203402595Y-34915324D01*
X203415295Y-39765514D02*
X203028248Y-40036447D01*
X203415295Y-40229971D02*
X202602495Y-40229971D01*
X202602495Y-39920333D01*
X202641200Y-39842924D01*
X202679905Y-39804219D01*
X202757314Y-39765514D01*
X202873429Y-39765514D01*
X202950838Y-39804219D01*
X202989543Y-39842924D01*
X203028248Y-39920333D01*
X203028248Y-40229971D01*
X202602495Y-39494581D02*
X202602495Y-38991419D01*
X202912133Y-39262352D01*
X202912133Y-39146238D01*
X202950838Y-39068828D01*
X202989543Y-39030124D01*
X203066952Y-38991419D01*
X203260476Y-38991419D01*
X203337886Y-39030124D01*
X203376590Y-39068828D01*
X203415295Y-39146238D01*
X203415295Y-39378466D01*
X203376590Y-39455876D01*
X203337886Y-39494581D01*
X202602495Y-38720486D02*
X202602495Y-38217324D01*
X202912133Y-38488257D01*
X202912133Y-38372143D01*
X202950838Y-38294733D01*
X202989543Y-38256029D01*
X203066952Y-38217324D01*
X203260476Y-38217324D01*
X203337886Y-38256029D01*
X203376590Y-38294733D01*
X203415295Y-38372143D01*
X203415295Y-38604371D01*
X203376590Y-38681781D01*
X203337886Y-38720486D01*
X225165857Y-2277619D02*
X224827191Y-1793810D01*
X224585286Y-2277619D02*
X224585286Y-1261619D01*
X224972333Y-1261619D01*
X225069095Y-1310000D01*
X225117476Y-1358381D01*
X225165857Y-1455143D01*
X225165857Y-1600286D01*
X225117476Y-1697048D01*
X225069095Y-1745429D01*
X224972333Y-1793810D01*
X224585286Y-1793810D01*
X225504524Y-1261619D02*
X226133476Y-1261619D01*
X225794810Y-1648667D01*
X225939952Y-1648667D01*
X226036714Y-1697048D01*
X226085095Y-1745429D01*
X226133476Y-1842190D01*
X226133476Y-2084095D01*
X226085095Y-2180857D01*
X226036714Y-2229238D01*
X225939952Y-2277619D01*
X225649667Y-2277619D01*
X225552905Y-2229238D01*
X225504524Y-2180857D01*
X227004333Y-1600286D02*
X227004333Y-2277619D01*
X226762429Y-1213238D02*
X226520524Y-1938952D01*
X227149476Y-1938952D01*
X223265857Y-377619D02*
X222927191Y106190D01*
X222685286Y-377619D02*
X222685286Y638381D01*
X223072333Y638381D01*
X223169095Y590000D01*
X223217476Y541619D01*
X223265857Y444857D01*
X223265857Y299714D01*
X223217476Y202952D01*
X223169095Y154571D01*
X223072333Y106190D01*
X222685286Y106190D01*
X223604524Y638381D02*
X224233476Y638381D01*
X223894810Y251333D01*
X224039952Y251333D01*
X224136714Y202952D01*
X224185095Y154571D01*
X224233476Y57810D01*
X224233476Y-184095D01*
X224185095Y-280857D01*
X224136714Y-329238D01*
X224039952Y-377619D01*
X223749667Y-377619D01*
X223652905Y-329238D01*
X223604524Y-280857D01*
X225152714Y638381D02*
X224668905Y638381D01*
X224620524Y154571D01*
X224668905Y202952D01*
X224765667Y251333D01*
X225007571Y251333D01*
X225104333Y202952D01*
X225152714Y154571D01*
X225201095Y57810D01*
X225201095Y-184095D01*
X225152714Y-280857D01*
X225104333Y-329238D01*
X225007571Y-377619D01*
X224765667Y-377619D01*
X224668905Y-329238D01*
X224620524Y-280857D01*
X185011786Y-13601095D02*
X184740853Y-13214048D01*
X184547329Y-13601095D02*
X184547329Y-12788295D01*
X184856967Y-12788295D01*
X184934376Y-12827000D01*
X184973081Y-12865705D01*
X185011786Y-12943114D01*
X185011786Y-13059229D01*
X184973081Y-13136638D01*
X184934376Y-13175343D01*
X184856967Y-13214048D01*
X184547329Y-13214048D01*
X185282719Y-12788295D02*
X185785881Y-12788295D01*
X185514948Y-13097933D01*
X185631062Y-13097933D01*
X185708472Y-13136638D01*
X185747176Y-13175343D01*
X185785881Y-13252752D01*
X185785881Y-13446276D01*
X185747176Y-13523686D01*
X185708472Y-13562390D01*
X185631062Y-13601095D01*
X185398834Y-13601095D01*
X185321424Y-13562390D01*
X185282719Y-13523686D01*
X186482567Y-12788295D02*
X186327748Y-12788295D01*
X186250338Y-12827000D01*
X186211633Y-12865705D01*
X186134224Y-12981819D01*
X186095519Y-13136638D01*
X186095519Y-13446276D01*
X186134224Y-13523686D01*
X186172929Y-13562390D01*
X186250338Y-13601095D01*
X186405157Y-13601095D01*
X186482567Y-13562390D01*
X186521271Y-13523686D01*
X186559976Y-13446276D01*
X186559976Y-13252752D01*
X186521271Y-13175343D01*
X186482567Y-13136638D01*
X186405157Y-13097933D01*
X186250338Y-13097933D01*
X186172929Y-13136638D01*
X186134224Y-13175343D01*
X186095519Y-13252752D01*
X189719857Y-5055619D02*
X189381191Y-4571810D01*
X189139286Y-5055619D02*
X189139286Y-4039619D01*
X189526333Y-4039619D01*
X189623095Y-4088000D01*
X189671476Y-4136381D01*
X189719857Y-4233143D01*
X189719857Y-4378286D01*
X189671476Y-4475048D01*
X189623095Y-4523429D01*
X189526333Y-4571810D01*
X189139286Y-4571810D01*
X190058524Y-4039619D02*
X190687476Y-4039619D01*
X190348810Y-4426667D01*
X190493952Y-4426667D01*
X190590714Y-4475048D01*
X190639095Y-4523429D01*
X190687476Y-4620190D01*
X190687476Y-4862095D01*
X190639095Y-4958857D01*
X190590714Y-5007238D01*
X190493952Y-5055619D01*
X190203667Y-5055619D01*
X190106905Y-5007238D01*
X190058524Y-4958857D01*
X191026143Y-4039619D02*
X191703476Y-4039619D01*
X191268048Y-5055619D01*
X221977857Y-10237219D02*
X221639191Y-9753410D01*
X221397286Y-10237219D02*
X221397286Y-9221219D01*
X221784333Y-9221219D01*
X221881095Y-9269600D01*
X221929476Y-9317981D01*
X221977857Y-9414743D01*
X221977857Y-9559886D01*
X221929476Y-9656648D01*
X221881095Y-9705029D01*
X221784333Y-9753410D01*
X221397286Y-9753410D01*
X222316524Y-9221219D02*
X222945476Y-9221219D01*
X222606810Y-9608267D01*
X222751952Y-9608267D01*
X222848714Y-9656648D01*
X222897095Y-9705029D01*
X222945476Y-9801790D01*
X222945476Y-10043695D01*
X222897095Y-10140457D01*
X222848714Y-10188838D01*
X222751952Y-10237219D01*
X222461667Y-10237219D01*
X222364905Y-10188838D01*
X222316524Y-10140457D01*
X223526048Y-9656648D02*
X223429286Y-9608267D01*
X223380905Y-9559886D01*
X223332524Y-9463124D01*
X223332524Y-9414743D01*
X223380905Y-9317981D01*
X223429286Y-9269600D01*
X223526048Y-9221219D01*
X223719571Y-9221219D01*
X223816333Y-9269600D01*
X223864714Y-9317981D01*
X223913095Y-9414743D01*
X223913095Y-9463124D01*
X223864714Y-9559886D01*
X223816333Y-9608267D01*
X223719571Y-9656648D01*
X223526048Y-9656648D01*
X223429286Y-9705029D01*
X223380905Y-9753410D01*
X223332524Y-9850171D01*
X223332524Y-10043695D01*
X223380905Y-10140457D01*
X223429286Y-10188838D01*
X223526048Y-10237219D01*
X223719571Y-10237219D01*
X223816333Y-10188838D01*
X223864714Y-10140457D01*
X223913095Y-10043695D01*
X223913095Y-9850171D01*
X223864714Y-9753410D01*
X223816333Y-9705029D01*
X223719571Y-9656648D01*
X212421219Y-68128243D02*
X211937410Y-68466909D01*
X212421219Y-68708814D02*
X211405219Y-68708814D01*
X211405219Y-68321767D01*
X211453600Y-68225005D01*
X211501981Y-68176624D01*
X211598743Y-68128243D01*
X211743886Y-68128243D01*
X211840648Y-68176624D01*
X211889029Y-68225005D01*
X211937410Y-68321767D01*
X211937410Y-68708814D01*
X211405219Y-67789576D02*
X211405219Y-67160624D01*
X211792267Y-67499290D01*
X211792267Y-67354148D01*
X211840648Y-67257386D01*
X211889029Y-67209005D01*
X211985790Y-67160624D01*
X212227695Y-67160624D01*
X212324457Y-67209005D01*
X212372838Y-67257386D01*
X212421219Y-67354148D01*
X212421219Y-67644433D01*
X212372838Y-67741195D01*
X212324457Y-67789576D01*
X212421219Y-66676814D02*
X212421219Y-66483290D01*
X212372838Y-66386529D01*
X212324457Y-66338148D01*
X212179314Y-66241386D01*
X211985790Y-66193005D01*
X211598743Y-66193005D01*
X211501981Y-66241386D01*
X211453600Y-66289767D01*
X211405219Y-66386529D01*
X211405219Y-66580052D01*
X211453600Y-66676814D01*
X211501981Y-66725195D01*
X211598743Y-66773576D01*
X211840648Y-66773576D01*
X211937410Y-66725195D01*
X211985790Y-66676814D01*
X212034171Y-66580052D01*
X212034171Y-66386529D01*
X211985790Y-66289767D01*
X211937410Y-66241386D01*
X211840648Y-66193005D01*
X208659186Y-58698795D02*
X208388253Y-58311748D01*
X208194729Y-58698795D02*
X208194729Y-57885995D01*
X208504367Y-57885995D01*
X208581776Y-57924700D01*
X208620481Y-57963405D01*
X208659186Y-58040814D01*
X208659186Y-58156929D01*
X208620481Y-58234338D01*
X208581776Y-58273043D01*
X208504367Y-58311748D01*
X208194729Y-58311748D01*
X209355872Y-58156929D02*
X209355872Y-58698795D01*
X209162348Y-57847290D02*
X208968824Y-58427862D01*
X209471986Y-58427862D01*
X209936443Y-57885995D02*
X210013852Y-57885995D01*
X210091262Y-57924700D01*
X210129967Y-57963405D01*
X210168671Y-58040814D01*
X210207376Y-58195633D01*
X210207376Y-58389157D01*
X210168671Y-58543976D01*
X210129967Y-58621386D01*
X210091262Y-58660090D01*
X210013852Y-58698795D01*
X209936443Y-58698795D01*
X209859033Y-58660090D01*
X209820329Y-58621386D01*
X209781624Y-58543976D01*
X209742919Y-58389157D01*
X209742919Y-58195633D01*
X209781624Y-58040814D01*
X209820329Y-57963405D01*
X209859033Y-57924700D01*
X209936443Y-57885995D01*
X206144586Y-58698795D02*
X205873653Y-58311748D01*
X205680129Y-58698795D02*
X205680129Y-57885995D01*
X205989767Y-57885995D01*
X206067176Y-57924700D01*
X206105881Y-57963405D01*
X206144586Y-58040814D01*
X206144586Y-58156929D01*
X206105881Y-58234338D01*
X206067176Y-58273043D01*
X205989767Y-58311748D01*
X205680129Y-58311748D01*
X206841272Y-58156929D02*
X206841272Y-58698795D01*
X206647748Y-57847290D02*
X206454224Y-58427862D01*
X206957386Y-58427862D01*
X207692776Y-58698795D02*
X207228319Y-58698795D01*
X207460548Y-58698795D02*
X207460548Y-57885995D01*
X207383138Y-58002110D01*
X207305729Y-58079519D01*
X207228319Y-58118224D01*
X227392896Y-9765695D02*
X227121963Y-9378648D01*
X226928439Y-9765695D02*
X226928439Y-8952895D01*
X227238077Y-8952895D01*
X227315486Y-8991600D01*
X227354191Y-9030305D01*
X227392896Y-9107714D01*
X227392896Y-9223829D01*
X227354191Y-9301238D01*
X227315486Y-9339943D01*
X227238077Y-9378648D01*
X226928439Y-9378648D01*
X227625125Y-8952895D02*
X228089582Y-8952895D01*
X227857353Y-9765695D02*
X227857353Y-8952895D01*
X228786267Y-9765695D02*
X228321810Y-9765695D01*
X228554039Y-9765695D02*
X228554039Y-8952895D01*
X228476629Y-9069010D01*
X228399220Y-9146419D01*
X228321810Y-9185124D01*
X190109325Y-12730895D02*
X190573782Y-12730895D01*
X190341553Y-13543695D02*
X190341553Y-12730895D01*
X190844715Y-13543695D02*
X190844715Y-12730895D01*
X191154353Y-12730895D01*
X191231762Y-12769600D01*
X191270467Y-12808305D01*
X191309172Y-12885714D01*
X191309172Y-13001829D01*
X191270467Y-13079238D01*
X191231762Y-13117943D01*
X191154353Y-13156648D01*
X190844715Y-13156648D01*
X192083267Y-13543695D02*
X191618810Y-13543695D01*
X191851039Y-13543695D02*
X191851039Y-12730895D01*
X191773629Y-12847010D01*
X191696220Y-12924419D01*
X191618810Y-12963124D01*
X210734125Y-10571895D02*
X211198582Y-10571895D01*
X210966353Y-11384695D02*
X210966353Y-10571895D01*
X211469515Y-11384695D02*
X211469515Y-10571895D01*
X211779153Y-10571895D01*
X211856562Y-10610600D01*
X211895267Y-10649305D01*
X211933972Y-10726714D01*
X211933972Y-10842829D01*
X211895267Y-10920238D01*
X211856562Y-10958943D01*
X211779153Y-10997648D01*
X211469515Y-10997648D01*
X212243610Y-10649305D02*
X212282315Y-10610600D01*
X212359724Y-10571895D01*
X212553248Y-10571895D01*
X212630658Y-10610600D01*
X212669362Y-10649305D01*
X212708067Y-10726714D01*
X212708067Y-10804124D01*
X212669362Y-10920238D01*
X212204905Y-11384695D01*
X212708067Y-11384695D01*
X244363725Y-54755695D02*
X244828182Y-54755695D01*
X244595953Y-55568495D02*
X244595953Y-54755695D01*
X245099115Y-55568495D02*
X245099115Y-54755695D01*
X245408753Y-54755695D01*
X245486162Y-54794400D01*
X245524867Y-54833105D01*
X245563572Y-54910514D01*
X245563572Y-55026629D01*
X245524867Y-55104038D01*
X245486162Y-55142743D01*
X245408753Y-55181448D01*
X245099115Y-55181448D01*
X245834505Y-54755695D02*
X246337667Y-54755695D01*
X246066734Y-55065333D01*
X246182848Y-55065333D01*
X246260258Y-55104038D01*
X246298962Y-55142743D01*
X246337667Y-55220152D01*
X246337667Y-55413676D01*
X246298962Y-55491086D01*
X246260258Y-55529790D01*
X246182848Y-55568495D01*
X245950620Y-55568495D01*
X245873210Y-55529790D01*
X245834505Y-55491086D01*
X198681824Y-50253295D02*
X198681824Y-50911276D01*
X198720529Y-50988686D01*
X198759233Y-51027390D01*
X198836643Y-51066095D01*
X198991462Y-51066095D01*
X199068871Y-51027390D01*
X199107576Y-50988686D01*
X199146281Y-50911276D01*
X199146281Y-50253295D01*
X199959081Y-51066095D02*
X199494624Y-51066095D01*
X199726853Y-51066095D02*
X199726853Y-50253295D01*
X199649443Y-50369410D01*
X199572034Y-50446819D01*
X199494624Y-50485524D01*
X211013524Y-23684895D02*
X211013524Y-24342876D01*
X211052229Y-24420286D01*
X211090933Y-24458990D01*
X211168343Y-24497695D01*
X211323162Y-24497695D01*
X211400571Y-24458990D01*
X211439276Y-24420286D01*
X211477981Y-24342876D01*
X211477981Y-23684895D01*
X211826324Y-23762305D02*
X211865029Y-23723600D01*
X211942438Y-23684895D01*
X212135962Y-23684895D01*
X212213372Y-23723600D01*
X212252076Y-23762305D01*
X212290781Y-23839714D01*
X212290781Y-23917124D01*
X212252076Y-24033238D01*
X211787619Y-24497695D01*
X212290781Y-24497695D01*
X195087724Y-23684895D02*
X195087724Y-24342876D01*
X195126429Y-24420286D01*
X195165133Y-24458990D01*
X195242543Y-24497695D01*
X195397362Y-24497695D01*
X195474771Y-24458990D01*
X195513476Y-24420286D01*
X195552181Y-24342876D01*
X195552181Y-23684895D01*
X195861819Y-23684895D02*
X196364981Y-23684895D01*
X196094048Y-23994533D01*
X196210162Y-23994533D01*
X196287572Y-24033238D01*
X196326276Y-24071943D01*
X196364981Y-24149352D01*
X196364981Y-24342876D01*
X196326276Y-24420286D01*
X196287572Y-24458990D01*
X196210162Y-24497695D01*
X195977934Y-24497695D01*
X195900524Y-24458990D01*
X195861819Y-24420286D01*
X217722219Y-34289395D02*
X218544695Y-34289395D01*
X218641457Y-34241014D01*
X218689838Y-34192633D01*
X218738219Y-34095871D01*
X218738219Y-33902348D01*
X218689838Y-33805586D01*
X218641457Y-33757205D01*
X218544695Y-33708824D01*
X217722219Y-33708824D01*
X218060886Y-32789586D02*
X218738219Y-32789586D01*
X217673838Y-33031490D02*
X218399552Y-33273395D01*
X218399552Y-32644443D01*
X178196724Y-4126895D02*
X178196724Y-4784876D01*
X178235429Y-4862286D01*
X178274133Y-4900990D01*
X178351543Y-4939695D01*
X178506362Y-4939695D01*
X178583771Y-4900990D01*
X178622476Y-4862286D01*
X178661181Y-4784876D01*
X178661181Y-4126895D01*
X179435276Y-4126895D02*
X179048229Y-4126895D01*
X179009524Y-4513943D01*
X179048229Y-4475238D01*
X179125638Y-4436533D01*
X179319162Y-4436533D01*
X179396572Y-4475238D01*
X179435276Y-4513943D01*
X179473981Y-4591352D01*
X179473981Y-4784876D01*
X179435276Y-4862286D01*
X179396572Y-4900990D01*
X179319162Y-4939695D01*
X179125638Y-4939695D01*
X179048229Y-4900990D01*
X179009524Y-4862286D01*
X168925724Y-4126895D02*
X168925724Y-4784876D01*
X168964429Y-4862286D01*
X169003133Y-4900990D01*
X169080543Y-4939695D01*
X169235362Y-4939695D01*
X169312771Y-4900990D01*
X169351476Y-4862286D01*
X169390181Y-4784876D01*
X169390181Y-4126895D01*
X170125572Y-4126895D02*
X169970753Y-4126895D01*
X169893343Y-4165600D01*
X169854638Y-4204305D01*
X169777229Y-4320419D01*
X169738524Y-4475238D01*
X169738524Y-4784876D01*
X169777229Y-4862286D01*
X169815934Y-4900990D01*
X169893343Y-4939695D01*
X170048162Y-4939695D01*
X170125572Y-4900990D01*
X170164276Y-4862286D01*
X170202981Y-4784876D01*
X170202981Y-4591352D01*
X170164276Y-4513943D01*
X170125572Y-4475238D01*
X170048162Y-4436533D01*
X169893343Y-4436533D01*
X169815934Y-4475238D01*
X169777229Y-4513943D01*
X169738524Y-4591352D01*
X198236719Y-28447395D02*
X198778586Y-29260195D01*
X198778586Y-28447395D02*
X198236719Y-29260195D01*
X199513976Y-29260195D02*
X199049519Y-29260195D01*
X199281748Y-29260195D02*
X199281748Y-28447395D01*
X199204338Y-28563510D01*
X199126929Y-28640919D01*
X199049519Y-28679624D01*
M02*
