G04 #@! TF.FileFunction,Other,User*
%FSLAX46Y46*%
G04 Gerber Fmt 4.6, Leading zero omitted, Abs format (unit mm)*
G04 Created by KiCad (PCBNEW 4.0.1-stable) date Thu 16 Jun 2016 07:21:35 PM CEST*
%MOMM*%
G01*
G04 APERTURE LIST*
%ADD10C,0.100000*%
%ADD11C,0.050000*%
G04 APERTURE END LIST*
D10*
D11*
X124375440Y-28146520D02*
X115075440Y-28146520D01*
X124375440Y-35546520D02*
X115075440Y-35546520D01*
X124375440Y-28146520D02*
X124375440Y-35546520D01*
X115075440Y-28146520D02*
X115075440Y-35546520D01*
X134363120Y-11580560D02*
X131463120Y-11580560D01*
X134363120Y-10080560D02*
X131463120Y-10080560D01*
X134363120Y-11580560D02*
X134363120Y-10080560D01*
X131463120Y-11580560D02*
X131463120Y-10080560D01*
X177102640Y-38417520D02*
X167402640Y-38417520D01*
X167402640Y-38417520D02*
X167402640Y-31117520D01*
X167402640Y-31117520D02*
X177102640Y-31117520D01*
X177102640Y-31117520D02*
X177102640Y-38417520D01*
X167831640Y-49441120D02*
X158131640Y-49441120D01*
X158131640Y-49441120D02*
X158131640Y-42141120D01*
X158131640Y-42141120D02*
X167831640Y-42141120D01*
X167831640Y-42141120D02*
X167831640Y-49441120D01*
X113113640Y-25123320D02*
X102613640Y-25123320D01*
X113113640Y-35623320D02*
X102613640Y-35623320D01*
X113113640Y-25123320D02*
X113113640Y-35623320D01*
X102613640Y-25123320D02*
X102613640Y-35623320D01*
X145555140Y-36803620D02*
X150055140Y-36803620D01*
X150055140Y-36803620D02*
X150055140Y-38903620D01*
X150055140Y-38903620D02*
X145555140Y-38903620D01*
X145555140Y-36803620D02*
X145555140Y-38903620D01*
X95643900Y-34784300D02*
X95643900Y-31484300D01*
X95643900Y-31484300D02*
X98843900Y-31484300D01*
X98843900Y-31484300D02*
X98843900Y-34784300D01*
X98843900Y-34784300D02*
X95643900Y-34784300D01*
X142013080Y-35757360D02*
X138413080Y-35757360D01*
X142013080Y-33757360D02*
X138413080Y-33757360D01*
X142013080Y-35757360D02*
X142013080Y-33757360D01*
X138413080Y-35757360D02*
X138413080Y-33757360D01*
X138612540Y-44422760D02*
X135712540Y-44422760D01*
X138612540Y-42922760D02*
X135712540Y-42922760D01*
X138612540Y-44422760D02*
X138612540Y-42922760D01*
X135712540Y-44422760D02*
X135712540Y-42922760D01*
X159525040Y-40418320D02*
X162425040Y-40418320D01*
X159525040Y-41918320D02*
X162425040Y-41918320D01*
X159525040Y-40418320D02*
X159525040Y-41918320D01*
X162425040Y-40418320D02*
X162425040Y-41918320D01*
X149721000Y-30833400D02*
X149721000Y-33733400D01*
X148221000Y-30833400D02*
X148221000Y-33733400D01*
X149721000Y-30833400D02*
X148221000Y-30833400D01*
X149721000Y-33733400D02*
X148221000Y-33733400D01*
X131331400Y-19327200D02*
X131331400Y-22227200D01*
X129831400Y-19327200D02*
X129831400Y-22227200D01*
X131331400Y-19327200D02*
X129831400Y-19327200D01*
X131331400Y-22227200D02*
X129831400Y-22227200D01*
X113403040Y-19134520D02*
X110503040Y-19134520D01*
X113403040Y-17634520D02*
X110503040Y-17634520D01*
X113403040Y-19134520D02*
X113403040Y-17634520D01*
X110503040Y-19134520D02*
X110503040Y-17634520D01*
X102293760Y-17634520D02*
X105193760Y-17634520D01*
X102293760Y-19134520D02*
X105193760Y-19134520D01*
X102293760Y-17634520D02*
X102293760Y-19134520D01*
X105193760Y-17634520D02*
X105193760Y-19134520D01*
X100829680Y-27860920D02*
X100829680Y-24960920D01*
X102329680Y-27860920D02*
X102329680Y-24960920D01*
X100829680Y-27860920D02*
X102329680Y-27860920D01*
X100829680Y-24960920D02*
X102329680Y-24960920D01*
X115027140Y-27818420D02*
X115027140Y-30718420D01*
X113527140Y-27818420D02*
X113527140Y-30718420D01*
X115027140Y-27818420D02*
X113527140Y-27818420D01*
X115027140Y-30718420D02*
X113527140Y-30718420D01*
X115580860Y-24696760D02*
X115580860Y-27596760D01*
X114080860Y-24696760D02*
X114080860Y-27596760D01*
X115580860Y-24696760D02*
X114080860Y-24696760D01*
X115580860Y-27596760D02*
X114080860Y-27596760D01*
X27240Y-7286920D02*
X27240Y-4386920D01*
X1527240Y-7286920D02*
X1527240Y-4386920D01*
X27240Y-7286920D02*
X1527240Y-7286920D01*
X27240Y-4386920D02*
X1527240Y-4386920D01*
X1669540Y-7382920D02*
X1669540Y-3782920D01*
X3669540Y-7382920D02*
X3669540Y-3782920D01*
X1669540Y-7382920D02*
X3669540Y-7382920D01*
X1669540Y-3782920D02*
X3669540Y-3782920D01*
X153749440Y-17188520D02*
X153749440Y-20088520D01*
X152249440Y-17188520D02*
X152249440Y-20088520D01*
X153749440Y-17188520D02*
X152249440Y-17188520D01*
X153749440Y-20088520D02*
X152249440Y-20088520D01*
X156069540Y-17079820D02*
X156069540Y-20679820D01*
X154069540Y-17079820D02*
X154069540Y-20679820D01*
X156069540Y-17079820D02*
X154069540Y-17079820D01*
X156069540Y-20679820D02*
X154069540Y-20679820D01*
X131522720Y-49923580D02*
X131522720Y-42923580D01*
X131522720Y-42923580D02*
X135522720Y-42923580D01*
X135522720Y-42923580D02*
X135522720Y-49923580D01*
X135522720Y-49923580D02*
X131522720Y-49923580D01*
X146791240Y-35804820D02*
X142291240Y-35804820D01*
X142291240Y-35804820D02*
X142291240Y-33704820D01*
X142291240Y-33704820D02*
X146791240Y-33704820D01*
X146791240Y-35804820D02*
X146791240Y-33704820D01*
X8558040Y-34748720D02*
X8558040Y-38748720D01*
X3158040Y-34748720D02*
X3158040Y-38748720D01*
X3158040Y-38748720D02*
X8558040Y-38748720D01*
X3158040Y-34748720D02*
X8558040Y-34748720D01*
X84605640Y-34748720D02*
X84605640Y-38748720D01*
X79205640Y-34748720D02*
X79205640Y-38748720D01*
X79205640Y-38748720D02*
X84605640Y-38748720D01*
X79205640Y-34748720D02*
X84605640Y-34748720D01*
X160958040Y-34748720D02*
X160958040Y-38748720D01*
X155558040Y-34748720D02*
X155558040Y-38748720D01*
X155558040Y-38748720D02*
X160958040Y-38748720D01*
X155558040Y-34748720D02*
X160958040Y-34748720D01*
X237158040Y-34748720D02*
X237158040Y-38748720D01*
X231758040Y-34748720D02*
X231758040Y-38748720D01*
X231758040Y-38748720D02*
X237158040Y-38748720D01*
X231758040Y-34748720D02*
X237158040Y-34748720D01*
X88012560Y-43746600D02*
X95162560Y-43746600D01*
X88012560Y-40296600D02*
X95162560Y-40296600D01*
X88012560Y-43746600D02*
X88012560Y-40296600D01*
X95162560Y-43746600D02*
X95162560Y-40296600D01*
X40365620Y-39401620D02*
X34315620Y-39401620D01*
X40365620Y-51551620D02*
X34315620Y-51551620D01*
X40365620Y-39401620D02*
X40365620Y-51551620D01*
X34315620Y-39401620D02*
X34315620Y-51551620D01*
X192760540Y-39401620D02*
X186710540Y-39401620D01*
X192760540Y-51551620D02*
X186710540Y-51551620D01*
X192760540Y-39401620D02*
X192760540Y-51551620D01*
X186710540Y-39401620D02*
X186710540Y-51551620D01*
X49326740Y-39401620D02*
X43276740Y-39401620D01*
X49326740Y-51551620D02*
X43276740Y-51551620D01*
X49326740Y-39401620D02*
X49326740Y-51551620D01*
X43276740Y-39401620D02*
X43276740Y-51551620D01*
X201731820Y-39401620D02*
X195681820Y-39401620D01*
X201731820Y-51551620D02*
X195681820Y-51551620D01*
X201731820Y-39401620D02*
X201731820Y-51551620D01*
X195681820Y-39401620D02*
X195681820Y-51551620D01*
X139135120Y-33035040D02*
X135835120Y-33035040D01*
X135835120Y-33035040D02*
X135835120Y-29835040D01*
X135835120Y-29835040D02*
X139135120Y-29835040D01*
X139135120Y-29835040D02*
X139135120Y-33035040D01*
X138185160Y-36418320D02*
X134885160Y-36418320D01*
X134885160Y-36418320D02*
X134885160Y-33218320D01*
X134885160Y-33218320D02*
X138185160Y-33218320D01*
X138185160Y-33218320D02*
X138185160Y-36418320D01*
X134558040Y-36413520D02*
X131258040Y-36413520D01*
X131258040Y-36413520D02*
X131258040Y-32913520D01*
X131258040Y-32913520D02*
X134558040Y-32913520D01*
X134558040Y-32913520D02*
X134558040Y-36413520D01*
X163643040Y-31097420D02*
X166943040Y-31097420D01*
X166943040Y-31097420D02*
X166943040Y-34297420D01*
X166943040Y-34297420D02*
X163643040Y-34297420D01*
X163643040Y-34297420D02*
X163643040Y-31097420D01*
X47500740Y-34614120D02*
X47500740Y-31314120D01*
X47500740Y-31314120D02*
X50700740Y-31314120D01*
X50700740Y-31314120D02*
X50700740Y-34614120D01*
X50700740Y-34614120D02*
X47500740Y-34614120D01*
X199913440Y-34614120D02*
X199913440Y-31314120D01*
X199913440Y-31314120D02*
X203113440Y-31314120D01*
X203113440Y-31314120D02*
X203113440Y-34614120D01*
X203113440Y-34614120D02*
X199913440Y-34614120D01*
X125773280Y-35569680D02*
X125773280Y-32969680D01*
X127373280Y-35569680D02*
X127373280Y-32969680D01*
X125773280Y-35569680D02*
X127373280Y-35569680D01*
X125773280Y-32969680D02*
X127373280Y-32969680D01*
X138587000Y-29613760D02*
X135987000Y-29613760D01*
X138587000Y-28013760D02*
X135987000Y-28013760D01*
X138587000Y-29613760D02*
X138587000Y-28013760D01*
X135987000Y-29613760D02*
X135987000Y-28013760D01*
X129461360Y-35559520D02*
X129461360Y-32959520D01*
X131061360Y-35559520D02*
X131061360Y-32959520D01*
X129461360Y-35559520D02*
X131061360Y-35559520D01*
X129461360Y-32959520D02*
X131061360Y-32959520D01*
X127617320Y-35554440D02*
X127617320Y-32954440D01*
X129217320Y-35554440D02*
X129217320Y-32954440D01*
X127617320Y-35554440D02*
X129217320Y-35554440D01*
X127617320Y-32954440D02*
X129217320Y-32954440D01*
X121787440Y-27820520D02*
X119187440Y-27820520D01*
X121787440Y-26220520D02*
X119187440Y-26220520D01*
X121787440Y-27820520D02*
X121787440Y-26220520D01*
X119187440Y-27820520D02*
X119187440Y-26220520D01*
X117482520Y-24846760D02*
X117482520Y-27446760D01*
X115882520Y-24846760D02*
X115882520Y-27446760D01*
X117482520Y-24846760D02*
X115882520Y-24846760D01*
X117482520Y-27446760D02*
X115882520Y-27446760D01*
X40477540Y-42950920D02*
X40477540Y-40350920D01*
X42077540Y-42950920D02*
X42077540Y-40350920D01*
X40477540Y-42950920D02*
X42077540Y-42950920D01*
X40477540Y-40350920D02*
X42077540Y-40350920D01*
X192877540Y-42938220D02*
X192877540Y-40338220D01*
X194477540Y-42938220D02*
X194477540Y-40338220D01*
X192877540Y-42938220D02*
X194477540Y-42938220D01*
X192877540Y-40338220D02*
X194477540Y-40338220D01*
X49443740Y-42963620D02*
X49443740Y-40363620D01*
X51043740Y-42963620D02*
X51043740Y-40363620D01*
X49443740Y-42963620D02*
X51043740Y-42963620D01*
X49443740Y-40363620D02*
X51043740Y-40363620D01*
X201843740Y-42963620D02*
X201843740Y-40363620D01*
X203443740Y-42963620D02*
X203443740Y-40363620D01*
X201843740Y-42963620D02*
X203443740Y-42963620D01*
X201843740Y-40363620D02*
X203443740Y-40363620D01*
X-497360Y-34246920D02*
X2102640Y-34246920D01*
X-497360Y-35846920D02*
X2102640Y-35846920D01*
X-497360Y-34246920D02*
X-497360Y-35846920D01*
X2102640Y-34246920D02*
X2102640Y-35846920D01*
X-497360Y-35948720D02*
X2102640Y-35948720D01*
X-497360Y-37548720D02*
X2102640Y-37548720D01*
X-497360Y-35948720D02*
X-497360Y-37548720D01*
X2102640Y-35948720D02*
X2102640Y-37548720D01*
X-497360Y-37650520D02*
X2102640Y-37650520D01*
X-497360Y-39250520D02*
X2102640Y-39250520D01*
X-497360Y-37650520D02*
X-497360Y-39250520D01*
X2102640Y-37650520D02*
X2102640Y-39250520D01*
X75550240Y-34246920D02*
X78150240Y-34246920D01*
X75550240Y-35846920D02*
X78150240Y-35846920D01*
X75550240Y-34246920D02*
X75550240Y-35846920D01*
X78150240Y-34246920D02*
X78150240Y-35846920D01*
X75550240Y-35948720D02*
X78150240Y-35948720D01*
X75550240Y-37548720D02*
X78150240Y-37548720D01*
X75550240Y-35948720D02*
X75550240Y-37548720D01*
X78150240Y-35948720D02*
X78150240Y-37548720D01*
X75550240Y-37650520D02*
X78150240Y-37650520D01*
X75550240Y-39250520D02*
X78150240Y-39250520D01*
X75550240Y-37650520D02*
X75550240Y-39250520D01*
X78150240Y-37650520D02*
X78150240Y-39250520D01*
X151902640Y-34246920D02*
X154502640Y-34246920D01*
X151902640Y-35846920D02*
X154502640Y-35846920D01*
X151902640Y-34246920D02*
X151902640Y-35846920D01*
X154502640Y-34246920D02*
X154502640Y-35846920D01*
X151902640Y-35948720D02*
X154502640Y-35948720D01*
X151902640Y-37548720D02*
X154502640Y-37548720D01*
X151902640Y-35948720D02*
X151902640Y-37548720D01*
X154502640Y-35948720D02*
X154502640Y-37548720D01*
X151902640Y-37650520D02*
X154502640Y-37650520D01*
X151902640Y-39250520D02*
X154502640Y-39250520D01*
X151902640Y-37650520D02*
X151902640Y-39250520D01*
X154502640Y-37650520D02*
X154502640Y-39250520D01*
X228102640Y-34246920D02*
X230702640Y-34246920D01*
X228102640Y-35846920D02*
X230702640Y-35846920D01*
X228102640Y-34246920D02*
X228102640Y-35846920D01*
X230702640Y-34246920D02*
X230702640Y-35846920D01*
X228102640Y-35948720D02*
X230702640Y-35948720D01*
X228102640Y-37548720D02*
X230702640Y-37548720D01*
X228102640Y-35948720D02*
X228102640Y-37548720D01*
X230702640Y-35948720D02*
X230702640Y-37548720D01*
X228102640Y-37650520D02*
X230702640Y-37650520D01*
X228102640Y-39250520D02*
X230702640Y-39250520D01*
X228102640Y-37650520D02*
X228102640Y-39250520D01*
X230702640Y-37650520D02*
X230702640Y-39250520D01*
X163629440Y-37070820D02*
X163629440Y-34470820D01*
X165229440Y-37070820D02*
X165229440Y-34470820D01*
X163629440Y-37070820D02*
X165229440Y-37070820D01*
X163629440Y-34470820D02*
X165229440Y-34470820D01*
X167045540Y-34470820D02*
X167045540Y-37070820D01*
X165445540Y-34470820D02*
X165445540Y-37070820D01*
X167045540Y-34470820D02*
X165445540Y-34470820D01*
X167045540Y-37070820D02*
X165445540Y-37070820D01*
X50792480Y-34060920D02*
X50792480Y-31460920D01*
X52392480Y-34060920D02*
X52392480Y-31460920D01*
X50792480Y-34060920D02*
X52392480Y-34060920D01*
X50792480Y-31460920D02*
X52392480Y-31460920D01*
X203266140Y-34073620D02*
X203266140Y-31473620D01*
X204866140Y-34073620D02*
X204866140Y-31473620D01*
X203266140Y-34073620D02*
X204866140Y-34073620D01*
X203266140Y-31473620D02*
X204866140Y-31473620D01*
X135725100Y-49172220D02*
X135725100Y-44772220D01*
X138925100Y-49172220D02*
X138925100Y-44772220D01*
X135725100Y-49172220D02*
X138925100Y-49172220D01*
X135725100Y-44772220D02*
X138925100Y-44772220D01*
X126501540Y-2152620D02*
X126501540Y-6752620D01*
X124201540Y-2152620D02*
X124201540Y-6752620D01*
X126501540Y-2152620D02*
X124201540Y-2152620D01*
X126501540Y-6752620D02*
X124201540Y-6752620D01*
X97935480Y-25062520D02*
X97935480Y-27962520D01*
X96435480Y-25062520D02*
X96435480Y-27962520D01*
X97935480Y-25062520D02*
X96435480Y-25062520D01*
X97935480Y-27962520D02*
X96435480Y-27962520D01*
X131138800Y-7035760D02*
X134138800Y-7035760D01*
X134138800Y-7035760D02*
X134138800Y-8935760D01*
X131138800Y-8935760D02*
X134138800Y-8935760D01*
X131138800Y-7035760D02*
X131138800Y-8935760D01*
X125892800Y8126600D02*
X125892800Y-1573400D01*
X125892800Y-1573400D02*
X114492800Y-1573400D01*
X114492800Y-1573400D02*
X114492800Y8126600D01*
X114492800Y8126600D02*
X125892800Y8126600D01*
X136292320Y-9626800D02*
X139592320Y-9626800D01*
X139592320Y-9626800D02*
X139592320Y-12826800D01*
X139592320Y-12826800D02*
X136292320Y-12826800D01*
X136292320Y-12826800D02*
X136292320Y-9626800D01*
X136207400Y-7102320D02*
X136207400Y-9702320D01*
X134607400Y-7102320D02*
X134607400Y-9702320D01*
X136207400Y-7102320D02*
X134607400Y-7102320D01*
X136207400Y-9702320D02*
X134607400Y-9702320D01*
X139853160Y-12872520D02*
X139853160Y-9672520D01*
X141853160Y-12872520D02*
X141853160Y-9672520D01*
X139853160Y-12872520D02*
X141853160Y-12872520D01*
X139853160Y-9672520D02*
X141853160Y-9672520D01*
X122506840Y-4998240D02*
X122506840Y-2398240D01*
X124106840Y-4998240D02*
X124106840Y-2398240D01*
X122506840Y-4998240D02*
X124106840Y-4998240D01*
X122506840Y-2398240D02*
X124106840Y-2398240D01*
X102364440Y-32045120D02*
X102364440Y-34645120D01*
X100764440Y-32045120D02*
X100764440Y-34645120D01*
X102364440Y-32045120D02*
X100764440Y-32045120D01*
X102364440Y-34645120D02*
X100764440Y-34645120D01*
X99037240Y-34645120D02*
X99037240Y-32045120D01*
X100637240Y-34645120D02*
X100637240Y-32045120D01*
X99037240Y-34645120D02*
X100637240Y-34645120D01*
X99037240Y-32045120D02*
X100637240Y-32045120D01*
X101594440Y-31909920D02*
X98994440Y-31909920D01*
X101594440Y-30309920D02*
X98994440Y-30309920D01*
X101594440Y-31909920D02*
X101594440Y-30309920D01*
X98994440Y-31909920D02*
X98994440Y-30309920D01*
X119936360Y-4678200D02*
X119936360Y-2078200D01*
X121536360Y-4678200D02*
X121536360Y-2078200D01*
X119936360Y-4678200D02*
X121536360Y-4678200D01*
X119936360Y-2078200D02*
X121536360Y-2078200D01*
X118183760Y-4678200D02*
X118183760Y-2078200D01*
X119783760Y-4678200D02*
X119783760Y-2078200D01*
X118183760Y-4678200D02*
X119783760Y-4678200D01*
X118183760Y-2078200D02*
X119783760Y-2078200D01*
X100710520Y-26565760D02*
X98110520Y-26565760D01*
X100710520Y-24965760D02*
X98110520Y-24965760D01*
X100710520Y-26565760D02*
X100710520Y-24965760D01*
X98110520Y-26565760D02*
X98110520Y-24965760D01*
X98110520Y-26718360D02*
X100710520Y-26718360D01*
X98110520Y-28318360D02*
X100710520Y-28318360D01*
X98110520Y-26718360D02*
X98110520Y-28318360D01*
X100710520Y-26718360D02*
X100710520Y-28318360D01*
X97720900Y-6807640D02*
X97720900Y11542360D01*
X113520900Y-6807640D02*
X113520900Y11542360D01*
X113520900Y11542360D02*
X97720900Y11542360D01*
X113520900Y-6807640D02*
X97720900Y-6807640D01*
X126862320Y-6863520D02*
X126862320Y11486480D01*
X142662320Y-6863520D02*
X142662320Y11486480D01*
X142662320Y11486480D02*
X126862320Y11486480D01*
X142662320Y-6863520D02*
X126862320Y-6863520D01*
X117182960Y-23980080D02*
X125782960Y-23980080D01*
X117182960Y-20480080D02*
X125782960Y-20480080D01*
X117182960Y-23980080D02*
X117182960Y-20480080D01*
X125782960Y-23980080D02*
X125782960Y-20480080D01*
X130860740Y-39401620D02*
X99410740Y-39401620D01*
X130860740Y-51551620D02*
X99410740Y-51551620D01*
X130860740Y-39401620D02*
X130860740Y-51551620D01*
X99410740Y-39401620D02*
X99410740Y-51551620D01*
X117182960Y-20393600D02*
X123232960Y-20393600D01*
X117182960Y-16893600D02*
X123232960Y-16893600D01*
X117182960Y-20393600D02*
X117182960Y-16893600D01*
X123232960Y-20393600D02*
X123232960Y-16893600D01*
X130848040Y-9674920D02*
X99398040Y-9674920D01*
X130848040Y-13174920D02*
X99398040Y-13174920D01*
X130848040Y-9674920D02*
X130848040Y-13174920D01*
X99398040Y-9674920D02*
X99398040Y-13174920D01*
X131493240Y-27908120D02*
X131493240Y-18208120D01*
X131493240Y-18208120D02*
X138793240Y-18208120D01*
X138793240Y-18208120D02*
X138793240Y-27908120D01*
X138793240Y-27908120D02*
X131493240Y-27908120D01*
X131752040Y-36649400D02*
X139652040Y-36649400D01*
X139652040Y-36649400D02*
X139652040Y-42649400D01*
X139652040Y-42649400D02*
X131752040Y-42649400D01*
X131752040Y-42649400D02*
X131752040Y-36649400D01*
M02*
