M48
;DRILL file {KiCad 5.0.2-bee76a0~70~ubuntu18.04.1} date Mon 01 Apr 2019 12:33:25 PM CEST
;FORMAT={-:-/ absolute / inch / decimal}
FMAT,2
INCH,TZ
T1C0.0118
T2C0.0148
T3C0.0177
T4C0.0256
T5C0.0354
T6C0.0400
T7C0.0472
T8C0.0748
T9C0.1260
T10C0.1299
T11C0.1339
%
G90
G05
T1
X-0.0314Y-1.3798
X-0.0314Y-1.4468
X-0.0314Y-1.5138
X0.7726Y-0.7988
X0.8731Y-0.7753
X0.9726Y-0.8217
X1.4203Y-1.4337
X1.4726Y-0.7058
X1.5726Y-0.7523
X1.6746Y-0.6823
X1.7726Y-0.7288
X1.7731Y-1.457
X1.9353Y-1.3774
X2.9391Y-1.4478
X2.9621Y-1.3798
X2.9621Y-1.4143
X3.5565Y-1.5597
X3.6064Y-1.5366
X3.7266Y-1.3048
X3.7491Y-1.1818
X3.8946Y-1.0458
X3.9241Y-1.1723
X3.9621Y-1.1743
X3.9646Y-1.3048
X4.0046Y-1.2538
X4.0061Y-1.1748
X4.0196Y-1.1468
X4.0291Y-1.3138
X4.0531Y-1.3428
X4.0826Y-0.5762
X4.0834Y-0.4292
X4.1256Y-1.0873
X4.1256Y-1.4208
X4.1356Y-1.1173
X4.1381Y-0.9753
X4.1448Y-1.4738
X4.15Y-1.505
X4.1566Y-1.2803
X4.1568Y-1.535
X4.1581Y-1.0738
X4.1581Y-1.3178
X4.1601Y-1.1913
X4.1776Y-0.9748
X4.1816Y-1.2978
X4.1826Y-0.553
X4.1976Y-1.0738
X4.1981Y-0.9518
X4.2336Y-0.3996
X4.2631Y-1.4488
X4.2636Y-1.3053
X4.2836Y-0.37
X4.2931Y-1.4463
X4.2956Y-1.4163
X4.2971Y-1.3053
X4.3026Y-0.7239
X4.3026Y-0.9227
X4.3076Y-1.1098
X4.3291Y-1.1678
X4.3336Y-0.3403
X4.3356Y-1.3053
X4.3381Y-1.1203
X4.3494Y-1.2448
X4.3536Y-1.2023
X4.3556Y-1.1443
X4.3708Y-0.3174
X4.3976Y-0.2342
X4.4038Y-1.3392
X4.4038Y-1.3948
X4.4826Y-0.3996
X4.5636Y-1.1979
X4.5826Y-0.4292
X4.6326Y-0.5762
X4.6406Y-0.2342
X4.6636Y-1.1995
X4.6636Y-1.307
X4.664Y-0.9518
X4.709Y-0.2342
X4.733Y-0.553
X4.7826Y-0.37
X4.795Y-0.3172
X4.8792Y-0.2344
X4.8826Y-0.3402
X5.2308Y-0.4292
X5.3808Y-0.3996
X5.4308Y-0.37
X5.4806Y-0.3406
X5.5406Y-0.3403
X5.9396Y-1.4558
X5.9681Y-1.3798
X5.9686Y-1.4468
X6.1546Y-0.7038
X6.7726Y-0.8783
X6.8726Y-0.8548
X6.9726Y-0.9011
X7.4726Y-0.7858
X7.5726Y-0.8318
X7.6726Y-0.7628
X7.7726Y-0.8088
X7.888Y-1.3377
X8.9685Y-1.5138
X8.9686Y-1.3798
X8.9686Y-1.4468
T2
X0.1576Y-0.2593
X0.5726Y-0.2593
X1.8726Y-0.2593
X5.1148Y-1.7786
X6.2089Y-1.779
X6.5726Y-0.7038
X7.8726Y-0.7038
T3
X4.1336Y-0.131
X5.0826Y-0.131
X5.2808Y-0.131
T4
X3.5064Y-1.629
X3.5064Y-1.679
X3.5564Y-1.629
X3.5564Y-1.679
X3.6064Y-1.629
X3.6064Y-1.679
X3.6564Y-1.629
X3.6564Y-1.679
X3.7064Y-1.629
X3.7064Y-1.679
T5
X4.6454Y0.0955
X4.8186Y0.0955
X3.9835Y-0.2924
X4.0335Y-0.1924
X4.0835Y-0.2924
X4.1335Y-0.1924
X4.1835Y-0.2924
X4.2335Y-0.1924
X4.2835Y-0.2924
X4.3335Y-0.1924
X5.1308Y-0.2946
X5.1808Y-0.1946
X5.2308Y-0.2946
X5.2808Y-0.1946
X5.3308Y-0.2946
X5.3808Y-0.1946
X5.4308Y-0.2946
X5.4808Y-0.1946
T6
X7.7733Y-1.6103
X7.8733Y-1.6103
X1.4203Y-1.6103
X1.5203Y-1.6103
X3.9831Y-1.6103
X4.0831Y-1.6103
X4.1831Y-1.6103
X4.2831Y-1.6103
X4.3831Y-1.6103
X4.4831Y-1.6103
X4.5831Y-1.6103
X4.6831Y-1.6103
X4.7831Y-1.6103
X4.8831Y-1.6103
X4.9831Y-1.6103
X5.0831Y-1.6103
X3.9826Y-0.4893
X4.0826Y-0.4893
X4.1826Y-0.4893
X4.2826Y-0.4893
X4.3826Y-0.4893
X4.4826Y-0.4893
X4.5826Y-0.4893
X4.6826Y-0.4893
X4.7826Y-0.4893
X4.8826Y-0.4893
X4.9826Y-0.4893
X5.0826Y-0.4893
X7.4201Y-1.6098
X7.5201Y-1.6103
X5.4742Y-1.2727
X5.5742Y-1.2727
X5.6742Y-1.2727
X1.7731Y-1.6103
X1.8731Y-1.6103
T7
X0.4726Y0.1772
X0.5726Y0.1772
X0.6726Y0.1772
X0.7726Y0.1772
X0.8726Y0.1772
X0.9726Y0.1772
X1.0726Y0.1772
X1.1726Y0.1772
X1.2726Y0.1772
X1.3726Y0.1772
X1.4726Y0.1772
X1.5726Y0.1772
X1.6726Y0.1772
X1.7726Y0.1772
X1.8726Y0.1772
X1.9726Y0.1772
X6.4726Y0.1772
X6.5726Y0.1772
X6.6726Y0.1772
X6.7726Y0.1772
X6.8726Y0.1772
X6.9726Y0.1772
X7.0726Y0.1772
X7.1726Y0.1772
X7.2726Y0.1772
X7.3726Y0.1772
X7.4726Y0.1772
X7.5726Y0.1772
X7.6726Y0.1772
X7.7726Y0.1772
X7.8726Y0.1772
X7.9726Y0.1772
T8
X5.7347Y0.095
X5.7347Y-0.1018
X6.03Y0.0951
X6.03Y-0.1018
X3.4347Y0.0951
X3.4347Y-0.1018
X3.73Y0.0951
X3.73Y-0.1018
T9
X4.392Y0.0576
X5.5393Y0.0554
T10
X3.9247Y0.0576
X5.072Y0.0554
T11
X5.9607Y-1.1417
X3.504Y-1.1417
X0.Y0.
X0.0001Y-1.8699
X0.2561Y0.1772
X0.2561Y-1.0433
X3.2088Y0.1772
X3.2088Y-1.0433
X9.4646Y-1.8699
X9.4646Y0.
X6.2561Y0.1772
X6.2561Y-1.0433
X9.2088Y0.1772
X9.2088Y-1.0433
T0
M30
