G04 #@! TF.GenerationSoftware,KiCad,Pcbnew,5.0.2-bee76a0~70~ubuntu18.04.1*
G04 #@! TF.CreationDate,2019-03-18T11:53:55+01:00*
G04 #@! TF.ProjectId,footswitch,666f6f74-7377-4697-9463-682e6b696361,rev?*
G04 #@! TF.SameCoordinates,PX1ae5c80PY3d0c318*
G04 #@! TF.FileFunction,Legend,Bot*
G04 #@! TF.FilePolarity,Positive*
%FSLAX46Y46*%
G04 Gerber Fmt 4.6, Leading zero omitted, Abs format (unit mm)*
G04 Created by KiCad (PCBNEW 5.0.2-bee76a0~70~ubuntu18.04.1) date Mon 18 Mar 2019 11:53:55 AM CET*
%MOMM*%
%LPD*%
G01*
G04 APERTURE LIST*
%ADD10C,0.150000*%
%ADD11C,0.100000*%
G04 APERTURE END LIST*
D10*
G04 #@! TO.C,P2*
X187200540Y-42425620D02*
X189740540Y-42425620D01*
X189740540Y-42425620D02*
X189740540Y-44965620D01*
X188216540Y-44965620D02*
X188216540Y-51061620D01*
X188216540Y-51061620D02*
X188724540Y-51061620D01*
X188724540Y-51061620D02*
X188724540Y-44965620D01*
X189740540Y-44965620D02*
X187200540Y-44965620D01*
X192280540Y-44965620D02*
X189740540Y-44965620D01*
X191264540Y-51061620D02*
X191264540Y-44965620D01*
X190756540Y-51061620D02*
X191264540Y-51061620D01*
X190756540Y-44965620D02*
X190756540Y-51061620D01*
X192280540Y-42425620D02*
X192280540Y-44965620D01*
X189740540Y-42425620D02*
X192280540Y-42425620D01*
X189740540Y-42425620D02*
X189740540Y-44965620D01*
X187200540Y-42425620D02*
X187200540Y-44965620D01*
X191264540Y-42425620D02*
X191264540Y-42044620D01*
X190756540Y-42425620D02*
X190756540Y-42044620D01*
X188724540Y-42425620D02*
X188724540Y-42044620D01*
X188216540Y-42425620D02*
X188216540Y-42044620D01*
X188470540Y-45092620D02*
X188470540Y-50934620D01*
X188597540Y-45092620D02*
X188470540Y-45092620D01*
X188597540Y-50934620D02*
X188597540Y-45092620D01*
X188343540Y-50934620D02*
X188597540Y-50934620D01*
X188343540Y-45092620D02*
X188343540Y-50934620D01*
X186920540Y-40901620D02*
X186920540Y-39601620D01*
X186920540Y-39601620D02*
X188470540Y-39601620D01*
G04 #@! TO.C,P5*
X196171820Y-42425620D02*
X198711820Y-42425620D01*
X198711820Y-42425620D02*
X198711820Y-44965620D01*
X197187820Y-44965620D02*
X197187820Y-51061620D01*
X197187820Y-51061620D02*
X197695820Y-51061620D01*
X197695820Y-51061620D02*
X197695820Y-44965620D01*
X198711820Y-44965620D02*
X196171820Y-44965620D01*
X201251820Y-44965620D02*
X198711820Y-44965620D01*
X200235820Y-51061620D02*
X200235820Y-44965620D01*
X199727820Y-51061620D02*
X200235820Y-51061620D01*
X199727820Y-44965620D02*
X199727820Y-51061620D01*
X201251820Y-42425620D02*
X201251820Y-44965620D01*
X198711820Y-42425620D02*
X201251820Y-42425620D01*
X198711820Y-42425620D02*
X198711820Y-44965620D01*
X196171820Y-42425620D02*
X196171820Y-44965620D01*
X200235820Y-42425620D02*
X200235820Y-42044620D01*
X199727820Y-42425620D02*
X199727820Y-42044620D01*
X197695820Y-42425620D02*
X197695820Y-42044620D01*
X197187820Y-42425620D02*
X197187820Y-42044620D01*
X197441820Y-45092620D02*
X197441820Y-50934620D01*
X197568820Y-45092620D02*
X197441820Y-45092620D01*
X197568820Y-50934620D02*
X197568820Y-45092620D01*
X197314820Y-50934620D02*
X197568820Y-50934620D01*
X197314820Y-45092620D02*
X197314820Y-50934620D01*
X195891820Y-40901620D02*
X195891820Y-39601620D01*
X195891820Y-39601620D02*
X197441820Y-39601620D01*
G04 #@! TO.C,P4*
X43766740Y-42425620D02*
X46306740Y-42425620D01*
X46306740Y-42425620D02*
X46306740Y-44965620D01*
X44782740Y-44965620D02*
X44782740Y-51061620D01*
X44782740Y-51061620D02*
X45290740Y-51061620D01*
X45290740Y-51061620D02*
X45290740Y-44965620D01*
X46306740Y-44965620D02*
X43766740Y-44965620D01*
X48846740Y-44965620D02*
X46306740Y-44965620D01*
X47830740Y-51061620D02*
X47830740Y-44965620D01*
X47322740Y-51061620D02*
X47830740Y-51061620D01*
X47322740Y-44965620D02*
X47322740Y-51061620D01*
X48846740Y-42425620D02*
X48846740Y-44965620D01*
X46306740Y-42425620D02*
X48846740Y-42425620D01*
X46306740Y-42425620D02*
X46306740Y-44965620D01*
X43766740Y-42425620D02*
X43766740Y-44965620D01*
X47830740Y-42425620D02*
X47830740Y-42044620D01*
X47322740Y-42425620D02*
X47322740Y-42044620D01*
X45290740Y-42425620D02*
X45290740Y-42044620D01*
X44782740Y-42425620D02*
X44782740Y-42044620D01*
X45036740Y-45092620D02*
X45036740Y-50934620D01*
X45163740Y-45092620D02*
X45036740Y-45092620D01*
X45163740Y-50934620D02*
X45163740Y-45092620D01*
X44909740Y-50934620D02*
X45163740Y-50934620D01*
X44909740Y-45092620D02*
X44909740Y-50934620D01*
X43486740Y-40901620D02*
X43486740Y-39601620D01*
X43486740Y-39601620D02*
X45036740Y-39601620D01*
G04 #@! TO.C,P1*
X34805620Y-42425620D02*
X37345620Y-42425620D01*
X37345620Y-42425620D02*
X37345620Y-44965620D01*
X35821620Y-44965620D02*
X35821620Y-51061620D01*
X35821620Y-51061620D02*
X36329620Y-51061620D01*
X36329620Y-51061620D02*
X36329620Y-44965620D01*
X37345620Y-44965620D02*
X34805620Y-44965620D01*
X39885620Y-44965620D02*
X37345620Y-44965620D01*
X38869620Y-51061620D02*
X38869620Y-44965620D01*
X38361620Y-51061620D02*
X38869620Y-51061620D01*
X38361620Y-44965620D02*
X38361620Y-51061620D01*
X39885620Y-42425620D02*
X39885620Y-44965620D01*
X37345620Y-42425620D02*
X39885620Y-42425620D01*
X37345620Y-42425620D02*
X37345620Y-44965620D01*
X34805620Y-42425620D02*
X34805620Y-44965620D01*
X38869620Y-42425620D02*
X38869620Y-42044620D01*
X38361620Y-42425620D02*
X38361620Y-42044620D01*
X36329620Y-42425620D02*
X36329620Y-42044620D01*
X35821620Y-42425620D02*
X35821620Y-42044620D01*
X36075620Y-45092620D02*
X36075620Y-50934620D01*
X36202620Y-45092620D02*
X36075620Y-45092620D01*
X36202620Y-50934620D02*
X36202620Y-45092620D01*
X35948620Y-50934620D02*
X36202620Y-50934620D01*
X35948620Y-45092620D02*
X35948620Y-50934620D01*
X34525620Y-40901620D02*
X34525620Y-39601620D01*
X34525620Y-39601620D02*
X36075620Y-39601620D01*
G04 #@! TO.C,P2*
D11*
X188987206Y-39262486D02*
X188987206Y-38562486D01*
X188720540Y-38562486D01*
X188653873Y-38595820D01*
X188620540Y-38629153D01*
X188587206Y-38695820D01*
X188587206Y-38795820D01*
X188620540Y-38862486D01*
X188653873Y-38895820D01*
X188720540Y-38929153D01*
X188987206Y-38929153D01*
X188320540Y-38629153D02*
X188287206Y-38595820D01*
X188220540Y-38562486D01*
X188053873Y-38562486D01*
X187987206Y-38595820D01*
X187953873Y-38629153D01*
X187920540Y-38695820D01*
X187920540Y-38762486D01*
X187953873Y-38862486D01*
X188353873Y-39262486D01*
X187920540Y-39262486D01*
G04 #@! TO.C,P5*
X197958486Y-39262486D02*
X197958486Y-38562486D01*
X197691820Y-38562486D01*
X197625153Y-38595820D01*
X197591820Y-38629153D01*
X197558486Y-38695820D01*
X197558486Y-38795820D01*
X197591820Y-38862486D01*
X197625153Y-38895820D01*
X197691820Y-38929153D01*
X197958486Y-38929153D01*
X196925153Y-38562486D02*
X197258486Y-38562486D01*
X197291820Y-38895820D01*
X197258486Y-38862486D01*
X197191820Y-38829153D01*
X197025153Y-38829153D01*
X196958486Y-38862486D01*
X196925153Y-38895820D01*
X196891820Y-38962486D01*
X196891820Y-39129153D01*
X196925153Y-39195820D01*
X196958486Y-39229153D01*
X197025153Y-39262486D01*
X197191820Y-39262486D01*
X197258486Y-39229153D01*
X197291820Y-39195820D01*
G04 #@! TO.C,P4*
X45553406Y-39237086D02*
X45553406Y-38537086D01*
X45286740Y-38537086D01*
X45220073Y-38570420D01*
X45186740Y-38603753D01*
X45153406Y-38670420D01*
X45153406Y-38770420D01*
X45186740Y-38837086D01*
X45220073Y-38870420D01*
X45286740Y-38903753D01*
X45553406Y-38903753D01*
X44553406Y-38770420D02*
X44553406Y-39237086D01*
X44720073Y-38503753D02*
X44886740Y-39003753D01*
X44453406Y-39003753D01*
G04 #@! TO.C,P1*
X36566886Y-39160886D02*
X36566886Y-38460886D01*
X36300220Y-38460886D01*
X36233553Y-38494220D01*
X36200220Y-38527553D01*
X36166886Y-38594220D01*
X36166886Y-38694220D01*
X36200220Y-38760886D01*
X36233553Y-38794220D01*
X36300220Y-38827553D01*
X36566886Y-38827553D01*
X35500220Y-39160886D02*
X35900220Y-39160886D01*
X35700220Y-39160886D02*
X35700220Y-38460886D01*
X35766886Y-38560886D01*
X35833553Y-38627553D01*
X35900220Y-38660886D01*
G04 #@! TD*
M02*
