G04 #@! TF.FileFunction,Copper,L2,Bot,Signal*
%FSLAX46Y46*%
G04 Gerber Fmt 4.6, Leading zero omitted, Abs format (unit mm)*
G04 Created by KiCad (PCBNEW 4.0.1-stable) date Thu 16 Jun 2016 07:21:35 PM CEST*
%MOMM*%
G01*
G04 APERTURE LIST*
%ADD10C,0.100000*%
%ADD11O,1.800000X2.600000*%
%ADD12C,3.400000*%
%ADD13R,1.050000X1.050000*%
%ADD14C,1.050000*%
%ADD15R,2.032000X2.032000*%
%ADD16O,2.032000X2.032000*%
%ADD17C,1.900000*%
%ADD18C,0.899160*%
%ADD19C,3.300000*%
%ADD20C,3.200000*%
%ADD21R,1.501140X1.501140*%
%ADD22C,1.501140*%
%ADD23R,1.727200X2.032000*%
%ADD24O,1.727200X2.032000*%
%ADD25C,0.600000*%
%ADD26C,0.750000*%
%ADD27C,0.900000*%
%ADD28C,0.304800*%
%ADD29C,0.254000*%
%ADD30C,0.381000*%
%ADD31C,0.508000*%
G04 APERTURE END LIST*
D10*
D11*
X12004040Y4500880D03*
X14544040Y4500880D03*
X17084040Y4500880D03*
X19624040Y4500880D03*
X22164040Y4500880D03*
X24704040Y4500880D03*
X27244040Y4500880D03*
X29784040Y4500880D03*
X32324040Y4500880D03*
X34864040Y4500880D03*
X37404040Y4500880D03*
X39944040Y4500880D03*
X42484040Y4500880D03*
X45024040Y4500880D03*
X47564040Y4500880D03*
X50104040Y4500880D03*
D12*
X6504940Y4500880D03*
X6504940Y-26499820D03*
X81503520Y-26499820D03*
X81503520Y4500880D03*
D13*
X89062560Y-42646600D03*
D14*
X90332560Y-42646600D03*
X91602560Y-42646600D03*
X92872560Y-42646600D03*
X94142560Y-42646600D03*
X90332560Y-41376600D03*
X91602560Y-41376600D03*
X92872560Y-41376600D03*
X94142560Y-41376600D03*
X89062560Y-41376600D03*
D15*
X38615620Y-40901620D03*
D16*
X36075620Y-40901620D03*
D15*
X191010540Y-40888920D03*
D16*
X188470540Y-40901620D03*
D15*
X47576740Y-40901620D03*
D16*
X45036740Y-40901620D03*
D15*
X199981820Y-40901620D03*
D16*
X197441820Y-40901620D03*
D12*
X89001600Y-28999180D03*
X2540Y-47495460D03*
X151401780Y-28999180D03*
X240400840Y0D03*
X240400840Y-47495460D03*
D17*
X153161380Y-2584460D03*
X145661380Y-2584460D03*
X153161380Y2415540D03*
X145661380Y2413000D03*
X94741380Y-2584460D03*
X87241380Y-2584460D03*
X94741380Y2415540D03*
X87241380Y2415540D03*
D12*
X0Y0D03*
D11*
X164404040Y4500880D03*
X166944040Y4500880D03*
X169484040Y4500880D03*
X172024040Y4500880D03*
X174564040Y4500880D03*
X177104040Y4500880D03*
X179644040Y4500880D03*
X182184040Y4500880D03*
X184724040Y4500880D03*
X187264040Y4500880D03*
X189804040Y4500880D03*
X192344040Y4500880D03*
X194884040Y4500880D03*
X197424040Y4500880D03*
X199964040Y4500880D03*
X202504040Y4500880D03*
D12*
X158904940Y4500880D03*
X158904940Y-26499820D03*
X233903520Y-26499820D03*
X233903520Y4500880D03*
D18*
X122392440Y2425700D03*
X117993160Y2425700D03*
D19*
X99687380Y3642360D03*
D20*
X111556800Y3642360D03*
D21*
X110070900Y-2707640D03*
D22*
X108800900Y-5247640D03*
X107530900Y-2707640D03*
X106260900Y-5247640D03*
X104990900Y-2707640D03*
X103720900Y-5247640D03*
X102450900Y-2707640D03*
X101180900Y-5247640D03*
D19*
X128828800Y3586480D03*
D20*
X140698220Y3586480D03*
D21*
X139212320Y-2763520D03*
D22*
X137942320Y-5303520D03*
X136672320Y-2763520D03*
X135402320Y-5303520D03*
X134132320Y-2763520D03*
X132862320Y-5303520D03*
X131592320Y-2763520D03*
X130322320Y-5303520D03*
D23*
X118932960Y-22230080D03*
D24*
X121472960Y-22230080D03*
X124012960Y-22230080D03*
D23*
X129110740Y-40901620D03*
D24*
X126570740Y-40901620D03*
X124030740Y-40901620D03*
X121490740Y-40901620D03*
X118950740Y-40901620D03*
X116410740Y-40901620D03*
X113870740Y-40901620D03*
X111330740Y-40901620D03*
X108790740Y-40901620D03*
X106250740Y-40901620D03*
X103710740Y-40901620D03*
X101170740Y-40901620D03*
D15*
X118932960Y-18643600D03*
D16*
X121472960Y-18643600D03*
D23*
X129098040Y-11424920D03*
D24*
X126558040Y-11424920D03*
X124018040Y-11424920D03*
X121478040Y-11424920D03*
X118938040Y-11424920D03*
X116398040Y-11424920D03*
X113858040Y-11424920D03*
X111318040Y-11424920D03*
X108778040Y-11424920D03*
X106238040Y-11424920D03*
X103698040Y-11424920D03*
X101158040Y-11424920D03*
D25*
X97185480Y-28996640D03*
X101147880Y-28996640D03*
X108864400Y-23525480D03*
X113908840Y-30927040D03*
X117185440Y-32039560D03*
X120995440Y-32039560D03*
X140187680Y-31541720D03*
X137535920Y-30434280D03*
D26*
X119888000Y-5908040D03*
X117678200Y-5948680D03*
X140299440Y-44267120D03*
X140299440Y-40038020D03*
X143906240Y-40038020D03*
X97284540Y-44267120D03*
D25*
X115839240Y-30368240D03*
X123535440Y-30368240D03*
X113324640Y-24175720D03*
X106631740Y-24175720D03*
D26*
X202656440Y-44267120D03*
X193664840Y-44267120D03*
X50256440Y-44267120D03*
X41264840Y-44267120D03*
X47564040Y-6586220D03*
X14544040Y-6586220D03*
X4003040Y-6586220D03*
X199964040Y-17876520D03*
D25*
X116677440Y-24175720D03*
X139867640Y-24175720D03*
D26*
X135143240Y-17863820D03*
X130571240Y-17876520D03*
X143906240Y-17876520D03*
X158015940Y-44267120D03*
X83530440Y-44254420D03*
X14556740Y-35656520D03*
X8790940Y-35656520D03*
X236057440Y-44254420D03*
X14544040Y-44267120D03*
D25*
X156326840Y-17876520D03*
D26*
X166944040Y-17876520D03*
D25*
X106009440Y-31252160D03*
X107533440Y-42814240D03*
X107533440Y-39202360D03*
X117434360Y-23591520D03*
X109616240Y-23591520D03*
X17084040Y-20886420D03*
X169484040Y-22893020D03*
X172024040Y-22308820D03*
X105044240Y-28379420D03*
X19624040Y-20289520D03*
X174564040Y-21711920D03*
X104790240Y-27617420D03*
X22176740Y-19692620D03*
X109413040Y-28188920D03*
X24704040Y-21483320D03*
X37404040Y-17927320D03*
X189804040Y-19959320D03*
X105107740Y-24772620D03*
X39944040Y-19108420D03*
X192344040Y-21127720D03*
X105615740Y-27274520D03*
X42534840Y-17330420D03*
X194884040Y-19375120D03*
X106111040Y-24759920D03*
X45024040Y-18511520D03*
X197424040Y-20543520D03*
X106619040Y-27274520D03*
X110187740Y-28455620D03*
X177104040Y-23477220D03*
X111038640Y-32710120D03*
X118460520Y-33213040D03*
X122265440Y-33319720D03*
X112214660Y-33822640D03*
X115310920Y-30993080D03*
X119715280Y-30998160D03*
X90332560Y-39613840D03*
X105582720Y-38989000D03*
X91602560Y-39029640D03*
X105410000Y-38227000D03*
X112608360Y-43611800D03*
X87762080Y-43611800D03*
X38623240Y-36418520D03*
X101259640Y-33345120D03*
X109956600Y-29682440D03*
X47576740Y-37002720D03*
X102948740Y-34107120D03*
X109692440Y-30764480D03*
X110484920Y-31165800D03*
X163235640Y-33700720D03*
X49100740Y-33903920D03*
X101716840Y-31846520D03*
X201475340Y-33916620D03*
X110632240Y-29065220D03*
X99415600Y-27518360D03*
X102229920Y-28122880D03*
X95488760Y-26695400D03*
D26*
X108788200Y-42814240D03*
X131109720Y-42814240D03*
D25*
X132862320Y-9596120D03*
X116398040Y-9596120D03*
X103723440Y-9596120D03*
X137942320Y-8427720D03*
X121478040Y-8427720D03*
X108803440Y-8427720D03*
X136672320Y-9011920D03*
X113858040Y-9011920D03*
X107533440Y-9011920D03*
X140853160Y-7848600D03*
X110073440Y-7848600D03*
X139212320Y-7848600D03*
X124018040Y-7848600D03*
X108778040Y-14442440D03*
X122748040Y-14442440D03*
X140208000Y-34759900D03*
X132908040Y-33919160D03*
X128417320Y-34274760D03*
X136535160Y-34757360D03*
X133858000Y-34757360D03*
X138109960Y-34757360D03*
D27*
X133522720Y-42372280D03*
D25*
X138432540Y-31452820D03*
X126570740Y-31452820D03*
X130266440Y-32125920D03*
X135968740Y-32125920D03*
X98694240Y-31109920D03*
X96245680Y-31109920D03*
X104790240Y-36088320D03*
X-797560Y-35046920D03*
X105615740Y-33472120D03*
X-797560Y-36748720D03*
X105277920Y-37434520D03*
X-797560Y-38450520D03*
X75237340Y-35046920D03*
X101754940Y-29839920D03*
X102097840Y-29128720D03*
X75237340Y-35923220D03*
X105361740Y-30614620D03*
X74653140Y-36774120D03*
X151589740Y-35046920D03*
X109794040Y-32583120D03*
X151602440Y-36748720D03*
X109095540Y-32887920D03*
X150865840Y-36977320D03*
X108460540Y-33332420D03*
X109108240Y-35974020D03*
X227802440Y-35046920D03*
X109044740Y-36736020D03*
X227802440Y-36748720D03*
X108282740Y-36799520D03*
X227799900Y-38450520D03*
X120202960Y-13858240D03*
X106238040Y-13863320D03*
X117668040Y-13279120D03*
X103698040Y-13279120D03*
D27*
X129098040Y-1320800D03*
D28*
X101147880Y-28996640D02*
X97185480Y-28996640D01*
D29*
X116713000Y-22230080D02*
X118932960Y-22230080D01*
X115935760Y-23007320D02*
X116713000Y-22230080D01*
X109382560Y-23007320D02*
X115935760Y-23007320D01*
X108864400Y-23525480D02*
X109382560Y-23007320D01*
X115021360Y-32039560D02*
X117185440Y-32039560D01*
X113908840Y-30927040D02*
X115021360Y-32039560D01*
X120995440Y-32039560D02*
X117185440Y-32039560D01*
D28*
X139080240Y-30434280D02*
X140187680Y-31541720D01*
X137535920Y-30434280D02*
X139080240Y-30434280D01*
X119888000Y-5908040D02*
X119888000Y-5948680D01*
X119888000Y-5948680D02*
X119888000Y-5908040D01*
X119888000Y-5908040D02*
X119888000Y-5948680D01*
D30*
X117678200Y-5948680D02*
X119888000Y-5948680D01*
X119888000Y-5948680D02*
X127619760Y-5948680D01*
X128264920Y-5303520D02*
X130322320Y-5303520D01*
X127619760Y-5948680D02*
X128264920Y-5303520D01*
X143906240Y-40038020D02*
X140299440Y-40038020D01*
D29*
X115839240Y-30368240D02*
X123535440Y-30368240D01*
X113324640Y-24175720D02*
X113426240Y-24175720D01*
X106631740Y-24175720D02*
X113426240Y-24175720D01*
D30*
X14544040Y-6586220D02*
X47564040Y-6586220D01*
X4003040Y-6586220D02*
X14544040Y-6586220D01*
X166944040Y-17876520D02*
X199964040Y-17876520D01*
D29*
X113426240Y-24175720D02*
X116677440Y-24175720D01*
X116677440Y-24175720D02*
X139867640Y-24175720D01*
D30*
X135143240Y-17863820D02*
X135143240Y-17876520D01*
X135143240Y-17876520D02*
X135143240Y-17863820D01*
X135143240Y-17863820D02*
X135143240Y-17876520D01*
X143906240Y-17876520D02*
X135143240Y-17876520D01*
X135143240Y-17876520D02*
X130571240Y-17876520D01*
X156326840Y-17876520D02*
X143906240Y-17876520D01*
X8790940Y-35656520D02*
X14556740Y-35656520D01*
X158015940Y-44267120D02*
X193664840Y-44267120D01*
X193664840Y-44267120D02*
X202656440Y-44267120D01*
X202656440Y-44267120D02*
X236057440Y-44254420D01*
X83530440Y-44254420D02*
X97284540Y-44267120D01*
X97284540Y-44267120D02*
X140299440Y-44267120D01*
X140299440Y-44267120D02*
X158015940Y-44267120D01*
X14544040Y-44267120D02*
X41264840Y-44267120D01*
X41264840Y-44267120D02*
X50256440Y-44267120D01*
X50256440Y-44267120D02*
X83530440Y-44254420D01*
X166944040Y-17876520D02*
X156326840Y-17876520D01*
D29*
X94142560Y-41376600D02*
X99278440Y-41376600D01*
X99278440Y-41376600D02*
X100716080Y-42814240D01*
X100716080Y-42814240D02*
X107533440Y-42814240D01*
X106009440Y-31252160D02*
X106009440Y-32415480D01*
X106258360Y-37927280D02*
X106258360Y-32664400D01*
X107533440Y-39202360D02*
X106258360Y-37927280D01*
X106009440Y-32415480D02*
X106258360Y-32664400D01*
X109616240Y-23591520D02*
X117434360Y-23591520D01*
X17084040Y-20886420D02*
X81587340Y-20886420D01*
X81587340Y-20886420D02*
X86375240Y-25674320D01*
X86375240Y-25674320D02*
X102212140Y-25674320D01*
X102212140Y-25674320D02*
X103672640Y-27134820D01*
X103672640Y-27134820D02*
X103672640Y-28036520D01*
X103672640Y-28036520D02*
X104815640Y-29179520D01*
X104815640Y-29179520D02*
X107571540Y-29179520D01*
X107571540Y-29179520D02*
X109159040Y-27592020D01*
X109159040Y-27592020D02*
X147449540Y-27592020D01*
X147449540Y-27592020D02*
X152148540Y-22893020D01*
X152148540Y-22893020D02*
X169484040Y-22893020D01*
X105044240Y-28379420D02*
X105425240Y-28760420D01*
X152148540Y-22308820D02*
X172024040Y-22308820D01*
X147284440Y-27172920D02*
X152148540Y-22308820D01*
X108981240Y-27172920D02*
X147284440Y-27172920D01*
X107393740Y-28760420D02*
X108981240Y-27172920D01*
X105425240Y-28760420D02*
X107393740Y-28760420D01*
X105044240Y-28379420D02*
X104612440Y-28379420D01*
X81587340Y-20289520D02*
X19624040Y-20289520D01*
X86553040Y-25255220D02*
X81587340Y-20289520D01*
X102389940Y-25255220D02*
X86553040Y-25255220D01*
X104104440Y-26969720D02*
X102389940Y-25255220D01*
X104104440Y-27871420D02*
X104104440Y-26969720D01*
X104612440Y-28379420D02*
X104104440Y-27871420D01*
X104790240Y-27617420D02*
X105133140Y-27617420D01*
X105844340Y-28328620D02*
X107215940Y-28328620D01*
X105133140Y-27617420D02*
X105844340Y-28328620D01*
X107215940Y-28328620D02*
X108778040Y-26766520D01*
X108778040Y-26766520D02*
X147093940Y-26766520D01*
X147093940Y-26766520D02*
X152148540Y-21711920D01*
X152148540Y-21711920D02*
X174564040Y-21711920D01*
X107215940Y-28328620D02*
X108778040Y-26766520D01*
X104790240Y-27617420D02*
X104790240Y-27045920D01*
X81587340Y-19692620D02*
X22176740Y-19692620D01*
X86718140Y-24823420D02*
X81587340Y-19692620D01*
X102567740Y-24823420D02*
X86718140Y-24823420D01*
X104790240Y-27045920D02*
X102567740Y-24823420D01*
X86210140Y-26106120D02*
X102047040Y-26106120D01*
X108003340Y-29598620D02*
X109413040Y-28188920D01*
X104637840Y-29598620D02*
X108003340Y-29598620D01*
X103253540Y-28214320D02*
X104637840Y-29598620D01*
X103253540Y-27312620D02*
X103253540Y-28214320D01*
X102047040Y-26106120D02*
X103253540Y-27312620D01*
X81587340Y-21483320D02*
X24704040Y-21483320D01*
X86210140Y-26106120D02*
X81587340Y-21483320D01*
X105107740Y-24772620D02*
X105679240Y-25344120D01*
X105679240Y-25344120D02*
X146725640Y-25344120D01*
X152110440Y-19959320D02*
X189804040Y-19959320D01*
X146725640Y-25344120D02*
X152110440Y-19959320D01*
X105107740Y-24772620D02*
X103901240Y-23566120D01*
X81612740Y-17927320D02*
X37404040Y-17927320D01*
X87251540Y-23566120D02*
X81612740Y-17927320D01*
X103901240Y-23566120D02*
X87251540Y-23566120D01*
X105615740Y-27274520D02*
X106250740Y-27909520D01*
X106250740Y-27909520D02*
X107050840Y-27909520D01*
X107050840Y-27909520D02*
X108625640Y-26334720D01*
X108625640Y-26334720D02*
X146928840Y-26334720D01*
X146928840Y-26334720D02*
X152135840Y-21127720D01*
X152135840Y-21127720D02*
X192344040Y-21127720D01*
X107050840Y-27909520D02*
X108625640Y-26334720D01*
X106250740Y-27909520D02*
X107050840Y-27909520D01*
X105615740Y-27274520D02*
X102745540Y-24404320D01*
X81600040Y-19108420D02*
X39944040Y-19108420D01*
X86895940Y-24404320D02*
X81600040Y-19108420D01*
X102745540Y-24404320D02*
X86895940Y-24404320D01*
X107050840Y-27909520D02*
X108625640Y-26334720D01*
X106250740Y-27909520D02*
X107050840Y-27909520D01*
X106111040Y-24759920D02*
X146712940Y-24759920D01*
X152097740Y-19375120D02*
X194884040Y-19375120D01*
X146712940Y-24759920D02*
X152097740Y-19375120D01*
X106111040Y-24759920D02*
X104498140Y-23147020D01*
X81612740Y-17330420D02*
X42534840Y-17330420D01*
X87429340Y-23147020D02*
X81612740Y-17330420D01*
X104498140Y-23147020D02*
X87429340Y-23147020D01*
X106619040Y-27274520D02*
X108028740Y-25864820D01*
X108028740Y-25864820D02*
X146801840Y-25864820D01*
X152123140Y-20543520D02*
X197424040Y-20543520D01*
X146801840Y-25864820D02*
X152123140Y-20543520D01*
X106619040Y-27274520D02*
X103329740Y-23985220D01*
X81612740Y-18511520D02*
X45024040Y-18511520D01*
X87086440Y-23985220D02*
X81612740Y-18511520D01*
X103329740Y-23985220D02*
X87086440Y-23985220D01*
X110187740Y-28455620D02*
X110632240Y-28011120D01*
X110632240Y-28011120D02*
X147614640Y-28011120D01*
X147614640Y-28011120D02*
X152148540Y-23477220D01*
X152148540Y-23477220D02*
X177104040Y-23477220D01*
D28*
X118460520Y-33213040D02*
X112659160Y-33213040D01*
X112161320Y-32715200D02*
X111043720Y-32715200D01*
X112659160Y-33213040D02*
X112161320Y-32715200D01*
X111043720Y-32715200D02*
X111038640Y-32710120D01*
X112214660Y-33822640D02*
X121762520Y-33822640D01*
X121762520Y-33822640D02*
X122265440Y-33319720D01*
D29*
X115310920Y-30993080D02*
X119715280Y-30998160D01*
X92207080Y-39613840D02*
X90332560Y-39613840D01*
X92532200Y-39288720D02*
X92207080Y-39613840D01*
X105283000Y-39288720D02*
X92532200Y-39288720D01*
X105582720Y-38989000D02*
X105283000Y-39288720D01*
X105410000Y-38227000D02*
X104769920Y-38867080D01*
X92298520Y-38867080D02*
X92135960Y-39029640D01*
X104769920Y-38867080D02*
X92298520Y-38867080D01*
X92135960Y-39029640D02*
X91602560Y-39029640D01*
X87762080Y-43611800D02*
X112608360Y-43611800D01*
X101259640Y-33345120D02*
X101259640Y-34782760D01*
X75890120Y-33969960D02*
X74180700Y-33969960D01*
X77393800Y-35473640D02*
X75890120Y-33969960D01*
X100568760Y-35473640D02*
X77393800Y-35473640D01*
X101259640Y-34782760D02*
X100568760Y-35473640D01*
X71732140Y-36418520D02*
X38623240Y-36418520D01*
X74180700Y-33969960D02*
X71732140Y-36418520D01*
X109956600Y-29682440D02*
X107254040Y-32385000D01*
X107254040Y-32385000D02*
X107254040Y-37218620D01*
X189423040Y-39301420D02*
X191010540Y-40888920D01*
X107254040Y-37218620D02*
X109336840Y-39301420D01*
X109336840Y-39301420D02*
X189423040Y-39301420D01*
X102948740Y-34107120D02*
X102948740Y-35313620D01*
X74315320Y-34432240D02*
X71744840Y-37002720D01*
X75752960Y-34432240D02*
X74315320Y-34432240D01*
X77221080Y-35900360D02*
X75752960Y-34432240D01*
X102362000Y-35900360D02*
X77221080Y-35900360D01*
X102948740Y-35313620D02*
X102362000Y-35900360D01*
X71744840Y-37002720D02*
X47576740Y-37002720D01*
X107673140Y-32783780D02*
X107673140Y-37015420D01*
X109692440Y-30764480D02*
X107673140Y-32783780D01*
X197949820Y-38869620D02*
X109527340Y-38869620D01*
X109527340Y-38869620D02*
X107673140Y-37015420D01*
X199981820Y-40901620D02*
X197949820Y-38869620D01*
X113085880Y-31165800D02*
X114548920Y-32628840D01*
X110484920Y-31165800D02*
X113085880Y-31165800D01*
X122478800Y-32628840D02*
X123159520Y-33309560D01*
X123159520Y-33309560D02*
X161427160Y-33309560D01*
X161427160Y-33309560D02*
X161818320Y-33700720D01*
X161818320Y-33700720D02*
X163235640Y-33700720D01*
X114548920Y-32628840D02*
X122478800Y-32628840D01*
D28*
X49100740Y-33903920D02*
X51158140Y-31846520D01*
X51158140Y-31846520D02*
X101716840Y-31846520D01*
D29*
X110632240Y-29065220D02*
X123060460Y-29065220D01*
X126852680Y-32872680D02*
X126852680Y-32875220D01*
X126855220Y-32875220D02*
X126852680Y-32872680D01*
X126870460Y-32875220D02*
X126855220Y-32875220D01*
X123060460Y-29065220D02*
X126870460Y-32875220D01*
X201475340Y-33916620D02*
X200433940Y-32875220D01*
X200433940Y-32875220D02*
X126852680Y-32875220D01*
X100020120Y-28122880D02*
X99415600Y-27518360D01*
X102229920Y-28122880D02*
X100020120Y-28122880D01*
X105666540Y-30017720D02*
X104470200Y-30017720D01*
X102047040Y-26695400D02*
X95488760Y-26695400D01*
X102839520Y-27487880D02*
X102047040Y-26695400D01*
X102839520Y-28387040D02*
X102839520Y-27487880D01*
X104470200Y-30017720D02*
X102839520Y-28387040D01*
D30*
X108788200Y-42814240D02*
X131109720Y-42814240D01*
D29*
X108790740Y-39415720D02*
X108790740Y-40901620D01*
X106733340Y-37358320D02*
X108790740Y-39415720D01*
X106733340Y-31084520D02*
X106733340Y-37358320D01*
X105666540Y-30017720D02*
X106733340Y-31084520D01*
X116398040Y-9596120D02*
X132862320Y-9596120D01*
X103723440Y-9596120D02*
X116398040Y-9596120D01*
X121478040Y-8427720D02*
X137942320Y-8427720D01*
X108803440Y-8427720D02*
X121478040Y-8427720D01*
X136672320Y-9011920D02*
X113858040Y-9011920D01*
X107533440Y-9011920D02*
X113858040Y-9011920D01*
X140853160Y-7848600D02*
X139212320Y-7848600D01*
X110073440Y-7848600D02*
X124018040Y-7848600D01*
X124018040Y-7848600D02*
X139212320Y-7848600D01*
X122748040Y-14442440D02*
X108778040Y-14442440D01*
D30*
X139367260Y-33919160D02*
X140208000Y-34759900D01*
X132908040Y-33919160D02*
X139367260Y-33919160D01*
X133858000Y-34757360D02*
X128899920Y-34757360D01*
X128899920Y-34757360D02*
X128417320Y-34274760D01*
X138109960Y-34757360D02*
X136535160Y-34757360D01*
X136535160Y-34757360D02*
X133858000Y-34757360D01*
D31*
X126570740Y-40901620D02*
X129110740Y-40901620D01*
X129110740Y-40901620D02*
X132052060Y-40901620D01*
X132052060Y-40901620D02*
X133522720Y-42372280D01*
D28*
X126570740Y-31452820D02*
X138432540Y-31452820D01*
X135968740Y-32125920D02*
X130266440Y-32125920D01*
X96245680Y-31109920D02*
X98694240Y-31109920D01*
D29*
X-797560Y-35046920D02*
X-797560Y-35872420D01*
X103291640Y-37586920D02*
X104790240Y-36088320D01*
X916940Y-37586920D02*
X103291640Y-37586920D01*
X-797560Y-35872420D02*
X916940Y-37586920D01*
X105615740Y-33472120D02*
X105615740Y-36202620D01*
X105615740Y-36202620D02*
X103799640Y-38018720D01*
X472440Y-38018720D02*
X-797560Y-36748720D01*
X103799640Y-38018720D02*
X472440Y-38018720D01*
X-797560Y-38450520D02*
X104261920Y-38450520D01*
X104261920Y-38450520D02*
X105277920Y-37434520D01*
X101754940Y-29839920D02*
X103748840Y-31833820D01*
X103748840Y-31833820D02*
X103748840Y-35123120D01*
X103748840Y-35123120D02*
X102542340Y-36329620D01*
X102542340Y-36329620D02*
X76520040Y-36329620D01*
X76520040Y-36329620D02*
X75237340Y-35046920D01*
X104193340Y-31224220D02*
X104193340Y-35275520D01*
X102097840Y-29128720D02*
X104193340Y-31224220D01*
X104193340Y-35275520D02*
X102720140Y-36748720D01*
X102720140Y-36748720D02*
X76062840Y-36748720D01*
X76062840Y-36748720D02*
X75237340Y-35923220D01*
X105361740Y-30614620D02*
X105361740Y-32659320D01*
X104802940Y-33218120D02*
X104802940Y-35237420D01*
X74653140Y-36774120D02*
X75046840Y-37167820D01*
X75046840Y-37167820D02*
X102872540Y-37167820D01*
X104802940Y-35237420D02*
X102872540Y-37167820D01*
X105361740Y-32659320D02*
X104802940Y-33218120D01*
X109794040Y-32583120D02*
X113350040Y-36139120D01*
X150738840Y-35897820D02*
X151589740Y-35046920D01*
X150078440Y-35897820D02*
X150738840Y-35897820D01*
X149837140Y-36139120D02*
X150078440Y-35897820D01*
X113350040Y-36139120D02*
X149837140Y-36139120D01*
X109095540Y-32887920D02*
X112765840Y-36558220D01*
X150268940Y-36342320D02*
X151196040Y-36342320D01*
X150053040Y-36558220D02*
X150268940Y-36342320D01*
X112765840Y-36558220D02*
X150053040Y-36558220D01*
X151196040Y-36342320D02*
X151602440Y-36748720D01*
X150865840Y-36977320D02*
X112105440Y-36977320D01*
X112105440Y-36977320D02*
X108460540Y-33332420D01*
X227802440Y-35046920D02*
X225287840Y-37561520D01*
X225287840Y-37561520D02*
X110695740Y-37561520D01*
X110695740Y-37561520D02*
X109108240Y-35974020D01*
X109108240Y-35974020D02*
X110695740Y-37561520D01*
X227802440Y-36748720D02*
X226570540Y-37980620D01*
X226570540Y-37980620D02*
X110289340Y-37980620D01*
X109044740Y-36736020D02*
X110289340Y-37980620D01*
X227799900Y-38450520D02*
X109933740Y-38450520D01*
X109933740Y-38450520D02*
X108282740Y-36799520D01*
X120202960Y-13858240D02*
X120208040Y-13863320D01*
X106238040Y-13863320D02*
X120208040Y-13863320D01*
X117668040Y-13279120D02*
X117662960Y-13279120D01*
X103698040Y-13279120D02*
X117662960Y-13279120D01*
D31*
X126558040Y-11424920D02*
X129098040Y-11424920D01*
X129098040Y-1320800D02*
X132689600Y-1320800D01*
X132689600Y-1320800D02*
X134132320Y-2763520D01*
X129098040Y-1320800D02*
X106377740Y-1320800D01*
X106377740Y-1320800D02*
X104990900Y-2707640D01*
D29*
G36*
X4526578Y5825278D02*
X4170347Y4967378D01*
X4169536Y4038458D01*
X4524269Y3179937D01*
X5180542Y2522518D01*
X6038442Y2166287D01*
X6967362Y2165476D01*
X7825883Y2520209D01*
X8483302Y3176482D01*
X8839533Y4034382D01*
X8839829Y4373880D01*
X10469040Y4373880D01*
X10469040Y3973880D01*
X10634486Y3396128D01*
X11008434Y2925668D01*
X11533954Y2634124D01*
X11639300Y2609844D01*
X11877040Y2730502D01*
X11877040Y4373880D01*
X10469040Y4373880D01*
X8839829Y4373880D01*
X8840344Y4963302D01*
X8485611Y5821823D01*
X7992732Y6315563D01*
X11440090Y6315563D01*
X11008434Y6076092D01*
X10634486Y5605632D01*
X10469040Y5027880D01*
X10469040Y4627880D01*
X11877040Y4627880D01*
X11877040Y4647880D01*
X12131040Y4647880D01*
X12131040Y4627880D01*
X12151040Y4627880D01*
X12151040Y4373880D01*
X12131040Y4373880D01*
X12131040Y2730502D01*
X12368780Y2609844D01*
X12474126Y2634124D01*
X12999646Y2925668D01*
X13267848Y3263090D01*
X13458631Y2977562D01*
X13956621Y2644816D01*
X14544040Y2527971D01*
X15131459Y2644816D01*
X15629449Y2977562D01*
X15814040Y3253822D01*
X15998631Y2977562D01*
X16496621Y2644816D01*
X17084040Y2527971D01*
X17671459Y2644816D01*
X18169449Y2977562D01*
X18354040Y3253822D01*
X18538631Y2977562D01*
X19036621Y2644816D01*
X19624040Y2527971D01*
X20211459Y2644816D01*
X20709449Y2977562D01*
X20894040Y3253822D01*
X21078631Y2977562D01*
X21576621Y2644816D01*
X22164040Y2527971D01*
X22751459Y2644816D01*
X23249449Y2977562D01*
X23434040Y3253822D01*
X23618631Y2977562D01*
X24116621Y2644816D01*
X24704040Y2527971D01*
X25291459Y2644816D01*
X25789449Y2977562D01*
X25980232Y3263090D01*
X26248434Y2925668D01*
X26773954Y2634124D01*
X26879300Y2609844D01*
X27117040Y2730502D01*
X27117040Y4373880D01*
X27371040Y4373880D01*
X27371040Y2730502D01*
X27608780Y2609844D01*
X27714126Y2634124D01*
X28239646Y2925668D01*
X28514040Y3270880D01*
X28788434Y2925668D01*
X29313954Y2634124D01*
X29419300Y2609844D01*
X29657040Y2730502D01*
X29657040Y4373880D01*
X29911040Y4373880D01*
X29911040Y2730502D01*
X30148780Y2609844D01*
X30254126Y2634124D01*
X30779646Y2925668D01*
X31054040Y3270880D01*
X31328434Y2925668D01*
X31853954Y2634124D01*
X31959300Y2609844D01*
X32197040Y2730502D01*
X32197040Y4373880D01*
X32451040Y4373880D01*
X32451040Y2730502D01*
X32688780Y2609844D01*
X32794126Y2634124D01*
X33319646Y2925668D01*
X33594040Y3270880D01*
X33868434Y2925668D01*
X34393954Y2634124D01*
X34499300Y2609844D01*
X34737040Y2730502D01*
X34737040Y4373880D01*
X32451040Y4373880D01*
X32197040Y4373880D01*
X29911040Y4373880D01*
X29657040Y4373880D01*
X27371040Y4373880D01*
X27117040Y4373880D01*
X27097040Y4373880D01*
X27097040Y4627880D01*
X27117040Y4627880D01*
X27117040Y4647880D01*
X27371040Y4647880D01*
X27371040Y4627880D01*
X29657040Y4627880D01*
X29657040Y4647880D01*
X29911040Y4647880D01*
X29911040Y4627880D01*
X32197040Y4627880D01*
X32197040Y4647880D01*
X32451040Y4647880D01*
X32451040Y4627880D01*
X34737040Y4627880D01*
X34737040Y4647880D01*
X34991040Y4647880D01*
X34991040Y4627880D01*
X35011040Y4627880D01*
X35011040Y4373880D01*
X34991040Y4373880D01*
X34991040Y2730502D01*
X35228780Y2609844D01*
X35334126Y2634124D01*
X35859646Y2925668D01*
X36127848Y3263090D01*
X36318631Y2977562D01*
X36816621Y2644816D01*
X37404040Y2527971D01*
X37991459Y2644816D01*
X38489449Y2977562D01*
X38674040Y3253822D01*
X38858631Y2977562D01*
X39356621Y2644816D01*
X39944040Y2527971D01*
X40531459Y2644816D01*
X41029449Y2977562D01*
X41214040Y3253822D01*
X41398631Y2977562D01*
X41896621Y2644816D01*
X42484040Y2527971D01*
X43071459Y2644816D01*
X43569449Y2977562D01*
X43754040Y3253822D01*
X43938631Y2977562D01*
X44436621Y2644816D01*
X45024040Y2527971D01*
X45611459Y2644816D01*
X46109449Y2977562D01*
X46294040Y3253822D01*
X46478631Y2977562D01*
X46976621Y2644816D01*
X47564040Y2527971D01*
X48151459Y2644816D01*
X48649449Y2977562D01*
X48834040Y3253822D01*
X49018631Y2977562D01*
X49516621Y2644816D01*
X50104040Y2527971D01*
X50691459Y2644816D01*
X51189449Y2977562D01*
X51522195Y3475552D01*
X51639040Y4062971D01*
X51639040Y4938789D01*
X51522195Y5526208D01*
X51189449Y6024198D01*
X50753390Y6315563D01*
X80016299Y6315563D01*
X79525158Y5825278D01*
X79168927Y4967378D01*
X79168116Y4038458D01*
X79522849Y3179937D01*
X80179122Y2522518D01*
X81037022Y2166287D01*
X81965942Y2165476D01*
X82824463Y2520209D01*
X83481882Y3176482D01*
X83555442Y3353634D01*
X83555442Y-4069080D01*
X83607585Y-4331218D01*
X83756074Y-4553448D01*
X83978304Y-4701937D01*
X84240442Y-4754080D01*
X85240534Y-4754080D01*
X85502672Y-4701937D01*
X85724902Y-4553448D01*
X85873391Y-4331218D01*
X85884432Y-4275710D01*
X100388575Y-4275710D01*
X101180900Y-5068035D01*
X101973225Y-4275710D01*
X101905165Y-4034709D01*
X101385866Y-3849873D01*
X100835362Y-3877835D01*
X100456635Y-4034709D01*
X100388575Y-4275710D01*
X85884432Y-4275710D01*
X85925534Y-4069080D01*
X85925534Y-3509802D01*
X86342377Y-3927374D01*
X86924721Y-4169184D01*
X87555273Y-4169735D01*
X88138037Y-3928941D01*
X88584294Y-3483463D01*
X88826104Y-2901119D01*
X88826106Y-2898353D01*
X93156105Y-2898353D01*
X93396899Y-3481117D01*
X93842377Y-3927374D01*
X94424721Y-4169184D01*
X95055273Y-4169735D01*
X95638037Y-3928941D01*
X95887844Y-3679570D01*
X101658575Y-3679570D01*
X101726635Y-3920571D01*
X102245934Y-4105407D01*
X102796438Y-4077445D01*
X103175165Y-3920571D01*
X103243225Y-3679570D01*
X102450900Y-2887245D01*
X101658575Y-3679570D01*
X95887844Y-3679570D01*
X96084294Y-3483463D01*
X96326104Y-2901119D01*
X96326452Y-2502674D01*
X101053133Y-2502674D01*
X101081095Y-3053178D01*
X101237969Y-3431905D01*
X101478970Y-3499965D01*
X102271295Y-2707640D01*
X101478970Y-1915315D01*
X101237969Y-1983375D01*
X101053133Y-2502674D01*
X96326452Y-2502674D01*
X96326655Y-2270567D01*
X96105656Y-1735710D01*
X101658575Y-1735710D01*
X102450900Y-2528035D01*
X103243225Y-1735710D01*
X103175165Y-1494709D01*
X102655866Y-1309873D01*
X102105362Y-1337835D01*
X101726635Y-1494709D01*
X101658575Y-1735710D01*
X96105656Y-1735710D01*
X96085861Y-1687803D01*
X95640383Y-1241546D01*
X95058039Y-999736D01*
X94427487Y-999185D01*
X93844723Y-1239979D01*
X93398466Y-1685457D01*
X93156656Y-2267801D01*
X93156105Y-2898353D01*
X88826106Y-2898353D01*
X88826655Y-2270567D01*
X88585861Y-1687803D01*
X88140383Y-1241546D01*
X87558039Y-999736D01*
X86927487Y-999185D01*
X86344723Y-1239979D01*
X85925534Y-1658436D01*
X85925534Y1490198D01*
X86342377Y1072626D01*
X86924721Y830816D01*
X87555273Y830265D01*
X88138037Y1071059D01*
X88584294Y1516537D01*
X88826104Y2098881D01*
X88826106Y2101647D01*
X93156105Y2101647D01*
X93396899Y1518883D01*
X93842377Y1072626D01*
X94424721Y830816D01*
X95055273Y830265D01*
X95638037Y1071059D01*
X96084294Y1516537D01*
X96326104Y2098881D01*
X96326655Y2729433D01*
X96136419Y3189839D01*
X97401984Y3189839D01*
X97749122Y2349702D01*
X98391341Y1706361D01*
X99230871Y1357757D01*
X100139901Y1356964D01*
X100980038Y1704102D01*
X101623379Y2346321D01*
X101971983Y3185851D01*
X101971995Y3199741D01*
X109321413Y3199741D01*
X109660955Y2377988D01*
X110289121Y1748724D01*
X111110281Y1407749D01*
X111999419Y1406973D01*
X112821172Y1746515D01*
X113286378Y2210910D01*
X116908392Y2210910D01*
X117073162Y1812137D01*
X117377993Y1506774D01*
X117776477Y1341309D01*
X118207950Y1340932D01*
X118606723Y1505702D01*
X118912086Y1810533D01*
X119077551Y2209017D01*
X119077552Y2210910D01*
X121307672Y2210910D01*
X121472442Y1812137D01*
X121777273Y1506774D01*
X122175757Y1341309D01*
X122607230Y1340932D01*
X123006003Y1505702D01*
X123311366Y1810533D01*
X123476831Y2209017D01*
X123477208Y2640490D01*
X123312438Y3039263D01*
X123217907Y3133959D01*
X126543404Y3133959D01*
X126890542Y2293822D01*
X127532761Y1650481D01*
X128372291Y1301877D01*
X129281321Y1301084D01*
X130121458Y1648222D01*
X130764799Y2290441D01*
X131113403Y3129971D01*
X131113415Y3143861D01*
X138462833Y3143861D01*
X138802375Y2322108D01*
X139430541Y1692844D01*
X140251701Y1351869D01*
X141140839Y1351093D01*
X141962592Y1690635D01*
X142371777Y2099107D01*
X144076105Y2099107D01*
X144316899Y1516343D01*
X144762377Y1070086D01*
X145344721Y828276D01*
X145975273Y827725D01*
X146558037Y1068519D01*
X147004294Y1513997D01*
X147246104Y2096341D01*
X147246655Y2726893D01*
X147005861Y3309657D01*
X146560383Y3755914D01*
X145978039Y3997724D01*
X145347487Y3998275D01*
X144764723Y3757481D01*
X144318466Y3312003D01*
X144076656Y2729659D01*
X144076105Y2099107D01*
X142371777Y2099107D01*
X142591856Y2318801D01*
X142932831Y3139961D01*
X142933607Y4029099D01*
X142594065Y4850852D01*
X141965899Y5480116D01*
X141144739Y5821091D01*
X140255601Y5821867D01*
X139433848Y5482325D01*
X138804584Y4854159D01*
X138463609Y4032999D01*
X138462833Y3143861D01*
X131113415Y3143861D01*
X131114196Y4039001D01*
X130767058Y4879138D01*
X130124839Y5522479D01*
X129285309Y5871083D01*
X128376279Y5871876D01*
X127536142Y5524738D01*
X126892801Y4882519D01*
X126544197Y4042989D01*
X126543404Y3133959D01*
X123217907Y3133959D01*
X123007607Y3344626D01*
X122609123Y3510091D01*
X122177650Y3510468D01*
X121778877Y3345698D01*
X121473514Y3040867D01*
X121308049Y2642383D01*
X121307672Y2210910D01*
X119077552Y2210910D01*
X119077928Y2640490D01*
X118913158Y3039263D01*
X118608327Y3344626D01*
X118209843Y3510091D01*
X117778370Y3510468D01*
X117379597Y3345698D01*
X117074234Y3040867D01*
X116908769Y2642383D01*
X116908392Y2210910D01*
X113286378Y2210910D01*
X113450436Y2374681D01*
X113791411Y3195841D01*
X113792187Y4084979D01*
X113452645Y4906732D01*
X112824479Y5535996D01*
X112003319Y5876971D01*
X111114181Y5877747D01*
X110292428Y5538205D01*
X109663164Y4910039D01*
X109322189Y4088879D01*
X109321413Y3199741D01*
X101971995Y3199741D01*
X101972776Y4094881D01*
X101625638Y4935018D01*
X100983419Y5578359D01*
X100143889Y5926963D01*
X99234859Y5927756D01*
X98394722Y5580618D01*
X97751381Y4938399D01*
X97402777Y4098869D01*
X97401984Y3189839D01*
X96136419Y3189839D01*
X96085861Y3312197D01*
X95640383Y3758454D01*
X95058039Y4000264D01*
X94427487Y4000815D01*
X93844723Y3760021D01*
X93398466Y3314543D01*
X93156656Y2732199D01*
X93156105Y2101647D01*
X88826106Y2101647D01*
X88826655Y2729433D01*
X88585861Y3312197D01*
X88140383Y3758454D01*
X87558039Y4000264D01*
X86927487Y4000815D01*
X86344723Y3760021D01*
X85925534Y3341564D01*
X85925534Y6312054D01*
X154475536Y6312054D01*
X154475536Y3342575D01*
X154060383Y3758454D01*
X153478039Y4000264D01*
X152847487Y4000815D01*
X152264723Y3760021D01*
X151818466Y3314543D01*
X151576656Y2732199D01*
X151576105Y2101647D01*
X151816899Y1518883D01*
X152262377Y1072626D01*
X152844721Y830816D01*
X153475273Y830265D01*
X154058037Y1071059D01*
X154475536Y1487829D01*
X154475536Y-1657425D01*
X154060383Y-1241546D01*
X153478039Y-999736D01*
X152847487Y-999185D01*
X152264723Y-1239979D01*
X151818466Y-1685457D01*
X151576656Y-2267801D01*
X151576105Y-2898353D01*
X151816899Y-3481117D01*
X152262377Y-3927374D01*
X152844721Y-4169184D01*
X153475273Y-4169735D01*
X154058037Y-3928941D01*
X154475536Y-3512171D01*
X154475536Y-4069080D01*
X154527679Y-4331218D01*
X154676168Y-4553448D01*
X154898398Y-4701937D01*
X155160536Y-4754080D01*
X156157334Y-4754080D01*
X156158888Y-4753771D01*
X156160442Y-4754080D01*
X156422580Y-4701937D01*
X156644810Y-4553448D01*
X156793299Y-4331218D01*
X156845442Y-4069080D01*
X156845442Y-462422D01*
X238065436Y-462422D01*
X238420169Y-1320943D01*
X239076442Y-1978362D01*
X239934342Y-2334593D01*
X240863262Y-2335404D01*
X241721783Y-1980671D01*
X242379202Y-1324398D01*
X242735433Y-466498D01*
X242736244Y462422D01*
X242381511Y1320943D01*
X241725238Y1978362D01*
X240867338Y2334593D01*
X239938418Y2335404D01*
X239079897Y1980671D01*
X238422478Y1324398D01*
X238066247Y466498D01*
X238065436Y-462422D01*
X156845442Y-462422D01*
X156845442Y3370713D01*
X156924269Y3179937D01*
X157580542Y2522518D01*
X158438442Y2166287D01*
X159367362Y2165476D01*
X160225883Y2520209D01*
X160883302Y3176482D01*
X161239533Y4034382D01*
X161239829Y4373880D01*
X162869040Y4373880D01*
X162869040Y3973880D01*
X163034486Y3396128D01*
X163408434Y2925668D01*
X163933954Y2634124D01*
X164039300Y2609844D01*
X164277040Y2730502D01*
X164277040Y4373880D01*
X162869040Y4373880D01*
X161239829Y4373880D01*
X161240344Y4963302D01*
X160885611Y5821823D01*
X160392732Y6315563D01*
X163840090Y6315563D01*
X163408434Y6076092D01*
X163034486Y5605632D01*
X162869040Y5027880D01*
X162869040Y4627880D01*
X164277040Y4627880D01*
X164277040Y4647880D01*
X164531040Y4647880D01*
X164531040Y4627880D01*
X164551040Y4627880D01*
X164551040Y4373880D01*
X164531040Y4373880D01*
X164531040Y2730502D01*
X164768780Y2609844D01*
X164874126Y2634124D01*
X165399646Y2925668D01*
X165667848Y3263090D01*
X165858631Y2977562D01*
X166356621Y2644816D01*
X166944040Y2527971D01*
X167531459Y2644816D01*
X168029449Y2977562D01*
X168214040Y3253822D01*
X168398631Y2977562D01*
X168896621Y2644816D01*
X169484040Y2527971D01*
X170071459Y2644816D01*
X170569449Y2977562D01*
X170754040Y3253822D01*
X170938631Y2977562D01*
X171436621Y2644816D01*
X172024040Y2527971D01*
X172611459Y2644816D01*
X173109449Y2977562D01*
X173294040Y3253822D01*
X173478631Y2977562D01*
X173976621Y2644816D01*
X174564040Y2527971D01*
X175151459Y2644816D01*
X175649449Y2977562D01*
X175834040Y3253822D01*
X176018631Y2977562D01*
X176516621Y2644816D01*
X177104040Y2527971D01*
X177691459Y2644816D01*
X178189449Y2977562D01*
X178380232Y3263090D01*
X178648434Y2925668D01*
X179173954Y2634124D01*
X179279300Y2609844D01*
X179517040Y2730502D01*
X179517040Y4373880D01*
X179771040Y4373880D01*
X179771040Y2730502D01*
X180008780Y2609844D01*
X180114126Y2634124D01*
X180639646Y2925668D01*
X180914040Y3270880D01*
X181188434Y2925668D01*
X181713954Y2634124D01*
X181819300Y2609844D01*
X182057040Y2730502D01*
X182057040Y4373880D01*
X182311040Y4373880D01*
X182311040Y2730502D01*
X182548780Y2609844D01*
X182654126Y2634124D01*
X183179646Y2925668D01*
X183454040Y3270880D01*
X183728434Y2925668D01*
X184253954Y2634124D01*
X184359300Y2609844D01*
X184597040Y2730502D01*
X184597040Y4373880D01*
X184851040Y4373880D01*
X184851040Y2730502D01*
X185088780Y2609844D01*
X185194126Y2634124D01*
X185719646Y2925668D01*
X185994040Y3270880D01*
X186268434Y2925668D01*
X186793954Y2634124D01*
X186899300Y2609844D01*
X187137040Y2730502D01*
X187137040Y4373880D01*
X184851040Y4373880D01*
X184597040Y4373880D01*
X182311040Y4373880D01*
X182057040Y4373880D01*
X179771040Y4373880D01*
X179517040Y4373880D01*
X179497040Y4373880D01*
X179497040Y4627880D01*
X179517040Y4627880D01*
X179517040Y4647880D01*
X179771040Y4647880D01*
X179771040Y4627880D01*
X182057040Y4627880D01*
X182057040Y4647880D01*
X182311040Y4647880D01*
X182311040Y4627880D01*
X184597040Y4627880D01*
X184597040Y4647880D01*
X184851040Y4647880D01*
X184851040Y4627880D01*
X187137040Y4627880D01*
X187137040Y4647880D01*
X187391040Y4647880D01*
X187391040Y4627880D01*
X187411040Y4627880D01*
X187411040Y4373880D01*
X187391040Y4373880D01*
X187391040Y2730502D01*
X187628780Y2609844D01*
X187734126Y2634124D01*
X188259646Y2925668D01*
X188527848Y3263090D01*
X188718631Y2977562D01*
X189216621Y2644816D01*
X189804040Y2527971D01*
X190391459Y2644816D01*
X190889449Y2977562D01*
X191074040Y3253822D01*
X191258631Y2977562D01*
X191756621Y2644816D01*
X192344040Y2527971D01*
X192931459Y2644816D01*
X193429449Y2977562D01*
X193614040Y3253822D01*
X193798631Y2977562D01*
X194296621Y2644816D01*
X194884040Y2527971D01*
X195471459Y2644816D01*
X195969449Y2977562D01*
X196154040Y3253822D01*
X196338631Y2977562D01*
X196836621Y2644816D01*
X197424040Y2527971D01*
X198011459Y2644816D01*
X198509449Y2977562D01*
X198694040Y3253822D01*
X198878631Y2977562D01*
X199376621Y2644816D01*
X199964040Y2527971D01*
X200551459Y2644816D01*
X201049449Y2977562D01*
X201234040Y3253822D01*
X201418631Y2977562D01*
X201916621Y2644816D01*
X202504040Y2527971D01*
X203091459Y2644816D01*
X203589449Y2977562D01*
X203922195Y3475552D01*
X204039040Y4062971D01*
X204039040Y4938789D01*
X203922195Y5526208D01*
X203589449Y6024198D01*
X203153390Y6315563D01*
X232416299Y6315563D01*
X231925158Y5825278D01*
X231568927Y4967378D01*
X231568116Y4038458D01*
X231922849Y3179937D01*
X232579122Y2522518D01*
X233437022Y2166287D01*
X234365942Y2165476D01*
X235224463Y2520209D01*
X235881882Y3176482D01*
X236238113Y4034382D01*
X236238924Y4963302D01*
X235884191Y5821823D01*
X235391312Y6315563D01*
X244215444Y6315563D01*
X244215444Y-50810040D01*
X-3814561Y-50810040D01*
X-3814561Y-47957882D01*
X-2332864Y-47957882D01*
X-1978131Y-48816403D01*
X-1321858Y-49473822D01*
X-463958Y-49830053D01*
X464962Y-49830864D01*
X1323483Y-49476131D01*
X1980902Y-48819858D01*
X2337133Y-47961958D01*
X2337136Y-47957882D01*
X238065436Y-47957882D01*
X238420169Y-48816403D01*
X239076442Y-49473822D01*
X239934342Y-49830053D01*
X240863262Y-49830864D01*
X241721783Y-49476131D01*
X242379202Y-48819858D01*
X242735433Y-47961958D01*
X242736244Y-47033038D01*
X242381511Y-46174517D01*
X241725238Y-45517098D01*
X240867338Y-45160867D01*
X239938418Y-45160056D01*
X239079897Y-45514789D01*
X238422478Y-46171062D01*
X238066247Y-47028962D01*
X238065436Y-47957882D01*
X2337136Y-47957882D01*
X2337944Y-47033038D01*
X1983211Y-46174517D01*
X1326938Y-45517098D01*
X469038Y-45160867D01*
X-459882Y-45160056D01*
X-1318403Y-45514789D01*
X-1975822Y-46171062D01*
X-2332053Y-47028962D01*
X-2332864Y-47957882D01*
X-3814561Y-47957882D01*
X-3814561Y-41284566D01*
X34469637Y-41284566D01*
X34738432Y-41869999D01*
X35210802Y-42308005D01*
X35692676Y-42507595D01*
X35948620Y-42388456D01*
X35948620Y-41028620D01*
X34588253Y-41028620D01*
X34469637Y-41284566D01*
X-3814561Y-41284566D01*
X-3814561Y-40518674D01*
X34469637Y-40518674D01*
X34588253Y-40774620D01*
X35948620Y-40774620D01*
X35948620Y-39414784D01*
X36202620Y-39414784D01*
X36202620Y-40774620D01*
X36222620Y-40774620D01*
X36222620Y-41028620D01*
X36202620Y-41028620D01*
X36202620Y-42388456D01*
X36458564Y-42507595D01*
X36940438Y-42308005D01*
X37038018Y-42217523D01*
X37135530Y-42369061D01*
X37347730Y-42514051D01*
X37599620Y-42565060D01*
X39631620Y-42565060D01*
X39866937Y-42520782D01*
X40083061Y-42381710D01*
X40228051Y-42169510D01*
X40279060Y-41917620D01*
X40279060Y-41284566D01*
X43430757Y-41284566D01*
X43699552Y-41869999D01*
X44171922Y-42308005D01*
X44653796Y-42507595D01*
X44909740Y-42388456D01*
X44909740Y-41028620D01*
X43549373Y-41028620D01*
X43430757Y-41284566D01*
X40279060Y-41284566D01*
X40279060Y-40518674D01*
X43430757Y-40518674D01*
X43549373Y-40774620D01*
X44909740Y-40774620D01*
X44909740Y-39414784D01*
X45163740Y-39414784D01*
X45163740Y-40774620D01*
X45183740Y-40774620D01*
X45183740Y-41028620D01*
X45163740Y-41028620D01*
X45163740Y-42388456D01*
X45419684Y-42507595D01*
X45901558Y-42308005D01*
X45999138Y-42217523D01*
X46096650Y-42369061D01*
X46308850Y-42514051D01*
X46560740Y-42565060D01*
X48592740Y-42565060D01*
X48828057Y-42520782D01*
X49044181Y-42381710D01*
X49189171Y-42169510D01*
X49240180Y-41917620D01*
X49240180Y-39885620D01*
X49195902Y-39650303D01*
X49056830Y-39434179D01*
X48844630Y-39289189D01*
X48592740Y-39238180D01*
X46560740Y-39238180D01*
X46325423Y-39282458D01*
X46109299Y-39421530D01*
X45997900Y-39584568D01*
X45901558Y-39495235D01*
X45419684Y-39295645D01*
X45163740Y-39414784D01*
X44909740Y-39414784D01*
X44653796Y-39295645D01*
X44171922Y-39495235D01*
X43699552Y-39933241D01*
X43430757Y-40518674D01*
X40279060Y-40518674D01*
X40279060Y-39885620D01*
X40234782Y-39650303D01*
X40095710Y-39434179D01*
X39883510Y-39289189D01*
X39631620Y-39238180D01*
X37599620Y-39238180D01*
X37364303Y-39282458D01*
X37148179Y-39421530D01*
X37036780Y-39584568D01*
X36940438Y-39495235D01*
X36458564Y-39295645D01*
X36202620Y-39414784D01*
X35948620Y-39414784D01*
X35692676Y-39295645D01*
X35210802Y-39495235D01*
X34738432Y-39933241D01*
X34469637Y-40518674D01*
X-3814561Y-40518674D01*
X-3814561Y-35232087D01*
X-1732722Y-35232087D01*
X-1590677Y-35575863D01*
X-1559560Y-35607034D01*
X-1559560Y-35872420D01*
X-1507145Y-36135930D01*
X-1589752Y-36218393D01*
X-1732398Y-36561921D01*
X-1732722Y-36933887D01*
X-1590677Y-37277663D01*
X-1327887Y-37540912D01*
X-1186580Y-37599588D01*
X-1326503Y-37657403D01*
X-1589752Y-37920193D01*
X-1732398Y-38263721D01*
X-1732722Y-38635687D01*
X-1590677Y-38979463D01*
X-1327887Y-39242712D01*
X-984359Y-39385358D01*
X-612393Y-39385682D01*
X-268617Y-39243637D01*
X-237446Y-39212520D01*
X89486799Y-39212520D01*
X89397722Y-39427041D01*
X89397398Y-39799007D01*
X89539443Y-40142783D01*
X89755992Y-40359711D01*
X89697088Y-40384049D01*
X89294311Y-40216802D01*
X88832834Y-40216399D01*
X88406331Y-40392626D01*
X88079733Y-40718655D01*
X87902762Y-41144849D01*
X87902359Y-41606326D01*
X87984786Y-41805816D01*
X87941129Y-41869710D01*
X87890120Y-42121600D01*
X87890120Y-42676911D01*
X87576913Y-42676638D01*
X87233137Y-42818683D01*
X86969888Y-43081473D01*
X86827242Y-43425001D01*
X86827236Y-43431963D01*
X84134046Y-43429477D01*
X84103306Y-43398683D01*
X83732223Y-43244596D01*
X83330420Y-43244245D01*
X82959068Y-43397684D01*
X82927547Y-43429150D01*
X50859261Y-43441390D01*
X50829306Y-43411383D01*
X50458223Y-43257296D01*
X50056420Y-43256945D01*
X49685068Y-43410384D01*
X49653778Y-43441620D01*
X41867890Y-43441620D01*
X41837706Y-43411383D01*
X41466623Y-43257296D01*
X41064820Y-43256945D01*
X40693468Y-43410384D01*
X40662178Y-43441620D01*
X15147090Y-43441620D01*
X15116906Y-43411383D01*
X14745823Y-43257296D01*
X14344020Y-43256945D01*
X13972668Y-43410384D01*
X13688303Y-43694254D01*
X13534216Y-44065337D01*
X13533865Y-44467140D01*
X13687304Y-44838492D01*
X13971174Y-45122857D01*
X14342257Y-45276944D01*
X14744060Y-45277295D01*
X15115412Y-45123856D01*
X15146702Y-45092620D01*
X40661790Y-45092620D01*
X40691974Y-45122857D01*
X41063057Y-45276944D01*
X41464860Y-45277295D01*
X41836212Y-45123856D01*
X41867502Y-45092620D01*
X49653390Y-45092620D01*
X49683574Y-45122857D01*
X50054657Y-45276944D01*
X50456460Y-45277295D01*
X50827812Y-45123856D01*
X50859333Y-45092390D01*
X82927619Y-45080150D01*
X82957574Y-45110157D01*
X83328657Y-45264244D01*
X83730460Y-45264595D01*
X84101812Y-45111156D01*
X84132545Y-45080477D01*
X96680934Y-45092063D01*
X96711674Y-45122857D01*
X97082757Y-45276944D01*
X97484560Y-45277295D01*
X97855912Y-45123856D01*
X97887202Y-45092620D01*
X139696390Y-45092620D01*
X139726574Y-45122857D01*
X140097657Y-45276944D01*
X140499460Y-45277295D01*
X140870812Y-45123856D01*
X140902102Y-45092620D01*
X157412890Y-45092620D01*
X157443074Y-45122857D01*
X157814157Y-45276944D01*
X158215960Y-45277295D01*
X158587312Y-45123856D01*
X158618602Y-45092620D01*
X193061790Y-45092620D01*
X193091974Y-45122857D01*
X193463057Y-45276944D01*
X193864860Y-45277295D01*
X194236212Y-45123856D01*
X194267502Y-45092620D01*
X202053390Y-45092620D01*
X202083574Y-45122857D01*
X202454657Y-45276944D01*
X202856460Y-45277295D01*
X203227812Y-45123856D01*
X203259332Y-45092391D01*
X235454619Y-45080149D01*
X235484574Y-45110157D01*
X235855657Y-45264244D01*
X236257460Y-45264595D01*
X236628812Y-45111156D01*
X236913177Y-44827286D01*
X237067264Y-44456203D01*
X237067615Y-44054400D01*
X236914176Y-43683048D01*
X236630306Y-43398683D01*
X236259223Y-43244596D01*
X235857420Y-43244245D01*
X235486068Y-43397684D01*
X235454548Y-43429149D01*
X203259261Y-43441391D01*
X203229306Y-43411383D01*
X202858223Y-43257296D01*
X202456420Y-43256945D01*
X202085068Y-43410384D01*
X202053778Y-43441620D01*
X194267890Y-43441620D01*
X194237706Y-43411383D01*
X193866623Y-43257296D01*
X193464820Y-43256945D01*
X193093468Y-43410384D01*
X193062178Y-43441620D01*
X158618990Y-43441620D01*
X158588806Y-43411383D01*
X158217723Y-43257296D01*
X157815920Y-43256945D01*
X157444568Y-43410384D01*
X157413278Y-43441620D01*
X140902490Y-43441620D01*
X140872306Y-43411383D01*
X140501223Y-43257296D01*
X140099420Y-43256945D01*
X139728068Y-43410384D01*
X139696778Y-43441620D01*
X133775948Y-43441620D01*
X134136520Y-43292634D01*
X134442002Y-42987685D01*
X134607531Y-42589047D01*
X134607908Y-42157407D01*
X134443074Y-41758480D01*
X134138125Y-41452998D01*
X133739487Y-41287469D01*
X133695106Y-41287430D01*
X133692242Y-41284566D01*
X186864557Y-41284566D01*
X187133352Y-41869999D01*
X187605722Y-42308005D01*
X188087596Y-42507595D01*
X188343540Y-42388456D01*
X188343540Y-41028620D01*
X186983173Y-41028620D01*
X186864557Y-41284566D01*
X133692242Y-41284566D01*
X132680678Y-40273002D01*
X132596569Y-40216802D01*
X132392266Y-40080291D01*
X132307450Y-40063420D01*
X139289418Y-40063420D01*
X139289265Y-40238040D01*
X139442704Y-40609392D01*
X139726574Y-40893757D01*
X140097657Y-41047844D01*
X140499460Y-41048195D01*
X140870812Y-40894756D01*
X140902102Y-40863520D01*
X143303190Y-40863520D01*
X143333374Y-40893757D01*
X143704457Y-41047844D01*
X144106260Y-41048195D01*
X144477612Y-40894756D01*
X144761977Y-40610886D01*
X144916064Y-40239803D01*
X144916218Y-40063420D01*
X187073582Y-40063420D01*
X186864557Y-40518674D01*
X186983173Y-40774620D01*
X188343540Y-40774620D01*
X188343540Y-40754620D01*
X188597540Y-40754620D01*
X188597540Y-40774620D01*
X188617540Y-40774620D01*
X188617540Y-41028620D01*
X188597540Y-41028620D01*
X188597540Y-42388456D01*
X188853484Y-42507595D01*
X189335358Y-42308005D01*
X189438057Y-42212778D01*
X189530450Y-42356361D01*
X189742650Y-42501351D01*
X189994540Y-42552360D01*
X192026540Y-42552360D01*
X192261857Y-42508082D01*
X192477981Y-42369010D01*
X192622971Y-42156810D01*
X192673980Y-41904920D01*
X192673980Y-41284566D01*
X195835837Y-41284566D01*
X196104632Y-41869999D01*
X196577002Y-42308005D01*
X197058876Y-42507595D01*
X197314820Y-42388456D01*
X197314820Y-41028620D01*
X195954453Y-41028620D01*
X195835837Y-41284566D01*
X192673980Y-41284566D01*
X192673980Y-39872920D01*
X192629702Y-39637603D01*
X192625852Y-39631620D01*
X196429917Y-39631620D01*
X196104632Y-39933241D01*
X195835837Y-40518674D01*
X195954453Y-40774620D01*
X197314820Y-40774620D01*
X197314820Y-40754620D01*
X197568820Y-40754620D01*
X197568820Y-40774620D01*
X197588820Y-40774620D01*
X197588820Y-41028620D01*
X197568820Y-41028620D01*
X197568820Y-42388456D01*
X197824764Y-42507595D01*
X198306638Y-42308005D01*
X198404218Y-42217523D01*
X198501730Y-42369061D01*
X198713930Y-42514051D01*
X198965820Y-42565060D01*
X200997820Y-42565060D01*
X201233137Y-42520782D01*
X201449261Y-42381710D01*
X201594251Y-42169510D01*
X201645260Y-41917620D01*
X201645260Y-39885620D01*
X201600982Y-39650303D01*
X201461910Y-39434179D01*
X201249710Y-39289189D01*
X200997820Y-39238180D01*
X199396010Y-39238180D01*
X199370350Y-39212520D01*
X227239434Y-39212520D01*
X227269573Y-39242712D01*
X227613101Y-39385358D01*
X227985067Y-39385682D01*
X228328843Y-39243637D01*
X228592092Y-38980847D01*
X228734738Y-38637319D01*
X228735062Y-38265353D01*
X228593017Y-37921577D01*
X228330227Y-37658328D01*
X228190187Y-37600178D01*
X228331383Y-37541837D01*
X228594632Y-37279047D01*
X228737278Y-36935519D01*
X228737602Y-36563553D01*
X228595557Y-36219777D01*
X228332767Y-35956528D01*
X228191460Y-35897852D01*
X228331383Y-35840037D01*
X228594632Y-35577247D01*
X228737278Y-35233719D01*
X228737602Y-34861753D01*
X228595557Y-34517977D01*
X228332767Y-34254728D01*
X227989239Y-34112082D01*
X227617273Y-34111758D01*
X227273497Y-34253803D01*
X227010248Y-34516593D01*
X226867602Y-34860121D01*
X226867564Y-34904166D01*
X224972210Y-36799520D01*
X152537396Y-36799520D01*
X152537602Y-36563553D01*
X152395557Y-36219777D01*
X152132767Y-35956528D01*
X151985126Y-35895222D01*
X152118683Y-35840037D01*
X152381932Y-35577247D01*
X152524578Y-35233719D01*
X152524902Y-34861753D01*
X152382857Y-34517977D01*
X152120067Y-34254728D01*
X151776539Y-34112082D01*
X151404573Y-34111758D01*
X151060797Y-34253803D01*
X150797548Y-34516593D01*
X150654902Y-34860121D01*
X150654864Y-34904166D01*
X150423210Y-35135820D01*
X150078440Y-35135820D01*
X149786835Y-35193824D01*
X149687817Y-35259986D01*
X149539625Y-35359004D01*
X149521509Y-35377120D01*
X140913147Y-35377120D01*
X141000192Y-35290227D01*
X141142838Y-34946699D01*
X141143162Y-34574733D01*
X141001117Y-34230957D01*
X140841998Y-34071560D01*
X161111529Y-34071560D01*
X161279505Y-34239536D01*
X161427697Y-34338554D01*
X161526715Y-34404716D01*
X161818320Y-34462720D01*
X162675174Y-34462720D01*
X162705313Y-34492912D01*
X163048841Y-34635558D01*
X163420807Y-34635882D01*
X163764583Y-34493837D01*
X164027832Y-34231047D01*
X164170478Y-33887519D01*
X164170696Y-33637220D01*
X200118310Y-33637220D01*
X200540215Y-34059125D01*
X200540178Y-34101787D01*
X200682223Y-34445563D01*
X200945013Y-34708812D01*
X201288541Y-34851458D01*
X201660507Y-34851782D01*
X202004283Y-34709737D01*
X202267532Y-34446947D01*
X202410178Y-34103419D01*
X202410502Y-33731453D01*
X202268457Y-33387677D01*
X202005667Y-33124428D01*
X201662139Y-32981782D01*
X201618094Y-32981744D01*
X200972755Y-32336405D01*
X200968954Y-32333865D01*
X200725545Y-32171224D01*
X200433940Y-32113220D01*
X139094432Y-32113220D01*
X139224732Y-31983147D01*
X139367378Y-31639619D01*
X139367702Y-31267653D01*
X139225657Y-30923877D01*
X138962867Y-30660628D01*
X138619339Y-30517982D01*
X138247373Y-30517658D01*
X137903597Y-30659703D01*
X137897870Y-30665420D01*
X127105851Y-30665420D01*
X127101067Y-30660628D01*
X126757539Y-30517982D01*
X126385573Y-30517658D01*
X126041797Y-30659703D01*
X125887050Y-30814180D01*
X124534472Y-29461602D01*
X149066376Y-29461602D01*
X149421109Y-30320123D01*
X150077382Y-30977542D01*
X150935282Y-31333773D01*
X151864202Y-31334584D01*
X152722723Y-30979851D01*
X153380142Y-30323578D01*
X153736373Y-29465678D01*
X153737184Y-28536758D01*
X153382451Y-27678237D01*
X152726178Y-27020818D01*
X151868278Y-26664587D01*
X150939358Y-26663776D01*
X150080837Y-27018509D01*
X149423418Y-27674782D01*
X149067187Y-28532682D01*
X149066376Y-29461602D01*
X124534472Y-29461602D01*
X123845990Y-28773120D01*
X147614640Y-28773120D01*
X147906245Y-28715116D01*
X148153455Y-28549935D01*
X152464170Y-24239220D01*
X158261478Y-24239220D01*
X157583997Y-24519149D01*
X156926578Y-25175422D01*
X156570347Y-26033322D01*
X156569536Y-26962242D01*
X156924269Y-27820763D01*
X157580542Y-28478182D01*
X158438442Y-28834413D01*
X159367362Y-28835224D01*
X160225883Y-28480491D01*
X160883302Y-27824218D01*
X161239533Y-26966318D01*
X161239536Y-26962242D01*
X231568116Y-26962242D01*
X231922849Y-27820763D01*
X232579122Y-28478182D01*
X233437022Y-28834413D01*
X234365942Y-28835224D01*
X235224463Y-28480491D01*
X235881882Y-27824218D01*
X236238113Y-26966318D01*
X236238924Y-26037398D01*
X235884191Y-25178877D01*
X235227918Y-24521458D01*
X234370018Y-24165227D01*
X233441098Y-24164416D01*
X232582577Y-24519149D01*
X231925158Y-25175422D01*
X231568927Y-26033322D01*
X231568116Y-26962242D01*
X161239536Y-26962242D01*
X161240344Y-26037398D01*
X160885611Y-25178877D01*
X160229338Y-24521458D01*
X159549633Y-24239220D01*
X176543574Y-24239220D01*
X176573713Y-24269412D01*
X176917241Y-24412058D01*
X177289207Y-24412382D01*
X177632983Y-24270337D01*
X177896232Y-24007547D01*
X178038878Y-23664019D01*
X178039202Y-23292053D01*
X177897157Y-22948277D01*
X177634367Y-22685028D01*
X177290839Y-22542382D01*
X176918873Y-22542058D01*
X176575097Y-22684103D01*
X176543926Y-22715220D01*
X172867691Y-22715220D01*
X172958878Y-22495619D01*
X172958897Y-22473920D01*
X174003574Y-22473920D01*
X174033713Y-22504112D01*
X174377241Y-22646758D01*
X174749207Y-22647082D01*
X175092983Y-22505037D01*
X175356232Y-22242247D01*
X175498878Y-21898719D01*
X175498886Y-21889720D01*
X191783574Y-21889720D01*
X191813713Y-21919912D01*
X192157241Y-22062558D01*
X192529207Y-22062882D01*
X192872983Y-21920837D01*
X193136232Y-21658047D01*
X193278878Y-21314519D01*
X193278886Y-21305520D01*
X196863574Y-21305520D01*
X196893713Y-21335712D01*
X197237241Y-21478358D01*
X197609207Y-21478682D01*
X197952983Y-21336637D01*
X198216232Y-21073847D01*
X198358878Y-20730319D01*
X198359202Y-20358353D01*
X198217157Y-20014577D01*
X197954367Y-19751328D01*
X197610839Y-19608682D01*
X197238873Y-19608358D01*
X196895097Y-19750403D01*
X196863926Y-19781520D01*
X195727691Y-19781520D01*
X195818878Y-19561919D01*
X195819202Y-19189953D01*
X195677157Y-18846177D01*
X195533251Y-18702020D01*
X199360990Y-18702020D01*
X199391174Y-18732257D01*
X199762257Y-18886344D01*
X200164060Y-18886695D01*
X200535412Y-18733256D01*
X200819777Y-18449386D01*
X200973864Y-18078303D01*
X200974215Y-17676500D01*
X200820776Y-17305148D01*
X200536906Y-17020783D01*
X200165823Y-16866696D01*
X199764020Y-16866345D01*
X199392668Y-17019784D01*
X199361378Y-17051020D01*
X167547090Y-17051020D01*
X167516906Y-17020783D01*
X167145823Y-16866696D01*
X166744020Y-16866345D01*
X166372668Y-17019784D01*
X166341378Y-17051020D01*
X156776953Y-17051020D01*
X156513639Y-16941682D01*
X156495073Y-16941666D01*
X156641702Y-16843692D01*
X156790191Y-16621462D01*
X156842334Y-16359324D01*
X156842334Y-6609080D01*
X156790191Y-6346942D01*
X156641702Y-6124712D01*
X156419472Y-5976223D01*
X156157334Y-5924080D01*
X155160536Y-5924080D01*
X154898398Y-5976223D01*
X154676168Y-6124712D01*
X154527679Y-6346942D01*
X154475536Y-6609080D01*
X154475536Y-14674485D01*
X137184236Y-14674485D01*
X137180320Y-14673706D01*
X136918182Y-14725849D01*
X136695952Y-14874338D01*
X136547463Y-15096568D01*
X136495320Y-15358706D01*
X136495320Y-16344514D01*
X136492374Y-16359324D01*
X136544517Y-16621462D01*
X136693006Y-16843692D01*
X136915236Y-16992181D01*
X137177374Y-17044324D01*
X143310285Y-17044324D01*
X143303578Y-17051020D01*
X135758968Y-17051020D01*
X135716106Y-17008083D01*
X135345023Y-16853996D01*
X135006562Y-16853700D01*
X135022328Y-16843166D01*
X135170817Y-16620936D01*
X135222960Y-16358798D01*
X135222960Y-15358706D01*
X135170817Y-15096568D01*
X135022328Y-14874338D01*
X134800098Y-14725849D01*
X134537960Y-14673706D01*
X123664414Y-14673706D01*
X123682878Y-14629239D01*
X123683202Y-14257273D01*
X123541157Y-13913497D01*
X123278367Y-13650248D01*
X122934839Y-13507602D01*
X122562873Y-13507278D01*
X122219097Y-13649323D01*
X122187926Y-13680440D01*
X121138116Y-13680440D01*
X121138122Y-13673073D01*
X120996077Y-13329297D01*
X120733287Y-13066048D01*
X120389759Y-12923402D01*
X120017793Y-12923078D01*
X119674017Y-13065123D01*
X119637757Y-13101320D01*
X118603196Y-13101320D01*
X118603202Y-13093953D01*
X118577622Y-13032044D01*
X118579014Y-13032278D01*
X118811040Y-12911137D01*
X118811040Y-11551920D01*
X118791040Y-11551920D01*
X118791040Y-11297920D01*
X118811040Y-11297920D01*
X118811040Y-11277920D01*
X119065040Y-11277920D01*
X119065040Y-11297920D01*
X119085040Y-11297920D01*
X119085040Y-11551920D01*
X119065040Y-11551920D01*
X119065040Y-12911137D01*
X119297066Y-13032278D01*
X119312831Y-13029629D01*
X119840076Y-12775652D01*
X120211579Y-12359851D01*
X120418370Y-12669335D01*
X120904551Y-12994191D01*
X121478040Y-13108265D01*
X122051529Y-12994191D01*
X122537710Y-12669335D01*
X122748040Y-12354554D01*
X122958370Y-12669335D01*
X123444551Y-12994191D01*
X124018040Y-13108265D01*
X124591529Y-12994191D01*
X125077710Y-12669335D01*
X125288040Y-12354554D01*
X125498370Y-12669335D01*
X125984551Y-12994191D01*
X126558040Y-13108265D01*
X127131529Y-12994191D01*
X127617710Y-12669335D01*
X127627283Y-12655007D01*
X127631278Y-12676237D01*
X127770350Y-12892361D01*
X127982550Y-13037351D01*
X128234440Y-13088360D01*
X129961640Y-13088360D01*
X130196957Y-13044082D01*
X130413081Y-12905010D01*
X130558071Y-12692810D01*
X130609080Y-12440920D01*
X130609080Y-10408920D01*
X130599521Y-10358120D01*
X132301854Y-10358120D01*
X132331993Y-10388312D01*
X132675521Y-10530958D01*
X133047487Y-10531282D01*
X133391263Y-10389237D01*
X133654512Y-10126447D01*
X133797158Y-9782919D01*
X133797166Y-9773920D01*
X136111854Y-9773920D01*
X136141993Y-9804112D01*
X136485521Y-9946758D01*
X136857487Y-9947082D01*
X137201263Y-9805037D01*
X137464512Y-9542247D01*
X137570950Y-9285917D01*
X137755521Y-9362558D01*
X138127487Y-9362882D01*
X138471263Y-9220837D01*
X138734512Y-8958047D01*
X138839151Y-8706050D01*
X139025521Y-8783438D01*
X139397487Y-8783762D01*
X139741263Y-8641717D01*
X139772434Y-8610600D01*
X140292694Y-8610600D01*
X140322833Y-8640792D01*
X140666361Y-8783438D01*
X141038327Y-8783762D01*
X141382103Y-8641717D01*
X141645352Y-8378927D01*
X141787998Y-8035399D01*
X141788322Y-7663433D01*
X141646277Y-7319657D01*
X141383487Y-7056408D01*
X141039959Y-6913762D01*
X140667993Y-6913438D01*
X140324217Y-7055483D01*
X140293046Y-7086600D01*
X139772786Y-7086600D01*
X139742647Y-7056408D01*
X139399119Y-6913762D01*
X139027153Y-6913438D01*
X138683377Y-7055483D01*
X138652206Y-7086600D01*
X124578506Y-7086600D01*
X124548367Y-7056408D01*
X124204839Y-6913762D01*
X123832873Y-6913438D01*
X123489097Y-7055483D01*
X123457926Y-7086600D01*
X110633906Y-7086600D01*
X110603767Y-7056408D01*
X110260239Y-6913762D01*
X109888273Y-6913438D01*
X109544497Y-7055483D01*
X109281248Y-7318273D01*
X109176609Y-7570270D01*
X108990239Y-7492882D01*
X108618273Y-7492558D01*
X108274497Y-7634603D01*
X108011248Y-7897393D01*
X107904810Y-8153723D01*
X107720239Y-8077082D01*
X107348273Y-8076758D01*
X107004497Y-8218803D01*
X106741248Y-8481593D01*
X106598602Y-8825121D01*
X106598594Y-8834120D01*
X104283906Y-8834120D01*
X104253767Y-8803928D01*
X103910239Y-8661282D01*
X103538273Y-8660958D01*
X103194497Y-8803003D01*
X102931248Y-9065793D01*
X102788602Y-9409321D01*
X102788278Y-9781287D01*
X102885110Y-10015639D01*
X102638370Y-10180505D01*
X102431579Y-10489989D01*
X102060076Y-10074188D01*
X101532831Y-9820211D01*
X101517066Y-9817562D01*
X101285040Y-9938703D01*
X101285040Y-11297920D01*
X101305040Y-11297920D01*
X101305040Y-11551920D01*
X101285040Y-11551920D01*
X101285040Y-12911137D01*
X101517066Y-13032278D01*
X101532831Y-13029629D01*
X102060076Y-12775652D01*
X102431579Y-12359851D01*
X102638370Y-12669335D01*
X102873582Y-12826499D01*
X102763202Y-13092321D01*
X102762878Y-13464287D01*
X102904923Y-13808063D01*
X103167713Y-14071312D01*
X103511241Y-14213958D01*
X103883207Y-14214282D01*
X104226983Y-14072237D01*
X104258154Y-14041120D01*
X105302884Y-14041120D01*
X105302878Y-14048487D01*
X105444923Y-14392263D01*
X105707713Y-14655512D01*
X105787594Y-14688682D01*
X105600742Y-14725849D01*
X105378512Y-14874338D01*
X105230023Y-15096568D01*
X105177880Y-15358706D01*
X105177880Y-16358798D01*
X105230023Y-16620936D01*
X105378512Y-16843166D01*
X105600742Y-16991655D01*
X105862880Y-17043798D01*
X117651557Y-17043798D01*
X117465519Y-17163510D01*
X117320529Y-17375710D01*
X117269520Y-17627600D01*
X117269520Y-19659600D01*
X117313798Y-19894917D01*
X117452870Y-20111041D01*
X117665070Y-20256031D01*
X117916960Y-20307040D01*
X119948960Y-20307040D01*
X120184277Y-20262762D01*
X120400401Y-20123690D01*
X120511800Y-19960652D01*
X120608142Y-20049985D01*
X121090016Y-20249575D01*
X121345960Y-20130436D01*
X121345960Y-18770600D01*
X121599960Y-18770600D01*
X121599960Y-20130436D01*
X121855904Y-20249575D01*
X122337778Y-20049985D01*
X122810148Y-19611979D01*
X123078943Y-19026546D01*
X122960327Y-18770600D01*
X121599960Y-18770600D01*
X121345960Y-18770600D01*
X121325960Y-18770600D01*
X121325960Y-18516600D01*
X121345960Y-18516600D01*
X121345960Y-18496600D01*
X121599960Y-18496600D01*
X121599960Y-18516600D01*
X122960327Y-18516600D01*
X123078943Y-18260654D01*
X122810148Y-17675221D01*
X122337778Y-17237215D01*
X121870808Y-17043798D01*
X129975812Y-17043798D01*
X129715503Y-17303654D01*
X129561416Y-17674737D01*
X129561065Y-18076540D01*
X129714504Y-18447892D01*
X129998374Y-18732257D01*
X130369457Y-18886344D01*
X130771260Y-18886695D01*
X131142612Y-18733256D01*
X131173902Y-18702020D01*
X134552868Y-18702020D01*
X134570374Y-18719557D01*
X134941457Y-18873644D01*
X135343260Y-18873995D01*
X135714612Y-18720556D01*
X135733180Y-18702020D01*
X143303190Y-18702020D01*
X143333374Y-18732257D01*
X143704457Y-18886344D01*
X144106260Y-18886695D01*
X144477612Y-18733256D01*
X144508902Y-18702020D01*
X151759896Y-18702020D01*
X151558924Y-18836305D01*
X146397310Y-23997920D01*
X140802796Y-23997920D01*
X140802802Y-23990553D01*
X140660757Y-23646777D01*
X140397967Y-23383528D01*
X140054439Y-23240882D01*
X139682473Y-23240558D01*
X139338697Y-23382603D01*
X139307526Y-23413720D01*
X125113239Y-23413720D01*
X125397486Y-22988314D01*
X125511560Y-22414825D01*
X125511560Y-22045335D01*
X125397486Y-21471846D01*
X125072630Y-20985665D01*
X124586449Y-20660809D01*
X124012960Y-20546735D01*
X123439471Y-20660809D01*
X122953290Y-20985665D01*
X122742960Y-21300446D01*
X122532630Y-20985665D01*
X122046449Y-20660809D01*
X121472960Y-20546735D01*
X120899471Y-20660809D01*
X120413290Y-20985665D01*
X120398460Y-21007860D01*
X120334887Y-20854382D01*
X120156259Y-20675753D01*
X119922870Y-20579080D01*
X119218710Y-20579080D01*
X119059960Y-20737830D01*
X119059960Y-22103080D01*
X119079960Y-22103080D01*
X119079960Y-22357080D01*
X119059960Y-22357080D01*
X119059960Y-22377080D01*
X118805960Y-22377080D01*
X118805960Y-22357080D01*
X117593110Y-22357080D01*
X117434360Y-22515830D01*
X117434360Y-22656519D01*
X117249193Y-22656358D01*
X116905417Y-22798403D01*
X116874246Y-22829520D01*
X110176706Y-22829520D01*
X110146567Y-22799328D01*
X109803039Y-22656682D01*
X109431073Y-22656358D01*
X109087297Y-22798403D01*
X108824048Y-23061193D01*
X108681402Y-23404721D01*
X108681394Y-23413720D01*
X107192206Y-23413720D01*
X107162067Y-23383528D01*
X106818539Y-23240882D01*
X106446573Y-23240558D01*
X106102797Y-23382603D01*
X105956948Y-23528198D01*
X105036955Y-22608205D01*
X104937959Y-22542058D01*
X104789745Y-22443024D01*
X104498140Y-22385020D01*
X87744971Y-22385020D01*
X86447722Y-21087771D01*
X117434360Y-21087771D01*
X117434360Y-21944330D01*
X117593110Y-22103080D01*
X118805960Y-22103080D01*
X118805960Y-20737830D01*
X118647210Y-20579080D01*
X117943050Y-20579080D01*
X117709661Y-20675753D01*
X117531033Y-20854382D01*
X117434360Y-21087771D01*
X86447722Y-21087771D01*
X82151555Y-16791605D01*
X81904345Y-16626424D01*
X81612740Y-16568420D01*
X43095306Y-16568420D01*
X43065167Y-16538228D01*
X42721639Y-16395582D01*
X42349673Y-16395258D01*
X42005897Y-16537303D01*
X41742648Y-16800093D01*
X41600002Y-17143621D01*
X41599983Y-17165320D01*
X37964506Y-17165320D01*
X37934367Y-17135128D01*
X37590839Y-16992482D01*
X37218873Y-16992158D01*
X36875097Y-17134203D01*
X36611848Y-17396993D01*
X36469202Y-17740521D01*
X36468878Y-18112487D01*
X36610923Y-18456263D01*
X36873713Y-18719512D01*
X37217241Y-18862158D01*
X37589207Y-18862482D01*
X37932983Y-18720437D01*
X37964154Y-18689320D01*
X39105662Y-18689320D01*
X39009202Y-18921621D01*
X39009194Y-18930620D01*
X22737206Y-18930620D01*
X22707067Y-18900428D01*
X22363539Y-18757782D01*
X21991573Y-18757458D01*
X21647797Y-18899503D01*
X21384548Y-19162293D01*
X21241902Y-19505821D01*
X21241883Y-19527520D01*
X20184506Y-19527520D01*
X20154367Y-19497328D01*
X19810839Y-19354682D01*
X19438873Y-19354358D01*
X19095097Y-19496403D01*
X18831848Y-19759193D01*
X18689202Y-20102721D01*
X18689183Y-20124420D01*
X17644506Y-20124420D01*
X17614367Y-20094228D01*
X17270839Y-19951582D01*
X16898873Y-19951258D01*
X16555097Y-20093303D01*
X16291848Y-20356093D01*
X16149202Y-20699621D01*
X16148878Y-21071587D01*
X16290923Y-21415363D01*
X16553713Y-21678612D01*
X16897241Y-21821258D01*
X17269207Y-21821582D01*
X17612983Y-21679537D01*
X17644154Y-21648420D01*
X23768895Y-21648420D01*
X23768878Y-21668487D01*
X23910923Y-22012263D01*
X24173713Y-22275512D01*
X24517241Y-22418158D01*
X24889207Y-22418482D01*
X25232983Y-22276437D01*
X25264154Y-22245320D01*
X81271710Y-22245320D01*
X85671324Y-26644935D01*
X85838085Y-26756361D01*
X85918535Y-26810116D01*
X86210140Y-26868120D01*
X88044627Y-26868120D01*
X87680657Y-27018509D01*
X87023238Y-27674782D01*
X86667007Y-28532682D01*
X86666196Y-29461602D01*
X87020929Y-30320123D01*
X87677202Y-30977542D01*
X87873664Y-31059120D01*
X51158140Y-31059120D01*
X50856815Y-31119057D01*
X50601364Y-31289744D01*
X48922344Y-32968764D01*
X48915573Y-32968758D01*
X48571797Y-33110803D01*
X48308548Y-33373593D01*
X48165902Y-33717121D01*
X48165578Y-34089087D01*
X48307623Y-34432863D01*
X48570413Y-34696112D01*
X48913941Y-34838758D01*
X49285907Y-34839082D01*
X49629683Y-34697037D01*
X49892932Y-34434247D01*
X50035578Y-34090719D01*
X50035585Y-34082627D01*
X51484292Y-32633920D01*
X100648637Y-32633920D01*
X100467448Y-32814793D01*
X100324802Y-33158321D01*
X100324478Y-33530287D01*
X100466523Y-33874063D01*
X100497640Y-33905234D01*
X100497640Y-34467130D01*
X100253130Y-34711640D01*
X77709431Y-34711640D01*
X76428935Y-33431145D01*
X76409632Y-33418247D01*
X76181725Y-33265964D01*
X75890120Y-33207960D01*
X74180700Y-33207960D01*
X73889095Y-33265964D01*
X73808644Y-33319720D01*
X73641885Y-33431144D01*
X71416510Y-35656520D01*
X39183706Y-35656520D01*
X39153567Y-35626328D01*
X38810039Y-35483682D01*
X38438073Y-35483358D01*
X38094297Y-35625403D01*
X37831048Y-35888193D01*
X37688402Y-36231721D01*
X37688078Y-36603687D01*
X37779489Y-36824920D01*
X1232570Y-36824920D01*
X264190Y-35856540D01*
X7780765Y-35856540D01*
X7934204Y-36227892D01*
X8218074Y-36512257D01*
X8589157Y-36666344D01*
X8990960Y-36666695D01*
X9362312Y-36513256D01*
X9393602Y-36482020D01*
X13953690Y-36482020D01*
X13983874Y-36512257D01*
X14354957Y-36666344D01*
X14756760Y-36666695D01*
X15128112Y-36513256D01*
X15412477Y-36229386D01*
X15566564Y-35858303D01*
X15566915Y-35456500D01*
X15413476Y-35085148D01*
X15129606Y-34800783D01*
X14758523Y-34646696D01*
X14356720Y-34646345D01*
X13985368Y-34799784D01*
X13954078Y-34831020D01*
X9393990Y-34831020D01*
X9363806Y-34800783D01*
X8992723Y-34646696D01*
X8590920Y-34646345D01*
X8219568Y-34799784D01*
X7935203Y-35083654D01*
X7781116Y-35454737D01*
X7780765Y-35856540D01*
X264190Y-35856540D01*
X-10240Y-35582110D01*
X-5368Y-35577247D01*
X137278Y-35233719D01*
X137602Y-34861753D01*
X-4443Y-34517977D01*
X-267233Y-34254728D01*
X-610761Y-34112082D01*
X-982727Y-34111758D01*
X-1326503Y-34253803D01*
X-1589752Y-34516593D01*
X-1732398Y-34860121D01*
X-1732722Y-35232087D01*
X-3814561Y-35232087D01*
X-3814561Y-26962242D01*
X4169536Y-26962242D01*
X4524269Y-27820763D01*
X5180542Y-28478182D01*
X6038442Y-28834413D01*
X6967362Y-28835224D01*
X7825883Y-28480491D01*
X8483302Y-27824218D01*
X8839533Y-26966318D01*
X8839536Y-26962242D01*
X79168116Y-26962242D01*
X79522849Y-27820763D01*
X80179122Y-28478182D01*
X81037022Y-28834413D01*
X81965942Y-28835224D01*
X82824463Y-28480491D01*
X83481882Y-27824218D01*
X83838113Y-26966318D01*
X83838924Y-26037398D01*
X83484191Y-25178877D01*
X82827918Y-24521458D01*
X81970018Y-24165227D01*
X81041098Y-24164416D01*
X80182577Y-24519149D01*
X79525158Y-25175422D01*
X79168927Y-26033322D01*
X79168116Y-26962242D01*
X8839536Y-26962242D01*
X8840344Y-26037398D01*
X8485611Y-25178877D01*
X7829338Y-24521458D01*
X6971438Y-24165227D01*
X6042518Y-24164416D01*
X5183997Y-24519149D01*
X4526578Y-25175422D01*
X4170347Y-26033322D01*
X4169536Y-26962242D01*
X-3814561Y-26962242D01*
X-3814561Y-6786240D01*
X2992865Y-6786240D01*
X3146304Y-7157592D01*
X3430174Y-7441957D01*
X3801257Y-7596044D01*
X4203060Y-7596395D01*
X4574412Y-7442956D01*
X4605702Y-7411720D01*
X13940990Y-7411720D01*
X13971174Y-7441957D01*
X14342257Y-7596044D01*
X14744060Y-7596395D01*
X15115412Y-7442956D01*
X15146702Y-7411720D01*
X46960990Y-7411720D01*
X46991174Y-7441957D01*
X47362257Y-7596044D01*
X47764060Y-7596395D01*
X48135412Y-7442956D01*
X48419777Y-7159086D01*
X48573864Y-6788003D01*
X48574020Y-6609080D01*
X83555442Y-6609080D01*
X83555442Y-16359324D01*
X83607585Y-16621462D01*
X83756074Y-16843692D01*
X83978304Y-16992181D01*
X84240442Y-17044324D01*
X84240501Y-17044312D01*
X84240560Y-17044324D01*
X103220520Y-17044324D01*
X103482658Y-16992181D01*
X103704888Y-16843692D01*
X103853377Y-16621462D01*
X103905520Y-16359324D01*
X103905468Y-16359061D01*
X103905520Y-16358798D01*
X103905520Y-15358706D01*
X103853377Y-15096568D01*
X103704888Y-14874338D01*
X103482658Y-14725849D01*
X103220520Y-14673706D01*
X103216604Y-14674485D01*
X85925534Y-14674485D01*
X85925534Y-11786833D01*
X99672856Y-11786833D01*
X99866086Y-12339240D01*
X100256004Y-12775652D01*
X100783249Y-13029629D01*
X100799014Y-13032278D01*
X101031040Y-12911137D01*
X101031040Y-11551920D01*
X99817116Y-11551920D01*
X99672856Y-11786833D01*
X85925534Y-11786833D01*
X85925534Y-11063007D01*
X99672856Y-11063007D01*
X99817116Y-11297920D01*
X101031040Y-11297920D01*
X101031040Y-9938703D01*
X100799014Y-9817562D01*
X100783249Y-9820211D01*
X100256004Y-10074188D01*
X99866086Y-10510600D01*
X99672856Y-11063007D01*
X85925534Y-11063007D01*
X85925534Y-6609080D01*
X85873391Y-6346942D01*
X85788284Y-6219570D01*
X100388575Y-6219570D01*
X100456635Y-6460571D01*
X100975934Y-6645407D01*
X101526438Y-6617445D01*
X101905165Y-6460571D01*
X101973225Y-6219570D01*
X101180900Y-5427245D01*
X100388575Y-6219570D01*
X85788284Y-6219570D01*
X85724902Y-6124712D01*
X85502672Y-5976223D01*
X85240534Y-5924080D01*
X84240442Y-5924080D01*
X83978304Y-5976223D01*
X83756074Y-6124712D01*
X83607585Y-6346942D01*
X83555442Y-6609080D01*
X48574020Y-6609080D01*
X48574215Y-6386200D01*
X48420776Y-6014848D01*
X48136906Y-5730483D01*
X47765823Y-5576396D01*
X47364020Y-5576045D01*
X46992668Y-5729484D01*
X46961378Y-5760720D01*
X15147090Y-5760720D01*
X15116906Y-5730483D01*
X14745823Y-5576396D01*
X14344020Y-5576045D01*
X13972668Y-5729484D01*
X13941378Y-5760720D01*
X4606090Y-5760720D01*
X4575906Y-5730483D01*
X4204823Y-5576396D01*
X3803020Y-5576045D01*
X3431668Y-5729484D01*
X3147303Y-6013354D01*
X2993216Y-6384437D01*
X2992865Y-6786240D01*
X-3814561Y-6786240D01*
X-3814561Y-5042674D01*
X99783133Y-5042674D01*
X99811095Y-5593178D01*
X99967969Y-5971905D01*
X100208970Y-6039965D01*
X101001295Y-5247640D01*
X101360505Y-5247640D01*
X102152830Y-6039965D01*
X102393831Y-5971905D01*
X102452669Y-5806600D01*
X102545586Y-6031477D01*
X102935013Y-6421584D01*
X103444084Y-6632969D01*
X103995298Y-6633450D01*
X104504737Y-6422954D01*
X104894844Y-6033527D01*
X104990875Y-5802259D01*
X105085586Y-6031477D01*
X105475013Y-6421584D01*
X105984084Y-6632969D01*
X106535298Y-6633450D01*
X107044737Y-6422954D01*
X107434844Y-6033527D01*
X107530875Y-5802259D01*
X107625586Y-6031477D01*
X108015013Y-6421584D01*
X108524084Y-6632969D01*
X109075298Y-6633450D01*
X109584737Y-6422954D01*
X109732498Y-6275450D01*
X129529995Y-6275450D01*
X129598055Y-6516451D01*
X130117354Y-6701287D01*
X130667858Y-6673325D01*
X131046585Y-6516451D01*
X131114645Y-6275450D01*
X130322320Y-5483125D01*
X129529995Y-6275450D01*
X109732498Y-6275450D01*
X109974844Y-6033527D01*
X110186229Y-5524456D01*
X110186600Y-5098554D01*
X128924553Y-5098554D01*
X128952515Y-5649058D01*
X129109389Y-6027785D01*
X129350390Y-6095845D01*
X130142715Y-5303520D01*
X129350390Y-4511195D01*
X129109389Y-4579255D01*
X128924553Y-5098554D01*
X110186600Y-5098554D01*
X110186710Y-4973242D01*
X109976214Y-4463803D01*
X109844232Y-4331590D01*
X129529995Y-4331590D01*
X130322320Y-5123915D01*
X131114645Y-4331590D01*
X131046585Y-4090589D01*
X130527286Y-3905753D01*
X129976782Y-3933715D01*
X129598055Y-4090589D01*
X129529995Y-4331590D01*
X109844232Y-4331590D01*
X109618685Y-4105650D01*
X110821470Y-4105650D01*
X111056787Y-4061372D01*
X111272911Y-3922300D01*
X111417901Y-3710100D01*
X111468910Y-3458210D01*
X111468910Y-2209800D01*
X128452406Y-2209800D01*
X128482635Y-2240082D01*
X128881273Y-2405611D01*
X129312913Y-2405988D01*
X129711840Y-2241154D01*
X129743249Y-2209800D01*
X130321972Y-2209800D01*
X130206991Y-2486704D01*
X130206510Y-3037918D01*
X130417006Y-3547357D01*
X130806433Y-3937464D01*
X131315504Y-4148849D01*
X131866718Y-4149330D01*
X132376157Y-3938834D01*
X132766264Y-3549407D01*
X132862295Y-3318139D01*
X132957006Y-3547357D01*
X133346433Y-3937464D01*
X133855504Y-4148849D01*
X134406718Y-4149330D01*
X134916157Y-3938834D01*
X135306264Y-3549407D01*
X135402295Y-3318139D01*
X135497006Y-3547357D01*
X135886433Y-3937464D01*
X136395504Y-4148849D01*
X136946718Y-4149330D01*
X137456157Y-3938834D01*
X137824957Y-3570676D01*
X137858588Y-3749407D01*
X137967056Y-3917971D01*
X137667922Y-3917710D01*
X137158483Y-4128206D01*
X136768376Y-4517633D01*
X136672345Y-4748901D01*
X136577634Y-4519683D01*
X136188207Y-4129576D01*
X135679136Y-3918191D01*
X135127922Y-3917710D01*
X134618483Y-4128206D01*
X134228376Y-4517633D01*
X134132345Y-4748901D01*
X134037634Y-4519683D01*
X133648207Y-4129576D01*
X133139136Y-3918191D01*
X132587922Y-3917710D01*
X132078483Y-4128206D01*
X131688376Y-4517633D01*
X131598941Y-4733016D01*
X131535251Y-4579255D01*
X131294250Y-4511195D01*
X130501925Y-5303520D01*
X131294250Y-6095845D01*
X131535251Y-6027785D01*
X131594089Y-5862480D01*
X131687006Y-6087357D01*
X132076433Y-6477464D01*
X132585504Y-6688849D01*
X133136718Y-6689330D01*
X133646157Y-6478834D01*
X134036264Y-6089407D01*
X134132295Y-5858139D01*
X134227006Y-6087357D01*
X134616433Y-6477464D01*
X135125504Y-6688849D01*
X135676718Y-6689330D01*
X136186157Y-6478834D01*
X136576264Y-6089407D01*
X136672295Y-5858139D01*
X136767006Y-6087357D01*
X137156433Y-6477464D01*
X137665504Y-6688849D01*
X138216718Y-6689330D01*
X138726157Y-6478834D01*
X139116264Y-6089407D01*
X139327649Y-5580336D01*
X139328130Y-5029122D01*
X139117634Y-4519683D01*
X138760105Y-4161530D01*
X139962890Y-4161530D01*
X140198207Y-4117252D01*
X140414331Y-3978180D01*
X140559321Y-3765980D01*
X140610330Y-3514090D01*
X140610330Y-2898353D01*
X144076105Y-2898353D01*
X144316899Y-3481117D01*
X144762377Y-3927374D01*
X145344721Y-4169184D01*
X145975273Y-4169735D01*
X146558037Y-3928941D01*
X147004294Y-3483463D01*
X147246104Y-2901119D01*
X147246655Y-2270567D01*
X147005861Y-1687803D01*
X146560383Y-1241546D01*
X145978039Y-999736D01*
X145347487Y-999185D01*
X144764723Y-1239979D01*
X144318466Y-1685457D01*
X144076656Y-2267801D01*
X144076105Y-2898353D01*
X140610330Y-2898353D01*
X140610330Y-2012950D01*
X140566052Y-1777633D01*
X140426980Y-1561509D01*
X140214780Y-1416519D01*
X139962890Y-1365510D01*
X138461750Y-1365510D01*
X138226433Y-1409788D01*
X138010309Y-1548860D01*
X137865319Y-1761060D01*
X137825531Y-1957541D01*
X137458207Y-1589576D01*
X136949136Y-1378191D01*
X136397922Y-1377710D01*
X135888483Y-1588206D01*
X135498376Y-1977633D01*
X135402345Y-2208901D01*
X135307634Y-1979683D01*
X134918207Y-1589576D01*
X134409136Y-1378191D01*
X134003873Y-1377837D01*
X133318218Y-692182D01*
X133029806Y-499471D01*
X132689600Y-431800D01*
X129743674Y-431800D01*
X129713445Y-401518D01*
X129314807Y-235989D01*
X128883167Y-235612D01*
X128484240Y-400446D01*
X128452831Y-431800D01*
X106377740Y-431800D01*
X106037534Y-499471D01*
X105749122Y-692182D01*
X105119123Y-1322181D01*
X104716502Y-1321830D01*
X104207063Y-1532326D01*
X103816956Y-1921753D01*
X103727521Y-2137136D01*
X103663831Y-1983375D01*
X103422830Y-1915315D01*
X102630505Y-2707640D01*
X103422830Y-3499965D01*
X103663831Y-3431905D01*
X103722669Y-3266600D01*
X103815586Y-3491477D01*
X104205013Y-3881584D01*
X104714084Y-4092969D01*
X105265298Y-4093450D01*
X105774737Y-3882954D01*
X106164844Y-3493527D01*
X106260875Y-3262259D01*
X106355586Y-3491477D01*
X106745013Y-3881584D01*
X107254084Y-4092969D01*
X107805298Y-4093450D01*
X108314737Y-3882954D01*
X108683537Y-3514796D01*
X108717168Y-3693527D01*
X108825636Y-3862091D01*
X108526502Y-3861830D01*
X108017063Y-4072326D01*
X107626956Y-4461753D01*
X107530925Y-4693021D01*
X107436214Y-4463803D01*
X107046787Y-4073696D01*
X106537716Y-3862311D01*
X105986502Y-3861830D01*
X105477063Y-4072326D01*
X105086956Y-4461753D01*
X104990925Y-4693021D01*
X104896214Y-4463803D01*
X104506787Y-4073696D01*
X103997716Y-3862311D01*
X103446502Y-3861830D01*
X102937063Y-4072326D01*
X102546956Y-4461753D01*
X102457521Y-4677136D01*
X102393831Y-4523375D01*
X102152830Y-4455315D01*
X101360505Y-5247640D01*
X101001295Y-5247640D01*
X100208970Y-4455315D01*
X99967969Y-4523375D01*
X99783133Y-5042674D01*
X-3814561Y-5042674D01*
X-3814561Y-462422D01*
X-2335404Y-462422D01*
X-1980671Y-1320943D01*
X-1324398Y-1978362D01*
X-466498Y-2334593D01*
X462422Y-2335404D01*
X1320943Y-1980671D01*
X1978362Y-1324398D01*
X2334593Y-466498D01*
X2335404Y462422D01*
X1980671Y1320943D01*
X1324398Y1978362D01*
X466498Y2334593D01*
X-462422Y2335404D01*
X-1320943Y1980671D01*
X-1978362Y1324398D01*
X-2334593Y466498D01*
X-2335404Y-462422D01*
X-3814561Y-462422D01*
X-3814561Y6315563D01*
X5017719Y6315563D01*
X4526578Y5825278D01*
X4526578Y5825278D01*
G37*
X4526578Y5825278D02*
X4170347Y4967378D01*
X4169536Y4038458D01*
X4524269Y3179937D01*
X5180542Y2522518D01*
X6038442Y2166287D01*
X6967362Y2165476D01*
X7825883Y2520209D01*
X8483302Y3176482D01*
X8839533Y4034382D01*
X8839829Y4373880D01*
X10469040Y4373880D01*
X10469040Y3973880D01*
X10634486Y3396128D01*
X11008434Y2925668D01*
X11533954Y2634124D01*
X11639300Y2609844D01*
X11877040Y2730502D01*
X11877040Y4373880D01*
X10469040Y4373880D01*
X8839829Y4373880D01*
X8840344Y4963302D01*
X8485611Y5821823D01*
X7992732Y6315563D01*
X11440090Y6315563D01*
X11008434Y6076092D01*
X10634486Y5605632D01*
X10469040Y5027880D01*
X10469040Y4627880D01*
X11877040Y4627880D01*
X11877040Y4647880D01*
X12131040Y4647880D01*
X12131040Y4627880D01*
X12151040Y4627880D01*
X12151040Y4373880D01*
X12131040Y4373880D01*
X12131040Y2730502D01*
X12368780Y2609844D01*
X12474126Y2634124D01*
X12999646Y2925668D01*
X13267848Y3263090D01*
X13458631Y2977562D01*
X13956621Y2644816D01*
X14544040Y2527971D01*
X15131459Y2644816D01*
X15629449Y2977562D01*
X15814040Y3253822D01*
X15998631Y2977562D01*
X16496621Y2644816D01*
X17084040Y2527971D01*
X17671459Y2644816D01*
X18169449Y2977562D01*
X18354040Y3253822D01*
X18538631Y2977562D01*
X19036621Y2644816D01*
X19624040Y2527971D01*
X20211459Y2644816D01*
X20709449Y2977562D01*
X20894040Y3253822D01*
X21078631Y2977562D01*
X21576621Y2644816D01*
X22164040Y2527971D01*
X22751459Y2644816D01*
X23249449Y2977562D01*
X23434040Y3253822D01*
X23618631Y2977562D01*
X24116621Y2644816D01*
X24704040Y2527971D01*
X25291459Y2644816D01*
X25789449Y2977562D01*
X25980232Y3263090D01*
X26248434Y2925668D01*
X26773954Y2634124D01*
X26879300Y2609844D01*
X27117040Y2730502D01*
X27117040Y4373880D01*
X27371040Y4373880D01*
X27371040Y2730502D01*
X27608780Y2609844D01*
X27714126Y2634124D01*
X28239646Y2925668D01*
X28514040Y3270880D01*
X28788434Y2925668D01*
X29313954Y2634124D01*
X29419300Y2609844D01*
X29657040Y2730502D01*
X29657040Y4373880D01*
X29911040Y4373880D01*
X29911040Y2730502D01*
X30148780Y2609844D01*
X30254126Y2634124D01*
X30779646Y2925668D01*
X31054040Y3270880D01*
X31328434Y2925668D01*
X31853954Y2634124D01*
X31959300Y2609844D01*
X32197040Y2730502D01*
X32197040Y4373880D01*
X32451040Y4373880D01*
X32451040Y2730502D01*
X32688780Y2609844D01*
X32794126Y2634124D01*
X33319646Y2925668D01*
X33594040Y3270880D01*
X33868434Y2925668D01*
X34393954Y2634124D01*
X34499300Y2609844D01*
X34737040Y2730502D01*
X34737040Y4373880D01*
X32451040Y4373880D01*
X32197040Y4373880D01*
X29911040Y4373880D01*
X29657040Y4373880D01*
X27371040Y4373880D01*
X27117040Y4373880D01*
X27097040Y4373880D01*
X27097040Y4627880D01*
X27117040Y4627880D01*
X27117040Y4647880D01*
X27371040Y4647880D01*
X27371040Y4627880D01*
X29657040Y4627880D01*
X29657040Y4647880D01*
X29911040Y4647880D01*
X29911040Y4627880D01*
X32197040Y4627880D01*
X32197040Y4647880D01*
X32451040Y4647880D01*
X32451040Y4627880D01*
X34737040Y4627880D01*
X34737040Y4647880D01*
X34991040Y4647880D01*
X34991040Y4627880D01*
X35011040Y4627880D01*
X35011040Y4373880D01*
X34991040Y4373880D01*
X34991040Y2730502D01*
X35228780Y2609844D01*
X35334126Y2634124D01*
X35859646Y2925668D01*
X36127848Y3263090D01*
X36318631Y2977562D01*
X36816621Y2644816D01*
X37404040Y2527971D01*
X37991459Y2644816D01*
X38489449Y2977562D01*
X38674040Y3253822D01*
X38858631Y2977562D01*
X39356621Y2644816D01*
X39944040Y2527971D01*
X40531459Y2644816D01*
X41029449Y2977562D01*
X41214040Y3253822D01*
X41398631Y2977562D01*
X41896621Y2644816D01*
X42484040Y2527971D01*
X43071459Y2644816D01*
X43569449Y2977562D01*
X43754040Y3253822D01*
X43938631Y2977562D01*
X44436621Y2644816D01*
X45024040Y2527971D01*
X45611459Y2644816D01*
X46109449Y2977562D01*
X46294040Y3253822D01*
X46478631Y2977562D01*
X46976621Y2644816D01*
X47564040Y2527971D01*
X48151459Y2644816D01*
X48649449Y2977562D01*
X48834040Y3253822D01*
X49018631Y2977562D01*
X49516621Y2644816D01*
X50104040Y2527971D01*
X50691459Y2644816D01*
X51189449Y2977562D01*
X51522195Y3475552D01*
X51639040Y4062971D01*
X51639040Y4938789D01*
X51522195Y5526208D01*
X51189449Y6024198D01*
X50753390Y6315563D01*
X80016299Y6315563D01*
X79525158Y5825278D01*
X79168927Y4967378D01*
X79168116Y4038458D01*
X79522849Y3179937D01*
X80179122Y2522518D01*
X81037022Y2166287D01*
X81965942Y2165476D01*
X82824463Y2520209D01*
X83481882Y3176482D01*
X83555442Y3353634D01*
X83555442Y-4069080D01*
X83607585Y-4331218D01*
X83756074Y-4553448D01*
X83978304Y-4701937D01*
X84240442Y-4754080D01*
X85240534Y-4754080D01*
X85502672Y-4701937D01*
X85724902Y-4553448D01*
X85873391Y-4331218D01*
X85884432Y-4275710D01*
X100388575Y-4275710D01*
X101180900Y-5068035D01*
X101973225Y-4275710D01*
X101905165Y-4034709D01*
X101385866Y-3849873D01*
X100835362Y-3877835D01*
X100456635Y-4034709D01*
X100388575Y-4275710D01*
X85884432Y-4275710D01*
X85925534Y-4069080D01*
X85925534Y-3509802D01*
X86342377Y-3927374D01*
X86924721Y-4169184D01*
X87555273Y-4169735D01*
X88138037Y-3928941D01*
X88584294Y-3483463D01*
X88826104Y-2901119D01*
X88826106Y-2898353D01*
X93156105Y-2898353D01*
X93396899Y-3481117D01*
X93842377Y-3927374D01*
X94424721Y-4169184D01*
X95055273Y-4169735D01*
X95638037Y-3928941D01*
X95887844Y-3679570D01*
X101658575Y-3679570D01*
X101726635Y-3920571D01*
X102245934Y-4105407D01*
X102796438Y-4077445D01*
X103175165Y-3920571D01*
X103243225Y-3679570D01*
X102450900Y-2887245D01*
X101658575Y-3679570D01*
X95887844Y-3679570D01*
X96084294Y-3483463D01*
X96326104Y-2901119D01*
X96326452Y-2502674D01*
X101053133Y-2502674D01*
X101081095Y-3053178D01*
X101237969Y-3431905D01*
X101478970Y-3499965D01*
X102271295Y-2707640D01*
X101478970Y-1915315D01*
X101237969Y-1983375D01*
X101053133Y-2502674D01*
X96326452Y-2502674D01*
X96326655Y-2270567D01*
X96105656Y-1735710D01*
X101658575Y-1735710D01*
X102450900Y-2528035D01*
X103243225Y-1735710D01*
X103175165Y-1494709D01*
X102655866Y-1309873D01*
X102105362Y-1337835D01*
X101726635Y-1494709D01*
X101658575Y-1735710D01*
X96105656Y-1735710D01*
X96085861Y-1687803D01*
X95640383Y-1241546D01*
X95058039Y-999736D01*
X94427487Y-999185D01*
X93844723Y-1239979D01*
X93398466Y-1685457D01*
X93156656Y-2267801D01*
X93156105Y-2898353D01*
X88826106Y-2898353D01*
X88826655Y-2270567D01*
X88585861Y-1687803D01*
X88140383Y-1241546D01*
X87558039Y-999736D01*
X86927487Y-999185D01*
X86344723Y-1239979D01*
X85925534Y-1658436D01*
X85925534Y1490198D01*
X86342377Y1072626D01*
X86924721Y830816D01*
X87555273Y830265D01*
X88138037Y1071059D01*
X88584294Y1516537D01*
X88826104Y2098881D01*
X88826106Y2101647D01*
X93156105Y2101647D01*
X93396899Y1518883D01*
X93842377Y1072626D01*
X94424721Y830816D01*
X95055273Y830265D01*
X95638037Y1071059D01*
X96084294Y1516537D01*
X96326104Y2098881D01*
X96326655Y2729433D01*
X96136419Y3189839D01*
X97401984Y3189839D01*
X97749122Y2349702D01*
X98391341Y1706361D01*
X99230871Y1357757D01*
X100139901Y1356964D01*
X100980038Y1704102D01*
X101623379Y2346321D01*
X101971983Y3185851D01*
X101971995Y3199741D01*
X109321413Y3199741D01*
X109660955Y2377988D01*
X110289121Y1748724D01*
X111110281Y1407749D01*
X111999419Y1406973D01*
X112821172Y1746515D01*
X113286378Y2210910D01*
X116908392Y2210910D01*
X117073162Y1812137D01*
X117377993Y1506774D01*
X117776477Y1341309D01*
X118207950Y1340932D01*
X118606723Y1505702D01*
X118912086Y1810533D01*
X119077551Y2209017D01*
X119077552Y2210910D01*
X121307672Y2210910D01*
X121472442Y1812137D01*
X121777273Y1506774D01*
X122175757Y1341309D01*
X122607230Y1340932D01*
X123006003Y1505702D01*
X123311366Y1810533D01*
X123476831Y2209017D01*
X123477208Y2640490D01*
X123312438Y3039263D01*
X123217907Y3133959D01*
X126543404Y3133959D01*
X126890542Y2293822D01*
X127532761Y1650481D01*
X128372291Y1301877D01*
X129281321Y1301084D01*
X130121458Y1648222D01*
X130764799Y2290441D01*
X131113403Y3129971D01*
X131113415Y3143861D01*
X138462833Y3143861D01*
X138802375Y2322108D01*
X139430541Y1692844D01*
X140251701Y1351869D01*
X141140839Y1351093D01*
X141962592Y1690635D01*
X142371777Y2099107D01*
X144076105Y2099107D01*
X144316899Y1516343D01*
X144762377Y1070086D01*
X145344721Y828276D01*
X145975273Y827725D01*
X146558037Y1068519D01*
X147004294Y1513997D01*
X147246104Y2096341D01*
X147246655Y2726893D01*
X147005861Y3309657D01*
X146560383Y3755914D01*
X145978039Y3997724D01*
X145347487Y3998275D01*
X144764723Y3757481D01*
X144318466Y3312003D01*
X144076656Y2729659D01*
X144076105Y2099107D01*
X142371777Y2099107D01*
X142591856Y2318801D01*
X142932831Y3139961D01*
X142933607Y4029099D01*
X142594065Y4850852D01*
X141965899Y5480116D01*
X141144739Y5821091D01*
X140255601Y5821867D01*
X139433848Y5482325D01*
X138804584Y4854159D01*
X138463609Y4032999D01*
X138462833Y3143861D01*
X131113415Y3143861D01*
X131114196Y4039001D01*
X130767058Y4879138D01*
X130124839Y5522479D01*
X129285309Y5871083D01*
X128376279Y5871876D01*
X127536142Y5524738D01*
X126892801Y4882519D01*
X126544197Y4042989D01*
X126543404Y3133959D01*
X123217907Y3133959D01*
X123007607Y3344626D01*
X122609123Y3510091D01*
X122177650Y3510468D01*
X121778877Y3345698D01*
X121473514Y3040867D01*
X121308049Y2642383D01*
X121307672Y2210910D01*
X119077552Y2210910D01*
X119077928Y2640490D01*
X118913158Y3039263D01*
X118608327Y3344626D01*
X118209843Y3510091D01*
X117778370Y3510468D01*
X117379597Y3345698D01*
X117074234Y3040867D01*
X116908769Y2642383D01*
X116908392Y2210910D01*
X113286378Y2210910D01*
X113450436Y2374681D01*
X113791411Y3195841D01*
X113792187Y4084979D01*
X113452645Y4906732D01*
X112824479Y5535996D01*
X112003319Y5876971D01*
X111114181Y5877747D01*
X110292428Y5538205D01*
X109663164Y4910039D01*
X109322189Y4088879D01*
X109321413Y3199741D01*
X101971995Y3199741D01*
X101972776Y4094881D01*
X101625638Y4935018D01*
X100983419Y5578359D01*
X100143889Y5926963D01*
X99234859Y5927756D01*
X98394722Y5580618D01*
X97751381Y4938399D01*
X97402777Y4098869D01*
X97401984Y3189839D01*
X96136419Y3189839D01*
X96085861Y3312197D01*
X95640383Y3758454D01*
X95058039Y4000264D01*
X94427487Y4000815D01*
X93844723Y3760021D01*
X93398466Y3314543D01*
X93156656Y2732199D01*
X93156105Y2101647D01*
X88826106Y2101647D01*
X88826655Y2729433D01*
X88585861Y3312197D01*
X88140383Y3758454D01*
X87558039Y4000264D01*
X86927487Y4000815D01*
X86344723Y3760021D01*
X85925534Y3341564D01*
X85925534Y6312054D01*
X154475536Y6312054D01*
X154475536Y3342575D01*
X154060383Y3758454D01*
X153478039Y4000264D01*
X152847487Y4000815D01*
X152264723Y3760021D01*
X151818466Y3314543D01*
X151576656Y2732199D01*
X151576105Y2101647D01*
X151816899Y1518883D01*
X152262377Y1072626D01*
X152844721Y830816D01*
X153475273Y830265D01*
X154058037Y1071059D01*
X154475536Y1487829D01*
X154475536Y-1657425D01*
X154060383Y-1241546D01*
X153478039Y-999736D01*
X152847487Y-999185D01*
X152264723Y-1239979D01*
X151818466Y-1685457D01*
X151576656Y-2267801D01*
X151576105Y-2898353D01*
X151816899Y-3481117D01*
X152262377Y-3927374D01*
X152844721Y-4169184D01*
X153475273Y-4169735D01*
X154058037Y-3928941D01*
X154475536Y-3512171D01*
X154475536Y-4069080D01*
X154527679Y-4331218D01*
X154676168Y-4553448D01*
X154898398Y-4701937D01*
X155160536Y-4754080D01*
X156157334Y-4754080D01*
X156158888Y-4753771D01*
X156160442Y-4754080D01*
X156422580Y-4701937D01*
X156644810Y-4553448D01*
X156793299Y-4331218D01*
X156845442Y-4069080D01*
X156845442Y-462422D01*
X238065436Y-462422D01*
X238420169Y-1320943D01*
X239076442Y-1978362D01*
X239934342Y-2334593D01*
X240863262Y-2335404D01*
X241721783Y-1980671D01*
X242379202Y-1324398D01*
X242735433Y-466498D01*
X242736244Y462422D01*
X242381511Y1320943D01*
X241725238Y1978362D01*
X240867338Y2334593D01*
X239938418Y2335404D01*
X239079897Y1980671D01*
X238422478Y1324398D01*
X238066247Y466498D01*
X238065436Y-462422D01*
X156845442Y-462422D01*
X156845442Y3370713D01*
X156924269Y3179937D01*
X157580542Y2522518D01*
X158438442Y2166287D01*
X159367362Y2165476D01*
X160225883Y2520209D01*
X160883302Y3176482D01*
X161239533Y4034382D01*
X161239829Y4373880D01*
X162869040Y4373880D01*
X162869040Y3973880D01*
X163034486Y3396128D01*
X163408434Y2925668D01*
X163933954Y2634124D01*
X164039300Y2609844D01*
X164277040Y2730502D01*
X164277040Y4373880D01*
X162869040Y4373880D01*
X161239829Y4373880D01*
X161240344Y4963302D01*
X160885611Y5821823D01*
X160392732Y6315563D01*
X163840090Y6315563D01*
X163408434Y6076092D01*
X163034486Y5605632D01*
X162869040Y5027880D01*
X162869040Y4627880D01*
X164277040Y4627880D01*
X164277040Y4647880D01*
X164531040Y4647880D01*
X164531040Y4627880D01*
X164551040Y4627880D01*
X164551040Y4373880D01*
X164531040Y4373880D01*
X164531040Y2730502D01*
X164768780Y2609844D01*
X164874126Y2634124D01*
X165399646Y2925668D01*
X165667848Y3263090D01*
X165858631Y2977562D01*
X166356621Y2644816D01*
X166944040Y2527971D01*
X167531459Y2644816D01*
X168029449Y2977562D01*
X168214040Y3253822D01*
X168398631Y2977562D01*
X168896621Y2644816D01*
X169484040Y2527971D01*
X170071459Y2644816D01*
X170569449Y2977562D01*
X170754040Y3253822D01*
X170938631Y2977562D01*
X171436621Y2644816D01*
X172024040Y2527971D01*
X172611459Y2644816D01*
X173109449Y2977562D01*
X173294040Y3253822D01*
X173478631Y2977562D01*
X173976621Y2644816D01*
X174564040Y2527971D01*
X175151459Y2644816D01*
X175649449Y2977562D01*
X175834040Y3253822D01*
X176018631Y2977562D01*
X176516621Y2644816D01*
X177104040Y2527971D01*
X177691459Y2644816D01*
X178189449Y2977562D01*
X178380232Y3263090D01*
X178648434Y2925668D01*
X179173954Y2634124D01*
X179279300Y2609844D01*
X179517040Y2730502D01*
X179517040Y4373880D01*
X179771040Y4373880D01*
X179771040Y2730502D01*
X180008780Y2609844D01*
X180114126Y2634124D01*
X180639646Y2925668D01*
X180914040Y3270880D01*
X181188434Y2925668D01*
X181713954Y2634124D01*
X181819300Y2609844D01*
X182057040Y2730502D01*
X182057040Y4373880D01*
X182311040Y4373880D01*
X182311040Y2730502D01*
X182548780Y2609844D01*
X182654126Y2634124D01*
X183179646Y2925668D01*
X183454040Y3270880D01*
X183728434Y2925668D01*
X184253954Y2634124D01*
X184359300Y2609844D01*
X184597040Y2730502D01*
X184597040Y4373880D01*
X184851040Y4373880D01*
X184851040Y2730502D01*
X185088780Y2609844D01*
X185194126Y2634124D01*
X185719646Y2925668D01*
X185994040Y3270880D01*
X186268434Y2925668D01*
X186793954Y2634124D01*
X186899300Y2609844D01*
X187137040Y2730502D01*
X187137040Y4373880D01*
X184851040Y4373880D01*
X184597040Y4373880D01*
X182311040Y4373880D01*
X182057040Y4373880D01*
X179771040Y4373880D01*
X179517040Y4373880D01*
X179497040Y4373880D01*
X179497040Y4627880D01*
X179517040Y4627880D01*
X179517040Y4647880D01*
X179771040Y4647880D01*
X179771040Y4627880D01*
X182057040Y4627880D01*
X182057040Y4647880D01*
X182311040Y4647880D01*
X182311040Y4627880D01*
X184597040Y4627880D01*
X184597040Y4647880D01*
X184851040Y4647880D01*
X184851040Y4627880D01*
X187137040Y4627880D01*
X187137040Y4647880D01*
X187391040Y4647880D01*
X187391040Y4627880D01*
X187411040Y4627880D01*
X187411040Y4373880D01*
X187391040Y4373880D01*
X187391040Y2730502D01*
X187628780Y2609844D01*
X187734126Y2634124D01*
X188259646Y2925668D01*
X188527848Y3263090D01*
X188718631Y2977562D01*
X189216621Y2644816D01*
X189804040Y2527971D01*
X190391459Y2644816D01*
X190889449Y2977562D01*
X191074040Y3253822D01*
X191258631Y2977562D01*
X191756621Y2644816D01*
X192344040Y2527971D01*
X192931459Y2644816D01*
X193429449Y2977562D01*
X193614040Y3253822D01*
X193798631Y2977562D01*
X194296621Y2644816D01*
X194884040Y2527971D01*
X195471459Y2644816D01*
X195969449Y2977562D01*
X196154040Y3253822D01*
X196338631Y2977562D01*
X196836621Y2644816D01*
X197424040Y2527971D01*
X198011459Y2644816D01*
X198509449Y2977562D01*
X198694040Y3253822D01*
X198878631Y2977562D01*
X199376621Y2644816D01*
X199964040Y2527971D01*
X200551459Y2644816D01*
X201049449Y2977562D01*
X201234040Y3253822D01*
X201418631Y2977562D01*
X201916621Y2644816D01*
X202504040Y2527971D01*
X203091459Y2644816D01*
X203589449Y2977562D01*
X203922195Y3475552D01*
X204039040Y4062971D01*
X204039040Y4938789D01*
X203922195Y5526208D01*
X203589449Y6024198D01*
X203153390Y6315563D01*
X232416299Y6315563D01*
X231925158Y5825278D01*
X231568927Y4967378D01*
X231568116Y4038458D01*
X231922849Y3179937D01*
X232579122Y2522518D01*
X233437022Y2166287D01*
X234365942Y2165476D01*
X235224463Y2520209D01*
X235881882Y3176482D01*
X236238113Y4034382D01*
X236238924Y4963302D01*
X235884191Y5821823D01*
X235391312Y6315563D01*
X244215444Y6315563D01*
X244215444Y-50810040D01*
X-3814561Y-50810040D01*
X-3814561Y-47957882D01*
X-2332864Y-47957882D01*
X-1978131Y-48816403D01*
X-1321858Y-49473822D01*
X-463958Y-49830053D01*
X464962Y-49830864D01*
X1323483Y-49476131D01*
X1980902Y-48819858D01*
X2337133Y-47961958D01*
X2337136Y-47957882D01*
X238065436Y-47957882D01*
X238420169Y-48816403D01*
X239076442Y-49473822D01*
X239934342Y-49830053D01*
X240863262Y-49830864D01*
X241721783Y-49476131D01*
X242379202Y-48819858D01*
X242735433Y-47961958D01*
X242736244Y-47033038D01*
X242381511Y-46174517D01*
X241725238Y-45517098D01*
X240867338Y-45160867D01*
X239938418Y-45160056D01*
X239079897Y-45514789D01*
X238422478Y-46171062D01*
X238066247Y-47028962D01*
X238065436Y-47957882D01*
X2337136Y-47957882D01*
X2337944Y-47033038D01*
X1983211Y-46174517D01*
X1326938Y-45517098D01*
X469038Y-45160867D01*
X-459882Y-45160056D01*
X-1318403Y-45514789D01*
X-1975822Y-46171062D01*
X-2332053Y-47028962D01*
X-2332864Y-47957882D01*
X-3814561Y-47957882D01*
X-3814561Y-41284566D01*
X34469637Y-41284566D01*
X34738432Y-41869999D01*
X35210802Y-42308005D01*
X35692676Y-42507595D01*
X35948620Y-42388456D01*
X35948620Y-41028620D01*
X34588253Y-41028620D01*
X34469637Y-41284566D01*
X-3814561Y-41284566D01*
X-3814561Y-40518674D01*
X34469637Y-40518674D01*
X34588253Y-40774620D01*
X35948620Y-40774620D01*
X35948620Y-39414784D01*
X36202620Y-39414784D01*
X36202620Y-40774620D01*
X36222620Y-40774620D01*
X36222620Y-41028620D01*
X36202620Y-41028620D01*
X36202620Y-42388456D01*
X36458564Y-42507595D01*
X36940438Y-42308005D01*
X37038018Y-42217523D01*
X37135530Y-42369061D01*
X37347730Y-42514051D01*
X37599620Y-42565060D01*
X39631620Y-42565060D01*
X39866937Y-42520782D01*
X40083061Y-42381710D01*
X40228051Y-42169510D01*
X40279060Y-41917620D01*
X40279060Y-41284566D01*
X43430757Y-41284566D01*
X43699552Y-41869999D01*
X44171922Y-42308005D01*
X44653796Y-42507595D01*
X44909740Y-42388456D01*
X44909740Y-41028620D01*
X43549373Y-41028620D01*
X43430757Y-41284566D01*
X40279060Y-41284566D01*
X40279060Y-40518674D01*
X43430757Y-40518674D01*
X43549373Y-40774620D01*
X44909740Y-40774620D01*
X44909740Y-39414784D01*
X45163740Y-39414784D01*
X45163740Y-40774620D01*
X45183740Y-40774620D01*
X45183740Y-41028620D01*
X45163740Y-41028620D01*
X45163740Y-42388456D01*
X45419684Y-42507595D01*
X45901558Y-42308005D01*
X45999138Y-42217523D01*
X46096650Y-42369061D01*
X46308850Y-42514051D01*
X46560740Y-42565060D01*
X48592740Y-42565060D01*
X48828057Y-42520782D01*
X49044181Y-42381710D01*
X49189171Y-42169510D01*
X49240180Y-41917620D01*
X49240180Y-39885620D01*
X49195902Y-39650303D01*
X49056830Y-39434179D01*
X48844630Y-39289189D01*
X48592740Y-39238180D01*
X46560740Y-39238180D01*
X46325423Y-39282458D01*
X46109299Y-39421530D01*
X45997900Y-39584568D01*
X45901558Y-39495235D01*
X45419684Y-39295645D01*
X45163740Y-39414784D01*
X44909740Y-39414784D01*
X44653796Y-39295645D01*
X44171922Y-39495235D01*
X43699552Y-39933241D01*
X43430757Y-40518674D01*
X40279060Y-40518674D01*
X40279060Y-39885620D01*
X40234782Y-39650303D01*
X40095710Y-39434179D01*
X39883510Y-39289189D01*
X39631620Y-39238180D01*
X37599620Y-39238180D01*
X37364303Y-39282458D01*
X37148179Y-39421530D01*
X37036780Y-39584568D01*
X36940438Y-39495235D01*
X36458564Y-39295645D01*
X36202620Y-39414784D01*
X35948620Y-39414784D01*
X35692676Y-39295645D01*
X35210802Y-39495235D01*
X34738432Y-39933241D01*
X34469637Y-40518674D01*
X-3814561Y-40518674D01*
X-3814561Y-35232087D01*
X-1732722Y-35232087D01*
X-1590677Y-35575863D01*
X-1559560Y-35607034D01*
X-1559560Y-35872420D01*
X-1507145Y-36135930D01*
X-1589752Y-36218393D01*
X-1732398Y-36561921D01*
X-1732722Y-36933887D01*
X-1590677Y-37277663D01*
X-1327887Y-37540912D01*
X-1186580Y-37599588D01*
X-1326503Y-37657403D01*
X-1589752Y-37920193D01*
X-1732398Y-38263721D01*
X-1732722Y-38635687D01*
X-1590677Y-38979463D01*
X-1327887Y-39242712D01*
X-984359Y-39385358D01*
X-612393Y-39385682D01*
X-268617Y-39243637D01*
X-237446Y-39212520D01*
X89486799Y-39212520D01*
X89397722Y-39427041D01*
X89397398Y-39799007D01*
X89539443Y-40142783D01*
X89755992Y-40359711D01*
X89697088Y-40384049D01*
X89294311Y-40216802D01*
X88832834Y-40216399D01*
X88406331Y-40392626D01*
X88079733Y-40718655D01*
X87902762Y-41144849D01*
X87902359Y-41606326D01*
X87984786Y-41805816D01*
X87941129Y-41869710D01*
X87890120Y-42121600D01*
X87890120Y-42676911D01*
X87576913Y-42676638D01*
X87233137Y-42818683D01*
X86969888Y-43081473D01*
X86827242Y-43425001D01*
X86827236Y-43431963D01*
X84134046Y-43429477D01*
X84103306Y-43398683D01*
X83732223Y-43244596D01*
X83330420Y-43244245D01*
X82959068Y-43397684D01*
X82927547Y-43429150D01*
X50859261Y-43441390D01*
X50829306Y-43411383D01*
X50458223Y-43257296D01*
X50056420Y-43256945D01*
X49685068Y-43410384D01*
X49653778Y-43441620D01*
X41867890Y-43441620D01*
X41837706Y-43411383D01*
X41466623Y-43257296D01*
X41064820Y-43256945D01*
X40693468Y-43410384D01*
X40662178Y-43441620D01*
X15147090Y-43441620D01*
X15116906Y-43411383D01*
X14745823Y-43257296D01*
X14344020Y-43256945D01*
X13972668Y-43410384D01*
X13688303Y-43694254D01*
X13534216Y-44065337D01*
X13533865Y-44467140D01*
X13687304Y-44838492D01*
X13971174Y-45122857D01*
X14342257Y-45276944D01*
X14744060Y-45277295D01*
X15115412Y-45123856D01*
X15146702Y-45092620D01*
X40661790Y-45092620D01*
X40691974Y-45122857D01*
X41063057Y-45276944D01*
X41464860Y-45277295D01*
X41836212Y-45123856D01*
X41867502Y-45092620D01*
X49653390Y-45092620D01*
X49683574Y-45122857D01*
X50054657Y-45276944D01*
X50456460Y-45277295D01*
X50827812Y-45123856D01*
X50859333Y-45092390D01*
X82927619Y-45080150D01*
X82957574Y-45110157D01*
X83328657Y-45264244D01*
X83730460Y-45264595D01*
X84101812Y-45111156D01*
X84132545Y-45080477D01*
X96680934Y-45092063D01*
X96711674Y-45122857D01*
X97082757Y-45276944D01*
X97484560Y-45277295D01*
X97855912Y-45123856D01*
X97887202Y-45092620D01*
X139696390Y-45092620D01*
X139726574Y-45122857D01*
X140097657Y-45276944D01*
X140499460Y-45277295D01*
X140870812Y-45123856D01*
X140902102Y-45092620D01*
X157412890Y-45092620D01*
X157443074Y-45122857D01*
X157814157Y-45276944D01*
X158215960Y-45277295D01*
X158587312Y-45123856D01*
X158618602Y-45092620D01*
X193061790Y-45092620D01*
X193091974Y-45122857D01*
X193463057Y-45276944D01*
X193864860Y-45277295D01*
X194236212Y-45123856D01*
X194267502Y-45092620D01*
X202053390Y-45092620D01*
X202083574Y-45122857D01*
X202454657Y-45276944D01*
X202856460Y-45277295D01*
X203227812Y-45123856D01*
X203259332Y-45092391D01*
X235454619Y-45080149D01*
X235484574Y-45110157D01*
X235855657Y-45264244D01*
X236257460Y-45264595D01*
X236628812Y-45111156D01*
X236913177Y-44827286D01*
X237067264Y-44456203D01*
X237067615Y-44054400D01*
X236914176Y-43683048D01*
X236630306Y-43398683D01*
X236259223Y-43244596D01*
X235857420Y-43244245D01*
X235486068Y-43397684D01*
X235454548Y-43429149D01*
X203259261Y-43441391D01*
X203229306Y-43411383D01*
X202858223Y-43257296D01*
X202456420Y-43256945D01*
X202085068Y-43410384D01*
X202053778Y-43441620D01*
X194267890Y-43441620D01*
X194237706Y-43411383D01*
X193866623Y-43257296D01*
X193464820Y-43256945D01*
X193093468Y-43410384D01*
X193062178Y-43441620D01*
X158618990Y-43441620D01*
X158588806Y-43411383D01*
X158217723Y-43257296D01*
X157815920Y-43256945D01*
X157444568Y-43410384D01*
X157413278Y-43441620D01*
X140902490Y-43441620D01*
X140872306Y-43411383D01*
X140501223Y-43257296D01*
X140099420Y-43256945D01*
X139728068Y-43410384D01*
X139696778Y-43441620D01*
X133775948Y-43441620D01*
X134136520Y-43292634D01*
X134442002Y-42987685D01*
X134607531Y-42589047D01*
X134607908Y-42157407D01*
X134443074Y-41758480D01*
X134138125Y-41452998D01*
X133739487Y-41287469D01*
X133695106Y-41287430D01*
X133692242Y-41284566D01*
X186864557Y-41284566D01*
X187133352Y-41869999D01*
X187605722Y-42308005D01*
X188087596Y-42507595D01*
X188343540Y-42388456D01*
X188343540Y-41028620D01*
X186983173Y-41028620D01*
X186864557Y-41284566D01*
X133692242Y-41284566D01*
X132680678Y-40273002D01*
X132596569Y-40216802D01*
X132392266Y-40080291D01*
X132307450Y-40063420D01*
X139289418Y-40063420D01*
X139289265Y-40238040D01*
X139442704Y-40609392D01*
X139726574Y-40893757D01*
X140097657Y-41047844D01*
X140499460Y-41048195D01*
X140870812Y-40894756D01*
X140902102Y-40863520D01*
X143303190Y-40863520D01*
X143333374Y-40893757D01*
X143704457Y-41047844D01*
X144106260Y-41048195D01*
X144477612Y-40894756D01*
X144761977Y-40610886D01*
X144916064Y-40239803D01*
X144916218Y-40063420D01*
X187073582Y-40063420D01*
X186864557Y-40518674D01*
X186983173Y-40774620D01*
X188343540Y-40774620D01*
X188343540Y-40754620D01*
X188597540Y-40754620D01*
X188597540Y-40774620D01*
X188617540Y-40774620D01*
X188617540Y-41028620D01*
X188597540Y-41028620D01*
X188597540Y-42388456D01*
X188853484Y-42507595D01*
X189335358Y-42308005D01*
X189438057Y-42212778D01*
X189530450Y-42356361D01*
X189742650Y-42501351D01*
X189994540Y-42552360D01*
X192026540Y-42552360D01*
X192261857Y-42508082D01*
X192477981Y-42369010D01*
X192622971Y-42156810D01*
X192673980Y-41904920D01*
X192673980Y-41284566D01*
X195835837Y-41284566D01*
X196104632Y-41869999D01*
X196577002Y-42308005D01*
X197058876Y-42507595D01*
X197314820Y-42388456D01*
X197314820Y-41028620D01*
X195954453Y-41028620D01*
X195835837Y-41284566D01*
X192673980Y-41284566D01*
X192673980Y-39872920D01*
X192629702Y-39637603D01*
X192625852Y-39631620D01*
X196429917Y-39631620D01*
X196104632Y-39933241D01*
X195835837Y-40518674D01*
X195954453Y-40774620D01*
X197314820Y-40774620D01*
X197314820Y-40754620D01*
X197568820Y-40754620D01*
X197568820Y-40774620D01*
X197588820Y-40774620D01*
X197588820Y-41028620D01*
X197568820Y-41028620D01*
X197568820Y-42388456D01*
X197824764Y-42507595D01*
X198306638Y-42308005D01*
X198404218Y-42217523D01*
X198501730Y-42369061D01*
X198713930Y-42514051D01*
X198965820Y-42565060D01*
X200997820Y-42565060D01*
X201233137Y-42520782D01*
X201449261Y-42381710D01*
X201594251Y-42169510D01*
X201645260Y-41917620D01*
X201645260Y-39885620D01*
X201600982Y-39650303D01*
X201461910Y-39434179D01*
X201249710Y-39289189D01*
X200997820Y-39238180D01*
X199396010Y-39238180D01*
X199370350Y-39212520D01*
X227239434Y-39212520D01*
X227269573Y-39242712D01*
X227613101Y-39385358D01*
X227985067Y-39385682D01*
X228328843Y-39243637D01*
X228592092Y-38980847D01*
X228734738Y-38637319D01*
X228735062Y-38265353D01*
X228593017Y-37921577D01*
X228330227Y-37658328D01*
X228190187Y-37600178D01*
X228331383Y-37541837D01*
X228594632Y-37279047D01*
X228737278Y-36935519D01*
X228737602Y-36563553D01*
X228595557Y-36219777D01*
X228332767Y-35956528D01*
X228191460Y-35897852D01*
X228331383Y-35840037D01*
X228594632Y-35577247D01*
X228737278Y-35233719D01*
X228737602Y-34861753D01*
X228595557Y-34517977D01*
X228332767Y-34254728D01*
X227989239Y-34112082D01*
X227617273Y-34111758D01*
X227273497Y-34253803D01*
X227010248Y-34516593D01*
X226867602Y-34860121D01*
X226867564Y-34904166D01*
X224972210Y-36799520D01*
X152537396Y-36799520D01*
X152537602Y-36563553D01*
X152395557Y-36219777D01*
X152132767Y-35956528D01*
X151985126Y-35895222D01*
X152118683Y-35840037D01*
X152381932Y-35577247D01*
X152524578Y-35233719D01*
X152524902Y-34861753D01*
X152382857Y-34517977D01*
X152120067Y-34254728D01*
X151776539Y-34112082D01*
X151404573Y-34111758D01*
X151060797Y-34253803D01*
X150797548Y-34516593D01*
X150654902Y-34860121D01*
X150654864Y-34904166D01*
X150423210Y-35135820D01*
X150078440Y-35135820D01*
X149786835Y-35193824D01*
X149687817Y-35259986D01*
X149539625Y-35359004D01*
X149521509Y-35377120D01*
X140913147Y-35377120D01*
X141000192Y-35290227D01*
X141142838Y-34946699D01*
X141143162Y-34574733D01*
X141001117Y-34230957D01*
X140841998Y-34071560D01*
X161111529Y-34071560D01*
X161279505Y-34239536D01*
X161427697Y-34338554D01*
X161526715Y-34404716D01*
X161818320Y-34462720D01*
X162675174Y-34462720D01*
X162705313Y-34492912D01*
X163048841Y-34635558D01*
X163420807Y-34635882D01*
X163764583Y-34493837D01*
X164027832Y-34231047D01*
X164170478Y-33887519D01*
X164170696Y-33637220D01*
X200118310Y-33637220D01*
X200540215Y-34059125D01*
X200540178Y-34101787D01*
X200682223Y-34445563D01*
X200945013Y-34708812D01*
X201288541Y-34851458D01*
X201660507Y-34851782D01*
X202004283Y-34709737D01*
X202267532Y-34446947D01*
X202410178Y-34103419D01*
X202410502Y-33731453D01*
X202268457Y-33387677D01*
X202005667Y-33124428D01*
X201662139Y-32981782D01*
X201618094Y-32981744D01*
X200972755Y-32336405D01*
X200968954Y-32333865D01*
X200725545Y-32171224D01*
X200433940Y-32113220D01*
X139094432Y-32113220D01*
X139224732Y-31983147D01*
X139367378Y-31639619D01*
X139367702Y-31267653D01*
X139225657Y-30923877D01*
X138962867Y-30660628D01*
X138619339Y-30517982D01*
X138247373Y-30517658D01*
X137903597Y-30659703D01*
X137897870Y-30665420D01*
X127105851Y-30665420D01*
X127101067Y-30660628D01*
X126757539Y-30517982D01*
X126385573Y-30517658D01*
X126041797Y-30659703D01*
X125887050Y-30814180D01*
X124534472Y-29461602D01*
X149066376Y-29461602D01*
X149421109Y-30320123D01*
X150077382Y-30977542D01*
X150935282Y-31333773D01*
X151864202Y-31334584D01*
X152722723Y-30979851D01*
X153380142Y-30323578D01*
X153736373Y-29465678D01*
X153737184Y-28536758D01*
X153382451Y-27678237D01*
X152726178Y-27020818D01*
X151868278Y-26664587D01*
X150939358Y-26663776D01*
X150080837Y-27018509D01*
X149423418Y-27674782D01*
X149067187Y-28532682D01*
X149066376Y-29461602D01*
X124534472Y-29461602D01*
X123845990Y-28773120D01*
X147614640Y-28773120D01*
X147906245Y-28715116D01*
X148153455Y-28549935D01*
X152464170Y-24239220D01*
X158261478Y-24239220D01*
X157583997Y-24519149D01*
X156926578Y-25175422D01*
X156570347Y-26033322D01*
X156569536Y-26962242D01*
X156924269Y-27820763D01*
X157580542Y-28478182D01*
X158438442Y-28834413D01*
X159367362Y-28835224D01*
X160225883Y-28480491D01*
X160883302Y-27824218D01*
X161239533Y-26966318D01*
X161239536Y-26962242D01*
X231568116Y-26962242D01*
X231922849Y-27820763D01*
X232579122Y-28478182D01*
X233437022Y-28834413D01*
X234365942Y-28835224D01*
X235224463Y-28480491D01*
X235881882Y-27824218D01*
X236238113Y-26966318D01*
X236238924Y-26037398D01*
X235884191Y-25178877D01*
X235227918Y-24521458D01*
X234370018Y-24165227D01*
X233441098Y-24164416D01*
X232582577Y-24519149D01*
X231925158Y-25175422D01*
X231568927Y-26033322D01*
X231568116Y-26962242D01*
X161239536Y-26962242D01*
X161240344Y-26037398D01*
X160885611Y-25178877D01*
X160229338Y-24521458D01*
X159549633Y-24239220D01*
X176543574Y-24239220D01*
X176573713Y-24269412D01*
X176917241Y-24412058D01*
X177289207Y-24412382D01*
X177632983Y-24270337D01*
X177896232Y-24007547D01*
X178038878Y-23664019D01*
X178039202Y-23292053D01*
X177897157Y-22948277D01*
X177634367Y-22685028D01*
X177290839Y-22542382D01*
X176918873Y-22542058D01*
X176575097Y-22684103D01*
X176543926Y-22715220D01*
X172867691Y-22715220D01*
X172958878Y-22495619D01*
X172958897Y-22473920D01*
X174003574Y-22473920D01*
X174033713Y-22504112D01*
X174377241Y-22646758D01*
X174749207Y-22647082D01*
X175092983Y-22505037D01*
X175356232Y-22242247D01*
X175498878Y-21898719D01*
X175498886Y-21889720D01*
X191783574Y-21889720D01*
X191813713Y-21919912D01*
X192157241Y-22062558D01*
X192529207Y-22062882D01*
X192872983Y-21920837D01*
X193136232Y-21658047D01*
X193278878Y-21314519D01*
X193278886Y-21305520D01*
X196863574Y-21305520D01*
X196893713Y-21335712D01*
X197237241Y-21478358D01*
X197609207Y-21478682D01*
X197952983Y-21336637D01*
X198216232Y-21073847D01*
X198358878Y-20730319D01*
X198359202Y-20358353D01*
X198217157Y-20014577D01*
X197954367Y-19751328D01*
X197610839Y-19608682D01*
X197238873Y-19608358D01*
X196895097Y-19750403D01*
X196863926Y-19781520D01*
X195727691Y-19781520D01*
X195818878Y-19561919D01*
X195819202Y-19189953D01*
X195677157Y-18846177D01*
X195533251Y-18702020D01*
X199360990Y-18702020D01*
X199391174Y-18732257D01*
X199762257Y-18886344D01*
X200164060Y-18886695D01*
X200535412Y-18733256D01*
X200819777Y-18449386D01*
X200973864Y-18078303D01*
X200974215Y-17676500D01*
X200820776Y-17305148D01*
X200536906Y-17020783D01*
X200165823Y-16866696D01*
X199764020Y-16866345D01*
X199392668Y-17019784D01*
X199361378Y-17051020D01*
X167547090Y-17051020D01*
X167516906Y-17020783D01*
X167145823Y-16866696D01*
X166744020Y-16866345D01*
X166372668Y-17019784D01*
X166341378Y-17051020D01*
X156776953Y-17051020D01*
X156513639Y-16941682D01*
X156495073Y-16941666D01*
X156641702Y-16843692D01*
X156790191Y-16621462D01*
X156842334Y-16359324D01*
X156842334Y-6609080D01*
X156790191Y-6346942D01*
X156641702Y-6124712D01*
X156419472Y-5976223D01*
X156157334Y-5924080D01*
X155160536Y-5924080D01*
X154898398Y-5976223D01*
X154676168Y-6124712D01*
X154527679Y-6346942D01*
X154475536Y-6609080D01*
X154475536Y-14674485D01*
X137184236Y-14674485D01*
X137180320Y-14673706D01*
X136918182Y-14725849D01*
X136695952Y-14874338D01*
X136547463Y-15096568D01*
X136495320Y-15358706D01*
X136495320Y-16344514D01*
X136492374Y-16359324D01*
X136544517Y-16621462D01*
X136693006Y-16843692D01*
X136915236Y-16992181D01*
X137177374Y-17044324D01*
X143310285Y-17044324D01*
X143303578Y-17051020D01*
X135758968Y-17051020D01*
X135716106Y-17008083D01*
X135345023Y-16853996D01*
X135006562Y-16853700D01*
X135022328Y-16843166D01*
X135170817Y-16620936D01*
X135222960Y-16358798D01*
X135222960Y-15358706D01*
X135170817Y-15096568D01*
X135022328Y-14874338D01*
X134800098Y-14725849D01*
X134537960Y-14673706D01*
X123664414Y-14673706D01*
X123682878Y-14629239D01*
X123683202Y-14257273D01*
X123541157Y-13913497D01*
X123278367Y-13650248D01*
X122934839Y-13507602D01*
X122562873Y-13507278D01*
X122219097Y-13649323D01*
X122187926Y-13680440D01*
X121138116Y-13680440D01*
X121138122Y-13673073D01*
X120996077Y-13329297D01*
X120733287Y-13066048D01*
X120389759Y-12923402D01*
X120017793Y-12923078D01*
X119674017Y-13065123D01*
X119637757Y-13101320D01*
X118603196Y-13101320D01*
X118603202Y-13093953D01*
X118577622Y-13032044D01*
X118579014Y-13032278D01*
X118811040Y-12911137D01*
X118811040Y-11551920D01*
X118791040Y-11551920D01*
X118791040Y-11297920D01*
X118811040Y-11297920D01*
X118811040Y-11277920D01*
X119065040Y-11277920D01*
X119065040Y-11297920D01*
X119085040Y-11297920D01*
X119085040Y-11551920D01*
X119065040Y-11551920D01*
X119065040Y-12911137D01*
X119297066Y-13032278D01*
X119312831Y-13029629D01*
X119840076Y-12775652D01*
X120211579Y-12359851D01*
X120418370Y-12669335D01*
X120904551Y-12994191D01*
X121478040Y-13108265D01*
X122051529Y-12994191D01*
X122537710Y-12669335D01*
X122748040Y-12354554D01*
X122958370Y-12669335D01*
X123444551Y-12994191D01*
X124018040Y-13108265D01*
X124591529Y-12994191D01*
X125077710Y-12669335D01*
X125288040Y-12354554D01*
X125498370Y-12669335D01*
X125984551Y-12994191D01*
X126558040Y-13108265D01*
X127131529Y-12994191D01*
X127617710Y-12669335D01*
X127627283Y-12655007D01*
X127631278Y-12676237D01*
X127770350Y-12892361D01*
X127982550Y-13037351D01*
X128234440Y-13088360D01*
X129961640Y-13088360D01*
X130196957Y-13044082D01*
X130413081Y-12905010D01*
X130558071Y-12692810D01*
X130609080Y-12440920D01*
X130609080Y-10408920D01*
X130599521Y-10358120D01*
X132301854Y-10358120D01*
X132331993Y-10388312D01*
X132675521Y-10530958D01*
X133047487Y-10531282D01*
X133391263Y-10389237D01*
X133654512Y-10126447D01*
X133797158Y-9782919D01*
X133797166Y-9773920D01*
X136111854Y-9773920D01*
X136141993Y-9804112D01*
X136485521Y-9946758D01*
X136857487Y-9947082D01*
X137201263Y-9805037D01*
X137464512Y-9542247D01*
X137570950Y-9285917D01*
X137755521Y-9362558D01*
X138127487Y-9362882D01*
X138471263Y-9220837D01*
X138734512Y-8958047D01*
X138839151Y-8706050D01*
X139025521Y-8783438D01*
X139397487Y-8783762D01*
X139741263Y-8641717D01*
X139772434Y-8610600D01*
X140292694Y-8610600D01*
X140322833Y-8640792D01*
X140666361Y-8783438D01*
X141038327Y-8783762D01*
X141382103Y-8641717D01*
X141645352Y-8378927D01*
X141787998Y-8035399D01*
X141788322Y-7663433D01*
X141646277Y-7319657D01*
X141383487Y-7056408D01*
X141039959Y-6913762D01*
X140667993Y-6913438D01*
X140324217Y-7055483D01*
X140293046Y-7086600D01*
X139772786Y-7086600D01*
X139742647Y-7056408D01*
X139399119Y-6913762D01*
X139027153Y-6913438D01*
X138683377Y-7055483D01*
X138652206Y-7086600D01*
X124578506Y-7086600D01*
X124548367Y-7056408D01*
X124204839Y-6913762D01*
X123832873Y-6913438D01*
X123489097Y-7055483D01*
X123457926Y-7086600D01*
X110633906Y-7086600D01*
X110603767Y-7056408D01*
X110260239Y-6913762D01*
X109888273Y-6913438D01*
X109544497Y-7055483D01*
X109281248Y-7318273D01*
X109176609Y-7570270D01*
X108990239Y-7492882D01*
X108618273Y-7492558D01*
X108274497Y-7634603D01*
X108011248Y-7897393D01*
X107904810Y-8153723D01*
X107720239Y-8077082D01*
X107348273Y-8076758D01*
X107004497Y-8218803D01*
X106741248Y-8481593D01*
X106598602Y-8825121D01*
X106598594Y-8834120D01*
X104283906Y-8834120D01*
X104253767Y-8803928D01*
X103910239Y-8661282D01*
X103538273Y-8660958D01*
X103194497Y-8803003D01*
X102931248Y-9065793D01*
X102788602Y-9409321D01*
X102788278Y-9781287D01*
X102885110Y-10015639D01*
X102638370Y-10180505D01*
X102431579Y-10489989D01*
X102060076Y-10074188D01*
X101532831Y-9820211D01*
X101517066Y-9817562D01*
X101285040Y-9938703D01*
X101285040Y-11297920D01*
X101305040Y-11297920D01*
X101305040Y-11551920D01*
X101285040Y-11551920D01*
X101285040Y-12911137D01*
X101517066Y-13032278D01*
X101532831Y-13029629D01*
X102060076Y-12775652D01*
X102431579Y-12359851D01*
X102638370Y-12669335D01*
X102873582Y-12826499D01*
X102763202Y-13092321D01*
X102762878Y-13464287D01*
X102904923Y-13808063D01*
X103167713Y-14071312D01*
X103511241Y-14213958D01*
X103883207Y-14214282D01*
X104226983Y-14072237D01*
X104258154Y-14041120D01*
X105302884Y-14041120D01*
X105302878Y-14048487D01*
X105444923Y-14392263D01*
X105707713Y-14655512D01*
X105787594Y-14688682D01*
X105600742Y-14725849D01*
X105378512Y-14874338D01*
X105230023Y-15096568D01*
X105177880Y-15358706D01*
X105177880Y-16358798D01*
X105230023Y-16620936D01*
X105378512Y-16843166D01*
X105600742Y-16991655D01*
X105862880Y-17043798D01*
X117651557Y-17043798D01*
X117465519Y-17163510D01*
X117320529Y-17375710D01*
X117269520Y-17627600D01*
X117269520Y-19659600D01*
X117313798Y-19894917D01*
X117452870Y-20111041D01*
X117665070Y-20256031D01*
X117916960Y-20307040D01*
X119948960Y-20307040D01*
X120184277Y-20262762D01*
X120400401Y-20123690D01*
X120511800Y-19960652D01*
X120608142Y-20049985D01*
X121090016Y-20249575D01*
X121345960Y-20130436D01*
X121345960Y-18770600D01*
X121599960Y-18770600D01*
X121599960Y-20130436D01*
X121855904Y-20249575D01*
X122337778Y-20049985D01*
X122810148Y-19611979D01*
X123078943Y-19026546D01*
X122960327Y-18770600D01*
X121599960Y-18770600D01*
X121345960Y-18770600D01*
X121325960Y-18770600D01*
X121325960Y-18516600D01*
X121345960Y-18516600D01*
X121345960Y-18496600D01*
X121599960Y-18496600D01*
X121599960Y-18516600D01*
X122960327Y-18516600D01*
X123078943Y-18260654D01*
X122810148Y-17675221D01*
X122337778Y-17237215D01*
X121870808Y-17043798D01*
X129975812Y-17043798D01*
X129715503Y-17303654D01*
X129561416Y-17674737D01*
X129561065Y-18076540D01*
X129714504Y-18447892D01*
X129998374Y-18732257D01*
X130369457Y-18886344D01*
X130771260Y-18886695D01*
X131142612Y-18733256D01*
X131173902Y-18702020D01*
X134552868Y-18702020D01*
X134570374Y-18719557D01*
X134941457Y-18873644D01*
X135343260Y-18873995D01*
X135714612Y-18720556D01*
X135733180Y-18702020D01*
X143303190Y-18702020D01*
X143333374Y-18732257D01*
X143704457Y-18886344D01*
X144106260Y-18886695D01*
X144477612Y-18733256D01*
X144508902Y-18702020D01*
X151759896Y-18702020D01*
X151558924Y-18836305D01*
X146397310Y-23997920D01*
X140802796Y-23997920D01*
X140802802Y-23990553D01*
X140660757Y-23646777D01*
X140397967Y-23383528D01*
X140054439Y-23240882D01*
X139682473Y-23240558D01*
X139338697Y-23382603D01*
X139307526Y-23413720D01*
X125113239Y-23413720D01*
X125397486Y-22988314D01*
X125511560Y-22414825D01*
X125511560Y-22045335D01*
X125397486Y-21471846D01*
X125072630Y-20985665D01*
X124586449Y-20660809D01*
X124012960Y-20546735D01*
X123439471Y-20660809D01*
X122953290Y-20985665D01*
X122742960Y-21300446D01*
X122532630Y-20985665D01*
X122046449Y-20660809D01*
X121472960Y-20546735D01*
X120899471Y-20660809D01*
X120413290Y-20985665D01*
X120398460Y-21007860D01*
X120334887Y-20854382D01*
X120156259Y-20675753D01*
X119922870Y-20579080D01*
X119218710Y-20579080D01*
X119059960Y-20737830D01*
X119059960Y-22103080D01*
X119079960Y-22103080D01*
X119079960Y-22357080D01*
X119059960Y-22357080D01*
X119059960Y-22377080D01*
X118805960Y-22377080D01*
X118805960Y-22357080D01*
X117593110Y-22357080D01*
X117434360Y-22515830D01*
X117434360Y-22656519D01*
X117249193Y-22656358D01*
X116905417Y-22798403D01*
X116874246Y-22829520D01*
X110176706Y-22829520D01*
X110146567Y-22799328D01*
X109803039Y-22656682D01*
X109431073Y-22656358D01*
X109087297Y-22798403D01*
X108824048Y-23061193D01*
X108681402Y-23404721D01*
X108681394Y-23413720D01*
X107192206Y-23413720D01*
X107162067Y-23383528D01*
X106818539Y-23240882D01*
X106446573Y-23240558D01*
X106102797Y-23382603D01*
X105956948Y-23528198D01*
X105036955Y-22608205D01*
X104937959Y-22542058D01*
X104789745Y-22443024D01*
X104498140Y-22385020D01*
X87744971Y-22385020D01*
X86447722Y-21087771D01*
X117434360Y-21087771D01*
X117434360Y-21944330D01*
X117593110Y-22103080D01*
X118805960Y-22103080D01*
X118805960Y-20737830D01*
X118647210Y-20579080D01*
X117943050Y-20579080D01*
X117709661Y-20675753D01*
X117531033Y-20854382D01*
X117434360Y-21087771D01*
X86447722Y-21087771D01*
X82151555Y-16791605D01*
X81904345Y-16626424D01*
X81612740Y-16568420D01*
X43095306Y-16568420D01*
X43065167Y-16538228D01*
X42721639Y-16395582D01*
X42349673Y-16395258D01*
X42005897Y-16537303D01*
X41742648Y-16800093D01*
X41600002Y-17143621D01*
X41599983Y-17165320D01*
X37964506Y-17165320D01*
X37934367Y-17135128D01*
X37590839Y-16992482D01*
X37218873Y-16992158D01*
X36875097Y-17134203D01*
X36611848Y-17396993D01*
X36469202Y-17740521D01*
X36468878Y-18112487D01*
X36610923Y-18456263D01*
X36873713Y-18719512D01*
X37217241Y-18862158D01*
X37589207Y-18862482D01*
X37932983Y-18720437D01*
X37964154Y-18689320D01*
X39105662Y-18689320D01*
X39009202Y-18921621D01*
X39009194Y-18930620D01*
X22737206Y-18930620D01*
X22707067Y-18900428D01*
X22363539Y-18757782D01*
X21991573Y-18757458D01*
X21647797Y-18899503D01*
X21384548Y-19162293D01*
X21241902Y-19505821D01*
X21241883Y-19527520D01*
X20184506Y-19527520D01*
X20154367Y-19497328D01*
X19810839Y-19354682D01*
X19438873Y-19354358D01*
X19095097Y-19496403D01*
X18831848Y-19759193D01*
X18689202Y-20102721D01*
X18689183Y-20124420D01*
X17644506Y-20124420D01*
X17614367Y-20094228D01*
X17270839Y-19951582D01*
X16898873Y-19951258D01*
X16555097Y-20093303D01*
X16291848Y-20356093D01*
X16149202Y-20699621D01*
X16148878Y-21071587D01*
X16290923Y-21415363D01*
X16553713Y-21678612D01*
X16897241Y-21821258D01*
X17269207Y-21821582D01*
X17612983Y-21679537D01*
X17644154Y-21648420D01*
X23768895Y-21648420D01*
X23768878Y-21668487D01*
X23910923Y-22012263D01*
X24173713Y-22275512D01*
X24517241Y-22418158D01*
X24889207Y-22418482D01*
X25232983Y-22276437D01*
X25264154Y-22245320D01*
X81271710Y-22245320D01*
X85671324Y-26644935D01*
X85838085Y-26756361D01*
X85918535Y-26810116D01*
X86210140Y-26868120D01*
X88044627Y-26868120D01*
X87680657Y-27018509D01*
X87023238Y-27674782D01*
X86667007Y-28532682D01*
X86666196Y-29461602D01*
X87020929Y-30320123D01*
X87677202Y-30977542D01*
X87873664Y-31059120D01*
X51158140Y-31059120D01*
X50856815Y-31119057D01*
X50601364Y-31289744D01*
X48922344Y-32968764D01*
X48915573Y-32968758D01*
X48571797Y-33110803D01*
X48308548Y-33373593D01*
X48165902Y-33717121D01*
X48165578Y-34089087D01*
X48307623Y-34432863D01*
X48570413Y-34696112D01*
X48913941Y-34838758D01*
X49285907Y-34839082D01*
X49629683Y-34697037D01*
X49892932Y-34434247D01*
X50035578Y-34090719D01*
X50035585Y-34082627D01*
X51484292Y-32633920D01*
X100648637Y-32633920D01*
X100467448Y-32814793D01*
X100324802Y-33158321D01*
X100324478Y-33530287D01*
X100466523Y-33874063D01*
X100497640Y-33905234D01*
X100497640Y-34467130D01*
X100253130Y-34711640D01*
X77709431Y-34711640D01*
X76428935Y-33431145D01*
X76409632Y-33418247D01*
X76181725Y-33265964D01*
X75890120Y-33207960D01*
X74180700Y-33207960D01*
X73889095Y-33265964D01*
X73808644Y-33319720D01*
X73641885Y-33431144D01*
X71416510Y-35656520D01*
X39183706Y-35656520D01*
X39153567Y-35626328D01*
X38810039Y-35483682D01*
X38438073Y-35483358D01*
X38094297Y-35625403D01*
X37831048Y-35888193D01*
X37688402Y-36231721D01*
X37688078Y-36603687D01*
X37779489Y-36824920D01*
X1232570Y-36824920D01*
X264190Y-35856540D01*
X7780765Y-35856540D01*
X7934204Y-36227892D01*
X8218074Y-36512257D01*
X8589157Y-36666344D01*
X8990960Y-36666695D01*
X9362312Y-36513256D01*
X9393602Y-36482020D01*
X13953690Y-36482020D01*
X13983874Y-36512257D01*
X14354957Y-36666344D01*
X14756760Y-36666695D01*
X15128112Y-36513256D01*
X15412477Y-36229386D01*
X15566564Y-35858303D01*
X15566915Y-35456500D01*
X15413476Y-35085148D01*
X15129606Y-34800783D01*
X14758523Y-34646696D01*
X14356720Y-34646345D01*
X13985368Y-34799784D01*
X13954078Y-34831020D01*
X9393990Y-34831020D01*
X9363806Y-34800783D01*
X8992723Y-34646696D01*
X8590920Y-34646345D01*
X8219568Y-34799784D01*
X7935203Y-35083654D01*
X7781116Y-35454737D01*
X7780765Y-35856540D01*
X264190Y-35856540D01*
X-10240Y-35582110D01*
X-5368Y-35577247D01*
X137278Y-35233719D01*
X137602Y-34861753D01*
X-4443Y-34517977D01*
X-267233Y-34254728D01*
X-610761Y-34112082D01*
X-982727Y-34111758D01*
X-1326503Y-34253803D01*
X-1589752Y-34516593D01*
X-1732398Y-34860121D01*
X-1732722Y-35232087D01*
X-3814561Y-35232087D01*
X-3814561Y-26962242D01*
X4169536Y-26962242D01*
X4524269Y-27820763D01*
X5180542Y-28478182D01*
X6038442Y-28834413D01*
X6967362Y-28835224D01*
X7825883Y-28480491D01*
X8483302Y-27824218D01*
X8839533Y-26966318D01*
X8839536Y-26962242D01*
X79168116Y-26962242D01*
X79522849Y-27820763D01*
X80179122Y-28478182D01*
X81037022Y-28834413D01*
X81965942Y-28835224D01*
X82824463Y-28480491D01*
X83481882Y-27824218D01*
X83838113Y-26966318D01*
X83838924Y-26037398D01*
X83484191Y-25178877D01*
X82827918Y-24521458D01*
X81970018Y-24165227D01*
X81041098Y-24164416D01*
X80182577Y-24519149D01*
X79525158Y-25175422D01*
X79168927Y-26033322D01*
X79168116Y-26962242D01*
X8839536Y-26962242D01*
X8840344Y-26037398D01*
X8485611Y-25178877D01*
X7829338Y-24521458D01*
X6971438Y-24165227D01*
X6042518Y-24164416D01*
X5183997Y-24519149D01*
X4526578Y-25175422D01*
X4170347Y-26033322D01*
X4169536Y-26962242D01*
X-3814561Y-26962242D01*
X-3814561Y-6786240D01*
X2992865Y-6786240D01*
X3146304Y-7157592D01*
X3430174Y-7441957D01*
X3801257Y-7596044D01*
X4203060Y-7596395D01*
X4574412Y-7442956D01*
X4605702Y-7411720D01*
X13940990Y-7411720D01*
X13971174Y-7441957D01*
X14342257Y-7596044D01*
X14744060Y-7596395D01*
X15115412Y-7442956D01*
X15146702Y-7411720D01*
X46960990Y-7411720D01*
X46991174Y-7441957D01*
X47362257Y-7596044D01*
X47764060Y-7596395D01*
X48135412Y-7442956D01*
X48419777Y-7159086D01*
X48573864Y-6788003D01*
X48574020Y-6609080D01*
X83555442Y-6609080D01*
X83555442Y-16359324D01*
X83607585Y-16621462D01*
X83756074Y-16843692D01*
X83978304Y-16992181D01*
X84240442Y-17044324D01*
X84240501Y-17044312D01*
X84240560Y-17044324D01*
X103220520Y-17044324D01*
X103482658Y-16992181D01*
X103704888Y-16843692D01*
X103853377Y-16621462D01*
X103905520Y-16359324D01*
X103905468Y-16359061D01*
X103905520Y-16358798D01*
X103905520Y-15358706D01*
X103853377Y-15096568D01*
X103704888Y-14874338D01*
X103482658Y-14725849D01*
X103220520Y-14673706D01*
X103216604Y-14674485D01*
X85925534Y-14674485D01*
X85925534Y-11786833D01*
X99672856Y-11786833D01*
X99866086Y-12339240D01*
X100256004Y-12775652D01*
X100783249Y-13029629D01*
X100799014Y-13032278D01*
X101031040Y-12911137D01*
X101031040Y-11551920D01*
X99817116Y-11551920D01*
X99672856Y-11786833D01*
X85925534Y-11786833D01*
X85925534Y-11063007D01*
X99672856Y-11063007D01*
X99817116Y-11297920D01*
X101031040Y-11297920D01*
X101031040Y-9938703D01*
X100799014Y-9817562D01*
X100783249Y-9820211D01*
X100256004Y-10074188D01*
X99866086Y-10510600D01*
X99672856Y-11063007D01*
X85925534Y-11063007D01*
X85925534Y-6609080D01*
X85873391Y-6346942D01*
X85788284Y-6219570D01*
X100388575Y-6219570D01*
X100456635Y-6460571D01*
X100975934Y-6645407D01*
X101526438Y-6617445D01*
X101905165Y-6460571D01*
X101973225Y-6219570D01*
X101180900Y-5427245D01*
X100388575Y-6219570D01*
X85788284Y-6219570D01*
X85724902Y-6124712D01*
X85502672Y-5976223D01*
X85240534Y-5924080D01*
X84240442Y-5924080D01*
X83978304Y-5976223D01*
X83756074Y-6124712D01*
X83607585Y-6346942D01*
X83555442Y-6609080D01*
X48574020Y-6609080D01*
X48574215Y-6386200D01*
X48420776Y-6014848D01*
X48136906Y-5730483D01*
X47765823Y-5576396D01*
X47364020Y-5576045D01*
X46992668Y-5729484D01*
X46961378Y-5760720D01*
X15147090Y-5760720D01*
X15116906Y-5730483D01*
X14745823Y-5576396D01*
X14344020Y-5576045D01*
X13972668Y-5729484D01*
X13941378Y-5760720D01*
X4606090Y-5760720D01*
X4575906Y-5730483D01*
X4204823Y-5576396D01*
X3803020Y-5576045D01*
X3431668Y-5729484D01*
X3147303Y-6013354D01*
X2993216Y-6384437D01*
X2992865Y-6786240D01*
X-3814561Y-6786240D01*
X-3814561Y-5042674D01*
X99783133Y-5042674D01*
X99811095Y-5593178D01*
X99967969Y-5971905D01*
X100208970Y-6039965D01*
X101001295Y-5247640D01*
X101360505Y-5247640D01*
X102152830Y-6039965D01*
X102393831Y-5971905D01*
X102452669Y-5806600D01*
X102545586Y-6031477D01*
X102935013Y-6421584D01*
X103444084Y-6632969D01*
X103995298Y-6633450D01*
X104504737Y-6422954D01*
X104894844Y-6033527D01*
X104990875Y-5802259D01*
X105085586Y-6031477D01*
X105475013Y-6421584D01*
X105984084Y-6632969D01*
X106535298Y-6633450D01*
X107044737Y-6422954D01*
X107434844Y-6033527D01*
X107530875Y-5802259D01*
X107625586Y-6031477D01*
X108015013Y-6421584D01*
X108524084Y-6632969D01*
X109075298Y-6633450D01*
X109584737Y-6422954D01*
X109732498Y-6275450D01*
X129529995Y-6275450D01*
X129598055Y-6516451D01*
X130117354Y-6701287D01*
X130667858Y-6673325D01*
X131046585Y-6516451D01*
X131114645Y-6275450D01*
X130322320Y-5483125D01*
X129529995Y-6275450D01*
X109732498Y-6275450D01*
X109974844Y-6033527D01*
X110186229Y-5524456D01*
X110186600Y-5098554D01*
X128924553Y-5098554D01*
X128952515Y-5649058D01*
X129109389Y-6027785D01*
X129350390Y-6095845D01*
X130142715Y-5303520D01*
X129350390Y-4511195D01*
X129109389Y-4579255D01*
X128924553Y-5098554D01*
X110186600Y-5098554D01*
X110186710Y-4973242D01*
X109976214Y-4463803D01*
X109844232Y-4331590D01*
X129529995Y-4331590D01*
X130322320Y-5123915D01*
X131114645Y-4331590D01*
X131046585Y-4090589D01*
X130527286Y-3905753D01*
X129976782Y-3933715D01*
X129598055Y-4090589D01*
X129529995Y-4331590D01*
X109844232Y-4331590D01*
X109618685Y-4105650D01*
X110821470Y-4105650D01*
X111056787Y-4061372D01*
X111272911Y-3922300D01*
X111417901Y-3710100D01*
X111468910Y-3458210D01*
X111468910Y-2209800D01*
X128452406Y-2209800D01*
X128482635Y-2240082D01*
X128881273Y-2405611D01*
X129312913Y-2405988D01*
X129711840Y-2241154D01*
X129743249Y-2209800D01*
X130321972Y-2209800D01*
X130206991Y-2486704D01*
X130206510Y-3037918D01*
X130417006Y-3547357D01*
X130806433Y-3937464D01*
X131315504Y-4148849D01*
X131866718Y-4149330D01*
X132376157Y-3938834D01*
X132766264Y-3549407D01*
X132862295Y-3318139D01*
X132957006Y-3547357D01*
X133346433Y-3937464D01*
X133855504Y-4148849D01*
X134406718Y-4149330D01*
X134916157Y-3938834D01*
X135306264Y-3549407D01*
X135402295Y-3318139D01*
X135497006Y-3547357D01*
X135886433Y-3937464D01*
X136395504Y-4148849D01*
X136946718Y-4149330D01*
X137456157Y-3938834D01*
X137824957Y-3570676D01*
X137858588Y-3749407D01*
X137967056Y-3917971D01*
X137667922Y-3917710D01*
X137158483Y-4128206D01*
X136768376Y-4517633D01*
X136672345Y-4748901D01*
X136577634Y-4519683D01*
X136188207Y-4129576D01*
X135679136Y-3918191D01*
X135127922Y-3917710D01*
X134618483Y-4128206D01*
X134228376Y-4517633D01*
X134132345Y-4748901D01*
X134037634Y-4519683D01*
X133648207Y-4129576D01*
X133139136Y-3918191D01*
X132587922Y-3917710D01*
X132078483Y-4128206D01*
X131688376Y-4517633D01*
X131598941Y-4733016D01*
X131535251Y-4579255D01*
X131294250Y-4511195D01*
X130501925Y-5303520D01*
X131294250Y-6095845D01*
X131535251Y-6027785D01*
X131594089Y-5862480D01*
X131687006Y-6087357D01*
X132076433Y-6477464D01*
X132585504Y-6688849D01*
X133136718Y-6689330D01*
X133646157Y-6478834D01*
X134036264Y-6089407D01*
X134132295Y-5858139D01*
X134227006Y-6087357D01*
X134616433Y-6477464D01*
X135125504Y-6688849D01*
X135676718Y-6689330D01*
X136186157Y-6478834D01*
X136576264Y-6089407D01*
X136672295Y-5858139D01*
X136767006Y-6087357D01*
X137156433Y-6477464D01*
X137665504Y-6688849D01*
X138216718Y-6689330D01*
X138726157Y-6478834D01*
X139116264Y-6089407D01*
X139327649Y-5580336D01*
X139328130Y-5029122D01*
X139117634Y-4519683D01*
X138760105Y-4161530D01*
X139962890Y-4161530D01*
X140198207Y-4117252D01*
X140414331Y-3978180D01*
X140559321Y-3765980D01*
X140610330Y-3514090D01*
X140610330Y-2898353D01*
X144076105Y-2898353D01*
X144316899Y-3481117D01*
X144762377Y-3927374D01*
X145344721Y-4169184D01*
X145975273Y-4169735D01*
X146558037Y-3928941D01*
X147004294Y-3483463D01*
X147246104Y-2901119D01*
X147246655Y-2270567D01*
X147005861Y-1687803D01*
X146560383Y-1241546D01*
X145978039Y-999736D01*
X145347487Y-999185D01*
X144764723Y-1239979D01*
X144318466Y-1685457D01*
X144076656Y-2267801D01*
X144076105Y-2898353D01*
X140610330Y-2898353D01*
X140610330Y-2012950D01*
X140566052Y-1777633D01*
X140426980Y-1561509D01*
X140214780Y-1416519D01*
X139962890Y-1365510D01*
X138461750Y-1365510D01*
X138226433Y-1409788D01*
X138010309Y-1548860D01*
X137865319Y-1761060D01*
X137825531Y-1957541D01*
X137458207Y-1589576D01*
X136949136Y-1378191D01*
X136397922Y-1377710D01*
X135888483Y-1588206D01*
X135498376Y-1977633D01*
X135402345Y-2208901D01*
X135307634Y-1979683D01*
X134918207Y-1589576D01*
X134409136Y-1378191D01*
X134003873Y-1377837D01*
X133318218Y-692182D01*
X133029806Y-499471D01*
X132689600Y-431800D01*
X129743674Y-431800D01*
X129713445Y-401518D01*
X129314807Y-235989D01*
X128883167Y-235612D01*
X128484240Y-400446D01*
X128452831Y-431800D01*
X106377740Y-431800D01*
X106037534Y-499471D01*
X105749122Y-692182D01*
X105119123Y-1322181D01*
X104716502Y-1321830D01*
X104207063Y-1532326D01*
X103816956Y-1921753D01*
X103727521Y-2137136D01*
X103663831Y-1983375D01*
X103422830Y-1915315D01*
X102630505Y-2707640D01*
X103422830Y-3499965D01*
X103663831Y-3431905D01*
X103722669Y-3266600D01*
X103815586Y-3491477D01*
X104205013Y-3881584D01*
X104714084Y-4092969D01*
X105265298Y-4093450D01*
X105774737Y-3882954D01*
X106164844Y-3493527D01*
X106260875Y-3262259D01*
X106355586Y-3491477D01*
X106745013Y-3881584D01*
X107254084Y-4092969D01*
X107805298Y-4093450D01*
X108314737Y-3882954D01*
X108683537Y-3514796D01*
X108717168Y-3693527D01*
X108825636Y-3862091D01*
X108526502Y-3861830D01*
X108017063Y-4072326D01*
X107626956Y-4461753D01*
X107530925Y-4693021D01*
X107436214Y-4463803D01*
X107046787Y-4073696D01*
X106537716Y-3862311D01*
X105986502Y-3861830D01*
X105477063Y-4072326D01*
X105086956Y-4461753D01*
X104990925Y-4693021D01*
X104896214Y-4463803D01*
X104506787Y-4073696D01*
X103997716Y-3862311D01*
X103446502Y-3861830D01*
X102937063Y-4072326D01*
X102546956Y-4461753D01*
X102457521Y-4677136D01*
X102393831Y-4523375D01*
X102152830Y-4455315D01*
X101360505Y-5247640D01*
X101001295Y-5247640D01*
X100208970Y-4455315D01*
X99967969Y-4523375D01*
X99783133Y-5042674D01*
X-3814561Y-5042674D01*
X-3814561Y-462422D01*
X-2335404Y-462422D01*
X-1980671Y-1320943D01*
X-1324398Y-1978362D01*
X-466498Y-2334593D01*
X462422Y-2335404D01*
X1320943Y-1980671D01*
X1978362Y-1324398D01*
X2334593Y-466498D01*
X2335404Y462422D01*
X1980671Y1320943D01*
X1324398Y1978362D01*
X466498Y2334593D01*
X-462422Y2335404D01*
X-1320943Y1980671D01*
X-1978362Y1324398D01*
X-2334593Y466498D01*
X-2335404Y-462422D01*
X-3814561Y-462422D01*
X-3814561Y6315563D01*
X5017719Y6315563D01*
X4526578Y5825278D01*
G36*
X90430536Y-42536686D02*
X90432457Y-42538607D01*
X90446290Y-42740760D01*
X90346703Y-42840348D01*
X90332560Y-42826205D01*
X90318418Y-42840348D01*
X90235000Y-42756930D01*
X90235000Y-42536515D01*
X90430536Y-42536686D01*
X90430536Y-42536686D01*
G37*
X90430536Y-42536686D02*
X90432457Y-42538607D01*
X90446290Y-42740760D01*
X90346703Y-42840348D01*
X90332560Y-42826205D01*
X90318418Y-42840348D01*
X90235000Y-42756930D01*
X90235000Y-42536515D01*
X90430536Y-42536686D01*
G36*
X91700536Y-42536686D02*
X91712645Y-42548795D01*
X91712474Y-42744576D01*
X91616703Y-42840348D01*
X91602560Y-42826205D01*
X91588418Y-42840348D01*
X91502662Y-42754592D01*
X91488830Y-42552440D01*
X91504755Y-42536515D01*
X91700536Y-42536686D01*
X91700536Y-42536686D01*
G37*
X91700536Y-42536686D02*
X91712645Y-42548795D01*
X91712474Y-42744576D01*
X91616703Y-42840348D01*
X91602560Y-42826205D01*
X91588418Y-42840348D01*
X91502662Y-42754592D01*
X91488830Y-42552440D01*
X91504755Y-42536515D01*
X91700536Y-42536686D01*
G36*
X94240536Y-42536686D02*
X94336308Y-42632458D01*
X94322165Y-42646600D01*
X94336308Y-42660743D01*
X94156703Y-42840348D01*
X94142560Y-42826205D01*
X94128418Y-42840348D01*
X94032475Y-42744405D01*
X94032646Y-42548624D01*
X94044755Y-42536515D01*
X94240536Y-42536686D01*
X94240536Y-42536686D01*
G37*
X94240536Y-42536686D02*
X94336308Y-42632458D01*
X94322165Y-42646600D01*
X94336308Y-42660743D01*
X94156703Y-42840348D01*
X94142560Y-42826205D01*
X94128418Y-42840348D01*
X94032475Y-42744405D01*
X94032646Y-42548624D01*
X94044755Y-42536515D01*
X94240536Y-42536686D01*
G36*
X119077740Y-40774620D02*
X119097740Y-40774620D01*
X119097740Y-41028620D01*
X119077740Y-41028620D01*
X119077740Y-41048620D01*
X118823740Y-41048620D01*
X118823740Y-41028620D01*
X118803740Y-41028620D01*
X118803740Y-40774620D01*
X118823740Y-40774620D01*
X118823740Y-40754620D01*
X119077740Y-40754620D01*
X119077740Y-40774620D01*
X119077740Y-40774620D01*
G37*
X119077740Y-40774620D02*
X119097740Y-40774620D01*
X119097740Y-41028620D01*
X119077740Y-41028620D01*
X119077740Y-41048620D01*
X118823740Y-41048620D01*
X118823740Y-41028620D01*
X118803740Y-41028620D01*
X118803740Y-40774620D01*
X118823740Y-40774620D01*
X118823740Y-40754620D01*
X119077740Y-40754620D01*
X119077740Y-40774620D01*
G36*
X111457740Y-40774620D02*
X111477740Y-40774620D01*
X111477740Y-41028620D01*
X111457740Y-41028620D01*
X111457740Y-41048620D01*
X111203740Y-41048620D01*
X111203740Y-41028620D01*
X111183740Y-41028620D01*
X111183740Y-40774620D01*
X111203740Y-40774620D01*
X111203740Y-40754620D01*
X111457740Y-40754620D01*
X111457740Y-40774620D01*
X111457740Y-40774620D01*
G37*
X111457740Y-40774620D02*
X111477740Y-40774620D01*
X111477740Y-41028620D01*
X111457740Y-41028620D01*
X111457740Y-41048620D01*
X111203740Y-41048620D01*
X111203740Y-41028620D01*
X111183740Y-41028620D01*
X111183740Y-40774620D01*
X111203740Y-40774620D01*
X111203740Y-40754620D01*
X111457740Y-40754620D01*
X111457740Y-40774620D01*
G36*
X101297740Y-40774620D02*
X101317740Y-40774620D01*
X101317740Y-41028620D01*
X101297740Y-41028620D01*
X101297740Y-41048620D01*
X101043740Y-41048620D01*
X101043740Y-41028620D01*
X101023740Y-41028620D01*
X101023740Y-40774620D01*
X101043740Y-40774620D01*
X101043740Y-40754620D01*
X101297740Y-40754620D01*
X101297740Y-40774620D01*
X101297740Y-40774620D01*
G37*
X101297740Y-40774620D02*
X101317740Y-40774620D01*
X101317740Y-41028620D01*
X101297740Y-41028620D01*
X101297740Y-41048620D01*
X101043740Y-41048620D01*
X101043740Y-41028620D01*
X101023740Y-41028620D01*
X101023740Y-40774620D01*
X101043740Y-40774620D01*
X101043740Y-40754620D01*
X101297740Y-40754620D01*
X101297740Y-40774620D01*
G36*
X94553598Y-26880567D02*
X94695643Y-27224343D01*
X94958433Y-27487592D01*
X95301961Y-27630238D01*
X95673927Y-27630562D01*
X96017703Y-27488517D01*
X96048874Y-27457400D01*
X98480652Y-27457400D01*
X98480438Y-27703527D01*
X98622483Y-28047303D01*
X98885273Y-28310552D01*
X99228801Y-28453198D01*
X99272846Y-28453236D01*
X99481304Y-28661695D01*
X99648806Y-28773616D01*
X99728515Y-28826876D01*
X100020120Y-28884880D01*
X101186688Y-28884880D01*
X101163002Y-28941921D01*
X101162856Y-29109834D01*
X100962748Y-29309593D01*
X100820102Y-29653121D01*
X100819778Y-30025087D01*
X100961823Y-30368863D01*
X101224613Y-30632112D01*
X101568141Y-30774758D01*
X101612186Y-30774796D01*
X101748937Y-30911547D01*
X101531673Y-30911358D01*
X101187897Y-31053403D01*
X101182170Y-31059120D01*
X99629285Y-31059120D01*
X99629402Y-30924753D01*
X99487357Y-30580977D01*
X99224567Y-30317728D01*
X98881039Y-30175082D01*
X98509073Y-30174758D01*
X98165297Y-30316803D01*
X98159570Y-30322520D01*
X96780791Y-30322520D01*
X96776007Y-30317728D01*
X96432479Y-30175082D01*
X96060513Y-30174758D01*
X95716737Y-30316803D01*
X95453488Y-30579593D01*
X95310842Y-30923121D01*
X95310724Y-31059120D01*
X90130697Y-31059120D01*
X90322543Y-30979851D01*
X90979962Y-30323578D01*
X91336193Y-29465678D01*
X91337004Y-28536758D01*
X90982271Y-27678237D01*
X90325998Y-27020818D01*
X89958260Y-26868120D01*
X94553609Y-26868120D01*
X94553598Y-26880567D01*
X94553598Y-26880567D01*
G37*
X94553598Y-26880567D02*
X94695643Y-27224343D01*
X94958433Y-27487592D01*
X95301961Y-27630238D01*
X95673927Y-27630562D01*
X96017703Y-27488517D01*
X96048874Y-27457400D01*
X98480652Y-27457400D01*
X98480438Y-27703527D01*
X98622483Y-28047303D01*
X98885273Y-28310552D01*
X99228801Y-28453198D01*
X99272846Y-28453236D01*
X99481304Y-28661695D01*
X99648806Y-28773616D01*
X99728515Y-28826876D01*
X100020120Y-28884880D01*
X101186688Y-28884880D01*
X101163002Y-28941921D01*
X101162856Y-29109834D01*
X100962748Y-29309593D01*
X100820102Y-29653121D01*
X100819778Y-30025087D01*
X100961823Y-30368863D01*
X101224613Y-30632112D01*
X101568141Y-30774758D01*
X101612186Y-30774796D01*
X101748937Y-30911547D01*
X101531673Y-30911358D01*
X101187897Y-31053403D01*
X101182170Y-31059120D01*
X99629285Y-31059120D01*
X99629402Y-30924753D01*
X99487357Y-30580977D01*
X99224567Y-30317728D01*
X98881039Y-30175082D01*
X98509073Y-30174758D01*
X98165297Y-30316803D01*
X98159570Y-30322520D01*
X96780791Y-30322520D01*
X96776007Y-30317728D01*
X96432479Y-30175082D01*
X96060513Y-30174758D01*
X95716737Y-30316803D01*
X95453488Y-30579593D01*
X95310842Y-30923121D01*
X95310724Y-31059120D01*
X90130697Y-31059120D01*
X90322543Y-30979851D01*
X90979962Y-30323578D01*
X91336193Y-29465678D01*
X91337004Y-28536758D01*
X90982271Y-27678237D01*
X90325998Y-27020818D01*
X89958260Y-26868120D01*
X94553609Y-26868120D01*
X94553598Y-26880567D01*
G36*
X111445040Y-11297920D02*
X111465040Y-11297920D01*
X111465040Y-11551920D01*
X111445040Y-11551920D01*
X111445040Y-11571920D01*
X111191040Y-11571920D01*
X111191040Y-11551920D01*
X111171040Y-11551920D01*
X111171040Y-11297920D01*
X111191040Y-11297920D01*
X111191040Y-11277920D01*
X111445040Y-11277920D01*
X111445040Y-11297920D01*
X111445040Y-11297920D01*
G37*
X111445040Y-11297920D02*
X111465040Y-11297920D01*
X111465040Y-11551920D01*
X111445040Y-11551920D01*
X111445040Y-11571920D01*
X111191040Y-11571920D01*
X111191040Y-11551920D01*
X111171040Y-11551920D01*
X111171040Y-11297920D01*
X111191040Y-11297920D01*
X111191040Y-11277920D01*
X111445040Y-11277920D01*
X111445040Y-11297920D01*
M02*
