G04 #@! TF.GenerationSoftware,KiCad,Pcbnew,(2017-04-07 revision 7b4ea2a38)-master*
G04 #@! TF.CreationDate,2017-07-14T15:53:39-03:00*
G04 #@! TF.ProjectId,footswitch,666F6F747377697463682E6B69636164,rev?*
G04 #@! TF.FileFunction,Soldermask,Top*
G04 #@! TF.FilePolarity,Negative*
%FSLAX46Y46*%
G04 Gerber Fmt 4.6, Leading zero omitted, Abs format (unit mm)*
G04 Created by KiCad (PCBNEW (2017-04-07 revision 7b4ea2a38)-master) date Fri Jul 14 15:53:39 2017*
%MOMM*%
%LPD*%
G01*
G04 APERTURE LIST*
%ADD10C,0.100000*%
%ADD11O,2.232000X2.232000*%
%ADD12R,2.232000X2.232000*%
%ADD13R,0.800000X1.700000*%
%ADD14R,1.927200X2.232000*%
%ADD15O,1.927200X2.232000*%
%ADD16R,1.000000X0.950000*%
%ADD17O,2.000000X2.800000*%
%ADD18C,3.600000*%
%ADD19R,1.800200X3.799180*%
%ADD20R,0.450000X1.500000*%
%ADD21R,1.500000X0.450000*%
%ADD22R,1.000100X1.000100*%
%ADD23R,1.450000X1.200000*%
%ADD24R,0.950000X1.000000*%
%ADD25R,2.000860X2.699360*%
%ADD26R,1.110000X1.420000*%
%ADD27R,1.500000X0.900000*%
%ADD28R,1.250000X1.250000*%
%ADD29C,1.250000*%
%ADD30R,1.100000X0.700000*%
%ADD31R,0.700000X1.100000*%
%ADD32R,1.100000X2.700000*%
%ADD33R,3.248000X1.851000*%
%ADD34R,6.296000X6.296000*%
%ADD35R,5.800700X2.300580*%
%ADD36C,2.100000*%
%ADD37R,1.800000X1.200000*%
%ADD38R,0.790000X0.650000*%
%ADD39R,0.700380X2.501240*%
%ADD40R,2.198980X2.699360*%
%ADD41C,1.099160*%
%ADD42C,3.500000*%
%ADD43C,3.400000*%
%ADD44R,1.701140X1.701140*%
%ADD45C,1.701140*%
%ADD46R,1.800200X3.199740*%
%ADD47R,0.800000X0.600000*%
%ADD48C,0.254000*%
G04 APERTURE END LIST*
D10*
D11*
X191010540Y-40901620D03*
D12*
X188470540Y-40888920D03*
D11*
X199981820Y-40901620D03*
D12*
X197441820Y-40901620D03*
D11*
X47576740Y-40901620D03*
D12*
X45036740Y-40901620D03*
D11*
X38615620Y-40901620D03*
D12*
X36075620Y-40901620D03*
D13*
X123535440Y-29146520D03*
X122265440Y-29146520D03*
X120995440Y-29146520D03*
X119725440Y-29146520D03*
X118455440Y-29146520D03*
X117185440Y-29146520D03*
X115915440Y-29146520D03*
X115915440Y-34546520D03*
X117185440Y-34546520D03*
X118455440Y-34546520D03*
X119725440Y-34546520D03*
X120995440Y-34546520D03*
X122265440Y-34546520D03*
X123535440Y-34546520D03*
D14*
X129110740Y-40901620D03*
D15*
X126570740Y-40901620D03*
X124030740Y-40901620D03*
X121490740Y-40901620D03*
X118950740Y-40901620D03*
X116410740Y-40901620D03*
X113870740Y-40901620D03*
X111330740Y-40901620D03*
X108790740Y-40901620D03*
X106250740Y-40901620D03*
X103710740Y-40901620D03*
X101170740Y-40901620D03*
D16*
X133708840Y-13462000D03*
X132208840Y-13462000D03*
D17*
X12004040Y4500880D03*
X14544040Y4500880D03*
X17084040Y4500880D03*
X19624040Y4500880D03*
X22164040Y4500880D03*
X24704040Y4500880D03*
X27244040Y4500880D03*
X29784040Y4500880D03*
X32324040Y4500880D03*
X34864040Y4500880D03*
X37404040Y4500880D03*
X39944040Y4500880D03*
X42484040Y4500880D03*
X45024040Y4500880D03*
X47564040Y4500880D03*
X50104040Y4500880D03*
D18*
X6504940Y4500880D03*
X6504940Y-26499820D03*
X81503520Y-26499820D03*
X81503520Y4500880D03*
D19*
X177395840Y-47957740D03*
X177395840Y-42456100D03*
D20*
X110613640Y-26023320D03*
X110113640Y-26023320D03*
X109613640Y-26023320D03*
X109113640Y-26023320D03*
X108613640Y-26023320D03*
X108113640Y-26023320D03*
X107613640Y-26023320D03*
X107113640Y-26023320D03*
X106613640Y-26023320D03*
X106113640Y-26023320D03*
X105613640Y-26023320D03*
X105113640Y-26023320D03*
D21*
X103513640Y-27623320D03*
X103513640Y-28123320D03*
X103513640Y-28623320D03*
X103513640Y-29123320D03*
X103513640Y-29623320D03*
X103513640Y-30123320D03*
X103513640Y-30623320D03*
X103513640Y-31123320D03*
X103513640Y-31623320D03*
X103513640Y-32123320D03*
X103513640Y-32623320D03*
X103513640Y-33123320D03*
D20*
X105113640Y-34723320D03*
X105613640Y-34723320D03*
X106113640Y-34723320D03*
X106613640Y-34723320D03*
X107113640Y-34723320D03*
X107613640Y-34723320D03*
X108113640Y-34723320D03*
X108613640Y-34723320D03*
X109113640Y-34723320D03*
X109613640Y-34723320D03*
X110113640Y-34723320D03*
X110613640Y-34723320D03*
D21*
X112213640Y-33123320D03*
X112213640Y-32623320D03*
X112213640Y-32123320D03*
X112213640Y-31623320D03*
X112213640Y-31123320D03*
X112213640Y-30623320D03*
X112213640Y-30123320D03*
X112213640Y-29623320D03*
X112213640Y-29123320D03*
X112213640Y-28623320D03*
X112213640Y-28123320D03*
X112213640Y-27623320D03*
D22*
X98244660Y-34084300D03*
X98244660Y-32184300D03*
X96245680Y-33134300D03*
D23*
X137325840Y-45716920D03*
X137325840Y-43716920D03*
D24*
X149205840Y-45706920D03*
X149205840Y-44206920D03*
X182005840Y-42456920D03*
X182005840Y-43956920D03*
D16*
X112703040Y-18384520D03*
X111203040Y-18384520D03*
X102993760Y-18384520D03*
X104493760Y-18384520D03*
D24*
X101579680Y-27160920D03*
X101579680Y-25660920D03*
X114277140Y-28518420D03*
X114277140Y-30018420D03*
X114275840Y-26966920D03*
X114275840Y-25466920D03*
X777240Y-6586920D03*
X777240Y-5086920D03*
D23*
X2669540Y-6582920D03*
X2669540Y-4582920D03*
D24*
X152999440Y-17888520D03*
X152999440Y-19388520D03*
D23*
X155069540Y-17879820D03*
X155069540Y-19879820D03*
D25*
X146305840Y-44885900D03*
X146305840Y-40887940D03*
D26*
X140600840Y-49536920D03*
X137330840Y-49536920D03*
D27*
X4358040Y-35648720D03*
X4358040Y-36748720D03*
X4358040Y-37848720D03*
X7458040Y-37848720D03*
X7458040Y-36748720D03*
X7458040Y-35648720D03*
X80405640Y-35648720D03*
X80405640Y-36748720D03*
X80405640Y-37848720D03*
X83505640Y-37848720D03*
X83505640Y-36748720D03*
X83505640Y-35648720D03*
X156758040Y-35648720D03*
X156758040Y-36748720D03*
X156758040Y-37848720D03*
X159858040Y-37848720D03*
X159858040Y-36748720D03*
X159858040Y-35648720D03*
X232958040Y-35648720D03*
X232958040Y-36748720D03*
X232958040Y-37848720D03*
X236058040Y-37848720D03*
X236058040Y-36748720D03*
X236058040Y-35648720D03*
D28*
X89062560Y-42646600D03*
D29*
X90332560Y-42646600D03*
X91602560Y-42646600D03*
X92872560Y-42646600D03*
X94142560Y-42646600D03*
X90332560Y-41376600D03*
X91602560Y-41376600D03*
X92872560Y-41376600D03*
X94142560Y-41376600D03*
X89062560Y-41376600D03*
D22*
X141225840Y-42036160D03*
X139325840Y-42036160D03*
X140275840Y-44035140D03*
X141226600Y-47556920D03*
X141226600Y-45656920D03*
X139227620Y-46606920D03*
X135395840Y-43416160D03*
X133495840Y-43416160D03*
X134445840Y-45716920D03*
X49155840Y-33977680D03*
X51055840Y-33977680D03*
X50105840Y-31978700D03*
X201545840Y-33977680D03*
X203445840Y-33977680D03*
X202495840Y-31978700D03*
D30*
X142985840Y-42036920D03*
X142985840Y-43536920D03*
X142985840Y-44826920D03*
X142985840Y-46326920D03*
D31*
X133495840Y-41866920D03*
X134995840Y-41866920D03*
D30*
X131825840Y-43416920D03*
X131825840Y-44916920D03*
X119365840Y-25396920D03*
X119365840Y-26896920D03*
X116015840Y-26966920D03*
X116015840Y-25466920D03*
X33325840Y-42396920D03*
X33325840Y-40896920D03*
X185715840Y-42456920D03*
X185715840Y-40956920D03*
X42285840Y-42413620D03*
X42285840Y-40913620D03*
X194705840Y-42456920D03*
X194705840Y-40956920D03*
D31*
X52640Y-35046920D03*
X1552640Y-35046920D03*
X52640Y-36748720D03*
X1552640Y-36748720D03*
X52640Y-38450520D03*
X1552640Y-38450520D03*
X76100240Y-35046920D03*
X77600240Y-35046920D03*
X76100240Y-36748720D03*
X77600240Y-36748720D03*
X76100240Y-38450520D03*
X77600240Y-38450520D03*
X152452640Y-35046920D03*
X153952640Y-35046920D03*
X152452640Y-36748720D03*
X153952640Y-36748720D03*
X152452640Y-38450520D03*
X153952640Y-38450520D03*
X228652640Y-35046920D03*
X230152640Y-35046920D03*
X228652640Y-36748720D03*
X230152640Y-36748720D03*
X228652640Y-38450520D03*
X230152640Y-38450520D03*
D30*
X47465840Y-33486920D03*
X47465840Y-31986920D03*
X205105840Y-33476920D03*
X205105840Y-31976920D03*
D32*
X146305840Y-48456920D03*
X149205840Y-48456920D03*
D33*
X159205980Y-42901640D03*
D34*
X165555980Y-45187640D03*
D33*
X159205980Y-47473640D03*
D35*
X112707420Y-22031960D03*
X103009700Y-22031960D03*
D18*
X89001600Y-28999180D03*
X2540Y-47495460D03*
X151401780Y-28999180D03*
X240400840Y0D03*
X240400840Y-47495460D03*
D36*
X153161380Y-2584460D03*
X145661380Y-2584460D03*
X153161380Y2415540D03*
X145661380Y2413000D03*
X94741380Y-2584460D03*
X87241380Y-2584460D03*
X94741380Y2415540D03*
X87241380Y2415540D03*
D18*
X0Y0D03*
D17*
X164404040Y4500880D03*
X166944040Y4500880D03*
X169484040Y4500880D03*
X172024040Y4500880D03*
X174564040Y4500880D03*
X177104040Y4500880D03*
X179644040Y4500880D03*
X182184040Y4500880D03*
X184724040Y4500880D03*
X187264040Y4500880D03*
X189804040Y4500880D03*
X192344040Y4500880D03*
X194884040Y4500880D03*
X197424040Y4500880D03*
X199964040Y4500880D03*
X202504040Y4500880D03*
D18*
X158904940Y4500880D03*
X158904940Y-26499820D03*
X233903520Y-26499820D03*
X233903520Y4500880D03*
D37*
X125351540Y-2952620D03*
X125351540Y-5952620D03*
D24*
X98008440Y-25813320D03*
X98008440Y-27313320D03*
D38*
X131599040Y-11607800D03*
X133709040Y-11607800D03*
D39*
X121793000Y-172720D03*
X120992900Y-172720D03*
X120192800Y-172720D03*
X119392700Y-172720D03*
X118592600Y-172720D03*
D40*
X124642880Y-73660D03*
X124642880Y5425440D03*
X115742720Y-73660D03*
X115742720Y5425440D03*
D41*
X122392440Y2425700D03*
X117993160Y2425700D03*
D22*
X136984700Y-12659360D03*
X138884700Y-12659360D03*
X137934700Y-10660380D03*
D30*
X135407400Y-10105960D03*
X135407400Y-11605960D03*
D27*
X140728700Y-12659400D03*
X140728700Y-10759400D03*
D30*
X123306840Y-4448240D03*
X123306840Y-2948240D03*
X101564440Y-32595120D03*
X101564440Y-34095120D03*
X99837240Y-34095120D03*
X99837240Y-32595120D03*
X94655640Y-32391920D03*
X94655640Y-33891920D03*
X120736360Y-4128200D03*
X120736360Y-2628200D03*
X118983760Y-4128200D03*
X118983760Y-2628200D03*
X99877880Y-27308240D03*
X99877880Y-25808240D03*
D42*
X99687380Y1462360D03*
D43*
X111556800Y1462360D03*
D44*
X110070900Y-4887640D03*
D45*
X108800900Y-7427640D03*
X107530900Y-4887640D03*
X106260900Y-7427640D03*
X104990900Y-4887640D03*
X103720900Y-7427640D03*
X102450900Y-4887640D03*
X101180900Y-7427640D03*
D42*
X128828800Y1406480D03*
D43*
X140698220Y1406480D03*
D44*
X139212320Y-4943520D03*
D45*
X137942320Y-7483520D03*
X136672320Y-4943520D03*
X135402320Y-7483520D03*
X134132320Y-4943520D03*
X132862320Y-7483520D03*
X131592320Y-4943520D03*
X130322320Y-7483520D03*
D15*
X144125840Y-32326920D03*
X141585840Y-32326920D03*
D14*
X139045840Y-32326920D03*
D46*
X153535840Y-48446560D03*
X153535840Y-44047280D03*
D23*
X17096740Y-31303720D03*
X17096740Y-33303720D03*
X169468800Y-31379920D03*
X169468800Y-33379920D03*
D22*
X98732300Y-30767020D03*
X100632300Y-30767020D03*
X99682300Y-28768040D03*
D30*
X96979740Y-29267720D03*
X96979740Y-30767720D03*
X21071840Y-31304800D03*
X21071840Y-32804800D03*
X95227140Y-29267720D03*
X95227140Y-30767720D03*
X19202400Y-31304800D03*
X19202400Y-32804800D03*
X173443900Y-31388620D03*
X173443900Y-32888620D03*
X171577000Y-31388620D03*
X171577000Y-32888620D03*
D14*
X129098040Y-12428220D03*
D15*
X126558040Y-12428220D03*
X124018040Y-12428220D03*
X121478040Y-12428220D03*
X118938040Y-12428220D03*
X116398040Y-12428220D03*
X113858040Y-12428220D03*
X111318040Y-12428220D03*
X108778040Y-12428220D03*
X106238040Y-12428220D03*
X103698040Y-12428220D03*
X101158040Y-12428220D03*
D47*
X117715840Y-25466920D03*
X117715840Y-26366920D03*
D30*
X121365840Y-26896920D03*
X121365840Y-25396920D03*
D48*
G36*
X173361400Y-49998400D02*
X161591040Y-49998400D01*
X161591040Y-40356560D01*
X173361400Y-40356560D01*
X173361400Y-49998400D01*
X173361400Y-49998400D01*
G37*
X173361400Y-49998400D02*
X161591040Y-49998400D01*
X161591040Y-40356560D01*
X173361400Y-40356560D01*
X173361400Y-49998400D01*
M02*
