G04 #@! TF.GenerationSoftware,KiCad,Pcbnew,5.0.2-bee76a0~70~ubuntu18.04.1*
G04 #@! TF.CreationDate,2019-03-18T11:53:56+01:00*
G04 #@! TF.ProjectId,footswitch,666f6f74-7377-4697-9463-682e6b696361,rev?*
G04 #@! TF.SameCoordinates,PX1ae5c80PY3d0c318*
G04 #@! TF.FileFunction,Other,Fab,Bot*
%FSLAX46Y46*%
G04 Gerber Fmt 4.6, Leading zero omitted, Abs format (unit mm)*
G04 Created by KiCad (PCBNEW 5.0.2-bee76a0~70~ubuntu18.04.1) date Mon 18 Mar 2019 11:53:56 AM CET*
%MOMM*%
%LPD*%
G01*
G04 APERTURE LIST*
%ADD10C,0.100000*%
G04 APERTURE END LIST*
G04 #@! TO.C,P2*
D10*
X189370540Y-40851620D02*
X189603873Y-40851620D01*
X189603873Y-41218286D02*
X189603873Y-40518286D01*
X189270540Y-40518286D01*
X188870540Y-40518286D02*
X188737206Y-40518286D01*
X188670540Y-40551620D01*
X188603873Y-40618286D01*
X188570540Y-40751620D01*
X188570540Y-40984953D01*
X188603873Y-41118286D01*
X188670540Y-41184953D01*
X188737206Y-41218286D01*
X188870540Y-41218286D01*
X188937206Y-41184953D01*
X189003873Y-41118286D01*
X189037206Y-40984953D01*
X189037206Y-40751620D01*
X189003873Y-40618286D01*
X188937206Y-40551620D01*
X188870540Y-40518286D01*
X188137206Y-40518286D02*
X188003873Y-40518286D01*
X187937206Y-40551620D01*
X187870540Y-40618286D01*
X187837206Y-40751620D01*
X187837206Y-40984953D01*
X187870540Y-41118286D01*
X187937206Y-41184953D01*
X188003873Y-41218286D01*
X188137206Y-41218286D01*
X188203873Y-41184953D01*
X188270540Y-41118286D01*
X188303873Y-40984953D01*
X188303873Y-40751620D01*
X188270540Y-40618286D01*
X188203873Y-40551620D01*
X188137206Y-40518286D01*
X187637206Y-40518286D02*
X187237206Y-40518286D01*
X187437206Y-41218286D02*
X187437206Y-40518286D01*
G04 #@! TO.C,P5*
X198341820Y-40851620D02*
X198575153Y-40851620D01*
X198575153Y-41218286D02*
X198575153Y-40518286D01*
X198241820Y-40518286D01*
X197841820Y-40518286D02*
X197708486Y-40518286D01*
X197641820Y-40551620D01*
X197575153Y-40618286D01*
X197541820Y-40751620D01*
X197541820Y-40984953D01*
X197575153Y-41118286D01*
X197641820Y-41184953D01*
X197708486Y-41218286D01*
X197841820Y-41218286D01*
X197908486Y-41184953D01*
X197975153Y-41118286D01*
X198008486Y-40984953D01*
X198008486Y-40751620D01*
X197975153Y-40618286D01*
X197908486Y-40551620D01*
X197841820Y-40518286D01*
X197108486Y-40518286D02*
X196975153Y-40518286D01*
X196908486Y-40551620D01*
X196841820Y-40618286D01*
X196808486Y-40751620D01*
X196808486Y-40984953D01*
X196841820Y-41118286D01*
X196908486Y-41184953D01*
X196975153Y-41218286D01*
X197108486Y-41218286D01*
X197175153Y-41184953D01*
X197241820Y-41118286D01*
X197275153Y-40984953D01*
X197275153Y-40751620D01*
X197241820Y-40618286D01*
X197175153Y-40551620D01*
X197108486Y-40518286D01*
X196608486Y-40518286D02*
X196208486Y-40518286D01*
X196408486Y-41218286D02*
X196408486Y-40518286D01*
G04 #@! TO.C,P4*
X45936740Y-40851620D02*
X46170073Y-40851620D01*
X46170073Y-41218286D02*
X46170073Y-40518286D01*
X45836740Y-40518286D01*
X45436740Y-40518286D02*
X45303406Y-40518286D01*
X45236740Y-40551620D01*
X45170073Y-40618286D01*
X45136740Y-40751620D01*
X45136740Y-40984953D01*
X45170073Y-41118286D01*
X45236740Y-41184953D01*
X45303406Y-41218286D01*
X45436740Y-41218286D01*
X45503406Y-41184953D01*
X45570073Y-41118286D01*
X45603406Y-40984953D01*
X45603406Y-40751620D01*
X45570073Y-40618286D01*
X45503406Y-40551620D01*
X45436740Y-40518286D01*
X44703406Y-40518286D02*
X44570073Y-40518286D01*
X44503406Y-40551620D01*
X44436740Y-40618286D01*
X44403406Y-40751620D01*
X44403406Y-40984953D01*
X44436740Y-41118286D01*
X44503406Y-41184953D01*
X44570073Y-41218286D01*
X44703406Y-41218286D01*
X44770073Y-41184953D01*
X44836740Y-41118286D01*
X44870073Y-40984953D01*
X44870073Y-40751620D01*
X44836740Y-40618286D01*
X44770073Y-40551620D01*
X44703406Y-40518286D01*
X44203406Y-40518286D02*
X43803406Y-40518286D01*
X44003406Y-41218286D02*
X44003406Y-40518286D01*
G04 #@! TO.C,P1*
X36975620Y-40851620D02*
X37208953Y-40851620D01*
X37208953Y-41218286D02*
X37208953Y-40518286D01*
X36875620Y-40518286D01*
X36475620Y-40518286D02*
X36342286Y-40518286D01*
X36275620Y-40551620D01*
X36208953Y-40618286D01*
X36175620Y-40751620D01*
X36175620Y-40984953D01*
X36208953Y-41118286D01*
X36275620Y-41184953D01*
X36342286Y-41218286D01*
X36475620Y-41218286D01*
X36542286Y-41184953D01*
X36608953Y-41118286D01*
X36642286Y-40984953D01*
X36642286Y-40751620D01*
X36608953Y-40618286D01*
X36542286Y-40551620D01*
X36475620Y-40518286D01*
X35742286Y-40518286D02*
X35608953Y-40518286D01*
X35542286Y-40551620D01*
X35475620Y-40618286D01*
X35442286Y-40751620D01*
X35442286Y-40984953D01*
X35475620Y-41118286D01*
X35542286Y-41184953D01*
X35608953Y-41218286D01*
X35742286Y-41218286D01*
X35808953Y-41184953D01*
X35875620Y-41118286D01*
X35908953Y-40984953D01*
X35908953Y-40751620D01*
X35875620Y-40618286D01*
X35808953Y-40551620D01*
X35742286Y-40518286D01*
X35242286Y-40518286D02*
X34842286Y-40518286D01*
X35042286Y-41218286D02*
X35042286Y-40518286D01*
G04 #@! TD*
M02*
