G04 #@! TF.GenerationSoftware,KiCad,Pcbnew,(2017-04-07 revision 7b4ea2a38)-master*
G04 #@! TF.CreationDate,2017-07-14T15:53:39-03:00*
G04 #@! TF.ProjectId,footswitch,666F6F747377697463682E6B69636164,rev?*
G04 #@! TF.FileFunction,Copper,L2,Bot,Signal*
G04 #@! TF.FilePolarity,Positive*
%FSLAX46Y46*%
G04 Gerber Fmt 4.6, Leading zero omitted, Abs format (unit mm)*
G04 Created by KiCad (PCBNEW (2017-04-07 revision 7b4ea2a38)-master) date Fri Jul 14 15:53:39 2017*
%MOMM*%
%LPD*%
G01*
G04 APERTURE LIST*
%ADD10C,0.100000*%
%ADD11O,2.032000X2.032000*%
%ADD12R,2.032000X2.032000*%
%ADD13R,1.727200X2.032000*%
%ADD14O,1.727200X2.032000*%
%ADD15O,1.800000X2.600000*%
%ADD16C,3.400000*%
%ADD17R,1.050000X1.050000*%
%ADD18C,1.050000*%
%ADD19C,1.900000*%
%ADD20C,0.899160*%
%ADD21C,3.300000*%
%ADD22C,3.200000*%
%ADD23R,1.501140X1.501140*%
%ADD24C,1.501140*%
%ADD25C,0.600000*%
%ADD26C,0.750000*%
%ADD27C,0.900000*%
%ADD28C,0.254000*%
%ADD29C,0.381000*%
%ADD30C,0.508000*%
G04 APERTURE END LIST*
D10*
D11*
X191010540Y-40901620D03*
D12*
X188470540Y-40888920D03*
D11*
X199981820Y-40901620D03*
D12*
X197441820Y-40901620D03*
D11*
X47576740Y-40901620D03*
D12*
X45036740Y-40901620D03*
D11*
X38615620Y-40901620D03*
D12*
X36075620Y-40901620D03*
D13*
X129110740Y-40901620D03*
D14*
X126570740Y-40901620D03*
X124030740Y-40901620D03*
X121490740Y-40901620D03*
X118950740Y-40901620D03*
X116410740Y-40901620D03*
X113870740Y-40901620D03*
X111330740Y-40901620D03*
X108790740Y-40901620D03*
X106250740Y-40901620D03*
X103710740Y-40901620D03*
X101170740Y-40901620D03*
D15*
X12004040Y4500880D03*
X14544040Y4500880D03*
X17084040Y4500880D03*
X19624040Y4500880D03*
X22164040Y4500880D03*
X24704040Y4500880D03*
X27244040Y4500880D03*
X29784040Y4500880D03*
X32324040Y4500880D03*
X34864040Y4500880D03*
X37404040Y4500880D03*
X39944040Y4500880D03*
X42484040Y4500880D03*
X45024040Y4500880D03*
X47564040Y4500880D03*
X50104040Y4500880D03*
D16*
X6504940Y4500880D03*
X6504940Y-26499820D03*
X81503520Y-26499820D03*
X81503520Y4500880D03*
D17*
X89062560Y-42646600D03*
D18*
X90332560Y-42646600D03*
X91602560Y-42646600D03*
X92872560Y-42646600D03*
X94142560Y-42646600D03*
X90332560Y-41376600D03*
X91602560Y-41376600D03*
X92872560Y-41376600D03*
X94142560Y-41376600D03*
X89062560Y-41376600D03*
D16*
X89001600Y-28999180D03*
X2540Y-47495460D03*
X151401780Y-28999180D03*
X240400840Y0D03*
X240400840Y-47495460D03*
D19*
X153161380Y-2584460D03*
X145661380Y-2584460D03*
X153161380Y2415540D03*
X145661380Y2413000D03*
X94741380Y-2584460D03*
X87241380Y-2584460D03*
X94741380Y2415540D03*
X87241380Y2415540D03*
D16*
X0Y0D03*
D15*
X164404040Y4500880D03*
X166944040Y4500880D03*
X169484040Y4500880D03*
X172024040Y4500880D03*
X174564040Y4500880D03*
X177104040Y4500880D03*
X179644040Y4500880D03*
X182184040Y4500880D03*
X184724040Y4500880D03*
X187264040Y4500880D03*
X189804040Y4500880D03*
X192344040Y4500880D03*
X194884040Y4500880D03*
X197424040Y4500880D03*
X199964040Y4500880D03*
X202504040Y4500880D03*
D16*
X158904940Y4500880D03*
X158904940Y-26499820D03*
X233903520Y-26499820D03*
X233903520Y4500880D03*
D20*
X122392440Y2425700D03*
X117993160Y2425700D03*
D21*
X99687380Y1462360D03*
D22*
X111556800Y1462360D03*
D23*
X110070900Y-4887640D03*
D24*
X108800900Y-7427640D03*
X107530900Y-4887640D03*
X106260900Y-7427640D03*
X104990900Y-4887640D03*
X103720900Y-7427640D03*
X102450900Y-4887640D03*
X101180900Y-7427640D03*
D21*
X128828800Y1406480D03*
D22*
X140698220Y1406480D03*
D23*
X139212320Y-4943520D03*
D24*
X137942320Y-7483520D03*
X136672320Y-4943520D03*
X135402320Y-7483520D03*
X134132320Y-4943520D03*
X132862320Y-7483520D03*
X131592320Y-4943520D03*
X130322320Y-7483520D03*
D14*
X144125840Y-32326920D03*
X141585840Y-32326920D03*
D13*
X139045840Y-32326920D03*
X129098040Y-12428220D03*
D14*
X126558040Y-12428220D03*
X124018040Y-12428220D03*
X121478040Y-12428220D03*
X118938040Y-12428220D03*
X116398040Y-12428220D03*
X113858040Y-12428220D03*
X111318040Y-12428220D03*
X108778040Y-12428220D03*
X106238040Y-12428220D03*
X103698040Y-12428220D03*
X101158040Y-12428220D03*
D25*
X109285840Y-18386920D03*
X109285840Y-23436920D03*
X110475840Y-31616920D03*
X115915840Y-30426920D03*
X119608600Y-5948680D03*
X111699040Y-5948680D03*
X123931680Y-5953760D03*
X117871240Y-5948680D03*
D26*
X157705840Y-45186920D03*
X129915840Y-45176920D03*
D25*
X118465840Y-24176920D03*
X121365840Y-24176920D03*
X106631740Y-24175720D03*
D26*
X47564040Y-6586220D03*
X14544040Y-6586220D03*
X4003040Y-6586220D03*
X199964040Y-17876520D03*
D25*
X156326840Y-17876520D03*
D26*
X166944040Y-17876520D03*
D25*
X106212640Y-32964120D03*
X172024040Y-22308820D03*
X105044240Y-28379420D03*
X19624040Y-20289520D03*
X174564040Y-21711920D03*
X104790240Y-27617420D03*
X22176740Y-19692620D03*
X24704040Y-20871180D03*
X109413040Y-28188920D03*
X37404040Y-17927320D03*
X189804040Y-19959320D03*
X105107740Y-24772620D03*
X39944040Y-19108420D03*
X192344040Y-21127720D03*
X105615740Y-27274520D03*
X42534840Y-17330420D03*
X194884040Y-19375120D03*
X106111040Y-24759920D03*
X45024040Y-18511520D03*
X197424040Y-20543520D03*
X106619040Y-27274520D03*
X177104040Y-22887940D03*
X110187740Y-28455620D03*
X118455840Y-33196920D03*
X118455840Y-30466920D03*
X90335840Y-39616920D03*
X105582720Y-38989000D03*
X91602560Y-39029640D03*
X105410000Y-38227000D03*
X111855840Y-34016920D03*
X111855840Y-35426920D03*
X36075840Y-36416920D03*
X100637340Y-29827220D03*
X102339140Y-33370520D03*
X109959140Y-29662120D03*
X45035840Y-37006920D03*
X102948740Y-34107120D03*
X110581440Y-30538420D03*
X49155840Y-34986920D03*
X101716840Y-31846520D03*
X200355840Y-33976920D03*
X110632240Y-29065220D03*
X98922840Y-26563320D03*
X116398040Y-10901680D03*
X132862320Y-10901680D03*
X103718360Y-10901680D03*
X121478040Y-9398000D03*
X137942320Y-9398000D03*
X108803440Y-9398000D03*
X113858040Y-10149840D03*
X136672320Y-10149840D03*
X107533440Y-10149840D03*
X124018040Y-8641080D03*
X139207240Y-8651240D03*
X140731240Y-8643620D03*
X110073440Y-8643620D03*
X111018320Y-8061960D03*
X121793000Y-8056880D03*
X94655640Y-33141920D03*
X100700840Y-33141920D03*
X104790240Y-36088320D03*
X-797560Y-35046920D03*
X105615740Y-33472120D03*
X-797560Y-36748720D03*
X105277920Y-37434520D03*
X-797560Y-38450520D03*
X75237340Y-35046920D03*
X101754940Y-29839920D03*
X102097840Y-29128720D03*
X75237340Y-35923220D03*
X105577640Y-32519620D03*
X74653140Y-36774120D03*
X151589740Y-35046920D03*
X110124240Y-33154620D03*
X109146340Y-33154620D03*
X151602440Y-36748720D03*
X150865840Y-36977320D03*
X108295440Y-33154620D03*
X109108240Y-35974020D03*
X227802440Y-35046920D03*
X109044740Y-36736020D03*
X227802440Y-36748720D03*
X108282740Y-36799520D03*
X227799900Y-38450520D03*
X120218200Y-14046200D03*
X106238040Y-14046200D03*
X103698040Y-14635480D03*
X117668040Y-14635480D03*
D27*
X129098040Y-3327400D03*
X104993440Y-3327400D03*
X134132320Y-3327400D03*
D25*
X95227140Y-30017720D03*
X99672140Y-29776420D03*
X105666540Y-30259020D03*
D28*
X109285840Y-23436920D02*
X109285840Y-18386920D01*
X114725840Y-31616920D02*
X110475840Y-31616920D01*
X115915840Y-30426920D02*
X114725840Y-31616920D01*
X111699040Y-5948680D02*
X117871240Y-5948680D01*
X123926600Y-5948680D02*
X123931680Y-5953760D01*
X117871240Y-5948680D02*
X119608600Y-5948680D01*
X119608600Y-5948680D02*
X123926600Y-5948680D01*
X121365840Y-24176920D02*
X146385840Y-24176920D01*
X152686240Y-17876520D02*
X156326840Y-17876520D01*
X146385840Y-24176920D02*
X152686240Y-17876520D01*
D29*
X157705840Y-45186920D02*
X129925840Y-45186920D01*
X129925840Y-45186920D02*
X129915840Y-45176920D01*
D28*
X118465840Y-24176920D02*
X118465840Y-24175720D01*
X118465840Y-24175720D02*
X121364640Y-24175720D01*
X121364640Y-24175720D02*
X121365840Y-24176920D01*
X106631740Y-24175720D02*
X118465840Y-24175720D01*
D29*
X14544040Y-6586220D02*
X47564040Y-6586220D01*
X4003040Y-6586220D02*
X14544040Y-6586220D01*
X166944040Y-17876520D02*
X199964040Y-17876520D01*
X166944040Y-17876520D02*
X156326840Y-17876520D01*
D28*
X106212640Y-37881560D02*
X107535840Y-39204760D01*
X107535840Y-41576920D02*
X106298520Y-42814240D01*
X107535840Y-39204760D02*
X107535840Y-41576920D01*
X106298520Y-42814240D02*
X95580200Y-42814240D01*
X106212640Y-32964120D02*
X106212640Y-37881560D01*
X95580200Y-42814240D02*
X94142560Y-41376600D01*
X105044240Y-28379420D02*
X105425240Y-28760420D01*
X152148540Y-22308820D02*
X172024040Y-22308820D01*
X147284440Y-27172920D02*
X152148540Y-22308820D01*
X108981240Y-27172920D02*
X147284440Y-27172920D01*
X107393740Y-28760420D02*
X108981240Y-27172920D01*
X105425240Y-28760420D02*
X107393740Y-28760420D01*
X105044240Y-28379420D02*
X104612440Y-28379420D01*
X81587340Y-20289520D02*
X19624040Y-20289520D01*
X86553040Y-25255220D02*
X81587340Y-20289520D01*
X102389940Y-25255220D02*
X86553040Y-25255220D01*
X104104440Y-26969720D02*
X102389940Y-25255220D01*
X104104440Y-27871420D02*
X104104440Y-26969720D01*
X104612440Y-28379420D02*
X104104440Y-27871420D01*
X104790240Y-27617420D02*
X105133140Y-27617420D01*
X105844340Y-28328620D02*
X107215940Y-28328620D01*
X105133140Y-27617420D02*
X105844340Y-28328620D01*
X107215940Y-28328620D02*
X108778040Y-26766520D01*
X108778040Y-26766520D02*
X147093940Y-26766520D01*
X147093940Y-26766520D02*
X152148540Y-21711920D01*
X152148540Y-21711920D02*
X174564040Y-21711920D01*
X104790240Y-27617420D02*
X104790240Y-27045920D01*
X81587340Y-19692620D02*
X22176740Y-19692620D01*
X86718140Y-24823420D02*
X81587340Y-19692620D01*
X102567740Y-24823420D02*
X86718140Y-24823420D01*
X104790240Y-27045920D02*
X102567740Y-24823420D01*
X109413040Y-28188920D02*
X108417360Y-29184600D01*
X81574640Y-20871180D02*
X24704040Y-20871180D01*
X86380320Y-25676860D02*
X81574640Y-20871180D01*
X102217220Y-25676860D02*
X86380320Y-25676860D01*
X103677720Y-27137360D02*
X102217220Y-25676860D01*
X103677720Y-28039060D02*
X103677720Y-27137360D01*
X104823260Y-29184600D02*
X103677720Y-28039060D01*
X108417360Y-29184600D02*
X104823260Y-29184600D01*
X105107740Y-24772620D02*
X105679240Y-25344120D01*
X105679240Y-25344120D02*
X146725640Y-25344120D01*
X152110440Y-19959320D02*
X189804040Y-19959320D01*
X146725640Y-25344120D02*
X152110440Y-19959320D01*
X105107740Y-24772620D02*
X103901240Y-23566120D01*
X81612740Y-17927320D02*
X37404040Y-17927320D01*
X87251540Y-23566120D02*
X81612740Y-17927320D01*
X103901240Y-23566120D02*
X87251540Y-23566120D01*
X105615740Y-27274520D02*
X106250740Y-27909520D01*
X106250740Y-27909520D02*
X107050840Y-27909520D01*
X107050840Y-27909520D02*
X108625640Y-26334720D01*
X108625640Y-26334720D02*
X146928840Y-26334720D01*
X146928840Y-26334720D02*
X152135840Y-21127720D01*
X152135840Y-21127720D02*
X192344040Y-21127720D01*
X105615740Y-27274520D02*
X102745540Y-24404320D01*
X81600040Y-19108420D02*
X39944040Y-19108420D01*
X86895940Y-24404320D02*
X81600040Y-19108420D01*
X102745540Y-24404320D02*
X86895940Y-24404320D01*
X106111040Y-24759920D02*
X146712940Y-24759920D01*
X152097740Y-19375120D02*
X194884040Y-19375120D01*
X146712940Y-24759920D02*
X152097740Y-19375120D01*
X106111040Y-24759920D02*
X104498140Y-23147020D01*
X81612740Y-17330420D02*
X42534840Y-17330420D01*
X87429340Y-23147020D02*
X81612740Y-17330420D01*
X104498140Y-23147020D02*
X87429340Y-23147020D01*
X106619040Y-27274520D02*
X108028740Y-25864820D01*
X108028740Y-25864820D02*
X146801840Y-25864820D01*
X152123140Y-20543520D02*
X197424040Y-20543520D01*
X146801840Y-25864820D02*
X152123140Y-20543520D01*
X106619040Y-27274520D02*
X103329740Y-23985220D01*
X81612740Y-18511520D02*
X45024040Y-18511520D01*
X87086440Y-23985220D02*
X81612740Y-18511520D01*
X103329740Y-23985220D02*
X87086440Y-23985220D01*
X110187740Y-28455620D02*
X111046260Y-27597100D01*
X152171400Y-22887940D02*
X177104040Y-22887940D01*
X147462240Y-27597100D02*
X152171400Y-22887940D01*
X111046260Y-27597100D02*
X147462240Y-27597100D01*
X118455840Y-30466920D02*
X118455840Y-33196920D01*
X90338920Y-39613840D02*
X92207080Y-39613840D01*
X90335840Y-39616920D02*
X90338920Y-39613840D01*
X92532200Y-39288720D02*
X92207080Y-39613840D01*
X105283000Y-39288720D02*
X92532200Y-39288720D01*
X105582720Y-38989000D02*
X105283000Y-39288720D01*
X105410000Y-38227000D02*
X104769920Y-38867080D01*
X92298520Y-38867080D02*
X92135960Y-39029640D01*
X104769920Y-38867080D02*
X92298520Y-38867080D01*
X92135960Y-39029640D02*
X91602560Y-39029640D01*
X111855840Y-35426920D02*
X111855840Y-34016920D01*
X71732140Y-36418520D02*
X36077440Y-36418520D01*
X36077440Y-36418520D02*
X36075840Y-36416920D01*
X74180700Y-33969960D02*
X71732140Y-36418520D01*
X102339140Y-33370520D02*
X102339140Y-31529020D01*
X102339140Y-31529020D02*
X100637340Y-29827220D01*
X77393800Y-35473640D02*
X101925120Y-35473640D01*
X102339140Y-35059620D02*
X102339140Y-33370520D01*
X101925120Y-35473640D02*
X102339140Y-35059620D01*
X75890120Y-33969960D02*
X74180700Y-33969960D01*
X77393800Y-35473640D02*
X75890120Y-33969960D01*
X109336840Y-39301420D02*
X186883040Y-39301420D01*
X186883040Y-39301420D02*
X188470540Y-40888920D01*
X109959140Y-29662120D02*
X107254040Y-32385000D01*
X107254040Y-32385000D02*
X107254040Y-37218620D01*
X107254040Y-37218620D02*
X109336840Y-39301420D01*
X71744840Y-37002720D02*
X45040040Y-37002720D01*
X45040040Y-37002720D02*
X45035840Y-37006920D01*
X102948740Y-35313620D02*
X102362000Y-35900360D01*
X102362000Y-35900360D02*
X77221080Y-35900360D01*
X77221080Y-35900360D02*
X75752960Y-34432240D01*
X75752960Y-34432240D02*
X74315320Y-34432240D01*
X74315320Y-34432240D02*
X71744840Y-37002720D01*
X102948740Y-34107120D02*
X102948740Y-35313620D01*
X195409820Y-38869620D02*
X197441820Y-40901620D01*
X109527340Y-38869620D02*
X107673140Y-37015420D01*
X195409820Y-38869620D02*
X109527340Y-38869620D01*
X109717840Y-30538420D02*
X107673140Y-32583120D01*
X107673140Y-32583120D02*
X107673140Y-37015420D01*
X110581440Y-30538420D02*
X109717840Y-30538420D01*
X101716840Y-31846520D02*
X94786240Y-31846520D01*
X49955840Y-35786920D02*
X49155840Y-34986920D01*
X71415840Y-35786920D02*
X49955840Y-35786920D01*
X73715840Y-33486920D02*
X71415840Y-35786920D01*
X93145840Y-33486920D02*
X73715840Y-33486920D01*
X94786240Y-31846520D02*
X93145840Y-33486920D01*
X111520540Y-28176920D02*
X147715840Y-28176920D01*
X189855840Y-23476920D02*
X200355840Y-33976920D01*
X152415840Y-23476920D02*
X189855840Y-23476920D01*
X147715840Y-28176920D02*
X152415840Y-23476920D01*
X110632240Y-29065220D02*
X111520540Y-28176920D01*
X103266240Y-28209240D02*
X103266240Y-27312620D01*
X108790740Y-39347140D02*
X106829860Y-37386260D01*
X106829860Y-37386260D02*
X106829860Y-30309820D01*
X106829860Y-30309820D02*
X106118660Y-29598620D01*
X106118660Y-29598620D02*
X104655620Y-29598620D01*
X104655620Y-29598620D02*
X103266240Y-28209240D01*
X108790740Y-40901620D02*
X108790740Y-39347140D01*
X103266240Y-27312620D02*
X102516940Y-26563320D01*
X102516940Y-26563320D02*
X98922840Y-26563320D01*
X103718360Y-10901680D02*
X116398040Y-10901680D01*
X116398040Y-10901680D02*
X132862320Y-10901680D01*
X108803440Y-9398000D02*
X121478040Y-9398000D01*
X121478040Y-9398000D02*
X137942320Y-9398000D01*
X107533440Y-10149840D02*
X113858040Y-10149840D01*
X113858040Y-10149840D02*
X136672320Y-10149840D01*
X124018040Y-8641080D02*
X124018040Y-8643620D01*
X139207240Y-8651240D02*
X139207240Y-8643620D01*
X110073440Y-8643620D02*
X124018040Y-8643620D01*
X124018040Y-8643620D02*
X139207240Y-8643620D01*
X139207240Y-8643620D02*
X140731240Y-8643620D01*
X121793000Y-8056880D02*
X111023400Y-8056880D01*
X111023400Y-8056880D02*
X111018320Y-8061960D01*
X100700840Y-33141920D02*
X94655640Y-33141920D01*
X-797560Y-35046920D02*
X-797560Y-35872420D01*
X103291640Y-37586920D02*
X104790240Y-36088320D01*
X916940Y-37586920D02*
X103291640Y-37586920D01*
X-797560Y-35872420D02*
X916940Y-37586920D01*
X105615740Y-33472120D02*
X105615740Y-36202620D01*
X105615740Y-36202620D02*
X103799640Y-38018720D01*
X472440Y-38018720D02*
X-797560Y-36748720D01*
X103799640Y-38018720D02*
X472440Y-38018720D01*
X-797560Y-38450520D02*
X104261920Y-38450520D01*
X104261920Y-38450520D02*
X105277920Y-37434520D01*
X101754940Y-29839920D02*
X103748840Y-31833820D01*
X103748840Y-31833820D02*
X103748840Y-35123120D01*
X103748840Y-35123120D02*
X102542340Y-36329620D01*
X102542340Y-36329620D02*
X76520040Y-36329620D01*
X76520040Y-36329620D02*
X75237340Y-35046920D01*
X104193340Y-31224220D02*
X104193340Y-35275520D01*
X102097840Y-29128720D02*
X104193340Y-31224220D01*
X104193340Y-35275520D02*
X102720140Y-36748720D01*
X102720140Y-36748720D02*
X76062840Y-36748720D01*
X76062840Y-36748720D02*
X75237340Y-35923220D01*
X104802940Y-35237420D02*
X104802940Y-33294320D01*
X104802940Y-33294320D02*
X105577640Y-32519620D01*
X104802940Y-35237420D02*
X102872540Y-37167820D01*
X75046840Y-37167820D02*
X102872540Y-37167820D01*
X74653140Y-36774120D02*
X75046840Y-37167820D01*
X110124240Y-33154620D02*
X110124240Y-34742120D01*
X111521240Y-36139120D02*
X149837140Y-36139120D01*
X110124240Y-34742120D02*
X111521240Y-36139120D01*
X150738840Y-35897820D02*
X151589740Y-35046920D01*
X150078440Y-35897820D02*
X150738840Y-35897820D01*
X149837140Y-36139120D02*
X150078440Y-35897820D01*
X109146340Y-33154620D02*
X109146340Y-34373820D01*
X150053040Y-36558220D02*
X150268940Y-36342320D01*
X151196040Y-36342320D02*
X151602440Y-36748720D01*
X150268940Y-36342320D02*
X151196040Y-36342320D01*
X109146340Y-34373820D02*
X111330740Y-36558220D01*
X111330740Y-36558220D02*
X150053040Y-36558220D01*
X108295440Y-33154620D02*
X108295440Y-34107120D01*
X111165640Y-36977320D02*
X150865840Y-36977320D01*
X108295440Y-34107120D02*
X111165640Y-36977320D01*
X227802440Y-35046920D02*
X225287840Y-37561520D01*
X225287840Y-37561520D02*
X110695740Y-37561520D01*
X110695740Y-37561520D02*
X109108240Y-35974020D01*
X227802440Y-36748720D02*
X226570540Y-37980620D01*
X226570540Y-37980620D02*
X110289340Y-37980620D01*
X109044740Y-36736020D02*
X110289340Y-37980620D01*
X227799900Y-38450520D02*
X109933740Y-38450520D01*
X109933740Y-38450520D02*
X108282740Y-36799520D01*
X106238040Y-14046200D02*
X120218200Y-14046200D01*
X117668040Y-14635480D02*
X103698040Y-14635480D01*
D30*
X126558040Y-12428220D02*
X129098040Y-12428220D01*
X134132320Y-3327400D02*
X129098040Y-3327400D01*
X129098040Y-3327400D02*
X104993440Y-3327400D01*
D28*
X99672140Y-29776420D02*
X98516440Y-29776420D01*
X98275140Y-30017720D02*
X95227140Y-30017720D01*
X98516440Y-29776420D02*
X98275140Y-30017720D01*
X105666540Y-30259020D02*
X104637840Y-30259020D01*
X100929440Y-28519120D02*
X99672140Y-29776420D01*
X102897940Y-28519120D02*
X100929440Y-28519120D01*
X104637840Y-30259020D02*
X102897940Y-28519120D01*
G36*
X4526578Y5825278D02*
X4170347Y4967378D01*
X4169536Y4038458D01*
X4524269Y3179937D01*
X5180542Y2522518D01*
X6038442Y2166287D01*
X6967362Y2165476D01*
X7825883Y2520209D01*
X8483302Y3176482D01*
X8839533Y4034382D01*
X8839829Y4373880D01*
X10469040Y4373880D01*
X10469040Y3973880D01*
X10634486Y3396128D01*
X11008434Y2925668D01*
X11533954Y2634124D01*
X11639300Y2609844D01*
X11877040Y2730502D01*
X11877040Y4373880D01*
X10469040Y4373880D01*
X8839829Y4373880D01*
X8840344Y4963302D01*
X8485611Y5821823D01*
X7992732Y6315563D01*
X11440090Y6315563D01*
X11008434Y6076092D01*
X10634486Y5605632D01*
X10469040Y5027880D01*
X10469040Y4627880D01*
X11877040Y4627880D01*
X11877040Y4647880D01*
X12131040Y4647880D01*
X12131040Y4627880D01*
X12151040Y4627880D01*
X12151040Y4373880D01*
X12131040Y4373880D01*
X12131040Y2730502D01*
X12368780Y2609844D01*
X12474126Y2634124D01*
X12999646Y2925668D01*
X13267848Y3263090D01*
X13458631Y2977562D01*
X13956621Y2644816D01*
X14544040Y2527971D01*
X15131459Y2644816D01*
X15629449Y2977562D01*
X15814040Y3253822D01*
X15998631Y2977562D01*
X16496621Y2644816D01*
X17084040Y2527971D01*
X17671459Y2644816D01*
X18169449Y2977562D01*
X18354040Y3253822D01*
X18538631Y2977562D01*
X19036621Y2644816D01*
X19624040Y2527971D01*
X20211459Y2644816D01*
X20709449Y2977562D01*
X20894040Y3253822D01*
X21078631Y2977562D01*
X21576621Y2644816D01*
X22164040Y2527971D01*
X22751459Y2644816D01*
X23249449Y2977562D01*
X23434040Y3253822D01*
X23618631Y2977562D01*
X24116621Y2644816D01*
X24704040Y2527971D01*
X25291459Y2644816D01*
X25789449Y2977562D01*
X25980232Y3263090D01*
X26248434Y2925668D01*
X26773954Y2634124D01*
X26879300Y2609844D01*
X27117040Y2730502D01*
X27117040Y4373880D01*
X27371040Y4373880D01*
X27371040Y2730502D01*
X27608780Y2609844D01*
X27714126Y2634124D01*
X28239646Y2925668D01*
X28514040Y3270880D01*
X28788434Y2925668D01*
X29313954Y2634124D01*
X29419300Y2609844D01*
X29657040Y2730502D01*
X29657040Y4373880D01*
X29911040Y4373880D01*
X29911040Y2730502D01*
X30148780Y2609844D01*
X30254126Y2634124D01*
X30779646Y2925668D01*
X31054040Y3270880D01*
X31328434Y2925668D01*
X31853954Y2634124D01*
X31959300Y2609844D01*
X32197040Y2730502D01*
X32197040Y4373880D01*
X32451040Y4373880D01*
X32451040Y2730502D01*
X32688780Y2609844D01*
X32794126Y2634124D01*
X33319646Y2925668D01*
X33594040Y3270880D01*
X33868434Y2925668D01*
X34393954Y2634124D01*
X34499300Y2609844D01*
X34737040Y2730502D01*
X34737040Y4373880D01*
X32451040Y4373880D01*
X32197040Y4373880D01*
X29911040Y4373880D01*
X29657040Y4373880D01*
X27371040Y4373880D01*
X27117040Y4373880D01*
X27097040Y4373880D01*
X27097040Y4627880D01*
X27117040Y4627880D01*
X27117040Y4647880D01*
X27371040Y4647880D01*
X27371040Y4627880D01*
X29657040Y4627880D01*
X29657040Y4647880D01*
X29911040Y4647880D01*
X29911040Y4627880D01*
X32197040Y4627880D01*
X32197040Y4647880D01*
X32451040Y4647880D01*
X32451040Y4627880D01*
X34737040Y4627880D01*
X34737040Y4647880D01*
X34991040Y4647880D01*
X34991040Y4627880D01*
X35011040Y4627880D01*
X35011040Y4373880D01*
X34991040Y4373880D01*
X34991040Y2730502D01*
X35228780Y2609844D01*
X35334126Y2634124D01*
X35859646Y2925668D01*
X36127848Y3263090D01*
X36318631Y2977562D01*
X36816621Y2644816D01*
X37404040Y2527971D01*
X37991459Y2644816D01*
X38489449Y2977562D01*
X38674040Y3253822D01*
X38858631Y2977562D01*
X39356621Y2644816D01*
X39944040Y2527971D01*
X40531459Y2644816D01*
X41029449Y2977562D01*
X41214040Y3253822D01*
X41398631Y2977562D01*
X41896621Y2644816D01*
X42484040Y2527971D01*
X43071459Y2644816D01*
X43569449Y2977562D01*
X43754040Y3253822D01*
X43938631Y2977562D01*
X44436621Y2644816D01*
X45024040Y2527971D01*
X45611459Y2644816D01*
X46109449Y2977562D01*
X46294040Y3253822D01*
X46478631Y2977562D01*
X46976621Y2644816D01*
X47564040Y2527971D01*
X48151459Y2644816D01*
X48649449Y2977562D01*
X48834040Y3253822D01*
X49018631Y2977562D01*
X49516621Y2644816D01*
X50104040Y2527971D01*
X50691459Y2644816D01*
X51189449Y2977562D01*
X51522195Y3475552D01*
X51639040Y4062971D01*
X51639040Y4938789D01*
X51522195Y5526208D01*
X51189449Y6024198D01*
X50753390Y6315563D01*
X80016299Y6315563D01*
X79525158Y5825278D01*
X79168927Y4967378D01*
X79168116Y4038458D01*
X79522849Y3179937D01*
X80179122Y2522518D01*
X81037022Y2166287D01*
X81965942Y2165476D01*
X82824463Y2520209D01*
X83481882Y3176482D01*
X83555442Y3353634D01*
X83555442Y-3002280D01*
X83607585Y-3264418D01*
X83756074Y-3486648D01*
X83978304Y-3635137D01*
X84240442Y-3687280D01*
X85240534Y-3687280D01*
X85502672Y-3635137D01*
X85724902Y-3486648D01*
X85832591Y-3325480D01*
X85896899Y-3481117D01*
X86342377Y-3927374D01*
X86924721Y-4169184D01*
X87555273Y-4169735D01*
X88138037Y-3928941D01*
X88584294Y-3483463D01*
X88826104Y-2901119D01*
X88826106Y-2898353D01*
X93156105Y-2898353D01*
X93396899Y-3481117D01*
X93842377Y-3927374D01*
X94424721Y-4169184D01*
X95055273Y-4169735D01*
X95638037Y-3928941D01*
X95651291Y-3915710D01*
X101658575Y-3915710D01*
X102450900Y-4708035D01*
X103243225Y-3915710D01*
X103175165Y-3674709D01*
X102655866Y-3489873D01*
X102105362Y-3517835D01*
X101726635Y-3674709D01*
X101658575Y-3915710D01*
X95651291Y-3915710D01*
X96084294Y-3483463D01*
X96326104Y-2901119D01*
X96326655Y-2270567D01*
X96085861Y-1687803D01*
X95640383Y-1241546D01*
X95058039Y-999736D01*
X94427487Y-999185D01*
X93844723Y-1239979D01*
X93398466Y-1685457D01*
X93156656Y-2267801D01*
X93156105Y-2898353D01*
X88826106Y-2898353D01*
X88826655Y-2270567D01*
X88585861Y-1687803D01*
X88140383Y-1241546D01*
X87558039Y-999736D01*
X86927487Y-999185D01*
X86344723Y-1239979D01*
X85925534Y-1658436D01*
X85925534Y1490198D01*
X86342377Y1072626D01*
X86924721Y830816D01*
X87555273Y830265D01*
X88138037Y1071059D01*
X88584294Y1516537D01*
X88826104Y2098881D01*
X88826106Y2101647D01*
X93156105Y2101647D01*
X93396899Y1518883D01*
X93842377Y1072626D01*
X94424721Y830816D01*
X95055273Y830265D01*
X95489873Y1009839D01*
X97401984Y1009839D01*
X97749122Y169702D01*
X98391341Y-473639D01*
X99230871Y-822243D01*
X100139901Y-823036D01*
X100980038Y-475898D01*
X101623379Y166321D01*
X101971983Y1005851D01*
X101971995Y1019741D01*
X109321413Y1019741D01*
X109660955Y197988D01*
X110289121Y-431276D01*
X111110281Y-772251D01*
X111999419Y-773027D01*
X112821172Y-433485D01*
X113450436Y194681D01*
X113765715Y953959D01*
X126543404Y953959D01*
X126890542Y113822D01*
X127532761Y-529519D01*
X128372291Y-878123D01*
X129281321Y-878916D01*
X130121458Y-531778D01*
X130764799Y110441D01*
X131113403Y949971D01*
X131113415Y963861D01*
X138462833Y963861D01*
X138802375Y142108D01*
X139430541Y-487156D01*
X140251701Y-828131D01*
X141140839Y-828907D01*
X141962592Y-489365D01*
X142591856Y138801D01*
X142932831Y959961D01*
X142933607Y1849099D01*
X142830306Y2099107D01*
X144076105Y2099107D01*
X144316899Y1516343D01*
X144762377Y1070086D01*
X145344721Y828276D01*
X145975273Y827725D01*
X146558037Y1068519D01*
X147004294Y1513997D01*
X147246104Y2096341D01*
X147246655Y2726893D01*
X147005861Y3309657D01*
X146560383Y3755914D01*
X145978039Y3997724D01*
X145347487Y3998275D01*
X144764723Y3757481D01*
X144318466Y3312003D01*
X144076656Y2729659D01*
X144076105Y2099107D01*
X142830306Y2099107D01*
X142594065Y2670852D01*
X141965899Y3300116D01*
X141144739Y3641091D01*
X140255601Y3641867D01*
X139433848Y3302325D01*
X138804584Y2674159D01*
X138463609Y1852999D01*
X138462833Y963861D01*
X131113415Y963861D01*
X131114196Y1859001D01*
X130767058Y2699138D01*
X130124839Y3342479D01*
X129285309Y3691083D01*
X128376279Y3691876D01*
X127536142Y3344738D01*
X126892801Y2702519D01*
X126544197Y1862989D01*
X126543404Y953959D01*
X113765715Y953959D01*
X113791411Y1015841D01*
X113792187Y1904979D01*
X113665779Y2210910D01*
X116908392Y2210910D01*
X117073162Y1812137D01*
X117377993Y1506774D01*
X117776477Y1341309D01*
X118207950Y1340932D01*
X118606723Y1505702D01*
X118912086Y1810533D01*
X119077551Y2209017D01*
X119077552Y2210910D01*
X121307672Y2210910D01*
X121472442Y1812137D01*
X121777273Y1506774D01*
X122175757Y1341309D01*
X122607230Y1340932D01*
X123006003Y1505702D01*
X123311366Y1810533D01*
X123476831Y2209017D01*
X123477208Y2640490D01*
X123312438Y3039263D01*
X123007607Y3344626D01*
X122609123Y3510091D01*
X122177650Y3510468D01*
X121778877Y3345698D01*
X121473514Y3040867D01*
X121308049Y2642383D01*
X121307672Y2210910D01*
X119077552Y2210910D01*
X119077928Y2640490D01*
X118913158Y3039263D01*
X118608327Y3344626D01*
X118209843Y3510091D01*
X117778370Y3510468D01*
X117379597Y3345698D01*
X117074234Y3040867D01*
X116908769Y2642383D01*
X116908392Y2210910D01*
X113665779Y2210910D01*
X113452645Y2726732D01*
X112824479Y3355996D01*
X112003319Y3696971D01*
X111114181Y3697747D01*
X110292428Y3358205D01*
X109663164Y2730039D01*
X109322189Y1908879D01*
X109321413Y1019741D01*
X101971995Y1019741D01*
X101972776Y1914881D01*
X101625638Y2755018D01*
X100983419Y3398359D01*
X100143889Y3746963D01*
X99234859Y3747756D01*
X98394722Y3400618D01*
X97751381Y2758399D01*
X97402777Y1918869D01*
X97401984Y1009839D01*
X95489873Y1009839D01*
X95638037Y1071059D01*
X96084294Y1516537D01*
X96326104Y2098881D01*
X96326655Y2729433D01*
X96085861Y3312197D01*
X95640383Y3758454D01*
X95058039Y4000264D01*
X94427487Y4000815D01*
X93844723Y3760021D01*
X93398466Y3314543D01*
X93156656Y2732199D01*
X93156105Y2101647D01*
X88826106Y2101647D01*
X88826655Y2729433D01*
X88585861Y3312197D01*
X88140383Y3758454D01*
X87558039Y4000264D01*
X86927487Y4000815D01*
X86344723Y3760021D01*
X85925534Y3341564D01*
X85925534Y6312054D01*
X154475536Y6312054D01*
X154475536Y3342575D01*
X154060383Y3758454D01*
X153478039Y4000264D01*
X152847487Y4000815D01*
X152264723Y3760021D01*
X151818466Y3314543D01*
X151576656Y2732199D01*
X151576105Y2101647D01*
X151816899Y1518883D01*
X152262377Y1072626D01*
X152844721Y830816D01*
X153475273Y830265D01*
X154058037Y1071059D01*
X154475536Y1487829D01*
X154475536Y-1657425D01*
X154060383Y-1241546D01*
X153478039Y-999736D01*
X152847487Y-999185D01*
X152264723Y-1239979D01*
X151818466Y-1685457D01*
X151576656Y-2267801D01*
X151576105Y-2898353D01*
X151816899Y-3481117D01*
X152262377Y-3927374D01*
X152844721Y-4169184D01*
X153475273Y-4169735D01*
X154058037Y-3928941D01*
X154504294Y-3483463D01*
X154569352Y-3326786D01*
X154676168Y-3486648D01*
X154898398Y-3635137D01*
X155160536Y-3687280D01*
X156160442Y-3687280D01*
X156422580Y-3635137D01*
X156644810Y-3486648D01*
X156793299Y-3264418D01*
X156845442Y-3002280D01*
X156845442Y-462422D01*
X238065436Y-462422D01*
X238420169Y-1320943D01*
X239076442Y-1978362D01*
X239934342Y-2334593D01*
X240863262Y-2335404D01*
X241721783Y-1980671D01*
X242379202Y-1324398D01*
X242735433Y-466498D01*
X242736244Y462422D01*
X242381511Y1320943D01*
X241725238Y1978362D01*
X240867338Y2334593D01*
X239938418Y2335404D01*
X239079897Y1980671D01*
X238422478Y1324398D01*
X238066247Y466498D01*
X238065436Y-462422D01*
X156845442Y-462422D01*
X156845442Y3370713D01*
X156924269Y3179937D01*
X157580542Y2522518D01*
X158438442Y2166287D01*
X159367362Y2165476D01*
X160225883Y2520209D01*
X160883302Y3176482D01*
X161239533Y4034382D01*
X161239829Y4373880D01*
X162869040Y4373880D01*
X162869040Y3973880D01*
X163034486Y3396128D01*
X163408434Y2925668D01*
X163933954Y2634124D01*
X164039300Y2609844D01*
X164277040Y2730502D01*
X164277040Y4373880D01*
X162869040Y4373880D01*
X161239829Y4373880D01*
X161240344Y4963302D01*
X160885611Y5821823D01*
X160392732Y6315563D01*
X163840090Y6315563D01*
X163408434Y6076092D01*
X163034486Y5605632D01*
X162869040Y5027880D01*
X162869040Y4627880D01*
X164277040Y4627880D01*
X164277040Y4647880D01*
X164531040Y4647880D01*
X164531040Y4627880D01*
X164551040Y4627880D01*
X164551040Y4373880D01*
X164531040Y4373880D01*
X164531040Y2730502D01*
X164768780Y2609844D01*
X164874126Y2634124D01*
X165399646Y2925668D01*
X165667848Y3263090D01*
X165858631Y2977562D01*
X166356621Y2644816D01*
X166944040Y2527971D01*
X167531459Y2644816D01*
X168029449Y2977562D01*
X168214040Y3253822D01*
X168398631Y2977562D01*
X168896621Y2644816D01*
X169484040Y2527971D01*
X170071459Y2644816D01*
X170569449Y2977562D01*
X170754040Y3253822D01*
X170938631Y2977562D01*
X171436621Y2644816D01*
X172024040Y2527971D01*
X172611459Y2644816D01*
X173109449Y2977562D01*
X173294040Y3253822D01*
X173478631Y2977562D01*
X173976621Y2644816D01*
X174564040Y2527971D01*
X175151459Y2644816D01*
X175649449Y2977562D01*
X175834040Y3253822D01*
X176018631Y2977562D01*
X176516621Y2644816D01*
X177104040Y2527971D01*
X177691459Y2644816D01*
X178189449Y2977562D01*
X178380232Y3263090D01*
X178648434Y2925668D01*
X179173954Y2634124D01*
X179279300Y2609844D01*
X179517040Y2730502D01*
X179517040Y4373880D01*
X179771040Y4373880D01*
X179771040Y2730502D01*
X180008780Y2609844D01*
X180114126Y2634124D01*
X180639646Y2925668D01*
X180914040Y3270880D01*
X181188434Y2925668D01*
X181713954Y2634124D01*
X181819300Y2609844D01*
X182057040Y2730502D01*
X182057040Y4373880D01*
X182311040Y4373880D01*
X182311040Y2730502D01*
X182548780Y2609844D01*
X182654126Y2634124D01*
X183179646Y2925668D01*
X183454040Y3270880D01*
X183728434Y2925668D01*
X184253954Y2634124D01*
X184359300Y2609844D01*
X184597040Y2730502D01*
X184597040Y4373880D01*
X184851040Y4373880D01*
X184851040Y2730502D01*
X185088780Y2609844D01*
X185194126Y2634124D01*
X185719646Y2925668D01*
X185994040Y3270880D01*
X186268434Y2925668D01*
X186793954Y2634124D01*
X186899300Y2609844D01*
X187137040Y2730502D01*
X187137040Y4373880D01*
X184851040Y4373880D01*
X184597040Y4373880D01*
X182311040Y4373880D01*
X182057040Y4373880D01*
X179771040Y4373880D01*
X179517040Y4373880D01*
X179497040Y4373880D01*
X179497040Y4627880D01*
X179517040Y4627880D01*
X179517040Y4647880D01*
X179771040Y4647880D01*
X179771040Y4627880D01*
X182057040Y4627880D01*
X182057040Y4647880D01*
X182311040Y4647880D01*
X182311040Y4627880D01*
X184597040Y4627880D01*
X184597040Y4647880D01*
X184851040Y4647880D01*
X184851040Y4627880D01*
X187137040Y4627880D01*
X187137040Y4647880D01*
X187391040Y4647880D01*
X187391040Y4627880D01*
X187411040Y4627880D01*
X187411040Y4373880D01*
X187391040Y4373880D01*
X187391040Y2730502D01*
X187628780Y2609844D01*
X187734126Y2634124D01*
X188259646Y2925668D01*
X188527848Y3263090D01*
X188718631Y2977562D01*
X189216621Y2644816D01*
X189804040Y2527971D01*
X190391459Y2644816D01*
X190889449Y2977562D01*
X191074040Y3253822D01*
X191258631Y2977562D01*
X191756621Y2644816D01*
X192344040Y2527971D01*
X192931459Y2644816D01*
X193429449Y2977562D01*
X193614040Y3253822D01*
X193798631Y2977562D01*
X194296621Y2644816D01*
X194884040Y2527971D01*
X195471459Y2644816D01*
X195969449Y2977562D01*
X196154040Y3253822D01*
X196338631Y2977562D01*
X196836621Y2644816D01*
X197424040Y2527971D01*
X198011459Y2644816D01*
X198509449Y2977562D01*
X198694040Y3253822D01*
X198878631Y2977562D01*
X199376621Y2644816D01*
X199964040Y2527971D01*
X200551459Y2644816D01*
X201049449Y2977562D01*
X201234040Y3253822D01*
X201418631Y2977562D01*
X201916621Y2644816D01*
X202504040Y2527971D01*
X203091459Y2644816D01*
X203589449Y2977562D01*
X203922195Y3475552D01*
X204039040Y4062971D01*
X204039040Y4938789D01*
X203922195Y5526208D01*
X203589449Y6024198D01*
X203153390Y6315563D01*
X232416299Y6315563D01*
X231925158Y5825278D01*
X231568927Y4967378D01*
X231568116Y4038458D01*
X231922849Y3179937D01*
X232579122Y2522518D01*
X233437022Y2166287D01*
X234365942Y2165476D01*
X235224463Y2520209D01*
X235881882Y3176482D01*
X236238113Y4034382D01*
X236238924Y4963302D01*
X235884191Y5821823D01*
X235391312Y6315563D01*
X244215444Y6315563D01*
X244215444Y-50810040D01*
X-3814561Y-50810040D01*
X-3814561Y-47957882D01*
X-2332864Y-47957882D01*
X-1978131Y-48816403D01*
X-1321858Y-49473822D01*
X-463958Y-49830053D01*
X464962Y-49830864D01*
X1323483Y-49476131D01*
X1980902Y-48819858D01*
X2337133Y-47961958D01*
X2337136Y-47957882D01*
X238065436Y-47957882D01*
X238420169Y-48816403D01*
X239076442Y-49473822D01*
X239934342Y-49830053D01*
X240863262Y-49830864D01*
X241721783Y-49476131D01*
X242379202Y-48819858D01*
X242735433Y-47961958D01*
X242736244Y-47033038D01*
X242381511Y-46174517D01*
X241725238Y-45517098D01*
X240867338Y-45160867D01*
X239938418Y-45160056D01*
X239079897Y-45514789D01*
X238422478Y-46171062D01*
X238066247Y-47028962D01*
X238065436Y-47957882D01*
X2337136Y-47957882D01*
X2337944Y-47033038D01*
X1983211Y-46174517D01*
X1326938Y-45517098D01*
X989400Y-45376940D01*
X128905665Y-45376940D01*
X129059104Y-45748292D01*
X129342974Y-46032657D01*
X129714057Y-46186744D01*
X130115860Y-46187095D01*
X130487212Y-46033656D01*
X130508485Y-46012420D01*
X157102790Y-46012420D01*
X157132974Y-46042657D01*
X157504057Y-46196744D01*
X157905860Y-46197095D01*
X158277212Y-46043656D01*
X158561577Y-45759786D01*
X158715664Y-45388703D01*
X158716015Y-44986900D01*
X158562576Y-44615548D01*
X158278706Y-44331183D01*
X157907623Y-44177096D01*
X157505820Y-44176745D01*
X157134468Y-44330184D01*
X157103178Y-44361420D01*
X130528873Y-44361420D01*
X130488706Y-44321183D01*
X130117623Y-44167096D01*
X129715820Y-44166745D01*
X129344468Y-44320184D01*
X129060103Y-44604054D01*
X128906016Y-44975137D01*
X128905665Y-45376940D01*
X989400Y-45376940D01*
X469038Y-45160867D01*
X-459882Y-45160056D01*
X-1318403Y-45514789D01*
X-1975822Y-46171062D01*
X-2332053Y-47028962D01*
X-2332864Y-47957882D01*
X-3814561Y-47957882D01*
X-3814561Y-39885620D01*
X34412180Y-39885620D01*
X34412180Y-41917620D01*
X34461463Y-42165385D01*
X34601811Y-42375429D01*
X34811855Y-42515777D01*
X35059620Y-42565060D01*
X37091620Y-42565060D01*
X37339385Y-42515777D01*
X37549429Y-42375429D01*
X37654282Y-42218507D01*
X37750802Y-42308005D01*
X38232676Y-42507595D01*
X38488620Y-42388456D01*
X38488620Y-41028620D01*
X38742620Y-41028620D01*
X38742620Y-42388456D01*
X38998564Y-42507595D01*
X39480438Y-42308005D01*
X39952808Y-41869999D01*
X40221603Y-41284566D01*
X40102987Y-41028620D01*
X38742620Y-41028620D01*
X38488620Y-41028620D01*
X38468620Y-41028620D01*
X38468620Y-40774620D01*
X38488620Y-40774620D01*
X38488620Y-39414784D01*
X38742620Y-39414784D01*
X38742620Y-40774620D01*
X40102987Y-40774620D01*
X40221603Y-40518674D01*
X39952808Y-39933241D01*
X39901451Y-39885620D01*
X43373300Y-39885620D01*
X43373300Y-41917620D01*
X43422583Y-42165385D01*
X43562931Y-42375429D01*
X43772975Y-42515777D01*
X44020740Y-42565060D01*
X46052740Y-42565060D01*
X46300505Y-42515777D01*
X46510549Y-42375429D01*
X46615402Y-42218507D01*
X46711922Y-42308005D01*
X47193796Y-42507595D01*
X47449740Y-42388456D01*
X47449740Y-41028620D01*
X47703740Y-41028620D01*
X47703740Y-42388456D01*
X47959684Y-42507595D01*
X48441558Y-42308005D01*
X48913928Y-41869999D01*
X49182723Y-41284566D01*
X49064107Y-41028620D01*
X47703740Y-41028620D01*
X47449740Y-41028620D01*
X47429740Y-41028620D01*
X47429740Y-40774620D01*
X47449740Y-40774620D01*
X47449740Y-39414784D01*
X47703740Y-39414784D01*
X47703740Y-40774620D01*
X49064107Y-40774620D01*
X49182723Y-40518674D01*
X48913928Y-39933241D01*
X48441558Y-39495235D01*
X47959684Y-39295645D01*
X47703740Y-39414784D01*
X47449740Y-39414784D01*
X47193796Y-39295645D01*
X46711922Y-39495235D01*
X46615402Y-39584733D01*
X46510549Y-39427811D01*
X46300505Y-39287463D01*
X46052740Y-39238180D01*
X44020740Y-39238180D01*
X43772975Y-39287463D01*
X43562931Y-39427811D01*
X43422583Y-39637855D01*
X43373300Y-39885620D01*
X39901451Y-39885620D01*
X39480438Y-39495235D01*
X38998564Y-39295645D01*
X38742620Y-39414784D01*
X38488620Y-39414784D01*
X38232676Y-39295645D01*
X37750802Y-39495235D01*
X37654282Y-39584733D01*
X37549429Y-39427811D01*
X37339385Y-39287463D01*
X37091620Y-39238180D01*
X35059620Y-39238180D01*
X34811855Y-39287463D01*
X34601811Y-39427811D01*
X34461463Y-39637855D01*
X34412180Y-39885620D01*
X-3814561Y-39885620D01*
X-3814561Y-35232087D01*
X-1732722Y-35232087D01*
X-1590677Y-35575863D01*
X-1559560Y-35607034D01*
X-1559560Y-35872420D01*
X-1507145Y-36135930D01*
X-1589752Y-36218393D01*
X-1732398Y-36561921D01*
X-1732722Y-36933887D01*
X-1590677Y-37277663D01*
X-1327887Y-37540912D01*
X-1186580Y-37599588D01*
X-1326503Y-37657403D01*
X-1589752Y-37920193D01*
X-1732398Y-38263721D01*
X-1732722Y-38635687D01*
X-1590677Y-38979463D01*
X-1327887Y-39242712D01*
X-984359Y-39385358D01*
X-612393Y-39385682D01*
X-268617Y-39243637D01*
X-237446Y-39212520D01*
X89491358Y-39212520D01*
X89401002Y-39430121D01*
X89400678Y-39802087D01*
X89542723Y-40145863D01*
X89756138Y-40359651D01*
X89697088Y-40384049D01*
X89294311Y-40216802D01*
X88832834Y-40216399D01*
X88406331Y-40392626D01*
X88079733Y-40718655D01*
X87902762Y-41144849D01*
X87902359Y-41606326D01*
X87984812Y-41805877D01*
X87939403Y-41873835D01*
X87890120Y-42121600D01*
X87890120Y-43171600D01*
X87939403Y-43419365D01*
X88079751Y-43629409D01*
X88289795Y-43769757D01*
X88537560Y-43819040D01*
X89587560Y-43819040D01*
X89835325Y-43769757D01*
X89901562Y-43725499D01*
X90181545Y-43819646D01*
X90641946Y-43788143D01*
X90920985Y-43672562D01*
X90958354Y-43470414D01*
X90967560Y-43461208D01*
X90976766Y-43470414D01*
X91014135Y-43672562D01*
X91451545Y-43819646D01*
X91911946Y-43788143D01*
X92190985Y-43672562D01*
X92201405Y-43616194D01*
X92214615Y-43629427D01*
X92640809Y-43806398D01*
X93102286Y-43806801D01*
X93528789Y-43630574D01*
X93543634Y-43615755D01*
X93554135Y-43672562D01*
X93991545Y-43819646D01*
X94451946Y-43788143D01*
X94730985Y-43672562D01*
X94771227Y-43454873D01*
X94142560Y-42826205D01*
X94128418Y-42840348D01*
X94032475Y-42744405D01*
X94032646Y-42548624D01*
X94044755Y-42536515D01*
X94225002Y-42536672D01*
X94328548Y-42640218D01*
X94322165Y-42646600D01*
X94950833Y-43275267D01*
X94961606Y-43273276D01*
X95041385Y-43353055D01*
X95288595Y-43518236D01*
X95580200Y-43576240D01*
X106298520Y-43576240D01*
X106590125Y-43518236D01*
X106837335Y-43353055D01*
X107918871Y-42271520D01*
X108217251Y-42470891D01*
X108790740Y-42584965D01*
X109364229Y-42470891D01*
X109850410Y-42146035D01*
X110057201Y-41836551D01*
X110428704Y-42252352D01*
X110955949Y-42506329D01*
X110971714Y-42508978D01*
X111203740Y-42387837D01*
X111203740Y-41028620D01*
X111183740Y-41028620D01*
X111183740Y-40774620D01*
X111203740Y-40774620D01*
X111203740Y-40754620D01*
X111457740Y-40754620D01*
X111457740Y-40774620D01*
X111477740Y-40774620D01*
X111477740Y-41028620D01*
X111457740Y-41028620D01*
X111457740Y-42387837D01*
X111689766Y-42508978D01*
X111705531Y-42506329D01*
X112232776Y-42252352D01*
X112604279Y-41836551D01*
X112811070Y-42146035D01*
X113297251Y-42470891D01*
X113870740Y-42584965D01*
X114444229Y-42470891D01*
X114930410Y-42146035D01*
X115140740Y-41831254D01*
X115351070Y-42146035D01*
X115837251Y-42470891D01*
X116410740Y-42584965D01*
X116984229Y-42470891D01*
X117470410Y-42146035D01*
X117677201Y-41836551D01*
X118048704Y-42252352D01*
X118575949Y-42506329D01*
X118591714Y-42508978D01*
X118823740Y-42387837D01*
X118823740Y-41028620D01*
X118803740Y-41028620D01*
X118803740Y-40774620D01*
X118823740Y-40774620D01*
X118823740Y-40754620D01*
X119077740Y-40754620D01*
X119077740Y-40774620D01*
X119097740Y-40774620D01*
X119097740Y-41028620D01*
X119077740Y-41028620D01*
X119077740Y-42387837D01*
X119309766Y-42508978D01*
X119325531Y-42506329D01*
X119852776Y-42252352D01*
X120224279Y-41836551D01*
X120431070Y-42146035D01*
X120917251Y-42470891D01*
X121490740Y-42584965D01*
X122064229Y-42470891D01*
X122550410Y-42146035D01*
X122760740Y-41831254D01*
X122971070Y-42146035D01*
X123457251Y-42470891D01*
X124030740Y-42584965D01*
X124604229Y-42470891D01*
X125090410Y-42146035D01*
X125300740Y-41831254D01*
X125511070Y-42146035D01*
X125997251Y-42470891D01*
X126570740Y-42584965D01*
X127144229Y-42470891D01*
X127630410Y-42146035D01*
X127641756Y-42129054D01*
X127648983Y-42165385D01*
X127789331Y-42375429D01*
X127999375Y-42515777D01*
X128247140Y-42565060D01*
X129974340Y-42565060D01*
X130222105Y-42515777D01*
X130432149Y-42375429D01*
X130572497Y-42165385D01*
X130621780Y-41917620D01*
X130621780Y-40063420D01*
X186567410Y-40063420D01*
X186807100Y-40303110D01*
X186807100Y-41904920D01*
X186856383Y-42152685D01*
X186996731Y-42362729D01*
X187206775Y-42503077D01*
X187454540Y-42552360D01*
X189486540Y-42552360D01*
X189734305Y-42503077D01*
X189944349Y-42362729D01*
X190043962Y-42213648D01*
X190145722Y-42308005D01*
X190627596Y-42507595D01*
X190883540Y-42388456D01*
X190883540Y-41028620D01*
X191137540Y-41028620D01*
X191137540Y-42388456D01*
X191393484Y-42507595D01*
X191875358Y-42308005D01*
X192347728Y-41869999D01*
X192616523Y-41284566D01*
X192497907Y-41028620D01*
X191137540Y-41028620D01*
X190883540Y-41028620D01*
X190863540Y-41028620D01*
X190863540Y-40774620D01*
X190883540Y-40774620D01*
X190883540Y-40754620D01*
X191137540Y-40754620D01*
X191137540Y-40774620D01*
X192497907Y-40774620D01*
X192616523Y-40518674D01*
X192347728Y-39933241D01*
X192022443Y-39631620D01*
X195094190Y-39631620D01*
X195778380Y-40315810D01*
X195778380Y-41917620D01*
X195827663Y-42165385D01*
X195968011Y-42375429D01*
X196178055Y-42515777D01*
X196425820Y-42565060D01*
X198457820Y-42565060D01*
X198705585Y-42515777D01*
X198915629Y-42375429D01*
X199020482Y-42218507D01*
X199117002Y-42308005D01*
X199598876Y-42507595D01*
X199854820Y-42388456D01*
X199854820Y-41028620D01*
X200108820Y-41028620D01*
X200108820Y-42388456D01*
X200364764Y-42507595D01*
X200846638Y-42308005D01*
X201319008Y-41869999D01*
X201587803Y-41284566D01*
X201469187Y-41028620D01*
X200108820Y-41028620D01*
X199854820Y-41028620D01*
X199834820Y-41028620D01*
X199834820Y-40774620D01*
X199854820Y-40774620D01*
X199854820Y-39414784D01*
X200108820Y-39414784D01*
X200108820Y-40774620D01*
X201469187Y-40774620D01*
X201587803Y-40518674D01*
X201319008Y-39933241D01*
X200846638Y-39495235D01*
X200364764Y-39295645D01*
X200108820Y-39414784D01*
X199854820Y-39414784D01*
X199598876Y-39295645D01*
X199117002Y-39495235D01*
X199020482Y-39584733D01*
X198915629Y-39427811D01*
X198705585Y-39287463D01*
X198457820Y-39238180D01*
X196856010Y-39238180D01*
X196830350Y-39212520D01*
X227239434Y-39212520D01*
X227269573Y-39242712D01*
X227613101Y-39385358D01*
X227985067Y-39385682D01*
X228328843Y-39243637D01*
X228592092Y-38980847D01*
X228734738Y-38637319D01*
X228735062Y-38265353D01*
X228593017Y-37921577D01*
X228330227Y-37658328D01*
X228190187Y-37600178D01*
X228331383Y-37541837D01*
X228594632Y-37279047D01*
X228737278Y-36935519D01*
X228737602Y-36563553D01*
X228595557Y-36219777D01*
X228332767Y-35956528D01*
X228191460Y-35897852D01*
X228331383Y-35840037D01*
X228594632Y-35577247D01*
X228737278Y-35233719D01*
X228737602Y-34861753D01*
X228595557Y-34517977D01*
X228332767Y-34254728D01*
X227989239Y-34112082D01*
X227617273Y-34111758D01*
X227273497Y-34253803D01*
X227010248Y-34516593D01*
X226867602Y-34860121D01*
X226867564Y-34904166D01*
X224972210Y-36799520D01*
X152537396Y-36799520D01*
X152537602Y-36563553D01*
X152395557Y-36219777D01*
X152132767Y-35956528D01*
X151985126Y-35895222D01*
X152118683Y-35840037D01*
X152381932Y-35577247D01*
X152524578Y-35233719D01*
X152524902Y-34861753D01*
X152382857Y-34517977D01*
X152120067Y-34254728D01*
X151776539Y-34112082D01*
X151404573Y-34111758D01*
X151060797Y-34253803D01*
X150797548Y-34516593D01*
X150654902Y-34860121D01*
X150654864Y-34904166D01*
X150423210Y-35135820D01*
X150078440Y-35135820D01*
X149786835Y-35193824D01*
X149705598Y-35248105D01*
X149539625Y-35359004D01*
X149521509Y-35377120D01*
X112790884Y-35377120D01*
X112791002Y-35241753D01*
X112648957Y-34897977D01*
X112617840Y-34866806D01*
X112617840Y-34577386D01*
X112648032Y-34547247D01*
X112790678Y-34203719D01*
X112791002Y-33831753D01*
X112648957Y-33487977D01*
X112386167Y-33224728D01*
X112042639Y-33082082D01*
X111670673Y-33081758D01*
X111326897Y-33223803D01*
X111063648Y-33486593D01*
X110921002Y-33830121D01*
X110920678Y-34202087D01*
X111062723Y-34545863D01*
X111093840Y-34577034D01*
X111093840Y-34634090D01*
X110886240Y-34426490D01*
X110886240Y-33715086D01*
X110916432Y-33684947D01*
X111059078Y-33341419D01*
X111059402Y-32969453D01*
X110917357Y-32625677D01*
X110654567Y-32362428D01*
X110311039Y-32219782D01*
X109939073Y-32219458D01*
X109634966Y-32345112D01*
X109333139Y-32219782D01*
X109114299Y-32219591D01*
X110027217Y-31306674D01*
X110051113Y-31330612D01*
X110394641Y-31473258D01*
X110766607Y-31473582D01*
X111110383Y-31331537D01*
X111373632Y-31068747D01*
X111516278Y-30725219D01*
X111516341Y-30652087D01*
X117520678Y-30652087D01*
X117662723Y-30995863D01*
X117693840Y-31027034D01*
X117693840Y-32636454D01*
X117663648Y-32666593D01*
X117521002Y-33010121D01*
X117520678Y-33382087D01*
X117662723Y-33725863D01*
X117925513Y-33989112D01*
X118269041Y-34131758D01*
X118641007Y-34132082D01*
X118984783Y-33990037D01*
X119248032Y-33727247D01*
X119390678Y-33383719D01*
X119391002Y-33011753D01*
X119248957Y-32667977D01*
X119217840Y-32636806D01*
X119217840Y-32612670D01*
X137547240Y-32612670D01*
X137547240Y-33469229D01*
X137643913Y-33702618D01*
X137822541Y-33881247D01*
X138055930Y-33977920D01*
X138760090Y-33977920D01*
X138918840Y-33819170D01*
X138918840Y-32453920D01*
X137705990Y-32453920D01*
X137547240Y-32612670D01*
X119217840Y-32612670D01*
X119217840Y-31184611D01*
X137547240Y-31184611D01*
X137547240Y-32041170D01*
X137705990Y-32199920D01*
X138918840Y-32199920D01*
X138918840Y-30834670D01*
X139172840Y-30834670D01*
X139172840Y-32199920D01*
X139192840Y-32199920D01*
X139192840Y-32453920D01*
X139172840Y-32453920D01*
X139172840Y-33819170D01*
X139331590Y-33977920D01*
X140035750Y-33977920D01*
X140269139Y-33881247D01*
X140447767Y-33702618D01*
X140511340Y-33549140D01*
X140526170Y-33571335D01*
X141012351Y-33896191D01*
X141585840Y-34010265D01*
X142159329Y-33896191D01*
X142645510Y-33571335D01*
X142855840Y-33256554D01*
X143066170Y-33571335D01*
X143552351Y-33896191D01*
X144125840Y-34010265D01*
X144699329Y-33896191D01*
X145185510Y-33571335D01*
X145510366Y-33085154D01*
X145624440Y-32511665D01*
X145624440Y-32142175D01*
X145510366Y-31568686D01*
X145185510Y-31082505D01*
X144699329Y-30757649D01*
X144125840Y-30643575D01*
X143552351Y-30757649D01*
X143066170Y-31082505D01*
X142855840Y-31397286D01*
X142645510Y-31082505D01*
X142159329Y-30757649D01*
X141585840Y-30643575D01*
X141012351Y-30757649D01*
X140526170Y-31082505D01*
X140511340Y-31104700D01*
X140447767Y-30951222D01*
X140269139Y-30772593D01*
X140035750Y-30675920D01*
X139331590Y-30675920D01*
X139172840Y-30834670D01*
X138918840Y-30834670D01*
X138760090Y-30675920D01*
X138055930Y-30675920D01*
X137822541Y-30772593D01*
X137643913Y-30951222D01*
X137547240Y-31184611D01*
X119217840Y-31184611D01*
X119217840Y-31027386D01*
X119248032Y-30997247D01*
X119390678Y-30653719D01*
X119391002Y-30281753D01*
X119248957Y-29937977D01*
X118986167Y-29674728D01*
X118642639Y-29532082D01*
X118270673Y-29531758D01*
X117926897Y-29673803D01*
X117663648Y-29936593D01*
X117521002Y-30280121D01*
X117520678Y-30652087D01*
X111516341Y-30652087D01*
X111516602Y-30353253D01*
X111374557Y-30009477D01*
X111192486Y-29827088D01*
X111424432Y-29595547D01*
X111480051Y-29461602D01*
X149066376Y-29461602D01*
X149421109Y-30320123D01*
X150077382Y-30977542D01*
X150935282Y-31333773D01*
X151864202Y-31334584D01*
X152722723Y-30979851D01*
X153380142Y-30323578D01*
X153736373Y-29465678D01*
X153737184Y-28536758D01*
X153382451Y-27678237D01*
X152726178Y-27020818D01*
X151868278Y-26664587D01*
X150939358Y-26663776D01*
X150080837Y-27018509D01*
X149423418Y-27674782D01*
X149067187Y-28532682D01*
X149066376Y-29461602D01*
X111480051Y-29461602D01*
X111567078Y-29252019D01*
X111567116Y-29207974D01*
X111836170Y-28938920D01*
X147715840Y-28938920D01*
X148007445Y-28880916D01*
X148254655Y-28715735D01*
X152731471Y-24238920D01*
X158262204Y-24238920D01*
X157583997Y-24519149D01*
X156926578Y-25175422D01*
X156570347Y-26033322D01*
X156569536Y-26962242D01*
X156924269Y-27820763D01*
X157580542Y-28478182D01*
X158438442Y-28834413D01*
X159367362Y-28835224D01*
X160225883Y-28480491D01*
X160883302Y-27824218D01*
X161239533Y-26966318D01*
X161240344Y-26037398D01*
X160885611Y-25178877D01*
X160229338Y-24521458D01*
X159548911Y-24238920D01*
X189540210Y-24238920D01*
X199420715Y-34119426D01*
X199420678Y-34162087D01*
X199562723Y-34505863D01*
X199825513Y-34769112D01*
X200169041Y-34911758D01*
X200541007Y-34912082D01*
X200884783Y-34770037D01*
X201148032Y-34507247D01*
X201290678Y-34163719D01*
X201291002Y-33791753D01*
X201148957Y-33447977D01*
X200886167Y-33184728D01*
X200542639Y-33042082D01*
X200498595Y-33042044D01*
X194418793Y-26962242D01*
X231568116Y-26962242D01*
X231922849Y-27820763D01*
X232579122Y-28478182D01*
X233437022Y-28834413D01*
X234365942Y-28835224D01*
X235224463Y-28480491D01*
X235881882Y-27824218D01*
X236238113Y-26966318D01*
X236238924Y-26037398D01*
X235884191Y-25178877D01*
X235227918Y-24521458D01*
X234370018Y-24165227D01*
X233441098Y-24164416D01*
X232582577Y-24519149D01*
X231925158Y-25175422D01*
X231568927Y-26033322D01*
X231568116Y-26962242D01*
X194418793Y-26962242D01*
X190394655Y-22938105D01*
X190319578Y-22887940D01*
X190147445Y-22772924D01*
X189855840Y-22714920D01*
X178039191Y-22714920D01*
X178039202Y-22702773D01*
X177897157Y-22358997D01*
X177634367Y-22095748D01*
X177290839Y-21953102D01*
X176918873Y-21952778D01*
X176575097Y-22094823D01*
X176543926Y-22125940D01*
X175404527Y-22125940D01*
X175498878Y-21898719D01*
X175498886Y-21889720D01*
X191783574Y-21889720D01*
X191813713Y-21919912D01*
X192157241Y-22062558D01*
X192529207Y-22062882D01*
X192872983Y-21920837D01*
X193136232Y-21658047D01*
X193278878Y-21314519D01*
X193278886Y-21305520D01*
X196863574Y-21305520D01*
X196893713Y-21335712D01*
X197237241Y-21478358D01*
X197609207Y-21478682D01*
X197952983Y-21336637D01*
X198216232Y-21073847D01*
X198358878Y-20730319D01*
X198359202Y-20358353D01*
X198217157Y-20014577D01*
X197954367Y-19751328D01*
X197610839Y-19608682D01*
X197238873Y-19608358D01*
X196895097Y-19750403D01*
X196863926Y-19781520D01*
X195727691Y-19781520D01*
X195818878Y-19561919D01*
X195819202Y-19189953D01*
X195677157Y-18846177D01*
X195533251Y-18702020D01*
X199360990Y-18702020D01*
X199391174Y-18732257D01*
X199762257Y-18886344D01*
X200164060Y-18886695D01*
X200535412Y-18733256D01*
X200819777Y-18449386D01*
X200973864Y-18078303D01*
X200974215Y-17676500D01*
X200820776Y-17305148D01*
X200536906Y-17020783D01*
X200165823Y-16866696D01*
X199764020Y-16866345D01*
X199392668Y-17019784D01*
X199361378Y-17051020D01*
X167547090Y-17051020D01*
X167516906Y-17020783D01*
X167145823Y-16866696D01*
X166744020Y-16866345D01*
X166372668Y-17019784D01*
X166341378Y-17051020D01*
X156776953Y-17051020D01*
X156513639Y-16941682D01*
X156495073Y-16941666D01*
X156641702Y-16843692D01*
X156790191Y-16621462D01*
X156842334Y-16359324D01*
X156842334Y-6609080D01*
X156790191Y-6346942D01*
X156641702Y-6124712D01*
X156419472Y-5976223D01*
X156157334Y-5924080D01*
X155160536Y-5924080D01*
X154898398Y-5976223D01*
X154676168Y-6124712D01*
X154527679Y-6346942D01*
X154475536Y-6609080D01*
X154475536Y-14674485D01*
X137184236Y-14674485D01*
X137180320Y-14673706D01*
X136918182Y-14725849D01*
X136695952Y-14874338D01*
X136547463Y-15096568D01*
X136495320Y-15358706D01*
X136495320Y-16344514D01*
X136492374Y-16359324D01*
X136544517Y-16621462D01*
X136693006Y-16843692D01*
X136915236Y-16992181D01*
X137177374Y-17044324D01*
X155892476Y-17044324D01*
X155797897Y-17083403D01*
X155766726Y-17114520D01*
X152686240Y-17114520D01*
X152430852Y-17165320D01*
X152394635Y-17172524D01*
X152147425Y-17337705D01*
X146070210Y-23414920D01*
X121926306Y-23414920D01*
X121896167Y-23384728D01*
X121552639Y-23242082D01*
X121180673Y-23241758D01*
X120836897Y-23383803D01*
X120806928Y-23413720D01*
X119025108Y-23413720D01*
X118996167Y-23384728D01*
X118652639Y-23242082D01*
X118280673Y-23241758D01*
X117936897Y-23383803D01*
X117906928Y-23413720D01*
X107192206Y-23413720D01*
X107162067Y-23383528D01*
X106818539Y-23240882D01*
X106446573Y-23240558D01*
X106102797Y-23382603D01*
X105956948Y-23528198D01*
X105036955Y-22608205D01*
X105019190Y-22596335D01*
X104789745Y-22443024D01*
X104498140Y-22385020D01*
X87744971Y-22385020D01*
X82151555Y-16791605D01*
X81904345Y-16626424D01*
X81612740Y-16568420D01*
X43095306Y-16568420D01*
X43065167Y-16538228D01*
X42721639Y-16395582D01*
X42349673Y-16395258D01*
X42005897Y-16537303D01*
X41742648Y-16800093D01*
X41600002Y-17143621D01*
X41599983Y-17165320D01*
X37964506Y-17165320D01*
X37934367Y-17135128D01*
X37590839Y-16992482D01*
X37218873Y-16992158D01*
X36875097Y-17134203D01*
X36611848Y-17396993D01*
X36469202Y-17740521D01*
X36468878Y-18112487D01*
X36610923Y-18456263D01*
X36873713Y-18719512D01*
X37217241Y-18862158D01*
X37589207Y-18862482D01*
X37932983Y-18720437D01*
X37964154Y-18689320D01*
X39105662Y-18689320D01*
X39009202Y-18921621D01*
X39009194Y-18930620D01*
X22737206Y-18930620D01*
X22707067Y-18900428D01*
X22363539Y-18757782D01*
X21991573Y-18757458D01*
X21647797Y-18899503D01*
X21384548Y-19162293D01*
X21241902Y-19505821D01*
X21241883Y-19527520D01*
X20184506Y-19527520D01*
X20154367Y-19497328D01*
X19810839Y-19354682D01*
X19438873Y-19354358D01*
X19095097Y-19496403D01*
X18831848Y-19759193D01*
X18689202Y-20102721D01*
X18688878Y-20474687D01*
X18830923Y-20818463D01*
X19093713Y-21081712D01*
X19437241Y-21224358D01*
X19809207Y-21224682D01*
X20152983Y-21082637D01*
X20184154Y-21051520D01*
X23768882Y-21051520D01*
X23768878Y-21056347D01*
X23910923Y-21400123D01*
X24173713Y-21663372D01*
X24517241Y-21806018D01*
X24889207Y-21806342D01*
X25232983Y-21664297D01*
X25264154Y-21633180D01*
X81259010Y-21633180D01*
X85841505Y-26215675D01*
X86088715Y-26380856D01*
X86380320Y-26438860D01*
X97987948Y-26438860D01*
X97987678Y-26748487D01*
X98129723Y-27092263D01*
X98392513Y-27355512D01*
X98736041Y-27498158D01*
X99108007Y-27498482D01*
X99451783Y-27356437D01*
X99482954Y-27325320D01*
X102201310Y-27325320D01*
X102504240Y-27628251D01*
X102504240Y-27757120D01*
X100929440Y-27757120D01*
X100637835Y-27815124D01*
X100545357Y-27876916D01*
X100390625Y-27980304D01*
X99529635Y-28841295D01*
X99486973Y-28841258D01*
X99143197Y-28983303D01*
X99112026Y-29014420D01*
X98516440Y-29014420D01*
X98224835Y-29072424D01*
X98135983Y-29131793D01*
X97977625Y-29237604D01*
X97959509Y-29255720D01*
X95787606Y-29255720D01*
X95757467Y-29225528D01*
X95413939Y-29082882D01*
X95041973Y-29082558D01*
X94698197Y-29224603D01*
X94434948Y-29487393D01*
X94292302Y-29830921D01*
X94291978Y-30202887D01*
X94434023Y-30546663D01*
X94696813Y-30809912D01*
X95040341Y-30952558D01*
X95412307Y-30952882D01*
X95756083Y-30810837D01*
X95787254Y-30779720D01*
X98275140Y-30779720D01*
X98566745Y-30721716D01*
X98813955Y-30556535D01*
X98832070Y-30538420D01*
X99111674Y-30538420D01*
X99141813Y-30568612D01*
X99485341Y-30711258D01*
X99857307Y-30711582D01*
X100099234Y-30611620D01*
X100107013Y-30619412D01*
X100450541Y-30762058D01*
X100494586Y-30762096D01*
X100817010Y-31084520D01*
X94786240Y-31084520D01*
X94494635Y-31142524D01*
X94318765Y-31260037D01*
X94247425Y-31307705D01*
X92830210Y-32724920D01*
X73715840Y-32724920D01*
X73444199Y-32778953D01*
X73424235Y-32782924D01*
X73177024Y-32948105D01*
X71100210Y-35024920D01*
X50271470Y-35024920D01*
X50090965Y-34844415D01*
X50091002Y-34801753D01*
X49948957Y-34457977D01*
X49686167Y-34194728D01*
X49342639Y-34052082D01*
X48970673Y-34051758D01*
X48626897Y-34193803D01*
X48363648Y-34456593D01*
X48221002Y-34800121D01*
X48220678Y-35172087D01*
X48362723Y-35515863D01*
X48503135Y-35656520D01*
X36637904Y-35656520D01*
X36606167Y-35624728D01*
X36262639Y-35482082D01*
X35890673Y-35481758D01*
X35546897Y-35623803D01*
X35283648Y-35886593D01*
X35141002Y-36230121D01*
X35140678Y-36602087D01*
X35232750Y-36824920D01*
X1232570Y-36824920D01*
X-10240Y-35582110D01*
X-5368Y-35577247D01*
X137278Y-35233719D01*
X137602Y-34861753D01*
X-4443Y-34517977D01*
X-267233Y-34254728D01*
X-610761Y-34112082D01*
X-982727Y-34111758D01*
X-1326503Y-34253803D01*
X-1589752Y-34516593D01*
X-1732398Y-34860121D01*
X-1732722Y-35232087D01*
X-3814561Y-35232087D01*
X-3814561Y-29461602D01*
X86666196Y-29461602D01*
X87020929Y-30320123D01*
X87677202Y-30977542D01*
X88535102Y-31333773D01*
X89464022Y-31334584D01*
X90322543Y-30979851D01*
X90979962Y-30323578D01*
X91336193Y-29465678D01*
X91337004Y-28536758D01*
X90982271Y-27678237D01*
X90325998Y-27020818D01*
X89468098Y-26664587D01*
X88539178Y-26663776D01*
X87680657Y-27018509D01*
X87023238Y-27674782D01*
X86667007Y-28532682D01*
X86666196Y-29461602D01*
X-3814561Y-29461602D01*
X-3814561Y-26962242D01*
X4169536Y-26962242D01*
X4524269Y-27820763D01*
X5180542Y-28478182D01*
X6038442Y-28834413D01*
X6967362Y-28835224D01*
X7825883Y-28480491D01*
X8483302Y-27824218D01*
X8839533Y-26966318D01*
X8839536Y-26962242D01*
X79168116Y-26962242D01*
X79522849Y-27820763D01*
X80179122Y-28478182D01*
X81037022Y-28834413D01*
X81965942Y-28835224D01*
X82824463Y-28480491D01*
X83481882Y-27824218D01*
X83838113Y-26966318D01*
X83838924Y-26037398D01*
X83484191Y-25178877D01*
X82827918Y-24521458D01*
X81970018Y-24165227D01*
X81041098Y-24164416D01*
X80182577Y-24519149D01*
X79525158Y-25175422D01*
X79168927Y-26033322D01*
X79168116Y-26962242D01*
X8839536Y-26962242D01*
X8840344Y-26037398D01*
X8485611Y-25178877D01*
X7829338Y-24521458D01*
X6971438Y-24165227D01*
X6042518Y-24164416D01*
X5183997Y-24519149D01*
X4526578Y-25175422D01*
X4170347Y-26033322D01*
X4169536Y-26962242D01*
X-3814561Y-26962242D01*
X-3814561Y-6786240D01*
X2992865Y-6786240D01*
X3146304Y-7157592D01*
X3430174Y-7441957D01*
X3801257Y-7596044D01*
X4203060Y-7596395D01*
X4574412Y-7442956D01*
X4605702Y-7411720D01*
X13940990Y-7411720D01*
X13971174Y-7441957D01*
X14342257Y-7596044D01*
X14744060Y-7596395D01*
X15115412Y-7442956D01*
X15146702Y-7411720D01*
X46960990Y-7411720D01*
X46991174Y-7441957D01*
X47362257Y-7596044D01*
X47764060Y-7596395D01*
X48135412Y-7442956D01*
X48419777Y-7159086D01*
X48573864Y-6788003D01*
X48574020Y-6609080D01*
X83555442Y-6609080D01*
X83555442Y-16359324D01*
X83607585Y-16621462D01*
X83756074Y-16843692D01*
X83978304Y-16992181D01*
X84240442Y-17044324D01*
X84240501Y-17044312D01*
X84240560Y-17044324D01*
X103220520Y-17044324D01*
X103482658Y-16992181D01*
X103704888Y-16843692D01*
X103853377Y-16621462D01*
X103905520Y-16359324D01*
X103905468Y-16359061D01*
X103905520Y-16358798D01*
X103905520Y-15561422D01*
X104226983Y-15428597D01*
X104258154Y-15397480D01*
X105177880Y-15397480D01*
X105177880Y-16358798D01*
X105230023Y-16620936D01*
X105378512Y-16843166D01*
X105600742Y-16991655D01*
X105862880Y-17043798D01*
X134537960Y-17043798D01*
X134800098Y-16991655D01*
X135022328Y-16843166D01*
X135170817Y-16620936D01*
X135222960Y-16358798D01*
X135222960Y-15358706D01*
X135170817Y-15096568D01*
X135022328Y-14874338D01*
X134800098Y-14725849D01*
X134537960Y-14673706D01*
X120913043Y-14673706D01*
X121010392Y-14576527D01*
X121153038Y-14232999D01*
X121153200Y-14046950D01*
X121478040Y-14111565D01*
X122051529Y-13997491D01*
X122537710Y-13672635D01*
X122748040Y-13357854D01*
X122958370Y-13672635D01*
X123444551Y-13997491D01*
X124018040Y-14111565D01*
X124591529Y-13997491D01*
X125077710Y-13672635D01*
X125288040Y-13357854D01*
X125498370Y-13672635D01*
X125984551Y-13997491D01*
X126558040Y-14111565D01*
X127131529Y-13997491D01*
X127617710Y-13672635D01*
X127629056Y-13655654D01*
X127636283Y-13691985D01*
X127776631Y-13902029D01*
X127986675Y-14042377D01*
X128234440Y-14091660D01*
X129961640Y-14091660D01*
X130209405Y-14042377D01*
X130419449Y-13902029D01*
X130559797Y-13691985D01*
X130609080Y-13444220D01*
X130609080Y-11663680D01*
X132301854Y-11663680D01*
X132331993Y-11693872D01*
X132675521Y-11836518D01*
X133047487Y-11836842D01*
X133391263Y-11694797D01*
X133654512Y-11432007D01*
X133797158Y-11088479D01*
X133797312Y-10911840D01*
X136111854Y-10911840D01*
X136141993Y-10942032D01*
X136485521Y-11084678D01*
X136857487Y-11085002D01*
X137201263Y-10942957D01*
X137464512Y-10680167D01*
X137607158Y-10336639D01*
X137607215Y-10271256D01*
X137755521Y-10332838D01*
X138127487Y-10333162D01*
X138471263Y-10191117D01*
X138734512Y-9928327D01*
X138877158Y-9584799D01*
X138877209Y-9526602D01*
X139020441Y-9586078D01*
X139392407Y-9586402D01*
X139736183Y-9444357D01*
X139774988Y-9405620D01*
X140170774Y-9405620D01*
X140200913Y-9435812D01*
X140544441Y-9578458D01*
X140916407Y-9578782D01*
X141260183Y-9436737D01*
X141523432Y-9173947D01*
X141666078Y-8830419D01*
X141666402Y-8458453D01*
X141524357Y-8114677D01*
X141261567Y-7851428D01*
X140918039Y-7708782D01*
X140546073Y-7708458D01*
X140202297Y-7850503D01*
X140171126Y-7881620D01*
X139760100Y-7881620D01*
X139737567Y-7859048D01*
X139394039Y-7716402D01*
X139327687Y-7716344D01*
X139328130Y-7209122D01*
X139117634Y-6699683D01*
X138760105Y-6341530D01*
X139962890Y-6341530D01*
X140210655Y-6292247D01*
X140420699Y-6151899D01*
X140561047Y-5941855D01*
X140610330Y-5694090D01*
X140610330Y-4192950D01*
X140561047Y-3945185D01*
X140420699Y-3735141D01*
X140210655Y-3594793D01*
X139962890Y-3545510D01*
X138461750Y-3545510D01*
X138213985Y-3594793D01*
X138003941Y-3735141D01*
X137863593Y-3945185D01*
X137825365Y-4137375D01*
X137458207Y-3769576D01*
X136949136Y-3558191D01*
X136397922Y-3557710D01*
X135888483Y-3768206D01*
X135498376Y-4157633D01*
X135402345Y-4388901D01*
X135307634Y-4159683D01*
X135063215Y-3914837D01*
X135217131Y-3544167D01*
X135217508Y-3112527D01*
X135129013Y-2898353D01*
X144076105Y-2898353D01*
X144316899Y-3481117D01*
X144762377Y-3927374D01*
X145344721Y-4169184D01*
X145975273Y-4169735D01*
X146558037Y-3928941D01*
X147004294Y-3483463D01*
X147246104Y-2901119D01*
X147246655Y-2270567D01*
X147005861Y-1687803D01*
X146560383Y-1241546D01*
X145978039Y-999736D01*
X145347487Y-999185D01*
X144764723Y-1239979D01*
X144318466Y-1685457D01*
X144076656Y-2267801D01*
X144076105Y-2898353D01*
X135129013Y-2898353D01*
X135052674Y-2713600D01*
X134747725Y-2408118D01*
X134349087Y-2242589D01*
X133917447Y-2242212D01*
X133518520Y-2407046D01*
X133487111Y-2438400D01*
X129743674Y-2438400D01*
X129713445Y-2408118D01*
X129314807Y-2242589D01*
X128883167Y-2242212D01*
X128484240Y-2407046D01*
X128452831Y-2438400D01*
X105639074Y-2438400D01*
X105608845Y-2408118D01*
X105210207Y-2242589D01*
X104778567Y-2242212D01*
X104379640Y-2407046D01*
X104074158Y-2711995D01*
X103908629Y-3110633D01*
X103908252Y-3542273D01*
X104045257Y-3873850D01*
X103816956Y-4101753D01*
X103727521Y-4317136D01*
X103663831Y-4163375D01*
X103422830Y-4095315D01*
X102630505Y-4887640D01*
X103422830Y-5679965D01*
X103663831Y-5611905D01*
X103722669Y-5446600D01*
X103815586Y-5671477D01*
X104205013Y-6061584D01*
X104714084Y-6272969D01*
X105265298Y-6273450D01*
X105774737Y-6062954D01*
X106164844Y-5673527D01*
X106260875Y-5442259D01*
X106355586Y-5671477D01*
X106745013Y-6061584D01*
X107254084Y-6272969D01*
X107805298Y-6273450D01*
X108314737Y-6062954D01*
X108684045Y-5694290D01*
X108722173Y-5885975D01*
X108826488Y-6042092D01*
X108526502Y-6041830D01*
X108017063Y-6252326D01*
X107626956Y-6641753D01*
X107530925Y-6873021D01*
X107436214Y-6643803D01*
X107046787Y-6253696D01*
X106537716Y-6042311D01*
X105986502Y-6041830D01*
X105477063Y-6252326D01*
X105086956Y-6641753D01*
X104990925Y-6873021D01*
X104896214Y-6643803D01*
X104506787Y-6253696D01*
X103997716Y-6042311D01*
X103446502Y-6041830D01*
X102937063Y-6252326D01*
X102546956Y-6641753D01*
X102457521Y-6857136D01*
X102393831Y-6703375D01*
X102152830Y-6635315D01*
X101360505Y-7427640D01*
X102152830Y-8219965D01*
X102393831Y-8151905D01*
X102452669Y-7986600D01*
X102545586Y-8211477D01*
X102935013Y-8601584D01*
X103444084Y-8812969D01*
X103995298Y-8813450D01*
X104504737Y-8602954D01*
X104894844Y-8213527D01*
X104990875Y-7982259D01*
X105085586Y-8211477D01*
X105475013Y-8601584D01*
X105984084Y-8812969D01*
X106535298Y-8813450D01*
X107044737Y-8602954D01*
X107434844Y-8213527D01*
X107530875Y-7982259D01*
X107625586Y-8211477D01*
X108015013Y-8601584D01*
X108200603Y-8678648D01*
X108011248Y-8867673D01*
X107868602Y-9211201D01*
X107868545Y-9276584D01*
X107720239Y-9215002D01*
X107348273Y-9214678D01*
X107004497Y-9356723D01*
X106741248Y-9619513D01*
X106598602Y-9963041D01*
X106598448Y-10139680D01*
X104278826Y-10139680D01*
X104248687Y-10109488D01*
X103905159Y-9966842D01*
X103533193Y-9966518D01*
X103189417Y-10108563D01*
X102926168Y-10371353D01*
X102783522Y-10714881D01*
X102783198Y-11086847D01*
X102783259Y-11086994D01*
X102638370Y-11183805D01*
X102431579Y-11493289D01*
X102060076Y-11077488D01*
X101532831Y-10823511D01*
X101517066Y-10820862D01*
X101285040Y-10942003D01*
X101285040Y-12301220D01*
X101305040Y-12301220D01*
X101305040Y-12555220D01*
X101285040Y-12555220D01*
X101285040Y-13914437D01*
X101517066Y-14035578D01*
X101532831Y-14032929D01*
X102060076Y-13778952D01*
X102431579Y-13363151D01*
X102638370Y-13672635D01*
X103058146Y-13953121D01*
X102905848Y-14105153D01*
X102763202Y-14448681D01*
X102763005Y-14674485D01*
X85925534Y-14674485D01*
X85925534Y-12790133D01*
X99672856Y-12790133D01*
X99866086Y-13342540D01*
X100256004Y-13778952D01*
X100783249Y-14032929D01*
X100799014Y-14035578D01*
X101031040Y-13914437D01*
X101031040Y-12555220D01*
X99817116Y-12555220D01*
X99672856Y-12790133D01*
X85925534Y-12790133D01*
X85925534Y-12066307D01*
X99672856Y-12066307D01*
X99817116Y-12301220D01*
X101031040Y-12301220D01*
X101031040Y-10942003D01*
X100799014Y-10820862D01*
X100783249Y-10823511D01*
X100256004Y-11077488D01*
X99866086Y-11513900D01*
X99672856Y-12066307D01*
X85925534Y-12066307D01*
X85925534Y-8399570D01*
X100388575Y-8399570D01*
X100456635Y-8640571D01*
X100975934Y-8825407D01*
X101526438Y-8797445D01*
X101905165Y-8640571D01*
X101973225Y-8399570D01*
X101180900Y-7607245D01*
X100388575Y-8399570D01*
X85925534Y-8399570D01*
X85925534Y-7222674D01*
X99783133Y-7222674D01*
X99811095Y-7773178D01*
X99967969Y-8151905D01*
X100208970Y-8219965D01*
X101001295Y-7427640D01*
X100208970Y-6635315D01*
X99967969Y-6703375D01*
X99783133Y-7222674D01*
X85925534Y-7222674D01*
X85925534Y-6609080D01*
X85895027Y-6455710D01*
X100388575Y-6455710D01*
X101180900Y-7248035D01*
X101973225Y-6455710D01*
X101905165Y-6214709D01*
X101385866Y-6029873D01*
X100835362Y-6057835D01*
X100456635Y-6214709D01*
X100388575Y-6455710D01*
X85895027Y-6455710D01*
X85873391Y-6346942D01*
X85724902Y-6124712D01*
X85502672Y-5976223D01*
X85240534Y-5924080D01*
X84240442Y-5924080D01*
X83978304Y-5976223D01*
X83756074Y-6124712D01*
X83607585Y-6346942D01*
X83555442Y-6609080D01*
X48574020Y-6609080D01*
X48574215Y-6386200D01*
X48420776Y-6014848D01*
X48265769Y-5859570D01*
X101658575Y-5859570D01*
X101726635Y-6100571D01*
X102245934Y-6285407D01*
X102796438Y-6257445D01*
X103175165Y-6100571D01*
X103243225Y-5859570D01*
X102450900Y-5067245D01*
X101658575Y-5859570D01*
X48265769Y-5859570D01*
X48136906Y-5730483D01*
X47765823Y-5576396D01*
X47364020Y-5576045D01*
X46992668Y-5729484D01*
X46961378Y-5760720D01*
X15147090Y-5760720D01*
X15116906Y-5730483D01*
X14745823Y-5576396D01*
X14344020Y-5576045D01*
X13972668Y-5729484D01*
X13941378Y-5760720D01*
X4606090Y-5760720D01*
X4575906Y-5730483D01*
X4204823Y-5576396D01*
X3803020Y-5576045D01*
X3431668Y-5729484D01*
X3147303Y-6013354D01*
X2993216Y-6384437D01*
X2992865Y-6786240D01*
X-3814561Y-6786240D01*
X-3814561Y-4682674D01*
X101053133Y-4682674D01*
X101081095Y-5233178D01*
X101237969Y-5611905D01*
X101478970Y-5679965D01*
X102271295Y-4887640D01*
X101478970Y-4095315D01*
X101237969Y-4163375D01*
X101053133Y-4682674D01*
X-3814561Y-4682674D01*
X-3814561Y-462422D01*
X-2335404Y-462422D01*
X-1980671Y-1320943D01*
X-1324398Y-1978362D01*
X-466498Y-2334593D01*
X462422Y-2335404D01*
X1320943Y-1980671D01*
X1978362Y-1324398D01*
X2334593Y-466498D01*
X2335404Y462422D01*
X1980671Y1320943D01*
X1324398Y1978362D01*
X466498Y2334593D01*
X-462422Y2335404D01*
X-1320943Y1980671D01*
X-1978362Y1324398D01*
X-2334593Y466498D01*
X-2335404Y-462422D01*
X-3814561Y-462422D01*
X-3814561Y6315563D01*
X5017719Y6315563D01*
X4526578Y5825278D01*
X4526578Y5825278D01*
G37*
X4526578Y5825278D02*
X4170347Y4967378D01*
X4169536Y4038458D01*
X4524269Y3179937D01*
X5180542Y2522518D01*
X6038442Y2166287D01*
X6967362Y2165476D01*
X7825883Y2520209D01*
X8483302Y3176482D01*
X8839533Y4034382D01*
X8839829Y4373880D01*
X10469040Y4373880D01*
X10469040Y3973880D01*
X10634486Y3396128D01*
X11008434Y2925668D01*
X11533954Y2634124D01*
X11639300Y2609844D01*
X11877040Y2730502D01*
X11877040Y4373880D01*
X10469040Y4373880D01*
X8839829Y4373880D01*
X8840344Y4963302D01*
X8485611Y5821823D01*
X7992732Y6315563D01*
X11440090Y6315563D01*
X11008434Y6076092D01*
X10634486Y5605632D01*
X10469040Y5027880D01*
X10469040Y4627880D01*
X11877040Y4627880D01*
X11877040Y4647880D01*
X12131040Y4647880D01*
X12131040Y4627880D01*
X12151040Y4627880D01*
X12151040Y4373880D01*
X12131040Y4373880D01*
X12131040Y2730502D01*
X12368780Y2609844D01*
X12474126Y2634124D01*
X12999646Y2925668D01*
X13267848Y3263090D01*
X13458631Y2977562D01*
X13956621Y2644816D01*
X14544040Y2527971D01*
X15131459Y2644816D01*
X15629449Y2977562D01*
X15814040Y3253822D01*
X15998631Y2977562D01*
X16496621Y2644816D01*
X17084040Y2527971D01*
X17671459Y2644816D01*
X18169449Y2977562D01*
X18354040Y3253822D01*
X18538631Y2977562D01*
X19036621Y2644816D01*
X19624040Y2527971D01*
X20211459Y2644816D01*
X20709449Y2977562D01*
X20894040Y3253822D01*
X21078631Y2977562D01*
X21576621Y2644816D01*
X22164040Y2527971D01*
X22751459Y2644816D01*
X23249449Y2977562D01*
X23434040Y3253822D01*
X23618631Y2977562D01*
X24116621Y2644816D01*
X24704040Y2527971D01*
X25291459Y2644816D01*
X25789449Y2977562D01*
X25980232Y3263090D01*
X26248434Y2925668D01*
X26773954Y2634124D01*
X26879300Y2609844D01*
X27117040Y2730502D01*
X27117040Y4373880D01*
X27371040Y4373880D01*
X27371040Y2730502D01*
X27608780Y2609844D01*
X27714126Y2634124D01*
X28239646Y2925668D01*
X28514040Y3270880D01*
X28788434Y2925668D01*
X29313954Y2634124D01*
X29419300Y2609844D01*
X29657040Y2730502D01*
X29657040Y4373880D01*
X29911040Y4373880D01*
X29911040Y2730502D01*
X30148780Y2609844D01*
X30254126Y2634124D01*
X30779646Y2925668D01*
X31054040Y3270880D01*
X31328434Y2925668D01*
X31853954Y2634124D01*
X31959300Y2609844D01*
X32197040Y2730502D01*
X32197040Y4373880D01*
X32451040Y4373880D01*
X32451040Y2730502D01*
X32688780Y2609844D01*
X32794126Y2634124D01*
X33319646Y2925668D01*
X33594040Y3270880D01*
X33868434Y2925668D01*
X34393954Y2634124D01*
X34499300Y2609844D01*
X34737040Y2730502D01*
X34737040Y4373880D01*
X32451040Y4373880D01*
X32197040Y4373880D01*
X29911040Y4373880D01*
X29657040Y4373880D01*
X27371040Y4373880D01*
X27117040Y4373880D01*
X27097040Y4373880D01*
X27097040Y4627880D01*
X27117040Y4627880D01*
X27117040Y4647880D01*
X27371040Y4647880D01*
X27371040Y4627880D01*
X29657040Y4627880D01*
X29657040Y4647880D01*
X29911040Y4647880D01*
X29911040Y4627880D01*
X32197040Y4627880D01*
X32197040Y4647880D01*
X32451040Y4647880D01*
X32451040Y4627880D01*
X34737040Y4627880D01*
X34737040Y4647880D01*
X34991040Y4647880D01*
X34991040Y4627880D01*
X35011040Y4627880D01*
X35011040Y4373880D01*
X34991040Y4373880D01*
X34991040Y2730502D01*
X35228780Y2609844D01*
X35334126Y2634124D01*
X35859646Y2925668D01*
X36127848Y3263090D01*
X36318631Y2977562D01*
X36816621Y2644816D01*
X37404040Y2527971D01*
X37991459Y2644816D01*
X38489449Y2977562D01*
X38674040Y3253822D01*
X38858631Y2977562D01*
X39356621Y2644816D01*
X39944040Y2527971D01*
X40531459Y2644816D01*
X41029449Y2977562D01*
X41214040Y3253822D01*
X41398631Y2977562D01*
X41896621Y2644816D01*
X42484040Y2527971D01*
X43071459Y2644816D01*
X43569449Y2977562D01*
X43754040Y3253822D01*
X43938631Y2977562D01*
X44436621Y2644816D01*
X45024040Y2527971D01*
X45611459Y2644816D01*
X46109449Y2977562D01*
X46294040Y3253822D01*
X46478631Y2977562D01*
X46976621Y2644816D01*
X47564040Y2527971D01*
X48151459Y2644816D01*
X48649449Y2977562D01*
X48834040Y3253822D01*
X49018631Y2977562D01*
X49516621Y2644816D01*
X50104040Y2527971D01*
X50691459Y2644816D01*
X51189449Y2977562D01*
X51522195Y3475552D01*
X51639040Y4062971D01*
X51639040Y4938789D01*
X51522195Y5526208D01*
X51189449Y6024198D01*
X50753390Y6315563D01*
X80016299Y6315563D01*
X79525158Y5825278D01*
X79168927Y4967378D01*
X79168116Y4038458D01*
X79522849Y3179937D01*
X80179122Y2522518D01*
X81037022Y2166287D01*
X81965942Y2165476D01*
X82824463Y2520209D01*
X83481882Y3176482D01*
X83555442Y3353634D01*
X83555442Y-3002280D01*
X83607585Y-3264418D01*
X83756074Y-3486648D01*
X83978304Y-3635137D01*
X84240442Y-3687280D01*
X85240534Y-3687280D01*
X85502672Y-3635137D01*
X85724902Y-3486648D01*
X85832591Y-3325480D01*
X85896899Y-3481117D01*
X86342377Y-3927374D01*
X86924721Y-4169184D01*
X87555273Y-4169735D01*
X88138037Y-3928941D01*
X88584294Y-3483463D01*
X88826104Y-2901119D01*
X88826106Y-2898353D01*
X93156105Y-2898353D01*
X93396899Y-3481117D01*
X93842377Y-3927374D01*
X94424721Y-4169184D01*
X95055273Y-4169735D01*
X95638037Y-3928941D01*
X95651291Y-3915710D01*
X101658575Y-3915710D01*
X102450900Y-4708035D01*
X103243225Y-3915710D01*
X103175165Y-3674709D01*
X102655866Y-3489873D01*
X102105362Y-3517835D01*
X101726635Y-3674709D01*
X101658575Y-3915710D01*
X95651291Y-3915710D01*
X96084294Y-3483463D01*
X96326104Y-2901119D01*
X96326655Y-2270567D01*
X96085861Y-1687803D01*
X95640383Y-1241546D01*
X95058039Y-999736D01*
X94427487Y-999185D01*
X93844723Y-1239979D01*
X93398466Y-1685457D01*
X93156656Y-2267801D01*
X93156105Y-2898353D01*
X88826106Y-2898353D01*
X88826655Y-2270567D01*
X88585861Y-1687803D01*
X88140383Y-1241546D01*
X87558039Y-999736D01*
X86927487Y-999185D01*
X86344723Y-1239979D01*
X85925534Y-1658436D01*
X85925534Y1490198D01*
X86342377Y1072626D01*
X86924721Y830816D01*
X87555273Y830265D01*
X88138037Y1071059D01*
X88584294Y1516537D01*
X88826104Y2098881D01*
X88826106Y2101647D01*
X93156105Y2101647D01*
X93396899Y1518883D01*
X93842377Y1072626D01*
X94424721Y830816D01*
X95055273Y830265D01*
X95489873Y1009839D01*
X97401984Y1009839D01*
X97749122Y169702D01*
X98391341Y-473639D01*
X99230871Y-822243D01*
X100139901Y-823036D01*
X100980038Y-475898D01*
X101623379Y166321D01*
X101971983Y1005851D01*
X101971995Y1019741D01*
X109321413Y1019741D01*
X109660955Y197988D01*
X110289121Y-431276D01*
X111110281Y-772251D01*
X111999419Y-773027D01*
X112821172Y-433485D01*
X113450436Y194681D01*
X113765715Y953959D01*
X126543404Y953959D01*
X126890542Y113822D01*
X127532761Y-529519D01*
X128372291Y-878123D01*
X129281321Y-878916D01*
X130121458Y-531778D01*
X130764799Y110441D01*
X131113403Y949971D01*
X131113415Y963861D01*
X138462833Y963861D01*
X138802375Y142108D01*
X139430541Y-487156D01*
X140251701Y-828131D01*
X141140839Y-828907D01*
X141962592Y-489365D01*
X142591856Y138801D01*
X142932831Y959961D01*
X142933607Y1849099D01*
X142830306Y2099107D01*
X144076105Y2099107D01*
X144316899Y1516343D01*
X144762377Y1070086D01*
X145344721Y828276D01*
X145975273Y827725D01*
X146558037Y1068519D01*
X147004294Y1513997D01*
X147246104Y2096341D01*
X147246655Y2726893D01*
X147005861Y3309657D01*
X146560383Y3755914D01*
X145978039Y3997724D01*
X145347487Y3998275D01*
X144764723Y3757481D01*
X144318466Y3312003D01*
X144076656Y2729659D01*
X144076105Y2099107D01*
X142830306Y2099107D01*
X142594065Y2670852D01*
X141965899Y3300116D01*
X141144739Y3641091D01*
X140255601Y3641867D01*
X139433848Y3302325D01*
X138804584Y2674159D01*
X138463609Y1852999D01*
X138462833Y963861D01*
X131113415Y963861D01*
X131114196Y1859001D01*
X130767058Y2699138D01*
X130124839Y3342479D01*
X129285309Y3691083D01*
X128376279Y3691876D01*
X127536142Y3344738D01*
X126892801Y2702519D01*
X126544197Y1862989D01*
X126543404Y953959D01*
X113765715Y953959D01*
X113791411Y1015841D01*
X113792187Y1904979D01*
X113665779Y2210910D01*
X116908392Y2210910D01*
X117073162Y1812137D01*
X117377993Y1506774D01*
X117776477Y1341309D01*
X118207950Y1340932D01*
X118606723Y1505702D01*
X118912086Y1810533D01*
X119077551Y2209017D01*
X119077552Y2210910D01*
X121307672Y2210910D01*
X121472442Y1812137D01*
X121777273Y1506774D01*
X122175757Y1341309D01*
X122607230Y1340932D01*
X123006003Y1505702D01*
X123311366Y1810533D01*
X123476831Y2209017D01*
X123477208Y2640490D01*
X123312438Y3039263D01*
X123007607Y3344626D01*
X122609123Y3510091D01*
X122177650Y3510468D01*
X121778877Y3345698D01*
X121473514Y3040867D01*
X121308049Y2642383D01*
X121307672Y2210910D01*
X119077552Y2210910D01*
X119077928Y2640490D01*
X118913158Y3039263D01*
X118608327Y3344626D01*
X118209843Y3510091D01*
X117778370Y3510468D01*
X117379597Y3345698D01*
X117074234Y3040867D01*
X116908769Y2642383D01*
X116908392Y2210910D01*
X113665779Y2210910D01*
X113452645Y2726732D01*
X112824479Y3355996D01*
X112003319Y3696971D01*
X111114181Y3697747D01*
X110292428Y3358205D01*
X109663164Y2730039D01*
X109322189Y1908879D01*
X109321413Y1019741D01*
X101971995Y1019741D01*
X101972776Y1914881D01*
X101625638Y2755018D01*
X100983419Y3398359D01*
X100143889Y3746963D01*
X99234859Y3747756D01*
X98394722Y3400618D01*
X97751381Y2758399D01*
X97402777Y1918869D01*
X97401984Y1009839D01*
X95489873Y1009839D01*
X95638037Y1071059D01*
X96084294Y1516537D01*
X96326104Y2098881D01*
X96326655Y2729433D01*
X96085861Y3312197D01*
X95640383Y3758454D01*
X95058039Y4000264D01*
X94427487Y4000815D01*
X93844723Y3760021D01*
X93398466Y3314543D01*
X93156656Y2732199D01*
X93156105Y2101647D01*
X88826106Y2101647D01*
X88826655Y2729433D01*
X88585861Y3312197D01*
X88140383Y3758454D01*
X87558039Y4000264D01*
X86927487Y4000815D01*
X86344723Y3760021D01*
X85925534Y3341564D01*
X85925534Y6312054D01*
X154475536Y6312054D01*
X154475536Y3342575D01*
X154060383Y3758454D01*
X153478039Y4000264D01*
X152847487Y4000815D01*
X152264723Y3760021D01*
X151818466Y3314543D01*
X151576656Y2732199D01*
X151576105Y2101647D01*
X151816899Y1518883D01*
X152262377Y1072626D01*
X152844721Y830816D01*
X153475273Y830265D01*
X154058037Y1071059D01*
X154475536Y1487829D01*
X154475536Y-1657425D01*
X154060383Y-1241546D01*
X153478039Y-999736D01*
X152847487Y-999185D01*
X152264723Y-1239979D01*
X151818466Y-1685457D01*
X151576656Y-2267801D01*
X151576105Y-2898353D01*
X151816899Y-3481117D01*
X152262377Y-3927374D01*
X152844721Y-4169184D01*
X153475273Y-4169735D01*
X154058037Y-3928941D01*
X154504294Y-3483463D01*
X154569352Y-3326786D01*
X154676168Y-3486648D01*
X154898398Y-3635137D01*
X155160536Y-3687280D01*
X156160442Y-3687280D01*
X156422580Y-3635137D01*
X156644810Y-3486648D01*
X156793299Y-3264418D01*
X156845442Y-3002280D01*
X156845442Y-462422D01*
X238065436Y-462422D01*
X238420169Y-1320943D01*
X239076442Y-1978362D01*
X239934342Y-2334593D01*
X240863262Y-2335404D01*
X241721783Y-1980671D01*
X242379202Y-1324398D01*
X242735433Y-466498D01*
X242736244Y462422D01*
X242381511Y1320943D01*
X241725238Y1978362D01*
X240867338Y2334593D01*
X239938418Y2335404D01*
X239079897Y1980671D01*
X238422478Y1324398D01*
X238066247Y466498D01*
X238065436Y-462422D01*
X156845442Y-462422D01*
X156845442Y3370713D01*
X156924269Y3179937D01*
X157580542Y2522518D01*
X158438442Y2166287D01*
X159367362Y2165476D01*
X160225883Y2520209D01*
X160883302Y3176482D01*
X161239533Y4034382D01*
X161239829Y4373880D01*
X162869040Y4373880D01*
X162869040Y3973880D01*
X163034486Y3396128D01*
X163408434Y2925668D01*
X163933954Y2634124D01*
X164039300Y2609844D01*
X164277040Y2730502D01*
X164277040Y4373880D01*
X162869040Y4373880D01*
X161239829Y4373880D01*
X161240344Y4963302D01*
X160885611Y5821823D01*
X160392732Y6315563D01*
X163840090Y6315563D01*
X163408434Y6076092D01*
X163034486Y5605632D01*
X162869040Y5027880D01*
X162869040Y4627880D01*
X164277040Y4627880D01*
X164277040Y4647880D01*
X164531040Y4647880D01*
X164531040Y4627880D01*
X164551040Y4627880D01*
X164551040Y4373880D01*
X164531040Y4373880D01*
X164531040Y2730502D01*
X164768780Y2609844D01*
X164874126Y2634124D01*
X165399646Y2925668D01*
X165667848Y3263090D01*
X165858631Y2977562D01*
X166356621Y2644816D01*
X166944040Y2527971D01*
X167531459Y2644816D01*
X168029449Y2977562D01*
X168214040Y3253822D01*
X168398631Y2977562D01*
X168896621Y2644816D01*
X169484040Y2527971D01*
X170071459Y2644816D01*
X170569449Y2977562D01*
X170754040Y3253822D01*
X170938631Y2977562D01*
X171436621Y2644816D01*
X172024040Y2527971D01*
X172611459Y2644816D01*
X173109449Y2977562D01*
X173294040Y3253822D01*
X173478631Y2977562D01*
X173976621Y2644816D01*
X174564040Y2527971D01*
X175151459Y2644816D01*
X175649449Y2977562D01*
X175834040Y3253822D01*
X176018631Y2977562D01*
X176516621Y2644816D01*
X177104040Y2527971D01*
X177691459Y2644816D01*
X178189449Y2977562D01*
X178380232Y3263090D01*
X178648434Y2925668D01*
X179173954Y2634124D01*
X179279300Y2609844D01*
X179517040Y2730502D01*
X179517040Y4373880D01*
X179771040Y4373880D01*
X179771040Y2730502D01*
X180008780Y2609844D01*
X180114126Y2634124D01*
X180639646Y2925668D01*
X180914040Y3270880D01*
X181188434Y2925668D01*
X181713954Y2634124D01*
X181819300Y2609844D01*
X182057040Y2730502D01*
X182057040Y4373880D01*
X182311040Y4373880D01*
X182311040Y2730502D01*
X182548780Y2609844D01*
X182654126Y2634124D01*
X183179646Y2925668D01*
X183454040Y3270880D01*
X183728434Y2925668D01*
X184253954Y2634124D01*
X184359300Y2609844D01*
X184597040Y2730502D01*
X184597040Y4373880D01*
X184851040Y4373880D01*
X184851040Y2730502D01*
X185088780Y2609844D01*
X185194126Y2634124D01*
X185719646Y2925668D01*
X185994040Y3270880D01*
X186268434Y2925668D01*
X186793954Y2634124D01*
X186899300Y2609844D01*
X187137040Y2730502D01*
X187137040Y4373880D01*
X184851040Y4373880D01*
X184597040Y4373880D01*
X182311040Y4373880D01*
X182057040Y4373880D01*
X179771040Y4373880D01*
X179517040Y4373880D01*
X179497040Y4373880D01*
X179497040Y4627880D01*
X179517040Y4627880D01*
X179517040Y4647880D01*
X179771040Y4647880D01*
X179771040Y4627880D01*
X182057040Y4627880D01*
X182057040Y4647880D01*
X182311040Y4647880D01*
X182311040Y4627880D01*
X184597040Y4627880D01*
X184597040Y4647880D01*
X184851040Y4647880D01*
X184851040Y4627880D01*
X187137040Y4627880D01*
X187137040Y4647880D01*
X187391040Y4647880D01*
X187391040Y4627880D01*
X187411040Y4627880D01*
X187411040Y4373880D01*
X187391040Y4373880D01*
X187391040Y2730502D01*
X187628780Y2609844D01*
X187734126Y2634124D01*
X188259646Y2925668D01*
X188527848Y3263090D01*
X188718631Y2977562D01*
X189216621Y2644816D01*
X189804040Y2527971D01*
X190391459Y2644816D01*
X190889449Y2977562D01*
X191074040Y3253822D01*
X191258631Y2977562D01*
X191756621Y2644816D01*
X192344040Y2527971D01*
X192931459Y2644816D01*
X193429449Y2977562D01*
X193614040Y3253822D01*
X193798631Y2977562D01*
X194296621Y2644816D01*
X194884040Y2527971D01*
X195471459Y2644816D01*
X195969449Y2977562D01*
X196154040Y3253822D01*
X196338631Y2977562D01*
X196836621Y2644816D01*
X197424040Y2527971D01*
X198011459Y2644816D01*
X198509449Y2977562D01*
X198694040Y3253822D01*
X198878631Y2977562D01*
X199376621Y2644816D01*
X199964040Y2527971D01*
X200551459Y2644816D01*
X201049449Y2977562D01*
X201234040Y3253822D01*
X201418631Y2977562D01*
X201916621Y2644816D01*
X202504040Y2527971D01*
X203091459Y2644816D01*
X203589449Y2977562D01*
X203922195Y3475552D01*
X204039040Y4062971D01*
X204039040Y4938789D01*
X203922195Y5526208D01*
X203589449Y6024198D01*
X203153390Y6315563D01*
X232416299Y6315563D01*
X231925158Y5825278D01*
X231568927Y4967378D01*
X231568116Y4038458D01*
X231922849Y3179937D01*
X232579122Y2522518D01*
X233437022Y2166287D01*
X234365942Y2165476D01*
X235224463Y2520209D01*
X235881882Y3176482D01*
X236238113Y4034382D01*
X236238924Y4963302D01*
X235884191Y5821823D01*
X235391312Y6315563D01*
X244215444Y6315563D01*
X244215444Y-50810040D01*
X-3814561Y-50810040D01*
X-3814561Y-47957882D01*
X-2332864Y-47957882D01*
X-1978131Y-48816403D01*
X-1321858Y-49473822D01*
X-463958Y-49830053D01*
X464962Y-49830864D01*
X1323483Y-49476131D01*
X1980902Y-48819858D01*
X2337133Y-47961958D01*
X2337136Y-47957882D01*
X238065436Y-47957882D01*
X238420169Y-48816403D01*
X239076442Y-49473822D01*
X239934342Y-49830053D01*
X240863262Y-49830864D01*
X241721783Y-49476131D01*
X242379202Y-48819858D01*
X242735433Y-47961958D01*
X242736244Y-47033038D01*
X242381511Y-46174517D01*
X241725238Y-45517098D01*
X240867338Y-45160867D01*
X239938418Y-45160056D01*
X239079897Y-45514789D01*
X238422478Y-46171062D01*
X238066247Y-47028962D01*
X238065436Y-47957882D01*
X2337136Y-47957882D01*
X2337944Y-47033038D01*
X1983211Y-46174517D01*
X1326938Y-45517098D01*
X989400Y-45376940D01*
X128905665Y-45376940D01*
X129059104Y-45748292D01*
X129342974Y-46032657D01*
X129714057Y-46186744D01*
X130115860Y-46187095D01*
X130487212Y-46033656D01*
X130508485Y-46012420D01*
X157102790Y-46012420D01*
X157132974Y-46042657D01*
X157504057Y-46196744D01*
X157905860Y-46197095D01*
X158277212Y-46043656D01*
X158561577Y-45759786D01*
X158715664Y-45388703D01*
X158716015Y-44986900D01*
X158562576Y-44615548D01*
X158278706Y-44331183D01*
X157907623Y-44177096D01*
X157505820Y-44176745D01*
X157134468Y-44330184D01*
X157103178Y-44361420D01*
X130528873Y-44361420D01*
X130488706Y-44321183D01*
X130117623Y-44167096D01*
X129715820Y-44166745D01*
X129344468Y-44320184D01*
X129060103Y-44604054D01*
X128906016Y-44975137D01*
X128905665Y-45376940D01*
X989400Y-45376940D01*
X469038Y-45160867D01*
X-459882Y-45160056D01*
X-1318403Y-45514789D01*
X-1975822Y-46171062D01*
X-2332053Y-47028962D01*
X-2332864Y-47957882D01*
X-3814561Y-47957882D01*
X-3814561Y-39885620D01*
X34412180Y-39885620D01*
X34412180Y-41917620D01*
X34461463Y-42165385D01*
X34601811Y-42375429D01*
X34811855Y-42515777D01*
X35059620Y-42565060D01*
X37091620Y-42565060D01*
X37339385Y-42515777D01*
X37549429Y-42375429D01*
X37654282Y-42218507D01*
X37750802Y-42308005D01*
X38232676Y-42507595D01*
X38488620Y-42388456D01*
X38488620Y-41028620D01*
X38742620Y-41028620D01*
X38742620Y-42388456D01*
X38998564Y-42507595D01*
X39480438Y-42308005D01*
X39952808Y-41869999D01*
X40221603Y-41284566D01*
X40102987Y-41028620D01*
X38742620Y-41028620D01*
X38488620Y-41028620D01*
X38468620Y-41028620D01*
X38468620Y-40774620D01*
X38488620Y-40774620D01*
X38488620Y-39414784D01*
X38742620Y-39414784D01*
X38742620Y-40774620D01*
X40102987Y-40774620D01*
X40221603Y-40518674D01*
X39952808Y-39933241D01*
X39901451Y-39885620D01*
X43373300Y-39885620D01*
X43373300Y-41917620D01*
X43422583Y-42165385D01*
X43562931Y-42375429D01*
X43772975Y-42515777D01*
X44020740Y-42565060D01*
X46052740Y-42565060D01*
X46300505Y-42515777D01*
X46510549Y-42375429D01*
X46615402Y-42218507D01*
X46711922Y-42308005D01*
X47193796Y-42507595D01*
X47449740Y-42388456D01*
X47449740Y-41028620D01*
X47703740Y-41028620D01*
X47703740Y-42388456D01*
X47959684Y-42507595D01*
X48441558Y-42308005D01*
X48913928Y-41869999D01*
X49182723Y-41284566D01*
X49064107Y-41028620D01*
X47703740Y-41028620D01*
X47449740Y-41028620D01*
X47429740Y-41028620D01*
X47429740Y-40774620D01*
X47449740Y-40774620D01*
X47449740Y-39414784D01*
X47703740Y-39414784D01*
X47703740Y-40774620D01*
X49064107Y-40774620D01*
X49182723Y-40518674D01*
X48913928Y-39933241D01*
X48441558Y-39495235D01*
X47959684Y-39295645D01*
X47703740Y-39414784D01*
X47449740Y-39414784D01*
X47193796Y-39295645D01*
X46711922Y-39495235D01*
X46615402Y-39584733D01*
X46510549Y-39427811D01*
X46300505Y-39287463D01*
X46052740Y-39238180D01*
X44020740Y-39238180D01*
X43772975Y-39287463D01*
X43562931Y-39427811D01*
X43422583Y-39637855D01*
X43373300Y-39885620D01*
X39901451Y-39885620D01*
X39480438Y-39495235D01*
X38998564Y-39295645D01*
X38742620Y-39414784D01*
X38488620Y-39414784D01*
X38232676Y-39295645D01*
X37750802Y-39495235D01*
X37654282Y-39584733D01*
X37549429Y-39427811D01*
X37339385Y-39287463D01*
X37091620Y-39238180D01*
X35059620Y-39238180D01*
X34811855Y-39287463D01*
X34601811Y-39427811D01*
X34461463Y-39637855D01*
X34412180Y-39885620D01*
X-3814561Y-39885620D01*
X-3814561Y-35232087D01*
X-1732722Y-35232087D01*
X-1590677Y-35575863D01*
X-1559560Y-35607034D01*
X-1559560Y-35872420D01*
X-1507145Y-36135930D01*
X-1589752Y-36218393D01*
X-1732398Y-36561921D01*
X-1732722Y-36933887D01*
X-1590677Y-37277663D01*
X-1327887Y-37540912D01*
X-1186580Y-37599588D01*
X-1326503Y-37657403D01*
X-1589752Y-37920193D01*
X-1732398Y-38263721D01*
X-1732722Y-38635687D01*
X-1590677Y-38979463D01*
X-1327887Y-39242712D01*
X-984359Y-39385358D01*
X-612393Y-39385682D01*
X-268617Y-39243637D01*
X-237446Y-39212520D01*
X89491358Y-39212520D01*
X89401002Y-39430121D01*
X89400678Y-39802087D01*
X89542723Y-40145863D01*
X89756138Y-40359651D01*
X89697088Y-40384049D01*
X89294311Y-40216802D01*
X88832834Y-40216399D01*
X88406331Y-40392626D01*
X88079733Y-40718655D01*
X87902762Y-41144849D01*
X87902359Y-41606326D01*
X87984812Y-41805877D01*
X87939403Y-41873835D01*
X87890120Y-42121600D01*
X87890120Y-43171600D01*
X87939403Y-43419365D01*
X88079751Y-43629409D01*
X88289795Y-43769757D01*
X88537560Y-43819040D01*
X89587560Y-43819040D01*
X89835325Y-43769757D01*
X89901562Y-43725499D01*
X90181545Y-43819646D01*
X90641946Y-43788143D01*
X90920985Y-43672562D01*
X90958354Y-43470414D01*
X90967560Y-43461208D01*
X90976766Y-43470414D01*
X91014135Y-43672562D01*
X91451545Y-43819646D01*
X91911946Y-43788143D01*
X92190985Y-43672562D01*
X92201405Y-43616194D01*
X92214615Y-43629427D01*
X92640809Y-43806398D01*
X93102286Y-43806801D01*
X93528789Y-43630574D01*
X93543634Y-43615755D01*
X93554135Y-43672562D01*
X93991545Y-43819646D01*
X94451946Y-43788143D01*
X94730985Y-43672562D01*
X94771227Y-43454873D01*
X94142560Y-42826205D01*
X94128418Y-42840348D01*
X94032475Y-42744405D01*
X94032646Y-42548624D01*
X94044755Y-42536515D01*
X94225002Y-42536672D01*
X94328548Y-42640218D01*
X94322165Y-42646600D01*
X94950833Y-43275267D01*
X94961606Y-43273276D01*
X95041385Y-43353055D01*
X95288595Y-43518236D01*
X95580200Y-43576240D01*
X106298520Y-43576240D01*
X106590125Y-43518236D01*
X106837335Y-43353055D01*
X107918871Y-42271520D01*
X108217251Y-42470891D01*
X108790740Y-42584965D01*
X109364229Y-42470891D01*
X109850410Y-42146035D01*
X110057201Y-41836551D01*
X110428704Y-42252352D01*
X110955949Y-42506329D01*
X110971714Y-42508978D01*
X111203740Y-42387837D01*
X111203740Y-41028620D01*
X111183740Y-41028620D01*
X111183740Y-40774620D01*
X111203740Y-40774620D01*
X111203740Y-40754620D01*
X111457740Y-40754620D01*
X111457740Y-40774620D01*
X111477740Y-40774620D01*
X111477740Y-41028620D01*
X111457740Y-41028620D01*
X111457740Y-42387837D01*
X111689766Y-42508978D01*
X111705531Y-42506329D01*
X112232776Y-42252352D01*
X112604279Y-41836551D01*
X112811070Y-42146035D01*
X113297251Y-42470891D01*
X113870740Y-42584965D01*
X114444229Y-42470891D01*
X114930410Y-42146035D01*
X115140740Y-41831254D01*
X115351070Y-42146035D01*
X115837251Y-42470891D01*
X116410740Y-42584965D01*
X116984229Y-42470891D01*
X117470410Y-42146035D01*
X117677201Y-41836551D01*
X118048704Y-42252352D01*
X118575949Y-42506329D01*
X118591714Y-42508978D01*
X118823740Y-42387837D01*
X118823740Y-41028620D01*
X118803740Y-41028620D01*
X118803740Y-40774620D01*
X118823740Y-40774620D01*
X118823740Y-40754620D01*
X119077740Y-40754620D01*
X119077740Y-40774620D01*
X119097740Y-40774620D01*
X119097740Y-41028620D01*
X119077740Y-41028620D01*
X119077740Y-42387837D01*
X119309766Y-42508978D01*
X119325531Y-42506329D01*
X119852776Y-42252352D01*
X120224279Y-41836551D01*
X120431070Y-42146035D01*
X120917251Y-42470891D01*
X121490740Y-42584965D01*
X122064229Y-42470891D01*
X122550410Y-42146035D01*
X122760740Y-41831254D01*
X122971070Y-42146035D01*
X123457251Y-42470891D01*
X124030740Y-42584965D01*
X124604229Y-42470891D01*
X125090410Y-42146035D01*
X125300740Y-41831254D01*
X125511070Y-42146035D01*
X125997251Y-42470891D01*
X126570740Y-42584965D01*
X127144229Y-42470891D01*
X127630410Y-42146035D01*
X127641756Y-42129054D01*
X127648983Y-42165385D01*
X127789331Y-42375429D01*
X127999375Y-42515777D01*
X128247140Y-42565060D01*
X129974340Y-42565060D01*
X130222105Y-42515777D01*
X130432149Y-42375429D01*
X130572497Y-42165385D01*
X130621780Y-41917620D01*
X130621780Y-40063420D01*
X186567410Y-40063420D01*
X186807100Y-40303110D01*
X186807100Y-41904920D01*
X186856383Y-42152685D01*
X186996731Y-42362729D01*
X187206775Y-42503077D01*
X187454540Y-42552360D01*
X189486540Y-42552360D01*
X189734305Y-42503077D01*
X189944349Y-42362729D01*
X190043962Y-42213648D01*
X190145722Y-42308005D01*
X190627596Y-42507595D01*
X190883540Y-42388456D01*
X190883540Y-41028620D01*
X191137540Y-41028620D01*
X191137540Y-42388456D01*
X191393484Y-42507595D01*
X191875358Y-42308005D01*
X192347728Y-41869999D01*
X192616523Y-41284566D01*
X192497907Y-41028620D01*
X191137540Y-41028620D01*
X190883540Y-41028620D01*
X190863540Y-41028620D01*
X190863540Y-40774620D01*
X190883540Y-40774620D01*
X190883540Y-40754620D01*
X191137540Y-40754620D01*
X191137540Y-40774620D01*
X192497907Y-40774620D01*
X192616523Y-40518674D01*
X192347728Y-39933241D01*
X192022443Y-39631620D01*
X195094190Y-39631620D01*
X195778380Y-40315810D01*
X195778380Y-41917620D01*
X195827663Y-42165385D01*
X195968011Y-42375429D01*
X196178055Y-42515777D01*
X196425820Y-42565060D01*
X198457820Y-42565060D01*
X198705585Y-42515777D01*
X198915629Y-42375429D01*
X199020482Y-42218507D01*
X199117002Y-42308005D01*
X199598876Y-42507595D01*
X199854820Y-42388456D01*
X199854820Y-41028620D01*
X200108820Y-41028620D01*
X200108820Y-42388456D01*
X200364764Y-42507595D01*
X200846638Y-42308005D01*
X201319008Y-41869999D01*
X201587803Y-41284566D01*
X201469187Y-41028620D01*
X200108820Y-41028620D01*
X199854820Y-41028620D01*
X199834820Y-41028620D01*
X199834820Y-40774620D01*
X199854820Y-40774620D01*
X199854820Y-39414784D01*
X200108820Y-39414784D01*
X200108820Y-40774620D01*
X201469187Y-40774620D01*
X201587803Y-40518674D01*
X201319008Y-39933241D01*
X200846638Y-39495235D01*
X200364764Y-39295645D01*
X200108820Y-39414784D01*
X199854820Y-39414784D01*
X199598876Y-39295645D01*
X199117002Y-39495235D01*
X199020482Y-39584733D01*
X198915629Y-39427811D01*
X198705585Y-39287463D01*
X198457820Y-39238180D01*
X196856010Y-39238180D01*
X196830350Y-39212520D01*
X227239434Y-39212520D01*
X227269573Y-39242712D01*
X227613101Y-39385358D01*
X227985067Y-39385682D01*
X228328843Y-39243637D01*
X228592092Y-38980847D01*
X228734738Y-38637319D01*
X228735062Y-38265353D01*
X228593017Y-37921577D01*
X228330227Y-37658328D01*
X228190187Y-37600178D01*
X228331383Y-37541837D01*
X228594632Y-37279047D01*
X228737278Y-36935519D01*
X228737602Y-36563553D01*
X228595557Y-36219777D01*
X228332767Y-35956528D01*
X228191460Y-35897852D01*
X228331383Y-35840037D01*
X228594632Y-35577247D01*
X228737278Y-35233719D01*
X228737602Y-34861753D01*
X228595557Y-34517977D01*
X228332767Y-34254728D01*
X227989239Y-34112082D01*
X227617273Y-34111758D01*
X227273497Y-34253803D01*
X227010248Y-34516593D01*
X226867602Y-34860121D01*
X226867564Y-34904166D01*
X224972210Y-36799520D01*
X152537396Y-36799520D01*
X152537602Y-36563553D01*
X152395557Y-36219777D01*
X152132767Y-35956528D01*
X151985126Y-35895222D01*
X152118683Y-35840037D01*
X152381932Y-35577247D01*
X152524578Y-35233719D01*
X152524902Y-34861753D01*
X152382857Y-34517977D01*
X152120067Y-34254728D01*
X151776539Y-34112082D01*
X151404573Y-34111758D01*
X151060797Y-34253803D01*
X150797548Y-34516593D01*
X150654902Y-34860121D01*
X150654864Y-34904166D01*
X150423210Y-35135820D01*
X150078440Y-35135820D01*
X149786835Y-35193824D01*
X149705598Y-35248105D01*
X149539625Y-35359004D01*
X149521509Y-35377120D01*
X112790884Y-35377120D01*
X112791002Y-35241753D01*
X112648957Y-34897977D01*
X112617840Y-34866806D01*
X112617840Y-34577386D01*
X112648032Y-34547247D01*
X112790678Y-34203719D01*
X112791002Y-33831753D01*
X112648957Y-33487977D01*
X112386167Y-33224728D01*
X112042639Y-33082082D01*
X111670673Y-33081758D01*
X111326897Y-33223803D01*
X111063648Y-33486593D01*
X110921002Y-33830121D01*
X110920678Y-34202087D01*
X111062723Y-34545863D01*
X111093840Y-34577034D01*
X111093840Y-34634090D01*
X110886240Y-34426490D01*
X110886240Y-33715086D01*
X110916432Y-33684947D01*
X111059078Y-33341419D01*
X111059402Y-32969453D01*
X110917357Y-32625677D01*
X110654567Y-32362428D01*
X110311039Y-32219782D01*
X109939073Y-32219458D01*
X109634966Y-32345112D01*
X109333139Y-32219782D01*
X109114299Y-32219591D01*
X110027217Y-31306674D01*
X110051113Y-31330612D01*
X110394641Y-31473258D01*
X110766607Y-31473582D01*
X111110383Y-31331537D01*
X111373632Y-31068747D01*
X111516278Y-30725219D01*
X111516341Y-30652087D01*
X117520678Y-30652087D01*
X117662723Y-30995863D01*
X117693840Y-31027034D01*
X117693840Y-32636454D01*
X117663648Y-32666593D01*
X117521002Y-33010121D01*
X117520678Y-33382087D01*
X117662723Y-33725863D01*
X117925513Y-33989112D01*
X118269041Y-34131758D01*
X118641007Y-34132082D01*
X118984783Y-33990037D01*
X119248032Y-33727247D01*
X119390678Y-33383719D01*
X119391002Y-33011753D01*
X119248957Y-32667977D01*
X119217840Y-32636806D01*
X119217840Y-32612670D01*
X137547240Y-32612670D01*
X137547240Y-33469229D01*
X137643913Y-33702618D01*
X137822541Y-33881247D01*
X138055930Y-33977920D01*
X138760090Y-33977920D01*
X138918840Y-33819170D01*
X138918840Y-32453920D01*
X137705990Y-32453920D01*
X137547240Y-32612670D01*
X119217840Y-32612670D01*
X119217840Y-31184611D01*
X137547240Y-31184611D01*
X137547240Y-32041170D01*
X137705990Y-32199920D01*
X138918840Y-32199920D01*
X138918840Y-30834670D01*
X139172840Y-30834670D01*
X139172840Y-32199920D01*
X139192840Y-32199920D01*
X139192840Y-32453920D01*
X139172840Y-32453920D01*
X139172840Y-33819170D01*
X139331590Y-33977920D01*
X140035750Y-33977920D01*
X140269139Y-33881247D01*
X140447767Y-33702618D01*
X140511340Y-33549140D01*
X140526170Y-33571335D01*
X141012351Y-33896191D01*
X141585840Y-34010265D01*
X142159329Y-33896191D01*
X142645510Y-33571335D01*
X142855840Y-33256554D01*
X143066170Y-33571335D01*
X143552351Y-33896191D01*
X144125840Y-34010265D01*
X144699329Y-33896191D01*
X145185510Y-33571335D01*
X145510366Y-33085154D01*
X145624440Y-32511665D01*
X145624440Y-32142175D01*
X145510366Y-31568686D01*
X145185510Y-31082505D01*
X144699329Y-30757649D01*
X144125840Y-30643575D01*
X143552351Y-30757649D01*
X143066170Y-31082505D01*
X142855840Y-31397286D01*
X142645510Y-31082505D01*
X142159329Y-30757649D01*
X141585840Y-30643575D01*
X141012351Y-30757649D01*
X140526170Y-31082505D01*
X140511340Y-31104700D01*
X140447767Y-30951222D01*
X140269139Y-30772593D01*
X140035750Y-30675920D01*
X139331590Y-30675920D01*
X139172840Y-30834670D01*
X138918840Y-30834670D01*
X138760090Y-30675920D01*
X138055930Y-30675920D01*
X137822541Y-30772593D01*
X137643913Y-30951222D01*
X137547240Y-31184611D01*
X119217840Y-31184611D01*
X119217840Y-31027386D01*
X119248032Y-30997247D01*
X119390678Y-30653719D01*
X119391002Y-30281753D01*
X119248957Y-29937977D01*
X118986167Y-29674728D01*
X118642639Y-29532082D01*
X118270673Y-29531758D01*
X117926897Y-29673803D01*
X117663648Y-29936593D01*
X117521002Y-30280121D01*
X117520678Y-30652087D01*
X111516341Y-30652087D01*
X111516602Y-30353253D01*
X111374557Y-30009477D01*
X111192486Y-29827088D01*
X111424432Y-29595547D01*
X111480051Y-29461602D01*
X149066376Y-29461602D01*
X149421109Y-30320123D01*
X150077382Y-30977542D01*
X150935282Y-31333773D01*
X151864202Y-31334584D01*
X152722723Y-30979851D01*
X153380142Y-30323578D01*
X153736373Y-29465678D01*
X153737184Y-28536758D01*
X153382451Y-27678237D01*
X152726178Y-27020818D01*
X151868278Y-26664587D01*
X150939358Y-26663776D01*
X150080837Y-27018509D01*
X149423418Y-27674782D01*
X149067187Y-28532682D01*
X149066376Y-29461602D01*
X111480051Y-29461602D01*
X111567078Y-29252019D01*
X111567116Y-29207974D01*
X111836170Y-28938920D01*
X147715840Y-28938920D01*
X148007445Y-28880916D01*
X148254655Y-28715735D01*
X152731471Y-24238920D01*
X158262204Y-24238920D01*
X157583997Y-24519149D01*
X156926578Y-25175422D01*
X156570347Y-26033322D01*
X156569536Y-26962242D01*
X156924269Y-27820763D01*
X157580542Y-28478182D01*
X158438442Y-28834413D01*
X159367362Y-28835224D01*
X160225883Y-28480491D01*
X160883302Y-27824218D01*
X161239533Y-26966318D01*
X161240344Y-26037398D01*
X160885611Y-25178877D01*
X160229338Y-24521458D01*
X159548911Y-24238920D01*
X189540210Y-24238920D01*
X199420715Y-34119426D01*
X199420678Y-34162087D01*
X199562723Y-34505863D01*
X199825513Y-34769112D01*
X200169041Y-34911758D01*
X200541007Y-34912082D01*
X200884783Y-34770037D01*
X201148032Y-34507247D01*
X201290678Y-34163719D01*
X201291002Y-33791753D01*
X201148957Y-33447977D01*
X200886167Y-33184728D01*
X200542639Y-33042082D01*
X200498595Y-33042044D01*
X194418793Y-26962242D01*
X231568116Y-26962242D01*
X231922849Y-27820763D01*
X232579122Y-28478182D01*
X233437022Y-28834413D01*
X234365942Y-28835224D01*
X235224463Y-28480491D01*
X235881882Y-27824218D01*
X236238113Y-26966318D01*
X236238924Y-26037398D01*
X235884191Y-25178877D01*
X235227918Y-24521458D01*
X234370018Y-24165227D01*
X233441098Y-24164416D01*
X232582577Y-24519149D01*
X231925158Y-25175422D01*
X231568927Y-26033322D01*
X231568116Y-26962242D01*
X194418793Y-26962242D01*
X190394655Y-22938105D01*
X190319578Y-22887940D01*
X190147445Y-22772924D01*
X189855840Y-22714920D01*
X178039191Y-22714920D01*
X178039202Y-22702773D01*
X177897157Y-22358997D01*
X177634367Y-22095748D01*
X177290839Y-21953102D01*
X176918873Y-21952778D01*
X176575097Y-22094823D01*
X176543926Y-22125940D01*
X175404527Y-22125940D01*
X175498878Y-21898719D01*
X175498886Y-21889720D01*
X191783574Y-21889720D01*
X191813713Y-21919912D01*
X192157241Y-22062558D01*
X192529207Y-22062882D01*
X192872983Y-21920837D01*
X193136232Y-21658047D01*
X193278878Y-21314519D01*
X193278886Y-21305520D01*
X196863574Y-21305520D01*
X196893713Y-21335712D01*
X197237241Y-21478358D01*
X197609207Y-21478682D01*
X197952983Y-21336637D01*
X198216232Y-21073847D01*
X198358878Y-20730319D01*
X198359202Y-20358353D01*
X198217157Y-20014577D01*
X197954367Y-19751328D01*
X197610839Y-19608682D01*
X197238873Y-19608358D01*
X196895097Y-19750403D01*
X196863926Y-19781520D01*
X195727691Y-19781520D01*
X195818878Y-19561919D01*
X195819202Y-19189953D01*
X195677157Y-18846177D01*
X195533251Y-18702020D01*
X199360990Y-18702020D01*
X199391174Y-18732257D01*
X199762257Y-18886344D01*
X200164060Y-18886695D01*
X200535412Y-18733256D01*
X200819777Y-18449386D01*
X200973864Y-18078303D01*
X200974215Y-17676500D01*
X200820776Y-17305148D01*
X200536906Y-17020783D01*
X200165823Y-16866696D01*
X199764020Y-16866345D01*
X199392668Y-17019784D01*
X199361378Y-17051020D01*
X167547090Y-17051020D01*
X167516906Y-17020783D01*
X167145823Y-16866696D01*
X166744020Y-16866345D01*
X166372668Y-17019784D01*
X166341378Y-17051020D01*
X156776953Y-17051020D01*
X156513639Y-16941682D01*
X156495073Y-16941666D01*
X156641702Y-16843692D01*
X156790191Y-16621462D01*
X156842334Y-16359324D01*
X156842334Y-6609080D01*
X156790191Y-6346942D01*
X156641702Y-6124712D01*
X156419472Y-5976223D01*
X156157334Y-5924080D01*
X155160536Y-5924080D01*
X154898398Y-5976223D01*
X154676168Y-6124712D01*
X154527679Y-6346942D01*
X154475536Y-6609080D01*
X154475536Y-14674485D01*
X137184236Y-14674485D01*
X137180320Y-14673706D01*
X136918182Y-14725849D01*
X136695952Y-14874338D01*
X136547463Y-15096568D01*
X136495320Y-15358706D01*
X136495320Y-16344514D01*
X136492374Y-16359324D01*
X136544517Y-16621462D01*
X136693006Y-16843692D01*
X136915236Y-16992181D01*
X137177374Y-17044324D01*
X155892476Y-17044324D01*
X155797897Y-17083403D01*
X155766726Y-17114520D01*
X152686240Y-17114520D01*
X152430852Y-17165320D01*
X152394635Y-17172524D01*
X152147425Y-17337705D01*
X146070210Y-23414920D01*
X121926306Y-23414920D01*
X121896167Y-23384728D01*
X121552639Y-23242082D01*
X121180673Y-23241758D01*
X120836897Y-23383803D01*
X120806928Y-23413720D01*
X119025108Y-23413720D01*
X118996167Y-23384728D01*
X118652639Y-23242082D01*
X118280673Y-23241758D01*
X117936897Y-23383803D01*
X117906928Y-23413720D01*
X107192206Y-23413720D01*
X107162067Y-23383528D01*
X106818539Y-23240882D01*
X106446573Y-23240558D01*
X106102797Y-23382603D01*
X105956948Y-23528198D01*
X105036955Y-22608205D01*
X105019190Y-22596335D01*
X104789745Y-22443024D01*
X104498140Y-22385020D01*
X87744971Y-22385020D01*
X82151555Y-16791605D01*
X81904345Y-16626424D01*
X81612740Y-16568420D01*
X43095306Y-16568420D01*
X43065167Y-16538228D01*
X42721639Y-16395582D01*
X42349673Y-16395258D01*
X42005897Y-16537303D01*
X41742648Y-16800093D01*
X41600002Y-17143621D01*
X41599983Y-17165320D01*
X37964506Y-17165320D01*
X37934367Y-17135128D01*
X37590839Y-16992482D01*
X37218873Y-16992158D01*
X36875097Y-17134203D01*
X36611848Y-17396993D01*
X36469202Y-17740521D01*
X36468878Y-18112487D01*
X36610923Y-18456263D01*
X36873713Y-18719512D01*
X37217241Y-18862158D01*
X37589207Y-18862482D01*
X37932983Y-18720437D01*
X37964154Y-18689320D01*
X39105662Y-18689320D01*
X39009202Y-18921621D01*
X39009194Y-18930620D01*
X22737206Y-18930620D01*
X22707067Y-18900428D01*
X22363539Y-18757782D01*
X21991573Y-18757458D01*
X21647797Y-18899503D01*
X21384548Y-19162293D01*
X21241902Y-19505821D01*
X21241883Y-19527520D01*
X20184506Y-19527520D01*
X20154367Y-19497328D01*
X19810839Y-19354682D01*
X19438873Y-19354358D01*
X19095097Y-19496403D01*
X18831848Y-19759193D01*
X18689202Y-20102721D01*
X18688878Y-20474687D01*
X18830923Y-20818463D01*
X19093713Y-21081712D01*
X19437241Y-21224358D01*
X19809207Y-21224682D01*
X20152983Y-21082637D01*
X20184154Y-21051520D01*
X23768882Y-21051520D01*
X23768878Y-21056347D01*
X23910923Y-21400123D01*
X24173713Y-21663372D01*
X24517241Y-21806018D01*
X24889207Y-21806342D01*
X25232983Y-21664297D01*
X25264154Y-21633180D01*
X81259010Y-21633180D01*
X85841505Y-26215675D01*
X86088715Y-26380856D01*
X86380320Y-26438860D01*
X97987948Y-26438860D01*
X97987678Y-26748487D01*
X98129723Y-27092263D01*
X98392513Y-27355512D01*
X98736041Y-27498158D01*
X99108007Y-27498482D01*
X99451783Y-27356437D01*
X99482954Y-27325320D01*
X102201310Y-27325320D01*
X102504240Y-27628251D01*
X102504240Y-27757120D01*
X100929440Y-27757120D01*
X100637835Y-27815124D01*
X100545357Y-27876916D01*
X100390625Y-27980304D01*
X99529635Y-28841295D01*
X99486973Y-28841258D01*
X99143197Y-28983303D01*
X99112026Y-29014420D01*
X98516440Y-29014420D01*
X98224835Y-29072424D01*
X98135983Y-29131793D01*
X97977625Y-29237604D01*
X97959509Y-29255720D01*
X95787606Y-29255720D01*
X95757467Y-29225528D01*
X95413939Y-29082882D01*
X95041973Y-29082558D01*
X94698197Y-29224603D01*
X94434948Y-29487393D01*
X94292302Y-29830921D01*
X94291978Y-30202887D01*
X94434023Y-30546663D01*
X94696813Y-30809912D01*
X95040341Y-30952558D01*
X95412307Y-30952882D01*
X95756083Y-30810837D01*
X95787254Y-30779720D01*
X98275140Y-30779720D01*
X98566745Y-30721716D01*
X98813955Y-30556535D01*
X98832070Y-30538420D01*
X99111674Y-30538420D01*
X99141813Y-30568612D01*
X99485341Y-30711258D01*
X99857307Y-30711582D01*
X100099234Y-30611620D01*
X100107013Y-30619412D01*
X100450541Y-30762058D01*
X100494586Y-30762096D01*
X100817010Y-31084520D01*
X94786240Y-31084520D01*
X94494635Y-31142524D01*
X94318765Y-31260037D01*
X94247425Y-31307705D01*
X92830210Y-32724920D01*
X73715840Y-32724920D01*
X73444199Y-32778953D01*
X73424235Y-32782924D01*
X73177024Y-32948105D01*
X71100210Y-35024920D01*
X50271470Y-35024920D01*
X50090965Y-34844415D01*
X50091002Y-34801753D01*
X49948957Y-34457977D01*
X49686167Y-34194728D01*
X49342639Y-34052082D01*
X48970673Y-34051758D01*
X48626897Y-34193803D01*
X48363648Y-34456593D01*
X48221002Y-34800121D01*
X48220678Y-35172087D01*
X48362723Y-35515863D01*
X48503135Y-35656520D01*
X36637904Y-35656520D01*
X36606167Y-35624728D01*
X36262639Y-35482082D01*
X35890673Y-35481758D01*
X35546897Y-35623803D01*
X35283648Y-35886593D01*
X35141002Y-36230121D01*
X35140678Y-36602087D01*
X35232750Y-36824920D01*
X1232570Y-36824920D01*
X-10240Y-35582110D01*
X-5368Y-35577247D01*
X137278Y-35233719D01*
X137602Y-34861753D01*
X-4443Y-34517977D01*
X-267233Y-34254728D01*
X-610761Y-34112082D01*
X-982727Y-34111758D01*
X-1326503Y-34253803D01*
X-1589752Y-34516593D01*
X-1732398Y-34860121D01*
X-1732722Y-35232087D01*
X-3814561Y-35232087D01*
X-3814561Y-29461602D01*
X86666196Y-29461602D01*
X87020929Y-30320123D01*
X87677202Y-30977542D01*
X88535102Y-31333773D01*
X89464022Y-31334584D01*
X90322543Y-30979851D01*
X90979962Y-30323578D01*
X91336193Y-29465678D01*
X91337004Y-28536758D01*
X90982271Y-27678237D01*
X90325998Y-27020818D01*
X89468098Y-26664587D01*
X88539178Y-26663776D01*
X87680657Y-27018509D01*
X87023238Y-27674782D01*
X86667007Y-28532682D01*
X86666196Y-29461602D01*
X-3814561Y-29461602D01*
X-3814561Y-26962242D01*
X4169536Y-26962242D01*
X4524269Y-27820763D01*
X5180542Y-28478182D01*
X6038442Y-28834413D01*
X6967362Y-28835224D01*
X7825883Y-28480491D01*
X8483302Y-27824218D01*
X8839533Y-26966318D01*
X8839536Y-26962242D01*
X79168116Y-26962242D01*
X79522849Y-27820763D01*
X80179122Y-28478182D01*
X81037022Y-28834413D01*
X81965942Y-28835224D01*
X82824463Y-28480491D01*
X83481882Y-27824218D01*
X83838113Y-26966318D01*
X83838924Y-26037398D01*
X83484191Y-25178877D01*
X82827918Y-24521458D01*
X81970018Y-24165227D01*
X81041098Y-24164416D01*
X80182577Y-24519149D01*
X79525158Y-25175422D01*
X79168927Y-26033322D01*
X79168116Y-26962242D01*
X8839536Y-26962242D01*
X8840344Y-26037398D01*
X8485611Y-25178877D01*
X7829338Y-24521458D01*
X6971438Y-24165227D01*
X6042518Y-24164416D01*
X5183997Y-24519149D01*
X4526578Y-25175422D01*
X4170347Y-26033322D01*
X4169536Y-26962242D01*
X-3814561Y-26962242D01*
X-3814561Y-6786240D01*
X2992865Y-6786240D01*
X3146304Y-7157592D01*
X3430174Y-7441957D01*
X3801257Y-7596044D01*
X4203060Y-7596395D01*
X4574412Y-7442956D01*
X4605702Y-7411720D01*
X13940990Y-7411720D01*
X13971174Y-7441957D01*
X14342257Y-7596044D01*
X14744060Y-7596395D01*
X15115412Y-7442956D01*
X15146702Y-7411720D01*
X46960990Y-7411720D01*
X46991174Y-7441957D01*
X47362257Y-7596044D01*
X47764060Y-7596395D01*
X48135412Y-7442956D01*
X48419777Y-7159086D01*
X48573864Y-6788003D01*
X48574020Y-6609080D01*
X83555442Y-6609080D01*
X83555442Y-16359324D01*
X83607585Y-16621462D01*
X83756074Y-16843692D01*
X83978304Y-16992181D01*
X84240442Y-17044324D01*
X84240501Y-17044312D01*
X84240560Y-17044324D01*
X103220520Y-17044324D01*
X103482658Y-16992181D01*
X103704888Y-16843692D01*
X103853377Y-16621462D01*
X103905520Y-16359324D01*
X103905468Y-16359061D01*
X103905520Y-16358798D01*
X103905520Y-15561422D01*
X104226983Y-15428597D01*
X104258154Y-15397480D01*
X105177880Y-15397480D01*
X105177880Y-16358798D01*
X105230023Y-16620936D01*
X105378512Y-16843166D01*
X105600742Y-16991655D01*
X105862880Y-17043798D01*
X134537960Y-17043798D01*
X134800098Y-16991655D01*
X135022328Y-16843166D01*
X135170817Y-16620936D01*
X135222960Y-16358798D01*
X135222960Y-15358706D01*
X135170817Y-15096568D01*
X135022328Y-14874338D01*
X134800098Y-14725849D01*
X134537960Y-14673706D01*
X120913043Y-14673706D01*
X121010392Y-14576527D01*
X121153038Y-14232999D01*
X121153200Y-14046950D01*
X121478040Y-14111565D01*
X122051529Y-13997491D01*
X122537710Y-13672635D01*
X122748040Y-13357854D01*
X122958370Y-13672635D01*
X123444551Y-13997491D01*
X124018040Y-14111565D01*
X124591529Y-13997491D01*
X125077710Y-13672635D01*
X125288040Y-13357854D01*
X125498370Y-13672635D01*
X125984551Y-13997491D01*
X126558040Y-14111565D01*
X127131529Y-13997491D01*
X127617710Y-13672635D01*
X127629056Y-13655654D01*
X127636283Y-13691985D01*
X127776631Y-13902029D01*
X127986675Y-14042377D01*
X128234440Y-14091660D01*
X129961640Y-14091660D01*
X130209405Y-14042377D01*
X130419449Y-13902029D01*
X130559797Y-13691985D01*
X130609080Y-13444220D01*
X130609080Y-11663680D01*
X132301854Y-11663680D01*
X132331993Y-11693872D01*
X132675521Y-11836518D01*
X133047487Y-11836842D01*
X133391263Y-11694797D01*
X133654512Y-11432007D01*
X133797158Y-11088479D01*
X133797312Y-10911840D01*
X136111854Y-10911840D01*
X136141993Y-10942032D01*
X136485521Y-11084678D01*
X136857487Y-11085002D01*
X137201263Y-10942957D01*
X137464512Y-10680167D01*
X137607158Y-10336639D01*
X137607215Y-10271256D01*
X137755521Y-10332838D01*
X138127487Y-10333162D01*
X138471263Y-10191117D01*
X138734512Y-9928327D01*
X138877158Y-9584799D01*
X138877209Y-9526602D01*
X139020441Y-9586078D01*
X139392407Y-9586402D01*
X139736183Y-9444357D01*
X139774988Y-9405620D01*
X140170774Y-9405620D01*
X140200913Y-9435812D01*
X140544441Y-9578458D01*
X140916407Y-9578782D01*
X141260183Y-9436737D01*
X141523432Y-9173947D01*
X141666078Y-8830419D01*
X141666402Y-8458453D01*
X141524357Y-8114677D01*
X141261567Y-7851428D01*
X140918039Y-7708782D01*
X140546073Y-7708458D01*
X140202297Y-7850503D01*
X140171126Y-7881620D01*
X139760100Y-7881620D01*
X139737567Y-7859048D01*
X139394039Y-7716402D01*
X139327687Y-7716344D01*
X139328130Y-7209122D01*
X139117634Y-6699683D01*
X138760105Y-6341530D01*
X139962890Y-6341530D01*
X140210655Y-6292247D01*
X140420699Y-6151899D01*
X140561047Y-5941855D01*
X140610330Y-5694090D01*
X140610330Y-4192950D01*
X140561047Y-3945185D01*
X140420699Y-3735141D01*
X140210655Y-3594793D01*
X139962890Y-3545510D01*
X138461750Y-3545510D01*
X138213985Y-3594793D01*
X138003941Y-3735141D01*
X137863593Y-3945185D01*
X137825365Y-4137375D01*
X137458207Y-3769576D01*
X136949136Y-3558191D01*
X136397922Y-3557710D01*
X135888483Y-3768206D01*
X135498376Y-4157633D01*
X135402345Y-4388901D01*
X135307634Y-4159683D01*
X135063215Y-3914837D01*
X135217131Y-3544167D01*
X135217508Y-3112527D01*
X135129013Y-2898353D01*
X144076105Y-2898353D01*
X144316899Y-3481117D01*
X144762377Y-3927374D01*
X145344721Y-4169184D01*
X145975273Y-4169735D01*
X146558037Y-3928941D01*
X147004294Y-3483463D01*
X147246104Y-2901119D01*
X147246655Y-2270567D01*
X147005861Y-1687803D01*
X146560383Y-1241546D01*
X145978039Y-999736D01*
X145347487Y-999185D01*
X144764723Y-1239979D01*
X144318466Y-1685457D01*
X144076656Y-2267801D01*
X144076105Y-2898353D01*
X135129013Y-2898353D01*
X135052674Y-2713600D01*
X134747725Y-2408118D01*
X134349087Y-2242589D01*
X133917447Y-2242212D01*
X133518520Y-2407046D01*
X133487111Y-2438400D01*
X129743674Y-2438400D01*
X129713445Y-2408118D01*
X129314807Y-2242589D01*
X128883167Y-2242212D01*
X128484240Y-2407046D01*
X128452831Y-2438400D01*
X105639074Y-2438400D01*
X105608845Y-2408118D01*
X105210207Y-2242589D01*
X104778567Y-2242212D01*
X104379640Y-2407046D01*
X104074158Y-2711995D01*
X103908629Y-3110633D01*
X103908252Y-3542273D01*
X104045257Y-3873850D01*
X103816956Y-4101753D01*
X103727521Y-4317136D01*
X103663831Y-4163375D01*
X103422830Y-4095315D01*
X102630505Y-4887640D01*
X103422830Y-5679965D01*
X103663831Y-5611905D01*
X103722669Y-5446600D01*
X103815586Y-5671477D01*
X104205013Y-6061584D01*
X104714084Y-6272969D01*
X105265298Y-6273450D01*
X105774737Y-6062954D01*
X106164844Y-5673527D01*
X106260875Y-5442259D01*
X106355586Y-5671477D01*
X106745013Y-6061584D01*
X107254084Y-6272969D01*
X107805298Y-6273450D01*
X108314737Y-6062954D01*
X108684045Y-5694290D01*
X108722173Y-5885975D01*
X108826488Y-6042092D01*
X108526502Y-6041830D01*
X108017063Y-6252326D01*
X107626956Y-6641753D01*
X107530925Y-6873021D01*
X107436214Y-6643803D01*
X107046787Y-6253696D01*
X106537716Y-6042311D01*
X105986502Y-6041830D01*
X105477063Y-6252326D01*
X105086956Y-6641753D01*
X104990925Y-6873021D01*
X104896214Y-6643803D01*
X104506787Y-6253696D01*
X103997716Y-6042311D01*
X103446502Y-6041830D01*
X102937063Y-6252326D01*
X102546956Y-6641753D01*
X102457521Y-6857136D01*
X102393831Y-6703375D01*
X102152830Y-6635315D01*
X101360505Y-7427640D01*
X102152830Y-8219965D01*
X102393831Y-8151905D01*
X102452669Y-7986600D01*
X102545586Y-8211477D01*
X102935013Y-8601584D01*
X103444084Y-8812969D01*
X103995298Y-8813450D01*
X104504737Y-8602954D01*
X104894844Y-8213527D01*
X104990875Y-7982259D01*
X105085586Y-8211477D01*
X105475013Y-8601584D01*
X105984084Y-8812969D01*
X106535298Y-8813450D01*
X107044737Y-8602954D01*
X107434844Y-8213527D01*
X107530875Y-7982259D01*
X107625586Y-8211477D01*
X108015013Y-8601584D01*
X108200603Y-8678648D01*
X108011248Y-8867673D01*
X107868602Y-9211201D01*
X107868545Y-9276584D01*
X107720239Y-9215002D01*
X107348273Y-9214678D01*
X107004497Y-9356723D01*
X106741248Y-9619513D01*
X106598602Y-9963041D01*
X106598448Y-10139680D01*
X104278826Y-10139680D01*
X104248687Y-10109488D01*
X103905159Y-9966842D01*
X103533193Y-9966518D01*
X103189417Y-10108563D01*
X102926168Y-10371353D01*
X102783522Y-10714881D01*
X102783198Y-11086847D01*
X102783259Y-11086994D01*
X102638370Y-11183805D01*
X102431579Y-11493289D01*
X102060076Y-11077488D01*
X101532831Y-10823511D01*
X101517066Y-10820862D01*
X101285040Y-10942003D01*
X101285040Y-12301220D01*
X101305040Y-12301220D01*
X101305040Y-12555220D01*
X101285040Y-12555220D01*
X101285040Y-13914437D01*
X101517066Y-14035578D01*
X101532831Y-14032929D01*
X102060076Y-13778952D01*
X102431579Y-13363151D01*
X102638370Y-13672635D01*
X103058146Y-13953121D01*
X102905848Y-14105153D01*
X102763202Y-14448681D01*
X102763005Y-14674485D01*
X85925534Y-14674485D01*
X85925534Y-12790133D01*
X99672856Y-12790133D01*
X99866086Y-13342540D01*
X100256004Y-13778952D01*
X100783249Y-14032929D01*
X100799014Y-14035578D01*
X101031040Y-13914437D01*
X101031040Y-12555220D01*
X99817116Y-12555220D01*
X99672856Y-12790133D01*
X85925534Y-12790133D01*
X85925534Y-12066307D01*
X99672856Y-12066307D01*
X99817116Y-12301220D01*
X101031040Y-12301220D01*
X101031040Y-10942003D01*
X100799014Y-10820862D01*
X100783249Y-10823511D01*
X100256004Y-11077488D01*
X99866086Y-11513900D01*
X99672856Y-12066307D01*
X85925534Y-12066307D01*
X85925534Y-8399570D01*
X100388575Y-8399570D01*
X100456635Y-8640571D01*
X100975934Y-8825407D01*
X101526438Y-8797445D01*
X101905165Y-8640571D01*
X101973225Y-8399570D01*
X101180900Y-7607245D01*
X100388575Y-8399570D01*
X85925534Y-8399570D01*
X85925534Y-7222674D01*
X99783133Y-7222674D01*
X99811095Y-7773178D01*
X99967969Y-8151905D01*
X100208970Y-8219965D01*
X101001295Y-7427640D01*
X100208970Y-6635315D01*
X99967969Y-6703375D01*
X99783133Y-7222674D01*
X85925534Y-7222674D01*
X85925534Y-6609080D01*
X85895027Y-6455710D01*
X100388575Y-6455710D01*
X101180900Y-7248035D01*
X101973225Y-6455710D01*
X101905165Y-6214709D01*
X101385866Y-6029873D01*
X100835362Y-6057835D01*
X100456635Y-6214709D01*
X100388575Y-6455710D01*
X85895027Y-6455710D01*
X85873391Y-6346942D01*
X85724902Y-6124712D01*
X85502672Y-5976223D01*
X85240534Y-5924080D01*
X84240442Y-5924080D01*
X83978304Y-5976223D01*
X83756074Y-6124712D01*
X83607585Y-6346942D01*
X83555442Y-6609080D01*
X48574020Y-6609080D01*
X48574215Y-6386200D01*
X48420776Y-6014848D01*
X48265769Y-5859570D01*
X101658575Y-5859570D01*
X101726635Y-6100571D01*
X102245934Y-6285407D01*
X102796438Y-6257445D01*
X103175165Y-6100571D01*
X103243225Y-5859570D01*
X102450900Y-5067245D01*
X101658575Y-5859570D01*
X48265769Y-5859570D01*
X48136906Y-5730483D01*
X47765823Y-5576396D01*
X47364020Y-5576045D01*
X46992668Y-5729484D01*
X46961378Y-5760720D01*
X15147090Y-5760720D01*
X15116906Y-5730483D01*
X14745823Y-5576396D01*
X14344020Y-5576045D01*
X13972668Y-5729484D01*
X13941378Y-5760720D01*
X4606090Y-5760720D01*
X4575906Y-5730483D01*
X4204823Y-5576396D01*
X3803020Y-5576045D01*
X3431668Y-5729484D01*
X3147303Y-6013354D01*
X2993216Y-6384437D01*
X2992865Y-6786240D01*
X-3814561Y-6786240D01*
X-3814561Y-4682674D01*
X101053133Y-4682674D01*
X101081095Y-5233178D01*
X101237969Y-5611905D01*
X101478970Y-5679965D01*
X102271295Y-4887640D01*
X101478970Y-4095315D01*
X101237969Y-4163375D01*
X101053133Y-4682674D01*
X-3814561Y-4682674D01*
X-3814561Y-462422D01*
X-2335404Y-462422D01*
X-1980671Y-1320943D01*
X-1324398Y-1978362D01*
X-466498Y-2334593D01*
X462422Y-2335404D01*
X1320943Y-1980671D01*
X1978362Y-1324398D01*
X2334593Y-466498D01*
X2335404Y462422D01*
X1980671Y1320943D01*
X1324398Y1978362D01*
X466498Y2334593D01*
X-462422Y2335404D01*
X-1320943Y1980671D01*
X-1978362Y1324398D01*
X-2334593Y466498D01*
X-2335404Y-462422D01*
X-3814561Y-462422D01*
X-3814561Y6315563D01*
X5017719Y6315563D01*
X4526578Y5825278D01*
G36*
X90430536Y-42536686D02*
X90432457Y-42538607D01*
X90446290Y-42740760D01*
X90346703Y-42840348D01*
X90332560Y-42826205D01*
X90318418Y-42840348D01*
X90235000Y-42756930D01*
X90235000Y-42536515D01*
X90430536Y-42536686D01*
X90430536Y-42536686D01*
G37*
X90430536Y-42536686D02*
X90432457Y-42538607D01*
X90446290Y-42740760D01*
X90346703Y-42840348D01*
X90332560Y-42826205D01*
X90318418Y-42840348D01*
X90235000Y-42756930D01*
X90235000Y-42536515D01*
X90430536Y-42536686D01*
G36*
X91700536Y-42536686D02*
X91712645Y-42548795D01*
X91712474Y-42744576D01*
X91616702Y-42840348D01*
X91602560Y-42826205D01*
X91588418Y-42840348D01*
X91502662Y-42754592D01*
X91488830Y-42552440D01*
X91504755Y-42536515D01*
X91700536Y-42536686D01*
X91700536Y-42536686D01*
G37*
X91700536Y-42536686D02*
X91712645Y-42548795D01*
X91712474Y-42744576D01*
X91616702Y-42840348D01*
X91602560Y-42826205D01*
X91588418Y-42840348D01*
X91502662Y-42754592D01*
X91488830Y-42552440D01*
X91504755Y-42536515D01*
X91700536Y-42536686D01*
G36*
X99685556Y-40539707D02*
X99829816Y-40774620D01*
X101043740Y-40774620D01*
X101043740Y-40754620D01*
X101297740Y-40754620D01*
X101297740Y-40774620D01*
X101317740Y-40774620D01*
X101317740Y-41028620D01*
X101297740Y-41028620D01*
X101297740Y-41048620D01*
X101043740Y-41048620D01*
X101043740Y-41028620D01*
X99829816Y-41028620D01*
X99685556Y-41263533D01*
X99878786Y-41815940D01*
X100089911Y-42052240D01*
X95895830Y-42052240D01*
X95302489Y-41458899D01*
X95302761Y-41146874D01*
X95126534Y-40720371D01*
X94800505Y-40393773D01*
X94374311Y-40216802D01*
X93912834Y-40216399D01*
X93507088Y-40384049D01*
X93104311Y-40216802D01*
X92650486Y-40216406D01*
X92745895Y-40152655D01*
X92847830Y-40050720D01*
X99856602Y-40050720D01*
X99685556Y-40539707D01*
X99685556Y-40539707D01*
G37*
X99685556Y-40539707D02*
X99829816Y-40774620D01*
X101043740Y-40774620D01*
X101043740Y-40754620D01*
X101297740Y-40754620D01*
X101297740Y-40774620D01*
X101317740Y-40774620D01*
X101317740Y-41028620D01*
X101297740Y-41028620D01*
X101297740Y-41048620D01*
X101043740Y-41048620D01*
X101043740Y-41028620D01*
X99829816Y-41028620D01*
X99685556Y-41263533D01*
X99878786Y-41815940D01*
X100089911Y-42052240D01*
X95895830Y-42052240D01*
X95302489Y-41458899D01*
X95302761Y-41146874D01*
X95126534Y-40720371D01*
X94800505Y-40393773D01*
X94374311Y-40216802D01*
X93912834Y-40216399D01*
X93507088Y-40384049D01*
X93104311Y-40216802D01*
X92650486Y-40216406D01*
X92745895Y-40152655D01*
X92847830Y-40050720D01*
X99856602Y-40050720D01*
X99685556Y-40539707D01*
G36*
X111445040Y-12301220D02*
X111465040Y-12301220D01*
X111465040Y-12555220D01*
X111445040Y-12555220D01*
X111445040Y-12575220D01*
X111191040Y-12575220D01*
X111191040Y-12555220D01*
X111171040Y-12555220D01*
X111171040Y-12301220D01*
X111191040Y-12301220D01*
X111191040Y-12281220D01*
X111445040Y-12281220D01*
X111445040Y-12301220D01*
X111445040Y-12301220D01*
G37*
X111445040Y-12301220D02*
X111465040Y-12301220D01*
X111465040Y-12555220D01*
X111445040Y-12555220D01*
X111445040Y-12575220D01*
X111191040Y-12575220D01*
X111191040Y-12555220D01*
X111171040Y-12555220D01*
X111171040Y-12301220D01*
X111191040Y-12301220D01*
X111191040Y-12281220D01*
X111445040Y-12281220D01*
X111445040Y-12301220D01*
G36*
X119065040Y-12301220D02*
X119085040Y-12301220D01*
X119085040Y-12555220D01*
X119065040Y-12555220D01*
X119065040Y-12575220D01*
X118811040Y-12575220D01*
X118811040Y-12555220D01*
X118791040Y-12555220D01*
X118791040Y-12301220D01*
X118811040Y-12301220D01*
X118811040Y-12281220D01*
X119065040Y-12281220D01*
X119065040Y-12301220D01*
X119065040Y-12301220D01*
G37*
X119065040Y-12301220D02*
X119085040Y-12301220D01*
X119085040Y-12555220D01*
X119065040Y-12555220D01*
X119065040Y-12575220D01*
X118811040Y-12575220D01*
X118811040Y-12555220D01*
X118791040Y-12555220D01*
X118791040Y-12301220D01*
X118811040Y-12301220D01*
X118811040Y-12281220D01*
X119065040Y-12281220D01*
X119065040Y-12301220D01*
G36*
X128482635Y-4246682D02*
X128881273Y-4412211D01*
X129312913Y-4412588D01*
X129711840Y-4247754D01*
X129743249Y-4216400D01*
X130393974Y-4216400D01*
X130206991Y-4666704D01*
X130206510Y-5217918D01*
X130417006Y-5727357D01*
X130806433Y-6117464D01*
X131315504Y-6328849D01*
X131866718Y-6329330D01*
X132376157Y-6118834D01*
X132766264Y-5729407D01*
X132862295Y-5498139D01*
X132957006Y-5727357D01*
X133346433Y-6117464D01*
X133855504Y-6328849D01*
X134406718Y-6329330D01*
X134916157Y-6118834D01*
X135306264Y-5729407D01*
X135402295Y-5498139D01*
X135497006Y-5727357D01*
X135886433Y-6117464D01*
X136395504Y-6328849D01*
X136946718Y-6329330D01*
X137456157Y-6118834D01*
X137825465Y-5750170D01*
X137863593Y-5941855D01*
X137967908Y-6097972D01*
X137667922Y-6097710D01*
X137158483Y-6308206D01*
X136768376Y-6697633D01*
X136672345Y-6928901D01*
X136577634Y-6699683D01*
X136188207Y-6309576D01*
X135679136Y-6098191D01*
X135127922Y-6097710D01*
X134618483Y-6308206D01*
X134228376Y-6697633D01*
X134132345Y-6928901D01*
X134037634Y-6699683D01*
X133648207Y-6309576D01*
X133139136Y-6098191D01*
X132587922Y-6097710D01*
X132078483Y-6308206D01*
X131688376Y-6697633D01*
X131598941Y-6913016D01*
X131535251Y-6759255D01*
X131294250Y-6691195D01*
X130501925Y-7483520D01*
X130516068Y-7497663D01*
X130336463Y-7677268D01*
X130322320Y-7663125D01*
X130308178Y-7677268D01*
X130128573Y-7497663D01*
X130142715Y-7483520D01*
X129350390Y-6691195D01*
X129109389Y-6759255D01*
X128924553Y-7278554D01*
X128952515Y-7829058D01*
X128974287Y-7881620D01*
X124581042Y-7881620D01*
X124548367Y-7848888D01*
X124204839Y-7706242D01*
X123832873Y-7705918D01*
X123489097Y-7847963D01*
X123455381Y-7881620D01*
X122728153Y-7881620D01*
X122728162Y-7871713D01*
X122586117Y-7527937D01*
X122323327Y-7264688D01*
X121979799Y-7122042D01*
X121607833Y-7121718D01*
X121264057Y-7263763D01*
X121232886Y-7294880D01*
X111573715Y-7294880D01*
X111548647Y-7269768D01*
X111205119Y-7127122D01*
X110833153Y-7126798D01*
X110489377Y-7268843D01*
X110226128Y-7531633D01*
X110186296Y-7627558D01*
X110186710Y-7153242D01*
X109976214Y-6643803D01*
X109844232Y-6511590D01*
X129529995Y-6511590D01*
X130322320Y-7303915D01*
X131114645Y-6511590D01*
X131046585Y-6270589D01*
X130527286Y-6085753D01*
X129976782Y-6113715D01*
X129598055Y-6270589D01*
X129529995Y-6511590D01*
X109844232Y-6511590D01*
X109618685Y-6285650D01*
X110821470Y-6285650D01*
X111069235Y-6236367D01*
X111279279Y-6096019D01*
X111419627Y-5885975D01*
X111468910Y-5638210D01*
X111468910Y-4216400D01*
X128452406Y-4216400D01*
X128482635Y-4246682D01*
X128482635Y-4246682D01*
G37*
X128482635Y-4246682D02*
X128881273Y-4412211D01*
X129312913Y-4412588D01*
X129711840Y-4247754D01*
X129743249Y-4216400D01*
X130393974Y-4216400D01*
X130206991Y-4666704D01*
X130206510Y-5217918D01*
X130417006Y-5727357D01*
X130806433Y-6117464D01*
X131315504Y-6328849D01*
X131866718Y-6329330D01*
X132376157Y-6118834D01*
X132766264Y-5729407D01*
X132862295Y-5498139D01*
X132957006Y-5727357D01*
X133346433Y-6117464D01*
X133855504Y-6328849D01*
X134406718Y-6329330D01*
X134916157Y-6118834D01*
X135306264Y-5729407D01*
X135402295Y-5498139D01*
X135497006Y-5727357D01*
X135886433Y-6117464D01*
X136395504Y-6328849D01*
X136946718Y-6329330D01*
X137456157Y-6118834D01*
X137825465Y-5750170D01*
X137863593Y-5941855D01*
X137967908Y-6097972D01*
X137667922Y-6097710D01*
X137158483Y-6308206D01*
X136768376Y-6697633D01*
X136672345Y-6928901D01*
X136577634Y-6699683D01*
X136188207Y-6309576D01*
X135679136Y-6098191D01*
X135127922Y-6097710D01*
X134618483Y-6308206D01*
X134228376Y-6697633D01*
X134132345Y-6928901D01*
X134037634Y-6699683D01*
X133648207Y-6309576D01*
X133139136Y-6098191D01*
X132587922Y-6097710D01*
X132078483Y-6308206D01*
X131688376Y-6697633D01*
X131598941Y-6913016D01*
X131535251Y-6759255D01*
X131294250Y-6691195D01*
X130501925Y-7483520D01*
X130516068Y-7497663D01*
X130336463Y-7677268D01*
X130322320Y-7663125D01*
X130308178Y-7677268D01*
X130128573Y-7497663D01*
X130142715Y-7483520D01*
X129350390Y-6691195D01*
X129109389Y-6759255D01*
X128924553Y-7278554D01*
X128952515Y-7829058D01*
X128974287Y-7881620D01*
X124581042Y-7881620D01*
X124548367Y-7848888D01*
X124204839Y-7706242D01*
X123832873Y-7705918D01*
X123489097Y-7847963D01*
X123455381Y-7881620D01*
X122728153Y-7881620D01*
X122728162Y-7871713D01*
X122586117Y-7527937D01*
X122323327Y-7264688D01*
X121979799Y-7122042D01*
X121607833Y-7121718D01*
X121264057Y-7263763D01*
X121232886Y-7294880D01*
X111573715Y-7294880D01*
X111548647Y-7269768D01*
X111205119Y-7127122D01*
X110833153Y-7126798D01*
X110489377Y-7268843D01*
X110226128Y-7531633D01*
X110186296Y-7627558D01*
X110186710Y-7153242D01*
X109976214Y-6643803D01*
X109844232Y-6511590D01*
X129529995Y-6511590D01*
X130322320Y-7303915D01*
X131114645Y-6511590D01*
X131046585Y-6270589D01*
X130527286Y-6085753D01*
X129976782Y-6113715D01*
X129598055Y-6270589D01*
X129529995Y-6511590D01*
X109844232Y-6511590D01*
X109618685Y-6285650D01*
X110821470Y-6285650D01*
X111069235Y-6236367D01*
X111279279Y-6096019D01*
X111419627Y-5885975D01*
X111468910Y-5638210D01*
X111468910Y-4216400D01*
X128452406Y-4216400D01*
X128482635Y-4246682D01*
M02*
