G04 #@! TF.GenerationSoftware,KiCad,Pcbnew,5.0.2-bee76a0~70~ubuntu18.04.1*
G04 #@! TF.CreationDate,2019-04-01T12:32:04+02:00*
G04 #@! TF.ProjectId,footswitch,666f6f74-7377-4697-9463-682e6b696361,rev?*
G04 #@! TF.SameCoordinates,PX1ae5c80PY3d0c318*
G04 #@! TF.FileFunction,Other,Fab,Top*
%FSLAX46Y46*%
G04 Gerber Fmt 4.6, Leading zero omitted, Abs format (unit mm)*
G04 Created by KiCad (PCBNEW 5.0.2-bee76a0~70~ubuntu18.04.1) date Mon 01 Apr 2019 12:32:04 PM CEST*
%MOMM*%
%LPD*%
G01*
G04 APERTURE LIST*
%ADD10C,0.100000*%
%ADD11C,0.150000*%
G04 APERTURE END LIST*
G04 #@! TO.C,U1*
D10*
X120042106Y-34129853D02*
X119342106Y-34129853D01*
X120008773Y-33829853D02*
X120042106Y-33729853D01*
X120042106Y-33563186D01*
X120008773Y-33496520D01*
X119975440Y-33463186D01*
X119908773Y-33429853D01*
X119842106Y-33429853D01*
X119775440Y-33463186D01*
X119742106Y-33496520D01*
X119708773Y-33563186D01*
X119675440Y-33696520D01*
X119642106Y-33763186D01*
X119608773Y-33796520D01*
X119542106Y-33829853D01*
X119475440Y-33829853D01*
X119408773Y-33796520D01*
X119375440Y-33763186D01*
X119342106Y-33696520D01*
X119342106Y-33529853D01*
X119375440Y-33429853D01*
X120042106Y-32796520D02*
X120042106Y-33129853D01*
X119342106Y-33129853D01*
X119642106Y-32463186D02*
X119608773Y-32529853D01*
X119575440Y-32563186D01*
X119508773Y-32596520D01*
X119475440Y-32596520D01*
X119408773Y-32563186D01*
X119375440Y-32529853D01*
X119342106Y-32463186D01*
X119342106Y-32329853D01*
X119375440Y-32263186D01*
X119408773Y-32229853D01*
X119475440Y-32196520D01*
X119508773Y-32196520D01*
X119575440Y-32229853D01*
X119608773Y-32263186D01*
X119642106Y-32329853D01*
X119642106Y-32463186D01*
X119675440Y-32529853D01*
X119708773Y-32563186D01*
X119775440Y-32596520D01*
X119908773Y-32596520D01*
X119975440Y-32563186D01*
X120008773Y-32529853D01*
X120042106Y-32463186D01*
X120042106Y-32329853D01*
X120008773Y-32263186D01*
X119975440Y-32229853D01*
X119908773Y-32196520D01*
X119775440Y-32196520D01*
X119708773Y-32229853D01*
X119675440Y-32263186D01*
X119642106Y-32329853D01*
X119342106Y-31963186D02*
X119342106Y-31529853D01*
X119608773Y-31763186D01*
X119608773Y-31663186D01*
X119642106Y-31596520D01*
X119675440Y-31563186D01*
X119742106Y-31529853D01*
X119908773Y-31529853D01*
X119975440Y-31563186D01*
X120008773Y-31596520D01*
X120042106Y-31663186D01*
X120042106Y-31863186D01*
X120008773Y-31929853D01*
X119975440Y-31963186D01*
X119575440Y-30929853D02*
X120042106Y-30929853D01*
X119308773Y-31096520D02*
X119808773Y-31263186D01*
X119808773Y-30829853D01*
X120042106Y-30529853D02*
X120042106Y-30396520D01*
X120008773Y-30329853D01*
X119975440Y-30296520D01*
X119875440Y-30229853D01*
X119742106Y-30196520D01*
X119475440Y-30196520D01*
X119408773Y-30229853D01*
X119375440Y-30263186D01*
X119342106Y-30329853D01*
X119342106Y-30463186D01*
X119375440Y-30529853D01*
X119408773Y-30563186D01*
X119475440Y-30596520D01*
X119642106Y-30596520D01*
X119708773Y-30563186D01*
X119742106Y-30529853D01*
X119775440Y-30463186D01*
X119775440Y-30329853D01*
X119742106Y-30263186D01*
X119708773Y-30229853D01*
X119642106Y-30196520D01*
X120042106Y-29529853D02*
X120042106Y-29929853D01*
X120042106Y-29729853D02*
X119342106Y-29729853D01*
X119442106Y-29796520D01*
X119508773Y-29863186D01*
X119542106Y-29929853D01*
G04 #@! TO.C,P8*
X126294073Y-41151620D02*
X126260740Y-41184953D01*
X126160740Y-41218286D01*
X126094073Y-41218286D01*
X125994073Y-41184953D01*
X125927406Y-41118286D01*
X125894073Y-41051620D01*
X125860740Y-40918286D01*
X125860740Y-40818286D01*
X125894073Y-40684953D01*
X125927406Y-40618286D01*
X125994073Y-40551620D01*
X126094073Y-40518286D01*
X126160740Y-40518286D01*
X126260740Y-40551620D01*
X126294073Y-40584953D01*
X126727406Y-40518286D02*
X126860740Y-40518286D01*
X126927406Y-40551620D01*
X126994073Y-40618286D01*
X127027406Y-40751620D01*
X127027406Y-40984953D01*
X126994073Y-41118286D01*
X126927406Y-41184953D01*
X126860740Y-41218286D01*
X126727406Y-41218286D01*
X126660740Y-41184953D01*
X126594073Y-41118286D01*
X126560740Y-40984953D01*
X126560740Y-40751620D01*
X126594073Y-40618286D01*
X126660740Y-40551620D01*
X126727406Y-40518286D01*
X127327406Y-41218286D02*
X127327406Y-40518286D01*
X127727406Y-41218286D01*
X127727406Y-40518286D01*
X128060740Y-41218286D02*
X128060740Y-40518286D01*
X128460740Y-41218286D01*
X128460740Y-40518286D01*
X128627406Y-41284953D02*
X129160740Y-41284953D01*
X129460740Y-40518286D02*
X129527406Y-40518286D01*
X129594073Y-40551620D01*
X129627406Y-40584953D01*
X129660740Y-40651620D01*
X129694073Y-40784953D01*
X129694073Y-40951620D01*
X129660740Y-41084953D01*
X129627406Y-41151620D01*
X129594073Y-41184953D01*
X129527406Y-41218286D01*
X129460740Y-41218286D01*
X129394073Y-41184953D01*
X129360740Y-41151620D01*
X129327406Y-41084953D01*
X129294073Y-40951620D01*
X129294073Y-40784953D01*
X129327406Y-40651620D01*
X129360740Y-40584953D01*
X129394073Y-40551620D01*
X129460740Y-40518286D01*
X130360740Y-41218286D02*
X129960740Y-41218286D01*
X130160740Y-41218286D02*
X130160740Y-40518286D01*
X130094073Y-40618286D01*
X130027406Y-40684953D01*
X129960740Y-40718286D01*
X130594073Y-40518286D02*
X131060740Y-41218286D01*
X131060740Y-40518286D02*
X130594073Y-41218286D01*
X131694073Y-41218286D02*
X131294073Y-41218286D01*
X131494073Y-41218286D02*
X131494073Y-40518286D01*
X131427406Y-40618286D01*
X131360740Y-40684953D01*
X131294073Y-40718286D01*
X131960740Y-40584953D02*
X131994073Y-40551620D01*
X132060740Y-40518286D01*
X132227406Y-40518286D01*
X132294073Y-40551620D01*
X132327406Y-40584953D01*
X132360740Y-40651620D01*
X132360740Y-40718286D01*
X132327406Y-40818286D01*
X131927406Y-41218286D01*
X132360740Y-41218286D01*
G04 #@! TO.C,C9*
X131875506Y-13778666D02*
X131475506Y-13778666D01*
X131675506Y-13778666D02*
X131675506Y-13078666D01*
X131608840Y-13178666D01*
X131542173Y-13245333D01*
X131475506Y-13278666D01*
X132308840Y-13078666D02*
X132375506Y-13078666D01*
X132442173Y-13112000D01*
X132475506Y-13145333D01*
X132508840Y-13212000D01*
X132542173Y-13345333D01*
X132542173Y-13512000D01*
X132508840Y-13645333D01*
X132475506Y-13712000D01*
X132442173Y-13745333D01*
X132375506Y-13778666D01*
X132308840Y-13778666D01*
X132242173Y-13745333D01*
X132208840Y-13712000D01*
X132175506Y-13645333D01*
X132142173Y-13512000D01*
X132142173Y-13345333D01*
X132175506Y-13212000D01*
X132208840Y-13145333D01*
X132242173Y-13112000D01*
X132308840Y-13078666D01*
X132975506Y-13078666D02*
X133042173Y-13078666D01*
X133108840Y-13112000D01*
X133142173Y-13145333D01*
X133175506Y-13212000D01*
X133208840Y-13345333D01*
X133208840Y-13512000D01*
X133175506Y-13645333D01*
X133142173Y-13712000D01*
X133108840Y-13745333D01*
X133042173Y-13778666D01*
X132975506Y-13778666D01*
X132908840Y-13745333D01*
X132875506Y-13712000D01*
X132842173Y-13645333D01*
X132808840Y-13512000D01*
X132808840Y-13345333D01*
X132842173Y-13212000D01*
X132875506Y-13145333D01*
X132908840Y-13112000D01*
X132975506Y-13078666D01*
X133508840Y-13312000D02*
X133508840Y-13778666D01*
X133508840Y-13378666D02*
X133542173Y-13345333D01*
X133608840Y-13312000D01*
X133708840Y-13312000D01*
X133775506Y-13345333D01*
X133808840Y-13412000D01*
X133808840Y-13778666D01*
X134375506Y-13412000D02*
X134142173Y-13412000D01*
X134142173Y-13778666D02*
X134142173Y-13078666D01*
X134475506Y-13078666D01*
G04 #@! TO.C,DS1*
X6970706Y4550880D02*
X7204040Y4550880D01*
X7304040Y4184214D02*
X6970706Y4184214D01*
X6970706Y4884214D01*
X7304040Y4884214D01*
X8004040Y4184214D02*
X7770706Y4517547D01*
X7604040Y4184214D02*
X7604040Y4884214D01*
X7870706Y4884214D01*
X7937373Y4850880D01*
X7970706Y4817547D01*
X8004040Y4750880D01*
X8004040Y4650880D01*
X7970706Y4584214D01*
X7937373Y4550880D01*
X7870706Y4517547D01*
X7604040Y4517547D01*
X8304040Y4184214D02*
X8304040Y4884214D01*
X8537373Y4384214D01*
X8770706Y4884214D01*
X8770706Y4184214D01*
X9470706Y4184214D02*
X9070706Y4184214D01*
X9270706Y4184214D02*
X9270706Y4884214D01*
X9204040Y4784214D01*
X9137373Y4717547D01*
X9070706Y4684214D01*
X10070706Y4884214D02*
X9937373Y4884214D01*
X9870706Y4850880D01*
X9837373Y4817547D01*
X9770706Y4717547D01*
X9737373Y4584214D01*
X9737373Y4317547D01*
X9770706Y4250880D01*
X9804040Y4217547D01*
X9870706Y4184214D01*
X10004040Y4184214D01*
X10070706Y4217547D01*
X10104040Y4250880D01*
X10137373Y4317547D01*
X10137373Y4484214D01*
X10104040Y4550880D01*
X10070706Y4584214D01*
X10004040Y4617547D01*
X9870706Y4617547D01*
X9804040Y4584214D01*
X9770706Y4550880D01*
X9737373Y4484214D01*
X10570706Y4884214D02*
X10637373Y4884214D01*
X10704040Y4850880D01*
X10737373Y4817547D01*
X10770706Y4750880D01*
X10804040Y4617547D01*
X10804040Y4450880D01*
X10770706Y4317547D01*
X10737373Y4250880D01*
X10704040Y4217547D01*
X10637373Y4184214D01*
X10570706Y4184214D01*
X10504040Y4217547D01*
X10470706Y4250880D01*
X10437373Y4317547D01*
X10404040Y4450880D01*
X10404040Y4617547D01*
X10437373Y4750880D01*
X10470706Y4817547D01*
X10504040Y4850880D01*
X10570706Y4884214D01*
X11070706Y4817547D02*
X11104040Y4850880D01*
X11170706Y4884214D01*
X11337373Y4884214D01*
X11404040Y4850880D01*
X11437373Y4817547D01*
X11470706Y4750880D01*
X11470706Y4684214D01*
X11437373Y4584214D01*
X11037373Y4184214D01*
X11470706Y4184214D01*
X12004040Y4550880D02*
X11770706Y4550880D01*
X11770706Y4184214D02*
X11770706Y4884214D01*
X12104040Y4884214D01*
X12337373Y4217547D02*
X12437373Y4184214D01*
X12604040Y4184214D01*
X12670706Y4217547D01*
X12704040Y4250880D01*
X12737373Y4317547D01*
X12737373Y4384214D01*
X12704040Y4450880D01*
X12670706Y4484214D01*
X12604040Y4517547D01*
X12470706Y4550880D01*
X12404040Y4584214D01*
X12370706Y4617547D01*
X12337373Y4684214D01*
X12337373Y4750880D01*
X12370706Y4817547D01*
X12404040Y4850880D01*
X12470706Y4884214D01*
X12637373Y4884214D01*
X12737373Y4850880D01*
X13037373Y4450880D02*
X13570706Y4450880D01*
X14204040Y4884214D02*
X14070706Y4884214D01*
X14004040Y4850880D01*
X13970706Y4817547D01*
X13904040Y4717547D01*
X13870706Y4584214D01*
X13870706Y4317547D01*
X13904040Y4250880D01*
X13937373Y4217547D01*
X14004040Y4184214D01*
X14137373Y4184214D01*
X14204040Y4217547D01*
X14237373Y4250880D01*
X14270706Y4317547D01*
X14270706Y4484214D01*
X14237373Y4550880D01*
X14204040Y4584214D01*
X14137373Y4617547D01*
X14004040Y4617547D01*
X13937373Y4584214D01*
X13904040Y4550880D01*
X13870706Y4484214D01*
X15037373Y4884214D02*
X15470706Y4884214D01*
X15237373Y4617547D01*
X15337373Y4617547D01*
X15404040Y4584214D01*
X15437373Y4550880D01*
X15470706Y4484214D01*
X15470706Y4317547D01*
X15437373Y4250880D01*
X15404040Y4217547D01*
X15337373Y4184214D01*
X15137373Y4184214D01*
X15070706Y4217547D01*
X15037373Y4250880D01*
X15770706Y4250880D02*
X15804040Y4217547D01*
X15770706Y4184214D01*
X15737373Y4217547D01*
X15770706Y4250880D01*
X15770706Y4184214D01*
X16037373Y4884214D02*
X16470706Y4884214D01*
X16237373Y4617547D01*
X16337373Y4617547D01*
X16404040Y4584214D01*
X16437373Y4550880D01*
X16470706Y4484214D01*
X16470706Y4317547D01*
X16437373Y4250880D01*
X16404040Y4217547D01*
X16337373Y4184214D01*
X16137373Y4184214D01*
X16070706Y4217547D01*
X16037373Y4250880D01*
X16670706Y4884214D02*
X16904040Y4184214D01*
X17137373Y4884214D01*
G04 #@! TO.C,C10*
X177712506Y-46290253D02*
X177712506Y-46690253D01*
X177712506Y-46490253D02*
X177012506Y-46490253D01*
X177112506Y-46556920D01*
X177179173Y-46623586D01*
X177212506Y-46690253D01*
X177012506Y-45856920D02*
X177012506Y-45790253D01*
X177045840Y-45723586D01*
X177079173Y-45690253D01*
X177145840Y-45656920D01*
X177279173Y-45623586D01*
X177445840Y-45623586D01*
X177579173Y-45656920D01*
X177645840Y-45690253D01*
X177679173Y-45723586D01*
X177712506Y-45790253D01*
X177712506Y-45856920D01*
X177679173Y-45923586D01*
X177645840Y-45956920D01*
X177579173Y-45990253D01*
X177445840Y-46023586D01*
X177279173Y-46023586D01*
X177145840Y-45990253D01*
X177079173Y-45956920D01*
X177045840Y-45923586D01*
X177012506Y-45856920D01*
X177012506Y-45190253D02*
X177012506Y-45123586D01*
X177045840Y-45056920D01*
X177079173Y-45023586D01*
X177145840Y-44990253D01*
X177279173Y-44956920D01*
X177445840Y-44956920D01*
X177579173Y-44990253D01*
X177645840Y-45023586D01*
X177679173Y-45056920D01*
X177712506Y-45123586D01*
X177712506Y-45190253D01*
X177679173Y-45256920D01*
X177645840Y-45290253D01*
X177579173Y-45323586D01*
X177445840Y-45356920D01*
X177279173Y-45356920D01*
X177145840Y-45323586D01*
X177079173Y-45290253D01*
X177045840Y-45256920D01*
X177012506Y-45190253D01*
X177245840Y-44356920D02*
X177712506Y-44356920D01*
X177245840Y-44656920D02*
X177612506Y-44656920D01*
X177679173Y-44623586D01*
X177712506Y-44556920D01*
X177712506Y-44456920D01*
X177679173Y-44390253D01*
X177645840Y-44356920D01*
X177345840Y-43790253D02*
X177345840Y-44023586D01*
X177712506Y-44023586D02*
X177012506Y-44023586D01*
X177012506Y-43690253D01*
G04 #@! TO.C,U3*
X108180306Y-35589986D02*
X108180306Y-35923320D01*
X107480306Y-35923320D01*
X108180306Y-35356653D02*
X107480306Y-35356653D01*
X107480306Y-35089986D01*
X107513640Y-35023320D01*
X107546973Y-34989986D01*
X107613640Y-34956653D01*
X107713640Y-34956653D01*
X107780306Y-34989986D01*
X107813640Y-35023320D01*
X107846973Y-35089986D01*
X107846973Y-35356653D01*
X108113640Y-34256653D02*
X108146973Y-34289986D01*
X108180306Y-34389986D01*
X108180306Y-34456653D01*
X108146973Y-34556653D01*
X108080306Y-34623320D01*
X108013640Y-34656653D01*
X107880306Y-34689986D01*
X107780306Y-34689986D01*
X107646973Y-34656653D01*
X107580306Y-34623320D01*
X107513640Y-34556653D01*
X107480306Y-34456653D01*
X107480306Y-34389986D01*
X107513640Y-34289986D01*
X107546973Y-34256653D01*
X108180306Y-33589986D02*
X108180306Y-33989986D01*
X108180306Y-33789986D02*
X107480306Y-33789986D01*
X107580306Y-33856653D01*
X107646973Y-33923320D01*
X107680306Y-33989986D01*
X108180306Y-32923320D02*
X108180306Y-33323320D01*
X108180306Y-33123320D02*
X107480306Y-33123320D01*
X107580306Y-33189986D01*
X107646973Y-33256653D01*
X107680306Y-33323320D01*
X107480306Y-32623320D02*
X108046973Y-32623320D01*
X108113640Y-32589986D01*
X108146973Y-32556653D01*
X108180306Y-32489986D01*
X108180306Y-32356653D01*
X108146973Y-32289986D01*
X108113640Y-32256653D01*
X108046973Y-32223320D01*
X107480306Y-32223320D01*
X107546973Y-31923320D02*
X107513640Y-31889986D01*
X107480306Y-31823320D01*
X107480306Y-31656653D01*
X107513640Y-31589986D01*
X107546973Y-31556653D01*
X107613640Y-31523320D01*
X107680306Y-31523320D01*
X107780306Y-31556653D01*
X108180306Y-31956653D01*
X108180306Y-31523320D01*
X107713640Y-30923320D02*
X108180306Y-30923320D01*
X107446973Y-31089986D02*
X107946973Y-31256653D01*
X107946973Y-30823320D01*
X107813640Y-30323320D02*
X107813640Y-30556653D01*
X108180306Y-30556653D02*
X107480306Y-30556653D01*
X107480306Y-30223320D01*
X107813640Y-29723320D02*
X107846973Y-29623320D01*
X107880306Y-29589986D01*
X107946973Y-29556653D01*
X108046973Y-29556653D01*
X108113640Y-29589986D01*
X108146973Y-29623320D01*
X108180306Y-29689986D01*
X108180306Y-29956653D01*
X107480306Y-29956653D01*
X107480306Y-29723320D01*
X107513640Y-29656653D01*
X107546973Y-29623320D01*
X107613640Y-29589986D01*
X107680306Y-29589986D01*
X107746973Y-29623320D01*
X107780306Y-29656653D01*
X107813640Y-29723320D01*
X107813640Y-29956653D01*
X108180306Y-29256653D02*
X107480306Y-29256653D01*
X107480306Y-29089986D01*
X107513640Y-28989986D01*
X107580306Y-28923320D01*
X107646973Y-28889986D01*
X107780306Y-28856653D01*
X107880306Y-28856653D01*
X108013640Y-28889986D01*
X108080306Y-28923320D01*
X108146973Y-28989986D01*
X108180306Y-29089986D01*
X108180306Y-29256653D01*
X107713640Y-28256653D02*
X108180306Y-28256653D01*
X107446973Y-28423320D02*
X107946973Y-28589986D01*
X107946973Y-28156653D01*
X107780306Y-27789986D02*
X107746973Y-27856653D01*
X107713640Y-27889986D01*
X107646973Y-27923320D01*
X107613640Y-27923320D01*
X107546973Y-27889986D01*
X107513640Y-27856653D01*
X107480306Y-27789986D01*
X107480306Y-27656653D01*
X107513640Y-27589986D01*
X107546973Y-27556653D01*
X107613640Y-27523320D01*
X107646973Y-27523320D01*
X107713640Y-27556653D01*
X107746973Y-27589986D01*
X107780306Y-27656653D01*
X107780306Y-27789986D01*
X107813640Y-27856653D01*
X107846973Y-27889986D01*
X107913640Y-27923320D01*
X108046973Y-27923320D01*
X108113640Y-27889986D01*
X108146973Y-27856653D01*
X108180306Y-27789986D01*
X108180306Y-27656653D01*
X108146973Y-27589986D01*
X108113640Y-27556653D01*
X108046973Y-27523320D01*
X107913640Y-27523320D01*
X107846973Y-27556653D01*
X107813640Y-27589986D01*
X107780306Y-27656653D01*
X107446973Y-26723320D02*
X108346973Y-27323320D01*
X107713640Y-26189986D02*
X108180306Y-26189986D01*
X107446973Y-26356653D02*
X107946973Y-26523320D01*
X107946973Y-26089986D01*
X107480306Y-25689986D02*
X107480306Y-25623320D01*
X107513640Y-25556653D01*
X107546973Y-25523320D01*
X107613640Y-25489986D01*
X107746973Y-25456653D01*
X107913640Y-25456653D01*
X108046973Y-25489986D01*
X108113640Y-25523320D01*
X108146973Y-25556653D01*
X108180306Y-25623320D01*
X108180306Y-25689986D01*
X108146973Y-25756653D01*
X108113640Y-25789986D01*
X108046973Y-25823320D01*
X107913640Y-25856653D01*
X107746973Y-25856653D01*
X107613640Y-25823320D01*
X107546973Y-25789986D01*
X107513640Y-25756653D01*
X107480306Y-25689986D01*
X108180306Y-24789986D02*
X108180306Y-25189986D01*
X108180306Y-24989986D02*
X107480306Y-24989986D01*
X107580306Y-25056653D01*
X107646973Y-25123320D01*
X107680306Y-25189986D01*
G04 #@! TO.C,Q2*
X97193900Y-34434300D02*
X97227233Y-34334300D01*
X97260566Y-34300966D01*
X97327233Y-34267633D01*
X97427233Y-34267633D01*
X97493900Y-34300966D01*
X97527233Y-34334300D01*
X97560566Y-34400966D01*
X97560566Y-34667633D01*
X96860566Y-34667633D01*
X96860566Y-34434300D01*
X96893900Y-34367633D01*
X96927233Y-34334300D01*
X96993900Y-34300966D01*
X97060566Y-34300966D01*
X97127233Y-34334300D01*
X97160566Y-34367633D01*
X97193900Y-34434300D01*
X97193900Y-34667633D01*
X97493900Y-33567633D02*
X97527233Y-33600966D01*
X97560566Y-33700966D01*
X97560566Y-33767633D01*
X97527233Y-33867633D01*
X97460566Y-33934300D01*
X97393900Y-33967633D01*
X97260566Y-34000966D01*
X97160566Y-34000966D01*
X97027233Y-33967633D01*
X96960566Y-33934300D01*
X96893900Y-33867633D01*
X96860566Y-33767633D01*
X96860566Y-33700966D01*
X96893900Y-33600966D01*
X96927233Y-33567633D01*
X97160566Y-33167633D02*
X97127233Y-33234300D01*
X97093900Y-33267633D01*
X97027233Y-33300966D01*
X96993900Y-33300966D01*
X96927233Y-33267633D01*
X96893900Y-33234300D01*
X96860566Y-33167633D01*
X96860566Y-33034300D01*
X96893900Y-32967633D01*
X96927233Y-32934300D01*
X96993900Y-32900966D01*
X97027233Y-32900966D01*
X97093900Y-32934300D01*
X97127233Y-32967633D01*
X97160566Y-33034300D01*
X97160566Y-33167633D01*
X97193900Y-33234300D01*
X97227233Y-33267633D01*
X97293900Y-33300966D01*
X97427233Y-33300966D01*
X97493900Y-33267633D01*
X97527233Y-33234300D01*
X97560566Y-33167633D01*
X97560566Y-33034300D01*
X97527233Y-32967633D01*
X97493900Y-32934300D01*
X97427233Y-32900966D01*
X97293900Y-32900966D01*
X97227233Y-32934300D01*
X97193900Y-32967633D01*
X97160566Y-33034300D01*
X96860566Y-32267633D02*
X96860566Y-32600966D01*
X97193900Y-32634300D01*
X97160566Y-32600966D01*
X97127233Y-32534300D01*
X97127233Y-32367633D01*
X97160566Y-32300966D01*
X97193900Y-32267633D01*
X97260566Y-32234300D01*
X97427233Y-32234300D01*
X97493900Y-32267633D01*
X97527233Y-32300966D01*
X97560566Y-32367633D01*
X97560566Y-32534300D01*
X97527233Y-32600966D01*
X97493900Y-32634300D01*
X96860566Y-32000966D02*
X96860566Y-31534300D01*
X97560566Y-31834300D01*
G04 #@! TO.C,C8*
X137642506Y-45466920D02*
X137642506Y-45866920D01*
X137642506Y-45666920D02*
X136942506Y-45666920D01*
X137042506Y-45733586D01*
X137109173Y-45800253D01*
X137142506Y-45866920D01*
X136942506Y-45033586D02*
X136942506Y-44966920D01*
X136975840Y-44900253D01*
X137009173Y-44866920D01*
X137075840Y-44833586D01*
X137209173Y-44800253D01*
X137375840Y-44800253D01*
X137509173Y-44833586D01*
X137575840Y-44866920D01*
X137609173Y-44900253D01*
X137642506Y-44966920D01*
X137642506Y-45033586D01*
X137609173Y-45100253D01*
X137575840Y-45133586D01*
X137509173Y-45166920D01*
X137375840Y-45200253D01*
X137209173Y-45200253D01*
X137075840Y-45166920D01*
X137009173Y-45133586D01*
X136975840Y-45100253D01*
X136942506Y-45033586D01*
X137175840Y-44200253D02*
X137642506Y-44200253D01*
X137175840Y-44500253D02*
X137542506Y-44500253D01*
X137609173Y-44466920D01*
X137642506Y-44400253D01*
X137642506Y-44300253D01*
X137609173Y-44233586D01*
X137575840Y-44200253D01*
X137275840Y-43633586D02*
X137275840Y-43866920D01*
X137642506Y-43866920D02*
X136942506Y-43866920D01*
X136942506Y-43533586D01*
G04 #@! TO.C,C7*
X149522506Y-46040253D02*
X149522506Y-46440253D01*
X149522506Y-46240253D02*
X148822506Y-46240253D01*
X148922506Y-46306920D01*
X148989173Y-46373586D01*
X149022506Y-46440253D01*
X148822506Y-45606920D02*
X148822506Y-45540253D01*
X148855840Y-45473586D01*
X148889173Y-45440253D01*
X148955840Y-45406920D01*
X149089173Y-45373586D01*
X149255840Y-45373586D01*
X149389173Y-45406920D01*
X149455840Y-45440253D01*
X149489173Y-45473586D01*
X149522506Y-45540253D01*
X149522506Y-45606920D01*
X149489173Y-45673586D01*
X149455840Y-45706920D01*
X149389173Y-45740253D01*
X149255840Y-45773586D01*
X149089173Y-45773586D01*
X148955840Y-45740253D01*
X148889173Y-45706920D01*
X148855840Y-45673586D01*
X148822506Y-45606920D01*
X148822506Y-44940253D02*
X148822506Y-44873586D01*
X148855840Y-44806920D01*
X148889173Y-44773586D01*
X148955840Y-44740253D01*
X149089173Y-44706920D01*
X149255840Y-44706920D01*
X149389173Y-44740253D01*
X149455840Y-44773586D01*
X149489173Y-44806920D01*
X149522506Y-44873586D01*
X149522506Y-44940253D01*
X149489173Y-45006920D01*
X149455840Y-45040253D01*
X149389173Y-45073586D01*
X149255840Y-45106920D01*
X149089173Y-45106920D01*
X148955840Y-45073586D01*
X148889173Y-45040253D01*
X148855840Y-45006920D01*
X148822506Y-44940253D01*
X149055840Y-44406920D02*
X149522506Y-44406920D01*
X149122506Y-44406920D02*
X149089173Y-44373586D01*
X149055840Y-44306920D01*
X149055840Y-44206920D01*
X149089173Y-44140253D01*
X149155840Y-44106920D01*
X149522506Y-44106920D01*
X149155840Y-43540253D02*
X149155840Y-43773586D01*
X149522506Y-43773586D02*
X148822506Y-43773586D01*
X148822506Y-43440253D01*
G04 #@! TO.C,C12*
X182322506Y-44290253D02*
X182322506Y-44690253D01*
X182322506Y-44490253D02*
X181622506Y-44490253D01*
X181722506Y-44556920D01*
X181789173Y-44623586D01*
X181822506Y-44690253D01*
X181622506Y-43856920D02*
X181622506Y-43790253D01*
X181655840Y-43723586D01*
X181689173Y-43690253D01*
X181755840Y-43656920D01*
X181889173Y-43623586D01*
X182055840Y-43623586D01*
X182189173Y-43656920D01*
X182255840Y-43690253D01*
X182289173Y-43723586D01*
X182322506Y-43790253D01*
X182322506Y-43856920D01*
X182289173Y-43923586D01*
X182255840Y-43956920D01*
X182189173Y-43990253D01*
X182055840Y-44023586D01*
X181889173Y-44023586D01*
X181755840Y-43990253D01*
X181689173Y-43956920D01*
X181655840Y-43923586D01*
X181622506Y-43856920D01*
X181622506Y-43190253D02*
X181622506Y-43123586D01*
X181655840Y-43056920D01*
X181689173Y-43023586D01*
X181755840Y-42990253D01*
X181889173Y-42956920D01*
X182055840Y-42956920D01*
X182189173Y-42990253D01*
X182255840Y-43023586D01*
X182289173Y-43056920D01*
X182322506Y-43123586D01*
X182322506Y-43190253D01*
X182289173Y-43256920D01*
X182255840Y-43290253D01*
X182189173Y-43323586D01*
X182055840Y-43356920D01*
X181889173Y-43356920D01*
X181755840Y-43323586D01*
X181689173Y-43290253D01*
X181655840Y-43256920D01*
X181622506Y-43190253D01*
X181855840Y-42656920D02*
X182322506Y-42656920D01*
X181922506Y-42656920D02*
X181889173Y-42623586D01*
X181855840Y-42556920D01*
X181855840Y-42456920D01*
X181889173Y-42390253D01*
X181955840Y-42356920D01*
X182322506Y-42356920D01*
X181955840Y-41790253D02*
X181955840Y-42023586D01*
X182322506Y-42023586D02*
X181622506Y-42023586D01*
X181622506Y-41690253D01*
G04 #@! TO.C,C4*
X111203040Y-18701186D02*
X110803040Y-18701186D01*
X111003040Y-18701186D02*
X111003040Y-18001186D01*
X110936373Y-18101186D01*
X110869706Y-18167853D01*
X110803040Y-18201186D01*
X111603040Y-18301186D02*
X111536373Y-18267853D01*
X111503040Y-18234520D01*
X111469706Y-18167853D01*
X111469706Y-18134520D01*
X111503040Y-18067853D01*
X111536373Y-18034520D01*
X111603040Y-18001186D01*
X111736373Y-18001186D01*
X111803040Y-18034520D01*
X111836373Y-18067853D01*
X111869706Y-18134520D01*
X111869706Y-18167853D01*
X111836373Y-18234520D01*
X111803040Y-18267853D01*
X111736373Y-18301186D01*
X111603040Y-18301186D01*
X111536373Y-18334520D01*
X111503040Y-18367853D01*
X111469706Y-18434520D01*
X111469706Y-18567853D01*
X111503040Y-18634520D01*
X111536373Y-18667853D01*
X111603040Y-18701186D01*
X111736373Y-18701186D01*
X111803040Y-18667853D01*
X111836373Y-18634520D01*
X111869706Y-18567853D01*
X111869706Y-18434520D01*
X111836373Y-18367853D01*
X111803040Y-18334520D01*
X111736373Y-18301186D01*
X112169706Y-18234520D02*
X112169706Y-18934520D01*
X112169706Y-18267853D02*
X112236373Y-18234520D01*
X112369706Y-18234520D01*
X112436373Y-18267853D01*
X112469706Y-18301186D01*
X112503040Y-18367853D01*
X112503040Y-18567853D01*
X112469706Y-18634520D01*
X112436373Y-18667853D01*
X112369706Y-18701186D01*
X112236373Y-18701186D01*
X112169706Y-18667853D01*
X113036373Y-18334520D02*
X112803040Y-18334520D01*
X112803040Y-18701186D02*
X112803040Y-18001186D01*
X113136373Y-18001186D01*
G04 #@! TO.C,C6*
X102993760Y-18701186D02*
X102593760Y-18701186D01*
X102793760Y-18701186D02*
X102793760Y-18001186D01*
X102727093Y-18101186D01*
X102660426Y-18167853D01*
X102593760Y-18201186D01*
X103393760Y-18301186D02*
X103327093Y-18267853D01*
X103293760Y-18234520D01*
X103260426Y-18167853D01*
X103260426Y-18134520D01*
X103293760Y-18067853D01*
X103327093Y-18034520D01*
X103393760Y-18001186D01*
X103527093Y-18001186D01*
X103593760Y-18034520D01*
X103627093Y-18067853D01*
X103660426Y-18134520D01*
X103660426Y-18167853D01*
X103627093Y-18234520D01*
X103593760Y-18267853D01*
X103527093Y-18301186D01*
X103393760Y-18301186D01*
X103327093Y-18334520D01*
X103293760Y-18367853D01*
X103260426Y-18434520D01*
X103260426Y-18567853D01*
X103293760Y-18634520D01*
X103327093Y-18667853D01*
X103393760Y-18701186D01*
X103527093Y-18701186D01*
X103593760Y-18667853D01*
X103627093Y-18634520D01*
X103660426Y-18567853D01*
X103660426Y-18434520D01*
X103627093Y-18367853D01*
X103593760Y-18334520D01*
X103527093Y-18301186D01*
X103960426Y-18234520D02*
X103960426Y-18934520D01*
X103960426Y-18267853D02*
X104027093Y-18234520D01*
X104160426Y-18234520D01*
X104227093Y-18267853D01*
X104260426Y-18301186D01*
X104293760Y-18367853D01*
X104293760Y-18567853D01*
X104260426Y-18634520D01*
X104227093Y-18667853D01*
X104160426Y-18701186D01*
X104027093Y-18701186D01*
X103960426Y-18667853D01*
X104827093Y-18334520D02*
X104593760Y-18334520D01*
X104593760Y-18701186D02*
X104593760Y-18001186D01*
X104927093Y-18001186D01*
G04 #@! TO.C,C13*
X101896346Y-27494253D02*
X101896346Y-27894253D01*
X101896346Y-27694253D02*
X101196346Y-27694253D01*
X101296346Y-27760920D01*
X101363013Y-27827586D01*
X101396346Y-27894253D01*
X101196346Y-27060920D02*
X101196346Y-26994253D01*
X101229680Y-26927586D01*
X101263013Y-26894253D01*
X101329680Y-26860920D01*
X101463013Y-26827586D01*
X101629680Y-26827586D01*
X101763013Y-26860920D01*
X101829680Y-26894253D01*
X101863013Y-26927586D01*
X101896346Y-26994253D01*
X101896346Y-27060920D01*
X101863013Y-27127586D01*
X101829680Y-27160920D01*
X101763013Y-27194253D01*
X101629680Y-27227586D01*
X101463013Y-27227586D01*
X101329680Y-27194253D01*
X101263013Y-27160920D01*
X101229680Y-27127586D01*
X101196346Y-27060920D01*
X101196346Y-26394253D02*
X101196346Y-26327586D01*
X101229680Y-26260920D01*
X101263013Y-26227586D01*
X101329680Y-26194253D01*
X101463013Y-26160920D01*
X101629680Y-26160920D01*
X101763013Y-26194253D01*
X101829680Y-26227586D01*
X101863013Y-26260920D01*
X101896346Y-26327586D01*
X101896346Y-26394253D01*
X101863013Y-26460920D01*
X101829680Y-26494253D01*
X101763013Y-26527586D01*
X101629680Y-26560920D01*
X101463013Y-26560920D01*
X101329680Y-26527586D01*
X101263013Y-26494253D01*
X101229680Y-26460920D01*
X101196346Y-26394253D01*
X101429680Y-25860920D02*
X101896346Y-25860920D01*
X101496346Y-25860920D02*
X101463013Y-25827586D01*
X101429680Y-25760920D01*
X101429680Y-25660920D01*
X101463013Y-25594253D01*
X101529680Y-25560920D01*
X101896346Y-25560920D01*
X101529680Y-24994253D02*
X101529680Y-25227586D01*
X101896346Y-25227586D02*
X101196346Y-25227586D01*
X101196346Y-24894253D01*
G04 #@! TO.C,C14*
X114593806Y-30351753D02*
X114593806Y-30751753D01*
X114593806Y-30551753D02*
X113893806Y-30551753D01*
X113993806Y-30618420D01*
X114060473Y-30685086D01*
X114093806Y-30751753D01*
X113893806Y-29918420D02*
X113893806Y-29851753D01*
X113927140Y-29785086D01*
X113960473Y-29751753D01*
X114027140Y-29718420D01*
X114160473Y-29685086D01*
X114327140Y-29685086D01*
X114460473Y-29718420D01*
X114527140Y-29751753D01*
X114560473Y-29785086D01*
X114593806Y-29851753D01*
X114593806Y-29918420D01*
X114560473Y-29985086D01*
X114527140Y-30018420D01*
X114460473Y-30051753D01*
X114327140Y-30085086D01*
X114160473Y-30085086D01*
X114027140Y-30051753D01*
X113960473Y-30018420D01*
X113927140Y-29985086D01*
X113893806Y-29918420D01*
X113893806Y-29251753D02*
X113893806Y-29185086D01*
X113927140Y-29118420D01*
X113960473Y-29085086D01*
X114027140Y-29051753D01*
X114160473Y-29018420D01*
X114327140Y-29018420D01*
X114460473Y-29051753D01*
X114527140Y-29085086D01*
X114560473Y-29118420D01*
X114593806Y-29185086D01*
X114593806Y-29251753D01*
X114560473Y-29318420D01*
X114527140Y-29351753D01*
X114460473Y-29385086D01*
X114327140Y-29418420D01*
X114160473Y-29418420D01*
X114027140Y-29385086D01*
X113960473Y-29351753D01*
X113927140Y-29318420D01*
X113893806Y-29251753D01*
X114127140Y-28718420D02*
X114593806Y-28718420D01*
X114193806Y-28718420D02*
X114160473Y-28685086D01*
X114127140Y-28618420D01*
X114127140Y-28518420D01*
X114160473Y-28451753D01*
X114227140Y-28418420D01*
X114593806Y-28418420D01*
X114227140Y-27851753D02*
X114227140Y-28085086D01*
X114593806Y-28085086D02*
X113893806Y-28085086D01*
X113893806Y-27751753D01*
G04 #@! TO.C,C21*
X114592506Y-27300253D02*
X114592506Y-27700253D01*
X114592506Y-27500253D02*
X113892506Y-27500253D01*
X113992506Y-27566920D01*
X114059173Y-27633586D01*
X114092506Y-27700253D01*
X113892506Y-26866920D02*
X113892506Y-26800253D01*
X113925840Y-26733586D01*
X113959173Y-26700253D01*
X114025840Y-26666920D01*
X114159173Y-26633586D01*
X114325840Y-26633586D01*
X114459173Y-26666920D01*
X114525840Y-26700253D01*
X114559173Y-26733586D01*
X114592506Y-26800253D01*
X114592506Y-26866920D01*
X114559173Y-26933586D01*
X114525840Y-26966920D01*
X114459173Y-27000253D01*
X114325840Y-27033586D01*
X114159173Y-27033586D01*
X114025840Y-27000253D01*
X113959173Y-26966920D01*
X113925840Y-26933586D01*
X113892506Y-26866920D01*
X113892506Y-26200253D02*
X113892506Y-26133586D01*
X113925840Y-26066920D01*
X113959173Y-26033586D01*
X114025840Y-26000253D01*
X114159173Y-25966920D01*
X114325840Y-25966920D01*
X114459173Y-26000253D01*
X114525840Y-26033586D01*
X114559173Y-26066920D01*
X114592506Y-26133586D01*
X114592506Y-26200253D01*
X114559173Y-26266920D01*
X114525840Y-26300253D01*
X114459173Y-26333586D01*
X114325840Y-26366920D01*
X114159173Y-26366920D01*
X114025840Y-26333586D01*
X113959173Y-26300253D01*
X113925840Y-26266920D01*
X113892506Y-26200253D01*
X114125840Y-25666920D02*
X114592506Y-25666920D01*
X114192506Y-25666920D02*
X114159173Y-25633586D01*
X114125840Y-25566920D01*
X114125840Y-25466920D01*
X114159173Y-25400253D01*
X114225840Y-25366920D01*
X114592506Y-25366920D01*
X114225840Y-24800253D02*
X114225840Y-25033586D01*
X114592506Y-25033586D02*
X113892506Y-25033586D01*
X113892506Y-24700253D01*
G04 #@! TO.C,C1*
X1093906Y-6920253D02*
X1093906Y-7320253D01*
X1093906Y-7120253D02*
X393906Y-7120253D01*
X493906Y-7186920D01*
X560573Y-7253586D01*
X593906Y-7320253D01*
X393906Y-6486920D02*
X393906Y-6420253D01*
X427240Y-6353586D01*
X460573Y-6320253D01*
X527240Y-6286920D01*
X660573Y-6253586D01*
X827240Y-6253586D01*
X960573Y-6286920D01*
X1027240Y-6320253D01*
X1060573Y-6353586D01*
X1093906Y-6420253D01*
X1093906Y-6486920D01*
X1060573Y-6553586D01*
X1027240Y-6586920D01*
X960573Y-6620253D01*
X827240Y-6653586D01*
X660573Y-6653586D01*
X527240Y-6620253D01*
X460573Y-6586920D01*
X427240Y-6553586D01*
X393906Y-6486920D01*
X393906Y-5820253D02*
X393906Y-5753586D01*
X427240Y-5686920D01*
X460573Y-5653586D01*
X527240Y-5620253D01*
X660573Y-5586920D01*
X827240Y-5586920D01*
X960573Y-5620253D01*
X1027240Y-5653586D01*
X1060573Y-5686920D01*
X1093906Y-5753586D01*
X1093906Y-5820253D01*
X1060573Y-5886920D01*
X1027240Y-5920253D01*
X960573Y-5953586D01*
X827240Y-5986920D01*
X660573Y-5986920D01*
X527240Y-5953586D01*
X460573Y-5920253D01*
X427240Y-5886920D01*
X393906Y-5820253D01*
X627240Y-5286920D02*
X1093906Y-5286920D01*
X693906Y-5286920D02*
X660573Y-5253586D01*
X627240Y-5186920D01*
X627240Y-5086920D01*
X660573Y-5020253D01*
X727240Y-4986920D01*
X1093906Y-4986920D01*
X727240Y-4420253D02*
X727240Y-4653586D01*
X1093906Y-4653586D02*
X393906Y-4653586D01*
X393906Y-4320253D01*
G04 #@! TO.C,C2*
X2986206Y-6332920D02*
X2986206Y-6732920D01*
X2986206Y-6532920D02*
X2286206Y-6532920D01*
X2386206Y-6599586D01*
X2452873Y-6666253D01*
X2486206Y-6732920D01*
X2286206Y-5899586D02*
X2286206Y-5832920D01*
X2319540Y-5766253D01*
X2352873Y-5732920D01*
X2419540Y-5699586D01*
X2552873Y-5666253D01*
X2719540Y-5666253D01*
X2852873Y-5699586D01*
X2919540Y-5732920D01*
X2952873Y-5766253D01*
X2986206Y-5832920D01*
X2986206Y-5899586D01*
X2952873Y-5966253D01*
X2919540Y-5999586D01*
X2852873Y-6032920D01*
X2719540Y-6066253D01*
X2552873Y-6066253D01*
X2419540Y-6032920D01*
X2352873Y-5999586D01*
X2319540Y-5966253D01*
X2286206Y-5899586D01*
X2519540Y-5066253D02*
X2986206Y-5066253D01*
X2519540Y-5366253D02*
X2886206Y-5366253D01*
X2952873Y-5332920D01*
X2986206Y-5266253D01*
X2986206Y-5166253D01*
X2952873Y-5099586D01*
X2919540Y-5066253D01*
X2619540Y-4499586D02*
X2619540Y-4732920D01*
X2986206Y-4732920D02*
X2286206Y-4732920D01*
X2286206Y-4399586D01*
G04 #@! TO.C,C15*
X153316106Y-19721853D02*
X153316106Y-20121853D01*
X153316106Y-19921853D02*
X152616106Y-19921853D01*
X152716106Y-19988520D01*
X152782773Y-20055186D01*
X152816106Y-20121853D01*
X152616106Y-19288520D02*
X152616106Y-19221853D01*
X152649440Y-19155186D01*
X152682773Y-19121853D01*
X152749440Y-19088520D01*
X152882773Y-19055186D01*
X153049440Y-19055186D01*
X153182773Y-19088520D01*
X153249440Y-19121853D01*
X153282773Y-19155186D01*
X153316106Y-19221853D01*
X153316106Y-19288520D01*
X153282773Y-19355186D01*
X153249440Y-19388520D01*
X153182773Y-19421853D01*
X153049440Y-19455186D01*
X152882773Y-19455186D01*
X152749440Y-19421853D01*
X152682773Y-19388520D01*
X152649440Y-19355186D01*
X152616106Y-19288520D01*
X152616106Y-18621853D02*
X152616106Y-18555186D01*
X152649440Y-18488520D01*
X152682773Y-18455186D01*
X152749440Y-18421853D01*
X152882773Y-18388520D01*
X153049440Y-18388520D01*
X153182773Y-18421853D01*
X153249440Y-18455186D01*
X153282773Y-18488520D01*
X153316106Y-18555186D01*
X153316106Y-18621853D01*
X153282773Y-18688520D01*
X153249440Y-18721853D01*
X153182773Y-18755186D01*
X153049440Y-18788520D01*
X152882773Y-18788520D01*
X152749440Y-18755186D01*
X152682773Y-18721853D01*
X152649440Y-18688520D01*
X152616106Y-18621853D01*
X152849440Y-18088520D02*
X153316106Y-18088520D01*
X152916106Y-18088520D02*
X152882773Y-18055186D01*
X152849440Y-17988520D01*
X152849440Y-17888520D01*
X152882773Y-17821853D01*
X152949440Y-17788520D01*
X153316106Y-17788520D01*
X152949440Y-17221853D02*
X152949440Y-17455186D01*
X153316106Y-17455186D02*
X152616106Y-17455186D01*
X152616106Y-17121853D01*
G04 #@! TO.C,C16*
X155386206Y-19629820D02*
X155386206Y-20029820D01*
X155386206Y-19829820D02*
X154686206Y-19829820D01*
X154786206Y-19896486D01*
X154852873Y-19963153D01*
X154886206Y-20029820D01*
X154686206Y-19196486D02*
X154686206Y-19129820D01*
X154719540Y-19063153D01*
X154752873Y-19029820D01*
X154819540Y-18996486D01*
X154952873Y-18963153D01*
X155119540Y-18963153D01*
X155252873Y-18996486D01*
X155319540Y-19029820D01*
X155352873Y-19063153D01*
X155386206Y-19129820D01*
X155386206Y-19196486D01*
X155352873Y-19263153D01*
X155319540Y-19296486D01*
X155252873Y-19329820D01*
X155119540Y-19363153D01*
X154952873Y-19363153D01*
X154819540Y-19329820D01*
X154752873Y-19296486D01*
X154719540Y-19263153D01*
X154686206Y-19196486D01*
X154919540Y-18363153D02*
X155386206Y-18363153D01*
X154919540Y-18663153D02*
X155286206Y-18663153D01*
X155352873Y-18629820D01*
X155386206Y-18563153D01*
X155386206Y-18463153D01*
X155352873Y-18396486D01*
X155319540Y-18363153D01*
X155019540Y-17796486D02*
X155019540Y-18029820D01*
X155386206Y-18029820D02*
X154686206Y-18029820D01*
X154686206Y-17696486D01*
G04 #@! TO.C,D1*
X146555840Y-45786920D02*
X146589173Y-45820253D01*
X146622506Y-45920253D01*
X146622506Y-45986920D01*
X146589173Y-46086920D01*
X146522506Y-46153586D01*
X146455840Y-46186920D01*
X146322506Y-46220253D01*
X146222506Y-46220253D01*
X146089173Y-46186920D01*
X146022506Y-46153586D01*
X145955840Y-46086920D01*
X145922506Y-45986920D01*
X145922506Y-45920253D01*
X145955840Y-45820253D01*
X145989173Y-45786920D01*
X145955840Y-45120253D02*
X145922506Y-45186920D01*
X145922506Y-45286920D01*
X145955840Y-45386920D01*
X146022506Y-45453586D01*
X146089173Y-45486920D01*
X146222506Y-45520253D01*
X146322506Y-45520253D01*
X146455840Y-45486920D01*
X146522506Y-45453586D01*
X146589173Y-45386920D01*
X146622506Y-45286920D01*
X146622506Y-45220253D01*
X146589173Y-45120253D01*
X146555840Y-45086920D01*
X146322506Y-45086920D01*
X146322506Y-45220253D01*
X146622506Y-44386920D02*
X146289173Y-44620253D01*
X146622506Y-44786920D02*
X145922506Y-44786920D01*
X145922506Y-44520253D01*
X145955840Y-44453586D01*
X145989173Y-44420253D01*
X146055840Y-44386920D01*
X146155840Y-44386920D01*
X146222506Y-44420253D01*
X146255840Y-44453586D01*
X146289173Y-44520253D01*
X146289173Y-44786920D01*
X146422506Y-44120253D02*
X146422506Y-43786920D01*
X146622506Y-44186920D02*
X145922506Y-43953586D01*
X146622506Y-43720253D01*
X146155840Y-43186920D02*
X146622506Y-43186920D01*
X145889173Y-43353586D02*
X146389173Y-43520253D01*
X146389173Y-43086920D01*
X145922506Y-42686920D02*
X145922506Y-42620253D01*
X145955840Y-42553586D01*
X145989173Y-42520253D01*
X146055840Y-42486920D01*
X146189173Y-42453586D01*
X146355840Y-42453586D01*
X146489173Y-42486920D01*
X146555840Y-42520253D01*
X146589173Y-42553586D01*
X146622506Y-42620253D01*
X146622506Y-42686920D01*
X146589173Y-42753586D01*
X146555840Y-42786920D01*
X146489173Y-42820253D01*
X146355840Y-42853586D01*
X146189173Y-42853586D01*
X146055840Y-42820253D01*
X145989173Y-42786920D01*
X145955840Y-42753586D01*
X145922506Y-42686920D01*
X145922506Y-42020253D02*
X145922506Y-41953586D01*
X145955840Y-41886920D01*
X145989173Y-41853586D01*
X146055840Y-41820253D01*
X146189173Y-41786920D01*
X146355840Y-41786920D01*
X146489173Y-41820253D01*
X146555840Y-41853586D01*
X146589173Y-41886920D01*
X146622506Y-41953586D01*
X146622506Y-42020253D01*
X146589173Y-42086920D01*
X146555840Y-42120253D01*
X146489173Y-42153586D01*
X146355840Y-42186920D01*
X146189173Y-42186920D01*
X146055840Y-42153586D01*
X145989173Y-42120253D01*
X145955840Y-42086920D01*
X145922506Y-42020253D01*
X145922506Y-41553586D02*
X145922506Y-41086920D01*
X146622506Y-41386920D01*
X146355840Y-40820253D02*
X146355840Y-40286920D01*
X145955840Y-39586920D02*
X145922506Y-39653586D01*
X145922506Y-39753586D01*
X145955840Y-39853586D01*
X146022506Y-39920253D01*
X146089173Y-39953586D01*
X146222506Y-39986920D01*
X146322506Y-39986920D01*
X146455840Y-39953586D01*
X146522506Y-39920253D01*
X146589173Y-39853586D01*
X146622506Y-39753586D01*
X146622506Y-39686920D01*
X146589173Y-39586920D01*
X146555840Y-39553586D01*
X146322506Y-39553586D01*
X146322506Y-39686920D01*
G04 #@! TO.C,D3*
X137465840Y-49853586D02*
X137065840Y-49853586D01*
X137265840Y-49853586D02*
X137265840Y-49153586D01*
X137199173Y-49253586D01*
X137132506Y-49320253D01*
X137065840Y-49353586D01*
X137765840Y-49853586D02*
X137765840Y-49153586D01*
X138165840Y-49853586D01*
X138165840Y-49153586D01*
X138832506Y-49153586D02*
X138499173Y-49153586D01*
X138465840Y-49486920D01*
X138499173Y-49453586D01*
X138565840Y-49420253D01*
X138732506Y-49420253D01*
X138799173Y-49453586D01*
X138832506Y-49486920D01*
X138865840Y-49553586D01*
X138865840Y-49720253D01*
X138832506Y-49786920D01*
X138799173Y-49820253D01*
X138732506Y-49853586D01*
X138565840Y-49853586D01*
X138499173Y-49820253D01*
X138465840Y-49786920D01*
X139265840Y-49453586D02*
X139199173Y-49420253D01*
X139165840Y-49386920D01*
X139132506Y-49320253D01*
X139132506Y-49286920D01*
X139165840Y-49220253D01*
X139199173Y-49186920D01*
X139265840Y-49153586D01*
X139399173Y-49153586D01*
X139465840Y-49186920D01*
X139499173Y-49220253D01*
X139532506Y-49286920D01*
X139532506Y-49320253D01*
X139499173Y-49386920D01*
X139465840Y-49420253D01*
X139399173Y-49453586D01*
X139265840Y-49453586D01*
X139199173Y-49486920D01*
X139165840Y-49520253D01*
X139132506Y-49586920D01*
X139132506Y-49720253D01*
X139165840Y-49786920D01*
X139199173Y-49820253D01*
X139265840Y-49853586D01*
X139399173Y-49853586D01*
X139465840Y-49820253D01*
X139499173Y-49786920D01*
X139532506Y-49720253D01*
X139532506Y-49586920D01*
X139499173Y-49520253D01*
X139465840Y-49486920D01*
X139399173Y-49453586D01*
X140199173Y-49853586D02*
X139799173Y-49853586D01*
X139999173Y-49853586D02*
X139999173Y-49153586D01*
X139932506Y-49253586D01*
X139865840Y-49320253D01*
X139799173Y-49353586D01*
X140532506Y-49853586D02*
X140665840Y-49853586D01*
X140732506Y-49820253D01*
X140765840Y-49786920D01*
X140832506Y-49686920D01*
X140865840Y-49553586D01*
X140865840Y-49286920D01*
X140832506Y-49220253D01*
X140799173Y-49186920D01*
X140732506Y-49153586D01*
X140599173Y-49153586D01*
X140532506Y-49186920D01*
X140499173Y-49220253D01*
X140465840Y-49286920D01*
X140465840Y-49453586D01*
X140499173Y-49520253D01*
X140532506Y-49553586D01*
X140599173Y-49586920D01*
X140732506Y-49586920D01*
X140799173Y-49553586D01*
X140832506Y-49520253D01*
X140865840Y-49453586D01*
G04 #@! TO.C,D5*
X4141373Y-37065386D02*
X3808040Y-37065386D01*
X3808040Y-36365386D01*
X4374706Y-36698720D02*
X4608040Y-36698720D01*
X4708040Y-37065386D02*
X4374706Y-37065386D01*
X4374706Y-36365386D01*
X4708040Y-36365386D01*
X5008040Y-37065386D02*
X5008040Y-36365386D01*
X5174706Y-36365386D01*
X5274706Y-36398720D01*
X5341373Y-36465386D01*
X5374706Y-36532053D01*
X5408040Y-36665386D01*
X5408040Y-36765386D01*
X5374706Y-36898720D01*
X5341373Y-36965386D01*
X5274706Y-37032053D01*
X5174706Y-37065386D01*
X5008040Y-37065386D01*
X5541373Y-37132053D02*
X6074706Y-37132053D01*
X6641373Y-37065386D02*
X6408040Y-36732053D01*
X6241373Y-37065386D02*
X6241373Y-36365386D01*
X6508040Y-36365386D01*
X6574706Y-36398720D01*
X6608040Y-36432053D01*
X6641373Y-36498720D01*
X6641373Y-36598720D01*
X6608040Y-36665386D01*
X6574706Y-36698720D01*
X6508040Y-36732053D01*
X6241373Y-36732053D01*
X7308040Y-36398720D02*
X7241373Y-36365386D01*
X7141373Y-36365386D01*
X7041373Y-36398720D01*
X6974706Y-36465386D01*
X6941373Y-36532053D01*
X6908040Y-36665386D01*
X6908040Y-36765386D01*
X6941373Y-36898720D01*
X6974706Y-36965386D01*
X7041373Y-37032053D01*
X7141373Y-37065386D01*
X7208040Y-37065386D01*
X7308040Y-37032053D01*
X7341373Y-36998720D01*
X7341373Y-36765386D01*
X7208040Y-36765386D01*
X7874706Y-36698720D02*
X7974706Y-36732053D01*
X8008040Y-36765386D01*
X8041373Y-36832053D01*
X8041373Y-36932053D01*
X8008040Y-36998720D01*
X7974706Y-37032053D01*
X7908040Y-37065386D01*
X7641373Y-37065386D01*
X7641373Y-36365386D01*
X7874706Y-36365386D01*
X7941373Y-36398720D01*
X7974706Y-36432053D01*
X8008040Y-36498720D01*
X8008040Y-36565386D01*
X7974706Y-36632053D01*
X7941373Y-36665386D01*
X7874706Y-36698720D01*
X7641373Y-36698720D01*
G04 #@! TO.C,D6*
X80188973Y-37065386D02*
X79855640Y-37065386D01*
X79855640Y-36365386D01*
X80422306Y-36698720D02*
X80655640Y-36698720D01*
X80755640Y-37065386D02*
X80422306Y-37065386D01*
X80422306Y-36365386D01*
X80755640Y-36365386D01*
X81055640Y-37065386D02*
X81055640Y-36365386D01*
X81222306Y-36365386D01*
X81322306Y-36398720D01*
X81388973Y-36465386D01*
X81422306Y-36532053D01*
X81455640Y-36665386D01*
X81455640Y-36765386D01*
X81422306Y-36898720D01*
X81388973Y-36965386D01*
X81322306Y-37032053D01*
X81222306Y-37065386D01*
X81055640Y-37065386D01*
X81588973Y-37132053D02*
X82122306Y-37132053D01*
X82688973Y-37065386D02*
X82455640Y-36732053D01*
X82288973Y-37065386D02*
X82288973Y-36365386D01*
X82555640Y-36365386D01*
X82622306Y-36398720D01*
X82655640Y-36432053D01*
X82688973Y-36498720D01*
X82688973Y-36598720D01*
X82655640Y-36665386D01*
X82622306Y-36698720D01*
X82555640Y-36732053D01*
X82288973Y-36732053D01*
X83355640Y-36398720D02*
X83288973Y-36365386D01*
X83188973Y-36365386D01*
X83088973Y-36398720D01*
X83022306Y-36465386D01*
X82988973Y-36532053D01*
X82955640Y-36665386D01*
X82955640Y-36765386D01*
X82988973Y-36898720D01*
X83022306Y-36965386D01*
X83088973Y-37032053D01*
X83188973Y-37065386D01*
X83255640Y-37065386D01*
X83355640Y-37032053D01*
X83388973Y-36998720D01*
X83388973Y-36765386D01*
X83255640Y-36765386D01*
X83922306Y-36698720D02*
X84022306Y-36732053D01*
X84055640Y-36765386D01*
X84088973Y-36832053D01*
X84088973Y-36932053D01*
X84055640Y-36998720D01*
X84022306Y-37032053D01*
X83955640Y-37065386D01*
X83688973Y-37065386D01*
X83688973Y-36365386D01*
X83922306Y-36365386D01*
X83988973Y-36398720D01*
X84022306Y-36432053D01*
X84055640Y-36498720D01*
X84055640Y-36565386D01*
X84022306Y-36632053D01*
X83988973Y-36665386D01*
X83922306Y-36698720D01*
X83688973Y-36698720D01*
G04 #@! TO.C,D7*
X156541373Y-37065386D02*
X156208040Y-37065386D01*
X156208040Y-36365386D01*
X156774706Y-36698720D02*
X157008040Y-36698720D01*
X157108040Y-37065386D02*
X156774706Y-37065386D01*
X156774706Y-36365386D01*
X157108040Y-36365386D01*
X157408040Y-37065386D02*
X157408040Y-36365386D01*
X157574706Y-36365386D01*
X157674706Y-36398720D01*
X157741373Y-36465386D01*
X157774706Y-36532053D01*
X157808040Y-36665386D01*
X157808040Y-36765386D01*
X157774706Y-36898720D01*
X157741373Y-36965386D01*
X157674706Y-37032053D01*
X157574706Y-37065386D01*
X157408040Y-37065386D01*
X157941373Y-37132053D02*
X158474706Y-37132053D01*
X159041373Y-37065386D02*
X158808040Y-36732053D01*
X158641373Y-37065386D02*
X158641373Y-36365386D01*
X158908040Y-36365386D01*
X158974706Y-36398720D01*
X159008040Y-36432053D01*
X159041373Y-36498720D01*
X159041373Y-36598720D01*
X159008040Y-36665386D01*
X158974706Y-36698720D01*
X158908040Y-36732053D01*
X158641373Y-36732053D01*
X159708040Y-36398720D02*
X159641373Y-36365386D01*
X159541373Y-36365386D01*
X159441373Y-36398720D01*
X159374706Y-36465386D01*
X159341373Y-36532053D01*
X159308040Y-36665386D01*
X159308040Y-36765386D01*
X159341373Y-36898720D01*
X159374706Y-36965386D01*
X159441373Y-37032053D01*
X159541373Y-37065386D01*
X159608040Y-37065386D01*
X159708040Y-37032053D01*
X159741373Y-36998720D01*
X159741373Y-36765386D01*
X159608040Y-36765386D01*
X160274706Y-36698720D02*
X160374706Y-36732053D01*
X160408040Y-36765386D01*
X160441373Y-36832053D01*
X160441373Y-36932053D01*
X160408040Y-36998720D01*
X160374706Y-37032053D01*
X160308040Y-37065386D01*
X160041373Y-37065386D01*
X160041373Y-36365386D01*
X160274706Y-36365386D01*
X160341373Y-36398720D01*
X160374706Y-36432053D01*
X160408040Y-36498720D01*
X160408040Y-36565386D01*
X160374706Y-36632053D01*
X160341373Y-36665386D01*
X160274706Y-36698720D01*
X160041373Y-36698720D01*
G04 #@! TO.C,D8*
X232741373Y-37065386D02*
X232408040Y-37065386D01*
X232408040Y-36365386D01*
X232974706Y-36698720D02*
X233208040Y-36698720D01*
X233308040Y-37065386D02*
X232974706Y-37065386D01*
X232974706Y-36365386D01*
X233308040Y-36365386D01*
X233608040Y-37065386D02*
X233608040Y-36365386D01*
X233774706Y-36365386D01*
X233874706Y-36398720D01*
X233941373Y-36465386D01*
X233974706Y-36532053D01*
X234008040Y-36665386D01*
X234008040Y-36765386D01*
X233974706Y-36898720D01*
X233941373Y-36965386D01*
X233874706Y-37032053D01*
X233774706Y-37065386D01*
X233608040Y-37065386D01*
X234141373Y-37132053D02*
X234674706Y-37132053D01*
X235241373Y-37065386D02*
X235008040Y-36732053D01*
X234841373Y-37065386D02*
X234841373Y-36365386D01*
X235108040Y-36365386D01*
X235174706Y-36398720D01*
X235208040Y-36432053D01*
X235241373Y-36498720D01*
X235241373Y-36598720D01*
X235208040Y-36665386D01*
X235174706Y-36698720D01*
X235108040Y-36732053D01*
X234841373Y-36732053D01*
X235908040Y-36398720D02*
X235841373Y-36365386D01*
X235741373Y-36365386D01*
X235641373Y-36398720D01*
X235574706Y-36465386D01*
X235541373Y-36532053D01*
X235508040Y-36665386D01*
X235508040Y-36765386D01*
X235541373Y-36898720D01*
X235574706Y-36965386D01*
X235641373Y-37032053D01*
X235741373Y-37065386D01*
X235808040Y-37065386D01*
X235908040Y-37032053D01*
X235941373Y-36998720D01*
X235941373Y-36765386D01*
X235808040Y-36765386D01*
X236474706Y-36698720D02*
X236574706Y-36732053D01*
X236608040Y-36765386D01*
X236641373Y-36832053D01*
X236641373Y-36932053D01*
X236608040Y-36998720D01*
X236574706Y-37032053D01*
X236508040Y-37065386D01*
X236241373Y-37065386D01*
X236241373Y-36365386D01*
X236474706Y-36365386D01*
X236541373Y-36398720D01*
X236574706Y-36432053D01*
X236608040Y-36498720D01*
X236608040Y-36565386D01*
X236574706Y-36632053D01*
X236541373Y-36665386D01*
X236474706Y-36698720D01*
X236241373Y-36698720D01*
G04 #@! TO.C,P9*
X89345893Y-43596600D02*
X89379226Y-43496600D01*
X89379226Y-43329933D01*
X89345893Y-43263266D01*
X89312560Y-43229933D01*
X89245893Y-43196600D01*
X89179226Y-43196600D01*
X89112560Y-43229933D01*
X89079226Y-43263266D01*
X89045893Y-43329933D01*
X89012560Y-43463266D01*
X88979226Y-43529933D01*
X88945893Y-43563266D01*
X88879226Y-43596600D01*
X88812560Y-43596600D01*
X88745893Y-43563266D01*
X88712560Y-43529933D01*
X88679226Y-43463266D01*
X88679226Y-43296600D01*
X88712560Y-43196600D01*
X88679226Y-42963266D02*
X89379226Y-42796600D01*
X88879226Y-42663266D01*
X89379226Y-42529933D01*
X88679226Y-42363266D01*
X89379226Y-42096600D02*
X88679226Y-42096600D01*
X88679226Y-41929933D01*
X88712560Y-41829933D01*
X88779226Y-41763266D01*
X88845893Y-41729933D01*
X88979226Y-41696600D01*
X89079226Y-41696600D01*
X89212560Y-41729933D01*
X89279226Y-41763266D01*
X89345893Y-41829933D01*
X89379226Y-41929933D01*
X89379226Y-42096600D01*
G04 #@! TO.C,Q1*
X138375840Y-42720253D02*
X138409173Y-42686920D01*
X138475840Y-42653586D01*
X138642506Y-42653586D01*
X138709173Y-42686920D01*
X138742506Y-42720253D01*
X138775840Y-42786920D01*
X138775840Y-42853586D01*
X138742506Y-42953586D01*
X138342506Y-43353586D01*
X138775840Y-43353586D01*
X139075840Y-43353586D02*
X139075840Y-42653586D01*
X139475840Y-43353586D01*
X139475840Y-42653586D01*
X139742506Y-42653586D02*
X140209173Y-42653586D01*
X139909173Y-43353586D01*
X140609173Y-42653586D02*
X140675840Y-42653586D01*
X140742506Y-42686920D01*
X140775840Y-42720253D01*
X140809173Y-42786920D01*
X140842506Y-42920253D01*
X140842506Y-43086920D01*
X140809173Y-43220253D01*
X140775840Y-43286920D01*
X140742506Y-43320253D01*
X140675840Y-43353586D01*
X140609173Y-43353586D01*
X140542506Y-43320253D01*
X140509173Y-43286920D01*
X140475840Y-43220253D01*
X140442506Y-43086920D01*
X140442506Y-42920253D01*
X140475840Y-42786920D01*
X140509173Y-42720253D01*
X140542506Y-42686920D01*
X140609173Y-42653586D01*
X141275840Y-42653586D02*
X141342506Y-42653586D01*
X141409173Y-42686920D01*
X141442506Y-42720253D01*
X141475840Y-42786920D01*
X141509173Y-42920253D01*
X141509173Y-43086920D01*
X141475840Y-43220253D01*
X141442506Y-43286920D01*
X141409173Y-43320253D01*
X141342506Y-43353586D01*
X141275840Y-43353586D01*
X141209173Y-43320253D01*
X141175840Y-43286920D01*
X141142506Y-43220253D01*
X141109173Y-43086920D01*
X141109173Y-42920253D01*
X141142506Y-42786920D01*
X141175840Y-42720253D01*
X141209173Y-42686920D01*
X141275840Y-42653586D01*
X141775840Y-42720253D02*
X141809173Y-42686920D01*
X141875840Y-42653586D01*
X142042506Y-42653586D01*
X142109173Y-42686920D01*
X142142506Y-42720253D01*
X142175840Y-42786920D01*
X142175840Y-42853586D01*
X142142506Y-42953586D01*
X141742506Y-43353586D01*
X142175840Y-43353586D01*
G04 #@! TO.C,Q4*
X139909173Y-48506920D02*
X139875840Y-48473586D01*
X139842506Y-48406920D01*
X139842506Y-48240253D01*
X139875840Y-48173586D01*
X139909173Y-48140253D01*
X139975840Y-48106920D01*
X140042506Y-48106920D01*
X140142506Y-48140253D01*
X140542506Y-48540253D01*
X140542506Y-48106920D01*
X140542506Y-47806920D02*
X139842506Y-47806920D01*
X140542506Y-47406920D01*
X139842506Y-47406920D01*
X139842506Y-47140253D02*
X139842506Y-46673586D01*
X140542506Y-46973586D01*
X139842506Y-46273586D02*
X139842506Y-46206920D01*
X139875840Y-46140253D01*
X139909173Y-46106920D01*
X139975840Y-46073586D01*
X140109173Y-46040253D01*
X140275840Y-46040253D01*
X140409173Y-46073586D01*
X140475840Y-46106920D01*
X140509173Y-46140253D01*
X140542506Y-46206920D01*
X140542506Y-46273586D01*
X140509173Y-46340253D01*
X140475840Y-46373586D01*
X140409173Y-46406920D01*
X140275840Y-46440253D01*
X140109173Y-46440253D01*
X139975840Y-46406920D01*
X139909173Y-46373586D01*
X139875840Y-46340253D01*
X139842506Y-46273586D01*
X139842506Y-45606920D02*
X139842506Y-45540253D01*
X139875840Y-45473586D01*
X139909173Y-45440253D01*
X139975840Y-45406920D01*
X140109173Y-45373586D01*
X140275840Y-45373586D01*
X140409173Y-45406920D01*
X140475840Y-45440253D01*
X140509173Y-45473586D01*
X140542506Y-45540253D01*
X140542506Y-45606920D01*
X140509173Y-45673586D01*
X140475840Y-45706920D01*
X140409173Y-45740253D01*
X140275840Y-45773586D01*
X140109173Y-45773586D01*
X139975840Y-45740253D01*
X139909173Y-45706920D01*
X139875840Y-45673586D01*
X139842506Y-45606920D01*
X139909173Y-45106920D02*
X139875840Y-45073586D01*
X139842506Y-45006920D01*
X139842506Y-44840253D01*
X139875840Y-44773586D01*
X139909173Y-44740253D01*
X139975840Y-44706920D01*
X140042506Y-44706920D01*
X140142506Y-44740253D01*
X140542506Y-45140253D01*
X140542506Y-44706920D01*
G04 #@! TO.C,Q5*
X132479173Y-44366920D02*
X132245840Y-44366920D01*
X132245840Y-44733586D02*
X132245840Y-44033586D01*
X132579173Y-44033586D01*
X132845840Y-44733586D02*
X132845840Y-44033586D01*
X133012506Y-44033586D01*
X133112506Y-44066920D01*
X133179173Y-44133586D01*
X133212506Y-44200253D01*
X133245840Y-44333586D01*
X133245840Y-44433586D01*
X133212506Y-44566920D01*
X133179173Y-44633586D01*
X133112506Y-44700253D01*
X133012506Y-44733586D01*
X132845840Y-44733586D01*
X133545840Y-44733586D02*
X133545840Y-44033586D01*
X133945840Y-44733586D01*
X133945840Y-44033586D01*
X134212506Y-44033586D02*
X134645840Y-44033586D01*
X134412506Y-44300253D01*
X134512506Y-44300253D01*
X134579173Y-44333586D01*
X134612506Y-44366920D01*
X134645840Y-44433586D01*
X134645840Y-44600253D01*
X134612506Y-44666920D01*
X134579173Y-44700253D01*
X134512506Y-44733586D01*
X134312506Y-44733586D01*
X134245840Y-44700253D01*
X134212506Y-44666920D01*
X135079173Y-44033586D02*
X135145840Y-44033586D01*
X135212506Y-44066920D01*
X135245840Y-44100253D01*
X135279173Y-44166920D01*
X135312506Y-44300253D01*
X135312506Y-44466920D01*
X135279173Y-44600253D01*
X135245840Y-44666920D01*
X135212506Y-44700253D01*
X135145840Y-44733586D01*
X135079173Y-44733586D01*
X135012506Y-44700253D01*
X134979173Y-44666920D01*
X134945840Y-44600253D01*
X134912506Y-44466920D01*
X134912506Y-44300253D01*
X134945840Y-44166920D01*
X134979173Y-44100253D01*
X135012506Y-44066920D01*
X135079173Y-44033586D01*
X135912506Y-44033586D02*
X135779173Y-44033586D01*
X135712506Y-44066920D01*
X135679173Y-44100253D01*
X135612506Y-44200253D01*
X135579173Y-44333586D01*
X135579173Y-44600253D01*
X135612506Y-44666920D01*
X135645840Y-44700253D01*
X135712506Y-44733586D01*
X135845840Y-44733586D01*
X135912506Y-44700253D01*
X135945840Y-44666920D01*
X135979173Y-44600253D01*
X135979173Y-44433586D01*
X135945840Y-44366920D01*
X135912506Y-44333586D01*
X135845840Y-44300253D01*
X135712506Y-44300253D01*
X135645840Y-44333586D01*
X135612506Y-44366920D01*
X135579173Y-44433586D01*
X136279173Y-44733586D02*
X136279173Y-44033586D01*
X136545840Y-44033586D01*
X136612506Y-44066920D01*
X136645840Y-44100253D01*
X136679173Y-44166920D01*
X136679173Y-44266920D01*
X136645840Y-44333586D01*
X136612506Y-44366920D01*
X136545840Y-44400253D01*
X136279173Y-44400253D01*
G04 #@! TO.C,Q7*
X48205840Y-32660253D02*
X48239173Y-32626920D01*
X48305840Y-32593586D01*
X48472506Y-32593586D01*
X48539173Y-32626920D01*
X48572506Y-32660253D01*
X48605840Y-32726920D01*
X48605840Y-32793586D01*
X48572506Y-32893586D01*
X48172506Y-33293586D01*
X48605840Y-33293586D01*
X48905840Y-33293586D02*
X48905840Y-32593586D01*
X49305840Y-33293586D01*
X49305840Y-32593586D01*
X49572506Y-32593586D02*
X50039173Y-32593586D01*
X49739173Y-33293586D01*
X50439173Y-32593586D02*
X50505840Y-32593586D01*
X50572506Y-32626920D01*
X50605840Y-32660253D01*
X50639173Y-32726920D01*
X50672506Y-32860253D01*
X50672506Y-33026920D01*
X50639173Y-33160253D01*
X50605840Y-33226920D01*
X50572506Y-33260253D01*
X50505840Y-33293586D01*
X50439173Y-33293586D01*
X50372506Y-33260253D01*
X50339173Y-33226920D01*
X50305840Y-33160253D01*
X50272506Y-33026920D01*
X50272506Y-32860253D01*
X50305840Y-32726920D01*
X50339173Y-32660253D01*
X50372506Y-32626920D01*
X50439173Y-32593586D01*
X51105840Y-32593586D02*
X51172506Y-32593586D01*
X51239173Y-32626920D01*
X51272506Y-32660253D01*
X51305840Y-32726920D01*
X51339173Y-32860253D01*
X51339173Y-33026920D01*
X51305840Y-33160253D01*
X51272506Y-33226920D01*
X51239173Y-33260253D01*
X51172506Y-33293586D01*
X51105840Y-33293586D01*
X51039173Y-33260253D01*
X51005840Y-33226920D01*
X50972506Y-33160253D01*
X50939173Y-33026920D01*
X50939173Y-32860253D01*
X50972506Y-32726920D01*
X51005840Y-32660253D01*
X51039173Y-32626920D01*
X51105840Y-32593586D01*
X51605840Y-32660253D02*
X51639173Y-32626920D01*
X51705840Y-32593586D01*
X51872506Y-32593586D01*
X51939173Y-32626920D01*
X51972506Y-32660253D01*
X52005840Y-32726920D01*
X52005840Y-32793586D01*
X51972506Y-32893586D01*
X51572506Y-33293586D01*
X52005840Y-33293586D01*
G04 #@! TO.C,Q8*
X200595840Y-32660253D02*
X200629173Y-32626920D01*
X200695840Y-32593586D01*
X200862506Y-32593586D01*
X200929173Y-32626920D01*
X200962506Y-32660253D01*
X200995840Y-32726920D01*
X200995840Y-32793586D01*
X200962506Y-32893586D01*
X200562506Y-33293586D01*
X200995840Y-33293586D01*
X201295840Y-33293586D02*
X201295840Y-32593586D01*
X201695840Y-33293586D01*
X201695840Y-32593586D01*
X201962506Y-32593586D02*
X202429173Y-32593586D01*
X202129173Y-33293586D01*
X202829173Y-32593586D02*
X202895840Y-32593586D01*
X202962506Y-32626920D01*
X202995840Y-32660253D01*
X203029173Y-32726920D01*
X203062506Y-32860253D01*
X203062506Y-33026920D01*
X203029173Y-33160253D01*
X202995840Y-33226920D01*
X202962506Y-33260253D01*
X202895840Y-33293586D01*
X202829173Y-33293586D01*
X202762506Y-33260253D01*
X202729173Y-33226920D01*
X202695840Y-33160253D01*
X202662506Y-33026920D01*
X202662506Y-32860253D01*
X202695840Y-32726920D01*
X202729173Y-32660253D01*
X202762506Y-32626920D01*
X202829173Y-32593586D01*
X203495840Y-32593586D02*
X203562506Y-32593586D01*
X203629173Y-32626920D01*
X203662506Y-32660253D01*
X203695840Y-32726920D01*
X203729173Y-32860253D01*
X203729173Y-33026920D01*
X203695840Y-33160253D01*
X203662506Y-33226920D01*
X203629173Y-33260253D01*
X203562506Y-33293586D01*
X203495840Y-33293586D01*
X203429173Y-33260253D01*
X203395840Y-33226920D01*
X203362506Y-33160253D01*
X203329173Y-33026920D01*
X203329173Y-32860253D01*
X203362506Y-32726920D01*
X203395840Y-32660253D01*
X203429173Y-32626920D01*
X203495840Y-32593586D01*
X203995840Y-32660253D02*
X204029173Y-32626920D01*
X204095840Y-32593586D01*
X204262506Y-32593586D01*
X204329173Y-32626920D01*
X204362506Y-32660253D01*
X204395840Y-32726920D01*
X204395840Y-32793586D01*
X204362506Y-32893586D01*
X203962506Y-33293586D01*
X204395840Y-33293586D01*
G04 #@! TO.C,R3*
X143302506Y-43270253D02*
X143302506Y-43670253D01*
X143302506Y-43470253D02*
X142602506Y-43470253D01*
X142702506Y-43536920D01*
X142769173Y-43603586D01*
X142802506Y-43670253D01*
X142602506Y-42836920D02*
X142602506Y-42770253D01*
X142635840Y-42703586D01*
X142669173Y-42670253D01*
X142735840Y-42636920D01*
X142869173Y-42603586D01*
X143035840Y-42603586D01*
X143169173Y-42636920D01*
X143235840Y-42670253D01*
X143269173Y-42703586D01*
X143302506Y-42770253D01*
X143302506Y-42836920D01*
X143269173Y-42903586D01*
X143235840Y-42936920D01*
X143169173Y-42970253D01*
X143035840Y-43003586D01*
X142869173Y-43003586D01*
X142735840Y-42970253D01*
X142669173Y-42936920D01*
X142635840Y-42903586D01*
X142602506Y-42836920D01*
X143302506Y-42303586D02*
X142602506Y-42303586D01*
X143302506Y-41903586D02*
X142902506Y-42203586D01*
X142602506Y-41903586D02*
X143002506Y-42303586D01*
G04 #@! TO.C,R4*
X143302506Y-46060253D02*
X143302506Y-46460253D01*
X143302506Y-46260253D02*
X142602506Y-46260253D01*
X142702506Y-46326920D01*
X142769173Y-46393586D01*
X142802506Y-46460253D01*
X142602506Y-45626920D02*
X142602506Y-45560253D01*
X142635840Y-45493586D01*
X142669173Y-45460253D01*
X142735840Y-45426920D01*
X142869173Y-45393586D01*
X143035840Y-45393586D01*
X143169173Y-45426920D01*
X143235840Y-45460253D01*
X143269173Y-45493586D01*
X143302506Y-45560253D01*
X143302506Y-45626920D01*
X143269173Y-45693586D01*
X143235840Y-45726920D01*
X143169173Y-45760253D01*
X143035840Y-45793586D01*
X142869173Y-45793586D01*
X142735840Y-45760253D01*
X142669173Y-45726920D01*
X142635840Y-45693586D01*
X142602506Y-45626920D01*
X143302506Y-45093586D02*
X142602506Y-45093586D01*
X143302506Y-44693586D02*
X142902506Y-44993586D01*
X142602506Y-44693586D02*
X143002506Y-45093586D01*
G04 #@! TO.C,R8*
X133762506Y-42183586D02*
X133362506Y-42183586D01*
X133562506Y-42183586D02*
X133562506Y-41483586D01*
X133495840Y-41583586D01*
X133429173Y-41650253D01*
X133362506Y-41683586D01*
X134195840Y-41483586D02*
X134262506Y-41483586D01*
X134329173Y-41516920D01*
X134362506Y-41550253D01*
X134395840Y-41616920D01*
X134429173Y-41750253D01*
X134429173Y-41916920D01*
X134395840Y-42050253D01*
X134362506Y-42116920D01*
X134329173Y-42150253D01*
X134262506Y-42183586D01*
X134195840Y-42183586D01*
X134129173Y-42150253D01*
X134095840Y-42116920D01*
X134062506Y-42050253D01*
X134029173Y-41916920D01*
X134029173Y-41750253D01*
X134062506Y-41616920D01*
X134095840Y-41550253D01*
X134129173Y-41516920D01*
X134195840Y-41483586D01*
X134729173Y-42183586D02*
X134729173Y-41483586D01*
X135129173Y-42183586D02*
X134829173Y-41783586D01*
X135129173Y-41483586D02*
X134729173Y-41883586D01*
G04 #@! TO.C,R13*
X132142506Y-44650253D02*
X132142506Y-45050253D01*
X132142506Y-44850253D02*
X131442506Y-44850253D01*
X131542506Y-44916920D01*
X131609173Y-44983586D01*
X131642506Y-45050253D01*
X131442506Y-44216920D02*
X131442506Y-44150253D01*
X131475840Y-44083586D01*
X131509173Y-44050253D01*
X131575840Y-44016920D01*
X131709173Y-43983586D01*
X131875840Y-43983586D01*
X132009173Y-44016920D01*
X132075840Y-44050253D01*
X132109173Y-44083586D01*
X132142506Y-44150253D01*
X132142506Y-44216920D01*
X132109173Y-44283586D01*
X132075840Y-44316920D01*
X132009173Y-44350253D01*
X131875840Y-44383586D01*
X131709173Y-44383586D01*
X131575840Y-44350253D01*
X131509173Y-44316920D01*
X131475840Y-44283586D01*
X131442506Y-44216920D01*
X132142506Y-43683586D02*
X131442506Y-43683586D01*
X132142506Y-43283586D02*
X131742506Y-43583586D01*
X131442506Y-43283586D02*
X131842506Y-43683586D01*
G04 #@! TO.C,R17*
X119682506Y-26630253D02*
X119682506Y-27030253D01*
X119682506Y-26830253D02*
X118982506Y-26830253D01*
X119082506Y-26896920D01*
X119149173Y-26963586D01*
X119182506Y-27030253D01*
X118982506Y-26196920D02*
X118982506Y-26130253D01*
X119015840Y-26063586D01*
X119049173Y-26030253D01*
X119115840Y-25996920D01*
X119249173Y-25963586D01*
X119415840Y-25963586D01*
X119549173Y-25996920D01*
X119615840Y-26030253D01*
X119649173Y-26063586D01*
X119682506Y-26130253D01*
X119682506Y-26196920D01*
X119649173Y-26263586D01*
X119615840Y-26296920D01*
X119549173Y-26330253D01*
X119415840Y-26363586D01*
X119249173Y-26363586D01*
X119115840Y-26330253D01*
X119049173Y-26296920D01*
X119015840Y-26263586D01*
X118982506Y-26196920D01*
X119682506Y-25663586D02*
X118982506Y-25663586D01*
X119682506Y-25263586D02*
X119282506Y-25563586D01*
X118982506Y-25263586D02*
X119382506Y-25663586D01*
G04 #@! TO.C,R39*
X116332506Y-26700253D02*
X116332506Y-27100253D01*
X116332506Y-26900253D02*
X115632506Y-26900253D01*
X115732506Y-26966920D01*
X115799173Y-27033586D01*
X115832506Y-27100253D01*
X115632506Y-26266920D02*
X115632506Y-26200253D01*
X115665840Y-26133586D01*
X115699173Y-26100253D01*
X115765840Y-26066920D01*
X115899173Y-26033586D01*
X116065840Y-26033586D01*
X116199173Y-26066920D01*
X116265840Y-26100253D01*
X116299173Y-26133586D01*
X116332506Y-26200253D01*
X116332506Y-26266920D01*
X116299173Y-26333586D01*
X116265840Y-26366920D01*
X116199173Y-26400253D01*
X116065840Y-26433586D01*
X115899173Y-26433586D01*
X115765840Y-26400253D01*
X115699173Y-26366920D01*
X115665840Y-26333586D01*
X115632506Y-26266920D01*
X116332506Y-25733586D02*
X115632506Y-25733586D01*
X116332506Y-25333586D02*
X115932506Y-25633586D01*
X115632506Y-25333586D02*
X116032506Y-25733586D01*
G04 #@! TO.C,R1*
X33642506Y-42130253D02*
X33642506Y-42530253D01*
X33642506Y-42330253D02*
X32942506Y-42330253D01*
X33042506Y-42396920D01*
X33109173Y-42463586D01*
X33142506Y-42530253D01*
X32942506Y-41696920D02*
X32942506Y-41630253D01*
X32975840Y-41563586D01*
X33009173Y-41530253D01*
X33075840Y-41496920D01*
X33209173Y-41463586D01*
X33375840Y-41463586D01*
X33509173Y-41496920D01*
X33575840Y-41530253D01*
X33609173Y-41563586D01*
X33642506Y-41630253D01*
X33642506Y-41696920D01*
X33609173Y-41763586D01*
X33575840Y-41796920D01*
X33509173Y-41830253D01*
X33375840Y-41863586D01*
X33209173Y-41863586D01*
X33075840Y-41830253D01*
X33009173Y-41796920D01*
X32975840Y-41763586D01*
X32942506Y-41696920D01*
X33642506Y-41163586D02*
X32942506Y-41163586D01*
X33642506Y-40763586D02*
X33242506Y-41063586D01*
X32942506Y-40763586D02*
X33342506Y-41163586D01*
G04 #@! TO.C,R2*
X186032506Y-42190253D02*
X186032506Y-42590253D01*
X186032506Y-42390253D02*
X185332506Y-42390253D01*
X185432506Y-42456920D01*
X185499173Y-42523586D01*
X185532506Y-42590253D01*
X185332506Y-41756920D02*
X185332506Y-41690253D01*
X185365840Y-41623586D01*
X185399173Y-41590253D01*
X185465840Y-41556920D01*
X185599173Y-41523586D01*
X185765840Y-41523586D01*
X185899173Y-41556920D01*
X185965840Y-41590253D01*
X185999173Y-41623586D01*
X186032506Y-41690253D01*
X186032506Y-41756920D01*
X185999173Y-41823586D01*
X185965840Y-41856920D01*
X185899173Y-41890253D01*
X185765840Y-41923586D01*
X185599173Y-41923586D01*
X185465840Y-41890253D01*
X185399173Y-41856920D01*
X185365840Y-41823586D01*
X185332506Y-41756920D01*
X186032506Y-41223586D02*
X185332506Y-41223586D01*
X186032506Y-40823586D02*
X185632506Y-41123586D01*
X185332506Y-40823586D02*
X185732506Y-41223586D01*
G04 #@! TO.C,R11*
X42602506Y-42146953D02*
X42602506Y-42546953D01*
X42602506Y-42346953D02*
X41902506Y-42346953D01*
X42002506Y-42413620D01*
X42069173Y-42480286D01*
X42102506Y-42546953D01*
X41902506Y-41713620D02*
X41902506Y-41646953D01*
X41935840Y-41580286D01*
X41969173Y-41546953D01*
X42035840Y-41513620D01*
X42169173Y-41480286D01*
X42335840Y-41480286D01*
X42469173Y-41513620D01*
X42535840Y-41546953D01*
X42569173Y-41580286D01*
X42602506Y-41646953D01*
X42602506Y-41713620D01*
X42569173Y-41780286D01*
X42535840Y-41813620D01*
X42469173Y-41846953D01*
X42335840Y-41880286D01*
X42169173Y-41880286D01*
X42035840Y-41846953D01*
X41969173Y-41813620D01*
X41935840Y-41780286D01*
X41902506Y-41713620D01*
X42602506Y-41180286D02*
X41902506Y-41180286D01*
X42602506Y-40780286D02*
X42202506Y-41080286D01*
X41902506Y-40780286D02*
X42302506Y-41180286D01*
G04 #@! TO.C,R12*
X195022506Y-42190253D02*
X195022506Y-42590253D01*
X195022506Y-42390253D02*
X194322506Y-42390253D01*
X194422506Y-42456920D01*
X194489173Y-42523586D01*
X194522506Y-42590253D01*
X194322506Y-41756920D02*
X194322506Y-41690253D01*
X194355840Y-41623586D01*
X194389173Y-41590253D01*
X194455840Y-41556920D01*
X194589173Y-41523586D01*
X194755840Y-41523586D01*
X194889173Y-41556920D01*
X194955840Y-41590253D01*
X194989173Y-41623586D01*
X195022506Y-41690253D01*
X195022506Y-41756920D01*
X194989173Y-41823586D01*
X194955840Y-41856920D01*
X194889173Y-41890253D01*
X194755840Y-41923586D01*
X194589173Y-41923586D01*
X194455840Y-41890253D01*
X194389173Y-41856920D01*
X194355840Y-41823586D01*
X194322506Y-41756920D01*
X195022506Y-41223586D02*
X194322506Y-41223586D01*
X195022506Y-40823586D02*
X194622506Y-41123586D01*
X194322506Y-40823586D02*
X194722506Y-41223586D01*
G04 #@! TO.C,R23*
X-414027Y-34730253D02*
X-380694Y-34696920D01*
X-314027Y-34663586D01*
X-147360Y-34663586D01*
X-80694Y-34696920D01*
X-47360Y-34730253D01*
X-14027Y-34796920D01*
X-14027Y-34863586D01*
X-47360Y-34963586D01*
X-447360Y-35363586D01*
X-14027Y-35363586D01*
X252640Y-34730253D02*
X285973Y-34696920D01*
X352640Y-34663586D01*
X519306Y-34663586D01*
X585973Y-34696920D01*
X619306Y-34730253D01*
X652640Y-34796920D01*
X652640Y-34863586D01*
X619306Y-34963586D01*
X219306Y-35363586D01*
X652640Y-35363586D01*
X1085973Y-34663586D02*
X1152640Y-34663586D01*
X1219306Y-34696920D01*
X1252640Y-34730253D01*
X1285973Y-34796920D01*
X1319306Y-34930253D01*
X1319306Y-35096920D01*
X1285973Y-35230253D01*
X1252640Y-35296920D01*
X1219306Y-35330253D01*
X1152640Y-35363586D01*
X1085973Y-35363586D01*
X1019306Y-35330253D01*
X985973Y-35296920D01*
X952640Y-35230253D01*
X919306Y-35096920D01*
X919306Y-34930253D01*
X952640Y-34796920D01*
X985973Y-34730253D01*
X1019306Y-34696920D01*
X1085973Y-34663586D01*
X2019306Y-35363586D02*
X1785973Y-35030253D01*
X1619306Y-35363586D02*
X1619306Y-34663586D01*
X1885973Y-34663586D01*
X1952640Y-34696920D01*
X1985973Y-34730253D01*
X2019306Y-34796920D01*
X2019306Y-34896920D01*
X1985973Y-34963586D01*
X1952640Y-34996920D01*
X1885973Y-35030253D01*
X1619306Y-35030253D01*
G04 #@! TO.C,R24*
X-414027Y-36432053D02*
X-380694Y-36398720D01*
X-314027Y-36365386D01*
X-147360Y-36365386D01*
X-80694Y-36398720D01*
X-47360Y-36432053D01*
X-14027Y-36498720D01*
X-14027Y-36565386D01*
X-47360Y-36665386D01*
X-447360Y-37065386D01*
X-14027Y-37065386D01*
X252640Y-36432053D02*
X285973Y-36398720D01*
X352640Y-36365386D01*
X519306Y-36365386D01*
X585973Y-36398720D01*
X619306Y-36432053D01*
X652640Y-36498720D01*
X652640Y-36565386D01*
X619306Y-36665386D01*
X219306Y-37065386D01*
X652640Y-37065386D01*
X1085973Y-36365386D02*
X1152640Y-36365386D01*
X1219306Y-36398720D01*
X1252640Y-36432053D01*
X1285973Y-36498720D01*
X1319306Y-36632053D01*
X1319306Y-36798720D01*
X1285973Y-36932053D01*
X1252640Y-36998720D01*
X1219306Y-37032053D01*
X1152640Y-37065386D01*
X1085973Y-37065386D01*
X1019306Y-37032053D01*
X985973Y-36998720D01*
X952640Y-36932053D01*
X919306Y-36798720D01*
X919306Y-36632053D01*
X952640Y-36498720D01*
X985973Y-36432053D01*
X1019306Y-36398720D01*
X1085973Y-36365386D01*
X2019306Y-37065386D02*
X1785973Y-36732053D01*
X1619306Y-37065386D02*
X1619306Y-36365386D01*
X1885973Y-36365386D01*
X1952640Y-36398720D01*
X1985973Y-36432053D01*
X2019306Y-36498720D01*
X2019306Y-36598720D01*
X1985973Y-36665386D01*
X1952640Y-36698720D01*
X1885973Y-36732053D01*
X1619306Y-36732053D01*
G04 #@! TO.C,R25*
X-414027Y-38133853D02*
X-380694Y-38100520D01*
X-314027Y-38067186D01*
X-147360Y-38067186D01*
X-80694Y-38100520D01*
X-47360Y-38133853D01*
X-14027Y-38200520D01*
X-14027Y-38267186D01*
X-47360Y-38367186D01*
X-447360Y-38767186D01*
X-14027Y-38767186D01*
X252640Y-38133853D02*
X285973Y-38100520D01*
X352640Y-38067186D01*
X519306Y-38067186D01*
X585973Y-38100520D01*
X619306Y-38133853D01*
X652640Y-38200520D01*
X652640Y-38267186D01*
X619306Y-38367186D01*
X219306Y-38767186D01*
X652640Y-38767186D01*
X1085973Y-38067186D02*
X1152640Y-38067186D01*
X1219306Y-38100520D01*
X1252640Y-38133853D01*
X1285973Y-38200520D01*
X1319306Y-38333853D01*
X1319306Y-38500520D01*
X1285973Y-38633853D01*
X1252640Y-38700520D01*
X1219306Y-38733853D01*
X1152640Y-38767186D01*
X1085973Y-38767186D01*
X1019306Y-38733853D01*
X985973Y-38700520D01*
X952640Y-38633853D01*
X919306Y-38500520D01*
X919306Y-38333853D01*
X952640Y-38200520D01*
X985973Y-38133853D01*
X1019306Y-38100520D01*
X1085973Y-38067186D01*
X2019306Y-38767186D02*
X1785973Y-38433853D01*
X1619306Y-38767186D02*
X1619306Y-38067186D01*
X1885973Y-38067186D01*
X1952640Y-38100520D01*
X1985973Y-38133853D01*
X2019306Y-38200520D01*
X2019306Y-38300520D01*
X1985973Y-38367186D01*
X1952640Y-38400520D01*
X1885973Y-38433853D01*
X1619306Y-38433853D01*
G04 #@! TO.C,R28*
X75633573Y-34730253D02*
X75666906Y-34696920D01*
X75733573Y-34663586D01*
X75900240Y-34663586D01*
X75966906Y-34696920D01*
X76000240Y-34730253D01*
X76033573Y-34796920D01*
X76033573Y-34863586D01*
X76000240Y-34963586D01*
X75600240Y-35363586D01*
X76033573Y-35363586D01*
X76300240Y-34730253D02*
X76333573Y-34696920D01*
X76400240Y-34663586D01*
X76566906Y-34663586D01*
X76633573Y-34696920D01*
X76666906Y-34730253D01*
X76700240Y-34796920D01*
X76700240Y-34863586D01*
X76666906Y-34963586D01*
X76266906Y-35363586D01*
X76700240Y-35363586D01*
X77133573Y-34663586D02*
X77200240Y-34663586D01*
X77266906Y-34696920D01*
X77300240Y-34730253D01*
X77333573Y-34796920D01*
X77366906Y-34930253D01*
X77366906Y-35096920D01*
X77333573Y-35230253D01*
X77300240Y-35296920D01*
X77266906Y-35330253D01*
X77200240Y-35363586D01*
X77133573Y-35363586D01*
X77066906Y-35330253D01*
X77033573Y-35296920D01*
X77000240Y-35230253D01*
X76966906Y-35096920D01*
X76966906Y-34930253D01*
X77000240Y-34796920D01*
X77033573Y-34730253D01*
X77066906Y-34696920D01*
X77133573Y-34663586D01*
X78066906Y-35363586D02*
X77833573Y-35030253D01*
X77666906Y-35363586D02*
X77666906Y-34663586D01*
X77933573Y-34663586D01*
X78000240Y-34696920D01*
X78033573Y-34730253D01*
X78066906Y-34796920D01*
X78066906Y-34896920D01*
X78033573Y-34963586D01*
X78000240Y-34996920D01*
X77933573Y-35030253D01*
X77666906Y-35030253D01*
G04 #@! TO.C,R29*
X75633573Y-36432053D02*
X75666906Y-36398720D01*
X75733573Y-36365386D01*
X75900240Y-36365386D01*
X75966906Y-36398720D01*
X76000240Y-36432053D01*
X76033573Y-36498720D01*
X76033573Y-36565386D01*
X76000240Y-36665386D01*
X75600240Y-37065386D01*
X76033573Y-37065386D01*
X76300240Y-36432053D02*
X76333573Y-36398720D01*
X76400240Y-36365386D01*
X76566906Y-36365386D01*
X76633573Y-36398720D01*
X76666906Y-36432053D01*
X76700240Y-36498720D01*
X76700240Y-36565386D01*
X76666906Y-36665386D01*
X76266906Y-37065386D01*
X76700240Y-37065386D01*
X77133573Y-36365386D02*
X77200240Y-36365386D01*
X77266906Y-36398720D01*
X77300240Y-36432053D01*
X77333573Y-36498720D01*
X77366906Y-36632053D01*
X77366906Y-36798720D01*
X77333573Y-36932053D01*
X77300240Y-36998720D01*
X77266906Y-37032053D01*
X77200240Y-37065386D01*
X77133573Y-37065386D01*
X77066906Y-37032053D01*
X77033573Y-36998720D01*
X77000240Y-36932053D01*
X76966906Y-36798720D01*
X76966906Y-36632053D01*
X77000240Y-36498720D01*
X77033573Y-36432053D01*
X77066906Y-36398720D01*
X77133573Y-36365386D01*
X78066906Y-37065386D02*
X77833573Y-36732053D01*
X77666906Y-37065386D02*
X77666906Y-36365386D01*
X77933573Y-36365386D01*
X78000240Y-36398720D01*
X78033573Y-36432053D01*
X78066906Y-36498720D01*
X78066906Y-36598720D01*
X78033573Y-36665386D01*
X78000240Y-36698720D01*
X77933573Y-36732053D01*
X77666906Y-36732053D01*
G04 #@! TO.C,R30*
X75633573Y-38133853D02*
X75666906Y-38100520D01*
X75733573Y-38067186D01*
X75900240Y-38067186D01*
X75966906Y-38100520D01*
X76000240Y-38133853D01*
X76033573Y-38200520D01*
X76033573Y-38267186D01*
X76000240Y-38367186D01*
X75600240Y-38767186D01*
X76033573Y-38767186D01*
X76300240Y-38133853D02*
X76333573Y-38100520D01*
X76400240Y-38067186D01*
X76566906Y-38067186D01*
X76633573Y-38100520D01*
X76666906Y-38133853D01*
X76700240Y-38200520D01*
X76700240Y-38267186D01*
X76666906Y-38367186D01*
X76266906Y-38767186D01*
X76700240Y-38767186D01*
X77133573Y-38067186D02*
X77200240Y-38067186D01*
X77266906Y-38100520D01*
X77300240Y-38133853D01*
X77333573Y-38200520D01*
X77366906Y-38333853D01*
X77366906Y-38500520D01*
X77333573Y-38633853D01*
X77300240Y-38700520D01*
X77266906Y-38733853D01*
X77200240Y-38767186D01*
X77133573Y-38767186D01*
X77066906Y-38733853D01*
X77033573Y-38700520D01*
X77000240Y-38633853D01*
X76966906Y-38500520D01*
X76966906Y-38333853D01*
X77000240Y-38200520D01*
X77033573Y-38133853D01*
X77066906Y-38100520D01*
X77133573Y-38067186D01*
X78066906Y-38767186D02*
X77833573Y-38433853D01*
X77666906Y-38767186D02*
X77666906Y-38067186D01*
X77933573Y-38067186D01*
X78000240Y-38100520D01*
X78033573Y-38133853D01*
X78066906Y-38200520D01*
X78066906Y-38300520D01*
X78033573Y-38367186D01*
X78000240Y-38400520D01*
X77933573Y-38433853D01*
X77666906Y-38433853D01*
G04 #@! TO.C,R31*
X151985973Y-34730253D02*
X152019306Y-34696920D01*
X152085973Y-34663586D01*
X152252640Y-34663586D01*
X152319306Y-34696920D01*
X152352640Y-34730253D01*
X152385973Y-34796920D01*
X152385973Y-34863586D01*
X152352640Y-34963586D01*
X151952640Y-35363586D01*
X152385973Y-35363586D01*
X152652640Y-34730253D02*
X152685973Y-34696920D01*
X152752640Y-34663586D01*
X152919306Y-34663586D01*
X152985973Y-34696920D01*
X153019306Y-34730253D01*
X153052640Y-34796920D01*
X153052640Y-34863586D01*
X153019306Y-34963586D01*
X152619306Y-35363586D01*
X153052640Y-35363586D01*
X153485973Y-34663586D02*
X153552640Y-34663586D01*
X153619306Y-34696920D01*
X153652640Y-34730253D01*
X153685973Y-34796920D01*
X153719306Y-34930253D01*
X153719306Y-35096920D01*
X153685973Y-35230253D01*
X153652640Y-35296920D01*
X153619306Y-35330253D01*
X153552640Y-35363586D01*
X153485973Y-35363586D01*
X153419306Y-35330253D01*
X153385973Y-35296920D01*
X153352640Y-35230253D01*
X153319306Y-35096920D01*
X153319306Y-34930253D01*
X153352640Y-34796920D01*
X153385973Y-34730253D01*
X153419306Y-34696920D01*
X153485973Y-34663586D01*
X154419306Y-35363586D02*
X154185973Y-35030253D01*
X154019306Y-35363586D02*
X154019306Y-34663586D01*
X154285973Y-34663586D01*
X154352640Y-34696920D01*
X154385973Y-34730253D01*
X154419306Y-34796920D01*
X154419306Y-34896920D01*
X154385973Y-34963586D01*
X154352640Y-34996920D01*
X154285973Y-35030253D01*
X154019306Y-35030253D01*
G04 #@! TO.C,R32*
X151985973Y-36432053D02*
X152019306Y-36398720D01*
X152085973Y-36365386D01*
X152252640Y-36365386D01*
X152319306Y-36398720D01*
X152352640Y-36432053D01*
X152385973Y-36498720D01*
X152385973Y-36565386D01*
X152352640Y-36665386D01*
X151952640Y-37065386D01*
X152385973Y-37065386D01*
X152652640Y-36432053D02*
X152685973Y-36398720D01*
X152752640Y-36365386D01*
X152919306Y-36365386D01*
X152985973Y-36398720D01*
X153019306Y-36432053D01*
X153052640Y-36498720D01*
X153052640Y-36565386D01*
X153019306Y-36665386D01*
X152619306Y-37065386D01*
X153052640Y-37065386D01*
X153485973Y-36365386D02*
X153552640Y-36365386D01*
X153619306Y-36398720D01*
X153652640Y-36432053D01*
X153685973Y-36498720D01*
X153719306Y-36632053D01*
X153719306Y-36798720D01*
X153685973Y-36932053D01*
X153652640Y-36998720D01*
X153619306Y-37032053D01*
X153552640Y-37065386D01*
X153485973Y-37065386D01*
X153419306Y-37032053D01*
X153385973Y-36998720D01*
X153352640Y-36932053D01*
X153319306Y-36798720D01*
X153319306Y-36632053D01*
X153352640Y-36498720D01*
X153385973Y-36432053D01*
X153419306Y-36398720D01*
X153485973Y-36365386D01*
X154419306Y-37065386D02*
X154185973Y-36732053D01*
X154019306Y-37065386D02*
X154019306Y-36365386D01*
X154285973Y-36365386D01*
X154352640Y-36398720D01*
X154385973Y-36432053D01*
X154419306Y-36498720D01*
X154419306Y-36598720D01*
X154385973Y-36665386D01*
X154352640Y-36698720D01*
X154285973Y-36732053D01*
X154019306Y-36732053D01*
G04 #@! TO.C,R33*
X151985973Y-38133853D02*
X152019306Y-38100520D01*
X152085973Y-38067186D01*
X152252640Y-38067186D01*
X152319306Y-38100520D01*
X152352640Y-38133853D01*
X152385973Y-38200520D01*
X152385973Y-38267186D01*
X152352640Y-38367186D01*
X151952640Y-38767186D01*
X152385973Y-38767186D01*
X152652640Y-38133853D02*
X152685973Y-38100520D01*
X152752640Y-38067186D01*
X152919306Y-38067186D01*
X152985973Y-38100520D01*
X153019306Y-38133853D01*
X153052640Y-38200520D01*
X153052640Y-38267186D01*
X153019306Y-38367186D01*
X152619306Y-38767186D01*
X153052640Y-38767186D01*
X153485973Y-38067186D02*
X153552640Y-38067186D01*
X153619306Y-38100520D01*
X153652640Y-38133853D01*
X153685973Y-38200520D01*
X153719306Y-38333853D01*
X153719306Y-38500520D01*
X153685973Y-38633853D01*
X153652640Y-38700520D01*
X153619306Y-38733853D01*
X153552640Y-38767186D01*
X153485973Y-38767186D01*
X153419306Y-38733853D01*
X153385973Y-38700520D01*
X153352640Y-38633853D01*
X153319306Y-38500520D01*
X153319306Y-38333853D01*
X153352640Y-38200520D01*
X153385973Y-38133853D01*
X153419306Y-38100520D01*
X153485973Y-38067186D01*
X154419306Y-38767186D02*
X154185973Y-38433853D01*
X154019306Y-38767186D02*
X154019306Y-38067186D01*
X154285973Y-38067186D01*
X154352640Y-38100520D01*
X154385973Y-38133853D01*
X154419306Y-38200520D01*
X154419306Y-38300520D01*
X154385973Y-38367186D01*
X154352640Y-38400520D01*
X154285973Y-38433853D01*
X154019306Y-38433853D01*
G04 #@! TO.C,R34*
X228185973Y-34730253D02*
X228219306Y-34696920D01*
X228285973Y-34663586D01*
X228452640Y-34663586D01*
X228519306Y-34696920D01*
X228552640Y-34730253D01*
X228585973Y-34796920D01*
X228585973Y-34863586D01*
X228552640Y-34963586D01*
X228152640Y-35363586D01*
X228585973Y-35363586D01*
X228852640Y-34730253D02*
X228885973Y-34696920D01*
X228952640Y-34663586D01*
X229119306Y-34663586D01*
X229185973Y-34696920D01*
X229219306Y-34730253D01*
X229252640Y-34796920D01*
X229252640Y-34863586D01*
X229219306Y-34963586D01*
X228819306Y-35363586D01*
X229252640Y-35363586D01*
X229685973Y-34663586D02*
X229752640Y-34663586D01*
X229819306Y-34696920D01*
X229852640Y-34730253D01*
X229885973Y-34796920D01*
X229919306Y-34930253D01*
X229919306Y-35096920D01*
X229885973Y-35230253D01*
X229852640Y-35296920D01*
X229819306Y-35330253D01*
X229752640Y-35363586D01*
X229685973Y-35363586D01*
X229619306Y-35330253D01*
X229585973Y-35296920D01*
X229552640Y-35230253D01*
X229519306Y-35096920D01*
X229519306Y-34930253D01*
X229552640Y-34796920D01*
X229585973Y-34730253D01*
X229619306Y-34696920D01*
X229685973Y-34663586D01*
X230619306Y-35363586D02*
X230385973Y-35030253D01*
X230219306Y-35363586D02*
X230219306Y-34663586D01*
X230485973Y-34663586D01*
X230552640Y-34696920D01*
X230585973Y-34730253D01*
X230619306Y-34796920D01*
X230619306Y-34896920D01*
X230585973Y-34963586D01*
X230552640Y-34996920D01*
X230485973Y-35030253D01*
X230219306Y-35030253D01*
G04 #@! TO.C,R35*
X228185973Y-36432053D02*
X228219306Y-36398720D01*
X228285973Y-36365386D01*
X228452640Y-36365386D01*
X228519306Y-36398720D01*
X228552640Y-36432053D01*
X228585973Y-36498720D01*
X228585973Y-36565386D01*
X228552640Y-36665386D01*
X228152640Y-37065386D01*
X228585973Y-37065386D01*
X228852640Y-36432053D02*
X228885973Y-36398720D01*
X228952640Y-36365386D01*
X229119306Y-36365386D01*
X229185973Y-36398720D01*
X229219306Y-36432053D01*
X229252640Y-36498720D01*
X229252640Y-36565386D01*
X229219306Y-36665386D01*
X228819306Y-37065386D01*
X229252640Y-37065386D01*
X229685973Y-36365386D02*
X229752640Y-36365386D01*
X229819306Y-36398720D01*
X229852640Y-36432053D01*
X229885973Y-36498720D01*
X229919306Y-36632053D01*
X229919306Y-36798720D01*
X229885973Y-36932053D01*
X229852640Y-36998720D01*
X229819306Y-37032053D01*
X229752640Y-37065386D01*
X229685973Y-37065386D01*
X229619306Y-37032053D01*
X229585973Y-36998720D01*
X229552640Y-36932053D01*
X229519306Y-36798720D01*
X229519306Y-36632053D01*
X229552640Y-36498720D01*
X229585973Y-36432053D01*
X229619306Y-36398720D01*
X229685973Y-36365386D01*
X230619306Y-37065386D02*
X230385973Y-36732053D01*
X230219306Y-37065386D02*
X230219306Y-36365386D01*
X230485973Y-36365386D01*
X230552640Y-36398720D01*
X230585973Y-36432053D01*
X230619306Y-36498720D01*
X230619306Y-36598720D01*
X230585973Y-36665386D01*
X230552640Y-36698720D01*
X230485973Y-36732053D01*
X230219306Y-36732053D01*
G04 #@! TO.C,R36*
X228185973Y-38133853D02*
X228219306Y-38100520D01*
X228285973Y-38067186D01*
X228452640Y-38067186D01*
X228519306Y-38100520D01*
X228552640Y-38133853D01*
X228585973Y-38200520D01*
X228585973Y-38267186D01*
X228552640Y-38367186D01*
X228152640Y-38767186D01*
X228585973Y-38767186D01*
X228852640Y-38133853D02*
X228885973Y-38100520D01*
X228952640Y-38067186D01*
X229119306Y-38067186D01*
X229185973Y-38100520D01*
X229219306Y-38133853D01*
X229252640Y-38200520D01*
X229252640Y-38267186D01*
X229219306Y-38367186D01*
X228819306Y-38767186D01*
X229252640Y-38767186D01*
X229685973Y-38067186D02*
X229752640Y-38067186D01*
X229819306Y-38100520D01*
X229852640Y-38133853D01*
X229885973Y-38200520D01*
X229919306Y-38333853D01*
X229919306Y-38500520D01*
X229885973Y-38633853D01*
X229852640Y-38700520D01*
X229819306Y-38733853D01*
X229752640Y-38767186D01*
X229685973Y-38767186D01*
X229619306Y-38733853D01*
X229585973Y-38700520D01*
X229552640Y-38633853D01*
X229519306Y-38500520D01*
X229519306Y-38333853D01*
X229552640Y-38200520D01*
X229585973Y-38133853D01*
X229619306Y-38100520D01*
X229685973Y-38067186D01*
X230619306Y-38767186D02*
X230385973Y-38433853D01*
X230219306Y-38767186D02*
X230219306Y-38067186D01*
X230485973Y-38067186D01*
X230552640Y-38100520D01*
X230585973Y-38133853D01*
X230619306Y-38200520D01*
X230619306Y-38300520D01*
X230585973Y-38367186D01*
X230552640Y-38400520D01*
X230485973Y-38433853D01*
X230219306Y-38433853D01*
G04 #@! TO.C,R19*
X47782506Y-33553586D02*
X47782506Y-33953586D01*
X47782506Y-33753586D02*
X47082506Y-33753586D01*
X47182506Y-33820253D01*
X47249173Y-33886920D01*
X47282506Y-33953586D01*
X47082506Y-33120253D02*
X47082506Y-33053586D01*
X47115840Y-32986920D01*
X47149173Y-32953586D01*
X47215840Y-32920253D01*
X47349173Y-32886920D01*
X47515840Y-32886920D01*
X47649173Y-32920253D01*
X47715840Y-32953586D01*
X47749173Y-32986920D01*
X47782506Y-33053586D01*
X47782506Y-33120253D01*
X47749173Y-33186920D01*
X47715840Y-33220253D01*
X47649173Y-33253586D01*
X47515840Y-33286920D01*
X47349173Y-33286920D01*
X47215840Y-33253586D01*
X47149173Y-33220253D01*
X47115840Y-33186920D01*
X47082506Y-33120253D01*
X47082506Y-32453586D02*
X47082506Y-32386920D01*
X47115840Y-32320253D01*
X47149173Y-32286920D01*
X47215840Y-32253586D01*
X47349173Y-32220253D01*
X47515840Y-32220253D01*
X47649173Y-32253586D01*
X47715840Y-32286920D01*
X47749173Y-32320253D01*
X47782506Y-32386920D01*
X47782506Y-32453586D01*
X47749173Y-32520253D01*
X47715840Y-32553586D01*
X47649173Y-32586920D01*
X47515840Y-32620253D01*
X47349173Y-32620253D01*
X47215840Y-32586920D01*
X47149173Y-32553586D01*
X47115840Y-32520253D01*
X47082506Y-32453586D01*
X47782506Y-31920253D02*
X47082506Y-31920253D01*
X47782506Y-31520253D02*
X47382506Y-31820253D01*
X47082506Y-31520253D02*
X47482506Y-31920253D01*
G04 #@! TO.C,R38*
X205422506Y-33543586D02*
X205422506Y-33943586D01*
X205422506Y-33743586D02*
X204722506Y-33743586D01*
X204822506Y-33810253D01*
X204889173Y-33876920D01*
X204922506Y-33943586D01*
X204722506Y-33110253D02*
X204722506Y-33043586D01*
X204755840Y-32976920D01*
X204789173Y-32943586D01*
X204855840Y-32910253D01*
X204989173Y-32876920D01*
X205155840Y-32876920D01*
X205289173Y-32910253D01*
X205355840Y-32943586D01*
X205389173Y-32976920D01*
X205422506Y-33043586D01*
X205422506Y-33110253D01*
X205389173Y-33176920D01*
X205355840Y-33210253D01*
X205289173Y-33243586D01*
X205155840Y-33276920D01*
X204989173Y-33276920D01*
X204855840Y-33243586D01*
X204789173Y-33210253D01*
X204755840Y-33176920D01*
X204722506Y-33110253D01*
X204722506Y-32443586D02*
X204722506Y-32376920D01*
X204755840Y-32310253D01*
X204789173Y-32276920D01*
X204855840Y-32243586D01*
X204989173Y-32210253D01*
X205155840Y-32210253D01*
X205289173Y-32243586D01*
X205355840Y-32276920D01*
X205389173Y-32310253D01*
X205422506Y-32376920D01*
X205422506Y-32443586D01*
X205389173Y-32510253D01*
X205355840Y-32543586D01*
X205289173Y-32576920D01*
X205155840Y-32610253D01*
X204989173Y-32610253D01*
X204855840Y-32576920D01*
X204789173Y-32543586D01*
X204755840Y-32510253D01*
X204722506Y-32443586D01*
X205422506Y-31910253D02*
X204722506Y-31910253D01*
X205422506Y-31510253D02*
X205022506Y-31810253D01*
X204722506Y-31510253D02*
X205122506Y-31910253D01*
G04 #@! TO.C,RT1*
X145372506Y-48773586D02*
X145372506Y-48073586D01*
X145639173Y-48073586D01*
X145705840Y-48106920D01*
X145739173Y-48140253D01*
X145772506Y-48206920D01*
X145772506Y-48306920D01*
X145739173Y-48373586D01*
X145705840Y-48406920D01*
X145639173Y-48440253D01*
X145372506Y-48440253D01*
X145972506Y-48073586D02*
X146372506Y-48073586D01*
X146172506Y-48773586D02*
X146172506Y-48073586D01*
X147005840Y-48706920D02*
X146972506Y-48740253D01*
X146872506Y-48773586D01*
X146805840Y-48773586D01*
X146705840Y-48740253D01*
X146639173Y-48673586D01*
X146605840Y-48606920D01*
X146572506Y-48473586D01*
X146572506Y-48373586D01*
X146605840Y-48240253D01*
X146639173Y-48173586D01*
X146705840Y-48106920D01*
X146805840Y-48073586D01*
X146872506Y-48073586D01*
X146972506Y-48106920D01*
X147005840Y-48140253D01*
X147139173Y-48840253D02*
X147672506Y-48840253D01*
X148072506Y-48406920D02*
X147839173Y-48406920D01*
X147839173Y-48773586D02*
X147839173Y-48073586D01*
X148172506Y-48073586D01*
X148439173Y-48073586D02*
X148439173Y-48640253D01*
X148472506Y-48706920D01*
X148505840Y-48740253D01*
X148572506Y-48773586D01*
X148705840Y-48773586D01*
X148772506Y-48740253D01*
X148805840Y-48706920D01*
X148839173Y-48640253D01*
X148839173Y-48073586D01*
X149139173Y-48740253D02*
X149239173Y-48773586D01*
X149405840Y-48773586D01*
X149472506Y-48740253D01*
X149505840Y-48706920D01*
X149539173Y-48640253D01*
X149539173Y-48573586D01*
X149505840Y-48506920D01*
X149472506Y-48473586D01*
X149405840Y-48440253D01*
X149272506Y-48406920D01*
X149205840Y-48373586D01*
X149172506Y-48340253D01*
X149139173Y-48273586D01*
X149139173Y-48206920D01*
X149172506Y-48140253D01*
X149205840Y-48106920D01*
X149272506Y-48073586D01*
X149439173Y-48073586D01*
X149539173Y-48106920D01*
X149839173Y-48406920D02*
X150072506Y-48406920D01*
X150172506Y-48773586D02*
X149839173Y-48773586D01*
X149839173Y-48073586D01*
X150172506Y-48073586D01*
G04 #@! TO.C,U2*
X159522646Y-49054306D02*
X158822646Y-49054306D01*
X159522646Y-48654306D01*
X158822646Y-48654306D01*
X159455980Y-47920973D02*
X159489313Y-47954306D01*
X159522646Y-48054306D01*
X159522646Y-48120973D01*
X159489313Y-48220973D01*
X159422646Y-48287640D01*
X159355980Y-48320973D01*
X159222646Y-48354306D01*
X159122646Y-48354306D01*
X158989313Y-48320973D01*
X158922646Y-48287640D01*
X158855980Y-48220973D01*
X158822646Y-48120973D01*
X158822646Y-48054306D01*
X158855980Y-47954306D01*
X158889313Y-47920973D01*
X159522646Y-47620973D02*
X158822646Y-47620973D01*
X158822646Y-47354306D01*
X158855980Y-47287640D01*
X158889313Y-47254306D01*
X158955980Y-47220973D01*
X159055980Y-47220973D01*
X159122646Y-47254306D01*
X159155980Y-47287640D01*
X159189313Y-47354306D01*
X159189313Y-47620973D01*
X159522646Y-46554306D02*
X159522646Y-46954306D01*
X159522646Y-46754306D02*
X158822646Y-46754306D01*
X158922646Y-46820973D01*
X158989313Y-46887640D01*
X159022646Y-46954306D01*
X159522646Y-45887640D02*
X159522646Y-46287640D01*
X159522646Y-46087640D02*
X158822646Y-46087640D01*
X158922646Y-46154306D01*
X158989313Y-46220973D01*
X159022646Y-46287640D01*
X159522646Y-45220973D02*
X159522646Y-45620973D01*
X159522646Y-45420973D02*
X158822646Y-45420973D01*
X158922646Y-45487640D01*
X158989313Y-45554306D01*
X159022646Y-45620973D01*
X158822646Y-44987640D02*
X158822646Y-44520973D01*
X159522646Y-44820973D01*
X159522646Y-44254306D02*
X158822646Y-44254306D01*
X158822646Y-44087640D01*
X158855980Y-43987640D01*
X158922646Y-43920973D01*
X158989313Y-43887640D01*
X159122646Y-43854306D01*
X159222646Y-43854306D01*
X159355980Y-43887640D01*
X159422646Y-43920973D01*
X159489313Y-43987640D01*
X159522646Y-44087640D01*
X159522646Y-44254306D01*
X158822646Y-43654306D02*
X158822646Y-43254306D01*
X159522646Y-43454306D02*
X158822646Y-43454306D01*
X158822646Y-43087640D02*
X158822646Y-42654306D01*
X159089313Y-42887640D01*
X159089313Y-42787640D01*
X159122646Y-42720973D01*
X159155980Y-42687640D01*
X159222646Y-42654306D01*
X159389313Y-42654306D01*
X159455980Y-42687640D01*
X159489313Y-42720973D01*
X159522646Y-42787640D01*
X159522646Y-42987640D01*
X159489313Y-43054306D01*
X159455980Y-43087640D01*
X158822646Y-42420973D02*
X158822646Y-41987640D01*
X159089313Y-42220973D01*
X159089313Y-42120973D01*
X159122646Y-42054306D01*
X159155980Y-42020973D01*
X159222646Y-41987640D01*
X159389313Y-41987640D01*
X159455980Y-42020973D01*
X159489313Y-42054306D01*
X159522646Y-42120973D01*
X159522646Y-42320973D01*
X159489313Y-42387640D01*
X159455980Y-42420973D01*
X158855980Y-41320973D02*
X158822646Y-41387640D01*
X158822646Y-41487640D01*
X158855980Y-41587640D01*
X158922646Y-41654306D01*
X158989313Y-41687640D01*
X159122646Y-41720973D01*
X159222646Y-41720973D01*
X159355980Y-41687640D01*
X159422646Y-41654306D01*
X159489313Y-41587640D01*
X159522646Y-41487640D01*
X159522646Y-41420973D01*
X159489313Y-41320973D01*
X159455980Y-41287640D01*
X159222646Y-41287640D01*
X159222646Y-41420973D01*
G04 #@! TO.C,Y1*
X106675226Y-22348626D02*
X106275226Y-22348626D01*
X106475226Y-22348626D02*
X106475226Y-21648626D01*
X106408560Y-21748626D01*
X106341893Y-21815293D01*
X106275226Y-21848626D01*
X106941893Y-21715293D02*
X106975226Y-21681960D01*
X107041893Y-21648626D01*
X107208560Y-21648626D01*
X107275226Y-21681960D01*
X107308560Y-21715293D01*
X107341893Y-21781960D01*
X107341893Y-21848626D01*
X107308560Y-21948626D01*
X106908560Y-22348626D01*
X107341893Y-22348626D01*
X107641893Y-22348626D02*
X107641893Y-21648626D01*
X107875226Y-22148626D01*
X108108560Y-21648626D01*
X108108560Y-22348626D01*
X108441893Y-22348626D02*
X108441893Y-21648626D01*
X108441893Y-21981960D02*
X108841893Y-21981960D01*
X108841893Y-22348626D02*
X108841893Y-21648626D01*
X109108560Y-21881960D02*
X109475226Y-21881960D01*
X109108560Y-22348626D01*
X109475226Y-22348626D01*
G04 #@! TO.C,H2*
X87834933Y-29315846D02*
X87834933Y-28615846D01*
X87834933Y-28949180D02*
X88234933Y-28949180D01*
X88234933Y-29315846D02*
X88234933Y-28615846D01*
X88701600Y-28615846D02*
X88834933Y-28615846D01*
X88901600Y-28649180D01*
X88968266Y-28715846D01*
X89001600Y-28849180D01*
X89001600Y-29082513D01*
X88968266Y-29215846D01*
X88901600Y-29282513D01*
X88834933Y-29315846D01*
X88701600Y-29315846D01*
X88634933Y-29282513D01*
X88568266Y-29215846D01*
X88534933Y-29082513D01*
X88534933Y-28849180D01*
X88568266Y-28715846D01*
X88634933Y-28649180D01*
X88701600Y-28615846D01*
X89634933Y-29315846D02*
X89301600Y-29315846D01*
X89301600Y-28615846D01*
X89868266Y-28949180D02*
X90101600Y-28949180D01*
X90201600Y-29315846D02*
X89868266Y-29315846D01*
X89868266Y-28615846D01*
X90201600Y-28615846D01*
G04 #@! TO.C,H3*
X-1164127Y-47812126D02*
X-1164127Y-47112126D01*
X-1164127Y-47445460D02*
X-764127Y-47445460D01*
X-764127Y-47812126D02*
X-764127Y-47112126D01*
X-297460Y-47112126D02*
X-164127Y-47112126D01*
X-97460Y-47145460D01*
X-30794Y-47212126D01*
X2540Y-47345460D01*
X2540Y-47578793D01*
X-30794Y-47712126D01*
X-97460Y-47778793D01*
X-164127Y-47812126D01*
X-297460Y-47812126D01*
X-364127Y-47778793D01*
X-430794Y-47712126D01*
X-464127Y-47578793D01*
X-464127Y-47345460D01*
X-430794Y-47212126D01*
X-364127Y-47145460D01*
X-297460Y-47112126D01*
X635873Y-47812126D02*
X302540Y-47812126D01*
X302540Y-47112126D01*
X869206Y-47445460D02*
X1102540Y-47445460D01*
X1202540Y-47812126D02*
X869206Y-47812126D01*
X869206Y-47112126D01*
X1202540Y-47112126D01*
G04 #@! TO.C,H4*
X150235113Y-29315846D02*
X150235113Y-28615846D01*
X150235113Y-28949180D02*
X150635113Y-28949180D01*
X150635113Y-29315846D02*
X150635113Y-28615846D01*
X151101780Y-28615846D02*
X151235113Y-28615846D01*
X151301780Y-28649180D01*
X151368446Y-28715846D01*
X151401780Y-28849180D01*
X151401780Y-29082513D01*
X151368446Y-29215846D01*
X151301780Y-29282513D01*
X151235113Y-29315846D01*
X151101780Y-29315846D01*
X151035113Y-29282513D01*
X150968446Y-29215846D01*
X150935113Y-29082513D01*
X150935113Y-28849180D01*
X150968446Y-28715846D01*
X151035113Y-28649180D01*
X151101780Y-28615846D01*
X152035113Y-29315846D02*
X151701780Y-29315846D01*
X151701780Y-28615846D01*
X152268446Y-28949180D02*
X152501780Y-28949180D01*
X152601780Y-29315846D02*
X152268446Y-29315846D01*
X152268446Y-28615846D01*
X152601780Y-28615846D01*
G04 #@! TO.C,H5*
X239234173Y-316666D02*
X239234173Y383334D01*
X239234173Y50000D02*
X239634173Y50000D01*
X239634173Y-316666D02*
X239634173Y383334D01*
X240100840Y383334D02*
X240234173Y383334D01*
X240300840Y350000D01*
X240367506Y283334D01*
X240400840Y150000D01*
X240400840Y-83333D01*
X240367506Y-216666D01*
X240300840Y-283333D01*
X240234173Y-316666D01*
X240100840Y-316666D01*
X240034173Y-283333D01*
X239967506Y-216666D01*
X239934173Y-83333D01*
X239934173Y150000D01*
X239967506Y283334D01*
X240034173Y350000D01*
X240100840Y383334D01*
X241034173Y-316666D02*
X240700840Y-316666D01*
X240700840Y383334D01*
X241267506Y50000D02*
X241500840Y50000D01*
X241600840Y-316666D02*
X241267506Y-316666D01*
X241267506Y383334D01*
X241600840Y383334D01*
G04 #@! TO.C,H6*
X239234173Y-47812126D02*
X239234173Y-47112126D01*
X239234173Y-47445460D02*
X239634173Y-47445460D01*
X239634173Y-47812126D02*
X239634173Y-47112126D01*
X240100840Y-47112126D02*
X240234173Y-47112126D01*
X240300840Y-47145460D01*
X240367506Y-47212126D01*
X240400840Y-47345460D01*
X240400840Y-47578793D01*
X240367506Y-47712126D01*
X240300840Y-47778793D01*
X240234173Y-47812126D01*
X240100840Y-47812126D01*
X240034173Y-47778793D01*
X239967506Y-47712126D01*
X239934173Y-47578793D01*
X239934173Y-47345460D01*
X239967506Y-47212126D01*
X240034173Y-47145460D01*
X240100840Y-47112126D01*
X241034173Y-47812126D02*
X240700840Y-47812126D01*
X240700840Y-47112126D01*
X241267506Y-47445460D02*
X241500840Y-47445460D01*
X241600840Y-47812126D02*
X241267506Y-47812126D01*
X241267506Y-47112126D01*
X241600840Y-47112126D01*
G04 #@! TO.C,H7*
X143211380Y2098874D02*
X143211380Y2798874D01*
X143611380Y2098874D02*
X143311380Y2498874D01*
X143611380Y2798874D02*
X143211380Y2398874D01*
X143911380Y2465540D02*
X144144713Y2465540D01*
X144244713Y2098874D02*
X143911380Y2098874D01*
X143911380Y2798874D01*
X144244713Y2798874D01*
X144678046Y2432207D02*
X144678046Y2098874D01*
X144444713Y2798874D02*
X144678046Y2432207D01*
X144911380Y2798874D01*
X145111380Y2132207D02*
X145211380Y2098874D01*
X145378046Y2098874D01*
X145444713Y2132207D01*
X145478046Y2165540D01*
X145511380Y2232207D01*
X145511380Y2298874D01*
X145478046Y2365540D01*
X145444713Y2398874D01*
X145378046Y2432207D01*
X145244713Y2465540D01*
X145178046Y2498874D01*
X145144713Y2532207D01*
X145111380Y2598874D01*
X145111380Y2665540D01*
X145144713Y2732207D01*
X145178046Y2765540D01*
X145244713Y2798874D01*
X145411380Y2798874D01*
X145511380Y2765540D01*
X145711380Y2798874D02*
X146111380Y2798874D01*
X145911380Y2098874D02*
X145911380Y2798874D01*
X146478046Y2798874D02*
X146611380Y2798874D01*
X146678046Y2765540D01*
X146744713Y2698874D01*
X146778046Y2565540D01*
X146778046Y2332207D01*
X146744713Y2198874D01*
X146678046Y2132207D01*
X146611380Y2098874D01*
X146478046Y2098874D01*
X146411380Y2132207D01*
X146344713Y2198874D01*
X146311380Y2332207D01*
X146311380Y2565540D01*
X146344713Y2698874D01*
X146411380Y2765540D01*
X146478046Y2798874D01*
X147078046Y2098874D02*
X147078046Y2798874D01*
X147478046Y2098874D01*
X147478046Y2798874D01*
X147811380Y2465540D02*
X148044713Y2465540D01*
X148144713Y2098874D02*
X147811380Y2098874D01*
X147811380Y2798874D01*
X148144713Y2798874D01*
G04 #@! TO.C,H8*
X84791380Y2098874D02*
X84791380Y2798874D01*
X85191380Y2098874D02*
X84891380Y2498874D01*
X85191380Y2798874D02*
X84791380Y2398874D01*
X85491380Y2465540D02*
X85724713Y2465540D01*
X85824713Y2098874D02*
X85491380Y2098874D01*
X85491380Y2798874D01*
X85824713Y2798874D01*
X86258046Y2432207D02*
X86258046Y2098874D01*
X86024713Y2798874D02*
X86258046Y2432207D01*
X86491380Y2798874D01*
X86691380Y2132207D02*
X86791380Y2098874D01*
X86958046Y2098874D01*
X87024713Y2132207D01*
X87058046Y2165540D01*
X87091380Y2232207D01*
X87091380Y2298874D01*
X87058046Y2365540D01*
X87024713Y2398874D01*
X86958046Y2432207D01*
X86824713Y2465540D01*
X86758046Y2498874D01*
X86724713Y2532207D01*
X86691380Y2598874D01*
X86691380Y2665540D01*
X86724713Y2732207D01*
X86758046Y2765540D01*
X86824713Y2798874D01*
X86991380Y2798874D01*
X87091380Y2765540D01*
X87291380Y2798874D02*
X87691380Y2798874D01*
X87491380Y2098874D02*
X87491380Y2798874D01*
X88058046Y2798874D02*
X88191380Y2798874D01*
X88258046Y2765540D01*
X88324713Y2698874D01*
X88358046Y2565540D01*
X88358046Y2332207D01*
X88324713Y2198874D01*
X88258046Y2132207D01*
X88191380Y2098874D01*
X88058046Y2098874D01*
X87991380Y2132207D01*
X87924713Y2198874D01*
X87891380Y2332207D01*
X87891380Y2565540D01*
X87924713Y2698874D01*
X87991380Y2765540D01*
X88058046Y2798874D01*
X88658046Y2098874D02*
X88658046Y2798874D01*
X89058046Y2098874D01*
X89058046Y2798874D01*
X89391380Y2465540D02*
X89624713Y2465540D01*
X89724713Y2098874D02*
X89391380Y2098874D01*
X89391380Y2798874D01*
X89724713Y2798874D01*
G04 #@! TO.C,H1*
X-1166667Y-316666D02*
X-1166667Y383334D01*
X-1166667Y50000D02*
X-766667Y50000D01*
X-766667Y-316666D02*
X-766667Y383334D01*
X-300000Y383334D02*
X-166667Y383334D01*
X-100000Y350000D01*
X-33334Y283334D01*
X0Y150000D01*
X0Y-83333D01*
X-33334Y-216666D01*
X-100000Y-283333D01*
X-166667Y-316666D01*
X-300000Y-316666D01*
X-366667Y-283333D01*
X-433334Y-216666D01*
X-466667Y-83333D01*
X-466667Y150000D01*
X-433334Y283334D01*
X-366667Y350000D01*
X-300000Y383334D01*
X633333Y-316666D02*
X300000Y-316666D01*
X300000Y383334D01*
X866666Y50000D02*
X1100000Y50000D01*
X1200000Y-316666D02*
X866666Y-316666D01*
X866666Y383334D01*
X1200000Y383334D01*
G04 #@! TO.C,DS2*
X159370706Y4550880D02*
X159604040Y4550880D01*
X159704040Y4184214D02*
X159370706Y4184214D01*
X159370706Y4884214D01*
X159704040Y4884214D01*
X160404040Y4184214D02*
X160170706Y4517547D01*
X160004040Y4184214D02*
X160004040Y4884214D01*
X160270706Y4884214D01*
X160337373Y4850880D01*
X160370706Y4817547D01*
X160404040Y4750880D01*
X160404040Y4650880D01*
X160370706Y4584214D01*
X160337373Y4550880D01*
X160270706Y4517547D01*
X160004040Y4517547D01*
X160704040Y4184214D02*
X160704040Y4884214D01*
X160937373Y4384214D01*
X161170706Y4884214D01*
X161170706Y4184214D01*
X161870706Y4184214D02*
X161470706Y4184214D01*
X161670706Y4184214D02*
X161670706Y4884214D01*
X161604040Y4784214D01*
X161537373Y4717547D01*
X161470706Y4684214D01*
X162470706Y4884214D02*
X162337373Y4884214D01*
X162270706Y4850880D01*
X162237373Y4817547D01*
X162170706Y4717547D01*
X162137373Y4584214D01*
X162137373Y4317547D01*
X162170706Y4250880D01*
X162204040Y4217547D01*
X162270706Y4184214D01*
X162404040Y4184214D01*
X162470706Y4217547D01*
X162504040Y4250880D01*
X162537373Y4317547D01*
X162537373Y4484214D01*
X162504040Y4550880D01*
X162470706Y4584214D01*
X162404040Y4617547D01*
X162270706Y4617547D01*
X162204040Y4584214D01*
X162170706Y4550880D01*
X162137373Y4484214D01*
X162970706Y4884214D02*
X163037373Y4884214D01*
X163104040Y4850880D01*
X163137373Y4817547D01*
X163170706Y4750880D01*
X163204040Y4617547D01*
X163204040Y4450880D01*
X163170706Y4317547D01*
X163137373Y4250880D01*
X163104040Y4217547D01*
X163037373Y4184214D01*
X162970706Y4184214D01*
X162904040Y4217547D01*
X162870706Y4250880D01*
X162837373Y4317547D01*
X162804040Y4450880D01*
X162804040Y4617547D01*
X162837373Y4750880D01*
X162870706Y4817547D01*
X162904040Y4850880D01*
X162970706Y4884214D01*
X163470706Y4817547D02*
X163504040Y4850880D01*
X163570706Y4884214D01*
X163737373Y4884214D01*
X163804040Y4850880D01*
X163837373Y4817547D01*
X163870706Y4750880D01*
X163870706Y4684214D01*
X163837373Y4584214D01*
X163437373Y4184214D01*
X163870706Y4184214D01*
X164404040Y4550880D02*
X164170706Y4550880D01*
X164170706Y4184214D02*
X164170706Y4884214D01*
X164504040Y4884214D01*
X164737373Y4217547D02*
X164837373Y4184214D01*
X165004040Y4184214D01*
X165070706Y4217547D01*
X165104040Y4250880D01*
X165137373Y4317547D01*
X165137373Y4384214D01*
X165104040Y4450880D01*
X165070706Y4484214D01*
X165004040Y4517547D01*
X164870706Y4550880D01*
X164804040Y4584214D01*
X164770706Y4617547D01*
X164737373Y4684214D01*
X164737373Y4750880D01*
X164770706Y4817547D01*
X164804040Y4850880D01*
X164870706Y4884214D01*
X165037373Y4884214D01*
X165137373Y4850880D01*
X165437373Y4450880D02*
X165970706Y4450880D01*
X166604040Y4884214D02*
X166470706Y4884214D01*
X166404040Y4850880D01*
X166370706Y4817547D01*
X166304040Y4717547D01*
X166270706Y4584214D01*
X166270706Y4317547D01*
X166304040Y4250880D01*
X166337373Y4217547D01*
X166404040Y4184214D01*
X166537373Y4184214D01*
X166604040Y4217547D01*
X166637373Y4250880D01*
X166670706Y4317547D01*
X166670706Y4484214D01*
X166637373Y4550880D01*
X166604040Y4584214D01*
X166537373Y4617547D01*
X166404040Y4617547D01*
X166337373Y4584214D01*
X166304040Y4550880D01*
X166270706Y4484214D01*
X167437373Y4884214D02*
X167870706Y4884214D01*
X167637373Y4617547D01*
X167737373Y4617547D01*
X167804040Y4584214D01*
X167837373Y4550880D01*
X167870706Y4484214D01*
X167870706Y4317547D01*
X167837373Y4250880D01*
X167804040Y4217547D01*
X167737373Y4184214D01*
X167537373Y4184214D01*
X167470706Y4217547D01*
X167437373Y4250880D01*
X168170706Y4250880D02*
X168204040Y4217547D01*
X168170706Y4184214D01*
X168137373Y4217547D01*
X168170706Y4250880D01*
X168170706Y4184214D01*
X168437373Y4884214D02*
X168870706Y4884214D01*
X168637373Y4617547D01*
X168737373Y4617547D01*
X168804040Y4584214D01*
X168837373Y4550880D01*
X168870706Y4484214D01*
X168870706Y4317547D01*
X168837373Y4250880D01*
X168804040Y4217547D01*
X168737373Y4184214D01*
X168537373Y4184214D01*
X168470706Y4217547D01*
X168437373Y4250880D01*
X169070706Y4884214D02*
X169304040Y4184214D01*
X169537373Y4884214D01*
G04 #@! TO.C,C19*
X125668206Y-6769286D02*
X125668206Y-7169286D01*
X125668206Y-6969286D02*
X124968206Y-6969286D01*
X125068206Y-7035953D01*
X125134873Y-7102620D01*
X125168206Y-7169286D01*
X124968206Y-6335953D02*
X124968206Y-6269286D01*
X125001540Y-6202620D01*
X125034873Y-6169286D01*
X125101540Y-6135953D01*
X125234873Y-6102620D01*
X125401540Y-6102620D01*
X125534873Y-6135953D01*
X125601540Y-6169286D01*
X125634873Y-6202620D01*
X125668206Y-6269286D01*
X125668206Y-6335953D01*
X125634873Y-6402620D01*
X125601540Y-6435953D01*
X125534873Y-6469286D01*
X125401540Y-6502620D01*
X125234873Y-6502620D01*
X125101540Y-6469286D01*
X125034873Y-6435953D01*
X125001540Y-6402620D01*
X124968206Y-6335953D01*
X125201540Y-5802620D02*
X125668206Y-5802620D01*
X125268206Y-5802620D02*
X125234873Y-5769286D01*
X125201540Y-5702620D01*
X125201540Y-5602620D01*
X125234873Y-5535953D01*
X125301540Y-5502620D01*
X125668206Y-5502620D01*
X125301540Y-4935953D02*
X125301540Y-5169286D01*
X125668206Y-5169286D02*
X124968206Y-5169286D01*
X124968206Y-4835953D01*
X124968206Y-3702620D02*
X124968206Y-4035953D01*
X125301540Y-4069286D01*
X125268206Y-4035953D01*
X125234873Y-3969286D01*
X125234873Y-3802620D01*
X125268206Y-3735953D01*
X125301540Y-3702620D01*
X125368206Y-3669286D01*
X125534873Y-3669286D01*
X125601540Y-3702620D01*
X125634873Y-3735953D01*
X125668206Y-3802620D01*
X125668206Y-3969286D01*
X125634873Y-4035953D01*
X125601540Y-4069286D01*
X124968206Y-3235953D02*
X124968206Y-3169286D01*
X125001540Y-3102620D01*
X125034873Y-3069286D01*
X125101540Y-3035953D01*
X125234873Y-3002620D01*
X125401540Y-3002620D01*
X125534873Y-3035953D01*
X125601540Y-3069286D01*
X125634873Y-3102620D01*
X125668206Y-3169286D01*
X125668206Y-3235953D01*
X125634873Y-3302620D01*
X125601540Y-3335953D01*
X125534873Y-3369286D01*
X125401540Y-3402620D01*
X125234873Y-3402620D01*
X125101540Y-3369286D01*
X125034873Y-3335953D01*
X125001540Y-3302620D01*
X124968206Y-3235953D01*
X124968206Y-2569286D02*
X124968206Y-2502620D01*
X125001540Y-2435953D01*
X125034873Y-2402620D01*
X125101540Y-2369286D01*
X125234873Y-2335953D01*
X125401540Y-2335953D01*
X125534873Y-2369286D01*
X125601540Y-2402620D01*
X125634873Y-2435953D01*
X125668206Y-2502620D01*
X125668206Y-2569286D01*
X125634873Y-2635953D01*
X125601540Y-2669286D01*
X125534873Y-2702620D01*
X125401540Y-2735953D01*
X125234873Y-2735953D01*
X125101540Y-2702620D01*
X125034873Y-2669286D01*
X125001540Y-2635953D01*
X124968206Y-2569286D01*
X124968206Y-2135953D02*
X125668206Y-1902620D01*
X124968206Y-1669286D01*
G04 #@! TO.C,C11*
X98325106Y-27646653D02*
X98325106Y-28046653D01*
X98325106Y-27846653D02*
X97625106Y-27846653D01*
X97725106Y-27913320D01*
X97791773Y-27979986D01*
X97825106Y-28046653D01*
X97625106Y-27213320D02*
X97625106Y-27146653D01*
X97658440Y-27079986D01*
X97691773Y-27046653D01*
X97758440Y-27013320D01*
X97891773Y-26979986D01*
X98058440Y-26979986D01*
X98191773Y-27013320D01*
X98258440Y-27046653D01*
X98291773Y-27079986D01*
X98325106Y-27146653D01*
X98325106Y-27213320D01*
X98291773Y-27279986D01*
X98258440Y-27313320D01*
X98191773Y-27346653D01*
X98058440Y-27379986D01*
X97891773Y-27379986D01*
X97758440Y-27346653D01*
X97691773Y-27313320D01*
X97658440Y-27279986D01*
X97625106Y-27213320D01*
X97625106Y-26546653D02*
X97625106Y-26479986D01*
X97658440Y-26413320D01*
X97691773Y-26379986D01*
X97758440Y-26346653D01*
X97891773Y-26313320D01*
X98058440Y-26313320D01*
X98191773Y-26346653D01*
X98258440Y-26379986D01*
X98291773Y-26413320D01*
X98325106Y-26479986D01*
X98325106Y-26546653D01*
X98291773Y-26613320D01*
X98258440Y-26646653D01*
X98191773Y-26679986D01*
X98058440Y-26713320D01*
X97891773Y-26713320D01*
X97758440Y-26679986D01*
X97691773Y-26646653D01*
X97658440Y-26613320D01*
X97625106Y-26546653D01*
X97858440Y-26013320D02*
X98325106Y-26013320D01*
X97925106Y-26013320D02*
X97891773Y-25979986D01*
X97858440Y-25913320D01*
X97858440Y-25813320D01*
X97891773Y-25746653D01*
X97958440Y-25713320D01*
X98325106Y-25713320D01*
X97958440Y-25146653D02*
X97958440Y-25379986D01*
X98325106Y-25379986D02*
X97625106Y-25379986D01*
X97625106Y-25046653D01*
G04 #@! TO.C,D2*
X131154040Y-11924466D02*
X130754040Y-11924466D01*
X130954040Y-11924466D02*
X130954040Y-11224466D01*
X130887373Y-11324466D01*
X130820706Y-11391133D01*
X130754040Y-11424466D01*
X131454040Y-11924466D02*
X131454040Y-11224466D01*
X131854040Y-11924466D01*
X131854040Y-11224466D01*
X132487373Y-11457800D02*
X132487373Y-11924466D01*
X132320706Y-11191133D02*
X132154040Y-11691133D01*
X132587373Y-11691133D01*
X133220706Y-11924466D02*
X132820706Y-11924466D01*
X133020706Y-11924466D02*
X133020706Y-11224466D01*
X132954040Y-11324466D01*
X132887373Y-11391133D01*
X132820706Y-11424466D01*
X133820706Y-11457800D02*
X133820706Y-11924466D01*
X133654040Y-11191133D02*
X133487373Y-11691133D01*
X133920706Y-11691133D01*
X134287373Y-11524466D02*
X134220706Y-11491133D01*
X134187373Y-11457800D01*
X134154040Y-11391133D01*
X134154040Y-11357800D01*
X134187373Y-11291133D01*
X134220706Y-11257800D01*
X134287373Y-11224466D01*
X134420706Y-11224466D01*
X134487373Y-11257800D01*
X134520706Y-11291133D01*
X134554040Y-11357800D01*
X134554040Y-11391133D01*
X134520706Y-11457800D01*
X134487373Y-11491133D01*
X134420706Y-11524466D01*
X134287373Y-11524466D01*
X134220706Y-11557800D01*
X134187373Y-11591133D01*
X134154040Y-11657800D01*
X134154040Y-11791133D01*
X134187373Y-11857800D01*
X134220706Y-11891133D01*
X134287373Y-11924466D01*
X134420706Y-11924466D01*
X134487373Y-11891133D01*
X134520706Y-11857800D01*
X134554040Y-11791133D01*
X134554040Y-11657800D01*
X134520706Y-11591133D01*
X134487373Y-11557800D01*
X134420706Y-11524466D01*
G04 #@! TO.C,P7*
X118059466Y3659934D02*
X118059466Y3093267D01*
X118092800Y3026600D01*
X118126133Y2993267D01*
X118192800Y2959934D01*
X118326133Y2959934D01*
X118392800Y2993267D01*
X118426133Y3026600D01*
X118459466Y3093267D01*
X118459466Y3659934D01*
X118759466Y2993267D02*
X118859466Y2959934D01*
X119026133Y2959934D01*
X119092800Y2993267D01*
X119126133Y3026600D01*
X119159466Y3093267D01*
X119159466Y3159934D01*
X119126133Y3226600D01*
X119092800Y3259934D01*
X119026133Y3293267D01*
X118892800Y3326600D01*
X118826133Y3359934D01*
X118792800Y3393267D01*
X118759466Y3459934D01*
X118759466Y3526600D01*
X118792800Y3593267D01*
X118826133Y3626600D01*
X118892800Y3659934D01*
X119059466Y3659934D01*
X119159466Y3626600D01*
X119692800Y3326600D02*
X119792800Y3293267D01*
X119826133Y3259934D01*
X119859466Y3193267D01*
X119859466Y3093267D01*
X119826133Y3026600D01*
X119792800Y2993267D01*
X119726133Y2959934D01*
X119459466Y2959934D01*
X119459466Y3659934D01*
X119692800Y3659934D01*
X119759466Y3626600D01*
X119792800Y3593267D01*
X119826133Y3526600D01*
X119826133Y3459934D01*
X119792800Y3393267D01*
X119759466Y3359934D01*
X119692800Y3326600D01*
X119459466Y3326600D01*
X119992800Y2893267D02*
X120526133Y2893267D01*
X120826133Y3659934D02*
X120959466Y3659934D01*
X121026133Y3626600D01*
X121092800Y3559934D01*
X121126133Y3426600D01*
X121126133Y3193267D01*
X121092800Y3059934D01*
X121026133Y2993267D01*
X120959466Y2959934D01*
X120826133Y2959934D01*
X120759466Y2993267D01*
X120692800Y3059934D01*
X120659466Y3193267D01*
X120659466Y3426600D01*
X120692800Y3559934D01*
X120759466Y3626600D01*
X120826133Y3659934D01*
X121326133Y3659934D02*
X121726133Y3659934D01*
X121526133Y2959934D02*
X121526133Y3659934D01*
X122326133Y3626600D02*
X122259466Y3659934D01*
X122159466Y3659934D01*
X122059466Y3626600D01*
X121992800Y3559934D01*
X121959466Y3493267D01*
X121926133Y3359934D01*
X121926133Y3259934D01*
X121959466Y3126600D01*
X121992800Y3059934D01*
X122059466Y2993267D01*
X122159466Y2959934D01*
X122226133Y2959934D01*
X122326133Y2993267D01*
X122359466Y3026600D01*
X122359466Y3259934D01*
X122226133Y3259934D01*
G04 #@! TO.C,Q6*
X133651366Y-11975266D02*
X133651366Y-11275266D01*
X134384700Y-11975266D02*
X134151366Y-11641933D01*
X133984700Y-11975266D02*
X133984700Y-11275266D01*
X134251366Y-11275266D01*
X134318033Y-11308600D01*
X134351366Y-11341933D01*
X134384700Y-11408600D01*
X134384700Y-11508600D01*
X134351366Y-11575266D01*
X134318033Y-11608600D01*
X134251366Y-11641933D01*
X133984700Y-11641933D01*
X134918033Y-11608600D02*
X134684700Y-11608600D01*
X134684700Y-11975266D02*
X134684700Y-11275266D01*
X135018033Y-11275266D01*
X135284700Y-11975266D02*
X135284700Y-11275266D01*
X135518033Y-11775266D01*
X135751366Y-11275266D01*
X135751366Y-11975266D01*
X136418033Y-11975266D02*
X136084700Y-11975266D01*
X136084700Y-11275266D01*
X136751366Y-11575266D02*
X136684700Y-11541933D01*
X136651366Y-11508600D01*
X136618033Y-11441933D01*
X136618033Y-11408600D01*
X136651366Y-11341933D01*
X136684700Y-11308600D01*
X136751366Y-11275266D01*
X136884700Y-11275266D01*
X136951366Y-11308600D01*
X136984700Y-11341933D01*
X137018033Y-11408600D01*
X137018033Y-11441933D01*
X136984700Y-11508600D01*
X136951366Y-11541933D01*
X136884700Y-11575266D01*
X136751366Y-11575266D01*
X136684700Y-11608600D01*
X136651366Y-11641933D01*
X136618033Y-11708600D01*
X136618033Y-11841933D01*
X136651366Y-11908600D01*
X136684700Y-11941933D01*
X136751366Y-11975266D01*
X136884700Y-11975266D01*
X136951366Y-11941933D01*
X136984700Y-11908600D01*
X137018033Y-11841933D01*
X137018033Y-11708600D01*
X136984700Y-11641933D01*
X136951366Y-11608600D01*
X136884700Y-11575266D01*
X137284700Y-11341933D02*
X137318033Y-11308600D01*
X137384700Y-11275266D01*
X137551366Y-11275266D01*
X137618033Y-11308600D01*
X137651366Y-11341933D01*
X137684700Y-11408600D01*
X137684700Y-11475266D01*
X137651366Y-11575266D01*
X137251366Y-11975266D01*
X137684700Y-11975266D01*
X138284700Y-11508600D02*
X138284700Y-11975266D01*
X138118033Y-11241933D02*
X137951366Y-11741933D01*
X138384700Y-11741933D01*
X138951366Y-11508600D02*
X138951366Y-11975266D01*
X138784700Y-11241933D02*
X138618033Y-11741933D01*
X139051366Y-11741933D01*
X139218033Y-11275266D02*
X139618033Y-11275266D01*
X139418033Y-11975266D02*
X139418033Y-11275266D01*
X140251366Y-11975266D02*
X140018033Y-11641933D01*
X139851366Y-11975266D02*
X139851366Y-11275266D01*
X140118033Y-11275266D01*
X140184700Y-11308600D01*
X140218033Y-11341933D01*
X140251366Y-11408600D01*
X140251366Y-11508600D01*
X140218033Y-11575266D01*
X140184700Y-11608600D01*
X140118033Y-11641933D01*
X139851366Y-11641933D01*
X140551366Y-11975266D02*
X140551366Y-11275266D01*
X140818033Y-11275266D01*
X140884700Y-11308600D01*
X140918033Y-11341933D01*
X140951366Y-11408600D01*
X140951366Y-11508600D01*
X140918033Y-11575266D01*
X140884700Y-11608600D01*
X140818033Y-11641933D01*
X140551366Y-11641933D01*
X141484700Y-11608600D02*
X141584700Y-11641933D01*
X141618033Y-11675266D01*
X141651366Y-11741933D01*
X141651366Y-11841933D01*
X141618033Y-11908600D01*
X141584700Y-11941933D01*
X141518033Y-11975266D01*
X141251366Y-11975266D01*
X141251366Y-11275266D01*
X141484700Y-11275266D01*
X141551366Y-11308600D01*
X141584700Y-11341933D01*
X141618033Y-11408600D01*
X141618033Y-11475266D01*
X141584700Y-11541933D01*
X141551366Y-11575266D01*
X141484700Y-11608600D01*
X141251366Y-11608600D01*
X142184700Y-11608600D02*
X141951366Y-11608600D01*
X141951366Y-11975266D02*
X141951366Y-11275266D01*
X142284700Y-11275266D01*
G04 #@! TO.C,R18*
X135724066Y-11339293D02*
X135724066Y-11739293D01*
X135724066Y-11539293D02*
X135024066Y-11539293D01*
X135124066Y-11605960D01*
X135190733Y-11672626D01*
X135224066Y-11739293D01*
X135024066Y-10905960D02*
X135024066Y-10839293D01*
X135057400Y-10772626D01*
X135090733Y-10739293D01*
X135157400Y-10705960D01*
X135290733Y-10672626D01*
X135457400Y-10672626D01*
X135590733Y-10705960D01*
X135657400Y-10739293D01*
X135690733Y-10772626D01*
X135724066Y-10839293D01*
X135724066Y-10905960D01*
X135690733Y-10972626D01*
X135657400Y-11005960D01*
X135590733Y-11039293D01*
X135457400Y-11072626D01*
X135290733Y-11072626D01*
X135157400Y-11039293D01*
X135090733Y-11005960D01*
X135057400Y-10972626D01*
X135024066Y-10905960D01*
X135724066Y-10372626D02*
X135024066Y-10372626D01*
X135724066Y-9972626D02*
X135324066Y-10272626D01*
X135024066Y-9972626D02*
X135424066Y-10372626D01*
G04 #@! TO.C,R16*
X141045366Y-12526066D02*
X141045366Y-12926066D01*
X141045366Y-12726066D02*
X140345366Y-12726066D01*
X140445366Y-12792733D01*
X140512033Y-12859400D01*
X140545366Y-12926066D01*
X140345366Y-12092733D02*
X140345366Y-12026066D01*
X140378700Y-11959400D01*
X140412033Y-11926066D01*
X140478700Y-11892733D01*
X140612033Y-11859400D01*
X140778700Y-11859400D01*
X140912033Y-11892733D01*
X140978700Y-11926066D01*
X141012033Y-11959400D01*
X141045366Y-12026066D01*
X141045366Y-12092733D01*
X141012033Y-12159400D01*
X140978700Y-12192733D01*
X140912033Y-12226066D01*
X140778700Y-12259400D01*
X140612033Y-12259400D01*
X140478700Y-12226066D01*
X140412033Y-12192733D01*
X140378700Y-12159400D01*
X140345366Y-12092733D01*
X140345366Y-11426066D02*
X140345366Y-11359400D01*
X140378700Y-11292733D01*
X140412033Y-11259400D01*
X140478700Y-11226066D01*
X140612033Y-11192733D01*
X140778700Y-11192733D01*
X140912033Y-11226066D01*
X140978700Y-11259400D01*
X141012033Y-11292733D01*
X141045366Y-11359400D01*
X141045366Y-11426066D01*
X141012033Y-11492733D01*
X140978700Y-11526066D01*
X140912033Y-11559400D01*
X140778700Y-11592733D01*
X140612033Y-11592733D01*
X140478700Y-11559400D01*
X140412033Y-11526066D01*
X140378700Y-11492733D01*
X140345366Y-11426066D01*
X141045366Y-10492733D02*
X140712033Y-10726066D01*
X141045366Y-10892733D02*
X140345366Y-10892733D01*
X140345366Y-10626066D01*
X140378700Y-10559400D01*
X140412033Y-10526066D01*
X140478700Y-10492733D01*
X140578700Y-10492733D01*
X140645366Y-10526066D01*
X140678700Y-10559400D01*
X140712033Y-10626066D01*
X140712033Y-10892733D01*
G04 #@! TO.C,R37*
X123623506Y-3898240D02*
X123623506Y-4298240D01*
X123623506Y-4098240D02*
X122923506Y-4098240D01*
X123023506Y-4164906D01*
X123090173Y-4231573D01*
X123123506Y-4298240D01*
X123623506Y-3598240D02*
X122923506Y-3598240D01*
X123423506Y-3364906D01*
X122923506Y-3131573D01*
X123623506Y-3131573D01*
G04 #@! TO.C,R5*
X101181106Y-33928453D02*
X101181106Y-33495120D01*
X101447773Y-33728453D01*
X101447773Y-33628453D01*
X101481106Y-33561786D01*
X101514440Y-33528453D01*
X101581106Y-33495120D01*
X101747773Y-33495120D01*
X101814440Y-33528453D01*
X101847773Y-33561786D01*
X101881106Y-33628453D01*
X101881106Y-33828453D01*
X101847773Y-33895120D01*
X101814440Y-33928453D01*
X101881106Y-33195120D02*
X101181106Y-33195120D01*
X101881106Y-32795120D02*
X101481106Y-33095120D01*
X101181106Y-32795120D02*
X101581106Y-33195120D01*
G04 #@! TO.C,R7*
X99520573Y-34228453D02*
X99487240Y-34195120D01*
X99453906Y-34128453D01*
X99453906Y-33961786D01*
X99487240Y-33895120D01*
X99520573Y-33861786D01*
X99587240Y-33828453D01*
X99653906Y-33828453D01*
X99753906Y-33861786D01*
X100153906Y-34261786D01*
X100153906Y-33828453D01*
X99687240Y-33228453D02*
X100153906Y-33228453D01*
X99420573Y-33395120D02*
X99920573Y-33561786D01*
X99920573Y-33128453D01*
X100153906Y-32861786D02*
X99453906Y-32861786D01*
X100153906Y-32461786D02*
X99753906Y-32761786D01*
X99453906Y-32461786D02*
X99853906Y-32861786D01*
G04 #@! TO.C,R14*
X94972306Y-33625253D02*
X94972306Y-34025253D01*
X94972306Y-33825253D02*
X94272306Y-33825253D01*
X94372306Y-33891920D01*
X94438973Y-33958586D01*
X94472306Y-34025253D01*
X94972306Y-33325253D02*
X94272306Y-33325253D01*
X94972306Y-32925253D02*
X94572306Y-33225253D01*
X94272306Y-32925253D02*
X94672306Y-33325253D01*
X94272306Y-32291920D02*
X94272306Y-32625253D01*
X94605640Y-32658586D01*
X94572306Y-32625253D01*
X94538973Y-32558586D01*
X94538973Y-32391920D01*
X94572306Y-32325253D01*
X94605640Y-32291920D01*
X94672306Y-32258586D01*
X94838973Y-32258586D01*
X94905640Y-32291920D01*
X94938973Y-32325253D01*
X94972306Y-32391920D01*
X94972306Y-32558586D01*
X94938973Y-32625253D01*
X94905640Y-32658586D01*
G04 #@! TO.C,R26*
X120353026Y-4294866D02*
X120353026Y-3861533D01*
X120619693Y-4094866D01*
X120619693Y-3994866D01*
X120653026Y-3928200D01*
X120686360Y-3894866D01*
X120753026Y-3861533D01*
X120919693Y-3861533D01*
X120986360Y-3894866D01*
X121019693Y-3928200D01*
X121053026Y-3994866D01*
X121053026Y-4194866D01*
X121019693Y-4261533D01*
X120986360Y-4294866D01*
X120353026Y-3628200D02*
X120353026Y-3194866D01*
X120619693Y-3428200D01*
X120619693Y-3328200D01*
X120653026Y-3261533D01*
X120686360Y-3228200D01*
X120753026Y-3194866D01*
X120919693Y-3194866D01*
X120986360Y-3228200D01*
X121019693Y-3261533D01*
X121053026Y-3328200D01*
X121053026Y-3528200D01*
X121019693Y-3594866D01*
X120986360Y-3628200D01*
X121053026Y-2494866D02*
X120719693Y-2728200D01*
X121053026Y-2894866D02*
X120353026Y-2894866D01*
X120353026Y-2628200D01*
X120386360Y-2561533D01*
X120419693Y-2528200D01*
X120486360Y-2494866D01*
X120586360Y-2494866D01*
X120653026Y-2528200D01*
X120686360Y-2561533D01*
X120719693Y-2628200D01*
X120719693Y-2894866D01*
G04 #@! TO.C,R27*
X118600426Y-4294866D02*
X118600426Y-3861533D01*
X118867093Y-4094866D01*
X118867093Y-3994866D01*
X118900426Y-3928200D01*
X118933760Y-3894866D01*
X119000426Y-3861533D01*
X119167093Y-3861533D01*
X119233760Y-3894866D01*
X119267093Y-3928200D01*
X119300426Y-3994866D01*
X119300426Y-4194866D01*
X119267093Y-4261533D01*
X119233760Y-4294866D01*
X118600426Y-3628200D02*
X118600426Y-3194866D01*
X118867093Y-3428200D01*
X118867093Y-3328200D01*
X118900426Y-3261533D01*
X118933760Y-3228200D01*
X119000426Y-3194866D01*
X119167093Y-3194866D01*
X119233760Y-3228200D01*
X119267093Y-3261533D01*
X119300426Y-3328200D01*
X119300426Y-3528200D01*
X119267093Y-3594866D01*
X119233760Y-3628200D01*
X119300426Y-2494866D02*
X118967093Y-2728200D01*
X119300426Y-2894866D02*
X118600426Y-2894866D01*
X118600426Y-2628200D01*
X118633760Y-2561533D01*
X118667093Y-2528200D01*
X118733760Y-2494866D01*
X118833760Y-2494866D01*
X118900426Y-2528200D01*
X118933760Y-2561533D01*
X118967093Y-2628200D01*
X118967093Y-2894866D01*
G04 #@! TO.C,R20*
X100194546Y-27374906D02*
X100194546Y-27774906D01*
X100194546Y-27574906D02*
X99494546Y-27574906D01*
X99594546Y-27641573D01*
X99661213Y-27708240D01*
X99694546Y-27774906D01*
X99494546Y-26941573D02*
X99494546Y-26874906D01*
X99527880Y-26808240D01*
X99561213Y-26774906D01*
X99627880Y-26741573D01*
X99761213Y-26708240D01*
X99927880Y-26708240D01*
X100061213Y-26741573D01*
X100127880Y-26774906D01*
X100161213Y-26808240D01*
X100194546Y-26874906D01*
X100194546Y-26941573D01*
X100161213Y-27008240D01*
X100127880Y-27041573D01*
X100061213Y-27074906D01*
X99927880Y-27108240D01*
X99761213Y-27108240D01*
X99627880Y-27074906D01*
X99561213Y-27041573D01*
X99527880Y-27008240D01*
X99494546Y-26941573D01*
X99494546Y-26274906D02*
X99494546Y-26208240D01*
X99527880Y-26141573D01*
X99561213Y-26108240D01*
X99627880Y-26074906D01*
X99761213Y-26041573D01*
X99927880Y-26041573D01*
X100061213Y-26074906D01*
X100127880Y-26108240D01*
X100161213Y-26141573D01*
X100194546Y-26208240D01*
X100194546Y-26274906D01*
X100161213Y-26341573D01*
X100127880Y-26374906D01*
X100061213Y-26408240D01*
X99927880Y-26441573D01*
X99761213Y-26441573D01*
X99627880Y-26408240D01*
X99561213Y-26374906D01*
X99527880Y-26341573D01*
X99494546Y-26274906D01*
X100194546Y-25341573D02*
X99861213Y-25574906D01*
X100194546Y-25741573D02*
X99494546Y-25741573D01*
X99494546Y-25474906D01*
X99527880Y-25408240D01*
X99561213Y-25374906D01*
X99627880Y-25341573D01*
X99727880Y-25341573D01*
X99794546Y-25374906D01*
X99827880Y-25408240D01*
X99861213Y-25474906D01*
X99861213Y-25741573D01*
G04 #@! TO.C,J1*
X108437566Y-5137640D02*
X108404233Y-5170973D01*
X108304233Y-5204306D01*
X108237566Y-5204306D01*
X108137566Y-5170973D01*
X108070900Y-5104306D01*
X108037566Y-5037640D01*
X108004233Y-4904306D01*
X108004233Y-4804306D01*
X108037566Y-4670973D01*
X108070900Y-4604306D01*
X108137566Y-4537640D01*
X108237566Y-4504306D01*
X108304233Y-4504306D01*
X108404233Y-4537640D01*
X108437566Y-4570973D01*
X109137566Y-5137640D02*
X109104233Y-5170973D01*
X109004233Y-5204306D01*
X108937566Y-5204306D01*
X108837566Y-5170973D01*
X108770900Y-5104306D01*
X108737566Y-5037640D01*
X108704233Y-4904306D01*
X108704233Y-4804306D01*
X108737566Y-4670973D01*
X108770900Y-4604306D01*
X108837566Y-4537640D01*
X108937566Y-4504306D01*
X109004233Y-4504306D01*
X109104233Y-4537640D01*
X109137566Y-4570973D01*
X109270900Y-5270973D02*
X109804233Y-5270973D01*
X109970900Y-5204306D02*
X109970900Y-4504306D01*
X110204233Y-5004306D01*
X110437566Y-4504306D01*
X110437566Y-5204306D01*
X110737566Y-5004306D02*
X111070900Y-5004306D01*
X110670900Y-5204306D02*
X110904233Y-4504306D01*
X111137566Y-5204306D01*
X111370900Y-5204306D02*
X111370900Y-4504306D01*
X111704233Y-5204306D02*
X111704233Y-4504306D01*
X112104233Y-5204306D01*
X112104233Y-4504306D01*
G04 #@! TO.C,J2*
X137528986Y-5193520D02*
X137495653Y-5226853D01*
X137395653Y-5260186D01*
X137328986Y-5260186D01*
X137228986Y-5226853D01*
X137162320Y-5160186D01*
X137128986Y-5093520D01*
X137095653Y-4960186D01*
X137095653Y-4860186D01*
X137128986Y-4726853D01*
X137162320Y-4660186D01*
X137228986Y-4593520D01*
X137328986Y-4560186D01*
X137395653Y-4560186D01*
X137495653Y-4593520D01*
X137528986Y-4626853D01*
X138228986Y-5193520D02*
X138195653Y-5226853D01*
X138095653Y-5260186D01*
X138028986Y-5260186D01*
X137928986Y-5226853D01*
X137862320Y-5160186D01*
X137828986Y-5093520D01*
X137795653Y-4960186D01*
X137795653Y-4860186D01*
X137828986Y-4726853D01*
X137862320Y-4660186D01*
X137928986Y-4593520D01*
X138028986Y-4560186D01*
X138095653Y-4560186D01*
X138195653Y-4593520D01*
X138228986Y-4626853D01*
X138362320Y-5326853D02*
X138895653Y-5326853D01*
X139062320Y-5260186D02*
X139062320Y-4560186D01*
X139462320Y-5260186D01*
X139462320Y-4560186D01*
X139795653Y-4893520D02*
X140028986Y-4893520D01*
X140128986Y-5260186D02*
X139795653Y-5260186D01*
X139795653Y-4560186D01*
X140128986Y-4560186D01*
X140362320Y-4560186D02*
X140828986Y-5260186D01*
X140828986Y-4560186D02*
X140362320Y-5260186D01*
X140995653Y-4560186D02*
X141395653Y-4560186D01*
X141195653Y-5260186D02*
X141195653Y-4560186D01*
G04 #@! TO.C,P3*
X139295840Y-33310253D02*
X139329173Y-33343586D01*
X139362506Y-33443586D01*
X139362506Y-33510253D01*
X139329173Y-33610253D01*
X139262506Y-33676920D01*
X139195840Y-33710253D01*
X139062506Y-33743586D01*
X138962506Y-33743586D01*
X138829173Y-33710253D01*
X138762506Y-33676920D01*
X138695840Y-33610253D01*
X138662506Y-33510253D01*
X138662506Y-33443586D01*
X138695840Y-33343586D01*
X138729173Y-33310253D01*
X139362506Y-33010253D02*
X138662506Y-33010253D01*
X138995840Y-33010253D02*
X138995840Y-32610253D01*
X139362506Y-32610253D02*
X138662506Y-32610253D01*
X139162506Y-32310253D02*
X139162506Y-31976920D01*
X139362506Y-32376920D02*
X138662506Y-32143586D01*
X139362506Y-31910253D01*
X139362506Y-31676920D02*
X138662506Y-31676920D01*
X139362506Y-31343586D02*
X138662506Y-31343586D01*
X139362506Y-30943586D01*
X138662506Y-30943586D01*
G04 #@! TO.C,C5*
X153852506Y-46996920D02*
X153852506Y-47396920D01*
X153852506Y-47196920D02*
X153152506Y-47196920D01*
X153252506Y-47263586D01*
X153319173Y-47330253D01*
X153352506Y-47396920D01*
X153152506Y-46563586D02*
X153152506Y-46496920D01*
X153185840Y-46430253D01*
X153219173Y-46396920D01*
X153285840Y-46363586D01*
X153419173Y-46330253D01*
X153585840Y-46330253D01*
X153719173Y-46363586D01*
X153785840Y-46396920D01*
X153819173Y-46430253D01*
X153852506Y-46496920D01*
X153852506Y-46563586D01*
X153819173Y-46630253D01*
X153785840Y-46663586D01*
X153719173Y-46696920D01*
X153585840Y-46730253D01*
X153419173Y-46730253D01*
X153285840Y-46696920D01*
X153219173Y-46663586D01*
X153185840Y-46630253D01*
X153152506Y-46563586D01*
X153385840Y-45730253D02*
X153852506Y-45730253D01*
X153385840Y-46030253D02*
X153752506Y-46030253D01*
X153819173Y-45996920D01*
X153852506Y-45930253D01*
X153852506Y-45830253D01*
X153819173Y-45763586D01*
X153785840Y-45730253D01*
X153485840Y-45163586D02*
X153485840Y-45396920D01*
X153852506Y-45396920D02*
X153152506Y-45396920D01*
X153152506Y-45063586D01*
G04 #@! TO.C,C3*
X17413406Y-32720386D02*
X17413406Y-33120386D01*
X17413406Y-32920386D02*
X16713406Y-32920386D01*
X16813406Y-32987053D01*
X16880073Y-33053720D01*
X16913406Y-33120386D01*
X16946740Y-32120386D02*
X17413406Y-32120386D01*
X16946740Y-32420386D02*
X17313406Y-32420386D01*
X17380073Y-32387053D01*
X17413406Y-32320386D01*
X17413406Y-32220386D01*
X17380073Y-32153720D01*
X17346740Y-32120386D01*
X17046740Y-31553720D02*
X17046740Y-31787053D01*
X17413406Y-31787053D02*
X16713406Y-31787053D01*
X16713406Y-31453720D01*
G04 #@! TO.C,C17*
X169785466Y-32796586D02*
X169785466Y-33196586D01*
X169785466Y-32996586D02*
X169085466Y-32996586D01*
X169185466Y-33063253D01*
X169252133Y-33129920D01*
X169285466Y-33196586D01*
X169318800Y-32196586D02*
X169785466Y-32196586D01*
X169318800Y-32496586D02*
X169685466Y-32496586D01*
X169752133Y-32463253D01*
X169785466Y-32396586D01*
X169785466Y-32296586D01*
X169752133Y-32229920D01*
X169718800Y-32196586D01*
X169418800Y-31629920D02*
X169418800Y-31863253D01*
X169785466Y-31863253D02*
X169085466Y-31863253D01*
X169085466Y-31529920D01*
G04 #@! TO.C,Q3*
X97782300Y-29449593D02*
X97815633Y-29416260D01*
X97882300Y-29382926D01*
X98048966Y-29382926D01*
X98115633Y-29416260D01*
X98148966Y-29449593D01*
X98182300Y-29516260D01*
X98182300Y-29582926D01*
X98148966Y-29682926D01*
X97748966Y-30082926D01*
X98182300Y-30082926D01*
X98482300Y-30082926D02*
X98482300Y-29382926D01*
X98882300Y-30082926D01*
X98882300Y-29382926D01*
X99148966Y-29382926D02*
X99615633Y-29382926D01*
X99315633Y-30082926D01*
X100015633Y-29382926D02*
X100082300Y-29382926D01*
X100148966Y-29416260D01*
X100182300Y-29449593D01*
X100215633Y-29516260D01*
X100248966Y-29649593D01*
X100248966Y-29816260D01*
X100215633Y-29949593D01*
X100182300Y-30016260D01*
X100148966Y-30049593D01*
X100082300Y-30082926D01*
X100015633Y-30082926D01*
X99948966Y-30049593D01*
X99915633Y-30016260D01*
X99882300Y-29949593D01*
X99848966Y-29816260D01*
X99848966Y-29649593D01*
X99882300Y-29516260D01*
X99915633Y-29449593D01*
X99948966Y-29416260D01*
X100015633Y-29382926D01*
X100682300Y-29382926D02*
X100748966Y-29382926D01*
X100815633Y-29416260D01*
X100848966Y-29449593D01*
X100882300Y-29516260D01*
X100915633Y-29649593D01*
X100915633Y-29816260D01*
X100882300Y-29949593D01*
X100848966Y-30016260D01*
X100815633Y-30049593D01*
X100748966Y-30082926D01*
X100682300Y-30082926D01*
X100615633Y-30049593D01*
X100582300Y-30016260D01*
X100548966Y-29949593D01*
X100515633Y-29816260D01*
X100515633Y-29649593D01*
X100548966Y-29516260D01*
X100582300Y-29449593D01*
X100615633Y-29416260D01*
X100682300Y-29382926D01*
X101182300Y-29449593D02*
X101215633Y-29416260D01*
X101282300Y-29382926D01*
X101448966Y-29382926D01*
X101515633Y-29416260D01*
X101548966Y-29449593D01*
X101582300Y-29516260D01*
X101582300Y-29582926D01*
X101548966Y-29682926D01*
X101148966Y-30082926D01*
X101582300Y-30082926D01*
G04 #@! TO.C,R6*
X97296406Y-30834386D02*
X97296406Y-31234386D01*
X97296406Y-31034386D02*
X96596406Y-31034386D01*
X96696406Y-31101053D01*
X96763073Y-31167720D01*
X96796406Y-31234386D01*
X96596406Y-30401053D02*
X96596406Y-30334386D01*
X96629740Y-30267720D01*
X96663073Y-30234386D01*
X96729740Y-30201053D01*
X96863073Y-30167720D01*
X97029740Y-30167720D01*
X97163073Y-30201053D01*
X97229740Y-30234386D01*
X97263073Y-30267720D01*
X97296406Y-30334386D01*
X97296406Y-30401053D01*
X97263073Y-30467720D01*
X97229740Y-30501053D01*
X97163073Y-30534386D01*
X97029740Y-30567720D01*
X96863073Y-30567720D01*
X96729740Y-30534386D01*
X96663073Y-30501053D01*
X96629740Y-30467720D01*
X96596406Y-30401053D01*
X96596406Y-29734386D02*
X96596406Y-29667720D01*
X96629740Y-29601053D01*
X96663073Y-29567720D01*
X96729740Y-29534386D01*
X96863073Y-29501053D01*
X97029740Y-29501053D01*
X97163073Y-29534386D01*
X97229740Y-29567720D01*
X97263073Y-29601053D01*
X97296406Y-29667720D01*
X97296406Y-29734386D01*
X97263073Y-29801053D01*
X97229740Y-29834386D01*
X97163073Y-29867720D01*
X97029740Y-29901053D01*
X96863073Y-29901053D01*
X96729740Y-29867720D01*
X96663073Y-29834386D01*
X96629740Y-29801053D01*
X96596406Y-29734386D01*
X97296406Y-29201053D02*
X96596406Y-29201053D01*
X97296406Y-28801053D02*
X96896406Y-29101053D01*
X96596406Y-28801053D02*
X96996406Y-29201053D01*
G04 #@! TO.C,R9*
X20755173Y-32938133D02*
X20721840Y-32904800D01*
X20688506Y-32838133D01*
X20688506Y-32671466D01*
X20721840Y-32604800D01*
X20755173Y-32571466D01*
X20821840Y-32538133D01*
X20888506Y-32538133D01*
X20988506Y-32571466D01*
X21388506Y-32971466D01*
X21388506Y-32538133D01*
X21388506Y-32238133D02*
X20688506Y-32238133D01*
X21388506Y-31838133D02*
X20988506Y-32138133D01*
X20688506Y-31838133D02*
X21088506Y-32238133D01*
X20921840Y-31238133D02*
X21388506Y-31238133D01*
X20655173Y-31404800D02*
X21155173Y-31571466D01*
X21155173Y-31138133D01*
G04 #@! TO.C,R10*
X95543806Y-30501053D02*
X95543806Y-30901053D01*
X95543806Y-30701053D02*
X94843806Y-30701053D01*
X94943806Y-30767720D01*
X95010473Y-30834386D01*
X95043806Y-30901053D01*
X94843806Y-30067720D02*
X94843806Y-30001053D01*
X94877140Y-29934386D01*
X94910473Y-29901053D01*
X94977140Y-29867720D01*
X95110473Y-29834386D01*
X95277140Y-29834386D01*
X95410473Y-29867720D01*
X95477140Y-29901053D01*
X95510473Y-29934386D01*
X95543806Y-30001053D01*
X95543806Y-30067720D01*
X95510473Y-30134386D01*
X95477140Y-30167720D01*
X95410473Y-30201053D01*
X95277140Y-30234386D01*
X95110473Y-30234386D01*
X94977140Y-30201053D01*
X94910473Y-30167720D01*
X94877140Y-30134386D01*
X94843806Y-30067720D01*
X95543806Y-29534386D02*
X94843806Y-29534386D01*
X95543806Y-29134386D02*
X95143806Y-29434386D01*
X94843806Y-29134386D02*
X95243806Y-29534386D01*
G04 #@! TO.C,R15*
X19519066Y-32704800D02*
X19519066Y-33104800D01*
X19519066Y-32904800D02*
X18819066Y-32904800D01*
X18919066Y-32971466D01*
X18985733Y-33038133D01*
X19019066Y-33104800D01*
X19452400Y-32404800D02*
X19485733Y-32371466D01*
X19519066Y-32404800D01*
X19485733Y-32438133D01*
X19452400Y-32404800D01*
X19519066Y-32404800D01*
X18885733Y-32104800D02*
X18852400Y-32071466D01*
X18819066Y-32004800D01*
X18819066Y-31838133D01*
X18852400Y-31771466D01*
X18885733Y-31738133D01*
X18952400Y-31704800D01*
X19019066Y-31704800D01*
X19119066Y-31738133D01*
X19519066Y-32138133D01*
X19519066Y-31704800D01*
X19519066Y-31404800D02*
X18819066Y-31404800D01*
X19519066Y-31004800D02*
X19119066Y-31304800D01*
X18819066Y-31004800D02*
X19219066Y-31404800D01*
G04 #@! TO.C,R21*
X173127233Y-33021953D02*
X173093900Y-32988620D01*
X173060566Y-32921953D01*
X173060566Y-32755286D01*
X173093900Y-32688620D01*
X173127233Y-32655286D01*
X173193900Y-32621953D01*
X173260566Y-32621953D01*
X173360566Y-32655286D01*
X173760566Y-33055286D01*
X173760566Y-32621953D01*
X173760566Y-32321953D02*
X173060566Y-32321953D01*
X173760566Y-31921953D02*
X173360566Y-32221953D01*
X173060566Y-31921953D02*
X173460566Y-32321953D01*
X173293900Y-31321953D02*
X173760566Y-31321953D01*
X173027233Y-31488620D02*
X173527233Y-31655286D01*
X173527233Y-31221953D01*
G04 #@! TO.C,R22*
X171893666Y-32788620D02*
X171893666Y-33188620D01*
X171893666Y-32988620D02*
X171193666Y-32988620D01*
X171293666Y-33055286D01*
X171360333Y-33121953D01*
X171393666Y-33188620D01*
X171827000Y-32488620D02*
X171860333Y-32455286D01*
X171893666Y-32488620D01*
X171860333Y-32521953D01*
X171827000Y-32488620D01*
X171893666Y-32488620D01*
X171260333Y-32188620D02*
X171227000Y-32155286D01*
X171193666Y-32088620D01*
X171193666Y-31921953D01*
X171227000Y-31855286D01*
X171260333Y-31821953D01*
X171327000Y-31788620D01*
X171393666Y-31788620D01*
X171493666Y-31821953D01*
X171893666Y-32221953D01*
X171893666Y-31788620D01*
X171893666Y-31488620D02*
X171193666Y-31488620D01*
X171893666Y-31088620D02*
X171493666Y-31388620D01*
X171193666Y-31088620D02*
X171593666Y-31488620D01*
G04 #@! TO.C,P6*
D11*
X132555182Y-16452029D02*
X132602801Y-16499648D01*
X132650420Y-16642505D01*
X132650420Y-16737743D01*
X132602801Y-16880600D01*
X132507563Y-16975839D01*
X132412325Y-17023458D01*
X132221849Y-17071077D01*
X132078992Y-17071077D01*
X131888516Y-17023458D01*
X131793278Y-16975839D01*
X131698040Y-16880600D01*
X131650420Y-16737743D01*
X131650420Y-16642505D01*
X131698040Y-16499648D01*
X131745659Y-16452029D01*
X131650420Y-15832981D02*
X131650420Y-15642505D01*
X131698040Y-15547267D01*
X131793278Y-15452029D01*
X131983754Y-15404410D01*
X132317087Y-15404410D01*
X132507563Y-15452029D01*
X132602801Y-15547267D01*
X132650420Y-15642505D01*
X132650420Y-15832981D01*
X132602801Y-15928220D01*
X132507563Y-16023458D01*
X132317087Y-16071077D01*
X131983754Y-16071077D01*
X131793278Y-16023458D01*
X131698040Y-15928220D01*
X131650420Y-15832981D01*
X132650420Y-14975839D02*
X131650420Y-14975839D01*
X132650420Y-14404410D01*
X131650420Y-14404410D01*
X132650420Y-13928220D02*
X131650420Y-13928220D01*
X132650420Y-13356791D01*
X131650420Y-13356791D01*
X132745659Y-13118696D02*
X132745659Y-12356791D01*
X131650420Y-11928220D02*
X131650420Y-11832981D01*
X131698040Y-11737743D01*
X131745659Y-11690124D01*
X131840897Y-11642505D01*
X132031373Y-11594886D01*
X132269468Y-11594886D01*
X132459944Y-11642505D01*
X132555182Y-11690124D01*
X132602801Y-11737743D01*
X132650420Y-11832981D01*
X132650420Y-11928220D01*
X132602801Y-12023458D01*
X132555182Y-12071077D01*
X132459944Y-12118696D01*
X132269468Y-12166315D01*
X132031373Y-12166315D01*
X131840897Y-12118696D01*
X131745659Y-12071077D01*
X131698040Y-12023458D01*
X131650420Y-11928220D01*
X132650420Y-10642505D02*
X132650420Y-11213934D01*
X132650420Y-10928220D02*
X131650420Y-10928220D01*
X131793278Y-11023458D01*
X131888516Y-11118696D01*
X131936135Y-11213934D01*
X131650420Y-10309172D02*
X132650420Y-9642505D01*
X131650420Y-9642505D02*
X132650420Y-10309172D01*
X132650420Y-8737743D02*
X132650420Y-9309172D01*
X132650420Y-9023458D02*
X131650420Y-9023458D01*
X131793278Y-9118696D01*
X131888516Y-9213934D01*
X131936135Y-9309172D01*
X131745659Y-8356791D02*
X131698040Y-8309172D01*
X131650420Y-8213934D01*
X131650420Y-7975839D01*
X131698040Y-7880600D01*
X131745659Y-7832981D01*
X131840897Y-7785362D01*
X131936135Y-7785362D01*
X132078992Y-7832981D01*
X132650420Y-8404410D01*
X132650420Y-7785362D01*
G04 #@! TO.C,P10*
X116272982Y-29274062D02*
X116320601Y-29321681D01*
X116368220Y-29464539D01*
X116368220Y-29559777D01*
X116320601Y-29702634D01*
X116225363Y-29797872D01*
X116130125Y-29845491D01*
X115939649Y-29893110D01*
X115796792Y-29893110D01*
X115606316Y-29845491D01*
X115511078Y-29797872D01*
X115415840Y-29702634D01*
X115368220Y-29559777D01*
X115368220Y-29464539D01*
X115415840Y-29321681D01*
X115463459Y-29274062D01*
X116368220Y-28845491D02*
X115368220Y-28845491D01*
X115368220Y-28464539D01*
X115415840Y-28369300D01*
X115463459Y-28321681D01*
X115558697Y-28274062D01*
X115701554Y-28274062D01*
X115796792Y-28321681D01*
X115844411Y-28369300D01*
X115892030Y-28464539D01*
X115892030Y-28845491D01*
X115368220Y-27845491D02*
X116177744Y-27845491D01*
X116272982Y-27797872D01*
X116320601Y-27750253D01*
X116368220Y-27655015D01*
X116368220Y-27464539D01*
X116320601Y-27369300D01*
X116272982Y-27321681D01*
X116177744Y-27274062D01*
X115368220Y-27274062D01*
X116463459Y-27035967D02*
X116463459Y-26274062D01*
X116368220Y-25464539D02*
X115892030Y-25797872D01*
X116368220Y-26035967D02*
X115368220Y-26035967D01*
X115368220Y-25655015D01*
X115415840Y-25559777D01*
X115463459Y-25512158D01*
X115558697Y-25464539D01*
X115701554Y-25464539D01*
X115796792Y-25512158D01*
X115844411Y-25559777D01*
X115892030Y-25655015D01*
X115892030Y-26035967D01*
X115844411Y-25035967D02*
X115844411Y-24702634D01*
X116368220Y-24559777D02*
X116368220Y-25035967D01*
X115368220Y-25035967D01*
X115368220Y-24559777D01*
X116320601Y-24178824D02*
X116368220Y-24035967D01*
X116368220Y-23797872D01*
X116320601Y-23702634D01*
X116272982Y-23655015D01*
X116177744Y-23607396D01*
X116082506Y-23607396D01*
X115987268Y-23655015D01*
X115939649Y-23702634D01*
X115892030Y-23797872D01*
X115844411Y-23988348D01*
X115796792Y-24083586D01*
X115749173Y-24131205D01*
X115653935Y-24178824D01*
X115558697Y-24178824D01*
X115463459Y-24131205D01*
X115415840Y-24083586D01*
X115368220Y-23988348D01*
X115368220Y-23750253D01*
X115415840Y-23607396D01*
X115844411Y-23178824D02*
X115844411Y-22845491D01*
X116368220Y-22702634D02*
X116368220Y-23178824D01*
X115368220Y-23178824D01*
X115368220Y-22702634D01*
X115368220Y-22416920D02*
X115368220Y-21845491D01*
X116368220Y-22131205D02*
X115368220Y-22131205D01*
G04 #@! TO.C,R40*
X123718220Y-26837396D02*
X123718220Y-27408824D01*
X123718220Y-27123110D02*
X122718220Y-27123110D01*
X122861078Y-27218348D01*
X122956316Y-27313586D01*
X123003935Y-27408824D01*
X122718220Y-26218348D02*
X122718220Y-26123110D01*
X122765840Y-26027872D01*
X122813459Y-25980253D01*
X122908697Y-25932634D01*
X123099173Y-25885015D01*
X123337268Y-25885015D01*
X123527744Y-25932634D01*
X123622982Y-25980253D01*
X123670601Y-26027872D01*
X123718220Y-26123110D01*
X123718220Y-26218348D01*
X123670601Y-26313586D01*
X123622982Y-26361205D01*
X123527744Y-26408824D01*
X123337268Y-26456443D01*
X123099173Y-26456443D01*
X122908697Y-26408824D01*
X122813459Y-26361205D01*
X122765840Y-26313586D01*
X122718220Y-26218348D01*
X123718220Y-25456443D02*
X122718220Y-25456443D01*
X123718220Y-24885015D02*
X123146792Y-25313586D01*
X122718220Y-24885015D02*
X123289649Y-25456443D01*
G04 #@! TD*
M02*
