G04 #@! TF.FileFunction,Soldermask,Bot*
%FSLAX46Y46*%
G04 Gerber Fmt 4.6, Leading zero omitted, Abs format (unit mm)*
G04 Created by KiCad (PCBNEW 4.0.1-stable) date Thu 16 Jun 2016 07:21:35 PM CEST*
%MOMM*%
G01*
G04 APERTURE LIST*
%ADD10C,0.100000*%
%ADD11O,2.000000X2.800000*%
%ADD12C,3.600000*%
%ADD13R,1.250000X1.250000*%
%ADD14C,1.250000*%
%ADD15R,2.232000X2.232000*%
%ADD16O,2.232000X2.232000*%
%ADD17C,2.100000*%
%ADD18C,1.099160*%
%ADD19C,3.500000*%
%ADD20C,3.400000*%
%ADD21R,1.701140X1.701140*%
%ADD22C,1.701140*%
%ADD23R,1.927200X2.232000*%
%ADD24O,1.927200X2.232000*%
G04 APERTURE END LIST*
D10*
D11*
X12004040Y4500880D03*
X14544040Y4500880D03*
X17084040Y4500880D03*
X19624040Y4500880D03*
X22164040Y4500880D03*
X24704040Y4500880D03*
X27244040Y4500880D03*
X29784040Y4500880D03*
X32324040Y4500880D03*
X34864040Y4500880D03*
X37404040Y4500880D03*
X39944040Y4500880D03*
X42484040Y4500880D03*
X45024040Y4500880D03*
X47564040Y4500880D03*
X50104040Y4500880D03*
D12*
X6504940Y4500880D03*
X6504940Y-26499820D03*
X81503520Y-26499820D03*
X81503520Y4500880D03*
D13*
X89062560Y-42646600D03*
D14*
X90332560Y-42646600D03*
X91602560Y-42646600D03*
X92872560Y-42646600D03*
X94142560Y-42646600D03*
X90332560Y-41376600D03*
X91602560Y-41376600D03*
X92872560Y-41376600D03*
X94142560Y-41376600D03*
X89062560Y-41376600D03*
D15*
X38615620Y-40901620D03*
D16*
X36075620Y-40901620D03*
D15*
X191010540Y-40888920D03*
D16*
X188470540Y-40901620D03*
D15*
X47576740Y-40901620D03*
D16*
X45036740Y-40901620D03*
D15*
X199981820Y-40901620D03*
D16*
X197441820Y-40901620D03*
D12*
X89001600Y-28999180D03*
X2540Y-47495460D03*
X151401780Y-28999180D03*
X240400840Y0D03*
X240400840Y-47495460D03*
D17*
X153161380Y-2584460D03*
X145661380Y-2584460D03*
X153161380Y2415540D03*
X145661380Y2413000D03*
X94741380Y-2584460D03*
X87241380Y-2584460D03*
X94741380Y2415540D03*
X87241380Y2415540D03*
D12*
X0Y0D03*
D11*
X164404040Y4500880D03*
X166944040Y4500880D03*
X169484040Y4500880D03*
X172024040Y4500880D03*
X174564040Y4500880D03*
X177104040Y4500880D03*
X179644040Y4500880D03*
X182184040Y4500880D03*
X184724040Y4500880D03*
X187264040Y4500880D03*
X189804040Y4500880D03*
X192344040Y4500880D03*
X194884040Y4500880D03*
X197424040Y4500880D03*
X199964040Y4500880D03*
X202504040Y4500880D03*
D12*
X158904940Y4500880D03*
X158904940Y-26499820D03*
X233903520Y-26499820D03*
X233903520Y4500880D03*
D18*
X122392440Y2425700D03*
X117993160Y2425700D03*
D19*
X99687380Y3642360D03*
D20*
X111556800Y3642360D03*
D21*
X110070900Y-2707640D03*
D22*
X108800900Y-5247640D03*
X107530900Y-2707640D03*
X106260900Y-5247640D03*
X104990900Y-2707640D03*
X103720900Y-5247640D03*
X102450900Y-2707640D03*
X101180900Y-5247640D03*
D19*
X128828800Y3586480D03*
D20*
X140698220Y3586480D03*
D21*
X139212320Y-2763520D03*
D22*
X137942320Y-5303520D03*
X136672320Y-2763520D03*
X135402320Y-5303520D03*
X134132320Y-2763520D03*
X132862320Y-5303520D03*
X131592320Y-2763520D03*
X130322320Y-5303520D03*
D23*
X118932960Y-22230080D03*
D24*
X121472960Y-22230080D03*
X124012960Y-22230080D03*
D23*
X129110740Y-40901620D03*
D24*
X126570740Y-40901620D03*
X124030740Y-40901620D03*
X121490740Y-40901620D03*
X118950740Y-40901620D03*
X116410740Y-40901620D03*
X113870740Y-40901620D03*
X111330740Y-40901620D03*
X108790740Y-40901620D03*
X106250740Y-40901620D03*
X103710740Y-40901620D03*
X101170740Y-40901620D03*
D15*
X118932960Y-18643600D03*
D16*
X121472960Y-18643600D03*
D23*
X129098040Y-11424920D03*
D24*
X126558040Y-11424920D03*
X124018040Y-11424920D03*
X121478040Y-11424920D03*
X118938040Y-11424920D03*
X116398040Y-11424920D03*
X113858040Y-11424920D03*
X111318040Y-11424920D03*
X108778040Y-11424920D03*
X106238040Y-11424920D03*
X103698040Y-11424920D03*
X101158040Y-11424920D03*
M02*
