G04 #@! TF.GenerationSoftware,KiCad,Pcbnew,5.0.2-bee76a0~70~ubuntu18.04.1*
G04 #@! TF.CreationDate,2019-04-15T14:57:01+02:00*
G04 #@! TF.ProjectId,footswitch,666f6f74-7377-4697-9463-682e6b696361,rev?*
G04 #@! TF.SameCoordinates,PX1ae5c80PY3d0c318*
G04 #@! TF.FileFunction,Profile,NP*
%FSLAX46Y46*%
G04 Gerber Fmt 4.6, Leading zero omitted, Abs format (unit mm)*
G04 Created by KiCad (PCBNEW 5.0.2-bee76a0~70~ubuntu18.04.1) date Mon 15 Apr 2019 02:57:01 PM CEST*
%MOMM*%
%LPD*%
G01*
G04 APERTURE LIST*
%ADD10C,0.100000*%
G04 APERTURE END LIST*
D10*
X156157334Y-16359324D02*
X137177374Y-16359324D01*
X155160536Y-15359485D02*
X137180550Y-15359485D01*
X134537960Y-16358798D02*
X105862880Y-16358798D01*
X134537960Y-15358706D02*
X105862880Y-15358706D01*
X156157334Y-16359324D02*
X156157334Y-6609080D01*
X155160536Y-15359485D02*
X155160536Y-6609080D01*
X84240442Y-16359324D02*
X84240442Y-6609080D01*
X85240534Y-15359485D02*
X85240534Y-6609080D01*
X134537960Y-16358798D02*
X134537960Y-15358706D01*
X137180320Y-16358798D02*
X137180320Y-15358706D01*
X105862880Y-16358798D02*
X105862880Y-15358706D01*
X103220520Y-16358798D02*
X103220520Y-15358706D01*
X155160536Y-6609080D02*
X156157334Y-6609080D01*
X155160536Y-3002280D02*
X156160442Y-3002280D01*
X84240442Y-3002280D02*
X85240534Y-3002280D01*
X84240442Y-6609080D02*
X85240534Y-6609080D01*
X85240534Y-3002280D02*
X85240534Y6997054D01*
X85240534Y6997054D02*
X155160536Y6997054D01*
X155160536Y6997054D02*
X155160536Y-3002280D01*
X103220520Y-15359485D02*
X85240534Y-15359485D01*
X84240442Y-3002280D02*
X84240442Y7000563D01*
X84240442Y7000563D02*
X-4499561Y7000563D01*
X-4499561Y7000563D02*
X-4499561Y-51495040D01*
X-4499561Y-51495040D02*
X244900444Y-51495040D01*
X244900444Y-51495040D02*
X244900444Y7000563D01*
X244900444Y7000563D02*
X156160442Y7000563D01*
X156160442Y7000563D02*
X156160442Y-3002280D01*
X103220520Y-16359324D02*
X84240560Y-16359324D01*
M02*
