G04 #@! TF.GenerationSoftware,KiCad,Pcbnew,5.0.2-bee76a0~70~ubuntu18.04.1*
G04 #@! TF.CreationDate,2019-04-01T12:32:04+02:00*
G04 #@! TF.ProjectId,footswitch,666f6f74-7377-4697-9463-682e6b696361,rev?*
G04 #@! TF.SameCoordinates,PX1ae5c80PY3d0c318*
G04 #@! TF.FileFunction,Copper,L2,Bot*
G04 #@! TF.FilePolarity,Positive*
%FSLAX46Y46*%
G04 Gerber Fmt 4.6, Leading zero omitted, Abs format (unit mm)*
G04 Created by KiCad (PCBNEW 5.0.2-bee76a0~70~ubuntu18.04.1) date Mon 01 Apr 2019 12:32:04 PM CEST*
%MOMM*%
%LPD*%
G01*
G04 APERTURE LIST*
G04 #@! TA.AperFunction,ComponentPad*
%ADD10O,2.032000X2.032000*%
G04 #@! TD*
G04 #@! TA.AperFunction,ComponentPad*
%ADD11R,2.032000X2.032000*%
G04 #@! TD*
G04 #@! TA.AperFunction,ComponentPad*
%ADD12R,1.727200X2.032000*%
G04 #@! TD*
G04 #@! TA.AperFunction,ComponentPad*
%ADD13O,1.727200X2.032000*%
G04 #@! TD*
G04 #@! TA.AperFunction,ComponentPad*
%ADD14O,1.800000X2.600000*%
G04 #@! TD*
G04 #@! TA.AperFunction,ComponentPad*
%ADD15C,3.400000*%
G04 #@! TD*
G04 #@! TA.AperFunction,ComponentPad*
%ADD16R,1.050000X1.050000*%
G04 #@! TD*
G04 #@! TA.AperFunction,ComponentPad*
%ADD17C,1.050000*%
G04 #@! TD*
G04 #@! TA.AperFunction,ComponentPad*
%ADD18C,1.900000*%
G04 #@! TD*
G04 #@! TA.AperFunction,ComponentPad*
%ADD19C,0.899160*%
G04 #@! TD*
G04 #@! TA.AperFunction,ComponentPad*
%ADD20C,3.300000*%
G04 #@! TD*
G04 #@! TA.AperFunction,ComponentPad*
%ADD21C,3.200000*%
G04 #@! TD*
G04 #@! TA.AperFunction,ComponentPad*
%ADD22R,1.501140X1.501140*%
G04 #@! TD*
G04 #@! TA.AperFunction,ComponentPad*
%ADD23C,1.501140*%
G04 #@! TD*
G04 #@! TA.AperFunction,ViaPad*
%ADD24C,0.600000*%
G04 #@! TD*
G04 #@! TA.AperFunction,ViaPad*
%ADD25C,0.750000*%
G04 #@! TD*
G04 #@! TA.AperFunction,ViaPad*
%ADD26C,0.900000*%
G04 #@! TD*
G04 #@! TA.AperFunction,Conductor*
%ADD27C,0.254000*%
G04 #@! TD*
G04 #@! TA.AperFunction,Conductor*
%ADD28C,0.381000*%
G04 #@! TD*
G04 #@! TA.AperFunction,Conductor*
%ADD29C,0.508000*%
G04 #@! TD*
G04 APERTURE END LIST*
D10*
G04 #@! TO.P,P2,2*
G04 #@! TO.N,GNDD*
X191010540Y-40901620D03*
D11*
G04 #@! TO.P,P2,1*
G04 #@! TO.N,FS3*
X188470540Y-40888920D03*
G04 #@! TD*
D10*
G04 #@! TO.P,P5,2*
G04 #@! TO.N,GNDD*
X199981820Y-40901620D03*
D11*
G04 #@! TO.P,P5,1*
G04 #@! TO.N,FS4*
X197441820Y-40901620D03*
G04 #@! TD*
D10*
G04 #@! TO.P,P4,2*
G04 #@! TO.N,GNDD*
X47576740Y-40901620D03*
D11*
G04 #@! TO.P,P4,1*
G04 #@! TO.N,FS2*
X45036740Y-40901620D03*
G04 #@! TD*
D10*
G04 #@! TO.P,P1,2*
G04 #@! TO.N,GNDD*
X38615620Y-40901620D03*
D11*
G04 #@! TO.P,P1,1*
G04 #@! TO.N,FS1*
X36075620Y-40901620D03*
G04 #@! TD*
D12*
G04 #@! TO.P,P8,1*
G04 #@! TO.N,+12V*
X129110740Y-40901620D03*
D13*
G04 #@! TO.P,P8,2*
X126570740Y-40901620D03*
G04 #@! TO.P,P8,3*
G04 #@! TO.N,RS485_RX+*
X124030740Y-40901620D03*
G04 #@! TO.P,P8,4*
G04 #@! TO.N,RS485_RX-*
X121490740Y-40901620D03*
G04 #@! TO.P,P8,5*
G04 #@! TO.N,GNDD*
X118950740Y-40901620D03*
G04 #@! TO.P,P8,6*
G04 #@! TO.N,RS485_TX-*
X116410740Y-40901620D03*
G04 #@! TO.P,P8,7*
G04 #@! TO.N,RS485_TX+*
X113870740Y-40901620D03*
G04 #@! TO.P,P8,8*
G04 #@! TO.N,GNDD*
X111330740Y-40901620D03*
G04 #@! TO.P,P8,9*
G04 #@! TO.N,USB_VCC*
X108790740Y-40901620D03*
G04 #@! TO.P,P8,10*
G04 #@! TO.N,USB_DM_CPU*
X106250740Y-40901620D03*
G04 #@! TO.P,P8,11*
G04 #@! TO.N,USB_DP_CPU*
X103710740Y-40901620D03*
G04 #@! TO.P,P8,12*
G04 #@! TO.N,GNDD*
X101170740Y-40901620D03*
G04 #@! TD*
D14*
G04 #@! TO.P,DS1,1*
G04 #@! TO.N,GNDD*
X12004040Y4500880D03*
G04 #@! TO.P,DS1,2*
G04 #@! TO.N,+3V3*
X14544040Y4500880D03*
G04 #@! TO.P,DS1,3*
G04 #@! TO.N,Net-(C3-Pad1)*
X17084040Y4500880D03*
G04 #@! TO.P,DS1,4*
G04 #@! TO.N,LCD_RS*
X19624040Y4500880D03*
G04 #@! TO.P,DS1,5*
G04 #@! TO.N,LCD_RW*
X22164040Y4500880D03*
G04 #@! TO.P,DS1,6*
G04 #@! TO.N,LCD1_EN*
X24704040Y4500880D03*
G04 #@! TO.P,DS1,7*
G04 #@! TO.N,GNDD*
X27244040Y4500880D03*
G04 #@! TO.P,DS1,8*
X29784040Y4500880D03*
G04 #@! TO.P,DS1,9*
X32324040Y4500880D03*
G04 #@! TO.P,DS1,10*
X34864040Y4500880D03*
G04 #@! TO.P,DS1,11*
G04 #@! TO.N,LCD_D4*
X37404040Y4500880D03*
G04 #@! TO.P,DS1,12*
G04 #@! TO.N,LCD_D5*
X39944040Y4500880D03*
G04 #@! TO.P,DS1,13*
G04 #@! TO.N,LCD_D6*
X42484040Y4500880D03*
G04 #@! TO.P,DS1,14*
G04 #@! TO.N,LCD_D7*
X45024040Y4500880D03*
G04 #@! TO.P,DS1,15*
G04 #@! TO.N,+3V3*
X47564040Y4500880D03*
G04 #@! TO.P,DS1,16*
G04 #@! TO.N,Net-(DS1-Pad16)*
X50104040Y4500880D03*
D15*
G04 #@! TO.P,DS1,0*
G04 #@! TO.N,N/C*
X6504940Y4500880D03*
X6504940Y-26499820D03*
X81503520Y-26499820D03*
X81503520Y4500880D03*
G04 #@! TD*
D16*
G04 #@! TO.P,P9,1*
G04 #@! TO.N,Net-(P9-Pad1)*
X89062560Y-42646600D03*
D17*
G04 #@! TO.P,P9,3*
G04 #@! TO.N,GNDD*
X90332560Y-42646600D03*
G04 #@! TO.P,P9,5*
X91602560Y-42646600D03*
G04 #@! TO.P,P9,7*
G04 #@! TO.N,Net-(P9-Pad7)*
X92872560Y-42646600D03*
G04 #@! TO.P,P9,9*
G04 #@! TO.N,GNDD*
X94142560Y-42646600D03*
G04 #@! TO.P,P9,4*
G04 #@! TO.N,SWCLK*
X90332560Y-41376600D03*
G04 #@! TO.P,P9,6*
G04 #@! TO.N,SWO*
X91602560Y-41376600D03*
G04 #@! TO.P,P9,8*
G04 #@! TO.N,Net-(P9-Pad8)*
X92872560Y-41376600D03*
G04 #@! TO.P,P9,10*
G04 #@! TO.N,RESET*
X94142560Y-41376600D03*
G04 #@! TO.P,P9,2*
G04 #@! TO.N,SWDIO*
X89062560Y-41376600D03*
G04 #@! TD*
D15*
G04 #@! TO.P,H2,1*
G04 #@! TO.N,Net-(H2-Pad1)*
X89001600Y-28999180D03*
G04 #@! TD*
G04 #@! TO.P,H3,1*
G04 #@! TO.N,Net-(H3-Pad1)*
X2540Y-47495460D03*
G04 #@! TD*
G04 #@! TO.P,H4,1*
G04 #@! TO.N,Net-(H4-Pad1)*
X151401780Y-28999180D03*
G04 #@! TD*
G04 #@! TO.P,H5,1*
G04 #@! TO.N,Net-(H5-Pad1)*
X240400840Y0D03*
G04 #@! TD*
G04 #@! TO.P,H6,1*
G04 #@! TO.N,Net-(H6-Pad1)*
X240400840Y-47495460D03*
G04 #@! TD*
D18*
G04 #@! TO.P,H7,4*
G04 #@! TO.N,Net-(H7-Pad4)*
X153161380Y-2584460D03*
G04 #@! TO.P,H7,3*
G04 #@! TO.N,Net-(H7-Pad3)*
X145661380Y-2584460D03*
G04 #@! TO.P,H7,2*
G04 #@! TO.N,Net-(H7-Pad2)*
X153161380Y2415540D03*
G04 #@! TO.P,H7,1*
G04 #@! TO.N,Net-(H7-Pad1)*
X145661380Y2413000D03*
G04 #@! TD*
G04 #@! TO.P,H8,4*
G04 #@! TO.N,Net-(H8-Pad4)*
X94741380Y-2584460D03*
G04 #@! TO.P,H8,3*
G04 #@! TO.N,Net-(H8-Pad3)*
X87241380Y-2584460D03*
G04 #@! TO.P,H8,2*
G04 #@! TO.N,Net-(H8-Pad2)*
X94741380Y2415540D03*
G04 #@! TO.P,H8,1*
G04 #@! TO.N,Net-(H8-Pad1)*
X87241380Y2415540D03*
G04 #@! TD*
D15*
G04 #@! TO.P,H1,1*
G04 #@! TO.N,Net-(H1-Pad1)*
X0Y0D03*
G04 #@! TD*
D14*
G04 #@! TO.P,DS2,1*
G04 #@! TO.N,GNDD*
X164404040Y4500880D03*
G04 #@! TO.P,DS2,2*
G04 #@! TO.N,+3V3*
X166944040Y4500880D03*
G04 #@! TO.P,DS2,3*
G04 #@! TO.N,Net-(C17-Pad1)*
X169484040Y4500880D03*
G04 #@! TO.P,DS2,4*
G04 #@! TO.N,LCD_RS*
X172024040Y4500880D03*
G04 #@! TO.P,DS2,5*
G04 #@! TO.N,LCD_RW*
X174564040Y4500880D03*
G04 #@! TO.P,DS2,6*
G04 #@! TO.N,LCD2_EN*
X177104040Y4500880D03*
G04 #@! TO.P,DS2,7*
G04 #@! TO.N,GNDD*
X179644040Y4500880D03*
G04 #@! TO.P,DS2,8*
X182184040Y4500880D03*
G04 #@! TO.P,DS2,9*
X184724040Y4500880D03*
G04 #@! TO.P,DS2,10*
X187264040Y4500880D03*
G04 #@! TO.P,DS2,11*
G04 #@! TO.N,LCD_D4*
X189804040Y4500880D03*
G04 #@! TO.P,DS2,12*
G04 #@! TO.N,LCD_D5*
X192344040Y4500880D03*
G04 #@! TO.P,DS2,13*
G04 #@! TO.N,LCD_D6*
X194884040Y4500880D03*
G04 #@! TO.P,DS2,14*
G04 #@! TO.N,LCD_D7*
X197424040Y4500880D03*
G04 #@! TO.P,DS2,15*
G04 #@! TO.N,+3V3*
X199964040Y4500880D03*
G04 #@! TO.P,DS2,16*
G04 #@! TO.N,Net-(DS2-Pad16)*
X202504040Y4500880D03*
D15*
G04 #@! TO.P,DS2,0*
G04 #@! TO.N,N/C*
X158904940Y4500880D03*
X158904940Y-26499820D03*
X233903520Y-26499820D03*
X233903520Y4500880D03*
G04 #@! TD*
D19*
G04 #@! TO.P,P7,*
G04 #@! TO.N,*
X122392440Y2425700D03*
X117993160Y2425700D03*
G04 #@! TD*
D20*
G04 #@! TO.P,J1,Hole*
G04 #@! TO.N,N/C*
X99687380Y1462360D03*
D21*
X111556800Y1462360D03*
D22*
G04 #@! TO.P,J1,1*
G04 #@! TO.N,RJ45_RX+*
X110070900Y-4887640D03*
D23*
G04 #@! TO.P,J1,2*
G04 #@! TO.N,RJ45_RX-*
X108800900Y-7427640D03*
G04 #@! TO.P,J1,3*
G04 #@! TO.N,RJ45_TX+*
X107530900Y-4887640D03*
G04 #@! TO.P,J1,4*
G04 #@! TO.N,VIN*
X106260900Y-7427640D03*
G04 #@! TO.P,J1,5*
X104990900Y-4887640D03*
G04 #@! TO.P,J1,6*
G04 #@! TO.N,RJ45_TX-*
X103720900Y-7427640D03*
G04 #@! TO.P,J1,7*
G04 #@! TO.N,GNDD*
X102450900Y-4887640D03*
G04 #@! TO.P,J1,8*
X101180900Y-7427640D03*
G04 #@! TD*
D20*
G04 #@! TO.P,J2,Hole*
G04 #@! TO.N,N/C*
X128828800Y1406480D03*
D21*
X140698220Y1406480D03*
D22*
G04 #@! TO.P,J2,1*
G04 #@! TO.N,RJ45_RX+*
X139212320Y-4943520D03*
D23*
G04 #@! TO.P,J2,2*
G04 #@! TO.N,RJ45_RX-*
X137942320Y-7483520D03*
G04 #@! TO.P,J2,3*
G04 #@! TO.N,RJ45_TX+*
X136672320Y-4943520D03*
G04 #@! TO.P,J2,4*
G04 #@! TO.N,VIN*
X135402320Y-7483520D03*
G04 #@! TO.P,J2,5*
X134132320Y-4943520D03*
G04 #@! TO.P,J2,6*
G04 #@! TO.N,RJ45_TX-*
X132862320Y-7483520D03*
G04 #@! TO.P,J2,7*
G04 #@! TO.N,Net-(D2-Pad1)*
X131592320Y-4943520D03*
G04 #@! TO.P,J2,8*
G04 #@! TO.N,GNDD*
X130322320Y-7483520D03*
G04 #@! TD*
D13*
G04 #@! TO.P,P3,3*
G04 #@! TO.N,CHAIN_RX*
X144125840Y-32326920D03*
G04 #@! TO.P,P3,2*
G04 #@! TO.N,CHAIN_TX*
X141585840Y-32326920D03*
D12*
G04 #@! TO.P,P3,1*
G04 #@! TO.N,GNDD*
X139045840Y-32326920D03*
G04 #@! TD*
G04 #@! TO.P,P6,1*
G04 #@! TO.N,VIN*
X129098040Y-12428220D03*
D13*
G04 #@! TO.P,P6,2*
X126558040Y-12428220D03*
G04 #@! TO.P,P6,3*
G04 #@! TO.N,RJ45_RX+*
X124018040Y-12428220D03*
G04 #@! TO.P,P6,4*
G04 #@! TO.N,RJ45_RX-*
X121478040Y-12428220D03*
G04 #@! TO.P,P6,5*
G04 #@! TO.N,GNDD*
X118938040Y-12428220D03*
G04 #@! TO.P,P6,6*
G04 #@! TO.N,RJ45_TX-*
X116398040Y-12428220D03*
G04 #@! TO.P,P6,7*
G04 #@! TO.N,RJ45_TX+*
X113858040Y-12428220D03*
G04 #@! TO.P,P6,8*
G04 #@! TO.N,GNDD*
X111318040Y-12428220D03*
G04 #@! TO.P,P6,9*
G04 #@! TO.N,USB_PLUG_VCC*
X108778040Y-12428220D03*
G04 #@! TO.P,P6,10*
G04 #@! TO.N,Net-(P6-Pad10)*
X106238040Y-12428220D03*
G04 #@! TO.P,P6,11*
G04 #@! TO.N,Net-(P6-Pad11)*
X103698040Y-12428220D03*
G04 #@! TO.P,P6,12*
G04 #@! TO.N,GNDD*
X101158040Y-12428220D03*
G04 #@! TD*
D24*
G04 #@! TO.N,GNDD*
X109285840Y-18386920D03*
X109285840Y-23436920D03*
X110475840Y-31616920D03*
X115915840Y-30426920D03*
X119608600Y-5948680D03*
X111699040Y-5948680D03*
X123931680Y-5953760D03*
X117871240Y-5948680D03*
D25*
G04 #@! TO.N,+3V3*
X157705840Y-45186920D03*
X129915840Y-45176920D03*
D24*
X118465840Y-24176920D03*
X106631740Y-24175720D03*
D25*
X47564040Y-6586220D03*
X14544040Y-6586220D03*
X4003040Y-6586220D03*
X199964040Y-17876520D03*
D24*
X156326840Y-17876520D03*
D25*
X166944040Y-17876520D03*
D24*
G04 #@! TO.N,RESET*
X106212640Y-32964120D03*
G04 #@! TO.N,LCD_RS*
X172024040Y-22308820D03*
X105044240Y-28379420D03*
X19624040Y-20289520D03*
G04 #@! TO.N,LCD_RW*
X174564040Y-21711920D03*
X104790240Y-27617420D03*
X22176740Y-19692620D03*
G04 #@! TO.N,LCD1_EN*
X24704040Y-20871180D03*
X109413040Y-28188920D03*
G04 #@! TO.N,LCD_D4*
X37404040Y-17927320D03*
X189804040Y-19959320D03*
X105107740Y-24772620D03*
G04 #@! TO.N,LCD_D5*
X39944040Y-19108420D03*
X192344040Y-21127720D03*
X105615740Y-27274520D03*
G04 #@! TO.N,LCD_D6*
X42534840Y-17330420D03*
X194884040Y-19375120D03*
X106111040Y-24759920D03*
G04 #@! TO.N,LCD_D7*
X45024040Y-18511520D03*
X197424040Y-20543520D03*
X106619040Y-27274520D03*
G04 #@! TO.N,LCD2_EN*
X177104040Y-22887940D03*
X110187740Y-28455620D03*
G04 #@! TO.N,CHAIN_TX*
X118455840Y-33196920D03*
X118455840Y-30466920D03*
G04 #@! TO.N,SWCLK*
X90335840Y-39616920D03*
X105582720Y-38989000D03*
G04 #@! TO.N,SWO*
X91602560Y-39029640D03*
X105410000Y-38227000D03*
G04 #@! TO.N,SWDIO*
X111855840Y-34016920D03*
X111855840Y-35426920D03*
G04 #@! TO.N,FS1*
X36075840Y-36416920D03*
X100637340Y-29827220D03*
X102339140Y-33370520D03*
G04 #@! TO.N,FS3*
X109959140Y-29662120D03*
G04 #@! TO.N,FS2*
X45035840Y-37006920D03*
X102948740Y-34107120D03*
G04 #@! TO.N,FS4*
X110581440Y-30538420D03*
G04 #@! TO.N,LCD1_BL*
X49155840Y-34986920D03*
X101716840Y-31846520D03*
G04 #@! TO.N,LCD2_BL*
X200355840Y-33976920D03*
X110632240Y-29065220D03*
G04 #@! TO.N,USB_VCC*
X98922840Y-26563320D03*
G04 #@! TO.N,RJ45_TX-*
X116398040Y-10901680D03*
X132862320Y-10901680D03*
X103718360Y-10901680D03*
G04 #@! TO.N,RJ45_RX-*
X121478040Y-9398000D03*
X137942320Y-9398000D03*
X108803440Y-9398000D03*
G04 #@! TO.N,RJ45_TX+*
X113858040Y-10149840D03*
X136672320Y-10149840D03*
X107533440Y-10149840D03*
G04 #@! TO.N,RJ45_RX+*
X124018040Y-8641080D03*
X139207240Y-8651240D03*
X140731240Y-8643620D03*
X110073440Y-8643620D03*
G04 #@! TO.N,USB_PLUG_VCC*
X111018320Y-8061960D03*
X121793000Y-8056880D03*
G04 #@! TO.N,USB_DP_CPU*
X94655640Y-33141920D03*
X100700840Y-33141920D03*
G04 #@! TO.N,LED_B1*
X104790240Y-36088320D03*
X-797560Y-35046920D03*
G04 #@! TO.N,LED_R1*
X105615740Y-33472120D03*
X-797560Y-36748720D03*
G04 #@! TO.N,LED_G1*
X105277920Y-37434520D03*
X-797560Y-38450520D03*
G04 #@! TO.N,LED_B2*
X75237340Y-35046920D03*
X101754940Y-29839920D03*
G04 #@! TO.N,LED_R2*
X102097840Y-29128720D03*
X75237340Y-35923220D03*
G04 #@! TO.N,LED_G2*
X105577640Y-32519620D03*
X74653140Y-36774120D03*
G04 #@! TO.N,LED_B3*
X151589740Y-35046920D03*
X110124240Y-33154620D03*
G04 #@! TO.N,LED_R3*
X109146340Y-33154620D03*
X151602440Y-36748720D03*
G04 #@! TO.N,LED_G3*
X150865840Y-36977320D03*
X108295440Y-33154620D03*
G04 #@! TO.N,LED_B4*
X109108240Y-35974020D03*
X227802440Y-35046920D03*
G04 #@! TO.N,LED_R4*
X109044740Y-36736020D03*
X227802440Y-36748720D03*
G04 #@! TO.N,LED_G4*
X108282740Y-36799520D03*
X227799900Y-38450520D03*
G04 #@! TO.N,Net-(P6-Pad10)*
X120218200Y-14046200D03*
X106238040Y-14046200D03*
G04 #@! TO.N,Net-(P6-Pad11)*
X103698040Y-14635480D03*
X117668040Y-14635480D03*
D26*
G04 #@! TO.N,VIN*
X129098040Y-3327400D03*
X104993440Y-3327400D03*
X134132320Y-3327400D03*
D24*
G04 #@! TO.N,ISP_TRIGGER*
X95227140Y-30017720D03*
X99672140Y-29776420D03*
X105666540Y-30259020D03*
G04 #@! TD*
D27*
G04 #@! TO.N,GNDD*
X109285840Y-23436920D02*
X109285840Y-18386920D01*
X114725840Y-31616920D02*
X110475840Y-31616920D01*
X115915840Y-30426920D02*
X114725840Y-31616920D01*
X111699040Y-5948680D02*
X117871240Y-5948680D01*
X123926600Y-5948680D02*
X123931680Y-5953760D01*
X117871240Y-5948680D02*
X119608600Y-5948680D01*
X119608600Y-5948680D02*
X123926600Y-5948680D01*
G04 #@! TO.N,+3V3*
X121365840Y-24176920D02*
X146385840Y-24176920D01*
X152686240Y-17876520D02*
X156326840Y-17876520D01*
X146385840Y-24176920D02*
X152686240Y-17876520D01*
D28*
X157705840Y-45186920D02*
X129925840Y-45186920D01*
X129925840Y-45186920D02*
X129915840Y-45176920D01*
D27*
X118465840Y-24176920D02*
X118465840Y-24175720D01*
X118465840Y-24175720D02*
X121364640Y-24175720D01*
X121364640Y-24175720D02*
X121365840Y-24176920D01*
X106631740Y-24175720D02*
X118465840Y-24175720D01*
D28*
X14544040Y-6586220D02*
X47564040Y-6586220D01*
X4003040Y-6586220D02*
X14544040Y-6586220D01*
X166944040Y-17876520D02*
X199964040Y-17876520D01*
X166944040Y-17876520D02*
X156326840Y-17876520D01*
D27*
G04 #@! TO.N,RESET*
X106212640Y-37881560D02*
X107535840Y-39204760D01*
X107535840Y-41576920D02*
X106298520Y-42814240D01*
X107535840Y-39204760D02*
X107535840Y-41576920D01*
X106298520Y-42814240D02*
X95580200Y-42814240D01*
X106212640Y-32964120D02*
X106212640Y-37881560D01*
X95580200Y-42814240D02*
X94142560Y-41376600D01*
G04 #@! TO.N,LCD_RS*
X105044240Y-28379420D02*
X105425240Y-28760420D01*
X152148540Y-22308820D02*
X172024040Y-22308820D01*
X147284440Y-27172920D02*
X152148540Y-22308820D01*
X108981240Y-27172920D02*
X147284440Y-27172920D01*
X107393740Y-28760420D02*
X108981240Y-27172920D01*
X105425240Y-28760420D02*
X107393740Y-28760420D01*
X105044240Y-28379420D02*
X104612440Y-28379420D01*
X81587340Y-20289520D02*
X19624040Y-20289520D01*
X86553040Y-25255220D02*
X81587340Y-20289520D01*
X102389940Y-25255220D02*
X86553040Y-25255220D01*
X104104440Y-26969720D02*
X102389940Y-25255220D01*
X104104440Y-27871420D02*
X104104440Y-26969720D01*
X104612440Y-28379420D02*
X104104440Y-27871420D01*
G04 #@! TO.N,LCD_RW*
X104790240Y-27617420D02*
X105133140Y-27617420D01*
X105844340Y-28328620D02*
X107215940Y-28328620D01*
X105133140Y-27617420D02*
X105844340Y-28328620D01*
X107215940Y-28328620D02*
X108778040Y-26766520D01*
X108778040Y-26766520D02*
X147093940Y-26766520D01*
X147093940Y-26766520D02*
X152148540Y-21711920D01*
X152148540Y-21711920D02*
X174564040Y-21711920D01*
X104790240Y-27617420D02*
X104790240Y-27045920D01*
X81587340Y-19692620D02*
X22176740Y-19692620D01*
X86718140Y-24823420D02*
X81587340Y-19692620D01*
X102567740Y-24823420D02*
X86718140Y-24823420D01*
X104790240Y-27045920D02*
X102567740Y-24823420D01*
G04 #@! TO.N,LCD1_EN*
X109413040Y-28188920D02*
X108417360Y-29184600D01*
X81574640Y-20871180D02*
X24704040Y-20871180D01*
X86380320Y-25676860D02*
X81574640Y-20871180D01*
X102217220Y-25676860D02*
X86380320Y-25676860D01*
X103677720Y-27137360D02*
X102217220Y-25676860D01*
X103677720Y-28039060D02*
X103677720Y-27137360D01*
X104823260Y-29184600D02*
X103677720Y-28039060D01*
X108417360Y-29184600D02*
X104823260Y-29184600D01*
G04 #@! TO.N,LCD_D4*
X105107740Y-24772620D02*
X105679240Y-25344120D01*
X105679240Y-25344120D02*
X146725640Y-25344120D01*
X152110440Y-19959320D02*
X189804040Y-19959320D01*
X146725640Y-25344120D02*
X152110440Y-19959320D01*
X105107740Y-24772620D02*
X103901240Y-23566120D01*
X81612740Y-17927320D02*
X37404040Y-17927320D01*
X87251540Y-23566120D02*
X81612740Y-17927320D01*
X103901240Y-23566120D02*
X87251540Y-23566120D01*
G04 #@! TO.N,LCD_D5*
X105615740Y-27274520D02*
X106250740Y-27909520D01*
X106250740Y-27909520D02*
X107050840Y-27909520D01*
X107050840Y-27909520D02*
X108625640Y-26334720D01*
X108625640Y-26334720D02*
X146928840Y-26334720D01*
X146928840Y-26334720D02*
X152135840Y-21127720D01*
X152135840Y-21127720D02*
X192344040Y-21127720D01*
X105615740Y-27274520D02*
X102745540Y-24404320D01*
X81600040Y-19108420D02*
X39944040Y-19108420D01*
X86895940Y-24404320D02*
X81600040Y-19108420D01*
X102745540Y-24404320D02*
X86895940Y-24404320D01*
G04 #@! TO.N,LCD_D6*
X106111040Y-24759920D02*
X146712940Y-24759920D01*
X152097740Y-19375120D02*
X194884040Y-19375120D01*
X146712940Y-24759920D02*
X152097740Y-19375120D01*
X106111040Y-24759920D02*
X104498140Y-23147020D01*
X81612740Y-17330420D02*
X42534840Y-17330420D01*
X87429340Y-23147020D02*
X81612740Y-17330420D01*
X104498140Y-23147020D02*
X87429340Y-23147020D01*
G04 #@! TO.N,LCD_D7*
X106619040Y-27274520D02*
X108028740Y-25864820D01*
X108028740Y-25864820D02*
X146801840Y-25864820D01*
X152123140Y-20543520D02*
X197424040Y-20543520D01*
X146801840Y-25864820D02*
X152123140Y-20543520D01*
X106619040Y-27274520D02*
X103329740Y-23985220D01*
X81612740Y-18511520D02*
X45024040Y-18511520D01*
X87086440Y-23985220D02*
X81612740Y-18511520D01*
X103329740Y-23985220D02*
X87086440Y-23985220D01*
G04 #@! TO.N,LCD2_EN*
X110187740Y-28455620D02*
X111046260Y-27597100D01*
X152171400Y-22887940D02*
X177104040Y-22887940D01*
X147462240Y-27597100D02*
X152171400Y-22887940D01*
X111046260Y-27597100D02*
X147462240Y-27597100D01*
G04 #@! TO.N,CHAIN_TX*
X118455840Y-30466920D02*
X118455840Y-33196920D01*
G04 #@! TO.N,SWCLK*
X90338920Y-39613840D02*
X92207080Y-39613840D01*
X90335840Y-39616920D02*
X90338920Y-39613840D01*
X92532200Y-39288720D02*
X92207080Y-39613840D01*
X105283000Y-39288720D02*
X92532200Y-39288720D01*
X105582720Y-38989000D02*
X105283000Y-39288720D01*
G04 #@! TO.N,SWO*
X105410000Y-38227000D02*
X104769920Y-38867080D01*
X92298520Y-38867080D02*
X92135960Y-39029640D01*
X104769920Y-38867080D02*
X92298520Y-38867080D01*
X92135960Y-39029640D02*
X91602560Y-39029640D01*
G04 #@! TO.N,SWDIO*
X111855840Y-35426920D02*
X111855840Y-34016920D01*
G04 #@! TO.N,FS1*
X71732140Y-36418520D02*
X36077440Y-36418520D01*
X36077440Y-36418520D02*
X36075840Y-36416920D01*
X74180700Y-33969960D02*
X71732140Y-36418520D01*
X102339140Y-33370520D02*
X102339140Y-31529020D01*
X102339140Y-31529020D02*
X100637340Y-29827220D01*
X77393800Y-35473640D02*
X101925120Y-35473640D01*
X102339140Y-35059620D02*
X102339140Y-33370520D01*
X101925120Y-35473640D02*
X102339140Y-35059620D01*
X75890120Y-33969960D02*
X74180700Y-33969960D01*
X77393800Y-35473640D02*
X75890120Y-33969960D01*
G04 #@! TO.N,FS3*
X109336840Y-39301420D02*
X186883040Y-39301420D01*
X186883040Y-39301420D02*
X188470540Y-40888920D01*
X109959140Y-29662120D02*
X107254040Y-32385000D01*
X107254040Y-32385000D02*
X107254040Y-37218620D01*
X107254040Y-37218620D02*
X109336840Y-39301420D01*
G04 #@! TO.N,FS2*
X71744840Y-37002720D02*
X45040040Y-37002720D01*
X45040040Y-37002720D02*
X45035840Y-37006920D01*
X102948740Y-35313620D02*
X102362000Y-35900360D01*
X102362000Y-35900360D02*
X77221080Y-35900360D01*
X77221080Y-35900360D02*
X75752960Y-34432240D01*
X75752960Y-34432240D02*
X74315320Y-34432240D01*
X74315320Y-34432240D02*
X71744840Y-37002720D01*
X102948740Y-34107120D02*
X102948740Y-35313620D01*
G04 #@! TO.N,FS4*
X195409820Y-38869620D02*
X197441820Y-40901620D01*
X109527340Y-38869620D02*
X107673140Y-37015420D01*
X195409820Y-38869620D02*
X109527340Y-38869620D01*
X109717840Y-30538420D02*
X107673140Y-32583120D01*
X107673140Y-32583120D02*
X107673140Y-37015420D01*
X110581440Y-30538420D02*
X109717840Y-30538420D01*
G04 #@! TO.N,LCD1_BL*
X101716840Y-31846520D02*
X94786240Y-31846520D01*
X49955840Y-35786920D02*
X49155840Y-34986920D01*
X71415840Y-35786920D02*
X49955840Y-35786920D01*
X73715840Y-33486920D02*
X71415840Y-35786920D01*
X93145840Y-33486920D02*
X73715840Y-33486920D01*
X94786240Y-31846520D02*
X93145840Y-33486920D01*
G04 #@! TO.N,LCD2_BL*
X111520540Y-28176920D02*
X147715840Y-28176920D01*
X189855840Y-23476920D02*
X200355840Y-33976920D01*
X152415840Y-23476920D02*
X189855840Y-23476920D01*
X147715840Y-28176920D02*
X152415840Y-23476920D01*
X110632240Y-29065220D02*
X111520540Y-28176920D01*
G04 #@! TO.N,USB_VCC*
X103266240Y-28209240D02*
X103266240Y-27312620D01*
X108790740Y-39347140D02*
X106829860Y-37386260D01*
X106829860Y-37386260D02*
X106829860Y-30309820D01*
X106829860Y-30309820D02*
X106118660Y-29598620D01*
X106118660Y-29598620D02*
X104655620Y-29598620D01*
X104655620Y-29598620D02*
X103266240Y-28209240D01*
X108790740Y-40901620D02*
X108790740Y-39347140D01*
X103266240Y-27312620D02*
X102516940Y-26563320D01*
X102516940Y-26563320D02*
X98922840Y-26563320D01*
G04 #@! TO.N,RJ45_TX-*
X103718360Y-10901680D02*
X116398040Y-10901680D01*
X116398040Y-10901680D02*
X132862320Y-10901680D01*
G04 #@! TO.N,RJ45_RX-*
X108803440Y-9398000D02*
X121478040Y-9398000D01*
X121478040Y-9398000D02*
X137942320Y-9398000D01*
G04 #@! TO.N,RJ45_TX+*
X107533440Y-10149840D02*
X113858040Y-10149840D01*
X113858040Y-10149840D02*
X136672320Y-10149840D01*
G04 #@! TO.N,RJ45_RX+*
X124018040Y-8641080D02*
X124018040Y-8643620D01*
X139207240Y-8651240D02*
X139207240Y-8643620D01*
X110073440Y-8643620D02*
X124018040Y-8643620D01*
X124018040Y-8643620D02*
X139207240Y-8643620D01*
X139207240Y-8643620D02*
X140731240Y-8643620D01*
G04 #@! TO.N,USB_PLUG_VCC*
X121793000Y-8056880D02*
X111023400Y-8056880D01*
X111023400Y-8056880D02*
X111018320Y-8061960D01*
G04 #@! TO.N,USB_DP_CPU*
X100700840Y-33141920D02*
X94655640Y-33141920D01*
G04 #@! TO.N,LED_B1*
X-797560Y-35046920D02*
X-797560Y-35872420D01*
X103291640Y-37586920D02*
X104790240Y-36088320D01*
X916940Y-37586920D02*
X103291640Y-37586920D01*
X-797560Y-35872420D02*
X916940Y-37586920D01*
G04 #@! TO.N,LED_R1*
X105615740Y-33472120D02*
X105615740Y-36202620D01*
X105615740Y-36202620D02*
X103799640Y-38018720D01*
X472440Y-38018720D02*
X-797560Y-36748720D01*
X103799640Y-38018720D02*
X472440Y-38018720D01*
G04 #@! TO.N,LED_G1*
X-797560Y-38450520D02*
X104261920Y-38450520D01*
X104261920Y-38450520D02*
X105277920Y-37434520D01*
G04 #@! TO.N,LED_B2*
X101754940Y-29839920D02*
X103748840Y-31833820D01*
X103748840Y-31833820D02*
X103748840Y-35123120D01*
X103748840Y-35123120D02*
X102542340Y-36329620D01*
X102542340Y-36329620D02*
X76520040Y-36329620D01*
X76520040Y-36329620D02*
X75237340Y-35046920D01*
G04 #@! TO.N,LED_R2*
X104193340Y-31224220D02*
X104193340Y-35275520D01*
X102097840Y-29128720D02*
X104193340Y-31224220D01*
X104193340Y-35275520D02*
X102720140Y-36748720D01*
X102720140Y-36748720D02*
X76062840Y-36748720D01*
X76062840Y-36748720D02*
X75237340Y-35923220D01*
G04 #@! TO.N,LED_G2*
X104802940Y-35237420D02*
X104802940Y-33294320D01*
X104802940Y-33294320D02*
X105577640Y-32519620D01*
X104802940Y-35237420D02*
X102872540Y-37167820D01*
X75046840Y-37167820D02*
X102872540Y-37167820D01*
X74653140Y-36774120D02*
X75046840Y-37167820D01*
G04 #@! TO.N,LED_B3*
X110124240Y-33154620D02*
X110124240Y-34742120D01*
X111521240Y-36139120D02*
X149837140Y-36139120D01*
X110124240Y-34742120D02*
X111521240Y-36139120D01*
X150738840Y-35897820D02*
X151589740Y-35046920D01*
X150078440Y-35897820D02*
X150738840Y-35897820D01*
X149837140Y-36139120D02*
X150078440Y-35897820D01*
G04 #@! TO.N,LED_R3*
X109146340Y-33154620D02*
X109146340Y-34373820D01*
X150053040Y-36558220D02*
X150268940Y-36342320D01*
X151196040Y-36342320D02*
X151602440Y-36748720D01*
X150268940Y-36342320D02*
X151196040Y-36342320D01*
X109146340Y-34373820D02*
X111330740Y-36558220D01*
X111330740Y-36558220D02*
X150053040Y-36558220D01*
G04 #@! TO.N,LED_G3*
X108295440Y-33154620D02*
X108295440Y-34107120D01*
X111165640Y-36977320D02*
X150865840Y-36977320D01*
X108295440Y-34107120D02*
X111165640Y-36977320D01*
G04 #@! TO.N,LED_B4*
X227802440Y-35046920D02*
X225287840Y-37561520D01*
X225287840Y-37561520D02*
X110695740Y-37561520D01*
X110695740Y-37561520D02*
X109108240Y-35974020D01*
G04 #@! TO.N,LED_R4*
X227802440Y-36748720D02*
X226570540Y-37980620D01*
X226570540Y-37980620D02*
X110289340Y-37980620D01*
X109044740Y-36736020D02*
X110289340Y-37980620D01*
G04 #@! TO.N,LED_G4*
X227799900Y-38450520D02*
X109933740Y-38450520D01*
X109933740Y-38450520D02*
X108282740Y-36799520D01*
G04 #@! TO.N,Net-(P6-Pad10)*
X106238040Y-14046200D02*
X120218200Y-14046200D01*
G04 #@! TO.N,Net-(P6-Pad11)*
X117668040Y-14635480D02*
X103698040Y-14635480D01*
D29*
G04 #@! TO.N,VIN*
X126558040Y-12428220D02*
X129098040Y-12428220D01*
X134132320Y-3327400D02*
X129098040Y-3327400D01*
X129098040Y-3327400D02*
X104993440Y-3327400D01*
D27*
G04 #@! TO.N,ISP_TRIGGER*
X99672140Y-29776420D02*
X98516440Y-29776420D01*
X98275140Y-30017720D02*
X95227140Y-30017720D01*
X98516440Y-29776420D02*
X98275140Y-30017720D01*
X105666540Y-30259020D02*
X104637840Y-30259020D01*
X100929440Y-28519120D02*
X99672140Y-29776420D01*
X102897940Y-28519120D02*
X100929440Y-28519120D01*
X104637840Y-30259020D02*
X102897940Y-28519120D01*
G04 #@! TD*
G04 #@! TO.N,GNDD*
G36*
X4525423Y5823551D02*
X4169940Y4965340D01*
X4169940Y4036420D01*
X4525423Y3178209D01*
X5182269Y2521363D01*
X6040480Y2165880D01*
X6969400Y2165880D01*
X7827611Y2521363D01*
X8484457Y3178209D01*
X8839940Y4036420D01*
X8839940Y4373880D01*
X10469040Y4373880D01*
X10469040Y3973880D01*
X10634486Y3396128D01*
X11008434Y2925668D01*
X11533954Y2634124D01*
X11639300Y2609844D01*
X11877040Y2730502D01*
X11877040Y4373880D01*
X10469040Y4373880D01*
X8839940Y4373880D01*
X8839940Y4965340D01*
X8484457Y5823551D01*
X7992445Y6315563D01*
X11440090Y6315563D01*
X11008434Y6076092D01*
X10634486Y5605632D01*
X10469040Y5027880D01*
X10469040Y4627880D01*
X11877040Y4627880D01*
X11877040Y4647880D01*
X12131040Y4647880D01*
X12131040Y4627880D01*
X12151040Y4627880D01*
X12151040Y4373880D01*
X12131040Y4373880D01*
X12131040Y2730502D01*
X12368780Y2609844D01*
X12474126Y2634124D01*
X12999646Y2925668D01*
X13262338Y3256158D01*
X13437368Y2994207D01*
X13945114Y2654942D01*
X14544040Y2535808D01*
X15142967Y2654942D01*
X15650713Y2994207D01*
X15814040Y3238644D01*
X15977368Y2994207D01*
X16485114Y2654942D01*
X17084040Y2535808D01*
X17682967Y2654942D01*
X18190713Y2994207D01*
X18354040Y3238644D01*
X18517368Y2994207D01*
X19025114Y2654942D01*
X19624040Y2535808D01*
X20222967Y2654942D01*
X20730713Y2994207D01*
X20894040Y3238644D01*
X21057368Y2994207D01*
X21565114Y2654942D01*
X22164040Y2535808D01*
X22762967Y2654942D01*
X23270713Y2994207D01*
X23434040Y3238644D01*
X23597368Y2994207D01*
X24105114Y2654942D01*
X24704040Y2535808D01*
X25302967Y2654942D01*
X25810713Y2994207D01*
X25985743Y3256157D01*
X26248434Y2925668D01*
X26773954Y2634124D01*
X26879300Y2609844D01*
X27117040Y2730502D01*
X27117040Y4373880D01*
X27371040Y4373880D01*
X27371040Y2730502D01*
X27608780Y2609844D01*
X27714126Y2634124D01*
X28239646Y2925668D01*
X28514040Y3270880D01*
X28788434Y2925668D01*
X29313954Y2634124D01*
X29419300Y2609844D01*
X29657040Y2730502D01*
X29657040Y4373880D01*
X29911040Y4373880D01*
X29911040Y2730502D01*
X30148780Y2609844D01*
X30254126Y2634124D01*
X30779646Y2925668D01*
X31054040Y3270880D01*
X31328434Y2925668D01*
X31853954Y2634124D01*
X31959300Y2609844D01*
X32197040Y2730502D01*
X32197040Y4373880D01*
X32451040Y4373880D01*
X32451040Y2730502D01*
X32688780Y2609844D01*
X32794126Y2634124D01*
X33319646Y2925668D01*
X33594040Y3270880D01*
X33868434Y2925668D01*
X34393954Y2634124D01*
X34499300Y2609844D01*
X34737040Y2730502D01*
X34737040Y4373880D01*
X32451040Y4373880D01*
X32197040Y4373880D01*
X29911040Y4373880D01*
X29657040Y4373880D01*
X27371040Y4373880D01*
X27117040Y4373880D01*
X27097040Y4373880D01*
X27097040Y4627880D01*
X27117040Y4627880D01*
X27117040Y4647880D01*
X27371040Y4647880D01*
X27371040Y4627880D01*
X29657040Y4627880D01*
X29657040Y4647880D01*
X29911040Y4647880D01*
X29911040Y4627880D01*
X32197040Y4627880D01*
X32197040Y4647880D01*
X32451040Y4647880D01*
X32451040Y4627880D01*
X34737040Y4627880D01*
X34737040Y4647880D01*
X34991040Y4647880D01*
X34991040Y4627880D01*
X35011040Y4627880D01*
X35011040Y4373880D01*
X34991040Y4373880D01*
X34991040Y2730502D01*
X35228780Y2609844D01*
X35334126Y2634124D01*
X35859646Y2925668D01*
X36122338Y3256158D01*
X36297368Y2994207D01*
X36805114Y2654942D01*
X37404040Y2535808D01*
X38002967Y2654942D01*
X38510713Y2994207D01*
X38674040Y3238644D01*
X38837368Y2994207D01*
X39345114Y2654942D01*
X39944040Y2535808D01*
X40542967Y2654942D01*
X41050713Y2994207D01*
X41214040Y3238644D01*
X41377368Y2994207D01*
X41885114Y2654942D01*
X42484040Y2535808D01*
X43082967Y2654942D01*
X43590713Y2994207D01*
X43754040Y3238644D01*
X43917368Y2994207D01*
X44425114Y2654942D01*
X45024040Y2535808D01*
X45622967Y2654942D01*
X46130713Y2994207D01*
X46294040Y3238644D01*
X46457368Y2994207D01*
X46965114Y2654942D01*
X47564040Y2535808D01*
X48162967Y2654942D01*
X48670713Y2994207D01*
X48834040Y3238644D01*
X48997368Y2994207D01*
X49505114Y2654942D01*
X50104040Y2535808D01*
X50702967Y2654942D01*
X51210713Y2994207D01*
X51549978Y3501953D01*
X51639040Y3949699D01*
X51639040Y5052062D01*
X51549978Y5499807D01*
X51210713Y6007553D01*
X50749743Y6315563D01*
X80016015Y6315563D01*
X79524003Y5823551D01*
X79168520Y4965340D01*
X79168520Y4036420D01*
X79524003Y3178209D01*
X80180849Y2521363D01*
X81039060Y2165880D01*
X81967980Y2165880D01*
X82826191Y2521363D01*
X83483037Y3178209D01*
X83555443Y3353011D01*
X83555442Y-2934818D01*
X83542023Y-3002280D01*
X83595187Y-3269553D01*
X83746585Y-3496137D01*
X83894235Y-3594793D01*
X83973169Y-3647535D01*
X84240442Y-3700699D01*
X84307903Y-3687280D01*
X85173072Y-3687280D01*
X85240534Y-3700699D01*
X85307995Y-3687280D01*
X85307996Y-3687280D01*
X85507807Y-3647535D01*
X85734391Y-3496137D01*
X85838734Y-3339976D01*
X85897682Y-3482290D01*
X86343550Y-3928158D01*
X86926104Y-4169460D01*
X87556656Y-4169460D01*
X88139210Y-3928158D01*
X88585078Y-3482290D01*
X88826380Y-2899736D01*
X88826380Y-2269184D01*
X93156380Y-2269184D01*
X93156380Y-2899736D01*
X93397682Y-3482290D01*
X93843550Y-3928158D01*
X94426104Y-4169460D01*
X95056656Y-4169460D01*
X95639210Y-3928158D01*
X95651658Y-3915710D01*
X101658575Y-3915710D01*
X102450900Y-4708035D01*
X103243225Y-3915710D01*
X103175165Y-3674709D01*
X102655866Y-3489873D01*
X102105362Y-3517835D01*
X101726635Y-3674709D01*
X101658575Y-3915710D01*
X95651658Y-3915710D01*
X96085078Y-3482290D01*
X96326380Y-2899736D01*
X96326380Y-2269184D01*
X96085078Y-1686630D01*
X95639210Y-1240762D01*
X95056656Y-999460D01*
X94426104Y-999460D01*
X93843550Y-1240762D01*
X93397682Y-1686630D01*
X93156380Y-2269184D01*
X88826380Y-2269184D01*
X88585078Y-1686630D01*
X88139210Y-1240762D01*
X87556656Y-999460D01*
X86926104Y-999460D01*
X86343550Y-1240762D01*
X85925534Y-1658778D01*
X85925534Y1489858D01*
X86343550Y1071842D01*
X86926104Y830540D01*
X87556656Y830540D01*
X88139210Y1071842D01*
X88585078Y1517710D01*
X88826380Y2100264D01*
X88826380Y2730816D01*
X93156380Y2730816D01*
X93156380Y2100264D01*
X93397682Y1517710D01*
X93843550Y1071842D01*
X94426104Y830540D01*
X95056656Y830540D01*
X95639210Y1071842D01*
X96085078Y1517710D01*
X96250417Y1916875D01*
X97402380Y1916875D01*
X97402380Y1007845D01*
X97750250Y168011D01*
X98393031Y-474770D01*
X99232865Y-822640D01*
X100141895Y-822640D01*
X100981729Y-474770D01*
X101624510Y168011D01*
X101972380Y1007845D01*
X101972380Y1906929D01*
X109321800Y1906929D01*
X109321800Y1017791D01*
X109662059Y196334D01*
X110290774Y-432381D01*
X111112231Y-772640D01*
X112001369Y-772640D01*
X112822826Y-432381D01*
X113451541Y196334D01*
X113791800Y1017791D01*
X113791800Y1906929D01*
X113487557Y2641436D01*
X116908580Y2641436D01*
X116908580Y2209964D01*
X117073698Y1811335D01*
X117378795Y1506238D01*
X117777424Y1341120D01*
X118208896Y1341120D01*
X118607525Y1506238D01*
X118912622Y1811335D01*
X119077740Y2209964D01*
X119077740Y2641436D01*
X121307860Y2641436D01*
X121307860Y2209964D01*
X121472978Y1811335D01*
X121778075Y1506238D01*
X122176704Y1341120D01*
X122608176Y1341120D01*
X123006805Y1506238D01*
X123311902Y1811335D01*
X123332471Y1860995D01*
X126543800Y1860995D01*
X126543800Y951965D01*
X126891670Y112131D01*
X127534451Y-530650D01*
X128374285Y-878520D01*
X129283315Y-878520D01*
X130123149Y-530650D01*
X130765930Y112131D01*
X131113800Y951965D01*
X131113800Y1851049D01*
X138463220Y1851049D01*
X138463220Y961911D01*
X138803479Y140454D01*
X139432194Y-488261D01*
X140253651Y-828520D01*
X141142789Y-828520D01*
X141964246Y-488261D01*
X142592961Y140454D01*
X142933220Y961911D01*
X142933220Y1851049D01*
X142592961Y2672506D01*
X142537191Y2728276D01*
X144076380Y2728276D01*
X144076380Y2097724D01*
X144317682Y1515170D01*
X144763550Y1069302D01*
X145346104Y828000D01*
X145976656Y828000D01*
X146559210Y1069302D01*
X147005078Y1515170D01*
X147246380Y2097724D01*
X147246380Y2728276D01*
X147005078Y3310830D01*
X146559210Y3756698D01*
X145976656Y3998000D01*
X145346104Y3998000D01*
X144763550Y3756698D01*
X144317682Y3310830D01*
X144076380Y2728276D01*
X142537191Y2728276D01*
X141964246Y3301221D01*
X141142789Y3641480D01*
X140253651Y3641480D01*
X139432194Y3301221D01*
X138803479Y2672506D01*
X138463220Y1851049D01*
X131113800Y1851049D01*
X131113800Y1860995D01*
X130765930Y2700829D01*
X130123149Y3343610D01*
X129283315Y3691480D01*
X128374285Y3691480D01*
X127534451Y3343610D01*
X126891670Y2700829D01*
X126543800Y1860995D01*
X123332471Y1860995D01*
X123477020Y2209964D01*
X123477020Y2641436D01*
X123311902Y3040065D01*
X123006805Y3345162D01*
X122608176Y3510280D01*
X122176704Y3510280D01*
X121778075Y3345162D01*
X121472978Y3040065D01*
X121307860Y2641436D01*
X119077740Y2641436D01*
X118912622Y3040065D01*
X118607525Y3345162D01*
X118208896Y3510280D01*
X117777424Y3510280D01*
X117378795Y3345162D01*
X117073698Y3040065D01*
X116908580Y2641436D01*
X113487557Y2641436D01*
X113451541Y2728386D01*
X112822826Y3357101D01*
X112001369Y3697360D01*
X111112231Y3697360D01*
X110290774Y3357101D01*
X109662059Y2728386D01*
X109321800Y1906929D01*
X101972380Y1906929D01*
X101972380Y1916875D01*
X101624510Y2756709D01*
X100981729Y3399490D01*
X100141895Y3747360D01*
X99232865Y3747360D01*
X98393031Y3399490D01*
X97750250Y2756709D01*
X97402380Y1916875D01*
X96250417Y1916875D01*
X96326380Y2100264D01*
X96326380Y2730816D01*
X96085078Y3313370D01*
X95639210Y3759238D01*
X95056656Y4000540D01*
X94426104Y4000540D01*
X93843550Y3759238D01*
X93397682Y3313370D01*
X93156380Y2730816D01*
X88826380Y2730816D01*
X88585078Y3313370D01*
X88139210Y3759238D01*
X87556656Y4000540D01*
X86926104Y4000540D01*
X86343550Y3759238D01*
X85925534Y3341222D01*
X85925534Y6312054D01*
X154475536Y6312054D01*
X154475536Y3342912D01*
X154059210Y3759238D01*
X153476656Y4000540D01*
X152846104Y4000540D01*
X152263550Y3759238D01*
X151817682Y3313370D01*
X151576380Y2730816D01*
X151576380Y2100264D01*
X151817682Y1517710D01*
X152263550Y1071842D01*
X152846104Y830540D01*
X153476656Y830540D01*
X154059210Y1071842D01*
X154475537Y1488169D01*
X154475537Y-1657089D01*
X154059210Y-1240762D01*
X153476656Y-999460D01*
X152846104Y-999460D01*
X152263550Y-1240762D01*
X151817682Y-1686630D01*
X151576380Y-2269184D01*
X151576380Y-2899736D01*
X151817682Y-3482290D01*
X152263550Y-3928158D01*
X152846104Y-4169460D01*
X153476656Y-4169460D01*
X154059210Y-3928158D01*
X154505078Y-3482290D01*
X154563380Y-3341538D01*
X154666679Y-3496137D01*
X154893263Y-3647535D01*
X155093074Y-3687280D01*
X155093075Y-3687280D01*
X155160536Y-3700699D01*
X155227998Y-3687280D01*
X156092981Y-3687280D01*
X156160442Y-3700699D01*
X156427715Y-3647535D01*
X156654299Y-3496137D01*
X156805697Y-3269553D01*
X156845442Y-3069742D01*
X156845442Y-3069741D01*
X156858861Y-3002280D01*
X156845442Y-2934818D01*
X156845442Y464460D01*
X238065840Y464460D01*
X238065840Y-464460D01*
X238421323Y-1322671D01*
X239078169Y-1979517D01*
X239936380Y-2335000D01*
X240865300Y-2335000D01*
X241723511Y-1979517D01*
X242380357Y-1322671D01*
X242735840Y-464460D01*
X242735840Y464460D01*
X242380357Y1322671D01*
X241723511Y1979517D01*
X240865300Y2335000D01*
X239936380Y2335000D01*
X239078169Y1979517D01*
X238421323Y1322671D01*
X238065840Y464460D01*
X156845442Y464460D01*
X156845442Y3371300D01*
X156925423Y3178209D01*
X157582269Y2521363D01*
X158440480Y2165880D01*
X159369400Y2165880D01*
X160227611Y2521363D01*
X160884457Y3178209D01*
X161239940Y4036420D01*
X161239940Y4373880D01*
X162869040Y4373880D01*
X162869040Y3973880D01*
X163034486Y3396128D01*
X163408434Y2925668D01*
X163933954Y2634124D01*
X164039300Y2609844D01*
X164277040Y2730502D01*
X164277040Y4373880D01*
X162869040Y4373880D01*
X161239940Y4373880D01*
X161239940Y4965340D01*
X160884457Y5823551D01*
X160392445Y6315563D01*
X163840090Y6315563D01*
X163408434Y6076092D01*
X163034486Y5605632D01*
X162869040Y5027880D01*
X162869040Y4627880D01*
X164277040Y4627880D01*
X164277040Y4647880D01*
X164531040Y4647880D01*
X164531040Y4627880D01*
X164551040Y4627880D01*
X164551040Y4373880D01*
X164531040Y4373880D01*
X164531040Y2730502D01*
X164768780Y2609844D01*
X164874126Y2634124D01*
X165399646Y2925668D01*
X165662338Y3256158D01*
X165837368Y2994207D01*
X166345114Y2654942D01*
X166944040Y2535808D01*
X167542967Y2654942D01*
X168050713Y2994207D01*
X168214040Y3238644D01*
X168377368Y2994207D01*
X168885114Y2654942D01*
X169484040Y2535808D01*
X170082967Y2654942D01*
X170590713Y2994207D01*
X170754040Y3238644D01*
X170917368Y2994207D01*
X171425114Y2654942D01*
X172024040Y2535808D01*
X172622967Y2654942D01*
X173130713Y2994207D01*
X173294040Y3238644D01*
X173457368Y2994207D01*
X173965114Y2654942D01*
X174564040Y2535808D01*
X175162967Y2654942D01*
X175670713Y2994207D01*
X175834040Y3238644D01*
X175997368Y2994207D01*
X176505114Y2654942D01*
X177104040Y2535808D01*
X177702967Y2654942D01*
X178210713Y2994207D01*
X178385743Y3256157D01*
X178648434Y2925668D01*
X179173954Y2634124D01*
X179279300Y2609844D01*
X179517040Y2730502D01*
X179517040Y4373880D01*
X179771040Y4373880D01*
X179771040Y2730502D01*
X180008780Y2609844D01*
X180114126Y2634124D01*
X180639646Y2925668D01*
X180914040Y3270880D01*
X181188434Y2925668D01*
X181713954Y2634124D01*
X181819300Y2609844D01*
X182057040Y2730502D01*
X182057040Y4373880D01*
X182311040Y4373880D01*
X182311040Y2730502D01*
X182548780Y2609844D01*
X182654126Y2634124D01*
X183179646Y2925668D01*
X183454040Y3270880D01*
X183728434Y2925668D01*
X184253954Y2634124D01*
X184359300Y2609844D01*
X184597040Y2730502D01*
X184597040Y4373880D01*
X184851040Y4373880D01*
X184851040Y2730502D01*
X185088780Y2609844D01*
X185194126Y2634124D01*
X185719646Y2925668D01*
X185994040Y3270880D01*
X186268434Y2925668D01*
X186793954Y2634124D01*
X186899300Y2609844D01*
X187137040Y2730502D01*
X187137040Y4373880D01*
X184851040Y4373880D01*
X184597040Y4373880D01*
X182311040Y4373880D01*
X182057040Y4373880D01*
X179771040Y4373880D01*
X179517040Y4373880D01*
X179497040Y4373880D01*
X179497040Y4627880D01*
X179517040Y4627880D01*
X179517040Y4647880D01*
X179771040Y4647880D01*
X179771040Y4627880D01*
X182057040Y4627880D01*
X182057040Y4647880D01*
X182311040Y4647880D01*
X182311040Y4627880D01*
X184597040Y4627880D01*
X184597040Y4647880D01*
X184851040Y4647880D01*
X184851040Y4627880D01*
X187137040Y4627880D01*
X187137040Y4647880D01*
X187391040Y4647880D01*
X187391040Y4627880D01*
X187411040Y4627880D01*
X187411040Y4373880D01*
X187391040Y4373880D01*
X187391040Y2730502D01*
X187628780Y2609844D01*
X187734126Y2634124D01*
X188259646Y2925668D01*
X188522338Y3256158D01*
X188697368Y2994207D01*
X189205114Y2654942D01*
X189804040Y2535808D01*
X190402967Y2654942D01*
X190910713Y2994207D01*
X191074040Y3238644D01*
X191237368Y2994207D01*
X191745114Y2654942D01*
X192344040Y2535808D01*
X192942967Y2654942D01*
X193450713Y2994207D01*
X193614040Y3238644D01*
X193777368Y2994207D01*
X194285114Y2654942D01*
X194884040Y2535808D01*
X195482967Y2654942D01*
X195990713Y2994207D01*
X196154040Y3238644D01*
X196317368Y2994207D01*
X196825114Y2654942D01*
X197424040Y2535808D01*
X198022967Y2654942D01*
X198530713Y2994207D01*
X198694040Y3238644D01*
X198857368Y2994207D01*
X199365114Y2654942D01*
X199964040Y2535808D01*
X200562967Y2654942D01*
X201070713Y2994207D01*
X201234040Y3238644D01*
X201397368Y2994207D01*
X201905114Y2654942D01*
X202504040Y2535808D01*
X203102967Y2654942D01*
X203610713Y2994207D01*
X203949978Y3501953D01*
X204039040Y3949699D01*
X204039040Y5052062D01*
X203949978Y5499807D01*
X203610713Y6007553D01*
X203149743Y6315563D01*
X232416015Y6315563D01*
X231924003Y5823551D01*
X231568520Y4965340D01*
X231568520Y4036420D01*
X231924003Y3178209D01*
X232580849Y2521363D01*
X233439060Y2165880D01*
X234367980Y2165880D01*
X235226191Y2521363D01*
X235883037Y3178209D01*
X236238520Y4036420D01*
X236238520Y4965340D01*
X235883037Y5823551D01*
X235391025Y6315563D01*
X244215445Y6315563D01*
X244215444Y-50810040D01*
X-3814561Y-50810040D01*
X-3814561Y-47031000D01*
X-2332460Y-47031000D01*
X-2332460Y-47959920D01*
X-1976977Y-48818131D01*
X-1320131Y-49474977D01*
X-461920Y-49830460D01*
X467000Y-49830460D01*
X1325211Y-49474977D01*
X1982057Y-48818131D01*
X2337540Y-47959920D01*
X2337540Y-47031000D01*
X238065840Y-47031000D01*
X238065840Y-47959920D01*
X238421323Y-48818131D01*
X239078169Y-49474977D01*
X239936380Y-49830460D01*
X240865300Y-49830460D01*
X241723511Y-49474977D01*
X242380357Y-48818131D01*
X242735840Y-47959920D01*
X242735840Y-47031000D01*
X242380357Y-46172789D01*
X241723511Y-45515943D01*
X240865300Y-45160460D01*
X239936380Y-45160460D01*
X239078169Y-45515943D01*
X238421323Y-46172789D01*
X238065840Y-47031000D01*
X2337540Y-47031000D01*
X1982057Y-46172789D01*
X1325211Y-45515943D01*
X467000Y-45160460D01*
X-461920Y-45160460D01*
X-1320131Y-45515943D01*
X-1976977Y-46172789D01*
X-2332460Y-47031000D01*
X-3814561Y-47031000D01*
X-3814561Y-44976019D01*
X128905840Y-44976019D01*
X128905840Y-45377821D01*
X129059603Y-45749039D01*
X129343721Y-46033157D01*
X129714939Y-46186920D01*
X130116741Y-46186920D01*
X130487959Y-46033157D01*
X130508696Y-46012420D01*
X157102984Y-46012420D01*
X157133721Y-46043157D01*
X157504939Y-46196920D01*
X157906741Y-46196920D01*
X158277959Y-46043157D01*
X158562077Y-45759039D01*
X158715840Y-45387821D01*
X158715840Y-44986019D01*
X158562077Y-44614801D01*
X158277959Y-44330683D01*
X157906741Y-44176920D01*
X157504939Y-44176920D01*
X157133721Y-44330683D01*
X157102984Y-44361420D01*
X130528696Y-44361420D01*
X130487959Y-44320683D01*
X130116741Y-44166920D01*
X129714939Y-44166920D01*
X129343721Y-44320683D01*
X129059603Y-44604801D01*
X128905840Y-44976019D01*
X-3814561Y-44976019D01*
X-3814561Y-39885620D01*
X34412180Y-39885620D01*
X34412180Y-41917620D01*
X34461463Y-42165385D01*
X34601811Y-42375429D01*
X34811855Y-42515777D01*
X35059620Y-42565060D01*
X37091620Y-42565060D01*
X37339385Y-42515777D01*
X37549429Y-42375429D01*
X37654282Y-42218507D01*
X37750802Y-42308005D01*
X38232676Y-42507595D01*
X38488620Y-42388456D01*
X38488620Y-41028620D01*
X38742620Y-41028620D01*
X38742620Y-42388456D01*
X38998564Y-42507595D01*
X39480438Y-42308005D01*
X39952808Y-41869999D01*
X40221603Y-41284566D01*
X40102987Y-41028620D01*
X38742620Y-41028620D01*
X38488620Y-41028620D01*
X38468620Y-41028620D01*
X38468620Y-40774620D01*
X38488620Y-40774620D01*
X38488620Y-39414784D01*
X38742620Y-39414784D01*
X38742620Y-40774620D01*
X40102987Y-40774620D01*
X40221603Y-40518674D01*
X39952808Y-39933241D01*
X39901451Y-39885620D01*
X43373300Y-39885620D01*
X43373300Y-41917620D01*
X43422583Y-42165385D01*
X43562931Y-42375429D01*
X43772975Y-42515777D01*
X44020740Y-42565060D01*
X46052740Y-42565060D01*
X46300505Y-42515777D01*
X46510549Y-42375429D01*
X46615402Y-42218507D01*
X46711922Y-42308005D01*
X47193796Y-42507595D01*
X47449740Y-42388456D01*
X47449740Y-41028620D01*
X47703740Y-41028620D01*
X47703740Y-42388456D01*
X47959684Y-42507595D01*
X48441558Y-42308005D01*
X48913928Y-41869999D01*
X49182723Y-41284566D01*
X49064107Y-41028620D01*
X47703740Y-41028620D01*
X47449740Y-41028620D01*
X47429740Y-41028620D01*
X47429740Y-40774620D01*
X47449740Y-40774620D01*
X47449740Y-39414784D01*
X47703740Y-39414784D01*
X47703740Y-40774620D01*
X49064107Y-40774620D01*
X49182723Y-40518674D01*
X48913928Y-39933241D01*
X48441558Y-39495235D01*
X47959684Y-39295645D01*
X47703740Y-39414784D01*
X47449740Y-39414784D01*
X47193796Y-39295645D01*
X46711922Y-39495235D01*
X46615402Y-39584733D01*
X46510549Y-39427811D01*
X46300505Y-39287463D01*
X46052740Y-39238180D01*
X44020740Y-39238180D01*
X43772975Y-39287463D01*
X43562931Y-39427811D01*
X43422583Y-39637855D01*
X43373300Y-39885620D01*
X39901451Y-39885620D01*
X39480438Y-39495235D01*
X38998564Y-39295645D01*
X38742620Y-39414784D01*
X38488620Y-39414784D01*
X38232676Y-39295645D01*
X37750802Y-39495235D01*
X37654282Y-39584733D01*
X37549429Y-39427811D01*
X37339385Y-39287463D01*
X37091620Y-39238180D01*
X35059620Y-39238180D01*
X34811855Y-39287463D01*
X34601811Y-39427811D01*
X34461463Y-39637855D01*
X34412180Y-39885620D01*
X-3814561Y-39885620D01*
X-3814561Y-34860937D01*
X-1732560Y-34860937D01*
X-1732560Y-35232903D01*
X-1590215Y-35576555D01*
X-1559560Y-35607210D01*
X-1559560Y-35797377D01*
X-1574487Y-35872420D01*
X-1559560Y-35947463D01*
X-1559560Y-35947468D01*
X-1532852Y-36081733D01*
X-1519581Y-36148451D01*
X-1590215Y-36219085D01*
X-1732560Y-36562737D01*
X-1732560Y-36934703D01*
X-1590215Y-37278355D01*
X-1327195Y-37541375D01*
X-1186579Y-37599620D01*
X-1327195Y-37657865D01*
X-1590215Y-37920885D01*
X-1732560Y-38264537D01*
X-1732560Y-38636503D01*
X-1590215Y-38980155D01*
X-1327195Y-39243175D01*
X-983543Y-39385520D01*
X-611577Y-39385520D01*
X-267925Y-39243175D01*
X-237270Y-39212520D01*
X89491311Y-39212520D01*
X89400840Y-39430937D01*
X89400840Y-39802903D01*
X89543185Y-40146555D01*
X89756335Y-40359705D01*
X89697560Y-40384050D01*
X89293298Y-40216600D01*
X88831822Y-40216600D01*
X88405473Y-40393199D01*
X88079159Y-40719513D01*
X87902560Y-41145862D01*
X87902560Y-41607338D01*
X87984803Y-41805890D01*
X87939403Y-41873835D01*
X87890120Y-42121600D01*
X87890120Y-43171600D01*
X87939403Y-43419365D01*
X88079751Y-43629409D01*
X88289795Y-43769757D01*
X88537560Y-43819040D01*
X89587560Y-43819040D01*
X89835325Y-43769757D01*
X89901562Y-43725499D01*
X90181545Y-43819646D01*
X90641946Y-43788143D01*
X90920985Y-43672562D01*
X90958354Y-43470414D01*
X90967560Y-43461208D01*
X90976766Y-43470414D01*
X91014135Y-43672562D01*
X91451545Y-43819646D01*
X91911946Y-43788143D01*
X92190985Y-43672562D01*
X92201446Y-43615974D01*
X92215473Y-43630001D01*
X92641822Y-43806600D01*
X93103298Y-43806600D01*
X93529647Y-43630001D01*
X93543674Y-43615974D01*
X93554135Y-43672562D01*
X93991545Y-43819646D01*
X94451946Y-43788143D01*
X94730985Y-43672562D01*
X94771227Y-43454873D01*
X94142560Y-42826205D01*
X94128418Y-42840348D01*
X94032560Y-42744490D01*
X94032560Y-42548710D01*
X94044670Y-42536600D01*
X94224930Y-42536600D01*
X94328547Y-42640218D01*
X94322165Y-42646600D01*
X94950833Y-43275267D01*
X94961605Y-43273276D01*
X94988318Y-43299989D01*
X95030829Y-43363611D01*
X95282883Y-43532028D01*
X95505152Y-43576240D01*
X95505157Y-43576240D01*
X95580200Y-43591167D01*
X95655243Y-43576240D01*
X106223477Y-43576240D01*
X106298520Y-43591167D01*
X106373563Y-43576240D01*
X106373568Y-43576240D01*
X106595837Y-43532028D01*
X106847891Y-43363611D01*
X106890403Y-43299987D01*
X107917500Y-42272890D01*
X108206015Y-42465670D01*
X108790740Y-42581979D01*
X109375464Y-42465670D01*
X109871170Y-42134450D01*
X110064650Y-41844888D01*
X110428704Y-42252352D01*
X110955949Y-42506329D01*
X110971714Y-42508978D01*
X111203740Y-42387837D01*
X111203740Y-41028620D01*
X111183740Y-41028620D01*
X111183740Y-40774620D01*
X111203740Y-40774620D01*
X111203740Y-40754620D01*
X111457740Y-40754620D01*
X111457740Y-40774620D01*
X111477740Y-40774620D01*
X111477740Y-41028620D01*
X111457740Y-41028620D01*
X111457740Y-42387837D01*
X111689766Y-42508978D01*
X111705531Y-42506329D01*
X112232776Y-42252352D01*
X112596831Y-41844887D01*
X112790310Y-42134450D01*
X113286015Y-42465670D01*
X113870740Y-42581979D01*
X114455464Y-42465670D01*
X114951170Y-42134450D01*
X115140740Y-41850739D01*
X115330310Y-42134450D01*
X115826015Y-42465670D01*
X116410740Y-42581979D01*
X116995464Y-42465670D01*
X117491170Y-42134450D01*
X117684650Y-41844888D01*
X118048704Y-42252352D01*
X118575949Y-42506329D01*
X118591714Y-42508978D01*
X118823740Y-42387837D01*
X118823740Y-41028620D01*
X118803740Y-41028620D01*
X118803740Y-40774620D01*
X118823740Y-40774620D01*
X118823740Y-40754620D01*
X119077740Y-40754620D01*
X119077740Y-40774620D01*
X119097740Y-40774620D01*
X119097740Y-41028620D01*
X119077740Y-41028620D01*
X119077740Y-42387837D01*
X119309766Y-42508978D01*
X119325531Y-42506329D01*
X119852776Y-42252352D01*
X120216831Y-41844887D01*
X120410310Y-42134450D01*
X120906015Y-42465670D01*
X121490740Y-42581979D01*
X122075464Y-42465670D01*
X122571170Y-42134450D01*
X122760740Y-41850739D01*
X122950310Y-42134450D01*
X123446015Y-42465670D01*
X124030740Y-42581979D01*
X124615464Y-42465670D01*
X125111170Y-42134450D01*
X125300740Y-41850739D01*
X125490310Y-42134450D01*
X125986015Y-42465670D01*
X126570740Y-42581979D01*
X127155464Y-42465670D01*
X127643808Y-42139369D01*
X127648983Y-42165385D01*
X127789331Y-42375429D01*
X127999375Y-42515777D01*
X128247140Y-42565060D01*
X129974340Y-42565060D01*
X130222105Y-42515777D01*
X130432149Y-42375429D01*
X130572497Y-42165385D01*
X130621780Y-41917620D01*
X130621780Y-40063420D01*
X186567410Y-40063420D01*
X186807100Y-40303110D01*
X186807100Y-41904920D01*
X186856383Y-42152685D01*
X186996731Y-42362729D01*
X187206775Y-42503077D01*
X187454540Y-42552360D01*
X189486540Y-42552360D01*
X189734305Y-42503077D01*
X189944349Y-42362729D01*
X190043962Y-42213648D01*
X190145722Y-42308005D01*
X190627596Y-42507595D01*
X190883540Y-42388456D01*
X190883540Y-41028620D01*
X191137540Y-41028620D01*
X191137540Y-42388456D01*
X191393484Y-42507595D01*
X191875358Y-42308005D01*
X192347728Y-41869999D01*
X192616523Y-41284566D01*
X192497907Y-41028620D01*
X191137540Y-41028620D01*
X190883540Y-41028620D01*
X190863540Y-41028620D01*
X190863540Y-40774620D01*
X190883540Y-40774620D01*
X190883540Y-40754620D01*
X191137540Y-40754620D01*
X191137540Y-40774620D01*
X192497907Y-40774620D01*
X192616523Y-40518674D01*
X192347728Y-39933241D01*
X192022443Y-39631620D01*
X195094190Y-39631620D01*
X195778380Y-40315810D01*
X195778380Y-41917620D01*
X195827663Y-42165385D01*
X195968011Y-42375429D01*
X196178055Y-42515777D01*
X196425820Y-42565060D01*
X198457820Y-42565060D01*
X198705585Y-42515777D01*
X198915629Y-42375429D01*
X199020482Y-42218507D01*
X199117002Y-42308005D01*
X199598876Y-42507595D01*
X199854820Y-42388456D01*
X199854820Y-41028620D01*
X200108820Y-41028620D01*
X200108820Y-42388456D01*
X200364764Y-42507595D01*
X200846638Y-42308005D01*
X201319008Y-41869999D01*
X201587803Y-41284566D01*
X201469187Y-41028620D01*
X200108820Y-41028620D01*
X199854820Y-41028620D01*
X199834820Y-41028620D01*
X199834820Y-40774620D01*
X199854820Y-40774620D01*
X199854820Y-39414784D01*
X200108820Y-39414784D01*
X200108820Y-40774620D01*
X201469187Y-40774620D01*
X201587803Y-40518674D01*
X201319008Y-39933241D01*
X200846638Y-39495235D01*
X200364764Y-39295645D01*
X200108820Y-39414784D01*
X199854820Y-39414784D01*
X199598876Y-39295645D01*
X199117002Y-39495235D01*
X199020482Y-39584733D01*
X198915629Y-39427811D01*
X198705585Y-39287463D01*
X198457820Y-39238180D01*
X196856010Y-39238180D01*
X196830350Y-39212520D01*
X227239610Y-39212520D01*
X227270265Y-39243175D01*
X227613917Y-39385520D01*
X227985883Y-39385520D01*
X228329535Y-39243175D01*
X228592555Y-38980155D01*
X228734900Y-38636503D01*
X228734900Y-38264537D01*
X228592555Y-37920885D01*
X228329535Y-37657865D01*
X228190189Y-37600146D01*
X228332075Y-37541375D01*
X228595095Y-37278355D01*
X228737440Y-36934703D01*
X228737440Y-36562737D01*
X228595095Y-36219085D01*
X228332075Y-35956065D01*
X228191459Y-35897820D01*
X228332075Y-35839575D01*
X228595095Y-35576555D01*
X228737440Y-35232903D01*
X228737440Y-34860937D01*
X228595095Y-34517285D01*
X228332075Y-34254265D01*
X227988423Y-34111920D01*
X227616457Y-34111920D01*
X227272805Y-34254265D01*
X227009785Y-34517285D01*
X226867440Y-34860937D01*
X226867440Y-34904289D01*
X224972210Y-36799520D01*
X152537440Y-36799520D01*
X152537440Y-36562737D01*
X152395095Y-36219085D01*
X152132075Y-35956065D01*
X151985109Y-35895190D01*
X152119375Y-35839575D01*
X152382395Y-35576555D01*
X152524740Y-35232903D01*
X152524740Y-34860937D01*
X152382395Y-34517285D01*
X152119375Y-34254265D01*
X151775723Y-34111920D01*
X151403757Y-34111920D01*
X151060105Y-34254265D01*
X150797085Y-34517285D01*
X150654740Y-34860937D01*
X150654740Y-34904289D01*
X150423210Y-35135820D01*
X150153487Y-35135820D01*
X150078440Y-35120892D01*
X150003393Y-35135820D01*
X150003392Y-35135820D01*
X149781123Y-35180032D01*
X149529069Y-35348449D01*
X149509912Y-35377120D01*
X112790840Y-35377120D01*
X112790840Y-35240937D01*
X112648495Y-34897285D01*
X112617840Y-34866630D01*
X112617840Y-34577210D01*
X112648495Y-34546555D01*
X112790840Y-34202903D01*
X112790840Y-33830937D01*
X112648495Y-33487285D01*
X112385475Y-33224265D01*
X112041823Y-33081920D01*
X111669857Y-33081920D01*
X111326205Y-33224265D01*
X111063185Y-33487285D01*
X110920840Y-33830937D01*
X110920840Y-34202903D01*
X111063185Y-34546555D01*
X111093841Y-34577211D01*
X111093841Y-34634090D01*
X110886240Y-34426490D01*
X110886240Y-33714910D01*
X110916895Y-33684255D01*
X111059240Y-33340603D01*
X111059240Y-32968637D01*
X110916895Y-32624985D01*
X110653875Y-32361965D01*
X110310223Y-32219620D01*
X109938257Y-32219620D01*
X109635290Y-32345113D01*
X109332323Y-32219620D01*
X109114270Y-32219620D01*
X110027310Y-31306580D01*
X110051805Y-31331075D01*
X110395457Y-31473420D01*
X110767423Y-31473420D01*
X111111075Y-31331075D01*
X111374095Y-31068055D01*
X111516440Y-30724403D01*
X111516440Y-30352437D01*
X111486824Y-30280937D01*
X117520840Y-30280937D01*
X117520840Y-30652903D01*
X117663185Y-30996555D01*
X117693840Y-31027210D01*
X117693841Y-32636629D01*
X117663185Y-32667285D01*
X117520840Y-33010937D01*
X117520840Y-33382903D01*
X117663185Y-33726555D01*
X117926205Y-33989575D01*
X118269857Y-34131920D01*
X118641823Y-34131920D01*
X118985475Y-33989575D01*
X119248495Y-33726555D01*
X119390840Y-33382903D01*
X119390840Y-33010937D01*
X119248495Y-32667285D01*
X119217840Y-32636630D01*
X119217840Y-32612670D01*
X137547240Y-32612670D01*
X137547240Y-33469229D01*
X137643913Y-33702618D01*
X137822541Y-33881247D01*
X138055930Y-33977920D01*
X138760090Y-33977920D01*
X138918840Y-33819170D01*
X138918840Y-32453920D01*
X137705990Y-32453920D01*
X137547240Y-32612670D01*
X119217840Y-32612670D01*
X119217840Y-31184611D01*
X137547240Y-31184611D01*
X137547240Y-32041170D01*
X137705990Y-32199920D01*
X138918840Y-32199920D01*
X138918840Y-30834670D01*
X139172840Y-30834670D01*
X139172840Y-32199920D01*
X139192840Y-32199920D01*
X139192840Y-32453920D01*
X139172840Y-32453920D01*
X139172840Y-33819170D01*
X139331590Y-33977920D01*
X140035750Y-33977920D01*
X140269139Y-33881247D01*
X140447767Y-33702618D01*
X140506612Y-33560553D01*
X141001116Y-33890970D01*
X141585840Y-34007279D01*
X142170565Y-33890970D01*
X142666270Y-33559750D01*
X142855840Y-33276039D01*
X143045410Y-33559750D01*
X143541116Y-33890970D01*
X144125840Y-34007279D01*
X144710565Y-33890970D01*
X145206270Y-33559750D01*
X145537490Y-33064044D01*
X145624440Y-32626917D01*
X145624440Y-32026922D01*
X145537490Y-31589795D01*
X145206270Y-31094090D01*
X144710564Y-30762870D01*
X144125840Y-30646561D01*
X143541115Y-30762870D01*
X143045410Y-31094090D01*
X142855840Y-31377801D01*
X142666270Y-31094090D01*
X142170564Y-30762870D01*
X141585840Y-30646561D01*
X141001115Y-30762870D01*
X140506612Y-31093287D01*
X140447767Y-30951222D01*
X140269139Y-30772593D01*
X140035750Y-30675920D01*
X139331590Y-30675920D01*
X139172840Y-30834670D01*
X138918840Y-30834670D01*
X138760090Y-30675920D01*
X138055930Y-30675920D01*
X137822541Y-30772593D01*
X137643913Y-30951222D01*
X137547240Y-31184611D01*
X119217840Y-31184611D01*
X119217840Y-31027210D01*
X119248495Y-30996555D01*
X119390840Y-30652903D01*
X119390840Y-30280937D01*
X119248495Y-29937285D01*
X118985475Y-29674265D01*
X118641823Y-29531920D01*
X118269857Y-29531920D01*
X117926205Y-29674265D01*
X117663185Y-29937285D01*
X117520840Y-30280937D01*
X111486824Y-30280937D01*
X111374095Y-30008785D01*
X111192530Y-29827220D01*
X111424895Y-29594855D01*
X111567240Y-29251203D01*
X111567240Y-29207850D01*
X111836171Y-28938920D01*
X147640797Y-28938920D01*
X147715840Y-28953847D01*
X147790883Y-28938920D01*
X147790888Y-28938920D01*
X148013157Y-28894708D01*
X148265211Y-28726291D01*
X148307723Y-28662667D01*
X148435670Y-28534720D01*
X149066780Y-28534720D01*
X149066780Y-29463640D01*
X149422263Y-30321851D01*
X150079109Y-30978697D01*
X150937320Y-31334180D01*
X151866240Y-31334180D01*
X152724451Y-30978697D01*
X153381297Y-30321851D01*
X153736780Y-29463640D01*
X153736780Y-28534720D01*
X153381297Y-27676509D01*
X152724451Y-27019663D01*
X151866240Y-26664180D01*
X150937320Y-26664180D01*
X150079109Y-27019663D01*
X149422263Y-27676509D01*
X149066780Y-28534720D01*
X148435670Y-28534720D01*
X152731471Y-24238920D01*
X158261587Y-24238920D01*
X157582269Y-24520303D01*
X156925423Y-25177149D01*
X156569940Y-26035360D01*
X156569940Y-26964280D01*
X156925423Y-27822491D01*
X157582269Y-28479337D01*
X158440480Y-28834820D01*
X159369400Y-28834820D01*
X160227611Y-28479337D01*
X160884457Y-27822491D01*
X161239940Y-26964280D01*
X161239940Y-26035360D01*
X160884457Y-25177149D01*
X160227611Y-24520303D01*
X159548293Y-24238920D01*
X189540210Y-24238920D01*
X199420840Y-34119551D01*
X199420840Y-34162903D01*
X199563185Y-34506555D01*
X199826205Y-34769575D01*
X200169857Y-34911920D01*
X200541823Y-34911920D01*
X200885475Y-34769575D01*
X201148495Y-34506555D01*
X201290840Y-34162903D01*
X201290840Y-33790937D01*
X201148495Y-33447285D01*
X200885475Y-33184265D01*
X200541823Y-33041920D01*
X200498471Y-33041920D01*
X193491911Y-26035360D01*
X231568520Y-26035360D01*
X231568520Y-26964280D01*
X231924003Y-27822491D01*
X232580849Y-28479337D01*
X233439060Y-28834820D01*
X234367980Y-28834820D01*
X235226191Y-28479337D01*
X235883037Y-27822491D01*
X236238520Y-26964280D01*
X236238520Y-26035360D01*
X235883037Y-25177149D01*
X235226191Y-24520303D01*
X234367980Y-24164820D01*
X233439060Y-24164820D01*
X232580849Y-24520303D01*
X231924003Y-25177149D01*
X231568520Y-26035360D01*
X193491911Y-26035360D01*
X190447724Y-22991173D01*
X190405211Y-22927549D01*
X190153157Y-22759132D01*
X189930888Y-22714920D01*
X189930883Y-22714920D01*
X189855840Y-22699993D01*
X189780797Y-22714920D01*
X178039040Y-22714920D01*
X178039040Y-22701957D01*
X177896695Y-22358305D01*
X177633675Y-22095285D01*
X177290023Y-21952940D01*
X176918057Y-21952940D01*
X176574405Y-22095285D01*
X176543750Y-22125940D01*
X175404584Y-22125940D01*
X175499040Y-21897903D01*
X175499040Y-21889720D01*
X191783750Y-21889720D01*
X191814405Y-21920375D01*
X192158057Y-22062720D01*
X192530023Y-22062720D01*
X192873675Y-21920375D01*
X193136695Y-21657355D01*
X193279040Y-21313703D01*
X193279040Y-21305520D01*
X196863750Y-21305520D01*
X196894405Y-21336175D01*
X197238057Y-21478520D01*
X197610023Y-21478520D01*
X197953675Y-21336175D01*
X198216695Y-21073155D01*
X198359040Y-20729503D01*
X198359040Y-20357537D01*
X198216695Y-20013885D01*
X197953675Y-19750865D01*
X197610023Y-19608520D01*
X197238057Y-19608520D01*
X196894405Y-19750865D01*
X196863750Y-19781520D01*
X195727740Y-19781520D01*
X195819040Y-19561103D01*
X195819040Y-19189137D01*
X195676695Y-18845485D01*
X195533230Y-18702020D01*
X199361184Y-18702020D01*
X199391921Y-18732757D01*
X199763139Y-18886520D01*
X200164941Y-18886520D01*
X200536159Y-18732757D01*
X200820277Y-18448639D01*
X200974040Y-18077421D01*
X200974040Y-17675619D01*
X200820277Y-17304401D01*
X200536159Y-17020283D01*
X200164941Y-16866520D01*
X199763139Y-16866520D01*
X199391921Y-17020283D01*
X199361184Y-17051020D01*
X167546896Y-17051020D01*
X167516159Y-17020283D01*
X167144941Y-16866520D01*
X166743139Y-16866520D01*
X166371921Y-17020283D01*
X166341184Y-17051020D01*
X156777180Y-17051020D01*
X156516625Y-16943095D01*
X156651191Y-16853181D01*
X156802589Y-16626597D01*
X156855753Y-16359324D01*
X156842334Y-16291862D01*
X156842334Y-6676542D01*
X156855753Y-6609080D01*
X156802589Y-6341807D01*
X156651191Y-6115223D01*
X156424607Y-5963825D01*
X156224796Y-5924080D01*
X156157334Y-5910661D01*
X156089873Y-5924080D01*
X155227998Y-5924080D01*
X155160536Y-5910661D01*
X155093075Y-5924080D01*
X155093074Y-5924080D01*
X154893263Y-5963825D01*
X154666679Y-6115223D01*
X154515281Y-6341807D01*
X154462117Y-6609080D01*
X154475537Y-6676547D01*
X154475536Y-14674485D01*
X137251698Y-14674485D01*
X137180320Y-14660287D01*
X136913048Y-14713451D01*
X136686464Y-14864849D01*
X136535066Y-15091433D01*
X136495321Y-15291244D01*
X136495321Y-15293175D01*
X136482131Y-15359485D01*
X136495321Y-15425795D01*
X136495320Y-16277051D01*
X136478955Y-16359324D01*
X136532119Y-16626597D01*
X136683517Y-16853181D01*
X136910101Y-17004579D01*
X137109912Y-17044324D01*
X137115503Y-17044324D01*
X137180320Y-17057217D01*
X137245137Y-17044324D01*
X155892666Y-17044324D01*
X155797205Y-17083865D01*
X155766550Y-17114520D01*
X152761282Y-17114520D01*
X152686239Y-17099593D01*
X152611196Y-17114520D01*
X152611192Y-17114520D01*
X152388923Y-17158732D01*
X152136869Y-17327149D01*
X152094358Y-17390771D01*
X146070210Y-23414920D01*
X121445721Y-23414920D01*
X121439688Y-23413720D01*
X121439683Y-23413720D01*
X121364640Y-23398793D01*
X121289597Y-23413720D01*
X119024930Y-23413720D01*
X118995475Y-23384265D01*
X118651823Y-23241920D01*
X118279857Y-23241920D01*
X117936205Y-23384265D01*
X117906750Y-23413720D01*
X107192030Y-23413720D01*
X107161375Y-23383065D01*
X106817723Y-23240720D01*
X106445757Y-23240720D01*
X106102105Y-23383065D01*
X105956960Y-23528210D01*
X105090023Y-22661273D01*
X105047511Y-22597649D01*
X104795457Y-22429232D01*
X104573188Y-22385020D01*
X104573183Y-22385020D01*
X104498140Y-22370093D01*
X104423097Y-22385020D01*
X87744971Y-22385020D01*
X82204623Y-16844673D01*
X82162111Y-16781049D01*
X81910057Y-16612632D01*
X81687788Y-16568420D01*
X81687783Y-16568420D01*
X81612740Y-16553493D01*
X81537697Y-16568420D01*
X43095130Y-16568420D01*
X43064475Y-16537765D01*
X42720823Y-16395420D01*
X42348857Y-16395420D01*
X42005205Y-16537765D01*
X41742185Y-16800785D01*
X41599840Y-17144437D01*
X41599840Y-17165320D01*
X37964330Y-17165320D01*
X37933675Y-17134665D01*
X37590023Y-16992320D01*
X37218057Y-16992320D01*
X36874405Y-17134665D01*
X36611385Y-17397685D01*
X36469040Y-17741337D01*
X36469040Y-18113303D01*
X36611385Y-18456955D01*
X36874405Y-18719975D01*
X37218057Y-18862320D01*
X37590023Y-18862320D01*
X37933675Y-18719975D01*
X37964330Y-18689320D01*
X39105600Y-18689320D01*
X39009040Y-18922437D01*
X39009040Y-18930620D01*
X22737030Y-18930620D01*
X22706375Y-18899965D01*
X22362723Y-18757620D01*
X21990757Y-18757620D01*
X21647105Y-18899965D01*
X21384085Y-19162985D01*
X21241740Y-19506637D01*
X21241740Y-19527520D01*
X20184330Y-19527520D01*
X20153675Y-19496865D01*
X19810023Y-19354520D01*
X19438057Y-19354520D01*
X19094405Y-19496865D01*
X18831385Y-19759885D01*
X18689040Y-20103537D01*
X18689040Y-20475503D01*
X18831385Y-20819155D01*
X19094405Y-21082175D01*
X19438057Y-21224520D01*
X19810023Y-21224520D01*
X20153675Y-21082175D01*
X20184330Y-21051520D01*
X23769040Y-21051520D01*
X23769040Y-21057163D01*
X23911385Y-21400815D01*
X24174405Y-21663835D01*
X24518057Y-21806180D01*
X24890023Y-21806180D01*
X25233675Y-21663835D01*
X25264330Y-21633180D01*
X81259010Y-21633180D01*
X85788437Y-26162608D01*
X85830949Y-26226231D01*
X86083003Y-26394648D01*
X86305272Y-26438860D01*
X86305273Y-26438860D01*
X86380320Y-26453788D01*
X86455367Y-26438860D01*
X97987840Y-26438860D01*
X97987840Y-26749303D01*
X98130185Y-27092955D01*
X98393205Y-27355975D01*
X98736857Y-27498320D01*
X99108823Y-27498320D01*
X99452475Y-27355975D01*
X99483130Y-27325320D01*
X102201310Y-27325320D01*
X102504241Y-27628251D01*
X102504241Y-27757120D01*
X101004487Y-27757120D01*
X100929440Y-27742192D01*
X100854393Y-27757120D01*
X100854392Y-27757120D01*
X100632123Y-27801332D01*
X100380069Y-27969749D01*
X100337558Y-28033371D01*
X99529510Y-28841420D01*
X99486157Y-28841420D01*
X99142505Y-28983765D01*
X99111850Y-29014420D01*
X98591487Y-29014420D01*
X98516440Y-28999492D01*
X98441393Y-29014420D01*
X98441392Y-29014420D01*
X98219123Y-29058632D01*
X97967069Y-29227049D01*
X97947912Y-29255720D01*
X95787430Y-29255720D01*
X95756775Y-29225065D01*
X95413123Y-29082720D01*
X95041157Y-29082720D01*
X94697505Y-29225065D01*
X94434485Y-29488085D01*
X94292140Y-29831737D01*
X94292140Y-30203703D01*
X94434485Y-30547355D01*
X94697505Y-30810375D01*
X95041157Y-30952720D01*
X95413123Y-30952720D01*
X95756775Y-30810375D01*
X95787430Y-30779720D01*
X98200097Y-30779720D01*
X98275140Y-30794647D01*
X98350183Y-30779720D01*
X98350188Y-30779720D01*
X98572457Y-30735508D01*
X98824511Y-30567091D01*
X98843668Y-30538420D01*
X99111850Y-30538420D01*
X99142505Y-30569075D01*
X99486157Y-30711420D01*
X99858123Y-30711420D01*
X100099336Y-30611506D01*
X100107705Y-30619875D01*
X100451357Y-30762220D01*
X100494710Y-30762220D01*
X100817010Y-31084520D01*
X94861283Y-31084520D01*
X94786240Y-31069593D01*
X94711197Y-31084520D01*
X94711192Y-31084520D01*
X94488923Y-31128732D01*
X94236869Y-31297149D01*
X94194358Y-31360771D01*
X92830210Y-32724920D01*
X73790882Y-32724920D01*
X73715839Y-32709993D01*
X73640796Y-32724920D01*
X73640792Y-32724920D01*
X73418523Y-32769132D01*
X73418522Y-32769133D01*
X73418521Y-32769133D01*
X73230091Y-32895038D01*
X73166469Y-32937549D01*
X73123958Y-33001171D01*
X71100210Y-35024920D01*
X50271471Y-35024920D01*
X50090840Y-34844290D01*
X50090840Y-34800937D01*
X49948495Y-34457285D01*
X49685475Y-34194265D01*
X49341823Y-34051920D01*
X48969857Y-34051920D01*
X48626205Y-34194265D01*
X48363185Y-34457285D01*
X48220840Y-34800937D01*
X48220840Y-35172903D01*
X48363185Y-35516555D01*
X48503150Y-35656520D01*
X36637730Y-35656520D01*
X36605475Y-35624265D01*
X36261823Y-35481920D01*
X35889857Y-35481920D01*
X35546205Y-35624265D01*
X35283185Y-35887285D01*
X35140840Y-36230937D01*
X35140840Y-36602903D01*
X35232802Y-36824920D01*
X1232571Y-36824920D01*
X-10350Y-35582000D01*
X-4905Y-35576555D01*
X137440Y-35232903D01*
X137440Y-34860937D01*
X-4905Y-34517285D01*
X-267925Y-34254265D01*
X-611577Y-34111920D01*
X-983543Y-34111920D01*
X-1327195Y-34254265D01*
X-1590215Y-34517285D01*
X-1732560Y-34860937D01*
X-3814561Y-34860937D01*
X-3814561Y-26035360D01*
X4169940Y-26035360D01*
X4169940Y-26964280D01*
X4525423Y-27822491D01*
X5182269Y-28479337D01*
X6040480Y-28834820D01*
X6969400Y-28834820D01*
X7827611Y-28479337D01*
X8484457Y-27822491D01*
X8839940Y-26964280D01*
X8839940Y-26035360D01*
X79168520Y-26035360D01*
X79168520Y-26964280D01*
X79524003Y-27822491D01*
X80180849Y-28479337D01*
X81039060Y-28834820D01*
X81967980Y-28834820D01*
X82692484Y-28534720D01*
X86666600Y-28534720D01*
X86666600Y-29463640D01*
X87022083Y-30321851D01*
X87678929Y-30978697D01*
X88537140Y-31334180D01*
X89466060Y-31334180D01*
X90324271Y-30978697D01*
X90981117Y-30321851D01*
X91336600Y-29463640D01*
X91336600Y-28534720D01*
X90981117Y-27676509D01*
X90324271Y-27019663D01*
X89466060Y-26664180D01*
X88537140Y-26664180D01*
X87678929Y-27019663D01*
X87022083Y-27676509D01*
X86666600Y-28534720D01*
X82692484Y-28534720D01*
X82826191Y-28479337D01*
X83483037Y-27822491D01*
X83838520Y-26964280D01*
X83838520Y-26035360D01*
X83483037Y-25177149D01*
X82826191Y-24520303D01*
X81967980Y-24164820D01*
X81039060Y-24164820D01*
X80180849Y-24520303D01*
X79524003Y-25177149D01*
X79168520Y-26035360D01*
X8839940Y-26035360D01*
X8484457Y-25177149D01*
X7827611Y-24520303D01*
X6969400Y-24164820D01*
X6040480Y-24164820D01*
X5182269Y-24520303D01*
X4525423Y-25177149D01*
X4169940Y-26035360D01*
X-3814561Y-26035360D01*
X-3814561Y-6385319D01*
X2993040Y-6385319D01*
X2993040Y-6787121D01*
X3146803Y-7158339D01*
X3430921Y-7442457D01*
X3802139Y-7596220D01*
X4203941Y-7596220D01*
X4575159Y-7442457D01*
X4605896Y-7411720D01*
X13941184Y-7411720D01*
X13971921Y-7442457D01*
X14343139Y-7596220D01*
X14744941Y-7596220D01*
X15116159Y-7442457D01*
X15146896Y-7411720D01*
X46961184Y-7411720D01*
X46991921Y-7442457D01*
X47363139Y-7596220D01*
X47764941Y-7596220D01*
X48136159Y-7442457D01*
X48420277Y-7158339D01*
X48574040Y-6787121D01*
X48574040Y-6609080D01*
X83542023Y-6609080D01*
X83555443Y-6676547D01*
X83555442Y-16292455D01*
X83542141Y-16359324D01*
X83555442Y-16426193D01*
X83555442Y-16426785D01*
X83595187Y-16626596D01*
X83746585Y-16853180D01*
X83973169Y-17004579D01*
X84240442Y-17057743D01*
X84307903Y-17044324D01*
X103155703Y-17044324D01*
X103220520Y-17057217D01*
X103285337Y-17044324D01*
X103287982Y-17044324D01*
X103487793Y-17004579D01*
X103714377Y-16853181D01*
X103865775Y-16626597D01*
X103918939Y-16359324D01*
X103905520Y-16291862D01*
X103905520Y-15561576D01*
X104227675Y-15428135D01*
X104258330Y-15397480D01*
X105172174Y-15397480D01*
X105177881Y-15426172D01*
X105177880Y-16291336D01*
X105164461Y-16358798D01*
X105217625Y-16626071D01*
X105369023Y-16852655D01*
X105595607Y-17004053D01*
X105677201Y-17020283D01*
X105862880Y-17057217D01*
X105930341Y-17043798D01*
X134470498Y-17043798D01*
X134537960Y-17057217D01*
X134605421Y-17043798D01*
X134605422Y-17043798D01*
X134805233Y-17004053D01*
X135031817Y-16852655D01*
X135183215Y-16626071D01*
X135236379Y-16358798D01*
X135222960Y-16291336D01*
X135222960Y-15426168D01*
X135236379Y-15358706D01*
X135183215Y-15091433D01*
X135031817Y-14864849D01*
X134805233Y-14713451D01*
X134605422Y-14673706D01*
X134537960Y-14660287D01*
X134470499Y-14673706D01*
X120912984Y-14673706D01*
X121010855Y-14575835D01*
X121153200Y-14232183D01*
X121153200Y-14043964D01*
X121478040Y-14108579D01*
X122062764Y-13992270D01*
X122558470Y-13661050D01*
X122748040Y-13377339D01*
X122937610Y-13661050D01*
X123433315Y-13992270D01*
X124018040Y-14108579D01*
X124602764Y-13992270D01*
X125098470Y-13661050D01*
X125288040Y-13377339D01*
X125477610Y-13661050D01*
X125973315Y-13992270D01*
X126558040Y-14108579D01*
X127142764Y-13992270D01*
X127631108Y-13665969D01*
X127636283Y-13691985D01*
X127776631Y-13902029D01*
X127986675Y-14042377D01*
X128234440Y-14091660D01*
X129961640Y-14091660D01*
X130209405Y-14042377D01*
X130419449Y-13902029D01*
X130559797Y-13691985D01*
X130609080Y-13444220D01*
X130609080Y-11663680D01*
X132302030Y-11663680D01*
X132332685Y-11694335D01*
X132676337Y-11836680D01*
X133048303Y-11836680D01*
X133391955Y-11694335D01*
X133654975Y-11431315D01*
X133797320Y-11087663D01*
X133797320Y-10911840D01*
X136112030Y-10911840D01*
X136142685Y-10942495D01*
X136486337Y-11084840D01*
X136858303Y-11084840D01*
X137201955Y-10942495D01*
X137464975Y-10679475D01*
X137607320Y-10335823D01*
X137607320Y-10271275D01*
X137756337Y-10333000D01*
X138128303Y-10333000D01*
X138471955Y-10190655D01*
X138734975Y-9927635D01*
X138877320Y-9583983D01*
X138877320Y-9526619D01*
X139021257Y-9586240D01*
X139393223Y-9586240D01*
X139736875Y-9443895D01*
X139775150Y-9405620D01*
X140170950Y-9405620D01*
X140201605Y-9436275D01*
X140545257Y-9578620D01*
X140917223Y-9578620D01*
X141260875Y-9436275D01*
X141523895Y-9173255D01*
X141666240Y-8829603D01*
X141666240Y-8457637D01*
X141523895Y-8113985D01*
X141260875Y-7850965D01*
X140917223Y-7708620D01*
X140545257Y-7708620D01*
X140201605Y-7850965D01*
X140170950Y-7881620D01*
X139759910Y-7881620D01*
X139736875Y-7858585D01*
X139393223Y-7716240D01*
X139327890Y-7716240D01*
X139327890Y-7207913D01*
X139116950Y-6698658D01*
X138759822Y-6341530D01*
X139962890Y-6341530D01*
X140210655Y-6292247D01*
X140420699Y-6151899D01*
X140561047Y-5941855D01*
X140610330Y-5694090D01*
X140610330Y-4192950D01*
X140561047Y-3945185D01*
X140420699Y-3735141D01*
X140210655Y-3594793D01*
X139962890Y-3545510D01*
X138461750Y-3545510D01*
X138213985Y-3594793D01*
X138003941Y-3735141D01*
X137863593Y-3945185D01*
X137825415Y-4137123D01*
X137457182Y-3768890D01*
X136947927Y-3557950D01*
X136396713Y-3557950D01*
X135887458Y-3768890D01*
X135497690Y-4158658D01*
X135402320Y-4388902D01*
X135306950Y-4158658D01*
X135063314Y-3915022D01*
X135217320Y-3543220D01*
X135217320Y-3111580D01*
X135052138Y-2712797D01*
X134746923Y-2407582D01*
X134412803Y-2269184D01*
X144076380Y-2269184D01*
X144076380Y-2899736D01*
X144317682Y-3482290D01*
X144763550Y-3928158D01*
X145346104Y-4169460D01*
X145976656Y-4169460D01*
X146559210Y-3928158D01*
X147005078Y-3482290D01*
X147246380Y-2899736D01*
X147246380Y-2269184D01*
X147005078Y-1686630D01*
X146559210Y-1240762D01*
X145976656Y-999460D01*
X145346104Y-999460D01*
X144763550Y-1240762D01*
X144317682Y-1686630D01*
X144076380Y-2269184D01*
X134412803Y-2269184D01*
X134348140Y-2242400D01*
X133916500Y-2242400D01*
X133517717Y-2407582D01*
X133486899Y-2438400D01*
X129743461Y-2438400D01*
X129712643Y-2407582D01*
X129313860Y-2242400D01*
X128882220Y-2242400D01*
X128483437Y-2407582D01*
X128452619Y-2438400D01*
X105638861Y-2438400D01*
X105608043Y-2407582D01*
X105209260Y-2242400D01*
X104777620Y-2242400D01*
X104378837Y-2407582D01*
X104073622Y-2712797D01*
X103908440Y-3111580D01*
X103908440Y-3543220D01*
X104045335Y-3873713D01*
X103816270Y-4102778D01*
X103727501Y-4317087D01*
X103663831Y-4163375D01*
X103422830Y-4095315D01*
X102630505Y-4887640D01*
X103422830Y-5679965D01*
X103663831Y-5611905D01*
X103722682Y-5446561D01*
X103816270Y-5672502D01*
X104206038Y-6062270D01*
X104715293Y-6273210D01*
X105266507Y-6273210D01*
X105775762Y-6062270D01*
X106165530Y-5672502D01*
X106260900Y-5442258D01*
X106356270Y-5672502D01*
X106746038Y-6062270D01*
X107255293Y-6273210D01*
X107806507Y-6273210D01*
X108315762Y-6062270D01*
X108683995Y-5694037D01*
X108722173Y-5885975D01*
X108826473Y-6042070D01*
X108525293Y-6042070D01*
X108016038Y-6253010D01*
X107626270Y-6642778D01*
X107530900Y-6873022D01*
X107435530Y-6642778D01*
X107045762Y-6253010D01*
X106536507Y-6042070D01*
X105985293Y-6042070D01*
X105476038Y-6253010D01*
X105086270Y-6642778D01*
X104990900Y-6873022D01*
X104895530Y-6642778D01*
X104505762Y-6253010D01*
X103996507Y-6042070D01*
X103445293Y-6042070D01*
X102936038Y-6253010D01*
X102546270Y-6642778D01*
X102457501Y-6857087D01*
X102393831Y-6703375D01*
X102152830Y-6635315D01*
X101360505Y-7427640D01*
X102152830Y-8219965D01*
X102393831Y-8151905D01*
X102452682Y-7986561D01*
X102546270Y-8212502D01*
X102936038Y-8602270D01*
X103445293Y-8813210D01*
X103996507Y-8813210D01*
X104505762Y-8602270D01*
X104895530Y-8212502D01*
X104990900Y-7982258D01*
X105086270Y-8212502D01*
X105476038Y-8602270D01*
X105985293Y-8813210D01*
X106536507Y-8813210D01*
X107045762Y-8602270D01*
X107435530Y-8212502D01*
X107530900Y-7982258D01*
X107626270Y-8212502D01*
X108016038Y-8602270D01*
X108200481Y-8678669D01*
X108010785Y-8868365D01*
X107868440Y-9212017D01*
X107868440Y-9276565D01*
X107719423Y-9214840D01*
X107347457Y-9214840D01*
X107003805Y-9357185D01*
X106740785Y-9620205D01*
X106598440Y-9963857D01*
X106598440Y-10139680D01*
X104278650Y-10139680D01*
X104247995Y-10109025D01*
X103904343Y-9966680D01*
X103532377Y-9966680D01*
X103188725Y-10109025D01*
X102925705Y-10372045D01*
X102783360Y-10715697D01*
X102783360Y-11084639D01*
X102617610Y-11195390D01*
X102424130Y-11484952D01*
X102060076Y-11077488D01*
X101532831Y-10823511D01*
X101517066Y-10820862D01*
X101285040Y-10942003D01*
X101285040Y-12301220D01*
X101305040Y-12301220D01*
X101305040Y-12555220D01*
X101285040Y-12555220D01*
X101285040Y-13914437D01*
X101517066Y-14035578D01*
X101532831Y-14032929D01*
X102060076Y-13778952D01*
X102424131Y-13371487D01*
X102617610Y-13661050D01*
X103056753Y-13954477D01*
X102905385Y-14105845D01*
X102763040Y-14449497D01*
X102763040Y-14674485D01*
X85925534Y-14674485D01*
X85925534Y-12790133D01*
X99672856Y-12790133D01*
X99866086Y-13342540D01*
X100256004Y-13778952D01*
X100783249Y-14032929D01*
X100799014Y-14035578D01*
X101031040Y-13914437D01*
X101031040Y-12555220D01*
X99817116Y-12555220D01*
X99672856Y-12790133D01*
X85925534Y-12790133D01*
X85925534Y-12066307D01*
X99672856Y-12066307D01*
X99817116Y-12301220D01*
X101031040Y-12301220D01*
X101031040Y-10942003D01*
X100799014Y-10820862D01*
X100783249Y-10823511D01*
X100256004Y-11077488D01*
X99866086Y-11513900D01*
X99672856Y-12066307D01*
X85925534Y-12066307D01*
X85925534Y-8399570D01*
X100388575Y-8399570D01*
X100456635Y-8640571D01*
X100975934Y-8825407D01*
X101526438Y-8797445D01*
X101905165Y-8640571D01*
X101973225Y-8399570D01*
X101180900Y-7607245D01*
X100388575Y-8399570D01*
X85925534Y-8399570D01*
X85925534Y-7222674D01*
X99783133Y-7222674D01*
X99811095Y-7773178D01*
X99967969Y-8151905D01*
X100208970Y-8219965D01*
X101001295Y-7427640D01*
X100208970Y-6635315D01*
X99967969Y-6703375D01*
X99783133Y-7222674D01*
X85925534Y-7222674D01*
X85925534Y-6676542D01*
X85938953Y-6609080D01*
X85908446Y-6455710D01*
X100388575Y-6455710D01*
X101180900Y-7248035D01*
X101973225Y-6455710D01*
X101905165Y-6214709D01*
X101385866Y-6029873D01*
X100835362Y-6057835D01*
X100456635Y-6214709D01*
X100388575Y-6455710D01*
X85908446Y-6455710D01*
X85885789Y-6341807D01*
X85734391Y-6115223D01*
X85507807Y-5963825D01*
X85307996Y-5924080D01*
X85240534Y-5910661D01*
X85173073Y-5924080D01*
X84307904Y-5924080D01*
X84240442Y-5910661D01*
X84172981Y-5924080D01*
X84172980Y-5924080D01*
X83973169Y-5963825D01*
X83746585Y-6115223D01*
X83595187Y-6341807D01*
X83542023Y-6609080D01*
X48574040Y-6609080D01*
X48574040Y-6385319D01*
X48420277Y-6014101D01*
X48265746Y-5859570D01*
X101658575Y-5859570D01*
X101726635Y-6100571D01*
X102245934Y-6285407D01*
X102796438Y-6257445D01*
X103175165Y-6100571D01*
X103243225Y-5859570D01*
X102450900Y-5067245D01*
X101658575Y-5859570D01*
X48265746Y-5859570D01*
X48136159Y-5729983D01*
X47764941Y-5576220D01*
X47363139Y-5576220D01*
X46991921Y-5729983D01*
X46961184Y-5760720D01*
X15146896Y-5760720D01*
X15116159Y-5729983D01*
X14744941Y-5576220D01*
X14343139Y-5576220D01*
X13971921Y-5729983D01*
X13941184Y-5760720D01*
X4605896Y-5760720D01*
X4575159Y-5729983D01*
X4203941Y-5576220D01*
X3802139Y-5576220D01*
X3430921Y-5729983D01*
X3146803Y-6014101D01*
X2993040Y-6385319D01*
X-3814561Y-6385319D01*
X-3814561Y-4682674D01*
X101053133Y-4682674D01*
X101081095Y-5233178D01*
X101237969Y-5611905D01*
X101478970Y-5679965D01*
X102271295Y-4887640D01*
X101478970Y-4095315D01*
X101237969Y-4163375D01*
X101053133Y-4682674D01*
X-3814561Y-4682674D01*
X-3814561Y464460D01*
X-2335000Y464460D01*
X-2335000Y-464460D01*
X-1979517Y-1322671D01*
X-1322671Y-1979517D01*
X-464460Y-2335000D01*
X464460Y-2335000D01*
X1322671Y-1979517D01*
X1979517Y-1322671D01*
X2335000Y-464460D01*
X2335000Y464460D01*
X1979517Y1322671D01*
X1322671Y1979517D01*
X464460Y2335000D01*
X-464460Y2335000D01*
X-1322671Y1979517D01*
X-1979517Y1322671D01*
X-2335000Y464460D01*
X-3814561Y464460D01*
X-3814561Y6315563D01*
X5017435Y6315563D01*
X4525423Y5823551D01*
X4525423Y5823551D01*
G37*
X4525423Y5823551D02*
X4169940Y4965340D01*
X4169940Y4036420D01*
X4525423Y3178209D01*
X5182269Y2521363D01*
X6040480Y2165880D01*
X6969400Y2165880D01*
X7827611Y2521363D01*
X8484457Y3178209D01*
X8839940Y4036420D01*
X8839940Y4373880D01*
X10469040Y4373880D01*
X10469040Y3973880D01*
X10634486Y3396128D01*
X11008434Y2925668D01*
X11533954Y2634124D01*
X11639300Y2609844D01*
X11877040Y2730502D01*
X11877040Y4373880D01*
X10469040Y4373880D01*
X8839940Y4373880D01*
X8839940Y4965340D01*
X8484457Y5823551D01*
X7992445Y6315563D01*
X11440090Y6315563D01*
X11008434Y6076092D01*
X10634486Y5605632D01*
X10469040Y5027880D01*
X10469040Y4627880D01*
X11877040Y4627880D01*
X11877040Y4647880D01*
X12131040Y4647880D01*
X12131040Y4627880D01*
X12151040Y4627880D01*
X12151040Y4373880D01*
X12131040Y4373880D01*
X12131040Y2730502D01*
X12368780Y2609844D01*
X12474126Y2634124D01*
X12999646Y2925668D01*
X13262338Y3256158D01*
X13437368Y2994207D01*
X13945114Y2654942D01*
X14544040Y2535808D01*
X15142967Y2654942D01*
X15650713Y2994207D01*
X15814040Y3238644D01*
X15977368Y2994207D01*
X16485114Y2654942D01*
X17084040Y2535808D01*
X17682967Y2654942D01*
X18190713Y2994207D01*
X18354040Y3238644D01*
X18517368Y2994207D01*
X19025114Y2654942D01*
X19624040Y2535808D01*
X20222967Y2654942D01*
X20730713Y2994207D01*
X20894040Y3238644D01*
X21057368Y2994207D01*
X21565114Y2654942D01*
X22164040Y2535808D01*
X22762967Y2654942D01*
X23270713Y2994207D01*
X23434040Y3238644D01*
X23597368Y2994207D01*
X24105114Y2654942D01*
X24704040Y2535808D01*
X25302967Y2654942D01*
X25810713Y2994207D01*
X25985743Y3256157D01*
X26248434Y2925668D01*
X26773954Y2634124D01*
X26879300Y2609844D01*
X27117040Y2730502D01*
X27117040Y4373880D01*
X27371040Y4373880D01*
X27371040Y2730502D01*
X27608780Y2609844D01*
X27714126Y2634124D01*
X28239646Y2925668D01*
X28514040Y3270880D01*
X28788434Y2925668D01*
X29313954Y2634124D01*
X29419300Y2609844D01*
X29657040Y2730502D01*
X29657040Y4373880D01*
X29911040Y4373880D01*
X29911040Y2730502D01*
X30148780Y2609844D01*
X30254126Y2634124D01*
X30779646Y2925668D01*
X31054040Y3270880D01*
X31328434Y2925668D01*
X31853954Y2634124D01*
X31959300Y2609844D01*
X32197040Y2730502D01*
X32197040Y4373880D01*
X32451040Y4373880D01*
X32451040Y2730502D01*
X32688780Y2609844D01*
X32794126Y2634124D01*
X33319646Y2925668D01*
X33594040Y3270880D01*
X33868434Y2925668D01*
X34393954Y2634124D01*
X34499300Y2609844D01*
X34737040Y2730502D01*
X34737040Y4373880D01*
X32451040Y4373880D01*
X32197040Y4373880D01*
X29911040Y4373880D01*
X29657040Y4373880D01*
X27371040Y4373880D01*
X27117040Y4373880D01*
X27097040Y4373880D01*
X27097040Y4627880D01*
X27117040Y4627880D01*
X27117040Y4647880D01*
X27371040Y4647880D01*
X27371040Y4627880D01*
X29657040Y4627880D01*
X29657040Y4647880D01*
X29911040Y4647880D01*
X29911040Y4627880D01*
X32197040Y4627880D01*
X32197040Y4647880D01*
X32451040Y4647880D01*
X32451040Y4627880D01*
X34737040Y4627880D01*
X34737040Y4647880D01*
X34991040Y4647880D01*
X34991040Y4627880D01*
X35011040Y4627880D01*
X35011040Y4373880D01*
X34991040Y4373880D01*
X34991040Y2730502D01*
X35228780Y2609844D01*
X35334126Y2634124D01*
X35859646Y2925668D01*
X36122338Y3256158D01*
X36297368Y2994207D01*
X36805114Y2654942D01*
X37404040Y2535808D01*
X38002967Y2654942D01*
X38510713Y2994207D01*
X38674040Y3238644D01*
X38837368Y2994207D01*
X39345114Y2654942D01*
X39944040Y2535808D01*
X40542967Y2654942D01*
X41050713Y2994207D01*
X41214040Y3238644D01*
X41377368Y2994207D01*
X41885114Y2654942D01*
X42484040Y2535808D01*
X43082967Y2654942D01*
X43590713Y2994207D01*
X43754040Y3238644D01*
X43917368Y2994207D01*
X44425114Y2654942D01*
X45024040Y2535808D01*
X45622967Y2654942D01*
X46130713Y2994207D01*
X46294040Y3238644D01*
X46457368Y2994207D01*
X46965114Y2654942D01*
X47564040Y2535808D01*
X48162967Y2654942D01*
X48670713Y2994207D01*
X48834040Y3238644D01*
X48997368Y2994207D01*
X49505114Y2654942D01*
X50104040Y2535808D01*
X50702967Y2654942D01*
X51210713Y2994207D01*
X51549978Y3501953D01*
X51639040Y3949699D01*
X51639040Y5052062D01*
X51549978Y5499807D01*
X51210713Y6007553D01*
X50749743Y6315563D01*
X80016015Y6315563D01*
X79524003Y5823551D01*
X79168520Y4965340D01*
X79168520Y4036420D01*
X79524003Y3178209D01*
X80180849Y2521363D01*
X81039060Y2165880D01*
X81967980Y2165880D01*
X82826191Y2521363D01*
X83483037Y3178209D01*
X83555443Y3353011D01*
X83555442Y-2934818D01*
X83542023Y-3002280D01*
X83595187Y-3269553D01*
X83746585Y-3496137D01*
X83894235Y-3594793D01*
X83973169Y-3647535D01*
X84240442Y-3700699D01*
X84307903Y-3687280D01*
X85173072Y-3687280D01*
X85240534Y-3700699D01*
X85307995Y-3687280D01*
X85307996Y-3687280D01*
X85507807Y-3647535D01*
X85734391Y-3496137D01*
X85838734Y-3339976D01*
X85897682Y-3482290D01*
X86343550Y-3928158D01*
X86926104Y-4169460D01*
X87556656Y-4169460D01*
X88139210Y-3928158D01*
X88585078Y-3482290D01*
X88826380Y-2899736D01*
X88826380Y-2269184D01*
X93156380Y-2269184D01*
X93156380Y-2899736D01*
X93397682Y-3482290D01*
X93843550Y-3928158D01*
X94426104Y-4169460D01*
X95056656Y-4169460D01*
X95639210Y-3928158D01*
X95651658Y-3915710D01*
X101658575Y-3915710D01*
X102450900Y-4708035D01*
X103243225Y-3915710D01*
X103175165Y-3674709D01*
X102655866Y-3489873D01*
X102105362Y-3517835D01*
X101726635Y-3674709D01*
X101658575Y-3915710D01*
X95651658Y-3915710D01*
X96085078Y-3482290D01*
X96326380Y-2899736D01*
X96326380Y-2269184D01*
X96085078Y-1686630D01*
X95639210Y-1240762D01*
X95056656Y-999460D01*
X94426104Y-999460D01*
X93843550Y-1240762D01*
X93397682Y-1686630D01*
X93156380Y-2269184D01*
X88826380Y-2269184D01*
X88585078Y-1686630D01*
X88139210Y-1240762D01*
X87556656Y-999460D01*
X86926104Y-999460D01*
X86343550Y-1240762D01*
X85925534Y-1658778D01*
X85925534Y1489858D01*
X86343550Y1071842D01*
X86926104Y830540D01*
X87556656Y830540D01*
X88139210Y1071842D01*
X88585078Y1517710D01*
X88826380Y2100264D01*
X88826380Y2730816D01*
X93156380Y2730816D01*
X93156380Y2100264D01*
X93397682Y1517710D01*
X93843550Y1071842D01*
X94426104Y830540D01*
X95056656Y830540D01*
X95639210Y1071842D01*
X96085078Y1517710D01*
X96250417Y1916875D01*
X97402380Y1916875D01*
X97402380Y1007845D01*
X97750250Y168011D01*
X98393031Y-474770D01*
X99232865Y-822640D01*
X100141895Y-822640D01*
X100981729Y-474770D01*
X101624510Y168011D01*
X101972380Y1007845D01*
X101972380Y1906929D01*
X109321800Y1906929D01*
X109321800Y1017791D01*
X109662059Y196334D01*
X110290774Y-432381D01*
X111112231Y-772640D01*
X112001369Y-772640D01*
X112822826Y-432381D01*
X113451541Y196334D01*
X113791800Y1017791D01*
X113791800Y1906929D01*
X113487557Y2641436D01*
X116908580Y2641436D01*
X116908580Y2209964D01*
X117073698Y1811335D01*
X117378795Y1506238D01*
X117777424Y1341120D01*
X118208896Y1341120D01*
X118607525Y1506238D01*
X118912622Y1811335D01*
X119077740Y2209964D01*
X119077740Y2641436D01*
X121307860Y2641436D01*
X121307860Y2209964D01*
X121472978Y1811335D01*
X121778075Y1506238D01*
X122176704Y1341120D01*
X122608176Y1341120D01*
X123006805Y1506238D01*
X123311902Y1811335D01*
X123332471Y1860995D01*
X126543800Y1860995D01*
X126543800Y951965D01*
X126891670Y112131D01*
X127534451Y-530650D01*
X128374285Y-878520D01*
X129283315Y-878520D01*
X130123149Y-530650D01*
X130765930Y112131D01*
X131113800Y951965D01*
X131113800Y1851049D01*
X138463220Y1851049D01*
X138463220Y961911D01*
X138803479Y140454D01*
X139432194Y-488261D01*
X140253651Y-828520D01*
X141142789Y-828520D01*
X141964246Y-488261D01*
X142592961Y140454D01*
X142933220Y961911D01*
X142933220Y1851049D01*
X142592961Y2672506D01*
X142537191Y2728276D01*
X144076380Y2728276D01*
X144076380Y2097724D01*
X144317682Y1515170D01*
X144763550Y1069302D01*
X145346104Y828000D01*
X145976656Y828000D01*
X146559210Y1069302D01*
X147005078Y1515170D01*
X147246380Y2097724D01*
X147246380Y2728276D01*
X147005078Y3310830D01*
X146559210Y3756698D01*
X145976656Y3998000D01*
X145346104Y3998000D01*
X144763550Y3756698D01*
X144317682Y3310830D01*
X144076380Y2728276D01*
X142537191Y2728276D01*
X141964246Y3301221D01*
X141142789Y3641480D01*
X140253651Y3641480D01*
X139432194Y3301221D01*
X138803479Y2672506D01*
X138463220Y1851049D01*
X131113800Y1851049D01*
X131113800Y1860995D01*
X130765930Y2700829D01*
X130123149Y3343610D01*
X129283315Y3691480D01*
X128374285Y3691480D01*
X127534451Y3343610D01*
X126891670Y2700829D01*
X126543800Y1860995D01*
X123332471Y1860995D01*
X123477020Y2209964D01*
X123477020Y2641436D01*
X123311902Y3040065D01*
X123006805Y3345162D01*
X122608176Y3510280D01*
X122176704Y3510280D01*
X121778075Y3345162D01*
X121472978Y3040065D01*
X121307860Y2641436D01*
X119077740Y2641436D01*
X118912622Y3040065D01*
X118607525Y3345162D01*
X118208896Y3510280D01*
X117777424Y3510280D01*
X117378795Y3345162D01*
X117073698Y3040065D01*
X116908580Y2641436D01*
X113487557Y2641436D01*
X113451541Y2728386D01*
X112822826Y3357101D01*
X112001369Y3697360D01*
X111112231Y3697360D01*
X110290774Y3357101D01*
X109662059Y2728386D01*
X109321800Y1906929D01*
X101972380Y1906929D01*
X101972380Y1916875D01*
X101624510Y2756709D01*
X100981729Y3399490D01*
X100141895Y3747360D01*
X99232865Y3747360D01*
X98393031Y3399490D01*
X97750250Y2756709D01*
X97402380Y1916875D01*
X96250417Y1916875D01*
X96326380Y2100264D01*
X96326380Y2730816D01*
X96085078Y3313370D01*
X95639210Y3759238D01*
X95056656Y4000540D01*
X94426104Y4000540D01*
X93843550Y3759238D01*
X93397682Y3313370D01*
X93156380Y2730816D01*
X88826380Y2730816D01*
X88585078Y3313370D01*
X88139210Y3759238D01*
X87556656Y4000540D01*
X86926104Y4000540D01*
X86343550Y3759238D01*
X85925534Y3341222D01*
X85925534Y6312054D01*
X154475536Y6312054D01*
X154475536Y3342912D01*
X154059210Y3759238D01*
X153476656Y4000540D01*
X152846104Y4000540D01*
X152263550Y3759238D01*
X151817682Y3313370D01*
X151576380Y2730816D01*
X151576380Y2100264D01*
X151817682Y1517710D01*
X152263550Y1071842D01*
X152846104Y830540D01*
X153476656Y830540D01*
X154059210Y1071842D01*
X154475537Y1488169D01*
X154475537Y-1657089D01*
X154059210Y-1240762D01*
X153476656Y-999460D01*
X152846104Y-999460D01*
X152263550Y-1240762D01*
X151817682Y-1686630D01*
X151576380Y-2269184D01*
X151576380Y-2899736D01*
X151817682Y-3482290D01*
X152263550Y-3928158D01*
X152846104Y-4169460D01*
X153476656Y-4169460D01*
X154059210Y-3928158D01*
X154505078Y-3482290D01*
X154563380Y-3341538D01*
X154666679Y-3496137D01*
X154893263Y-3647535D01*
X155093074Y-3687280D01*
X155093075Y-3687280D01*
X155160536Y-3700699D01*
X155227998Y-3687280D01*
X156092981Y-3687280D01*
X156160442Y-3700699D01*
X156427715Y-3647535D01*
X156654299Y-3496137D01*
X156805697Y-3269553D01*
X156845442Y-3069742D01*
X156845442Y-3069741D01*
X156858861Y-3002280D01*
X156845442Y-2934818D01*
X156845442Y464460D01*
X238065840Y464460D01*
X238065840Y-464460D01*
X238421323Y-1322671D01*
X239078169Y-1979517D01*
X239936380Y-2335000D01*
X240865300Y-2335000D01*
X241723511Y-1979517D01*
X242380357Y-1322671D01*
X242735840Y-464460D01*
X242735840Y464460D01*
X242380357Y1322671D01*
X241723511Y1979517D01*
X240865300Y2335000D01*
X239936380Y2335000D01*
X239078169Y1979517D01*
X238421323Y1322671D01*
X238065840Y464460D01*
X156845442Y464460D01*
X156845442Y3371300D01*
X156925423Y3178209D01*
X157582269Y2521363D01*
X158440480Y2165880D01*
X159369400Y2165880D01*
X160227611Y2521363D01*
X160884457Y3178209D01*
X161239940Y4036420D01*
X161239940Y4373880D01*
X162869040Y4373880D01*
X162869040Y3973880D01*
X163034486Y3396128D01*
X163408434Y2925668D01*
X163933954Y2634124D01*
X164039300Y2609844D01*
X164277040Y2730502D01*
X164277040Y4373880D01*
X162869040Y4373880D01*
X161239940Y4373880D01*
X161239940Y4965340D01*
X160884457Y5823551D01*
X160392445Y6315563D01*
X163840090Y6315563D01*
X163408434Y6076092D01*
X163034486Y5605632D01*
X162869040Y5027880D01*
X162869040Y4627880D01*
X164277040Y4627880D01*
X164277040Y4647880D01*
X164531040Y4647880D01*
X164531040Y4627880D01*
X164551040Y4627880D01*
X164551040Y4373880D01*
X164531040Y4373880D01*
X164531040Y2730502D01*
X164768780Y2609844D01*
X164874126Y2634124D01*
X165399646Y2925668D01*
X165662338Y3256158D01*
X165837368Y2994207D01*
X166345114Y2654942D01*
X166944040Y2535808D01*
X167542967Y2654942D01*
X168050713Y2994207D01*
X168214040Y3238644D01*
X168377368Y2994207D01*
X168885114Y2654942D01*
X169484040Y2535808D01*
X170082967Y2654942D01*
X170590713Y2994207D01*
X170754040Y3238644D01*
X170917368Y2994207D01*
X171425114Y2654942D01*
X172024040Y2535808D01*
X172622967Y2654942D01*
X173130713Y2994207D01*
X173294040Y3238644D01*
X173457368Y2994207D01*
X173965114Y2654942D01*
X174564040Y2535808D01*
X175162967Y2654942D01*
X175670713Y2994207D01*
X175834040Y3238644D01*
X175997368Y2994207D01*
X176505114Y2654942D01*
X177104040Y2535808D01*
X177702967Y2654942D01*
X178210713Y2994207D01*
X178385743Y3256157D01*
X178648434Y2925668D01*
X179173954Y2634124D01*
X179279300Y2609844D01*
X179517040Y2730502D01*
X179517040Y4373880D01*
X179771040Y4373880D01*
X179771040Y2730502D01*
X180008780Y2609844D01*
X180114126Y2634124D01*
X180639646Y2925668D01*
X180914040Y3270880D01*
X181188434Y2925668D01*
X181713954Y2634124D01*
X181819300Y2609844D01*
X182057040Y2730502D01*
X182057040Y4373880D01*
X182311040Y4373880D01*
X182311040Y2730502D01*
X182548780Y2609844D01*
X182654126Y2634124D01*
X183179646Y2925668D01*
X183454040Y3270880D01*
X183728434Y2925668D01*
X184253954Y2634124D01*
X184359300Y2609844D01*
X184597040Y2730502D01*
X184597040Y4373880D01*
X184851040Y4373880D01*
X184851040Y2730502D01*
X185088780Y2609844D01*
X185194126Y2634124D01*
X185719646Y2925668D01*
X185994040Y3270880D01*
X186268434Y2925668D01*
X186793954Y2634124D01*
X186899300Y2609844D01*
X187137040Y2730502D01*
X187137040Y4373880D01*
X184851040Y4373880D01*
X184597040Y4373880D01*
X182311040Y4373880D01*
X182057040Y4373880D01*
X179771040Y4373880D01*
X179517040Y4373880D01*
X179497040Y4373880D01*
X179497040Y4627880D01*
X179517040Y4627880D01*
X179517040Y4647880D01*
X179771040Y4647880D01*
X179771040Y4627880D01*
X182057040Y4627880D01*
X182057040Y4647880D01*
X182311040Y4647880D01*
X182311040Y4627880D01*
X184597040Y4627880D01*
X184597040Y4647880D01*
X184851040Y4647880D01*
X184851040Y4627880D01*
X187137040Y4627880D01*
X187137040Y4647880D01*
X187391040Y4647880D01*
X187391040Y4627880D01*
X187411040Y4627880D01*
X187411040Y4373880D01*
X187391040Y4373880D01*
X187391040Y2730502D01*
X187628780Y2609844D01*
X187734126Y2634124D01*
X188259646Y2925668D01*
X188522338Y3256158D01*
X188697368Y2994207D01*
X189205114Y2654942D01*
X189804040Y2535808D01*
X190402967Y2654942D01*
X190910713Y2994207D01*
X191074040Y3238644D01*
X191237368Y2994207D01*
X191745114Y2654942D01*
X192344040Y2535808D01*
X192942967Y2654942D01*
X193450713Y2994207D01*
X193614040Y3238644D01*
X193777368Y2994207D01*
X194285114Y2654942D01*
X194884040Y2535808D01*
X195482967Y2654942D01*
X195990713Y2994207D01*
X196154040Y3238644D01*
X196317368Y2994207D01*
X196825114Y2654942D01*
X197424040Y2535808D01*
X198022967Y2654942D01*
X198530713Y2994207D01*
X198694040Y3238644D01*
X198857368Y2994207D01*
X199365114Y2654942D01*
X199964040Y2535808D01*
X200562967Y2654942D01*
X201070713Y2994207D01*
X201234040Y3238644D01*
X201397368Y2994207D01*
X201905114Y2654942D01*
X202504040Y2535808D01*
X203102967Y2654942D01*
X203610713Y2994207D01*
X203949978Y3501953D01*
X204039040Y3949699D01*
X204039040Y5052062D01*
X203949978Y5499807D01*
X203610713Y6007553D01*
X203149743Y6315563D01*
X232416015Y6315563D01*
X231924003Y5823551D01*
X231568520Y4965340D01*
X231568520Y4036420D01*
X231924003Y3178209D01*
X232580849Y2521363D01*
X233439060Y2165880D01*
X234367980Y2165880D01*
X235226191Y2521363D01*
X235883037Y3178209D01*
X236238520Y4036420D01*
X236238520Y4965340D01*
X235883037Y5823551D01*
X235391025Y6315563D01*
X244215445Y6315563D01*
X244215444Y-50810040D01*
X-3814561Y-50810040D01*
X-3814561Y-47031000D01*
X-2332460Y-47031000D01*
X-2332460Y-47959920D01*
X-1976977Y-48818131D01*
X-1320131Y-49474977D01*
X-461920Y-49830460D01*
X467000Y-49830460D01*
X1325211Y-49474977D01*
X1982057Y-48818131D01*
X2337540Y-47959920D01*
X2337540Y-47031000D01*
X238065840Y-47031000D01*
X238065840Y-47959920D01*
X238421323Y-48818131D01*
X239078169Y-49474977D01*
X239936380Y-49830460D01*
X240865300Y-49830460D01*
X241723511Y-49474977D01*
X242380357Y-48818131D01*
X242735840Y-47959920D01*
X242735840Y-47031000D01*
X242380357Y-46172789D01*
X241723511Y-45515943D01*
X240865300Y-45160460D01*
X239936380Y-45160460D01*
X239078169Y-45515943D01*
X238421323Y-46172789D01*
X238065840Y-47031000D01*
X2337540Y-47031000D01*
X1982057Y-46172789D01*
X1325211Y-45515943D01*
X467000Y-45160460D01*
X-461920Y-45160460D01*
X-1320131Y-45515943D01*
X-1976977Y-46172789D01*
X-2332460Y-47031000D01*
X-3814561Y-47031000D01*
X-3814561Y-44976019D01*
X128905840Y-44976019D01*
X128905840Y-45377821D01*
X129059603Y-45749039D01*
X129343721Y-46033157D01*
X129714939Y-46186920D01*
X130116741Y-46186920D01*
X130487959Y-46033157D01*
X130508696Y-46012420D01*
X157102984Y-46012420D01*
X157133721Y-46043157D01*
X157504939Y-46196920D01*
X157906741Y-46196920D01*
X158277959Y-46043157D01*
X158562077Y-45759039D01*
X158715840Y-45387821D01*
X158715840Y-44986019D01*
X158562077Y-44614801D01*
X158277959Y-44330683D01*
X157906741Y-44176920D01*
X157504939Y-44176920D01*
X157133721Y-44330683D01*
X157102984Y-44361420D01*
X130528696Y-44361420D01*
X130487959Y-44320683D01*
X130116741Y-44166920D01*
X129714939Y-44166920D01*
X129343721Y-44320683D01*
X129059603Y-44604801D01*
X128905840Y-44976019D01*
X-3814561Y-44976019D01*
X-3814561Y-39885620D01*
X34412180Y-39885620D01*
X34412180Y-41917620D01*
X34461463Y-42165385D01*
X34601811Y-42375429D01*
X34811855Y-42515777D01*
X35059620Y-42565060D01*
X37091620Y-42565060D01*
X37339385Y-42515777D01*
X37549429Y-42375429D01*
X37654282Y-42218507D01*
X37750802Y-42308005D01*
X38232676Y-42507595D01*
X38488620Y-42388456D01*
X38488620Y-41028620D01*
X38742620Y-41028620D01*
X38742620Y-42388456D01*
X38998564Y-42507595D01*
X39480438Y-42308005D01*
X39952808Y-41869999D01*
X40221603Y-41284566D01*
X40102987Y-41028620D01*
X38742620Y-41028620D01*
X38488620Y-41028620D01*
X38468620Y-41028620D01*
X38468620Y-40774620D01*
X38488620Y-40774620D01*
X38488620Y-39414784D01*
X38742620Y-39414784D01*
X38742620Y-40774620D01*
X40102987Y-40774620D01*
X40221603Y-40518674D01*
X39952808Y-39933241D01*
X39901451Y-39885620D01*
X43373300Y-39885620D01*
X43373300Y-41917620D01*
X43422583Y-42165385D01*
X43562931Y-42375429D01*
X43772975Y-42515777D01*
X44020740Y-42565060D01*
X46052740Y-42565060D01*
X46300505Y-42515777D01*
X46510549Y-42375429D01*
X46615402Y-42218507D01*
X46711922Y-42308005D01*
X47193796Y-42507595D01*
X47449740Y-42388456D01*
X47449740Y-41028620D01*
X47703740Y-41028620D01*
X47703740Y-42388456D01*
X47959684Y-42507595D01*
X48441558Y-42308005D01*
X48913928Y-41869999D01*
X49182723Y-41284566D01*
X49064107Y-41028620D01*
X47703740Y-41028620D01*
X47449740Y-41028620D01*
X47429740Y-41028620D01*
X47429740Y-40774620D01*
X47449740Y-40774620D01*
X47449740Y-39414784D01*
X47703740Y-39414784D01*
X47703740Y-40774620D01*
X49064107Y-40774620D01*
X49182723Y-40518674D01*
X48913928Y-39933241D01*
X48441558Y-39495235D01*
X47959684Y-39295645D01*
X47703740Y-39414784D01*
X47449740Y-39414784D01*
X47193796Y-39295645D01*
X46711922Y-39495235D01*
X46615402Y-39584733D01*
X46510549Y-39427811D01*
X46300505Y-39287463D01*
X46052740Y-39238180D01*
X44020740Y-39238180D01*
X43772975Y-39287463D01*
X43562931Y-39427811D01*
X43422583Y-39637855D01*
X43373300Y-39885620D01*
X39901451Y-39885620D01*
X39480438Y-39495235D01*
X38998564Y-39295645D01*
X38742620Y-39414784D01*
X38488620Y-39414784D01*
X38232676Y-39295645D01*
X37750802Y-39495235D01*
X37654282Y-39584733D01*
X37549429Y-39427811D01*
X37339385Y-39287463D01*
X37091620Y-39238180D01*
X35059620Y-39238180D01*
X34811855Y-39287463D01*
X34601811Y-39427811D01*
X34461463Y-39637855D01*
X34412180Y-39885620D01*
X-3814561Y-39885620D01*
X-3814561Y-34860937D01*
X-1732560Y-34860937D01*
X-1732560Y-35232903D01*
X-1590215Y-35576555D01*
X-1559560Y-35607210D01*
X-1559560Y-35797377D01*
X-1574487Y-35872420D01*
X-1559560Y-35947463D01*
X-1559560Y-35947468D01*
X-1532852Y-36081733D01*
X-1519581Y-36148451D01*
X-1590215Y-36219085D01*
X-1732560Y-36562737D01*
X-1732560Y-36934703D01*
X-1590215Y-37278355D01*
X-1327195Y-37541375D01*
X-1186579Y-37599620D01*
X-1327195Y-37657865D01*
X-1590215Y-37920885D01*
X-1732560Y-38264537D01*
X-1732560Y-38636503D01*
X-1590215Y-38980155D01*
X-1327195Y-39243175D01*
X-983543Y-39385520D01*
X-611577Y-39385520D01*
X-267925Y-39243175D01*
X-237270Y-39212520D01*
X89491311Y-39212520D01*
X89400840Y-39430937D01*
X89400840Y-39802903D01*
X89543185Y-40146555D01*
X89756335Y-40359705D01*
X89697560Y-40384050D01*
X89293298Y-40216600D01*
X88831822Y-40216600D01*
X88405473Y-40393199D01*
X88079159Y-40719513D01*
X87902560Y-41145862D01*
X87902560Y-41607338D01*
X87984803Y-41805890D01*
X87939403Y-41873835D01*
X87890120Y-42121600D01*
X87890120Y-43171600D01*
X87939403Y-43419365D01*
X88079751Y-43629409D01*
X88289795Y-43769757D01*
X88537560Y-43819040D01*
X89587560Y-43819040D01*
X89835325Y-43769757D01*
X89901562Y-43725499D01*
X90181545Y-43819646D01*
X90641946Y-43788143D01*
X90920985Y-43672562D01*
X90958354Y-43470414D01*
X90967560Y-43461208D01*
X90976766Y-43470414D01*
X91014135Y-43672562D01*
X91451545Y-43819646D01*
X91911946Y-43788143D01*
X92190985Y-43672562D01*
X92201446Y-43615974D01*
X92215473Y-43630001D01*
X92641822Y-43806600D01*
X93103298Y-43806600D01*
X93529647Y-43630001D01*
X93543674Y-43615974D01*
X93554135Y-43672562D01*
X93991545Y-43819646D01*
X94451946Y-43788143D01*
X94730985Y-43672562D01*
X94771227Y-43454873D01*
X94142560Y-42826205D01*
X94128418Y-42840348D01*
X94032560Y-42744490D01*
X94032560Y-42548710D01*
X94044670Y-42536600D01*
X94224930Y-42536600D01*
X94328547Y-42640218D01*
X94322165Y-42646600D01*
X94950833Y-43275267D01*
X94961605Y-43273276D01*
X94988318Y-43299989D01*
X95030829Y-43363611D01*
X95282883Y-43532028D01*
X95505152Y-43576240D01*
X95505157Y-43576240D01*
X95580200Y-43591167D01*
X95655243Y-43576240D01*
X106223477Y-43576240D01*
X106298520Y-43591167D01*
X106373563Y-43576240D01*
X106373568Y-43576240D01*
X106595837Y-43532028D01*
X106847891Y-43363611D01*
X106890403Y-43299987D01*
X107917500Y-42272890D01*
X108206015Y-42465670D01*
X108790740Y-42581979D01*
X109375464Y-42465670D01*
X109871170Y-42134450D01*
X110064650Y-41844888D01*
X110428704Y-42252352D01*
X110955949Y-42506329D01*
X110971714Y-42508978D01*
X111203740Y-42387837D01*
X111203740Y-41028620D01*
X111183740Y-41028620D01*
X111183740Y-40774620D01*
X111203740Y-40774620D01*
X111203740Y-40754620D01*
X111457740Y-40754620D01*
X111457740Y-40774620D01*
X111477740Y-40774620D01*
X111477740Y-41028620D01*
X111457740Y-41028620D01*
X111457740Y-42387837D01*
X111689766Y-42508978D01*
X111705531Y-42506329D01*
X112232776Y-42252352D01*
X112596831Y-41844887D01*
X112790310Y-42134450D01*
X113286015Y-42465670D01*
X113870740Y-42581979D01*
X114455464Y-42465670D01*
X114951170Y-42134450D01*
X115140740Y-41850739D01*
X115330310Y-42134450D01*
X115826015Y-42465670D01*
X116410740Y-42581979D01*
X116995464Y-42465670D01*
X117491170Y-42134450D01*
X117684650Y-41844888D01*
X118048704Y-42252352D01*
X118575949Y-42506329D01*
X118591714Y-42508978D01*
X118823740Y-42387837D01*
X118823740Y-41028620D01*
X118803740Y-41028620D01*
X118803740Y-40774620D01*
X118823740Y-40774620D01*
X118823740Y-40754620D01*
X119077740Y-40754620D01*
X119077740Y-40774620D01*
X119097740Y-40774620D01*
X119097740Y-41028620D01*
X119077740Y-41028620D01*
X119077740Y-42387837D01*
X119309766Y-42508978D01*
X119325531Y-42506329D01*
X119852776Y-42252352D01*
X120216831Y-41844887D01*
X120410310Y-42134450D01*
X120906015Y-42465670D01*
X121490740Y-42581979D01*
X122075464Y-42465670D01*
X122571170Y-42134450D01*
X122760740Y-41850739D01*
X122950310Y-42134450D01*
X123446015Y-42465670D01*
X124030740Y-42581979D01*
X124615464Y-42465670D01*
X125111170Y-42134450D01*
X125300740Y-41850739D01*
X125490310Y-42134450D01*
X125986015Y-42465670D01*
X126570740Y-42581979D01*
X127155464Y-42465670D01*
X127643808Y-42139369D01*
X127648983Y-42165385D01*
X127789331Y-42375429D01*
X127999375Y-42515777D01*
X128247140Y-42565060D01*
X129974340Y-42565060D01*
X130222105Y-42515777D01*
X130432149Y-42375429D01*
X130572497Y-42165385D01*
X130621780Y-41917620D01*
X130621780Y-40063420D01*
X186567410Y-40063420D01*
X186807100Y-40303110D01*
X186807100Y-41904920D01*
X186856383Y-42152685D01*
X186996731Y-42362729D01*
X187206775Y-42503077D01*
X187454540Y-42552360D01*
X189486540Y-42552360D01*
X189734305Y-42503077D01*
X189944349Y-42362729D01*
X190043962Y-42213648D01*
X190145722Y-42308005D01*
X190627596Y-42507595D01*
X190883540Y-42388456D01*
X190883540Y-41028620D01*
X191137540Y-41028620D01*
X191137540Y-42388456D01*
X191393484Y-42507595D01*
X191875358Y-42308005D01*
X192347728Y-41869999D01*
X192616523Y-41284566D01*
X192497907Y-41028620D01*
X191137540Y-41028620D01*
X190883540Y-41028620D01*
X190863540Y-41028620D01*
X190863540Y-40774620D01*
X190883540Y-40774620D01*
X190883540Y-40754620D01*
X191137540Y-40754620D01*
X191137540Y-40774620D01*
X192497907Y-40774620D01*
X192616523Y-40518674D01*
X192347728Y-39933241D01*
X192022443Y-39631620D01*
X195094190Y-39631620D01*
X195778380Y-40315810D01*
X195778380Y-41917620D01*
X195827663Y-42165385D01*
X195968011Y-42375429D01*
X196178055Y-42515777D01*
X196425820Y-42565060D01*
X198457820Y-42565060D01*
X198705585Y-42515777D01*
X198915629Y-42375429D01*
X199020482Y-42218507D01*
X199117002Y-42308005D01*
X199598876Y-42507595D01*
X199854820Y-42388456D01*
X199854820Y-41028620D01*
X200108820Y-41028620D01*
X200108820Y-42388456D01*
X200364764Y-42507595D01*
X200846638Y-42308005D01*
X201319008Y-41869999D01*
X201587803Y-41284566D01*
X201469187Y-41028620D01*
X200108820Y-41028620D01*
X199854820Y-41028620D01*
X199834820Y-41028620D01*
X199834820Y-40774620D01*
X199854820Y-40774620D01*
X199854820Y-39414784D01*
X200108820Y-39414784D01*
X200108820Y-40774620D01*
X201469187Y-40774620D01*
X201587803Y-40518674D01*
X201319008Y-39933241D01*
X200846638Y-39495235D01*
X200364764Y-39295645D01*
X200108820Y-39414784D01*
X199854820Y-39414784D01*
X199598876Y-39295645D01*
X199117002Y-39495235D01*
X199020482Y-39584733D01*
X198915629Y-39427811D01*
X198705585Y-39287463D01*
X198457820Y-39238180D01*
X196856010Y-39238180D01*
X196830350Y-39212520D01*
X227239610Y-39212520D01*
X227270265Y-39243175D01*
X227613917Y-39385520D01*
X227985883Y-39385520D01*
X228329535Y-39243175D01*
X228592555Y-38980155D01*
X228734900Y-38636503D01*
X228734900Y-38264537D01*
X228592555Y-37920885D01*
X228329535Y-37657865D01*
X228190189Y-37600146D01*
X228332075Y-37541375D01*
X228595095Y-37278355D01*
X228737440Y-36934703D01*
X228737440Y-36562737D01*
X228595095Y-36219085D01*
X228332075Y-35956065D01*
X228191459Y-35897820D01*
X228332075Y-35839575D01*
X228595095Y-35576555D01*
X228737440Y-35232903D01*
X228737440Y-34860937D01*
X228595095Y-34517285D01*
X228332075Y-34254265D01*
X227988423Y-34111920D01*
X227616457Y-34111920D01*
X227272805Y-34254265D01*
X227009785Y-34517285D01*
X226867440Y-34860937D01*
X226867440Y-34904289D01*
X224972210Y-36799520D01*
X152537440Y-36799520D01*
X152537440Y-36562737D01*
X152395095Y-36219085D01*
X152132075Y-35956065D01*
X151985109Y-35895190D01*
X152119375Y-35839575D01*
X152382395Y-35576555D01*
X152524740Y-35232903D01*
X152524740Y-34860937D01*
X152382395Y-34517285D01*
X152119375Y-34254265D01*
X151775723Y-34111920D01*
X151403757Y-34111920D01*
X151060105Y-34254265D01*
X150797085Y-34517285D01*
X150654740Y-34860937D01*
X150654740Y-34904289D01*
X150423210Y-35135820D01*
X150153487Y-35135820D01*
X150078440Y-35120892D01*
X150003393Y-35135820D01*
X150003392Y-35135820D01*
X149781123Y-35180032D01*
X149529069Y-35348449D01*
X149509912Y-35377120D01*
X112790840Y-35377120D01*
X112790840Y-35240937D01*
X112648495Y-34897285D01*
X112617840Y-34866630D01*
X112617840Y-34577210D01*
X112648495Y-34546555D01*
X112790840Y-34202903D01*
X112790840Y-33830937D01*
X112648495Y-33487285D01*
X112385475Y-33224265D01*
X112041823Y-33081920D01*
X111669857Y-33081920D01*
X111326205Y-33224265D01*
X111063185Y-33487285D01*
X110920840Y-33830937D01*
X110920840Y-34202903D01*
X111063185Y-34546555D01*
X111093841Y-34577211D01*
X111093841Y-34634090D01*
X110886240Y-34426490D01*
X110886240Y-33714910D01*
X110916895Y-33684255D01*
X111059240Y-33340603D01*
X111059240Y-32968637D01*
X110916895Y-32624985D01*
X110653875Y-32361965D01*
X110310223Y-32219620D01*
X109938257Y-32219620D01*
X109635290Y-32345113D01*
X109332323Y-32219620D01*
X109114270Y-32219620D01*
X110027310Y-31306580D01*
X110051805Y-31331075D01*
X110395457Y-31473420D01*
X110767423Y-31473420D01*
X111111075Y-31331075D01*
X111374095Y-31068055D01*
X111516440Y-30724403D01*
X111516440Y-30352437D01*
X111486824Y-30280937D01*
X117520840Y-30280937D01*
X117520840Y-30652903D01*
X117663185Y-30996555D01*
X117693840Y-31027210D01*
X117693841Y-32636629D01*
X117663185Y-32667285D01*
X117520840Y-33010937D01*
X117520840Y-33382903D01*
X117663185Y-33726555D01*
X117926205Y-33989575D01*
X118269857Y-34131920D01*
X118641823Y-34131920D01*
X118985475Y-33989575D01*
X119248495Y-33726555D01*
X119390840Y-33382903D01*
X119390840Y-33010937D01*
X119248495Y-32667285D01*
X119217840Y-32636630D01*
X119217840Y-32612670D01*
X137547240Y-32612670D01*
X137547240Y-33469229D01*
X137643913Y-33702618D01*
X137822541Y-33881247D01*
X138055930Y-33977920D01*
X138760090Y-33977920D01*
X138918840Y-33819170D01*
X138918840Y-32453920D01*
X137705990Y-32453920D01*
X137547240Y-32612670D01*
X119217840Y-32612670D01*
X119217840Y-31184611D01*
X137547240Y-31184611D01*
X137547240Y-32041170D01*
X137705990Y-32199920D01*
X138918840Y-32199920D01*
X138918840Y-30834670D01*
X139172840Y-30834670D01*
X139172840Y-32199920D01*
X139192840Y-32199920D01*
X139192840Y-32453920D01*
X139172840Y-32453920D01*
X139172840Y-33819170D01*
X139331590Y-33977920D01*
X140035750Y-33977920D01*
X140269139Y-33881247D01*
X140447767Y-33702618D01*
X140506612Y-33560553D01*
X141001116Y-33890970D01*
X141585840Y-34007279D01*
X142170565Y-33890970D01*
X142666270Y-33559750D01*
X142855840Y-33276039D01*
X143045410Y-33559750D01*
X143541116Y-33890970D01*
X144125840Y-34007279D01*
X144710565Y-33890970D01*
X145206270Y-33559750D01*
X145537490Y-33064044D01*
X145624440Y-32626917D01*
X145624440Y-32026922D01*
X145537490Y-31589795D01*
X145206270Y-31094090D01*
X144710564Y-30762870D01*
X144125840Y-30646561D01*
X143541115Y-30762870D01*
X143045410Y-31094090D01*
X142855840Y-31377801D01*
X142666270Y-31094090D01*
X142170564Y-30762870D01*
X141585840Y-30646561D01*
X141001115Y-30762870D01*
X140506612Y-31093287D01*
X140447767Y-30951222D01*
X140269139Y-30772593D01*
X140035750Y-30675920D01*
X139331590Y-30675920D01*
X139172840Y-30834670D01*
X138918840Y-30834670D01*
X138760090Y-30675920D01*
X138055930Y-30675920D01*
X137822541Y-30772593D01*
X137643913Y-30951222D01*
X137547240Y-31184611D01*
X119217840Y-31184611D01*
X119217840Y-31027210D01*
X119248495Y-30996555D01*
X119390840Y-30652903D01*
X119390840Y-30280937D01*
X119248495Y-29937285D01*
X118985475Y-29674265D01*
X118641823Y-29531920D01*
X118269857Y-29531920D01*
X117926205Y-29674265D01*
X117663185Y-29937285D01*
X117520840Y-30280937D01*
X111486824Y-30280937D01*
X111374095Y-30008785D01*
X111192530Y-29827220D01*
X111424895Y-29594855D01*
X111567240Y-29251203D01*
X111567240Y-29207850D01*
X111836171Y-28938920D01*
X147640797Y-28938920D01*
X147715840Y-28953847D01*
X147790883Y-28938920D01*
X147790888Y-28938920D01*
X148013157Y-28894708D01*
X148265211Y-28726291D01*
X148307723Y-28662667D01*
X148435670Y-28534720D01*
X149066780Y-28534720D01*
X149066780Y-29463640D01*
X149422263Y-30321851D01*
X150079109Y-30978697D01*
X150937320Y-31334180D01*
X151866240Y-31334180D01*
X152724451Y-30978697D01*
X153381297Y-30321851D01*
X153736780Y-29463640D01*
X153736780Y-28534720D01*
X153381297Y-27676509D01*
X152724451Y-27019663D01*
X151866240Y-26664180D01*
X150937320Y-26664180D01*
X150079109Y-27019663D01*
X149422263Y-27676509D01*
X149066780Y-28534720D01*
X148435670Y-28534720D01*
X152731471Y-24238920D01*
X158261587Y-24238920D01*
X157582269Y-24520303D01*
X156925423Y-25177149D01*
X156569940Y-26035360D01*
X156569940Y-26964280D01*
X156925423Y-27822491D01*
X157582269Y-28479337D01*
X158440480Y-28834820D01*
X159369400Y-28834820D01*
X160227611Y-28479337D01*
X160884457Y-27822491D01*
X161239940Y-26964280D01*
X161239940Y-26035360D01*
X160884457Y-25177149D01*
X160227611Y-24520303D01*
X159548293Y-24238920D01*
X189540210Y-24238920D01*
X199420840Y-34119551D01*
X199420840Y-34162903D01*
X199563185Y-34506555D01*
X199826205Y-34769575D01*
X200169857Y-34911920D01*
X200541823Y-34911920D01*
X200885475Y-34769575D01*
X201148495Y-34506555D01*
X201290840Y-34162903D01*
X201290840Y-33790937D01*
X201148495Y-33447285D01*
X200885475Y-33184265D01*
X200541823Y-33041920D01*
X200498471Y-33041920D01*
X193491911Y-26035360D01*
X231568520Y-26035360D01*
X231568520Y-26964280D01*
X231924003Y-27822491D01*
X232580849Y-28479337D01*
X233439060Y-28834820D01*
X234367980Y-28834820D01*
X235226191Y-28479337D01*
X235883037Y-27822491D01*
X236238520Y-26964280D01*
X236238520Y-26035360D01*
X235883037Y-25177149D01*
X235226191Y-24520303D01*
X234367980Y-24164820D01*
X233439060Y-24164820D01*
X232580849Y-24520303D01*
X231924003Y-25177149D01*
X231568520Y-26035360D01*
X193491911Y-26035360D01*
X190447724Y-22991173D01*
X190405211Y-22927549D01*
X190153157Y-22759132D01*
X189930888Y-22714920D01*
X189930883Y-22714920D01*
X189855840Y-22699993D01*
X189780797Y-22714920D01*
X178039040Y-22714920D01*
X178039040Y-22701957D01*
X177896695Y-22358305D01*
X177633675Y-22095285D01*
X177290023Y-21952940D01*
X176918057Y-21952940D01*
X176574405Y-22095285D01*
X176543750Y-22125940D01*
X175404584Y-22125940D01*
X175499040Y-21897903D01*
X175499040Y-21889720D01*
X191783750Y-21889720D01*
X191814405Y-21920375D01*
X192158057Y-22062720D01*
X192530023Y-22062720D01*
X192873675Y-21920375D01*
X193136695Y-21657355D01*
X193279040Y-21313703D01*
X193279040Y-21305520D01*
X196863750Y-21305520D01*
X196894405Y-21336175D01*
X197238057Y-21478520D01*
X197610023Y-21478520D01*
X197953675Y-21336175D01*
X198216695Y-21073155D01*
X198359040Y-20729503D01*
X198359040Y-20357537D01*
X198216695Y-20013885D01*
X197953675Y-19750865D01*
X197610023Y-19608520D01*
X197238057Y-19608520D01*
X196894405Y-19750865D01*
X196863750Y-19781520D01*
X195727740Y-19781520D01*
X195819040Y-19561103D01*
X195819040Y-19189137D01*
X195676695Y-18845485D01*
X195533230Y-18702020D01*
X199361184Y-18702020D01*
X199391921Y-18732757D01*
X199763139Y-18886520D01*
X200164941Y-18886520D01*
X200536159Y-18732757D01*
X200820277Y-18448639D01*
X200974040Y-18077421D01*
X200974040Y-17675619D01*
X200820277Y-17304401D01*
X200536159Y-17020283D01*
X200164941Y-16866520D01*
X199763139Y-16866520D01*
X199391921Y-17020283D01*
X199361184Y-17051020D01*
X167546896Y-17051020D01*
X167516159Y-17020283D01*
X167144941Y-16866520D01*
X166743139Y-16866520D01*
X166371921Y-17020283D01*
X166341184Y-17051020D01*
X156777180Y-17051020D01*
X156516625Y-16943095D01*
X156651191Y-16853181D01*
X156802589Y-16626597D01*
X156855753Y-16359324D01*
X156842334Y-16291862D01*
X156842334Y-6676542D01*
X156855753Y-6609080D01*
X156802589Y-6341807D01*
X156651191Y-6115223D01*
X156424607Y-5963825D01*
X156224796Y-5924080D01*
X156157334Y-5910661D01*
X156089873Y-5924080D01*
X155227998Y-5924080D01*
X155160536Y-5910661D01*
X155093075Y-5924080D01*
X155093074Y-5924080D01*
X154893263Y-5963825D01*
X154666679Y-6115223D01*
X154515281Y-6341807D01*
X154462117Y-6609080D01*
X154475537Y-6676547D01*
X154475536Y-14674485D01*
X137251698Y-14674485D01*
X137180320Y-14660287D01*
X136913048Y-14713451D01*
X136686464Y-14864849D01*
X136535066Y-15091433D01*
X136495321Y-15291244D01*
X136495321Y-15293175D01*
X136482131Y-15359485D01*
X136495321Y-15425795D01*
X136495320Y-16277051D01*
X136478955Y-16359324D01*
X136532119Y-16626597D01*
X136683517Y-16853181D01*
X136910101Y-17004579D01*
X137109912Y-17044324D01*
X137115503Y-17044324D01*
X137180320Y-17057217D01*
X137245137Y-17044324D01*
X155892666Y-17044324D01*
X155797205Y-17083865D01*
X155766550Y-17114520D01*
X152761282Y-17114520D01*
X152686239Y-17099593D01*
X152611196Y-17114520D01*
X152611192Y-17114520D01*
X152388923Y-17158732D01*
X152136869Y-17327149D01*
X152094358Y-17390771D01*
X146070210Y-23414920D01*
X121445721Y-23414920D01*
X121439688Y-23413720D01*
X121439683Y-23413720D01*
X121364640Y-23398793D01*
X121289597Y-23413720D01*
X119024930Y-23413720D01*
X118995475Y-23384265D01*
X118651823Y-23241920D01*
X118279857Y-23241920D01*
X117936205Y-23384265D01*
X117906750Y-23413720D01*
X107192030Y-23413720D01*
X107161375Y-23383065D01*
X106817723Y-23240720D01*
X106445757Y-23240720D01*
X106102105Y-23383065D01*
X105956960Y-23528210D01*
X105090023Y-22661273D01*
X105047511Y-22597649D01*
X104795457Y-22429232D01*
X104573188Y-22385020D01*
X104573183Y-22385020D01*
X104498140Y-22370093D01*
X104423097Y-22385020D01*
X87744971Y-22385020D01*
X82204623Y-16844673D01*
X82162111Y-16781049D01*
X81910057Y-16612632D01*
X81687788Y-16568420D01*
X81687783Y-16568420D01*
X81612740Y-16553493D01*
X81537697Y-16568420D01*
X43095130Y-16568420D01*
X43064475Y-16537765D01*
X42720823Y-16395420D01*
X42348857Y-16395420D01*
X42005205Y-16537765D01*
X41742185Y-16800785D01*
X41599840Y-17144437D01*
X41599840Y-17165320D01*
X37964330Y-17165320D01*
X37933675Y-17134665D01*
X37590023Y-16992320D01*
X37218057Y-16992320D01*
X36874405Y-17134665D01*
X36611385Y-17397685D01*
X36469040Y-17741337D01*
X36469040Y-18113303D01*
X36611385Y-18456955D01*
X36874405Y-18719975D01*
X37218057Y-18862320D01*
X37590023Y-18862320D01*
X37933675Y-18719975D01*
X37964330Y-18689320D01*
X39105600Y-18689320D01*
X39009040Y-18922437D01*
X39009040Y-18930620D01*
X22737030Y-18930620D01*
X22706375Y-18899965D01*
X22362723Y-18757620D01*
X21990757Y-18757620D01*
X21647105Y-18899965D01*
X21384085Y-19162985D01*
X21241740Y-19506637D01*
X21241740Y-19527520D01*
X20184330Y-19527520D01*
X20153675Y-19496865D01*
X19810023Y-19354520D01*
X19438057Y-19354520D01*
X19094405Y-19496865D01*
X18831385Y-19759885D01*
X18689040Y-20103537D01*
X18689040Y-20475503D01*
X18831385Y-20819155D01*
X19094405Y-21082175D01*
X19438057Y-21224520D01*
X19810023Y-21224520D01*
X20153675Y-21082175D01*
X20184330Y-21051520D01*
X23769040Y-21051520D01*
X23769040Y-21057163D01*
X23911385Y-21400815D01*
X24174405Y-21663835D01*
X24518057Y-21806180D01*
X24890023Y-21806180D01*
X25233675Y-21663835D01*
X25264330Y-21633180D01*
X81259010Y-21633180D01*
X85788437Y-26162608D01*
X85830949Y-26226231D01*
X86083003Y-26394648D01*
X86305272Y-26438860D01*
X86305273Y-26438860D01*
X86380320Y-26453788D01*
X86455367Y-26438860D01*
X97987840Y-26438860D01*
X97987840Y-26749303D01*
X98130185Y-27092955D01*
X98393205Y-27355975D01*
X98736857Y-27498320D01*
X99108823Y-27498320D01*
X99452475Y-27355975D01*
X99483130Y-27325320D01*
X102201310Y-27325320D01*
X102504241Y-27628251D01*
X102504241Y-27757120D01*
X101004487Y-27757120D01*
X100929440Y-27742192D01*
X100854393Y-27757120D01*
X100854392Y-27757120D01*
X100632123Y-27801332D01*
X100380069Y-27969749D01*
X100337558Y-28033371D01*
X99529510Y-28841420D01*
X99486157Y-28841420D01*
X99142505Y-28983765D01*
X99111850Y-29014420D01*
X98591487Y-29014420D01*
X98516440Y-28999492D01*
X98441393Y-29014420D01*
X98441392Y-29014420D01*
X98219123Y-29058632D01*
X97967069Y-29227049D01*
X97947912Y-29255720D01*
X95787430Y-29255720D01*
X95756775Y-29225065D01*
X95413123Y-29082720D01*
X95041157Y-29082720D01*
X94697505Y-29225065D01*
X94434485Y-29488085D01*
X94292140Y-29831737D01*
X94292140Y-30203703D01*
X94434485Y-30547355D01*
X94697505Y-30810375D01*
X95041157Y-30952720D01*
X95413123Y-30952720D01*
X95756775Y-30810375D01*
X95787430Y-30779720D01*
X98200097Y-30779720D01*
X98275140Y-30794647D01*
X98350183Y-30779720D01*
X98350188Y-30779720D01*
X98572457Y-30735508D01*
X98824511Y-30567091D01*
X98843668Y-30538420D01*
X99111850Y-30538420D01*
X99142505Y-30569075D01*
X99486157Y-30711420D01*
X99858123Y-30711420D01*
X100099336Y-30611506D01*
X100107705Y-30619875D01*
X100451357Y-30762220D01*
X100494710Y-30762220D01*
X100817010Y-31084520D01*
X94861283Y-31084520D01*
X94786240Y-31069593D01*
X94711197Y-31084520D01*
X94711192Y-31084520D01*
X94488923Y-31128732D01*
X94236869Y-31297149D01*
X94194358Y-31360771D01*
X92830210Y-32724920D01*
X73790882Y-32724920D01*
X73715839Y-32709993D01*
X73640796Y-32724920D01*
X73640792Y-32724920D01*
X73418523Y-32769132D01*
X73418522Y-32769133D01*
X73418521Y-32769133D01*
X73230091Y-32895038D01*
X73166469Y-32937549D01*
X73123958Y-33001171D01*
X71100210Y-35024920D01*
X50271471Y-35024920D01*
X50090840Y-34844290D01*
X50090840Y-34800937D01*
X49948495Y-34457285D01*
X49685475Y-34194265D01*
X49341823Y-34051920D01*
X48969857Y-34051920D01*
X48626205Y-34194265D01*
X48363185Y-34457285D01*
X48220840Y-34800937D01*
X48220840Y-35172903D01*
X48363185Y-35516555D01*
X48503150Y-35656520D01*
X36637730Y-35656520D01*
X36605475Y-35624265D01*
X36261823Y-35481920D01*
X35889857Y-35481920D01*
X35546205Y-35624265D01*
X35283185Y-35887285D01*
X35140840Y-36230937D01*
X35140840Y-36602903D01*
X35232802Y-36824920D01*
X1232571Y-36824920D01*
X-10350Y-35582000D01*
X-4905Y-35576555D01*
X137440Y-35232903D01*
X137440Y-34860937D01*
X-4905Y-34517285D01*
X-267925Y-34254265D01*
X-611577Y-34111920D01*
X-983543Y-34111920D01*
X-1327195Y-34254265D01*
X-1590215Y-34517285D01*
X-1732560Y-34860937D01*
X-3814561Y-34860937D01*
X-3814561Y-26035360D01*
X4169940Y-26035360D01*
X4169940Y-26964280D01*
X4525423Y-27822491D01*
X5182269Y-28479337D01*
X6040480Y-28834820D01*
X6969400Y-28834820D01*
X7827611Y-28479337D01*
X8484457Y-27822491D01*
X8839940Y-26964280D01*
X8839940Y-26035360D01*
X79168520Y-26035360D01*
X79168520Y-26964280D01*
X79524003Y-27822491D01*
X80180849Y-28479337D01*
X81039060Y-28834820D01*
X81967980Y-28834820D01*
X82692484Y-28534720D01*
X86666600Y-28534720D01*
X86666600Y-29463640D01*
X87022083Y-30321851D01*
X87678929Y-30978697D01*
X88537140Y-31334180D01*
X89466060Y-31334180D01*
X90324271Y-30978697D01*
X90981117Y-30321851D01*
X91336600Y-29463640D01*
X91336600Y-28534720D01*
X90981117Y-27676509D01*
X90324271Y-27019663D01*
X89466060Y-26664180D01*
X88537140Y-26664180D01*
X87678929Y-27019663D01*
X87022083Y-27676509D01*
X86666600Y-28534720D01*
X82692484Y-28534720D01*
X82826191Y-28479337D01*
X83483037Y-27822491D01*
X83838520Y-26964280D01*
X83838520Y-26035360D01*
X83483037Y-25177149D01*
X82826191Y-24520303D01*
X81967980Y-24164820D01*
X81039060Y-24164820D01*
X80180849Y-24520303D01*
X79524003Y-25177149D01*
X79168520Y-26035360D01*
X8839940Y-26035360D01*
X8484457Y-25177149D01*
X7827611Y-24520303D01*
X6969400Y-24164820D01*
X6040480Y-24164820D01*
X5182269Y-24520303D01*
X4525423Y-25177149D01*
X4169940Y-26035360D01*
X-3814561Y-26035360D01*
X-3814561Y-6385319D01*
X2993040Y-6385319D01*
X2993040Y-6787121D01*
X3146803Y-7158339D01*
X3430921Y-7442457D01*
X3802139Y-7596220D01*
X4203941Y-7596220D01*
X4575159Y-7442457D01*
X4605896Y-7411720D01*
X13941184Y-7411720D01*
X13971921Y-7442457D01*
X14343139Y-7596220D01*
X14744941Y-7596220D01*
X15116159Y-7442457D01*
X15146896Y-7411720D01*
X46961184Y-7411720D01*
X46991921Y-7442457D01*
X47363139Y-7596220D01*
X47764941Y-7596220D01*
X48136159Y-7442457D01*
X48420277Y-7158339D01*
X48574040Y-6787121D01*
X48574040Y-6609080D01*
X83542023Y-6609080D01*
X83555443Y-6676547D01*
X83555442Y-16292455D01*
X83542141Y-16359324D01*
X83555442Y-16426193D01*
X83555442Y-16426785D01*
X83595187Y-16626596D01*
X83746585Y-16853180D01*
X83973169Y-17004579D01*
X84240442Y-17057743D01*
X84307903Y-17044324D01*
X103155703Y-17044324D01*
X103220520Y-17057217D01*
X103285337Y-17044324D01*
X103287982Y-17044324D01*
X103487793Y-17004579D01*
X103714377Y-16853181D01*
X103865775Y-16626597D01*
X103918939Y-16359324D01*
X103905520Y-16291862D01*
X103905520Y-15561576D01*
X104227675Y-15428135D01*
X104258330Y-15397480D01*
X105172174Y-15397480D01*
X105177881Y-15426172D01*
X105177880Y-16291336D01*
X105164461Y-16358798D01*
X105217625Y-16626071D01*
X105369023Y-16852655D01*
X105595607Y-17004053D01*
X105677201Y-17020283D01*
X105862880Y-17057217D01*
X105930341Y-17043798D01*
X134470498Y-17043798D01*
X134537960Y-17057217D01*
X134605421Y-17043798D01*
X134605422Y-17043798D01*
X134805233Y-17004053D01*
X135031817Y-16852655D01*
X135183215Y-16626071D01*
X135236379Y-16358798D01*
X135222960Y-16291336D01*
X135222960Y-15426168D01*
X135236379Y-15358706D01*
X135183215Y-15091433D01*
X135031817Y-14864849D01*
X134805233Y-14713451D01*
X134605422Y-14673706D01*
X134537960Y-14660287D01*
X134470499Y-14673706D01*
X120912984Y-14673706D01*
X121010855Y-14575835D01*
X121153200Y-14232183D01*
X121153200Y-14043964D01*
X121478040Y-14108579D01*
X122062764Y-13992270D01*
X122558470Y-13661050D01*
X122748040Y-13377339D01*
X122937610Y-13661050D01*
X123433315Y-13992270D01*
X124018040Y-14108579D01*
X124602764Y-13992270D01*
X125098470Y-13661050D01*
X125288040Y-13377339D01*
X125477610Y-13661050D01*
X125973315Y-13992270D01*
X126558040Y-14108579D01*
X127142764Y-13992270D01*
X127631108Y-13665969D01*
X127636283Y-13691985D01*
X127776631Y-13902029D01*
X127986675Y-14042377D01*
X128234440Y-14091660D01*
X129961640Y-14091660D01*
X130209405Y-14042377D01*
X130419449Y-13902029D01*
X130559797Y-13691985D01*
X130609080Y-13444220D01*
X130609080Y-11663680D01*
X132302030Y-11663680D01*
X132332685Y-11694335D01*
X132676337Y-11836680D01*
X133048303Y-11836680D01*
X133391955Y-11694335D01*
X133654975Y-11431315D01*
X133797320Y-11087663D01*
X133797320Y-10911840D01*
X136112030Y-10911840D01*
X136142685Y-10942495D01*
X136486337Y-11084840D01*
X136858303Y-11084840D01*
X137201955Y-10942495D01*
X137464975Y-10679475D01*
X137607320Y-10335823D01*
X137607320Y-10271275D01*
X137756337Y-10333000D01*
X138128303Y-10333000D01*
X138471955Y-10190655D01*
X138734975Y-9927635D01*
X138877320Y-9583983D01*
X138877320Y-9526619D01*
X139021257Y-9586240D01*
X139393223Y-9586240D01*
X139736875Y-9443895D01*
X139775150Y-9405620D01*
X140170950Y-9405620D01*
X140201605Y-9436275D01*
X140545257Y-9578620D01*
X140917223Y-9578620D01*
X141260875Y-9436275D01*
X141523895Y-9173255D01*
X141666240Y-8829603D01*
X141666240Y-8457637D01*
X141523895Y-8113985D01*
X141260875Y-7850965D01*
X140917223Y-7708620D01*
X140545257Y-7708620D01*
X140201605Y-7850965D01*
X140170950Y-7881620D01*
X139759910Y-7881620D01*
X139736875Y-7858585D01*
X139393223Y-7716240D01*
X139327890Y-7716240D01*
X139327890Y-7207913D01*
X139116950Y-6698658D01*
X138759822Y-6341530D01*
X139962890Y-6341530D01*
X140210655Y-6292247D01*
X140420699Y-6151899D01*
X140561047Y-5941855D01*
X140610330Y-5694090D01*
X140610330Y-4192950D01*
X140561047Y-3945185D01*
X140420699Y-3735141D01*
X140210655Y-3594793D01*
X139962890Y-3545510D01*
X138461750Y-3545510D01*
X138213985Y-3594793D01*
X138003941Y-3735141D01*
X137863593Y-3945185D01*
X137825415Y-4137123D01*
X137457182Y-3768890D01*
X136947927Y-3557950D01*
X136396713Y-3557950D01*
X135887458Y-3768890D01*
X135497690Y-4158658D01*
X135402320Y-4388902D01*
X135306950Y-4158658D01*
X135063314Y-3915022D01*
X135217320Y-3543220D01*
X135217320Y-3111580D01*
X135052138Y-2712797D01*
X134746923Y-2407582D01*
X134412803Y-2269184D01*
X144076380Y-2269184D01*
X144076380Y-2899736D01*
X144317682Y-3482290D01*
X144763550Y-3928158D01*
X145346104Y-4169460D01*
X145976656Y-4169460D01*
X146559210Y-3928158D01*
X147005078Y-3482290D01*
X147246380Y-2899736D01*
X147246380Y-2269184D01*
X147005078Y-1686630D01*
X146559210Y-1240762D01*
X145976656Y-999460D01*
X145346104Y-999460D01*
X144763550Y-1240762D01*
X144317682Y-1686630D01*
X144076380Y-2269184D01*
X134412803Y-2269184D01*
X134348140Y-2242400D01*
X133916500Y-2242400D01*
X133517717Y-2407582D01*
X133486899Y-2438400D01*
X129743461Y-2438400D01*
X129712643Y-2407582D01*
X129313860Y-2242400D01*
X128882220Y-2242400D01*
X128483437Y-2407582D01*
X128452619Y-2438400D01*
X105638861Y-2438400D01*
X105608043Y-2407582D01*
X105209260Y-2242400D01*
X104777620Y-2242400D01*
X104378837Y-2407582D01*
X104073622Y-2712797D01*
X103908440Y-3111580D01*
X103908440Y-3543220D01*
X104045335Y-3873713D01*
X103816270Y-4102778D01*
X103727501Y-4317087D01*
X103663831Y-4163375D01*
X103422830Y-4095315D01*
X102630505Y-4887640D01*
X103422830Y-5679965D01*
X103663831Y-5611905D01*
X103722682Y-5446561D01*
X103816270Y-5672502D01*
X104206038Y-6062270D01*
X104715293Y-6273210D01*
X105266507Y-6273210D01*
X105775762Y-6062270D01*
X106165530Y-5672502D01*
X106260900Y-5442258D01*
X106356270Y-5672502D01*
X106746038Y-6062270D01*
X107255293Y-6273210D01*
X107806507Y-6273210D01*
X108315762Y-6062270D01*
X108683995Y-5694037D01*
X108722173Y-5885975D01*
X108826473Y-6042070D01*
X108525293Y-6042070D01*
X108016038Y-6253010D01*
X107626270Y-6642778D01*
X107530900Y-6873022D01*
X107435530Y-6642778D01*
X107045762Y-6253010D01*
X106536507Y-6042070D01*
X105985293Y-6042070D01*
X105476038Y-6253010D01*
X105086270Y-6642778D01*
X104990900Y-6873022D01*
X104895530Y-6642778D01*
X104505762Y-6253010D01*
X103996507Y-6042070D01*
X103445293Y-6042070D01*
X102936038Y-6253010D01*
X102546270Y-6642778D01*
X102457501Y-6857087D01*
X102393831Y-6703375D01*
X102152830Y-6635315D01*
X101360505Y-7427640D01*
X102152830Y-8219965D01*
X102393831Y-8151905D01*
X102452682Y-7986561D01*
X102546270Y-8212502D01*
X102936038Y-8602270D01*
X103445293Y-8813210D01*
X103996507Y-8813210D01*
X104505762Y-8602270D01*
X104895530Y-8212502D01*
X104990900Y-7982258D01*
X105086270Y-8212502D01*
X105476038Y-8602270D01*
X105985293Y-8813210D01*
X106536507Y-8813210D01*
X107045762Y-8602270D01*
X107435530Y-8212502D01*
X107530900Y-7982258D01*
X107626270Y-8212502D01*
X108016038Y-8602270D01*
X108200481Y-8678669D01*
X108010785Y-8868365D01*
X107868440Y-9212017D01*
X107868440Y-9276565D01*
X107719423Y-9214840D01*
X107347457Y-9214840D01*
X107003805Y-9357185D01*
X106740785Y-9620205D01*
X106598440Y-9963857D01*
X106598440Y-10139680D01*
X104278650Y-10139680D01*
X104247995Y-10109025D01*
X103904343Y-9966680D01*
X103532377Y-9966680D01*
X103188725Y-10109025D01*
X102925705Y-10372045D01*
X102783360Y-10715697D01*
X102783360Y-11084639D01*
X102617610Y-11195390D01*
X102424130Y-11484952D01*
X102060076Y-11077488D01*
X101532831Y-10823511D01*
X101517066Y-10820862D01*
X101285040Y-10942003D01*
X101285040Y-12301220D01*
X101305040Y-12301220D01*
X101305040Y-12555220D01*
X101285040Y-12555220D01*
X101285040Y-13914437D01*
X101517066Y-14035578D01*
X101532831Y-14032929D01*
X102060076Y-13778952D01*
X102424131Y-13371487D01*
X102617610Y-13661050D01*
X103056753Y-13954477D01*
X102905385Y-14105845D01*
X102763040Y-14449497D01*
X102763040Y-14674485D01*
X85925534Y-14674485D01*
X85925534Y-12790133D01*
X99672856Y-12790133D01*
X99866086Y-13342540D01*
X100256004Y-13778952D01*
X100783249Y-14032929D01*
X100799014Y-14035578D01*
X101031040Y-13914437D01*
X101031040Y-12555220D01*
X99817116Y-12555220D01*
X99672856Y-12790133D01*
X85925534Y-12790133D01*
X85925534Y-12066307D01*
X99672856Y-12066307D01*
X99817116Y-12301220D01*
X101031040Y-12301220D01*
X101031040Y-10942003D01*
X100799014Y-10820862D01*
X100783249Y-10823511D01*
X100256004Y-11077488D01*
X99866086Y-11513900D01*
X99672856Y-12066307D01*
X85925534Y-12066307D01*
X85925534Y-8399570D01*
X100388575Y-8399570D01*
X100456635Y-8640571D01*
X100975934Y-8825407D01*
X101526438Y-8797445D01*
X101905165Y-8640571D01*
X101973225Y-8399570D01*
X101180900Y-7607245D01*
X100388575Y-8399570D01*
X85925534Y-8399570D01*
X85925534Y-7222674D01*
X99783133Y-7222674D01*
X99811095Y-7773178D01*
X99967969Y-8151905D01*
X100208970Y-8219965D01*
X101001295Y-7427640D01*
X100208970Y-6635315D01*
X99967969Y-6703375D01*
X99783133Y-7222674D01*
X85925534Y-7222674D01*
X85925534Y-6676542D01*
X85938953Y-6609080D01*
X85908446Y-6455710D01*
X100388575Y-6455710D01*
X101180900Y-7248035D01*
X101973225Y-6455710D01*
X101905165Y-6214709D01*
X101385866Y-6029873D01*
X100835362Y-6057835D01*
X100456635Y-6214709D01*
X100388575Y-6455710D01*
X85908446Y-6455710D01*
X85885789Y-6341807D01*
X85734391Y-6115223D01*
X85507807Y-5963825D01*
X85307996Y-5924080D01*
X85240534Y-5910661D01*
X85173073Y-5924080D01*
X84307904Y-5924080D01*
X84240442Y-5910661D01*
X84172981Y-5924080D01*
X84172980Y-5924080D01*
X83973169Y-5963825D01*
X83746585Y-6115223D01*
X83595187Y-6341807D01*
X83542023Y-6609080D01*
X48574040Y-6609080D01*
X48574040Y-6385319D01*
X48420277Y-6014101D01*
X48265746Y-5859570D01*
X101658575Y-5859570D01*
X101726635Y-6100571D01*
X102245934Y-6285407D01*
X102796438Y-6257445D01*
X103175165Y-6100571D01*
X103243225Y-5859570D01*
X102450900Y-5067245D01*
X101658575Y-5859570D01*
X48265746Y-5859570D01*
X48136159Y-5729983D01*
X47764941Y-5576220D01*
X47363139Y-5576220D01*
X46991921Y-5729983D01*
X46961184Y-5760720D01*
X15146896Y-5760720D01*
X15116159Y-5729983D01*
X14744941Y-5576220D01*
X14343139Y-5576220D01*
X13971921Y-5729983D01*
X13941184Y-5760720D01*
X4605896Y-5760720D01*
X4575159Y-5729983D01*
X4203941Y-5576220D01*
X3802139Y-5576220D01*
X3430921Y-5729983D01*
X3146803Y-6014101D01*
X2993040Y-6385319D01*
X-3814561Y-6385319D01*
X-3814561Y-4682674D01*
X101053133Y-4682674D01*
X101081095Y-5233178D01*
X101237969Y-5611905D01*
X101478970Y-5679965D01*
X102271295Y-4887640D01*
X101478970Y-4095315D01*
X101237969Y-4163375D01*
X101053133Y-4682674D01*
X-3814561Y-4682674D01*
X-3814561Y464460D01*
X-2335000Y464460D01*
X-2335000Y-464460D01*
X-1979517Y-1322671D01*
X-1322671Y-1979517D01*
X-464460Y-2335000D01*
X464460Y-2335000D01*
X1322671Y-1979517D01*
X1979517Y-1322671D01*
X2335000Y-464460D01*
X2335000Y464460D01*
X1979517Y1322671D01*
X1322671Y1979517D01*
X464460Y2335000D01*
X-464460Y2335000D01*
X-1322671Y1979517D01*
X-1979517Y1322671D01*
X-2335000Y464460D01*
X-3814561Y464460D01*
X-3814561Y6315563D01*
X5017435Y6315563D01*
X4525423Y5823551D01*
G36*
X91712560Y-42548710D02*
X91712560Y-42744490D01*
X91616703Y-42840348D01*
X91602560Y-42826205D01*
X91588418Y-42840348D01*
X91502662Y-42754592D01*
X91488830Y-42552440D01*
X91504670Y-42536600D01*
X91700450Y-42536600D01*
X91712560Y-42548710D01*
X91712560Y-42548710D01*
G37*
X91712560Y-42548710D02*
X91712560Y-42744490D01*
X91616703Y-42840348D01*
X91602560Y-42826205D01*
X91588418Y-42840348D01*
X91502662Y-42754592D01*
X91488830Y-42552440D01*
X91504670Y-42536600D01*
X91700450Y-42536600D01*
X91712560Y-42548710D01*
G36*
X90432457Y-42538607D02*
X90446290Y-42740760D01*
X90346703Y-42840348D01*
X90332560Y-42826205D01*
X90318418Y-42840348D01*
X90235000Y-42756930D01*
X90235000Y-42536600D01*
X90430450Y-42536600D01*
X90432457Y-42538607D01*
X90432457Y-42538607D01*
G37*
X90432457Y-42538607D02*
X90446290Y-42740760D01*
X90346703Y-42840348D01*
X90332560Y-42826205D01*
X90318418Y-42840348D01*
X90235000Y-42756930D01*
X90235000Y-42536600D01*
X90430450Y-42536600D01*
X90432457Y-42538607D01*
G36*
X99685556Y-40539707D02*
X99829816Y-40774620D01*
X101043740Y-40774620D01*
X101043740Y-40754620D01*
X101297740Y-40754620D01*
X101297740Y-40774620D01*
X101317740Y-40774620D01*
X101317740Y-41028620D01*
X101297740Y-41028620D01*
X101297740Y-41048620D01*
X101043740Y-41048620D01*
X101043740Y-41028620D01*
X99829816Y-41028620D01*
X99685556Y-41263533D01*
X99878786Y-41815940D01*
X100089911Y-42052240D01*
X95895831Y-42052240D01*
X95302560Y-41458970D01*
X95302560Y-41145862D01*
X95125961Y-40719513D01*
X94799647Y-40393199D01*
X94373298Y-40216600D01*
X93911822Y-40216600D01*
X93507560Y-40384050D01*
X93103298Y-40216600D01*
X92676549Y-40216600D01*
X92756451Y-40163211D01*
X92798964Y-40099586D01*
X92847830Y-40050720D01*
X99856602Y-40050720D01*
X99685556Y-40539707D01*
X99685556Y-40539707D01*
G37*
X99685556Y-40539707D02*
X99829816Y-40774620D01*
X101043740Y-40774620D01*
X101043740Y-40754620D01*
X101297740Y-40754620D01*
X101297740Y-40774620D01*
X101317740Y-40774620D01*
X101317740Y-41028620D01*
X101297740Y-41028620D01*
X101297740Y-41048620D01*
X101043740Y-41048620D01*
X101043740Y-41028620D01*
X99829816Y-41028620D01*
X99685556Y-41263533D01*
X99878786Y-41815940D01*
X100089911Y-42052240D01*
X95895831Y-42052240D01*
X95302560Y-41458970D01*
X95302560Y-41145862D01*
X95125961Y-40719513D01*
X94799647Y-40393199D01*
X94373298Y-40216600D01*
X93911822Y-40216600D01*
X93507560Y-40384050D01*
X93103298Y-40216600D01*
X92676549Y-40216600D01*
X92756451Y-40163211D01*
X92798964Y-40099586D01*
X92847830Y-40050720D01*
X99856602Y-40050720D01*
X99685556Y-40539707D01*
G36*
X111445040Y-12301220D02*
X111465040Y-12301220D01*
X111465040Y-12555220D01*
X111445040Y-12555220D01*
X111445040Y-12575220D01*
X111191040Y-12575220D01*
X111191040Y-12555220D01*
X111171040Y-12555220D01*
X111171040Y-12301220D01*
X111191040Y-12301220D01*
X111191040Y-12281220D01*
X111445040Y-12281220D01*
X111445040Y-12301220D01*
X111445040Y-12301220D01*
G37*
X111445040Y-12301220D02*
X111465040Y-12301220D01*
X111465040Y-12555220D01*
X111445040Y-12555220D01*
X111445040Y-12575220D01*
X111191040Y-12575220D01*
X111191040Y-12555220D01*
X111171040Y-12555220D01*
X111171040Y-12301220D01*
X111191040Y-12301220D01*
X111191040Y-12281220D01*
X111445040Y-12281220D01*
X111445040Y-12301220D01*
G36*
X119065040Y-12301220D02*
X119085040Y-12301220D01*
X119085040Y-12555220D01*
X119065040Y-12555220D01*
X119065040Y-12575220D01*
X118811040Y-12575220D01*
X118811040Y-12555220D01*
X118791040Y-12555220D01*
X118791040Y-12301220D01*
X118811040Y-12301220D01*
X118811040Y-12281220D01*
X119065040Y-12281220D01*
X119065040Y-12301220D01*
X119065040Y-12301220D01*
G37*
X119065040Y-12301220D02*
X119085040Y-12301220D01*
X119085040Y-12555220D01*
X119065040Y-12555220D01*
X119065040Y-12575220D01*
X118811040Y-12575220D01*
X118811040Y-12555220D01*
X118791040Y-12555220D01*
X118791040Y-12301220D01*
X118811040Y-12301220D01*
X118811040Y-12281220D01*
X119065040Y-12281220D01*
X119065040Y-12301220D01*
G36*
X128483437Y-4247218D02*
X128882220Y-4412400D01*
X129313860Y-4412400D01*
X129712643Y-4247218D01*
X129743461Y-4216400D01*
X130393773Y-4216400D01*
X130206750Y-4667913D01*
X130206750Y-5219127D01*
X130417690Y-5728382D01*
X130807458Y-6118150D01*
X131316713Y-6329090D01*
X131867927Y-6329090D01*
X132377182Y-6118150D01*
X132766950Y-5728382D01*
X132862320Y-5498138D01*
X132957690Y-5728382D01*
X133347458Y-6118150D01*
X133856713Y-6329090D01*
X134407927Y-6329090D01*
X134917182Y-6118150D01*
X135306950Y-5728382D01*
X135402320Y-5498138D01*
X135497690Y-5728382D01*
X135887458Y-6118150D01*
X136396713Y-6329090D01*
X136947927Y-6329090D01*
X137457182Y-6118150D01*
X137825415Y-5749917D01*
X137863593Y-5941855D01*
X137967893Y-6097950D01*
X137666713Y-6097950D01*
X137157458Y-6308890D01*
X136767690Y-6698658D01*
X136672320Y-6928902D01*
X136576950Y-6698658D01*
X136187182Y-6308890D01*
X135677927Y-6097950D01*
X135126713Y-6097950D01*
X134617458Y-6308890D01*
X134227690Y-6698658D01*
X134132320Y-6928902D01*
X134036950Y-6698658D01*
X133647182Y-6308890D01*
X133137927Y-6097950D01*
X132586713Y-6097950D01*
X132077458Y-6308890D01*
X131687690Y-6698658D01*
X131598921Y-6912967D01*
X131535251Y-6759255D01*
X131294250Y-6691195D01*
X130501925Y-7483520D01*
X130516068Y-7497663D01*
X130336463Y-7677268D01*
X130322320Y-7663125D01*
X130308178Y-7677268D01*
X130128573Y-7497663D01*
X130142715Y-7483520D01*
X129350390Y-6691195D01*
X129109389Y-6759255D01*
X128924553Y-7278554D01*
X128952515Y-7829058D01*
X128974287Y-7881620D01*
X124580870Y-7881620D01*
X124547675Y-7848425D01*
X124204023Y-7706080D01*
X123832057Y-7706080D01*
X123488405Y-7848425D01*
X123455210Y-7881620D01*
X122728000Y-7881620D01*
X122728000Y-7870897D01*
X122585655Y-7527245D01*
X122322635Y-7264225D01*
X121978983Y-7121880D01*
X121607017Y-7121880D01*
X121263365Y-7264225D01*
X121232710Y-7294880D01*
X111573530Y-7294880D01*
X111547955Y-7269305D01*
X111204303Y-7126960D01*
X110832337Y-7126960D01*
X110488685Y-7269305D01*
X110225665Y-7532325D01*
X110186470Y-7626950D01*
X110186470Y-7152033D01*
X109975530Y-6642778D01*
X109844342Y-6511590D01*
X129529995Y-6511590D01*
X130322320Y-7303915D01*
X131114645Y-6511590D01*
X131046585Y-6270589D01*
X130527286Y-6085753D01*
X129976782Y-6113715D01*
X129598055Y-6270589D01*
X129529995Y-6511590D01*
X109844342Y-6511590D01*
X109618402Y-6285650D01*
X110821470Y-6285650D01*
X111069235Y-6236367D01*
X111279279Y-6096019D01*
X111419627Y-5885975D01*
X111468910Y-5638210D01*
X111468910Y-4216400D01*
X128452619Y-4216400D01*
X128483437Y-4247218D01*
X128483437Y-4247218D01*
G37*
X128483437Y-4247218D02*
X128882220Y-4412400D01*
X129313860Y-4412400D01*
X129712643Y-4247218D01*
X129743461Y-4216400D01*
X130393773Y-4216400D01*
X130206750Y-4667913D01*
X130206750Y-5219127D01*
X130417690Y-5728382D01*
X130807458Y-6118150D01*
X131316713Y-6329090D01*
X131867927Y-6329090D01*
X132377182Y-6118150D01*
X132766950Y-5728382D01*
X132862320Y-5498138D01*
X132957690Y-5728382D01*
X133347458Y-6118150D01*
X133856713Y-6329090D01*
X134407927Y-6329090D01*
X134917182Y-6118150D01*
X135306950Y-5728382D01*
X135402320Y-5498138D01*
X135497690Y-5728382D01*
X135887458Y-6118150D01*
X136396713Y-6329090D01*
X136947927Y-6329090D01*
X137457182Y-6118150D01*
X137825415Y-5749917D01*
X137863593Y-5941855D01*
X137967893Y-6097950D01*
X137666713Y-6097950D01*
X137157458Y-6308890D01*
X136767690Y-6698658D01*
X136672320Y-6928902D01*
X136576950Y-6698658D01*
X136187182Y-6308890D01*
X135677927Y-6097950D01*
X135126713Y-6097950D01*
X134617458Y-6308890D01*
X134227690Y-6698658D01*
X134132320Y-6928902D01*
X134036950Y-6698658D01*
X133647182Y-6308890D01*
X133137927Y-6097950D01*
X132586713Y-6097950D01*
X132077458Y-6308890D01*
X131687690Y-6698658D01*
X131598921Y-6912967D01*
X131535251Y-6759255D01*
X131294250Y-6691195D01*
X130501925Y-7483520D01*
X130516068Y-7497663D01*
X130336463Y-7677268D01*
X130322320Y-7663125D01*
X130308178Y-7677268D01*
X130128573Y-7497663D01*
X130142715Y-7483520D01*
X129350390Y-6691195D01*
X129109389Y-6759255D01*
X128924553Y-7278554D01*
X128952515Y-7829058D01*
X128974287Y-7881620D01*
X124580870Y-7881620D01*
X124547675Y-7848425D01*
X124204023Y-7706080D01*
X123832057Y-7706080D01*
X123488405Y-7848425D01*
X123455210Y-7881620D01*
X122728000Y-7881620D01*
X122728000Y-7870897D01*
X122585655Y-7527245D01*
X122322635Y-7264225D01*
X121978983Y-7121880D01*
X121607017Y-7121880D01*
X121263365Y-7264225D01*
X121232710Y-7294880D01*
X111573530Y-7294880D01*
X111547955Y-7269305D01*
X111204303Y-7126960D01*
X110832337Y-7126960D01*
X110488685Y-7269305D01*
X110225665Y-7532325D01*
X110186470Y-7626950D01*
X110186470Y-7152033D01*
X109975530Y-6642778D01*
X109844342Y-6511590D01*
X129529995Y-6511590D01*
X130322320Y-7303915D01*
X131114645Y-6511590D01*
X131046585Y-6270589D01*
X130527286Y-6085753D01*
X129976782Y-6113715D01*
X129598055Y-6270589D01*
X129529995Y-6511590D01*
X109844342Y-6511590D01*
X109618402Y-6285650D01*
X110821470Y-6285650D01*
X111069235Y-6236367D01*
X111279279Y-6096019D01*
X111419627Y-5885975D01*
X111468910Y-5638210D01*
X111468910Y-4216400D01*
X128452619Y-4216400D01*
X128483437Y-4247218D01*
G04 #@! TD*
M02*
