G04 #@! TF.FileFunction,Soldermask,Top*
%FSLAX46Y46*%
G04 Gerber Fmt 4.6, Leading zero omitted, Abs format (unit mm)*
G04 Created by KiCad (PCBNEW 4.0.1-stable) date Thu 16 Jun 2016 07:21:35 PM CEST*
%MOMM*%
G01*
G04 APERTURE LIST*
%ADD10C,0.100000*%
%ADD11R,0.800000X1.700000*%
%ADD12R,1.000000X0.950000*%
%ADD13R,3.799180X1.800200*%
%ADD14O,2.000000X2.800000*%
%ADD15C,3.600000*%
%ADD16R,0.450000X1.500000*%
%ADD17R,1.500000X0.450000*%
%ADD18R,1.110000X1.420000*%
%ADD19R,1.000100X1.000100*%
%ADD20R,1.200000X1.450000*%
%ADD21R,0.950000X1.000000*%
%ADD22R,1.450000X1.200000*%
%ADD23R,2.000860X2.699360*%
%ADD24R,1.500000X0.900000*%
%ADD25R,1.250000X1.250000*%
%ADD26C,1.250000*%
%ADD27R,2.232000X2.232000*%
%ADD28O,2.232000X2.232000*%
%ADD29R,1.100000X0.700000*%
%ADD30R,0.700000X1.100000*%
%ADD31R,2.700000X1.100000*%
%ADD32R,3.248000X1.851000*%
%ADD33R,6.296000X6.296000*%
%ADD34R,1.851000X3.248000*%
%ADD35R,5.800700X2.300580*%
%ADD36C,2.100000*%
%ADD37R,1.800000X1.200000*%
%ADD38R,0.790000X0.650000*%
%ADD39R,0.700380X2.501240*%
%ADD40R,2.198980X2.699360*%
%ADD41C,1.099160*%
%ADD42C,3.500000*%
%ADD43C,3.400000*%
%ADD44R,1.701140X1.701140*%
%ADD45C,1.701140*%
%ADD46R,1.927200X2.232000*%
%ADD47O,1.927200X2.232000*%
%ADD48R,1.800200X3.799180*%
%ADD49R,3.199740X1.800200*%
%ADD50C,0.254000*%
G04 APERTURE END LIST*
D10*
D11*
X123535440Y-29146520D03*
X122265440Y-29146520D03*
X120995440Y-29146520D03*
X119725440Y-29146520D03*
X118455440Y-29146520D03*
X117185440Y-29146520D03*
X115915440Y-29146520D03*
X115915440Y-34546520D03*
X117185440Y-34546520D03*
X118455440Y-34546520D03*
X119725440Y-34546520D03*
X120995440Y-34546520D03*
X122265440Y-34546520D03*
X123535440Y-34546520D03*
D12*
X133663120Y-10830560D03*
X132163120Y-10830560D03*
D13*
X169501820Y-34767520D03*
X175003460Y-34767520D03*
D14*
X12004040Y4500880D03*
X14544040Y4500880D03*
X17084040Y4500880D03*
X19624040Y4500880D03*
X22164040Y4500880D03*
X24704040Y4500880D03*
X27244040Y4500880D03*
X29784040Y4500880D03*
X32324040Y4500880D03*
X34864040Y4500880D03*
X37404040Y4500880D03*
X39944040Y4500880D03*
X42484040Y4500880D03*
X45024040Y4500880D03*
X47564040Y4500880D03*
X50104040Y4500880D03*
D15*
X6504940Y4500880D03*
X6504940Y-26499820D03*
X81503520Y-26499820D03*
X81503520Y4500880D03*
D13*
X160230820Y-45791120D03*
X165732460Y-45791120D03*
D16*
X110613640Y-26023320D03*
X110113640Y-26023320D03*
X109613640Y-26023320D03*
X109113640Y-26023320D03*
X108613640Y-26023320D03*
X108113640Y-26023320D03*
X107613640Y-26023320D03*
X107113640Y-26023320D03*
X106613640Y-26023320D03*
X106113640Y-26023320D03*
X105613640Y-26023320D03*
X105113640Y-26023320D03*
D17*
X103513640Y-27623320D03*
X103513640Y-28123320D03*
X103513640Y-28623320D03*
X103513640Y-29123320D03*
X103513640Y-29623320D03*
X103513640Y-30123320D03*
X103513640Y-30623320D03*
X103513640Y-31123320D03*
X103513640Y-31623320D03*
X103513640Y-32123320D03*
X103513640Y-32623320D03*
X103513640Y-33123320D03*
D16*
X105113640Y-34723320D03*
X105613640Y-34723320D03*
X106113640Y-34723320D03*
X106613640Y-34723320D03*
X107113640Y-34723320D03*
X107613640Y-34723320D03*
X108113640Y-34723320D03*
X108613640Y-34723320D03*
X109113640Y-34723320D03*
X109613640Y-34723320D03*
X110113640Y-34723320D03*
X110613640Y-34723320D03*
D17*
X112213640Y-33123320D03*
X112213640Y-32623320D03*
X112213640Y-32123320D03*
X112213640Y-31623320D03*
X112213640Y-31123320D03*
X112213640Y-30623320D03*
X112213640Y-30123320D03*
X112213640Y-29623320D03*
X112213640Y-29123320D03*
X112213640Y-28623320D03*
X112213640Y-28123320D03*
X112213640Y-27623320D03*
D18*
X146170140Y-37853620D03*
X149440140Y-37853620D03*
D19*
X98244660Y-34084300D03*
X98244660Y-32184300D03*
X96245680Y-33134300D03*
D20*
X141213080Y-34757360D03*
X139213080Y-34757360D03*
D12*
X137912540Y-43672760D03*
X136412540Y-43672760D03*
X160225040Y-41168320D03*
X161725040Y-41168320D03*
D21*
X148971000Y-31533400D03*
X148971000Y-33033400D03*
X130581400Y-20027200D03*
X130581400Y-21527200D03*
D12*
X112703040Y-18384520D03*
X111203040Y-18384520D03*
X102993760Y-18384520D03*
X104493760Y-18384520D03*
D21*
X101579680Y-27160920D03*
X101579680Y-25660920D03*
X114277140Y-28518420D03*
X114277140Y-30018420D03*
X114830860Y-25396760D03*
X114830860Y-26896760D03*
X777240Y-6586920D03*
X777240Y-5086920D03*
D22*
X2669540Y-6582920D03*
X2669540Y-4582920D03*
D21*
X152999440Y-17888520D03*
X152999440Y-19388520D03*
D22*
X155069540Y-17879820D03*
X155069540Y-19879820D03*
D23*
X133522720Y-48422560D03*
X133522720Y-44424600D03*
D18*
X146176240Y-34754820D03*
X142906240Y-34754820D03*
D24*
X4358040Y-35648720D03*
X4358040Y-36748720D03*
X4358040Y-37848720D03*
X7458040Y-37848720D03*
X7458040Y-36748720D03*
X7458040Y-35648720D03*
X80405640Y-35648720D03*
X80405640Y-36748720D03*
X80405640Y-37848720D03*
X83505640Y-37848720D03*
X83505640Y-36748720D03*
X83505640Y-35648720D03*
X156758040Y-35648720D03*
X156758040Y-36748720D03*
X156758040Y-37848720D03*
X159858040Y-37848720D03*
X159858040Y-36748720D03*
X159858040Y-35648720D03*
X232958040Y-35648720D03*
X232958040Y-36748720D03*
X232958040Y-37848720D03*
X236058040Y-37848720D03*
X236058040Y-36748720D03*
X236058040Y-35648720D03*
D25*
X89062560Y-42646600D03*
D26*
X90332560Y-42646600D03*
X91602560Y-42646600D03*
X92872560Y-42646600D03*
X94142560Y-42646600D03*
X90332560Y-41376600D03*
X91602560Y-41376600D03*
X92872560Y-41376600D03*
X94142560Y-41376600D03*
X89062560Y-41376600D03*
D27*
X38615620Y-40901620D03*
D28*
X36075620Y-40901620D03*
D27*
X191010540Y-40888920D03*
D28*
X188470540Y-40901620D03*
D27*
X47576740Y-40901620D03*
D28*
X45036740Y-40901620D03*
D27*
X199981820Y-40901620D03*
D28*
X197441820Y-40901620D03*
D19*
X138435120Y-30434280D03*
X136535120Y-30434280D03*
X137485120Y-32433260D03*
X137485160Y-33817560D03*
X135585160Y-33817560D03*
X136535160Y-35816540D03*
X133858040Y-33512760D03*
X131958040Y-33512760D03*
X132908040Y-35813520D03*
X164343040Y-33698180D03*
X166243040Y-33698180D03*
X165293040Y-31699200D03*
X50101500Y-33914120D03*
X50101500Y-32014120D03*
X48102520Y-32964120D03*
X202514200Y-33914120D03*
X202514200Y-32014120D03*
X200515220Y-32964120D03*
D29*
X126573280Y-35019680D03*
X126573280Y-33519680D03*
D30*
X138037000Y-28813760D03*
X136537000Y-28813760D03*
D29*
X130261360Y-35009520D03*
X130261360Y-33509520D03*
X128417320Y-35004440D03*
X128417320Y-33504440D03*
D30*
X121237440Y-27020520D03*
X119737440Y-27020520D03*
D29*
X116682520Y-25396760D03*
X116682520Y-26896760D03*
X41277540Y-42400920D03*
X41277540Y-40900920D03*
X193677540Y-42388220D03*
X193677540Y-40888220D03*
X50243740Y-42413620D03*
X50243740Y-40913620D03*
X202643740Y-42413620D03*
X202643740Y-40913620D03*
D30*
X52640Y-35046920D03*
X1552640Y-35046920D03*
X52640Y-36748720D03*
X1552640Y-36748720D03*
X52640Y-38450520D03*
X1552640Y-38450520D03*
X76100240Y-35046920D03*
X77600240Y-35046920D03*
X76100240Y-36748720D03*
X77600240Y-36748720D03*
X76100240Y-38450520D03*
X77600240Y-38450520D03*
X152452640Y-35046920D03*
X153952640Y-35046920D03*
X152452640Y-36748720D03*
X153952640Y-36748720D03*
X152452640Y-38450520D03*
X153952640Y-38450520D03*
X228652640Y-35046920D03*
X230152640Y-35046920D03*
X228652640Y-36748720D03*
X230152640Y-36748720D03*
X228652640Y-38450520D03*
X230152640Y-38450520D03*
D29*
X164429440Y-36520820D03*
X164429440Y-35020820D03*
X166245540Y-35020820D03*
X166245540Y-36520820D03*
X51592480Y-33510920D03*
X51592480Y-32010920D03*
X204066140Y-33523620D03*
X204066140Y-32023620D03*
D31*
X137325100Y-48422220D03*
X137325100Y-45522220D03*
D32*
X143095980Y-42331640D03*
D33*
X149445980Y-44617640D03*
D32*
X143095980Y-46903640D03*
D34*
X141620240Y-31541720D03*
D33*
X143906240Y-25191720D03*
D34*
X146192240Y-31541720D03*
D35*
X112707420Y-22031960D03*
X103009700Y-22031960D03*
D15*
X89001600Y-28999180D03*
X2540Y-47495460D03*
X151401780Y-28999180D03*
X240400840Y0D03*
X240400840Y-47495460D03*
D36*
X153161380Y-2584460D03*
X145661380Y-2584460D03*
X153161380Y2415540D03*
X145661380Y2413000D03*
X94741380Y-2584460D03*
X87241380Y-2584460D03*
X94741380Y2415540D03*
X87241380Y2415540D03*
D15*
X0Y0D03*
D14*
X164404040Y4500880D03*
X166944040Y4500880D03*
X169484040Y4500880D03*
X172024040Y4500880D03*
X174564040Y4500880D03*
X177104040Y4500880D03*
X179644040Y4500880D03*
X182184040Y4500880D03*
X184724040Y4500880D03*
X187264040Y4500880D03*
X189804040Y4500880D03*
X192344040Y4500880D03*
X194884040Y4500880D03*
X197424040Y4500880D03*
X199964040Y4500880D03*
X202504040Y4500880D03*
D15*
X158904940Y4500880D03*
X158904940Y-26499820D03*
X233903520Y-26499820D03*
X233903520Y4500880D03*
D37*
X125351540Y-2952620D03*
X125351540Y-5952620D03*
D21*
X97185480Y-25762520D03*
X97185480Y-27262520D03*
D38*
X131583800Y-7985760D03*
X133693800Y-7985760D03*
D39*
X121793000Y-172720D03*
X120992900Y-172720D03*
X120192800Y-172720D03*
X119392700Y-172720D03*
X118592600Y-172720D03*
D40*
X124642880Y-73660D03*
X124642880Y5425440D03*
X115742720Y-73660D03*
X115742720Y5425440D03*
D41*
X122392440Y2425700D03*
X117993160Y2425700D03*
D19*
X136992320Y-12227560D03*
X138892320Y-12227560D03*
X137942320Y-10228580D03*
D29*
X135407400Y-7652320D03*
X135407400Y-9152320D03*
D24*
X140853160Y-12222520D03*
X140853160Y-10322520D03*
D29*
X123306840Y-4448240D03*
X123306840Y-2948240D03*
X101564440Y-32595120D03*
X101564440Y-34095120D03*
X99837240Y-34095120D03*
X99837240Y-32595120D03*
D30*
X101044440Y-31109920D03*
X99544440Y-31109920D03*
D29*
X120736360Y-4128200D03*
X120736360Y-2628200D03*
X118983760Y-4128200D03*
X118983760Y-2628200D03*
D30*
X100160520Y-25765760D03*
X98660520Y-25765760D03*
X98660520Y-27518360D03*
X100160520Y-27518360D03*
D42*
X99687380Y3642360D03*
D43*
X111556800Y3642360D03*
D44*
X110070900Y-2707640D03*
D45*
X108800900Y-5247640D03*
X107530900Y-2707640D03*
X106260900Y-5247640D03*
X104990900Y-2707640D03*
X103720900Y-5247640D03*
X102450900Y-2707640D03*
X101180900Y-5247640D03*
D42*
X128828800Y3586480D03*
D43*
X140698220Y3586480D03*
D44*
X139212320Y-2763520D03*
D45*
X137942320Y-5303520D03*
X136672320Y-2763520D03*
X135402320Y-5303520D03*
X134132320Y-2763520D03*
X132862320Y-5303520D03*
X131592320Y-2763520D03*
X130322320Y-5303520D03*
D46*
X118932960Y-22230080D03*
D47*
X121472960Y-22230080D03*
X124012960Y-22230080D03*
D46*
X129110740Y-40901620D03*
D47*
X126570740Y-40901620D03*
X124030740Y-40901620D03*
X121490740Y-40901620D03*
X118950740Y-40901620D03*
X116410740Y-40901620D03*
X113870740Y-40901620D03*
X111330740Y-40901620D03*
X108790740Y-40901620D03*
X106250740Y-40901620D03*
X103710740Y-40901620D03*
X101170740Y-40901620D03*
D27*
X118932960Y-18643600D03*
D28*
X121472960Y-18643600D03*
D46*
X129098040Y-11424920D03*
D47*
X126558040Y-11424920D03*
X124018040Y-11424920D03*
X121478040Y-11424920D03*
X118938040Y-11424920D03*
X116398040Y-11424920D03*
X113858040Y-11424920D03*
X111318040Y-11424920D03*
X108778040Y-11424920D03*
X106238040Y-11424920D03*
X103698040Y-11424920D03*
X101158040Y-11424920D03*
D48*
X135143240Y-20307300D03*
X135143240Y-25808940D03*
D49*
X137901680Y-39649400D03*
X133502400Y-39649400D03*
D50*
G36*
X157251400Y-49428400D02*
X145481040Y-49428400D01*
X145481040Y-39786560D01*
X157251400Y-39786560D01*
X157251400Y-49428400D01*
X157251400Y-49428400D01*
G37*
X157251400Y-49428400D02*
X145481040Y-49428400D01*
X145481040Y-39786560D01*
X157251400Y-39786560D01*
X157251400Y-49428400D01*
G36*
X148727160Y-28935680D02*
X139085320Y-28935680D01*
X139085320Y-17236440D01*
X148727160Y-17236440D01*
X148727160Y-28935680D01*
X148727160Y-28935680D01*
G37*
X148727160Y-28935680D02*
X139085320Y-28935680D01*
X139085320Y-17236440D01*
X148727160Y-17236440D01*
X148727160Y-28935680D01*
M02*
