G04 #@! TF.GenerationSoftware,KiCad,Pcbnew,5.0.2-bee76a0~70~ubuntu18.04.1*
G04 #@! TF.CreationDate,2019-04-15T14:57:01+02:00*
G04 #@! TF.ProjectId,footswitch,666f6f74-7377-4697-9463-682e6b696361,rev?*
G04 #@! TF.SameCoordinates,PX1ae5c80PY3d0c318*
G04 #@! TF.FileFunction,Other,User*
%FSLAX46Y46*%
G04 Gerber Fmt 4.6, Leading zero omitted, Abs format (unit mm)*
G04 Created by KiCad (PCBNEW 5.0.2-bee76a0~70~ubuntu18.04.1) date Mon 15 Apr 2019 02:57:01 PM CEST*
%MOMM*%
%LPD*%
G01*
G04 APERTURE LIST*
%ADD10C,0.050000*%
G04 APERTURE END LIST*
D10*
G04 #@! TO.C,U1*
X124375440Y-28146520D02*
X115075440Y-28146520D01*
X124375440Y-35546520D02*
X115075440Y-35546520D01*
X124375440Y-28146520D02*
X124375440Y-35546520D01*
X115075440Y-28146520D02*
X115075440Y-35546520D01*
G04 #@! TO.C,P8*
X130860740Y-39401620D02*
X99410740Y-39401620D01*
X130860740Y-51551620D02*
X99410740Y-51551620D01*
X130860740Y-39401620D02*
X130860740Y-51551620D01*
X99410740Y-39401620D02*
X99410740Y-51551620D01*
G04 #@! TO.C,C9*
X134408840Y-14212000D02*
X131508840Y-14212000D01*
X134408840Y-12712000D02*
X131508840Y-12712000D01*
X134408840Y-14212000D02*
X134408840Y-12712000D01*
X131508840Y-14212000D02*
X131508840Y-12712000D01*
G04 #@! TO.C,C10*
X181045840Y-50056920D02*
X173745840Y-50056920D01*
X181045840Y-40356920D02*
X181045840Y-50056920D01*
X173745840Y-40356920D02*
X181045840Y-40356920D01*
X173745840Y-50056920D02*
X173745840Y-40356920D01*
G04 #@! TO.C,U3*
X113113640Y-25123320D02*
X102613640Y-25123320D01*
X113113640Y-35623320D02*
X102613640Y-35623320D01*
X113113640Y-25123320D02*
X113113640Y-35623320D01*
X102613640Y-25123320D02*
X102613640Y-35623320D01*
G04 #@! TO.C,Q2*
X95643900Y-34784300D02*
X95643900Y-31484300D01*
X95643900Y-31484300D02*
X98843900Y-31484300D01*
X98843900Y-31484300D02*
X98843900Y-34784300D01*
X98843900Y-34784300D02*
X95643900Y-34784300D01*
G04 #@! TO.C,C8*
X136325840Y-46516920D02*
X136325840Y-42916920D01*
X138325840Y-46516920D02*
X138325840Y-42916920D01*
X136325840Y-46516920D02*
X138325840Y-46516920D01*
X136325840Y-42916920D02*
X138325840Y-42916920D01*
G04 #@! TO.C,C7*
X148455840Y-46406920D02*
X148455840Y-43506920D01*
X149955840Y-46406920D02*
X149955840Y-43506920D01*
X148455840Y-46406920D02*
X149955840Y-46406920D01*
X148455840Y-43506920D02*
X149955840Y-43506920D01*
G04 #@! TO.C,C12*
X182755840Y-41756920D02*
X182755840Y-44656920D01*
X181255840Y-41756920D02*
X181255840Y-44656920D01*
X182755840Y-41756920D02*
X181255840Y-41756920D01*
X182755840Y-44656920D02*
X181255840Y-44656920D01*
G04 #@! TO.C,C4*
X113403040Y-19134520D02*
X110503040Y-19134520D01*
X113403040Y-17634520D02*
X110503040Y-17634520D01*
X113403040Y-19134520D02*
X113403040Y-17634520D01*
X110503040Y-19134520D02*
X110503040Y-17634520D01*
G04 #@! TO.C,C6*
X102293760Y-17634520D02*
X105193760Y-17634520D01*
X102293760Y-19134520D02*
X105193760Y-19134520D01*
X102293760Y-17634520D02*
X102293760Y-19134520D01*
X105193760Y-17634520D02*
X105193760Y-19134520D01*
G04 #@! TO.C,C13*
X100829680Y-27860920D02*
X100829680Y-24960920D01*
X102329680Y-27860920D02*
X102329680Y-24960920D01*
X100829680Y-27860920D02*
X102329680Y-27860920D01*
X100829680Y-24960920D02*
X102329680Y-24960920D01*
G04 #@! TO.C,C14*
X115027140Y-27818420D02*
X115027140Y-30718420D01*
X113527140Y-27818420D02*
X113527140Y-30718420D01*
X115027140Y-27818420D02*
X113527140Y-27818420D01*
X115027140Y-30718420D02*
X113527140Y-30718420D01*
G04 #@! TO.C,C21*
X113525840Y-27666920D02*
X113525840Y-24766920D01*
X115025840Y-27666920D02*
X115025840Y-24766920D01*
X113525840Y-27666920D02*
X115025840Y-27666920D01*
X113525840Y-24766920D02*
X115025840Y-24766920D01*
G04 #@! TO.C,C1*
X27240Y-7286920D02*
X27240Y-4386920D01*
X1527240Y-7286920D02*
X1527240Y-4386920D01*
X27240Y-7286920D02*
X1527240Y-7286920D01*
X27240Y-4386920D02*
X1527240Y-4386920D01*
G04 #@! TO.C,C2*
X1669540Y-7382920D02*
X1669540Y-3782920D01*
X3669540Y-7382920D02*
X3669540Y-3782920D01*
X1669540Y-7382920D02*
X3669540Y-7382920D01*
X1669540Y-3782920D02*
X3669540Y-3782920D01*
G04 #@! TO.C,C15*
X153749440Y-17188520D02*
X153749440Y-20088520D01*
X152249440Y-17188520D02*
X152249440Y-20088520D01*
X153749440Y-17188520D02*
X152249440Y-17188520D01*
X153749440Y-20088520D02*
X152249440Y-20088520D01*
G04 #@! TO.C,C16*
X156069540Y-17079820D02*
X156069540Y-20679820D01*
X154069540Y-17079820D02*
X154069540Y-20679820D01*
X156069540Y-17079820D02*
X154069540Y-17079820D01*
X156069540Y-20679820D02*
X154069540Y-20679820D01*
G04 #@! TO.C,D1*
X144305840Y-46386920D02*
X144305840Y-39386920D01*
X144305840Y-39386920D02*
X148305840Y-39386920D01*
X148305840Y-39386920D02*
X148305840Y-46386920D01*
X148305840Y-46386920D02*
X144305840Y-46386920D01*
G04 #@! TO.C,D3*
X141215840Y-50586920D02*
X136715840Y-50586920D01*
X136715840Y-50586920D02*
X136715840Y-48486920D01*
X136715840Y-48486920D02*
X141215840Y-48486920D01*
X141215840Y-50586920D02*
X141215840Y-48486920D01*
G04 #@! TO.C,D5*
X8558040Y-34748720D02*
X8558040Y-38748720D01*
X3158040Y-34748720D02*
X3158040Y-38748720D01*
X3158040Y-38748720D02*
X8558040Y-38748720D01*
X3158040Y-34748720D02*
X8558040Y-34748720D01*
G04 #@! TO.C,D6*
X84605640Y-34748720D02*
X84605640Y-38748720D01*
X79205640Y-34748720D02*
X79205640Y-38748720D01*
X79205640Y-38748720D02*
X84605640Y-38748720D01*
X79205640Y-34748720D02*
X84605640Y-34748720D01*
G04 #@! TO.C,D7*
X160958040Y-34748720D02*
X160958040Y-38748720D01*
X155558040Y-34748720D02*
X155558040Y-38748720D01*
X155558040Y-38748720D02*
X160958040Y-38748720D01*
X155558040Y-34748720D02*
X160958040Y-34748720D01*
G04 #@! TO.C,D8*
X237158040Y-34748720D02*
X237158040Y-38748720D01*
X231758040Y-34748720D02*
X231758040Y-38748720D01*
X231758040Y-38748720D02*
X237158040Y-38748720D01*
X231758040Y-34748720D02*
X237158040Y-34748720D01*
G04 #@! TO.C,P9*
X88012560Y-43746600D02*
X95162560Y-43746600D01*
X88012560Y-40296600D02*
X95162560Y-40296600D01*
X88012560Y-43746600D02*
X88012560Y-40296600D01*
X95162560Y-43746600D02*
X95162560Y-40296600D01*
G04 #@! TO.C,Q1*
X141925840Y-44636920D02*
X138625840Y-44636920D01*
X138625840Y-44636920D02*
X138625840Y-41436920D01*
X138625840Y-41436920D02*
X141925840Y-41436920D01*
X141925840Y-41436920D02*
X141925840Y-44636920D01*
G04 #@! TO.C,Q4*
X138625840Y-48256920D02*
X138625840Y-44956920D01*
X138625840Y-44956920D02*
X141825840Y-44956920D01*
X141825840Y-44956920D02*
X141825840Y-48256920D01*
X141825840Y-48256920D02*
X138625840Y-48256920D01*
G04 #@! TO.C,Q5*
X136095840Y-46316920D02*
X132795840Y-46316920D01*
X132795840Y-46316920D02*
X132795840Y-42816920D01*
X132795840Y-42816920D02*
X136095840Y-42816920D01*
X136095840Y-42816920D02*
X136095840Y-46316920D01*
G04 #@! TO.C,Q7*
X48455840Y-31376920D02*
X51755840Y-31376920D01*
X51755840Y-31376920D02*
X51755840Y-34576920D01*
X51755840Y-34576920D02*
X48455840Y-34576920D01*
X48455840Y-34576920D02*
X48455840Y-31376920D01*
G04 #@! TO.C,Q8*
X200845840Y-31376920D02*
X204145840Y-31376920D01*
X204145840Y-31376920D02*
X204145840Y-34576920D01*
X204145840Y-34576920D02*
X200845840Y-34576920D01*
X200845840Y-34576920D02*
X200845840Y-31376920D01*
G04 #@! TO.C,R3*
X143785840Y-41486920D02*
X143785840Y-44086920D01*
X142185840Y-41486920D02*
X142185840Y-44086920D01*
X143785840Y-41486920D02*
X142185840Y-41486920D01*
X143785840Y-44086920D02*
X142185840Y-44086920D01*
G04 #@! TO.C,R4*
X143785840Y-44276920D02*
X143785840Y-46876920D01*
X142185840Y-44276920D02*
X142185840Y-46876920D01*
X143785840Y-44276920D02*
X142185840Y-44276920D01*
X143785840Y-46876920D02*
X142185840Y-46876920D01*
G04 #@! TO.C,R8*
X132945840Y-41066920D02*
X135545840Y-41066920D01*
X132945840Y-42666920D02*
X135545840Y-42666920D01*
X132945840Y-41066920D02*
X132945840Y-42666920D01*
X135545840Y-41066920D02*
X135545840Y-42666920D01*
G04 #@! TO.C,R13*
X132625840Y-42866920D02*
X132625840Y-45466920D01*
X131025840Y-42866920D02*
X131025840Y-45466920D01*
X132625840Y-42866920D02*
X131025840Y-42866920D01*
X132625840Y-45466920D02*
X131025840Y-45466920D01*
G04 #@! TO.C,R17*
X120165840Y-24846920D02*
X120165840Y-27446920D01*
X118565840Y-24846920D02*
X118565840Y-27446920D01*
X120165840Y-24846920D02*
X118565840Y-24846920D01*
X120165840Y-27446920D02*
X118565840Y-27446920D01*
G04 #@! TO.C,R39*
X115215840Y-27516920D02*
X115215840Y-24916920D01*
X116815840Y-27516920D02*
X116815840Y-24916920D01*
X115215840Y-27516920D02*
X116815840Y-27516920D01*
X115215840Y-24916920D02*
X116815840Y-24916920D01*
G04 #@! TO.C,R1*
X32525840Y-42946920D02*
X32525840Y-40346920D01*
X34125840Y-42946920D02*
X34125840Y-40346920D01*
X32525840Y-42946920D02*
X34125840Y-42946920D01*
X32525840Y-40346920D02*
X34125840Y-40346920D01*
G04 #@! TO.C,R2*
X184915840Y-43006920D02*
X184915840Y-40406920D01*
X186515840Y-43006920D02*
X186515840Y-40406920D01*
X184915840Y-43006920D02*
X186515840Y-43006920D01*
X184915840Y-40406920D02*
X186515840Y-40406920D01*
G04 #@! TO.C,R11*
X41485840Y-42963620D02*
X41485840Y-40363620D01*
X43085840Y-42963620D02*
X43085840Y-40363620D01*
X41485840Y-42963620D02*
X43085840Y-42963620D01*
X41485840Y-40363620D02*
X43085840Y-40363620D01*
G04 #@! TO.C,R12*
X193905840Y-43006920D02*
X193905840Y-40406920D01*
X195505840Y-43006920D02*
X195505840Y-40406920D01*
X193905840Y-43006920D02*
X195505840Y-43006920D01*
X193905840Y-40406920D02*
X195505840Y-40406920D01*
G04 #@! TO.C,R23*
X-497360Y-34246920D02*
X2102640Y-34246920D01*
X-497360Y-35846920D02*
X2102640Y-35846920D01*
X-497360Y-34246920D02*
X-497360Y-35846920D01*
X2102640Y-34246920D02*
X2102640Y-35846920D01*
G04 #@! TO.C,R24*
X-497360Y-35948720D02*
X2102640Y-35948720D01*
X-497360Y-37548720D02*
X2102640Y-37548720D01*
X-497360Y-35948720D02*
X-497360Y-37548720D01*
X2102640Y-35948720D02*
X2102640Y-37548720D01*
G04 #@! TO.C,R25*
X-497360Y-37650520D02*
X2102640Y-37650520D01*
X-497360Y-39250520D02*
X2102640Y-39250520D01*
X-497360Y-37650520D02*
X-497360Y-39250520D01*
X2102640Y-37650520D02*
X2102640Y-39250520D01*
G04 #@! TO.C,R28*
X75550240Y-34246920D02*
X78150240Y-34246920D01*
X75550240Y-35846920D02*
X78150240Y-35846920D01*
X75550240Y-34246920D02*
X75550240Y-35846920D01*
X78150240Y-34246920D02*
X78150240Y-35846920D01*
G04 #@! TO.C,R29*
X75550240Y-35948720D02*
X78150240Y-35948720D01*
X75550240Y-37548720D02*
X78150240Y-37548720D01*
X75550240Y-35948720D02*
X75550240Y-37548720D01*
X78150240Y-35948720D02*
X78150240Y-37548720D01*
G04 #@! TO.C,R30*
X75550240Y-37650520D02*
X78150240Y-37650520D01*
X75550240Y-39250520D02*
X78150240Y-39250520D01*
X75550240Y-37650520D02*
X75550240Y-39250520D01*
X78150240Y-37650520D02*
X78150240Y-39250520D01*
G04 #@! TO.C,R31*
X151902640Y-34246920D02*
X154502640Y-34246920D01*
X151902640Y-35846920D02*
X154502640Y-35846920D01*
X151902640Y-34246920D02*
X151902640Y-35846920D01*
X154502640Y-34246920D02*
X154502640Y-35846920D01*
G04 #@! TO.C,R32*
X151902640Y-35948720D02*
X154502640Y-35948720D01*
X151902640Y-37548720D02*
X154502640Y-37548720D01*
X151902640Y-35948720D02*
X151902640Y-37548720D01*
X154502640Y-35948720D02*
X154502640Y-37548720D01*
G04 #@! TO.C,R33*
X151902640Y-37650520D02*
X154502640Y-37650520D01*
X151902640Y-39250520D02*
X154502640Y-39250520D01*
X151902640Y-37650520D02*
X151902640Y-39250520D01*
X154502640Y-37650520D02*
X154502640Y-39250520D01*
G04 #@! TO.C,R34*
X228102640Y-34246920D02*
X230702640Y-34246920D01*
X228102640Y-35846920D02*
X230702640Y-35846920D01*
X228102640Y-34246920D02*
X228102640Y-35846920D01*
X230702640Y-34246920D02*
X230702640Y-35846920D01*
G04 #@! TO.C,R35*
X228102640Y-35948720D02*
X230702640Y-35948720D01*
X228102640Y-37548720D02*
X230702640Y-37548720D01*
X228102640Y-35948720D02*
X228102640Y-37548720D01*
X230702640Y-35948720D02*
X230702640Y-37548720D01*
G04 #@! TO.C,R36*
X228102640Y-37650520D02*
X230702640Y-37650520D01*
X228102640Y-39250520D02*
X230702640Y-39250520D01*
X228102640Y-37650520D02*
X228102640Y-39250520D01*
X230702640Y-37650520D02*
X230702640Y-39250520D01*
G04 #@! TO.C,R19*
X46665840Y-34036920D02*
X46665840Y-31436920D01*
X48265840Y-34036920D02*
X48265840Y-31436920D01*
X46665840Y-34036920D02*
X48265840Y-34036920D01*
X46665840Y-31436920D02*
X48265840Y-31436920D01*
G04 #@! TO.C,R38*
X204305840Y-34026920D02*
X204305840Y-31426920D01*
X205905840Y-34026920D02*
X205905840Y-31426920D01*
X204305840Y-34026920D02*
X205905840Y-34026920D01*
X204305840Y-31426920D02*
X205905840Y-31426920D01*
G04 #@! TO.C,RT1*
X145555840Y-46856920D02*
X149955840Y-46856920D01*
X145555840Y-50056920D02*
X149955840Y-50056920D01*
X145555840Y-46856920D02*
X145555840Y-50056920D01*
X149955840Y-46856920D02*
X149955840Y-50056920D01*
G04 #@! TO.C,C19*
X126501540Y-2152620D02*
X126501540Y-6752620D01*
X124201540Y-2152620D02*
X124201540Y-6752620D01*
X126501540Y-2152620D02*
X124201540Y-2152620D01*
X126501540Y-6752620D02*
X124201540Y-6752620D01*
G04 #@! TO.C,C11*
X98758440Y-25113320D02*
X98758440Y-28013320D01*
X97258440Y-25113320D02*
X97258440Y-28013320D01*
X98758440Y-25113320D02*
X97258440Y-25113320D01*
X98758440Y-28013320D02*
X97258440Y-28013320D01*
G04 #@! TO.C,D2*
X131154040Y-10657800D02*
X134154040Y-10657800D01*
X134154040Y-10657800D02*
X134154040Y-12557800D01*
X131154040Y-12557800D02*
X134154040Y-12557800D01*
X131154040Y-10657800D02*
X131154040Y-12557800D01*
G04 #@! TO.C,P7*
X125892800Y8126600D02*
X125892800Y-1573400D01*
X125892800Y-1573400D02*
X114492800Y-1573400D01*
X114492800Y-1573400D02*
X114492800Y8126600D01*
X114492800Y8126600D02*
X125892800Y8126600D01*
G04 #@! TO.C,Q6*
X136284700Y-10058600D02*
X139584700Y-10058600D01*
X139584700Y-10058600D02*
X139584700Y-13258600D01*
X139584700Y-13258600D02*
X136284700Y-13258600D01*
X136284700Y-13258600D02*
X136284700Y-10058600D01*
G04 #@! TO.C,R18*
X136207400Y-9555960D02*
X136207400Y-12155960D01*
X134607400Y-9555960D02*
X134607400Y-12155960D01*
X136207400Y-9555960D02*
X134607400Y-9555960D01*
X136207400Y-12155960D02*
X134607400Y-12155960D01*
G04 #@! TO.C,R16*
X139728700Y-13309400D02*
X139728700Y-10109400D01*
X141728700Y-13309400D02*
X141728700Y-10109400D01*
X139728700Y-13309400D02*
X141728700Y-13309400D01*
X139728700Y-10109400D02*
X141728700Y-10109400D01*
G04 #@! TO.C,R37*
X122506840Y-4998240D02*
X122506840Y-2398240D01*
X124106840Y-4998240D02*
X124106840Y-2398240D01*
X122506840Y-4998240D02*
X124106840Y-4998240D01*
X122506840Y-2398240D02*
X124106840Y-2398240D01*
G04 #@! TO.C,R5*
X102364440Y-32045120D02*
X102364440Y-34645120D01*
X100764440Y-32045120D02*
X100764440Y-34645120D01*
X102364440Y-32045120D02*
X100764440Y-32045120D01*
X102364440Y-34645120D02*
X100764440Y-34645120D01*
G04 #@! TO.C,R7*
X99037240Y-34645120D02*
X99037240Y-32045120D01*
X100637240Y-34645120D02*
X100637240Y-32045120D01*
X99037240Y-34645120D02*
X100637240Y-34645120D01*
X99037240Y-32045120D02*
X100637240Y-32045120D01*
G04 #@! TO.C,R14*
X95455640Y-31841920D02*
X95455640Y-34441920D01*
X93855640Y-31841920D02*
X93855640Y-34441920D01*
X95455640Y-31841920D02*
X93855640Y-31841920D01*
X95455640Y-34441920D02*
X93855640Y-34441920D01*
G04 #@! TO.C,R26*
X119936360Y-4678200D02*
X119936360Y-2078200D01*
X121536360Y-4678200D02*
X121536360Y-2078200D01*
X119936360Y-4678200D02*
X121536360Y-4678200D01*
X119936360Y-2078200D02*
X121536360Y-2078200D01*
G04 #@! TO.C,R27*
X118183760Y-4678200D02*
X118183760Y-2078200D01*
X119783760Y-4678200D02*
X119783760Y-2078200D01*
X118183760Y-4678200D02*
X119783760Y-4678200D01*
X118183760Y-2078200D02*
X119783760Y-2078200D01*
G04 #@! TO.C,R20*
X99077880Y-27858240D02*
X99077880Y-25258240D01*
X100677880Y-27858240D02*
X100677880Y-25258240D01*
X99077880Y-27858240D02*
X100677880Y-27858240D01*
X99077880Y-25258240D02*
X100677880Y-25258240D01*
G04 #@! TO.C,J1*
X97720900Y-8987640D02*
X97720900Y9362360D01*
X113520900Y-8987640D02*
X113520900Y9362360D01*
X113520900Y9362360D02*
X97720900Y9362360D01*
X113520900Y-8987640D02*
X97720900Y-8987640D01*
G04 #@! TO.C,J2*
X126862320Y-9043520D02*
X126862320Y9306480D01*
X142662320Y-9043520D02*
X142662320Y9306480D01*
X142662320Y9306480D02*
X126862320Y9306480D01*
X142662320Y-9043520D02*
X126862320Y-9043520D01*
G04 #@! TO.C,P3*
X145895840Y-34076920D02*
X145895840Y-30576920D01*
X137295840Y-34076920D02*
X137295840Y-30576920D01*
X137295840Y-30576920D02*
X145895840Y-30576920D01*
X137295840Y-34076920D02*
X145895840Y-34076920D01*
G04 #@! TO.C,C5*
X156535840Y-42296920D02*
X156535840Y-50196920D01*
X156535840Y-50196920D02*
X150535840Y-50196920D01*
X150535840Y-50196920D02*
X150535840Y-42296920D01*
X150535840Y-42296920D02*
X156535840Y-42296920D01*
G04 #@! TO.C,C3*
X18096740Y-30503720D02*
X18096740Y-34103720D01*
X16096740Y-30503720D02*
X16096740Y-34103720D01*
X18096740Y-30503720D02*
X16096740Y-30503720D01*
X18096740Y-34103720D02*
X16096740Y-34103720D01*
G04 #@! TO.C,C17*
X170468800Y-30579920D02*
X170468800Y-34179920D01*
X168468800Y-30579920D02*
X168468800Y-34179920D01*
X170468800Y-30579920D02*
X168468800Y-30579920D01*
X170468800Y-34179920D02*
X168468800Y-34179920D01*
G04 #@! TO.C,Q3*
X98032300Y-28166260D02*
X101332300Y-28166260D01*
X101332300Y-28166260D02*
X101332300Y-31366260D01*
X101332300Y-31366260D02*
X98032300Y-31366260D01*
X98032300Y-31366260D02*
X98032300Y-28166260D01*
G04 #@! TO.C,R6*
X97779740Y-28717720D02*
X97779740Y-31317720D01*
X96179740Y-28717720D02*
X96179740Y-31317720D01*
X97779740Y-28717720D02*
X96179740Y-28717720D01*
X97779740Y-31317720D02*
X96179740Y-31317720D01*
G04 #@! TO.C,R9*
X21871840Y-30754800D02*
X21871840Y-33354800D01*
X20271840Y-30754800D02*
X20271840Y-33354800D01*
X21871840Y-30754800D02*
X20271840Y-30754800D01*
X21871840Y-33354800D02*
X20271840Y-33354800D01*
G04 #@! TO.C,R10*
X96027140Y-28717720D02*
X96027140Y-31317720D01*
X94427140Y-28717720D02*
X94427140Y-31317720D01*
X96027140Y-28717720D02*
X94427140Y-28717720D01*
X96027140Y-31317720D02*
X94427140Y-31317720D01*
G04 #@! TO.C,R15*
X20002400Y-30754800D02*
X20002400Y-33354800D01*
X18402400Y-30754800D02*
X18402400Y-33354800D01*
X20002400Y-30754800D02*
X18402400Y-30754800D01*
X20002400Y-33354800D02*
X18402400Y-33354800D01*
G04 #@! TO.C,R21*
X174243900Y-30838620D02*
X174243900Y-33438620D01*
X172643900Y-30838620D02*
X172643900Y-33438620D01*
X174243900Y-30838620D02*
X172643900Y-30838620D01*
X174243900Y-33438620D02*
X172643900Y-33438620D01*
G04 #@! TO.C,R22*
X172377000Y-30838620D02*
X172377000Y-33438620D01*
X170777000Y-30838620D02*
X170777000Y-33438620D01*
X172377000Y-30838620D02*
X170777000Y-30838620D01*
X172377000Y-33438620D02*
X170777000Y-33438620D01*
G04 #@! TO.C,P6*
X130848040Y-10678220D02*
X99398040Y-10678220D01*
X130848040Y-14178220D02*
X99398040Y-14178220D01*
X130848040Y-10678220D02*
X130848040Y-14178220D01*
X99398040Y-10678220D02*
X99398040Y-14178220D01*
G04 #@! TO.C,P10*
X118365840Y-24966920D02*
X118365840Y-26866920D01*
X117065840Y-24966920D02*
X117065840Y-26866920D01*
X118365840Y-24966920D02*
X117065840Y-24966920D01*
X118365840Y-26866920D02*
X117065840Y-26866920D01*
G04 #@! TO.C,R40*
X120565840Y-27446920D02*
X120565840Y-24846920D01*
X122165840Y-27446920D02*
X122165840Y-24846920D01*
X120565840Y-27446920D02*
X122165840Y-27446920D01*
X120565840Y-24846920D02*
X122165840Y-24846920D01*
G04 #@! TD*
M02*
