M48
;DRILL file {KiCad 4.0.1-stable} date Thu 16 Jun 2016 07:21:38 PM CEST
;FORMAT={-:-/ absolute / inch / decimal}
FMAT,2
INCH,TZ
T1C0.012
T2C0.015
T3C0.018
T4C0.026
T5C0.035
T6C0.040
T7C0.047
T8C0.075
T9C0.126
T10C0.130
T11C0.134
%
G90
G05
M72
T1
X-0.0314Y-1.3798
X-0.0314Y-1.4468
X-0.0314Y-1.5138
X0.6726Y-0.8223
X0.7726Y-0.7988
X0.8731Y-0.7753
X0.9726Y-0.8458
X1.4726Y-0.7058
X1.5206Y-1.4338
X1.5726Y-0.7523
X1.6746Y-0.6823
X1.7726Y-0.7288
X1.8731Y-1.4568
X1.9331Y-1.3348
X2.9391Y-1.4478
X2.9621Y-1.3798
X2.9621Y-1.4143
X3.4552Y-1.717
X3.5564Y-1.5596
X3.6064Y-1.5366
X3.7594Y-1.051
X3.7892Y-1.2248
X3.8262Y-1.1416
X3.8856Y-1.2248
X3.914Y-1.0834
X3.9822Y-1.1416
X3.9866Y-1.3128
X4.0046Y-1.2538
X4.0061Y-1.1748
X4.0196Y-1.1468
X4.0248Y-1.1072
X4.0531Y-1.3428
X4.0826Y-0.5228
X4.0836Y-0.3778
X4.1256Y-1.0873
X4.1256Y-1.4208
X4.1356Y-1.1173
X4.1381Y-0.9753
X4.1448Y-1.4738
X4.1481Y-1.2053
X4.15Y-1.505
X4.1568Y-1.535
X4.1581Y-1.0738
X4.1581Y-1.3178
X4.1736Y-1.2304
X4.1776Y-0.9748
X4.1826Y-0.5458
X4.1976Y-1.0738
X4.1981Y-0.9518
X4.2336Y-0.3548
X4.2336Y-1.5434
X4.2336Y-1.6856
X4.2631Y-1.4488
X4.2701Y-1.3123
X4.2826Y-0.5686
X4.2836Y-0.3318
X4.286Y-0.9262
X4.2931Y-1.4463
X4.2951Y-1.2948
X4.2956Y-1.4163
X4.3076Y-1.1098
X4.3156Y-0.9288
X4.3186Y-1.2112
X4.3226Y-1.2828
X4.329Y-1.1686
X4.3336Y-0.309
X4.3381Y-1.1203
X4.3498Y-1.227
X4.3556Y-1.1443
X4.3716Y-1.2878
X4.4179Y-1.3316
X4.4334Y-1.717
X4.4616Y-0.9518
X4.4826Y-0.3548
X4.4846Y-1.2176
X4.5398Y-1.2202
X4.5606Y-1.1956
X4.5826Y-0.3778
X4.5936Y-0.9518
X4.6136Y-1.2614
X4.6234Y-0.9288
X4.6326Y-0.5228
X4.6638Y-1.3076
X4.7132Y-1.2204
X4.7324Y-0.5456
X4.7636Y-1.2614
X4.7826Y-0.3318
X4.8136Y-1.3118
X4.8326Y-0.5686
X4.8636Y-1.1956
X4.8826Y-0.309
X4.9831Y-1.2383
X5.0558Y-1.3494
X5.1286Y-1.2648
X5.2308Y-0.3778
X5.2326Y-1.3354
X5.27Y-1.3684
X5.3531Y-1.2648
X5.3754Y-1.3684
X5.3808Y-0.3548
X5.4148Y-1.1982
X5.4308Y-0.3318
X5.4374Y-1.3684
X5.4501Y-1.2383
X5.4808Y-0.309
X5.5066Y-0.9518
X5.5192Y-1.2418
X5.52Y-1.3685
X5.5454Y-0.309
X5.9396Y-1.4558
X5.9681Y-1.3798
X5.9686Y-1.4468
X6.1546Y-0.7038
X6.4266Y-1.3268
X6.6726Y-0.9013
X6.7726Y-0.8783
X6.8726Y-0.8548
X6.9726Y-0.9243
X7.4726Y-0.7858
X7.5726Y-0.8318
X7.6726Y-0.7628
X7.7726Y-0.8088
X7.9321Y-1.3353
X8.9685Y-1.5138
X8.9686Y-1.3798
X8.9686Y-1.4468
T2
X0.1576Y-0.2593
X0.3461Y-1.4038
X0.5726Y-0.2593
X0.5726Y-1.7428
X0.5731Y-1.4038
X1.6246Y-1.7428
X1.8726Y-0.2593
X1.9786Y-1.7428
X3.2886Y-1.7423
X3.8301Y-1.7428
X4.283Y-1.6856
X4.633Y-0.2342
X4.72Y-0.2326
X5.1406Y-0.7038
X5.1618Y-1.6856
X5.3206Y-0.7033
X5.5236Y-1.5763
X5.5236Y-1.7428
X5.6656Y-0.7038
X5.6656Y-1.5763
X6.2211Y-1.7428
X6.5726Y-0.7038
X7.6246Y-1.7428
X7.8726Y-0.7038
X7.9786Y-1.7428
X9.2936Y-1.7423
T3
X5.0826Y-0.052
X5.2568Y-1.6682
T4
X3.5064Y-1.629
X3.5064Y-1.679
X3.5564Y-1.629
X3.5564Y-1.679
X3.6064Y-1.629
X3.6064Y-1.679
X3.6564Y-1.629
X3.6564Y-1.679
X3.7064Y-1.629
X3.7064Y-1.679
T5
X3.9835Y-0.2066
X4.0335Y-0.1066
X4.0835Y-0.2066
X4.1335Y-0.1066
X4.1835Y-0.2066
X4.2335Y-0.1066
X4.2835Y-0.2066
X4.3335Y-0.1066
X4.6454Y0.0955
X4.8186Y0.0955
X5.1308Y-0.2088
X5.1808Y-0.1088
X5.2308Y-0.2088
X5.2808Y-0.1088
X5.3308Y-0.2088
X5.3808Y-0.1088
X5.4308Y-0.2088
X5.4808Y-0.1088
T6
X1.4203Y-1.6103
X1.5203Y-1.6103
X1.7731Y-1.6103
X1.8731Y-1.6103
X3.9826Y-0.4498
X3.9831Y-1.6103
X4.0826Y-0.4498
X4.0831Y-1.6103
X4.1826Y-0.4498
X4.1831Y-1.6103
X4.2826Y-0.4498
X4.2831Y-1.6103
X4.3826Y-0.4498
X4.3831Y-1.6103
X4.4826Y-0.4498
X4.4831Y-1.6103
X4.5826Y-0.4498
X4.5831Y-1.6103
X4.6824Y-0.734
X4.6824Y-0.8752
X4.6826Y-0.4498
X4.6831Y-1.6103
X4.7824Y-0.734
X4.7824Y-0.8752
X4.7826Y-0.4498
X4.7831Y-1.6103
X4.8824Y-0.8752
X4.8826Y-0.4498
X4.8831Y-1.6103
X4.9826Y-0.4498
X4.9831Y-1.6103
X5.0826Y-0.4498
X5.0831Y-1.6103
X7.4201Y-1.6103
X7.5201Y-1.6098
X7.7733Y-1.6103
X7.8733Y-1.6103
T7
X0.4726Y0.1772
X0.5726Y0.1772
X0.6726Y0.1772
X0.7726Y0.1772
X0.8726Y0.1772
X0.9726Y0.1772
X1.0726Y0.1772
X1.1726Y0.1772
X1.2726Y0.1772
X1.3726Y0.1772
X1.4726Y0.1772
X1.5726Y0.1772
X1.6726Y0.1772
X1.7726Y0.1772
X1.8726Y0.1772
X1.9726Y0.1772
X6.4726Y0.1772
X6.5726Y0.1772
X6.6726Y0.1772
X6.7726Y0.1772
X6.8726Y0.1772
X6.9726Y0.1772
X7.0726Y0.1772
X7.1726Y0.1772
X7.2726Y0.1772
X7.3726Y0.1772
X7.4726Y0.1772
X7.5726Y0.1772
X7.6726Y0.1772
X7.7726Y0.1772
X7.8726Y0.1772
X7.9726Y0.1772
T8
X3.4347Y0.0951
X3.4347Y-0.1018
X3.73Y0.0951
X3.73Y-0.1018
X5.7347Y0.095
X5.7347Y-0.1018
X6.03Y0.0951
X6.03Y-0.1018
T9
X4.392Y0.1434
X5.5393Y0.1412
T10
X3.9247Y0.1434
X5.072Y0.1412
T11
X0.Y0.
X0.0001Y-1.8699
X0.2561Y0.1772
X0.2561Y-1.0433
X3.2088Y0.1772
X3.2088Y-1.0433
X3.504Y-1.1417
X5.9607Y-1.1417
X6.2561Y0.1772
X6.2561Y-1.0433
X9.2088Y0.1772
X9.2088Y-1.0433
X9.4646Y0.
X9.4646Y-1.8699
T0
M30
