G04 #@! TF.GenerationSoftware,KiCad,Pcbnew,(2017-04-07 revision 7b4ea2a38)-master*
G04 #@! TF.CreationDate,2017-07-14T15:53:39-03:00*
G04 #@! TF.ProjectId,footswitch,666F6F747377697463682E6B69636164,rev?*
G04 #@! TF.FileFunction,Soldermask,Bot*
G04 #@! TF.FilePolarity,Negative*
%FSLAX46Y46*%
G04 Gerber Fmt 4.6, Leading zero omitted, Abs format (unit mm)*
G04 Created by KiCad (PCBNEW (2017-04-07 revision 7b4ea2a38)-master) date Fri Jul 14 15:53:39 2017*
%MOMM*%
%LPD*%
G01*
G04 APERTURE LIST*
%ADD10C,0.100000*%
%ADD11O,2.232000X2.232000*%
%ADD12R,2.232000X2.232000*%
%ADD13R,1.927200X2.232000*%
%ADD14O,1.927200X2.232000*%
%ADD15O,2.000000X2.800000*%
%ADD16C,3.600000*%
%ADD17R,1.250000X1.250000*%
%ADD18C,1.250000*%
%ADD19C,2.100000*%
%ADD20C,1.099160*%
%ADD21C,3.500000*%
%ADD22C,3.400000*%
%ADD23R,1.701140X1.701140*%
%ADD24C,1.701140*%
G04 APERTURE END LIST*
D10*
D11*
X191010540Y-40901620D03*
D12*
X188470540Y-40888920D03*
D11*
X199981820Y-40901620D03*
D12*
X197441820Y-40901620D03*
D11*
X47576740Y-40901620D03*
D12*
X45036740Y-40901620D03*
D11*
X38615620Y-40901620D03*
D12*
X36075620Y-40901620D03*
D13*
X129110740Y-40901620D03*
D14*
X126570740Y-40901620D03*
X124030740Y-40901620D03*
X121490740Y-40901620D03*
X118950740Y-40901620D03*
X116410740Y-40901620D03*
X113870740Y-40901620D03*
X111330740Y-40901620D03*
X108790740Y-40901620D03*
X106250740Y-40901620D03*
X103710740Y-40901620D03*
X101170740Y-40901620D03*
D15*
X12004040Y4500880D03*
X14544040Y4500880D03*
X17084040Y4500880D03*
X19624040Y4500880D03*
X22164040Y4500880D03*
X24704040Y4500880D03*
X27244040Y4500880D03*
X29784040Y4500880D03*
X32324040Y4500880D03*
X34864040Y4500880D03*
X37404040Y4500880D03*
X39944040Y4500880D03*
X42484040Y4500880D03*
X45024040Y4500880D03*
X47564040Y4500880D03*
X50104040Y4500880D03*
D16*
X6504940Y4500880D03*
X6504940Y-26499820D03*
X81503520Y-26499820D03*
X81503520Y4500880D03*
D17*
X89062560Y-42646600D03*
D18*
X90332560Y-42646600D03*
X91602560Y-42646600D03*
X92872560Y-42646600D03*
X94142560Y-42646600D03*
X90332560Y-41376600D03*
X91602560Y-41376600D03*
X92872560Y-41376600D03*
X94142560Y-41376600D03*
X89062560Y-41376600D03*
D16*
X89001600Y-28999180D03*
X2540Y-47495460D03*
X151401780Y-28999180D03*
X240400840Y0D03*
X240400840Y-47495460D03*
D19*
X153161380Y-2584460D03*
X145661380Y-2584460D03*
X153161380Y2415540D03*
X145661380Y2413000D03*
X94741380Y-2584460D03*
X87241380Y-2584460D03*
X94741380Y2415540D03*
X87241380Y2415540D03*
D16*
X0Y0D03*
D15*
X164404040Y4500880D03*
X166944040Y4500880D03*
X169484040Y4500880D03*
X172024040Y4500880D03*
X174564040Y4500880D03*
X177104040Y4500880D03*
X179644040Y4500880D03*
X182184040Y4500880D03*
X184724040Y4500880D03*
X187264040Y4500880D03*
X189804040Y4500880D03*
X192344040Y4500880D03*
X194884040Y4500880D03*
X197424040Y4500880D03*
X199964040Y4500880D03*
X202504040Y4500880D03*
D16*
X158904940Y4500880D03*
X158904940Y-26499820D03*
X233903520Y-26499820D03*
X233903520Y4500880D03*
D20*
X122392440Y2425700D03*
X117993160Y2425700D03*
D21*
X99687380Y1462360D03*
D22*
X111556800Y1462360D03*
D23*
X110070900Y-4887640D03*
D24*
X108800900Y-7427640D03*
X107530900Y-4887640D03*
X106260900Y-7427640D03*
X104990900Y-4887640D03*
X103720900Y-7427640D03*
X102450900Y-4887640D03*
X101180900Y-7427640D03*
D21*
X128828800Y1406480D03*
D22*
X140698220Y1406480D03*
D23*
X139212320Y-4943520D03*
D24*
X137942320Y-7483520D03*
X136672320Y-4943520D03*
X135402320Y-7483520D03*
X134132320Y-4943520D03*
X132862320Y-7483520D03*
X131592320Y-4943520D03*
X130322320Y-7483520D03*
D14*
X144125840Y-32326920D03*
X141585840Y-32326920D03*
D13*
X139045840Y-32326920D03*
X129098040Y-12428220D03*
D14*
X126558040Y-12428220D03*
X124018040Y-12428220D03*
X121478040Y-12428220D03*
X118938040Y-12428220D03*
X116398040Y-12428220D03*
X113858040Y-12428220D03*
X111318040Y-12428220D03*
X108778040Y-12428220D03*
X106238040Y-12428220D03*
X103698040Y-12428220D03*
X101158040Y-12428220D03*
M02*
