G04 #@! TF.GenerationSoftware,KiCad,Pcbnew,5.0.2-bee76a0~70~ubuntu18.04.1*
G04 #@! TF.CreationDate,2019-04-01T12:32:04+02:00*
G04 #@! TF.ProjectId,footswitch,666f6f74-7377-4697-9463-682e6b696361,rev?*
G04 #@! TF.SameCoordinates,PX1ae5c80PY3d0c318*
G04 #@! TF.FileFunction,Legend,Top*
G04 #@! TF.FilePolarity,Positive*
%FSLAX46Y46*%
G04 Gerber Fmt 4.6, Leading zero omitted, Abs format (unit mm)*
G04 Created by KiCad (PCBNEW 5.0.2-bee76a0~70~ubuntu18.04.1) date Mon 01 Apr 2019 12:32:04 PM CEST*
%MOMM*%
%LPD*%
G01*
G04 APERTURE LIST*
%ADD10C,0.300000*%
%ADD11C,0.150000*%
%ADD12C,0.010000*%
%ADD13C,0.100000*%
G04 APERTURE END LIST*
D10*
X9047982Y-43524777D02*
X8547982Y-43524777D01*
X8547982Y-44310491D02*
X8547982Y-42810491D01*
X9262268Y-42810491D01*
X10047982Y-44310491D02*
X9905125Y-44239062D01*
X9833697Y-44167634D01*
X9762268Y-44024777D01*
X9762268Y-43596205D01*
X9833697Y-43453348D01*
X9905125Y-43381920D01*
X10047982Y-43310491D01*
X10262268Y-43310491D01*
X10405125Y-43381920D01*
X10476554Y-43453348D01*
X10547982Y-43596205D01*
X10547982Y-44024777D01*
X10476554Y-44167634D01*
X10405125Y-44239062D01*
X10262268Y-44310491D01*
X10047982Y-44310491D01*
X11405125Y-44310491D02*
X11262268Y-44239062D01*
X11190840Y-44167634D01*
X11119411Y-44024777D01*
X11119411Y-43596205D01*
X11190840Y-43453348D01*
X11262268Y-43381920D01*
X11405125Y-43310491D01*
X11619411Y-43310491D01*
X11762268Y-43381920D01*
X11833697Y-43453348D01*
X11905125Y-43596205D01*
X11905125Y-44024777D01*
X11833697Y-44167634D01*
X11762268Y-44239062D01*
X11619411Y-44310491D01*
X11405125Y-44310491D01*
X12333697Y-43310491D02*
X12905125Y-43310491D01*
X12547982Y-42810491D02*
X12547982Y-44096205D01*
X12619411Y-44239062D01*
X12762268Y-44310491D01*
X12905125Y-44310491D01*
X13333697Y-44239062D02*
X13476554Y-44310491D01*
X13762268Y-44310491D01*
X13905125Y-44239062D01*
X13976554Y-44096205D01*
X13976554Y-44024777D01*
X13905125Y-43881920D01*
X13762268Y-43810491D01*
X13547982Y-43810491D01*
X13405125Y-43739062D01*
X13333697Y-43596205D01*
X13333697Y-43524777D01*
X13405125Y-43381920D01*
X13547982Y-43310491D01*
X13762268Y-43310491D01*
X13905125Y-43381920D01*
X14476554Y-43310491D02*
X14762268Y-44310491D01*
X15047982Y-43596205D01*
X15333697Y-44310491D01*
X15619411Y-43310491D01*
X16190840Y-44310491D02*
X16190840Y-43310491D01*
X16190840Y-42810491D02*
X16119411Y-42881920D01*
X16190840Y-42953348D01*
X16262268Y-42881920D01*
X16190840Y-42810491D01*
X16190840Y-42953348D01*
X16690840Y-43310491D02*
X17262268Y-43310491D01*
X16905125Y-42810491D02*
X16905125Y-44096205D01*
X16976554Y-44239062D01*
X17119411Y-44310491D01*
X17262268Y-44310491D01*
X18405125Y-44239062D02*
X18262268Y-44310491D01*
X17976554Y-44310491D01*
X17833697Y-44239062D01*
X17762268Y-44167634D01*
X17690840Y-44024777D01*
X17690840Y-43596205D01*
X17762268Y-43453348D01*
X17833697Y-43381920D01*
X17976554Y-43310491D01*
X18262268Y-43310491D01*
X18405125Y-43381920D01*
X19047982Y-44310491D02*
X19047982Y-42810491D01*
X19690840Y-44310491D02*
X19690840Y-43524777D01*
X19619411Y-43381920D01*
X19476554Y-43310491D01*
X19262268Y-43310491D01*
X19119411Y-43381920D01*
X19047982Y-43453348D01*
X21547982Y-43524777D02*
X22047982Y-43524777D01*
X22262268Y-44310491D02*
X21547982Y-44310491D01*
X21547982Y-42810491D01*
X22262268Y-42810491D01*
X22762268Y-44310491D02*
X23547982Y-43310491D01*
X22762268Y-43310491D02*
X23547982Y-44310491D01*
X23905125Y-43310491D02*
X24476554Y-43310491D01*
X24119411Y-42810491D02*
X24119411Y-44096205D01*
X24190840Y-44239062D01*
X24333697Y-44310491D01*
X24476554Y-44310491D01*
X25547982Y-44239062D02*
X25405125Y-44310491D01*
X25119411Y-44310491D01*
X24976554Y-44239062D01*
X24905125Y-44096205D01*
X24905125Y-43524777D01*
X24976554Y-43381920D01*
X25119411Y-43310491D01*
X25405125Y-43310491D01*
X25547982Y-43381920D01*
X25619411Y-43524777D01*
X25619411Y-43667634D01*
X24905125Y-43810491D01*
X26262268Y-43310491D02*
X26262268Y-44310491D01*
X26262268Y-43453348D02*
X26333697Y-43381920D01*
X26476554Y-43310491D01*
X26690840Y-43310491D01*
X26833697Y-43381920D01*
X26905125Y-43524777D01*
X26905125Y-44310491D01*
X27547982Y-44239062D02*
X27690840Y-44310491D01*
X27976554Y-44310491D01*
X28119411Y-44239062D01*
X28190840Y-44096205D01*
X28190840Y-44024777D01*
X28119411Y-43881920D01*
X27976554Y-43810491D01*
X27762268Y-43810491D01*
X27619411Y-43739062D01*
X27547982Y-43596205D01*
X27547982Y-43524777D01*
X27619411Y-43381920D01*
X27762268Y-43310491D01*
X27976554Y-43310491D01*
X28119411Y-43381920D01*
X28833697Y-44310491D02*
X28833697Y-43310491D01*
X28833697Y-42810491D02*
X28762268Y-42881920D01*
X28833697Y-42953348D01*
X28905125Y-42881920D01*
X28833697Y-42810491D01*
X28833697Y-42953348D01*
X29762268Y-44310491D02*
X29619411Y-44239062D01*
X29547982Y-44167634D01*
X29476554Y-44024777D01*
X29476554Y-43596205D01*
X29547982Y-43453348D01*
X29619411Y-43381920D01*
X29762268Y-43310491D01*
X29976554Y-43310491D01*
X30119411Y-43381920D01*
X30190840Y-43453348D01*
X30262268Y-43596205D01*
X30262268Y-44024777D01*
X30190840Y-44167634D01*
X30119411Y-44239062D01*
X29976554Y-44310491D01*
X29762268Y-44310491D01*
X30905125Y-43310491D02*
X30905125Y-44310491D01*
X30905125Y-43453348D02*
X30976554Y-43381920D01*
X31119411Y-43310491D01*
X31333697Y-43310491D01*
X31476554Y-43381920D01*
X31547982Y-43524777D01*
X31547982Y-44310491D01*
X9405125Y-46860491D02*
X8905125Y-46146205D01*
X8547982Y-46860491D02*
X8547982Y-45360491D01*
X9119411Y-45360491D01*
X9262268Y-45431920D01*
X9333697Y-45503348D01*
X9405125Y-45646205D01*
X9405125Y-45860491D01*
X9333697Y-46003348D01*
X9262268Y-46074777D01*
X9119411Y-46146205D01*
X8547982Y-46146205D01*
X10619411Y-46789062D02*
X10476554Y-46860491D01*
X10190840Y-46860491D01*
X10047982Y-46789062D01*
X9976554Y-46646205D01*
X9976554Y-46074777D01*
X10047982Y-45931920D01*
X10190840Y-45860491D01*
X10476554Y-45860491D01*
X10619411Y-45931920D01*
X10690840Y-46074777D01*
X10690840Y-46217634D01*
X9976554Y-46360491D01*
X11190840Y-45860491D02*
X11547982Y-46860491D01*
X11905125Y-45860491D01*
X12476554Y-46717634D02*
X12547982Y-46789062D01*
X12476554Y-46860491D01*
X12405125Y-46789062D01*
X12476554Y-46717634D01*
X12476554Y-46860491D01*
X13190840Y-46717634D02*
X13262268Y-46789062D01*
X13190840Y-46860491D01*
X13119411Y-46789062D01*
X13190840Y-46717634D01*
X13190840Y-46860491D01*
X13190840Y-45931920D02*
X13262268Y-46003348D01*
X13190840Y-46074777D01*
X13119411Y-46003348D01*
X13190840Y-45931920D01*
X13190840Y-46074777D01*
X14976554Y-45503348D02*
X15047982Y-45431920D01*
X15190840Y-45360491D01*
X15547982Y-45360491D01*
X15690840Y-45431920D01*
X15762268Y-45503348D01*
X15833697Y-45646205D01*
X15833697Y-45789062D01*
X15762268Y-46003348D01*
X14905125Y-46860491D01*
X15833697Y-46860491D01*
X16762268Y-45360491D02*
X16905125Y-45360491D01*
X17047982Y-45431920D01*
X17119411Y-45503348D01*
X17190840Y-45646205D01*
X17262268Y-45931920D01*
X17262268Y-46289062D01*
X17190840Y-46574777D01*
X17119411Y-46717634D01*
X17047982Y-46789062D01*
X16905125Y-46860491D01*
X16762268Y-46860491D01*
X16619411Y-46789062D01*
X16547982Y-46717634D01*
X16476554Y-46574777D01*
X16405125Y-46289062D01*
X16405125Y-45931920D01*
X16476554Y-45646205D01*
X16547982Y-45503348D01*
X16619411Y-45431920D01*
X16762268Y-45360491D01*
X18690840Y-46860491D02*
X17833697Y-46860491D01*
X18262268Y-46860491D02*
X18262268Y-45360491D01*
X18119411Y-45574777D01*
X17976554Y-45717634D01*
X17833697Y-45789062D01*
X19190840Y-45360491D02*
X20190840Y-45360491D01*
X19547982Y-46860491D01*
X20762268Y-46717634D02*
X20833697Y-46789062D01*
X20762268Y-46860491D01*
X20690840Y-46789062D01*
X20762268Y-46717634D01*
X20762268Y-46860491D01*
X21762268Y-45360491D02*
X21905125Y-45360491D01*
X22047982Y-45431920D01*
X22119411Y-45503348D01*
X22190840Y-45646205D01*
X22262268Y-45931920D01*
X22262268Y-46289062D01*
X22190840Y-46574777D01*
X22119411Y-46717634D01*
X22047982Y-46789062D01*
X21905125Y-46860491D01*
X21762268Y-46860491D01*
X21619411Y-46789062D01*
X21547982Y-46717634D01*
X21476554Y-46574777D01*
X21405125Y-46289062D01*
X21405125Y-45931920D01*
X21476554Y-45646205D01*
X21547982Y-45503348D01*
X21619411Y-45431920D01*
X21762268Y-45360491D01*
X22762268Y-45360491D02*
X23762268Y-45360491D01*
X23119411Y-46860491D01*
X24333697Y-46717634D02*
X24405125Y-46789062D01*
X24333697Y-46860491D01*
X24262268Y-46789062D01*
X24333697Y-46717634D01*
X24333697Y-46860491D01*
X25833697Y-46860491D02*
X24976554Y-46860491D01*
X25405125Y-46860491D02*
X25405125Y-45360491D01*
X25262268Y-45574777D01*
X25119411Y-45717634D01*
X24976554Y-45789062D01*
X27119411Y-45860491D02*
X27119411Y-46860491D01*
X26762268Y-45289062D02*
X26405125Y-46360491D01*
X27333697Y-46360491D01*
D11*
G04 #@! TO.C,U1*
X124175440Y-29771520D02*
X124060440Y-29771520D01*
X124175440Y-33921520D02*
X124060440Y-33921520D01*
X115275440Y-33921520D02*
X115390440Y-33921520D01*
X115275440Y-29771520D02*
X115390440Y-29771520D01*
X124175440Y-29771520D02*
X124175440Y-33921520D01*
X115275440Y-29771520D02*
X115275440Y-33921520D01*
X124060440Y-29771520D02*
X124060440Y-28396520D01*
G04 #@! TO.C,P8*
X130660740Y-39601620D02*
X129110740Y-39601620D01*
X130660740Y-40901620D02*
X130660740Y-39601620D01*
X129237740Y-45092620D02*
X129237740Y-50934620D01*
X129237740Y-50934620D02*
X128983740Y-50934620D01*
X128983740Y-50934620D02*
X128983740Y-45092620D01*
X128983740Y-45092620D02*
X129110740Y-45092620D01*
X129110740Y-45092620D02*
X129110740Y-50934620D01*
X111584740Y-42425620D02*
X111584740Y-42044620D01*
X111076740Y-42425620D02*
X111076740Y-42044620D01*
X109044740Y-42425620D02*
X109044740Y-42044620D01*
X108536740Y-42425620D02*
X108536740Y-42044620D01*
X106504740Y-42425620D02*
X106504740Y-42044620D01*
X105996740Y-42425620D02*
X105996740Y-42044620D01*
X103964740Y-42425620D02*
X103964740Y-42044620D01*
X103456740Y-42425620D02*
X103456740Y-42044620D01*
X100916740Y-42425620D02*
X100916740Y-42044620D01*
X101424740Y-42425620D02*
X101424740Y-42044620D01*
X129364740Y-42425620D02*
X129364740Y-42044620D01*
X128856740Y-42425620D02*
X128856740Y-42044620D01*
X126824740Y-42425620D02*
X126824740Y-42044620D01*
X126316740Y-42425620D02*
X126316740Y-42044620D01*
X124284740Y-42425620D02*
X124284740Y-42044620D01*
X123776740Y-42425620D02*
X123776740Y-42044620D01*
X113616740Y-42425620D02*
X113616740Y-42044620D01*
X114124740Y-42425620D02*
X114124740Y-42044620D01*
X116156740Y-42425620D02*
X116156740Y-42044620D01*
X116664740Y-42425620D02*
X116664740Y-42044620D01*
X118696740Y-42425620D02*
X118696740Y-42044620D01*
X119204740Y-42425620D02*
X119204740Y-42044620D01*
X121236740Y-42425620D02*
X121236740Y-42044620D01*
X121744740Y-42425620D02*
X121744740Y-42044620D01*
X115140740Y-42425620D02*
X115140740Y-44965620D01*
X115140740Y-42425620D02*
X112600740Y-42425620D01*
X112600740Y-42425620D02*
X112600740Y-44965620D01*
X114124740Y-44965620D02*
X114124740Y-51061620D01*
X114124740Y-51061620D02*
X113616740Y-51061620D01*
X113616740Y-51061620D02*
X113616740Y-44965620D01*
X112600740Y-44965620D02*
X115140740Y-44965620D01*
X110060740Y-44965620D02*
X112600740Y-44965620D01*
X111076740Y-51061620D02*
X111076740Y-44965620D01*
X111584740Y-51061620D02*
X111076740Y-51061620D01*
X111584740Y-44965620D02*
X111584740Y-51061620D01*
X110060740Y-42425620D02*
X110060740Y-44965620D01*
X112600740Y-42425620D02*
X110060740Y-42425620D01*
X112600740Y-42425620D02*
X112600740Y-44965620D01*
X107520740Y-42425620D02*
X107520740Y-44965620D01*
X107520740Y-42425620D02*
X104980740Y-42425620D01*
X104980740Y-42425620D02*
X104980740Y-44965620D01*
X106504740Y-44965620D02*
X106504740Y-51061620D01*
X106504740Y-51061620D02*
X105996740Y-51061620D01*
X105996740Y-51061620D02*
X105996740Y-44965620D01*
X104980740Y-44965620D02*
X107520740Y-44965620D01*
X107520740Y-44965620D02*
X110060740Y-44965620D01*
X108536740Y-51061620D02*
X108536740Y-44965620D01*
X109044740Y-51061620D02*
X108536740Y-51061620D01*
X109044740Y-44965620D02*
X109044740Y-51061620D01*
X107520740Y-42425620D02*
X107520740Y-44965620D01*
X110060740Y-42425620D02*
X107520740Y-42425620D01*
X110060740Y-42425620D02*
X110060740Y-44965620D01*
X102440740Y-42425620D02*
X102440740Y-44965620D01*
X102440740Y-42425620D02*
X99900740Y-42425620D01*
X99900740Y-42425620D02*
X99900740Y-44965620D01*
X101424740Y-44965620D02*
X101424740Y-51061620D01*
X101424740Y-51061620D02*
X100916740Y-51061620D01*
X100916740Y-51061620D02*
X100916740Y-44965620D01*
X99900740Y-44965620D02*
X102440740Y-44965620D01*
X102440740Y-44965620D02*
X104980740Y-44965620D01*
X103456740Y-51061620D02*
X103456740Y-44965620D01*
X103964740Y-51061620D02*
X103456740Y-51061620D01*
X103964740Y-44965620D02*
X103964740Y-51061620D01*
X102440740Y-42425620D02*
X102440740Y-44965620D01*
X104980740Y-42425620D02*
X102440740Y-42425620D01*
X104980740Y-42425620D02*
X104980740Y-44965620D01*
X130380740Y-42425620D02*
X130380740Y-44965620D01*
X127840740Y-42425620D02*
X127840740Y-44965620D01*
X127840740Y-42425620D02*
X125300740Y-42425620D01*
X125300740Y-42425620D02*
X125300740Y-44965620D01*
X126824740Y-44965620D02*
X126824740Y-51061620D01*
X126824740Y-51061620D02*
X126316740Y-51061620D01*
X126316740Y-51061620D02*
X126316740Y-44965620D01*
X125300740Y-44965620D02*
X127840740Y-44965620D01*
X127840740Y-44965620D02*
X130380740Y-44965620D01*
X128856740Y-51061620D02*
X128856740Y-44965620D01*
X129364740Y-51061620D02*
X128856740Y-51061620D01*
X129364740Y-44965620D02*
X129364740Y-51061620D01*
X127840740Y-42425620D02*
X127840740Y-44965620D01*
X130380740Y-42425620D02*
X127840740Y-42425620D01*
X120220740Y-42425620D02*
X120220740Y-44965620D01*
X120220740Y-42425620D02*
X117680740Y-42425620D01*
X117680740Y-42425620D02*
X117680740Y-44965620D01*
X119204740Y-44965620D02*
X119204740Y-51061620D01*
X119204740Y-51061620D02*
X118696740Y-51061620D01*
X118696740Y-51061620D02*
X118696740Y-44965620D01*
X117680740Y-44965620D02*
X120220740Y-44965620D01*
X115140740Y-44965620D02*
X117680740Y-44965620D01*
X116156740Y-51061620D02*
X116156740Y-44965620D01*
X116664740Y-51061620D02*
X116156740Y-51061620D01*
X116664740Y-44965620D02*
X116664740Y-51061620D01*
X115140740Y-42425620D02*
X115140740Y-44965620D01*
X117680740Y-42425620D02*
X115140740Y-42425620D01*
X117680740Y-42425620D02*
X117680740Y-44965620D01*
X122760740Y-42425620D02*
X122760740Y-44965620D01*
X122760740Y-42425620D02*
X120220740Y-42425620D01*
X120220740Y-42425620D02*
X120220740Y-44965620D01*
X121744740Y-44965620D02*
X121744740Y-51061620D01*
X121744740Y-51061620D02*
X121236740Y-51061620D01*
X121236740Y-51061620D02*
X121236740Y-44965620D01*
X120220740Y-44965620D02*
X122760740Y-44965620D01*
X122760740Y-44965620D02*
X125300740Y-44965620D01*
X123776740Y-51061620D02*
X123776740Y-44965620D01*
X124284740Y-51061620D02*
X123776740Y-51061620D01*
X124284740Y-44965620D02*
X124284740Y-51061620D01*
X122760740Y-42425620D02*
X122760740Y-44965620D01*
X125300740Y-42425620D02*
X122760740Y-42425620D01*
X125300740Y-42425620D02*
X125300740Y-44965620D01*
G04 #@! TO.C,C9*
X133308840Y-14062000D02*
X132608840Y-14062000D01*
X132608840Y-12862000D02*
X133308840Y-12862000D01*
G04 #@! TO.C,DS1*
X12204700Y-3500120D02*
X75704700Y-3500120D01*
X11704320Y-17998440D02*
X11704320Y-3997960D01*
X75704700Y-18498820D02*
X12204700Y-18498820D01*
X76205080Y-3997960D02*
X76205080Y-17998440D01*
X76202540Y-3997960D02*
G75*
G03X75704700Y-3500120I-497840J0D01*
G01*
X75704700Y-18498820D02*
G75*
G03X76205080Y-17998440I0J500380D01*
G01*
X11704320Y-17998440D02*
G75*
G03X12204700Y-18498820I500380J0D01*
G01*
X12204700Y-3497580D02*
G75*
G03X11704320Y-3997960I0J-500380D01*
G01*
X7404100Y1600200D02*
X80604360Y1600200D01*
X80604360Y1600200D02*
X80604360Y-23799800D01*
X80604360Y-23799800D02*
X7404100Y-23799800D01*
X7404100Y-23799800D02*
X7404100Y1600200D01*
X84002880Y4500880D02*
G75*
G03X84002880Y4500880I-2499360J0D01*
G01*
X84002880Y-26499820D02*
G75*
G03X84002880Y-26499820I-2499360J0D01*
G01*
X9006840Y-26499820D02*
G75*
G03X9006840Y-26499820I-2501900J0D01*
G01*
X9004300Y4500880D02*
G75*
G03X9004300Y4500880I-2499360J0D01*
G01*
X4003040Y7000240D02*
X84002880Y7000240D01*
X84002880Y7000240D02*
X84002880Y-28999180D01*
X84002880Y-28999180D02*
X4003040Y-28999180D01*
X4003040Y-28999180D02*
X4003040Y7000240D01*
G04 #@! TO.C,C10*
X180443840Y-45206920D02*
G75*
G03X180443840Y-45206920I-3048000J0D01*
G01*
X177014840Y-43428920D02*
X177776840Y-43428920D01*
X177395840Y-43047920D02*
X177395840Y-43809920D01*
X174093840Y-42666920D02*
X174093840Y-48508920D01*
X174855840Y-41904920D02*
X174093840Y-42666920D01*
X179935840Y-41904920D02*
X174855840Y-41904920D01*
X180697840Y-42666920D02*
X179935840Y-41904920D01*
X180697840Y-48508920D02*
X180697840Y-42666920D01*
X174093840Y-48508920D02*
X180697840Y-48508920D01*
X175617840Y-47619920D02*
X179173840Y-47619920D01*
X179046840Y-47746920D02*
X175744840Y-47746920D01*
X175998840Y-47873920D02*
X178792840Y-47873920D01*
X178538840Y-48000920D02*
X176252840Y-48000920D01*
X176633840Y-48127920D02*
X178157840Y-48127920D01*
G04 #@! TO.C,U3*
X111488640Y-26748320D02*
X110963640Y-26748320D01*
X111488640Y-33998320D02*
X110963640Y-33998320D01*
X104238640Y-33998320D02*
X104763640Y-33998320D01*
X104238640Y-26748320D02*
X104763640Y-26748320D01*
X111488640Y-26748320D02*
X111488640Y-27273320D01*
X104238640Y-26748320D02*
X104238640Y-27273320D01*
X104238640Y-33998320D02*
X104238640Y-33473320D01*
X111488640Y-33998320D02*
X111488640Y-33473320D01*
X110963640Y-26748320D02*
X110963640Y-25373320D01*
G04 #@! TO.C,Q2*
X96593660Y-31835140D02*
X96593660Y-31883400D01*
X97294700Y-34634120D02*
X96593660Y-34634120D01*
X96593660Y-34634120D02*
X96593660Y-34385200D01*
X96593660Y-31835140D02*
X96593660Y-31634480D01*
X96593660Y-31634480D02*
X97294700Y-31634480D01*
G04 #@! TO.C,C8*
X136475840Y-44216920D02*
X136475840Y-45216920D01*
X138175840Y-45216920D02*
X138175840Y-44216920D01*
G04 #@! TO.C,C7*
X148605840Y-45306920D02*
X148605840Y-44606920D01*
X149805840Y-44606920D02*
X149805840Y-45306920D01*
G04 #@! TO.C,C12*
X182605840Y-42856920D02*
X182605840Y-43556920D01*
X181405840Y-43556920D02*
X181405840Y-42856920D01*
G04 #@! TO.C,C4*
X112303040Y-18984520D02*
X111603040Y-18984520D01*
X111603040Y-17784520D02*
X112303040Y-17784520D01*
G04 #@! TO.C,C6*
X103393760Y-17784520D02*
X104093760Y-17784520D01*
X104093760Y-18984520D02*
X103393760Y-18984520D01*
G04 #@! TO.C,C13*
X100979680Y-26760920D02*
X100979680Y-26060920D01*
X102179680Y-26060920D02*
X102179680Y-26760920D01*
G04 #@! TO.C,C14*
X114877140Y-28918420D02*
X114877140Y-29618420D01*
X113677140Y-29618420D02*
X113677140Y-28918420D01*
G04 #@! TO.C,C21*
X113675840Y-26566920D02*
X113675840Y-25866920D01*
X114875840Y-25866920D02*
X114875840Y-26566920D01*
G04 #@! TO.C,C1*
X177240Y-6186920D02*
X177240Y-5486920D01*
X1377240Y-5486920D02*
X1377240Y-6186920D01*
G04 #@! TO.C,C2*
X1819540Y-5082920D02*
X1819540Y-6082920D01*
X3519540Y-6082920D02*
X3519540Y-5082920D01*
G04 #@! TO.C,C15*
X153599440Y-18288520D02*
X153599440Y-18988520D01*
X152399440Y-18988520D02*
X152399440Y-18288520D01*
G04 #@! TO.C,C16*
X155919540Y-19379820D02*
X155919540Y-18379820D01*
X154219540Y-18379820D02*
X154219540Y-19379820D01*
G04 #@! TO.C,D1*
X148055900Y-44686060D02*
X147705380Y-44686060D01*
X144555780Y-44686060D02*
X144906300Y-44686060D01*
X148055900Y-40636480D02*
X147705380Y-40636480D01*
X148055900Y-45137360D02*
X147705380Y-45137360D01*
X144555780Y-45137360D02*
X144906300Y-45137360D01*
X144555780Y-40636480D02*
X144906300Y-40636480D01*
X148055900Y-45137360D02*
X148055900Y-40636480D01*
X144555780Y-45137360D02*
X144555780Y-40636480D01*
G04 #@! TO.C,D3*
X138648340Y-49536920D02*
X138267340Y-49536920D01*
X139664340Y-49536920D02*
X139283340Y-49536920D01*
X139283340Y-49536920D02*
X138648340Y-49917920D01*
X138648340Y-49917920D02*
X138648340Y-49155920D01*
X138648340Y-49155920D02*
X139283340Y-49536920D01*
X139283340Y-50044920D02*
X139283340Y-49028920D01*
X140965840Y-48636920D02*
X137425840Y-48636920D01*
X140965840Y-50436920D02*
X137425840Y-50436920D01*
G04 #@! TO.C,D5*
X3358040Y-34948720D02*
X3358040Y-35848720D01*
X3358040Y-38548720D02*
X8258040Y-38548720D01*
X8258040Y-34948720D02*
X3358040Y-34948720D01*
G04 #@! TO.C,D6*
X79405640Y-34948720D02*
X79405640Y-35848720D01*
X79405640Y-38548720D02*
X84305640Y-38548720D01*
X84305640Y-34948720D02*
X79405640Y-34948720D01*
G04 #@! TO.C,D7*
X155758040Y-34948720D02*
X155758040Y-35848720D01*
X155758040Y-38548720D02*
X160658040Y-38548720D01*
X160658040Y-34948720D02*
X155758040Y-34948720D01*
G04 #@! TO.C,D8*
X231958040Y-34948720D02*
X231958040Y-35848720D01*
X231958040Y-38548720D02*
X236858040Y-38548720D01*
X236858040Y-34948720D02*
X231958040Y-34948720D01*
G04 #@! TO.C,P9*
X88262560Y-40546600D02*
X88262560Y-41346600D01*
X94912560Y-40546600D02*
X88262560Y-40546600D01*
X94912560Y-40546600D02*
X94912560Y-43496600D01*
X94912560Y-43496600D02*
X90362560Y-43496600D01*
X88262560Y-42146600D02*
X88262560Y-43496600D01*
X88262560Y-43496600D02*
X89562560Y-43496600D01*
G04 #@! TO.C,Q1*
X138976680Y-43687160D02*
X139024940Y-43687160D01*
X141775660Y-42986120D02*
X141775660Y-43687160D01*
X141775660Y-43687160D02*
X141526740Y-43687160D01*
X138976680Y-43687160D02*
X138776020Y-43687160D01*
X138776020Y-43687160D02*
X138776020Y-42986120D01*
G04 #@! TO.C,Q4*
X139575600Y-45307760D02*
X139575600Y-45356020D01*
X140276640Y-48106740D02*
X139575600Y-48106740D01*
X139575600Y-48106740D02*
X139575600Y-47857820D01*
X139575600Y-45307760D02*
X139575600Y-45107100D01*
X139575600Y-45107100D02*
X140276640Y-45107100D01*
G04 #@! TO.C,Q5*
X133146680Y-45067160D02*
X133194940Y-45067160D01*
X135945660Y-44366120D02*
X135945660Y-45067160D01*
X135945660Y-45067160D02*
X135696740Y-45067160D01*
X133146680Y-45067160D02*
X132946020Y-45067160D01*
X132946020Y-45067160D02*
X132946020Y-44366120D01*
G04 #@! TO.C,Q7*
X51405000Y-32326680D02*
X51356740Y-32326680D01*
X48606020Y-33027720D02*
X48606020Y-32326680D01*
X48606020Y-32326680D02*
X48854940Y-32326680D01*
X51405000Y-32326680D02*
X51605660Y-32326680D01*
X51605660Y-32326680D02*
X51605660Y-33027720D01*
G04 #@! TO.C,Q8*
X203795000Y-32326680D02*
X203746740Y-32326680D01*
X200996020Y-33027720D02*
X200996020Y-32326680D01*
X200996020Y-32326680D02*
X201244940Y-32326680D01*
X203795000Y-32326680D02*
X203995660Y-32326680D01*
X203995660Y-32326680D02*
X203995660Y-33027720D01*
G04 #@! TO.C,R3*
X142310840Y-43286920D02*
X142310840Y-42286920D01*
X143660840Y-42286920D02*
X143660840Y-43286920D01*
G04 #@! TO.C,R4*
X142310840Y-46076920D02*
X142310840Y-45076920D01*
X143660840Y-45076920D02*
X143660840Y-46076920D01*
G04 #@! TO.C,R8*
X134745840Y-42541920D02*
X133745840Y-42541920D01*
X133745840Y-41191920D02*
X134745840Y-41191920D01*
G04 #@! TO.C,R13*
X131150840Y-44666920D02*
X131150840Y-43666920D01*
X132500840Y-43666920D02*
X132500840Y-44666920D01*
G04 #@! TO.C,R17*
X118690840Y-26646920D02*
X118690840Y-25646920D01*
X120040840Y-25646920D02*
X120040840Y-26646920D01*
G04 #@! TO.C,R39*
X116690840Y-25716920D02*
X116690840Y-26716920D01*
X115340840Y-26716920D02*
X115340840Y-25716920D01*
G04 #@! TO.C,R1*
X34000840Y-41146920D02*
X34000840Y-42146920D01*
X32650840Y-42146920D02*
X32650840Y-41146920D01*
G04 #@! TO.C,R2*
X186390840Y-41206920D02*
X186390840Y-42206920D01*
X185040840Y-42206920D02*
X185040840Y-41206920D01*
G04 #@! TO.C,R11*
X42960840Y-41163620D02*
X42960840Y-42163620D01*
X41610840Y-42163620D02*
X41610840Y-41163620D01*
G04 #@! TO.C,R12*
X195380840Y-41206920D02*
X195380840Y-42206920D01*
X194030840Y-42206920D02*
X194030840Y-41206920D01*
G04 #@! TO.C,R23*
X1302640Y-35721920D02*
X302640Y-35721920D01*
X302640Y-34371920D02*
X1302640Y-34371920D01*
G04 #@! TO.C,R24*
X1302640Y-37423720D02*
X302640Y-37423720D01*
X302640Y-36073720D02*
X1302640Y-36073720D01*
G04 #@! TO.C,R25*
X1302640Y-39125520D02*
X302640Y-39125520D01*
X302640Y-37775520D02*
X1302640Y-37775520D01*
G04 #@! TO.C,R28*
X77350240Y-35721920D02*
X76350240Y-35721920D01*
X76350240Y-34371920D02*
X77350240Y-34371920D01*
G04 #@! TO.C,R29*
X77350240Y-37423720D02*
X76350240Y-37423720D01*
X76350240Y-36073720D02*
X77350240Y-36073720D01*
G04 #@! TO.C,R30*
X77350240Y-39125520D02*
X76350240Y-39125520D01*
X76350240Y-37775520D02*
X77350240Y-37775520D01*
G04 #@! TO.C,R31*
X153702640Y-35721920D02*
X152702640Y-35721920D01*
X152702640Y-34371920D02*
X153702640Y-34371920D01*
G04 #@! TO.C,R32*
X153702640Y-37423720D02*
X152702640Y-37423720D01*
X152702640Y-36073720D02*
X153702640Y-36073720D01*
G04 #@! TO.C,R33*
X153702640Y-39125520D02*
X152702640Y-39125520D01*
X152702640Y-37775520D02*
X153702640Y-37775520D01*
G04 #@! TO.C,R34*
X229902640Y-35721920D02*
X228902640Y-35721920D01*
X228902640Y-34371920D02*
X229902640Y-34371920D01*
G04 #@! TO.C,R35*
X229902640Y-37423720D02*
X228902640Y-37423720D01*
X228902640Y-36073720D02*
X229902640Y-36073720D01*
G04 #@! TO.C,R36*
X229902640Y-39125520D02*
X228902640Y-39125520D01*
X228902640Y-37775520D02*
X229902640Y-37775520D01*
G04 #@! TO.C,R19*
X48140840Y-32236920D02*
X48140840Y-33236920D01*
X46790840Y-33236920D02*
X46790840Y-32236920D01*
G04 #@! TO.C,R38*
X205780840Y-32226920D02*
X205780840Y-33226920D01*
X204430840Y-33226920D02*
X204430840Y-32226920D01*
G04 #@! TO.C,RT1*
X148755840Y-49931920D02*
X146755840Y-49931920D01*
X146755840Y-46981920D02*
X148755840Y-46981920D01*
G04 #@! TO.C,U2*
X160729980Y-46584640D02*
X157554980Y-46584640D01*
X157554980Y-46584640D02*
X157554980Y-48362640D01*
X157554980Y-48362640D02*
X160729980Y-48362640D01*
X160729980Y-42012640D02*
X157554980Y-42012640D01*
X157554980Y-42012640D02*
X157554980Y-43790640D01*
X157554980Y-43790640D02*
X160729980Y-43790640D01*
X166825980Y-48616640D02*
X160729980Y-48616640D01*
X160729980Y-48616640D02*
X160729980Y-41758640D01*
X160729980Y-41758640D02*
X168603980Y-41758640D01*
X168730980Y-41758640D02*
X168730980Y-48616640D01*
X168603980Y-48616640D02*
X166825980Y-48616640D01*
G04 #@! TO.C,Y1*
X113708180Y-19532600D02*
X102008940Y-19532600D01*
X102008940Y-24531320D02*
X113708180Y-24531320D01*
X102008940Y-19532600D02*
X102008940Y-20380960D01*
X102008940Y-24531320D02*
X102008940Y-23682960D01*
X113708180Y-19532600D02*
X113708180Y-20380960D01*
X113708180Y-24531320D02*
X113708180Y-23682960D01*
G04 #@! TO.C,DS2*
X164604700Y-3500120D02*
X228104700Y-3500120D01*
X164104320Y-17998440D02*
X164104320Y-3997960D01*
X228104700Y-18498820D02*
X164604700Y-18498820D01*
X228605080Y-3997960D02*
X228605080Y-17998440D01*
X228602540Y-3997960D02*
G75*
G03X228104700Y-3500120I-497840J0D01*
G01*
X228104700Y-18498820D02*
G75*
G03X228605080Y-17998440I0J500380D01*
G01*
X164104320Y-17998440D02*
G75*
G03X164604700Y-18498820I500380J0D01*
G01*
X164604700Y-3497580D02*
G75*
G03X164104320Y-3997960I0J-500380D01*
G01*
X159804100Y1600200D02*
X233004360Y1600200D01*
X233004360Y1600200D02*
X233004360Y-23799800D01*
X233004360Y-23799800D02*
X159804100Y-23799800D01*
X159804100Y-23799800D02*
X159804100Y1600200D01*
X236402880Y4500880D02*
G75*
G03X236402880Y4500880I-2499360J0D01*
G01*
X236402880Y-26499820D02*
G75*
G03X236402880Y-26499820I-2499360J0D01*
G01*
X161406840Y-26499820D02*
G75*
G03X161406840Y-26499820I-2501900J0D01*
G01*
X161404300Y4500880D02*
G75*
G03X161404300Y4500880I-2499360J0D01*
G01*
X156403040Y7000240D02*
X236402880Y7000240D01*
X236402880Y7000240D02*
X236402880Y-28999180D01*
X236402880Y-28999180D02*
X156403040Y-28999180D01*
X156403040Y-28999180D02*
X156403040Y7000240D01*
G04 #@! TO.C,C19*
X126376540Y-5452620D02*
X126376540Y-3452620D01*
X124326540Y-3452620D02*
X124326540Y-5452620D01*
G04 #@! TO.C,C11*
X98608440Y-26213320D02*
X98608440Y-26913320D01*
X97408440Y-26913320D02*
X97408440Y-26213320D01*
G04 #@! TO.C,D2*
X132904040Y-11607800D02*
X133154040Y-11607800D01*
X132404040Y-11607800D02*
X132154040Y-11607800D01*
X132404040Y-11607800D02*
X132904040Y-11257800D01*
X132904040Y-11257800D02*
X132904040Y-11957800D01*
X132904040Y-11957800D02*
X132404040Y-11607800D01*
X132404040Y-11257800D02*
X132404040Y-11957800D01*
X131354040Y-12407800D02*
X133754040Y-12407800D01*
X131354040Y-10807800D02*
X133754040Y-10807800D01*
G04 #@! TO.C,P7*
X124043440Y6875780D02*
X116342160Y6875780D01*
X124043440Y7876540D02*
X116342160Y7876540D01*
X116342160Y7876540D02*
X116342160Y-1323340D01*
X116342160Y-1323340D02*
X124043440Y-1323340D01*
X124043440Y-1323340D02*
X124043440Y7876540D01*
G04 #@! TO.C,Q6*
X139233860Y-11008360D02*
X139185600Y-11008360D01*
X136434880Y-11709400D02*
X136434880Y-11008360D01*
X136434880Y-11008360D02*
X136683800Y-11008360D01*
X139233860Y-11008360D02*
X139434520Y-11008360D01*
X139434520Y-11008360D02*
X139434520Y-11709400D01*
G04 #@! TO.C,R18*
X134732400Y-11355960D02*
X134732400Y-10355960D01*
X136082400Y-10355960D02*
X136082400Y-11355960D01*
G04 #@! TO.C,R16*
X141603700Y-11109400D02*
X141603700Y-12309400D01*
X139853700Y-12309400D02*
X139853700Y-11109400D01*
G04 #@! TO.C,R37*
X123981840Y-3198240D02*
X123981840Y-4198240D01*
X122631840Y-4198240D02*
X122631840Y-3198240D01*
G04 #@! TO.C,R5*
X100889440Y-33845120D02*
X100889440Y-32845120D01*
X102239440Y-32845120D02*
X102239440Y-33845120D01*
G04 #@! TO.C,R7*
X100512240Y-32845120D02*
X100512240Y-33845120D01*
X99162240Y-33845120D02*
X99162240Y-32845120D01*
G04 #@! TO.C,R14*
X93980640Y-33641920D02*
X93980640Y-32641920D01*
X95330640Y-32641920D02*
X95330640Y-33641920D01*
G04 #@! TO.C,R26*
X121411360Y-2878200D02*
X121411360Y-3878200D01*
X120061360Y-3878200D02*
X120061360Y-2878200D01*
G04 #@! TO.C,R27*
X119658760Y-2878200D02*
X119658760Y-3878200D01*
X118308760Y-3878200D02*
X118308760Y-2878200D01*
G04 #@! TO.C,R20*
X100552880Y-26058240D02*
X100552880Y-27058240D01*
X99202880Y-27058240D02*
X99202880Y-26058240D01*
G04 #@! TO.C,J1*
X113245900Y9082360D02*
X98005900Y9082360D01*
X98005900Y-8697640D02*
X98005900Y9082360D01*
X98005900Y-8697640D02*
X113245900Y-8697640D01*
X113245900Y-8697640D02*
X113245900Y9082360D01*
G04 #@! TO.C,J2*
X142387320Y9026480D02*
X127147320Y9026480D01*
X127147320Y-8753520D02*
X127147320Y9026480D01*
X127147320Y-8753520D02*
X142387320Y-8753520D01*
X142387320Y-8753520D02*
X142387320Y9026480D01*
G04 #@! TO.C,P3*
X137495840Y-33876920D02*
X137495840Y-30776920D01*
X139045840Y-33876920D02*
X137495840Y-33876920D01*
X140315840Y-31056920D02*
X140315840Y-33596920D01*
X137495840Y-30776920D02*
X139045840Y-30776920D01*
X145395840Y-31056920D02*
X140315840Y-31056920D01*
X145395840Y-33596920D02*
X145395840Y-31056920D01*
X140315840Y-33596920D02*
X145395840Y-33596920D01*
G04 #@! TO.C,C5*
X154170840Y-43960920D02*
X152773840Y-43960920D01*
X154424840Y-44087920D02*
X152646840Y-44087920D01*
X154805840Y-44214920D02*
X152265840Y-44214920D01*
X152138840Y-44341920D02*
X154932840Y-44341920D01*
X155059840Y-44468920D02*
X152011840Y-44468920D01*
X151884840Y-44595920D02*
X155186840Y-44595920D01*
X155313840Y-44722920D02*
X151757840Y-44722920D01*
X156202840Y-43579920D02*
X156202840Y-48151920D01*
X156202840Y-48151920D02*
X155440840Y-48913920D01*
X155440840Y-48913920D02*
X151630840Y-48913920D01*
X151630840Y-48913920D02*
X150868840Y-48151920D01*
X150868840Y-48151920D02*
X150868840Y-43579920D01*
X150868840Y-43579920D02*
X156202840Y-43579920D01*
X153535840Y-48405920D02*
X153535840Y-47643920D01*
X153916840Y-48024920D02*
X153154840Y-48024920D01*
X155948840Y-46246920D02*
G75*
G03X155948840Y-46246920I-2413000J0D01*
G01*
G04 #@! TO.C,C3*
X17946740Y-32803720D02*
X17946740Y-31803720D01*
X16246740Y-31803720D02*
X16246740Y-32803720D01*
G04 #@! TO.C,C17*
X170318800Y-32879920D02*
X170318800Y-31879920D01*
X168618800Y-31879920D02*
X168618800Y-32879920D01*
G04 #@! TO.C,Q3*
X100981460Y-29116020D02*
X100933200Y-29116020D01*
X98182480Y-29817060D02*
X98182480Y-29116020D01*
X98182480Y-29116020D02*
X98431400Y-29116020D01*
X100981460Y-29116020D02*
X101182120Y-29116020D01*
X101182120Y-29116020D02*
X101182120Y-29817060D01*
G04 #@! TO.C,R6*
X96304740Y-30517720D02*
X96304740Y-29517720D01*
X97654740Y-29517720D02*
X97654740Y-30517720D01*
G04 #@! TO.C,R9*
X20396840Y-32554800D02*
X20396840Y-31554800D01*
X21746840Y-31554800D02*
X21746840Y-32554800D01*
G04 #@! TO.C,R10*
X94552140Y-30517720D02*
X94552140Y-29517720D01*
X95902140Y-29517720D02*
X95902140Y-30517720D01*
G04 #@! TO.C,R15*
X18527400Y-32554800D02*
X18527400Y-31554800D01*
X19877400Y-31554800D02*
X19877400Y-32554800D01*
G04 #@! TO.C,R21*
X172768900Y-32638620D02*
X172768900Y-31638620D01*
X174118900Y-31638620D02*
X174118900Y-32638620D01*
G04 #@! TO.C,R22*
X170902000Y-32638620D02*
X170902000Y-31638620D01*
X172252000Y-31638620D02*
X172252000Y-32638620D01*
G04 #@! TO.C,P6*
X127828040Y-13698220D02*
X99888040Y-13698220D01*
X99888040Y-13698220D02*
X99888040Y-11158220D01*
X99888040Y-11158220D02*
X127828040Y-11158220D01*
X130648040Y-13978220D02*
X129098040Y-13978220D01*
X127828040Y-13698220D02*
X127828040Y-11158220D01*
X129098040Y-10878220D02*
X130648040Y-10878220D01*
X130648040Y-10878220D02*
X130648040Y-13978220D01*
G04 #@! TO.C,P10*
X118240840Y-26166920D02*
X118240840Y-25666920D01*
X117190840Y-25666920D02*
X117190840Y-26166920D01*
G04 #@! TO.C,R40*
X122040840Y-25646920D02*
X122040840Y-26646920D01*
X120690840Y-26646920D02*
X120690840Y-25646920D01*
D12*
G04 #@! TO.C,LOGO1*
G36*
X216424726Y-45751425D02*
X216499379Y-45788647D01*
X216565271Y-45857181D01*
X216583417Y-45882568D01*
X216603185Y-45915786D01*
X216616012Y-45951865D01*
X216623350Y-46000018D01*
X216626653Y-46069456D01*
X216627378Y-46161126D01*
X216624103Y-46286750D01*
X216612717Y-46381074D01*
X216590881Y-46451443D01*
X216556259Y-46505206D01*
X216506510Y-46549708D01*
X216502854Y-46552343D01*
X216453825Y-46579297D01*
X216394785Y-46592632D01*
X216319699Y-46595920D01*
X216197635Y-46595920D01*
X216197584Y-46714417D01*
X216196448Y-46780412D01*
X216189526Y-46819122D01*
X216171438Y-46842339D01*
X216136802Y-46861853D01*
X216128485Y-46865840D01*
X216089560Y-46884523D01*
X216059423Y-46896323D01*
X216037014Y-46897342D01*
X216021273Y-46883681D01*
X216011142Y-46851442D01*
X216005563Y-46796724D01*
X216003475Y-46715631D01*
X216003821Y-46604264D01*
X216005540Y-46458722D01*
X216006077Y-46415189D01*
X216008012Y-46265125D01*
X216009744Y-46166962D01*
X216197532Y-46166962D01*
X216198588Y-46250284D01*
X216203278Y-46304800D01*
X216213891Y-46340757D01*
X216232712Y-46368402D01*
X216245490Y-46381885D01*
X216297730Y-46421337D01*
X216343982Y-46424548D01*
X216391707Y-46391969D01*
X216392917Y-46390766D01*
X216412334Y-46365588D01*
X216424147Y-46331367D01*
X216430105Y-46278668D01*
X216431960Y-46198051D01*
X216431994Y-46180191D01*
X216427510Y-46069095D01*
X216412914Y-45992081D01*
X216386490Y-45945067D01*
X216346523Y-45923970D01*
X216323424Y-45921843D01*
X216268602Y-45931820D01*
X216230998Y-45964672D01*
X216208363Y-46024777D01*
X216198446Y-46116518D01*
X216197532Y-46166962D01*
X216009744Y-46166962D01*
X216010062Y-46148980D01*
X216012713Y-46061599D01*
X216016446Y-45997825D01*
X216021747Y-45952502D01*
X216029098Y-45920475D01*
X216038983Y-45896588D01*
X216051886Y-45875684D01*
X216057419Y-45867818D01*
X216130809Y-45793515D01*
X216223600Y-45751387D01*
X216330936Y-45739642D01*
X216424726Y-45751425D01*
X216424726Y-45751425D01*
G37*
X216424726Y-45751425D02*
X216499379Y-45788647D01*
X216565271Y-45857181D01*
X216583417Y-45882568D01*
X216603185Y-45915786D01*
X216616012Y-45951865D01*
X216623350Y-46000018D01*
X216626653Y-46069456D01*
X216627378Y-46161126D01*
X216624103Y-46286750D01*
X216612717Y-46381074D01*
X216590881Y-46451443D01*
X216556259Y-46505206D01*
X216506510Y-46549708D01*
X216502854Y-46552343D01*
X216453825Y-46579297D01*
X216394785Y-46592632D01*
X216319699Y-46595920D01*
X216197635Y-46595920D01*
X216197584Y-46714417D01*
X216196448Y-46780412D01*
X216189526Y-46819122D01*
X216171438Y-46842339D01*
X216136802Y-46861853D01*
X216128485Y-46865840D01*
X216089560Y-46884523D01*
X216059423Y-46896323D01*
X216037014Y-46897342D01*
X216021273Y-46883681D01*
X216011142Y-46851442D01*
X216005563Y-46796724D01*
X216003475Y-46715631D01*
X216003821Y-46604264D01*
X216005540Y-46458722D01*
X216006077Y-46415189D01*
X216008012Y-46265125D01*
X216009744Y-46166962D01*
X216197532Y-46166962D01*
X216198588Y-46250284D01*
X216203278Y-46304800D01*
X216213891Y-46340757D01*
X216232712Y-46368402D01*
X216245490Y-46381885D01*
X216297730Y-46421337D01*
X216343982Y-46424548D01*
X216391707Y-46391969D01*
X216392917Y-46390766D01*
X216412334Y-46365588D01*
X216424147Y-46331367D01*
X216430105Y-46278668D01*
X216431960Y-46198051D01*
X216431994Y-46180191D01*
X216427510Y-46069095D01*
X216412914Y-45992081D01*
X216386490Y-45945067D01*
X216346523Y-45923970D01*
X216323424Y-45921843D01*
X216268602Y-45931820D01*
X216230998Y-45964672D01*
X216208363Y-46024777D01*
X216198446Y-46116518D01*
X216197532Y-46166962D01*
X216009744Y-46166962D01*
X216010062Y-46148980D01*
X216012713Y-46061599D01*
X216016446Y-45997825D01*
X216021747Y-45952502D01*
X216029098Y-45920475D01*
X216038983Y-45896588D01*
X216051886Y-45875684D01*
X216057419Y-45867818D01*
X216130809Y-45793515D01*
X216223600Y-45751387D01*
X216330936Y-45739642D01*
X216424726Y-45751425D01*
G36*
X217927504Y-45762009D02*
X217990207Y-45798278D01*
X218033801Y-45834278D01*
X218065685Y-45871995D01*
X218087650Y-45918119D01*
X218101489Y-45979341D01*
X218108993Y-46062351D01*
X218111957Y-46173839D01*
X218112301Y-46253982D01*
X218112301Y-46548985D01*
X217946225Y-46623435D01*
X217936455Y-46300322D01*
X217932419Y-46179649D01*
X217928184Y-46092061D01*
X217922937Y-46031570D01*
X217915865Y-45992188D01*
X217906151Y-45967927D01*
X217892984Y-45952800D01*
X217888759Y-45949526D01*
X217824749Y-45923954D01*
X217760048Y-45934073D01*
X217721532Y-45960920D01*
X217705865Y-45979944D01*
X217695020Y-46004908D01*
X217688128Y-46042754D01*
X217684319Y-46100422D01*
X217682723Y-46184855D01*
X217682455Y-46272848D01*
X217682403Y-46383243D01*
X217680512Y-46461383D01*
X217674185Y-46514085D01*
X217660823Y-46548162D01*
X217637825Y-46570431D01*
X217602594Y-46587707D01*
X217555537Y-46605658D01*
X217504143Y-46625198D01*
X217510261Y-46278405D01*
X217512724Y-46153388D01*
X217515607Y-46061002D01*
X217519738Y-45994801D01*
X217525947Y-45948340D01*
X217535066Y-45915176D01*
X217547923Y-45888864D01*
X217563424Y-45865649D01*
X217638211Y-45791489D01*
X217729468Y-45748604D01*
X217828723Y-45738332D01*
X217927504Y-45762009D01*
X217927504Y-45762009D01*
G37*
X217927504Y-45762009D02*
X217990207Y-45798278D01*
X218033801Y-45834278D01*
X218065685Y-45871995D01*
X218087650Y-45918119D01*
X218101489Y-45979341D01*
X218108993Y-46062351D01*
X218111957Y-46173839D01*
X218112301Y-46253982D01*
X218112301Y-46548985D01*
X217946225Y-46623435D01*
X217936455Y-46300322D01*
X217932419Y-46179649D01*
X217928184Y-46092061D01*
X217922937Y-46031570D01*
X217915865Y-45992188D01*
X217906151Y-45967927D01*
X217892984Y-45952800D01*
X217888759Y-45949526D01*
X217824749Y-45923954D01*
X217760048Y-45934073D01*
X217721532Y-45960920D01*
X217705865Y-45979944D01*
X217695020Y-46004908D01*
X217688128Y-46042754D01*
X217684319Y-46100422D01*
X217682723Y-46184855D01*
X217682455Y-46272848D01*
X217682403Y-46383243D01*
X217680512Y-46461383D01*
X217674185Y-46514085D01*
X217660823Y-46548162D01*
X217637825Y-46570431D01*
X217602594Y-46587707D01*
X217555537Y-46605658D01*
X217504143Y-46625198D01*
X217510261Y-46278405D01*
X217512724Y-46153388D01*
X217515607Y-46061002D01*
X217519738Y-45994801D01*
X217525947Y-45948340D01*
X217535066Y-45915176D01*
X217547923Y-45888864D01*
X217563424Y-45865649D01*
X217638211Y-45791489D01*
X217729468Y-45748604D01*
X217828723Y-45738332D01*
X217927504Y-45762009D01*
G36*
X215672726Y-45754176D02*
X215764304Y-45802329D01*
X215831889Y-45879825D01*
X215855897Y-45929647D01*
X215874578Y-46004453D01*
X215884141Y-46098972D01*
X215885048Y-46202130D01*
X215877761Y-46302855D01*
X215862743Y-46390073D01*
X215840455Y-46452711D01*
X215833605Y-46463499D01*
X215752472Y-46544025D01*
X215656106Y-46592256D01*
X215551541Y-46606370D01*
X215445808Y-46584549D01*
X215416383Y-46571467D01*
X215359081Y-46531151D01*
X215308790Y-46477695D01*
X215304037Y-46470915D01*
X215284718Y-46438241D01*
X215271948Y-46403314D01*
X215264404Y-46357334D01*
X215260764Y-46291504D01*
X215259705Y-46197025D01*
X215259686Y-46175843D01*
X215259734Y-46169102D01*
X215455071Y-46169102D01*
X215456208Y-46258269D01*
X215460681Y-46317440D01*
X215470086Y-46355661D01*
X215486016Y-46381973D01*
X215494148Y-46390766D01*
X215540898Y-46424181D01*
X215586287Y-46422657D01*
X215632180Y-46393672D01*
X215659552Y-46362729D01*
X215675763Y-46317563D01*
X215684866Y-46246340D01*
X215685491Y-46238034D01*
X215687044Y-46108957D01*
X215670805Y-46013092D01*
X215636992Y-45951027D01*
X215585824Y-45923352D01*
X215567560Y-45921843D01*
X215519600Y-45929433D01*
X215486793Y-45955728D01*
X215466735Y-46006015D01*
X215457018Y-46085584D01*
X215455071Y-46169102D01*
X215259734Y-46169102D01*
X215260414Y-46075169D01*
X215263469Y-46004826D01*
X215270162Y-45956083D01*
X215281800Y-45920208D01*
X215299693Y-45888468D01*
X215303648Y-45882568D01*
X215370107Y-45803024D01*
X215442525Y-45756849D01*
X215530689Y-45738519D01*
X215560627Y-45737623D01*
X215672726Y-45754176D01*
X215672726Y-45754176D01*
G37*
X215672726Y-45754176D02*
X215764304Y-45802329D01*
X215831889Y-45879825D01*
X215855897Y-45929647D01*
X215874578Y-46004453D01*
X215884141Y-46098972D01*
X215885048Y-46202130D01*
X215877761Y-46302855D01*
X215862743Y-46390073D01*
X215840455Y-46452711D01*
X215833605Y-46463499D01*
X215752472Y-46544025D01*
X215656106Y-46592256D01*
X215551541Y-46606370D01*
X215445808Y-46584549D01*
X215416383Y-46571467D01*
X215359081Y-46531151D01*
X215308790Y-46477695D01*
X215304037Y-46470915D01*
X215284718Y-46438241D01*
X215271948Y-46403314D01*
X215264404Y-46357334D01*
X215260764Y-46291504D01*
X215259705Y-46197025D01*
X215259686Y-46175843D01*
X215259734Y-46169102D01*
X215455071Y-46169102D01*
X215456208Y-46258269D01*
X215460681Y-46317440D01*
X215470086Y-46355661D01*
X215486016Y-46381973D01*
X215494148Y-46390766D01*
X215540898Y-46424181D01*
X215586287Y-46422657D01*
X215632180Y-46393672D01*
X215659552Y-46362729D01*
X215675763Y-46317563D01*
X215684866Y-46246340D01*
X215685491Y-46238034D01*
X215687044Y-46108957D01*
X215670805Y-46013092D01*
X215636992Y-45951027D01*
X215585824Y-45923352D01*
X215567560Y-45921843D01*
X215519600Y-45929433D01*
X215486793Y-45955728D01*
X215466735Y-46006015D01*
X215457018Y-46085584D01*
X215455071Y-46169102D01*
X215259734Y-46169102D01*
X215260414Y-46075169D01*
X215263469Y-46004826D01*
X215270162Y-45956083D01*
X215281800Y-45920208D01*
X215299693Y-45888468D01*
X215303648Y-45882568D01*
X215370107Y-45803024D01*
X215442525Y-45756849D01*
X215530689Y-45738519D01*
X215560627Y-45737623D01*
X215672726Y-45754176D01*
G36*
X217190094Y-45766665D02*
X217267126Y-45818487D01*
X217326656Y-45893332D01*
X217362218Y-45988574D01*
X217369411Y-46058676D01*
X217368594Y-46087929D01*
X217361754Y-46110327D01*
X217342952Y-46130394D01*
X217306248Y-46152653D01*
X217245702Y-46181629D01*
X217155374Y-46221847D01*
X217154917Y-46222049D01*
X217071773Y-46260130D01*
X217003593Y-46293945D01*
X216957345Y-46319853D01*
X216939998Y-46334215D01*
X216939994Y-46334331D01*
X216955283Y-46365605D01*
X216991036Y-46400077D01*
X217032082Y-46424910D01*
X217052877Y-46429843D01*
X217109610Y-46412782D01*
X217158467Y-46370053D01*
X217182305Y-46323075D01*
X217205237Y-46288442D01*
X217250158Y-46249001D01*
X217302963Y-46214929D01*
X217349550Y-46196400D01*
X217359292Y-46195382D01*
X217370258Y-46212135D01*
X217370919Y-46254959D01*
X217362860Y-46312701D01*
X217347667Y-46374209D01*
X217326926Y-46428329D01*
X217325878Y-46430430D01*
X217263461Y-46517580D01*
X217182566Y-46576859D01*
X217090696Y-46605954D01*
X216995353Y-46602554D01*
X216904038Y-46564348D01*
X216899978Y-46561661D01*
X216828146Y-46496562D01*
X216780913Y-46411625D01*
X216754774Y-46299941D01*
X216751266Y-46268563D01*
X216745053Y-46120456D01*
X216752501Y-46051388D01*
X216939994Y-46051388D01*
X216942430Y-46094472D01*
X216955754Y-46107046D01*
X216988972Y-46097639D01*
X217041334Y-46075403D01*
X217099864Y-46047530D01*
X217101319Y-46046792D01*
X217150929Y-46020697D01*
X217170840Y-46003283D01*
X217165930Y-45985027D01*
X217145256Y-45961040D01*
X217092659Y-45926326D01*
X217036017Y-45923776D01*
X216985209Y-45949039D01*
X216950116Y-45997767D01*
X216939994Y-46051388D01*
X216752501Y-46051388D01*
X216757832Y-46001956D01*
X216790618Y-45907975D01*
X216836261Y-45842135D01*
X216918642Y-45775601D01*
X217009386Y-45742596D01*
X217102025Y-45740493D01*
X217190094Y-45766665D01*
X217190094Y-45766665D01*
G37*
X217190094Y-45766665D02*
X217267126Y-45818487D01*
X217326656Y-45893332D01*
X217362218Y-45988574D01*
X217369411Y-46058676D01*
X217368594Y-46087929D01*
X217361754Y-46110327D01*
X217342952Y-46130394D01*
X217306248Y-46152653D01*
X217245702Y-46181629D01*
X217155374Y-46221847D01*
X217154917Y-46222049D01*
X217071773Y-46260130D01*
X217003593Y-46293945D01*
X216957345Y-46319853D01*
X216939998Y-46334215D01*
X216939994Y-46334331D01*
X216955283Y-46365605D01*
X216991036Y-46400077D01*
X217032082Y-46424910D01*
X217052877Y-46429843D01*
X217109610Y-46412782D01*
X217158467Y-46370053D01*
X217182305Y-46323075D01*
X217205237Y-46288442D01*
X217250158Y-46249001D01*
X217302963Y-46214929D01*
X217349550Y-46196400D01*
X217359292Y-46195382D01*
X217370258Y-46212135D01*
X217370919Y-46254959D01*
X217362860Y-46312701D01*
X217347667Y-46374209D01*
X217326926Y-46428329D01*
X217325878Y-46430430D01*
X217263461Y-46517580D01*
X217182566Y-46576859D01*
X217090696Y-46605954D01*
X216995353Y-46602554D01*
X216904038Y-46564348D01*
X216899978Y-46561661D01*
X216828146Y-46496562D01*
X216780913Y-46411625D01*
X216754774Y-46299941D01*
X216751266Y-46268563D01*
X216745053Y-46120456D01*
X216752501Y-46051388D01*
X216939994Y-46051388D01*
X216942430Y-46094472D01*
X216955754Y-46107046D01*
X216988972Y-46097639D01*
X217041334Y-46075403D01*
X217099864Y-46047530D01*
X217101319Y-46046792D01*
X217150929Y-46020697D01*
X217170840Y-46003283D01*
X217165930Y-45985027D01*
X217145256Y-45961040D01*
X217092659Y-45926326D01*
X217036017Y-45923776D01*
X216985209Y-45949039D01*
X216950116Y-45997767D01*
X216939994Y-46051388D01*
X216752501Y-46051388D01*
X216757832Y-46001956D01*
X216790618Y-45907975D01*
X216836261Y-45842135D01*
X216918642Y-45775601D01*
X217009386Y-45742596D01*
X217102025Y-45740493D01*
X217190094Y-45766665D01*
G36*
X218815686Y-45659040D02*
X218821412Y-45738900D01*
X218827989Y-45785959D01*
X218837102Y-45806486D01*
X218850438Y-45806749D01*
X218854763Y-45804298D01*
X218912284Y-45786556D01*
X218987108Y-45787592D01*
X219063179Y-45805830D01*
X219110758Y-45829425D01*
X219159542Y-45867118D01*
X219195204Y-45909775D01*
X219219685Y-45963977D01*
X219234927Y-46036304D01*
X219242870Y-46133339D01*
X219245456Y-46261662D01*
X219245502Y-46286278D01*
X219245532Y-46562790D01*
X219184001Y-46584240D01*
X219140299Y-46598832D01*
X219116322Y-46605626D01*
X219115617Y-46605689D01*
X219113255Y-46587265D01*
X219111246Y-46536446D01*
X219109741Y-46459913D01*
X219108893Y-46364350D01*
X219108763Y-46306249D01*
X219108491Y-46191691D01*
X219107092Y-46109587D01*
X219103689Y-46053313D01*
X219097407Y-46016246D01*
X219087369Y-45991764D01*
X219072701Y-45973245D01*
X219063542Y-45964326D01*
X219000629Y-45928386D01*
X218931976Y-45925695D01*
X218869688Y-45956090D01*
X218858169Y-45967064D01*
X218841273Y-45987699D01*
X218829554Y-46012176D01*
X218822073Y-46047567D01*
X218817894Y-46100946D01*
X218816077Y-46179386D01*
X218815686Y-46287537D01*
X218815686Y-46562790D01*
X218754155Y-46584240D01*
X218710453Y-46598832D01*
X218686476Y-46605626D01*
X218685770Y-46605689D01*
X218683966Y-46586989D01*
X218682340Y-46534242D01*
X218680957Y-46452477D01*
X218679882Y-46346725D01*
X218679180Y-46222014D01*
X218678917Y-46083375D01*
X218678917Y-45548726D01*
X218805917Y-45495156D01*
X218815686Y-45659040D01*
X218815686Y-45659040D01*
G37*
X218815686Y-45659040D02*
X218821412Y-45738900D01*
X218827989Y-45785959D01*
X218837102Y-45806486D01*
X218850438Y-45806749D01*
X218854763Y-45804298D01*
X218912284Y-45786556D01*
X218987108Y-45787592D01*
X219063179Y-45805830D01*
X219110758Y-45829425D01*
X219159542Y-45867118D01*
X219195204Y-45909775D01*
X219219685Y-45963977D01*
X219234927Y-46036304D01*
X219242870Y-46133339D01*
X219245456Y-46261662D01*
X219245502Y-46286278D01*
X219245532Y-46562790D01*
X219184001Y-46584240D01*
X219140299Y-46598832D01*
X219116322Y-46605626D01*
X219115617Y-46605689D01*
X219113255Y-46587265D01*
X219111246Y-46536446D01*
X219109741Y-46459913D01*
X219108893Y-46364350D01*
X219108763Y-46306249D01*
X219108491Y-46191691D01*
X219107092Y-46109587D01*
X219103689Y-46053313D01*
X219097407Y-46016246D01*
X219087369Y-45991764D01*
X219072701Y-45973245D01*
X219063542Y-45964326D01*
X219000629Y-45928386D01*
X218931976Y-45925695D01*
X218869688Y-45956090D01*
X218858169Y-45967064D01*
X218841273Y-45987699D01*
X218829554Y-46012176D01*
X218822073Y-46047567D01*
X218817894Y-46100946D01*
X218816077Y-46179386D01*
X218815686Y-46287537D01*
X218815686Y-46562790D01*
X218754155Y-46584240D01*
X218710453Y-46598832D01*
X218686476Y-46605626D01*
X218685770Y-46605689D01*
X218683966Y-46586989D01*
X218682340Y-46534242D01*
X218680957Y-46452477D01*
X218679882Y-46346725D01*
X218679180Y-46222014D01*
X218678917Y-46083375D01*
X218678917Y-45548726D01*
X218805917Y-45495156D01*
X218815686Y-45659040D01*
G36*
X219709341Y-45793223D02*
X219785900Y-45821653D01*
X219786776Y-45822199D01*
X219834125Y-45857047D01*
X219869081Y-45897772D01*
X219893665Y-45950845D01*
X219909902Y-46022734D01*
X219919815Y-46119912D01*
X219925426Y-46248848D01*
X219925917Y-46267218D01*
X219932981Y-46544207D01*
X219873535Y-46574948D01*
X219830521Y-46595722D01*
X219804550Y-46605566D01*
X219803349Y-46605689D01*
X219798854Y-46587526D01*
X219795284Y-46538532D01*
X219793088Y-46466951D01*
X219792609Y-46408988D01*
X219792598Y-46315090D01*
X219788306Y-46256123D01*
X219773343Y-46227999D01*
X219741322Y-46226626D01*
X219685854Y-46247918D01*
X219602109Y-46287056D01*
X219540529Y-46319563D01*
X219508857Y-46347765D01*
X219499546Y-46378502D01*
X219499532Y-46380024D01*
X219514897Y-46432974D01*
X219560387Y-46461580D01*
X219630006Y-46465723D01*
X219680153Y-46465004D01*
X219706594Y-46479447D01*
X219723083Y-46514138D01*
X219732573Y-46558336D01*
X219718897Y-46583413D01*
X219713747Y-46587002D01*
X219665265Y-46601416D01*
X219597371Y-46603457D01*
X219527452Y-46593903D01*
X219477908Y-46576442D01*
X219409410Y-46518284D01*
X219370474Y-46437328D01*
X219362763Y-46374080D01*
X219368647Y-46317031D01*
X219389941Y-46270462D01*
X219432105Y-46229101D01*
X219500599Y-46187675D01*
X219600884Y-46140913D01*
X219606994Y-46138270D01*
X219697330Y-46096537D01*
X219753075Y-46062311D01*
X219776969Y-46031555D01*
X219771753Y-46000231D01*
X219740168Y-45964303D01*
X219730723Y-45956036D01*
X219667457Y-45923978D01*
X219601904Y-45925327D01*
X219544812Y-45956758D01*
X219506933Y-46014944D01*
X219503414Y-46026366D01*
X219469140Y-46081757D01*
X219425649Y-46108438D01*
X219362763Y-46134880D01*
X219362763Y-46066468D01*
X219381892Y-45967030D01*
X219438671Y-45875822D01*
X219468218Y-45845309D01*
X219535382Y-45806148D01*
X219620796Y-45788420D01*
X219709341Y-45793223D01*
X219709341Y-45793223D01*
G37*
X219709341Y-45793223D02*
X219785900Y-45821653D01*
X219786776Y-45822199D01*
X219834125Y-45857047D01*
X219869081Y-45897772D01*
X219893665Y-45950845D01*
X219909902Y-46022734D01*
X219919815Y-46119912D01*
X219925426Y-46248848D01*
X219925917Y-46267218D01*
X219932981Y-46544207D01*
X219873535Y-46574948D01*
X219830521Y-46595722D01*
X219804550Y-46605566D01*
X219803349Y-46605689D01*
X219798854Y-46587526D01*
X219795284Y-46538532D01*
X219793088Y-46466951D01*
X219792609Y-46408988D01*
X219792598Y-46315090D01*
X219788306Y-46256123D01*
X219773343Y-46227999D01*
X219741322Y-46226626D01*
X219685854Y-46247918D01*
X219602109Y-46287056D01*
X219540529Y-46319563D01*
X219508857Y-46347765D01*
X219499546Y-46378502D01*
X219499532Y-46380024D01*
X219514897Y-46432974D01*
X219560387Y-46461580D01*
X219630006Y-46465723D01*
X219680153Y-46465004D01*
X219706594Y-46479447D01*
X219723083Y-46514138D01*
X219732573Y-46558336D01*
X219718897Y-46583413D01*
X219713747Y-46587002D01*
X219665265Y-46601416D01*
X219597371Y-46603457D01*
X219527452Y-46593903D01*
X219477908Y-46576442D01*
X219409410Y-46518284D01*
X219370474Y-46437328D01*
X219362763Y-46374080D01*
X219368647Y-46317031D01*
X219389941Y-46270462D01*
X219432105Y-46229101D01*
X219500599Y-46187675D01*
X219600884Y-46140913D01*
X219606994Y-46138270D01*
X219697330Y-46096537D01*
X219753075Y-46062311D01*
X219776969Y-46031555D01*
X219771753Y-46000231D01*
X219740168Y-45964303D01*
X219730723Y-45956036D01*
X219667457Y-45923978D01*
X219601904Y-45925327D01*
X219544812Y-45956758D01*
X219506933Y-46014944D01*
X219503414Y-46026366D01*
X219469140Y-46081757D01*
X219425649Y-46108438D01*
X219362763Y-46134880D01*
X219362763Y-46066468D01*
X219381892Y-45967030D01*
X219438671Y-45875822D01*
X219468218Y-45845309D01*
X219535382Y-45806148D01*
X219620796Y-45788420D01*
X219709341Y-45793223D01*
G36*
X220369202Y-45791590D02*
X220457957Y-45824341D01*
X220529862Y-45882270D01*
X220557984Y-45923048D01*
X220588642Y-45997874D01*
X220588005Y-46051978D01*
X220555827Y-46088366D01*
X220543921Y-46094553D01*
X220492515Y-46113845D01*
X220466262Y-46108902D01*
X220457370Y-46076507D01*
X220456917Y-46058612D01*
X220440637Y-45992779D01*
X220398205Y-45946727D01*
X220339228Y-45924484D01*
X220273315Y-45930081D01*
X220219735Y-45959149D01*
X220201638Y-45975730D01*
X220188811Y-45995845D01*
X220180146Y-46026252D01*
X220174536Y-46073708D01*
X220170875Y-46144970D01*
X220168055Y-46246795D01*
X220167324Y-46279035D01*
X220164660Y-46389330D01*
X220161632Y-46466956D01*
X220157090Y-46518316D01*
X220149886Y-46549810D01*
X220138873Y-46567840D01*
X220122900Y-46578808D01*
X220112674Y-46583653D01*
X220069246Y-46600221D01*
X220043682Y-46605689D01*
X220035235Y-46587427D01*
X220030079Y-46532216D01*
X220028186Y-46439419D01*
X220029529Y-46308398D01*
X220029947Y-46288189D01*
X220032898Y-46168653D01*
X220036388Y-46081369D01*
X220041354Y-46019511D01*
X220048733Y-45976256D01*
X220059464Y-45944780D01*
X220074485Y-45918259D01*
X220082342Y-45906895D01*
X220127393Y-45856612D01*
X220177780Y-45817501D01*
X220183948Y-45814087D01*
X220274298Y-45787132D01*
X220369202Y-45791590D01*
X220369202Y-45791590D01*
G37*
X220369202Y-45791590D02*
X220457957Y-45824341D01*
X220529862Y-45882270D01*
X220557984Y-45923048D01*
X220588642Y-45997874D01*
X220588005Y-46051978D01*
X220555827Y-46088366D01*
X220543921Y-46094553D01*
X220492515Y-46113845D01*
X220466262Y-46108902D01*
X220457370Y-46076507D01*
X220456917Y-46058612D01*
X220440637Y-45992779D01*
X220398205Y-45946727D01*
X220339228Y-45924484D01*
X220273315Y-45930081D01*
X220219735Y-45959149D01*
X220201638Y-45975730D01*
X220188811Y-45995845D01*
X220180146Y-46026252D01*
X220174536Y-46073708D01*
X220170875Y-46144970D01*
X220168055Y-46246795D01*
X220167324Y-46279035D01*
X220164660Y-46389330D01*
X220161632Y-46466956D01*
X220157090Y-46518316D01*
X220149886Y-46549810D01*
X220138873Y-46567840D01*
X220122900Y-46578808D01*
X220112674Y-46583653D01*
X220069246Y-46600221D01*
X220043682Y-46605689D01*
X220035235Y-46587427D01*
X220030079Y-46532216D01*
X220028186Y-46439419D01*
X220029529Y-46308398D01*
X220029947Y-46288189D01*
X220032898Y-46168653D01*
X220036388Y-46081369D01*
X220041354Y-46019511D01*
X220048733Y-45976256D01*
X220059464Y-45944780D01*
X220074485Y-45918259D01*
X220082342Y-45906895D01*
X220127393Y-45856612D01*
X220177780Y-45817501D01*
X220183948Y-45814087D01*
X220274298Y-45787132D01*
X220369202Y-45791590D01*
G36*
X221257921Y-45947209D02*
X221257673Y-46093240D01*
X221256712Y-46205575D01*
X221254634Y-46289598D01*
X221251033Y-46350689D01*
X221245505Y-46394229D01*
X221237644Y-46425599D01*
X221227047Y-46450182D01*
X221219022Y-46464214D01*
X221152568Y-46540308D01*
X221068310Y-46588004D01*
X220975089Y-46605119D01*
X220881740Y-46589466D01*
X220826152Y-46561338D01*
X220767797Y-46512680D01*
X220728026Y-46453253D01*
X220704030Y-46375427D01*
X220693001Y-46271572D01*
X220691439Y-46195382D01*
X220691649Y-46189906D01*
X220828148Y-46189906D01*
X220828981Y-46277275D01*
X220832801Y-46335112D01*
X220841586Y-46372949D01*
X220857314Y-46400318D01*
X220876106Y-46420962D01*
X220939215Y-46460810D01*
X221006977Y-46464215D01*
X221071019Y-46430945D01*
X221076004Y-46426437D01*
X221097279Y-46402987D01*
X221110619Y-46375086D01*
X221117841Y-46333561D01*
X221120763Y-46269236D01*
X221121225Y-46198120D01*
X221120223Y-46108778D01*
X221116078Y-46049178D01*
X221107076Y-46010009D01*
X221091507Y-45981960D01*
X221078742Y-45967064D01*
X221019440Y-45929495D01*
X220951141Y-45924977D01*
X220885950Y-45953673D01*
X220873368Y-45964326D01*
X220851951Y-45987983D01*
X220838584Y-46016171D01*
X220831406Y-46058165D01*
X220828559Y-46123239D01*
X220828148Y-46189906D01*
X220691649Y-46189906D01*
X220696162Y-46072685D01*
X220712202Y-45980497D01*
X220742368Y-45911189D01*
X220789469Y-45857131D01*
X220826152Y-45829425D01*
X220892830Y-45799492D01*
X220970112Y-45785598D01*
X221041950Y-45789317D01*
X221082148Y-45804320D01*
X221097922Y-45808590D01*
X221108390Y-45792670D01*
X221115696Y-45750009D01*
X221121225Y-45685026D01*
X221127277Y-45612652D01*
X221135684Y-45569107D01*
X221150981Y-45544207D01*
X221177704Y-45527765D01*
X221194494Y-45520484D01*
X221257994Y-45493883D01*
X221257921Y-45947209D01*
X221257921Y-45947209D01*
G37*
X221257921Y-45947209D02*
X221257673Y-46093240D01*
X221256712Y-46205575D01*
X221254634Y-46289598D01*
X221251033Y-46350689D01*
X221245505Y-46394229D01*
X221237644Y-46425599D01*
X221227047Y-46450182D01*
X221219022Y-46464214D01*
X221152568Y-46540308D01*
X221068310Y-46588004D01*
X220975089Y-46605119D01*
X220881740Y-46589466D01*
X220826152Y-46561338D01*
X220767797Y-46512680D01*
X220728026Y-46453253D01*
X220704030Y-46375427D01*
X220693001Y-46271572D01*
X220691439Y-46195382D01*
X220691649Y-46189906D01*
X220828148Y-46189906D01*
X220828981Y-46277275D01*
X220832801Y-46335112D01*
X220841586Y-46372949D01*
X220857314Y-46400318D01*
X220876106Y-46420962D01*
X220939215Y-46460810D01*
X221006977Y-46464215D01*
X221071019Y-46430945D01*
X221076004Y-46426437D01*
X221097279Y-46402987D01*
X221110619Y-46375086D01*
X221117841Y-46333561D01*
X221120763Y-46269236D01*
X221121225Y-46198120D01*
X221120223Y-46108778D01*
X221116078Y-46049178D01*
X221107076Y-46010009D01*
X221091507Y-45981960D01*
X221078742Y-45967064D01*
X221019440Y-45929495D01*
X220951141Y-45924977D01*
X220885950Y-45953673D01*
X220873368Y-45964326D01*
X220851951Y-45987983D01*
X220838584Y-46016171D01*
X220831406Y-46058165D01*
X220828559Y-46123239D01*
X220828148Y-46189906D01*
X220691649Y-46189906D01*
X220696162Y-46072685D01*
X220712202Y-45980497D01*
X220742368Y-45911189D01*
X220789469Y-45857131D01*
X220826152Y-45829425D01*
X220892830Y-45799492D01*
X220970112Y-45785598D01*
X221041950Y-45789317D01*
X221082148Y-45804320D01*
X221097922Y-45808590D01*
X221108390Y-45792670D01*
X221115696Y-45750009D01*
X221121225Y-45685026D01*
X221127277Y-45612652D01*
X221135684Y-45569107D01*
X221150981Y-45544207D01*
X221177704Y-45527765D01*
X221194494Y-45520484D01*
X221257994Y-45493883D01*
X221257921Y-45947209D01*
G36*
X222051769Y-45803582D02*
X222054751Y-45854988D01*
X222057087Y-45933112D01*
X222058589Y-46031777D01*
X222059071Y-46135263D01*
X222059071Y-46485453D01*
X221997241Y-46547283D01*
X221954633Y-46585382D01*
X221917230Y-46600815D01*
X221866110Y-46599838D01*
X221845818Y-46597353D01*
X221782394Y-46590120D01*
X221729935Y-46585975D01*
X221717148Y-46585592D01*
X221674039Y-46588096D01*
X221612384Y-46594382D01*
X221588478Y-46597353D01*
X221529762Y-46601948D01*
X221490304Y-46591966D01*
X221451178Y-46561148D01*
X221437055Y-46547283D01*
X221375225Y-46485453D01*
X221375225Y-45830423D01*
X221424990Y-45807749D01*
X221467842Y-45790954D01*
X221492913Y-45785074D01*
X221499341Y-45803656D01*
X221505349Y-45855575D01*
X221510537Y-45935092D01*
X221514504Y-46036466D01*
X221516417Y-46122112D01*
X221521763Y-46459151D01*
X221568400Y-46465745D01*
X221610816Y-46461134D01*
X221631600Y-46446207D01*
X221637410Y-46418297D01*
X221642370Y-46358845D01*
X221646086Y-46275386D01*
X221648164Y-46175452D01*
X221648464Y-46124024D01*
X221648763Y-45827974D01*
X221710294Y-45806524D01*
X221753844Y-45791940D01*
X221777534Y-45785139D01*
X221778217Y-45785074D01*
X221780594Y-45803562D01*
X221783206Y-45854826D01*
X221785835Y-45932569D01*
X221788261Y-46030494D01*
X221789955Y-46122112D01*
X221795301Y-46459151D01*
X221912532Y-46459151D01*
X221917912Y-46151666D01*
X221923291Y-45844181D01*
X221980441Y-45814627D01*
X222022637Y-45794333D01*
X222047610Y-45785124D01*
X222048331Y-45785074D01*
X222051769Y-45803582D01*
X222051769Y-45803582D01*
G37*
X222051769Y-45803582D02*
X222054751Y-45854988D01*
X222057087Y-45933112D01*
X222058589Y-46031777D01*
X222059071Y-46135263D01*
X222059071Y-46485453D01*
X221997241Y-46547283D01*
X221954633Y-46585382D01*
X221917230Y-46600815D01*
X221866110Y-46599838D01*
X221845818Y-46597353D01*
X221782394Y-46590120D01*
X221729935Y-46585975D01*
X221717148Y-46585592D01*
X221674039Y-46588096D01*
X221612384Y-46594382D01*
X221588478Y-46597353D01*
X221529762Y-46601948D01*
X221490304Y-46591966D01*
X221451178Y-46561148D01*
X221437055Y-46547283D01*
X221375225Y-46485453D01*
X221375225Y-45830423D01*
X221424990Y-45807749D01*
X221467842Y-45790954D01*
X221492913Y-45785074D01*
X221499341Y-45803656D01*
X221505349Y-45855575D01*
X221510537Y-45935092D01*
X221514504Y-46036466D01*
X221516417Y-46122112D01*
X221521763Y-46459151D01*
X221568400Y-46465745D01*
X221610816Y-46461134D01*
X221631600Y-46446207D01*
X221637410Y-46418297D01*
X221642370Y-46358845D01*
X221646086Y-46275386D01*
X221648164Y-46175452D01*
X221648464Y-46124024D01*
X221648763Y-45827974D01*
X221710294Y-45806524D01*
X221753844Y-45791940D01*
X221777534Y-45785139D01*
X221778217Y-45785074D01*
X221780594Y-45803562D01*
X221783206Y-45854826D01*
X221785835Y-45932569D01*
X221788261Y-46030494D01*
X221789955Y-46122112D01*
X221795301Y-46459151D01*
X221912532Y-46459151D01*
X221917912Y-46151666D01*
X221923291Y-45844181D01*
X221980441Y-45814627D01*
X222022637Y-45794333D01*
X222047610Y-45785124D01*
X222048331Y-45785074D01*
X222051769Y-45803582D01*
G36*
X222543173Y-45800448D02*
X222599430Y-45826037D01*
X222643587Y-45857044D01*
X222675941Y-45891715D01*
X222698278Y-45936440D01*
X222712386Y-45997612D01*
X222720051Y-46081621D01*
X222723060Y-46194860D01*
X222723378Y-46269429D01*
X222723378Y-46560340D01*
X222673613Y-46583015D01*
X222634416Y-46599587D01*
X222614997Y-46605689D01*
X222611282Y-46587530D01*
X222608335Y-46538568D01*
X222606531Y-46467073D01*
X222606148Y-46410305D01*
X222604501Y-46328291D01*
X222600062Y-46263229D01*
X222593580Y-46223387D01*
X222588430Y-46214920D01*
X222553817Y-46223566D01*
X222499480Y-46245743D01*
X222436562Y-46275806D01*
X222376208Y-46308112D01*
X222329561Y-46337018D01*
X222307766Y-46356881D01*
X222307679Y-46357095D01*
X222309554Y-46393855D01*
X222326365Y-46428946D01*
X222355879Y-46457448D01*
X222398956Y-46466981D01*
X222435772Y-46465870D01*
X222487914Y-46465053D01*
X222515284Y-46477269D01*
X222531722Y-46509544D01*
X222533795Y-46515630D01*
X222540921Y-46561659D01*
X222521864Y-46589607D01*
X222472193Y-46602927D01*
X222418537Y-46605390D01*
X222321982Y-46587130D01*
X222271999Y-46561051D01*
X222210269Y-46499788D01*
X222177530Y-46424590D01*
X222174593Y-46345131D01*
X222202264Y-46271087D01*
X222243887Y-46224689D01*
X222285444Y-46198713D01*
X222350762Y-46165827D01*
X222426878Y-46132477D01*
X222439566Y-46127381D01*
X222523173Y-46090485D01*
X222571370Y-46057966D01*
X222586870Y-46025638D01*
X222572390Y-45989314D01*
X222547532Y-45960920D01*
X222488779Y-45925959D01*
X222424133Y-45923337D01*
X222364848Y-45950278D01*
X222322179Y-46004008D01*
X222316579Y-46017870D01*
X222283973Y-46068856D01*
X222236370Y-46106707D01*
X222176301Y-46137770D01*
X222176301Y-46049688D01*
X222179837Y-45995871D01*
X222194996Y-45953454D01*
X222228608Y-45908199D01*
X222260875Y-45873340D01*
X222311049Y-45823982D01*
X222350033Y-45797467D01*
X222391904Y-45786831D01*
X222439300Y-45785074D01*
X222543173Y-45800448D01*
X222543173Y-45800448D01*
G37*
X222543173Y-45800448D02*
X222599430Y-45826037D01*
X222643587Y-45857044D01*
X222675941Y-45891715D01*
X222698278Y-45936440D01*
X222712386Y-45997612D01*
X222720051Y-46081621D01*
X222723060Y-46194860D01*
X222723378Y-46269429D01*
X222723378Y-46560340D01*
X222673613Y-46583015D01*
X222634416Y-46599587D01*
X222614997Y-46605689D01*
X222611282Y-46587530D01*
X222608335Y-46538568D01*
X222606531Y-46467073D01*
X222606148Y-46410305D01*
X222604501Y-46328291D01*
X222600062Y-46263229D01*
X222593580Y-46223387D01*
X222588430Y-46214920D01*
X222553817Y-46223566D01*
X222499480Y-46245743D01*
X222436562Y-46275806D01*
X222376208Y-46308112D01*
X222329561Y-46337018D01*
X222307766Y-46356881D01*
X222307679Y-46357095D01*
X222309554Y-46393855D01*
X222326365Y-46428946D01*
X222355879Y-46457448D01*
X222398956Y-46466981D01*
X222435772Y-46465870D01*
X222487914Y-46465053D01*
X222515284Y-46477269D01*
X222531722Y-46509544D01*
X222533795Y-46515630D01*
X222540921Y-46561659D01*
X222521864Y-46589607D01*
X222472193Y-46602927D01*
X222418537Y-46605390D01*
X222321982Y-46587130D01*
X222271999Y-46561051D01*
X222210269Y-46499788D01*
X222177530Y-46424590D01*
X222174593Y-46345131D01*
X222202264Y-46271087D01*
X222243887Y-46224689D01*
X222285444Y-46198713D01*
X222350762Y-46165827D01*
X222426878Y-46132477D01*
X222439566Y-46127381D01*
X222523173Y-46090485D01*
X222571370Y-46057966D01*
X222586870Y-46025638D01*
X222572390Y-45989314D01*
X222547532Y-45960920D01*
X222488779Y-45925959D01*
X222424133Y-45923337D01*
X222364848Y-45950278D01*
X222322179Y-46004008D01*
X222316579Y-46017870D01*
X222283973Y-46068856D01*
X222236370Y-46106707D01*
X222176301Y-46137770D01*
X222176301Y-46049688D01*
X222179837Y-45995871D01*
X222194996Y-45953454D01*
X222228608Y-45908199D01*
X222260875Y-45873340D01*
X222311049Y-45823982D01*
X222350033Y-45797467D01*
X222391904Y-45786831D01*
X222439300Y-45785074D01*
X222543173Y-45800448D01*
G36*
X223226647Y-45803702D02*
X223250001Y-45813908D01*
X223305742Y-45858054D01*
X223353409Y-45921887D01*
X223382888Y-45990007D01*
X223387686Y-46023590D01*
X223371600Y-46070476D01*
X223336315Y-46095285D01*
X223298484Y-46110307D01*
X223281161Y-46113075D01*
X223272726Y-46092986D01*
X223256070Y-46049271D01*
X223248763Y-46029518D01*
X223207788Y-45961191D01*
X223148462Y-45927111D01*
X223072392Y-45928159D01*
X223066758Y-45929501D01*
X223026145Y-45948756D01*
X222996288Y-45986295D01*
X222975895Y-46046729D01*
X222963676Y-46134671D01*
X222958340Y-46254733D01*
X222957840Y-46318618D01*
X222957592Y-46419323D01*
X222955966Y-46487974D01*
X222951641Y-46531593D01*
X222943294Y-46557202D01*
X222929605Y-46571823D01*
X222909251Y-46582478D01*
X222908074Y-46583015D01*
X222868878Y-46599587D01*
X222849459Y-46605689D01*
X222846475Y-46587239D01*
X222843921Y-46536243D01*
X222841980Y-46459228D01*
X222840837Y-46362725D01*
X222840609Y-46292104D01*
X222841772Y-46155445D01*
X222846319Y-46051771D01*
X222855839Y-45975028D01*
X222871921Y-45919166D01*
X222896153Y-45878132D01*
X222930126Y-45845874D01*
X222963673Y-45823360D01*
X223044339Y-45793396D01*
X223138221Y-45786638D01*
X223226647Y-45803702D01*
X223226647Y-45803702D01*
G37*
X223226647Y-45803702D02*
X223250001Y-45813908D01*
X223305742Y-45858054D01*
X223353409Y-45921887D01*
X223382888Y-45990007D01*
X223387686Y-46023590D01*
X223371600Y-46070476D01*
X223336315Y-46095285D01*
X223298484Y-46110307D01*
X223281161Y-46113075D01*
X223272726Y-46092986D01*
X223256070Y-46049271D01*
X223248763Y-46029518D01*
X223207788Y-45961191D01*
X223148462Y-45927111D01*
X223072392Y-45928159D01*
X223066758Y-45929501D01*
X223026145Y-45948756D01*
X222996288Y-45986295D01*
X222975895Y-46046729D01*
X222963676Y-46134671D01*
X222958340Y-46254733D01*
X222957840Y-46318618D01*
X222957592Y-46419323D01*
X222955966Y-46487974D01*
X222951641Y-46531593D01*
X222943294Y-46557202D01*
X222929605Y-46571823D01*
X222909251Y-46582478D01*
X222908074Y-46583015D01*
X222868878Y-46599587D01*
X222849459Y-46605689D01*
X222846475Y-46587239D01*
X222843921Y-46536243D01*
X222841980Y-46459228D01*
X222840837Y-46362725D01*
X222840609Y-46292104D01*
X222841772Y-46155445D01*
X222846319Y-46051771D01*
X222855839Y-45975028D01*
X222871921Y-45919166D01*
X222896153Y-45878132D01*
X222930126Y-45845874D01*
X222963673Y-45823360D01*
X223044339Y-45793396D01*
X223138221Y-45786638D01*
X223226647Y-45803702D01*
G36*
X223901064Y-45814758D02*
X223978368Y-45865281D01*
X224015654Y-45910510D01*
X224045193Y-45992583D01*
X224047539Y-46057527D01*
X224042225Y-46144365D01*
X223841955Y-46232023D01*
X223744579Y-46276807D01*
X223680953Y-46312833D01*
X223647869Y-46344037D01*
X223642120Y-46374356D01*
X223660498Y-46407725D01*
X223680763Y-46429843D01*
X223739729Y-46465313D01*
X223803864Y-46467799D01*
X223862766Y-46440155D01*
X223906037Y-46385240D01*
X223913776Y-46365848D01*
X223950846Y-46305284D01*
X223993494Y-46279472D01*
X224051994Y-46257391D01*
X224051994Y-46341104D01*
X224046822Y-46398070D01*
X224026563Y-46446109D01*
X223984102Y-46501266D01*
X223977791Y-46508434D01*
X223930560Y-46557505D01*
X223889961Y-46583840D01*
X223839168Y-46595955D01*
X223797060Y-46599923D01*
X223721742Y-46600911D01*
X223668126Y-46588386D01*
X223634678Y-46569789D01*
X223582108Y-46528895D01*
X223545719Y-46484668D01*
X223522690Y-46429046D01*
X223510199Y-46353967D01*
X223505427Y-46251369D01*
X223505046Y-46199296D01*
X223506341Y-46136868D01*
X223624311Y-46136868D01*
X223625679Y-46170358D01*
X223629089Y-46175843D01*
X223651593Y-46168392D01*
X223700022Y-46148673D01*
X223764748Y-46120638D01*
X223778283Y-46114612D01*
X223860084Y-46073016D01*
X223905152Y-46036458D01*
X223915057Y-46002216D01*
X223891366Y-45967568D01*
X223871800Y-45952259D01*
X223801200Y-45921641D01*
X223735120Y-45926700D01*
X223679799Y-45964071D01*
X223641476Y-46030393D01*
X223629189Y-46083036D01*
X223624311Y-46136868D01*
X223506341Y-46136868D01*
X223507570Y-46077640D01*
X223516872Y-45987630D01*
X223535300Y-45922087D01*
X223565200Y-45873832D01*
X223608920Y-45835687D01*
X223627981Y-45823360D01*
X223714566Y-45791256D01*
X223809362Y-45789236D01*
X223901064Y-45814758D01*
X223901064Y-45814758D01*
G37*
X223901064Y-45814758D02*
X223978368Y-45865281D01*
X224015654Y-45910510D01*
X224045193Y-45992583D01*
X224047539Y-46057527D01*
X224042225Y-46144365D01*
X223841955Y-46232023D01*
X223744579Y-46276807D01*
X223680953Y-46312833D01*
X223647869Y-46344037D01*
X223642120Y-46374356D01*
X223660498Y-46407725D01*
X223680763Y-46429843D01*
X223739729Y-46465313D01*
X223803864Y-46467799D01*
X223862766Y-46440155D01*
X223906037Y-46385240D01*
X223913776Y-46365848D01*
X223950846Y-46305284D01*
X223993494Y-46279472D01*
X224051994Y-46257391D01*
X224051994Y-46341104D01*
X224046822Y-46398070D01*
X224026563Y-46446109D01*
X223984102Y-46501266D01*
X223977791Y-46508434D01*
X223930560Y-46557505D01*
X223889961Y-46583840D01*
X223839168Y-46595955D01*
X223797060Y-46599923D01*
X223721742Y-46600911D01*
X223668126Y-46588386D01*
X223634678Y-46569789D01*
X223582108Y-46528895D01*
X223545719Y-46484668D01*
X223522690Y-46429046D01*
X223510199Y-46353967D01*
X223505427Y-46251369D01*
X223505046Y-46199296D01*
X223506341Y-46136868D01*
X223624311Y-46136868D01*
X223625679Y-46170358D01*
X223629089Y-46175843D01*
X223651593Y-46168392D01*
X223700022Y-46148673D01*
X223764748Y-46120638D01*
X223778283Y-46114612D01*
X223860084Y-46073016D01*
X223905152Y-46036458D01*
X223915057Y-46002216D01*
X223891366Y-45967568D01*
X223871800Y-45952259D01*
X223801200Y-45921641D01*
X223735120Y-45926700D01*
X223679799Y-45964071D01*
X223641476Y-46030393D01*
X223629189Y-46083036D01*
X223624311Y-46136868D01*
X223506341Y-46136868D01*
X223507570Y-46077640D01*
X223516872Y-45987630D01*
X223535300Y-45922087D01*
X223565200Y-45873832D01*
X223608920Y-45835687D01*
X223627981Y-45823360D01*
X223714566Y-45791256D01*
X223809362Y-45789236D01*
X223901064Y-45814758D01*
G36*
X219795718Y-39454696D02*
X219901452Y-39455275D01*
X219977972Y-39456842D01*
X220030212Y-39459892D01*
X220063103Y-39464916D01*
X220081577Y-39472409D01*
X220090567Y-39482864D01*
X220095003Y-39496773D01*
X220095434Y-39498574D01*
X220102173Y-39531065D01*
X220114648Y-39595172D01*
X220131559Y-39684071D01*
X220151611Y-39790939D01*
X220173504Y-39908953D01*
X220174269Y-39913098D01*
X220196199Y-40028751D01*
X220216717Y-40130934D01*
X220234499Y-40213518D01*
X220248221Y-40270376D01*
X220256558Y-40295378D01*
X220256956Y-40295821D01*
X220281517Y-40308030D01*
X220332155Y-40328376D01*
X220397935Y-40352465D01*
X220398301Y-40352594D01*
X220481157Y-40383738D01*
X220578840Y-40423411D01*
X220670917Y-40463301D01*
X220675274Y-40465273D01*
X220825247Y-40533340D01*
X221157338Y-40306559D01*
X221259214Y-40237424D01*
X221351497Y-40175617D01*
X221428843Y-40124653D01*
X221485904Y-40088047D01*
X221517335Y-40069314D01*
X221520319Y-40067924D01*
X221543161Y-40074110D01*
X221585822Y-40103955D01*
X221649968Y-40158867D01*
X221737261Y-40240254D01*
X221826375Y-40326842D01*
X221912281Y-40412167D01*
X221989167Y-40490028D01*
X222052404Y-40555617D01*
X222097363Y-40604125D01*
X222119416Y-40630745D01*
X222120236Y-40632115D01*
X222122674Y-40650383D01*
X222113490Y-40680215D01*
X222090414Y-40725641D01*
X222051177Y-40790690D01*
X221993510Y-40879390D01*
X221916635Y-40993577D01*
X221848410Y-41094082D01*
X221787422Y-41184223D01*
X221737196Y-41258769D01*
X221701256Y-41312485D01*
X221683127Y-41340138D01*
X221681986Y-41342015D01*
X221684199Y-41368510D01*
X221700978Y-41420006D01*
X221728982Y-41486771D01*
X221738962Y-41508092D01*
X221782512Y-41603079D01*
X221828974Y-41710857D01*
X221866717Y-41804112D01*
X221893913Y-41873326D01*
X221915515Y-41925926D01*
X221927998Y-41953417D01*
X221929549Y-41955536D01*
X221952508Y-41959044D01*
X222006626Y-41968658D01*
X222084708Y-41983009D01*
X222179559Y-42000727D01*
X222283983Y-42020445D01*
X222390784Y-42040794D01*
X222492766Y-42060406D01*
X222582734Y-42077911D01*
X222653493Y-42091942D01*
X222697846Y-42101129D01*
X222708725Y-42103727D01*
X222719962Y-42110138D01*
X222728445Y-42124617D01*
X222734554Y-42152053D01*
X222738672Y-42197331D01*
X222741181Y-42265340D01*
X222742461Y-42360967D01*
X222742894Y-42489100D01*
X222742917Y-42541621D01*
X222742917Y-42968765D01*
X222640340Y-42989011D01*
X222583271Y-42999990D01*
X222498109Y-43016015D01*
X222395212Y-43035153D01*
X222284936Y-43055471D01*
X222254455Y-43061052D01*
X222152695Y-43080837D01*
X222064045Y-43100293D01*
X221995948Y-43117617D01*
X221955844Y-43131008D01*
X221949163Y-43134999D01*
X221932759Y-43163262D01*
X221909239Y-43218029D01*
X221883156Y-43288508D01*
X221877982Y-43303689D01*
X221843796Y-43397816D01*
X221801363Y-43504021D01*
X221759837Y-43599393D01*
X221759632Y-43599836D01*
X221690480Y-43749445D01*
X222145352Y-44418537D01*
X221853340Y-44711036D01*
X221765020Y-44798090D01*
X221684465Y-44874829D01*
X221616200Y-44937157D01*
X221564748Y-44980976D01*
X221534634Y-45002190D01*
X221530314Y-45003536D01*
X221504951Y-44992936D01*
X221453198Y-44963467D01*
X221380708Y-44918625D01*
X221293134Y-44861904D01*
X221198452Y-44798382D01*
X221102356Y-44733588D01*
X221016677Y-44677207D01*
X220946856Y-44632708D01*
X220898334Y-44603559D01*
X220876622Y-44593228D01*
X220850133Y-44601970D01*
X220799902Y-44625007D01*
X220736291Y-44657551D01*
X220729548Y-44661169D01*
X220643886Y-44704130D01*
X220585146Y-44725199D01*
X220548612Y-44725423D01*
X220529571Y-44705848D01*
X220529460Y-44705574D01*
X220519942Y-44682392D01*
X220497243Y-44627361D01*
X220463122Y-44544742D01*
X220419340Y-44438792D01*
X220367656Y-44313772D01*
X220309832Y-44173940D01*
X220253831Y-44038557D01*
X220192287Y-43889154D01*
X220135779Y-43750752D01*
X220086001Y-43627593D01*
X220044646Y-43523922D01*
X220013408Y-43443979D01*
X219993981Y-43392008D01*
X219987994Y-43372612D01*
X220003008Y-43350363D01*
X220042279Y-43314902D01*
X220094647Y-43275807D01*
X220243781Y-43152165D01*
X220360351Y-43010442D01*
X220442958Y-42853624D01*
X220490206Y-42684695D01*
X220500697Y-42506642D01*
X220493071Y-42424459D01*
X220451522Y-42253951D01*
X220379963Y-42103379D01*
X220282835Y-41974229D01*
X220164574Y-41867984D01*
X220029620Y-41786130D01*
X219882411Y-41730152D01*
X219727384Y-41701535D01*
X219568979Y-41701764D01*
X219411634Y-41732325D01*
X219259786Y-41794702D01*
X219117875Y-41890380D01*
X219058643Y-41944492D01*
X218945043Y-42083440D01*
X218865946Y-42235281D01*
X218820826Y-42395587D01*
X218809156Y-42559932D01*
X218830409Y-42723891D01*
X218884060Y-42883038D01*
X218969580Y-43032945D01*
X219086445Y-43169187D01*
X219217033Y-43275807D01*
X219271428Y-43316562D01*
X219309854Y-43351638D01*
X219323686Y-43372646D01*
X219316443Y-43395555D01*
X219295845Y-43450285D01*
X219263586Y-43532592D01*
X219221361Y-43638235D01*
X219170863Y-43762970D01*
X219113788Y-43902556D01*
X219057694Y-44038590D01*
X218995807Y-44188121D01*
X218938484Y-44326687D01*
X218887484Y-44450027D01*
X218844567Y-44553884D01*
X218811493Y-44634000D01*
X218790021Y-44686115D01*
X218782065Y-44705574D01*
X218763269Y-44725343D01*
X218726914Y-44725285D01*
X218668319Y-44704361D01*
X218582808Y-44661533D01*
X218582132Y-44661169D01*
X218517747Y-44627932D01*
X218465701Y-44603722D01*
X218436352Y-44593324D01*
X218435057Y-44593228D01*
X218412964Y-44603775D01*
X218364188Y-44633104D01*
X218294171Y-44677747D01*
X218208354Y-44734234D01*
X218113228Y-44798382D01*
X218016380Y-44863331D01*
X217929093Y-44919816D01*
X217857021Y-44964341D01*
X217805817Y-44993410D01*
X217781366Y-45003536D01*
X217758850Y-44990227D01*
X217713582Y-44953032D01*
X217650084Y-44896048D01*
X217572879Y-44823369D01*
X217486491Y-44739091D01*
X217458239Y-44710936D01*
X217166127Y-44418336D01*
X217388471Y-44092024D01*
X217456042Y-43991817D01*
X217515347Y-43901883D01*
X217563057Y-43827430D01*
X217595847Y-43773671D01*
X217610388Y-43745814D01*
X217610814Y-43743832D01*
X217603148Y-43717575D01*
X217582529Y-43664757D01*
X217552525Y-43594230D01*
X217531465Y-43547013D01*
X217492088Y-43456614D01*
X217455005Y-43365286D01*
X217426255Y-43288120D01*
X217418445Y-43264612D01*
X217396257Y-43201836D01*
X217374567Y-43153331D01*
X217362653Y-43134999D01*
X217336363Y-43123779D01*
X217278982Y-43107874D01*
X217197958Y-43089087D01*
X217100735Y-43069219D01*
X217057225Y-43061052D01*
X216946736Y-43040749D01*
X216840756Y-43021090D01*
X216749641Y-43004008D01*
X216683748Y-42991438D01*
X216671340Y-42989011D01*
X216568763Y-42968765D01*
X216568763Y-42541621D01*
X216568993Y-42401166D01*
X216569939Y-42294899D01*
X216571981Y-42217933D01*
X216575502Y-42165380D01*
X216580883Y-42132353D01*
X216588506Y-42113965D01*
X216598752Y-42105328D01*
X216602955Y-42103727D01*
X216628310Y-42098047D01*
X216684324Y-42086715D01*
X216763804Y-42071099D01*
X216859552Y-42052567D01*
X216964373Y-42032489D01*
X217071072Y-42012232D01*
X217172453Y-41993166D01*
X217261319Y-41976659D01*
X217330477Y-41964079D01*
X217372729Y-41956795D01*
X217382130Y-41955536D01*
X217390647Y-41938683D01*
X217409500Y-41893790D01*
X217435164Y-41829350D01*
X217444963Y-41804112D01*
X217484488Y-41706606D01*
X217531032Y-41598879D01*
X217572717Y-41508092D01*
X217603390Y-41438673D01*
X217623796Y-41381630D01*
X217630608Y-41346697D01*
X217629522Y-41342015D01*
X217615125Y-41319911D01*
X217582252Y-41270751D01*
X217534430Y-41199768D01*
X217475188Y-41112198D01*
X217408055Y-41013277D01*
X217394781Y-40993750D01*
X217316886Y-40878060D01*
X217259627Y-40789964D01*
X217220721Y-40725406D01*
X217197884Y-40680331D01*
X217188834Y-40650683D01*
X217191288Y-40632405D01*
X217191351Y-40632289D01*
X217210667Y-40608281D01*
X217253391Y-40561867D01*
X217314891Y-40497857D01*
X217390538Y-40421065D01*
X217475701Y-40336302D01*
X217485305Y-40326842D01*
X217592630Y-40222909D01*
X217675455Y-40146595D01*
X217735445Y-40096491D01*
X217774263Y-40071190D01*
X217791360Y-40067924D01*
X217816313Y-40082170D01*
X217868095Y-40115076D01*
X217941360Y-40163128D01*
X218030760Y-40222810D01*
X218130951Y-40290608D01*
X218154341Y-40306559D01*
X218486433Y-40533340D01*
X218636405Y-40465273D01*
X218727610Y-40425605D01*
X218825509Y-40385711D01*
X218909671Y-40353903D01*
X218913378Y-40352594D01*
X218979209Y-40328496D01*
X219029956Y-40308120D01*
X219054682Y-40295856D01*
X219054724Y-40295821D01*
X219062569Y-40273654D01*
X219075906Y-40219137D01*
X219093410Y-40138400D01*
X219113757Y-40037570D01*
X219135622Y-39922776D01*
X219137411Y-39913098D01*
X219159344Y-39794824D01*
X219179480Y-39687462D01*
X219196520Y-39597837D01*
X219209168Y-39532771D01*
X219216124Y-39499088D01*
X219216246Y-39498574D01*
X219220479Y-39484245D01*
X219228711Y-39473427D01*
X219245873Y-39465626D01*
X219276898Y-39460349D01*
X219326718Y-39457102D01*
X219400264Y-39455392D01*
X219502469Y-39454727D01*
X219638265Y-39454613D01*
X219655840Y-39454612D01*
X219795718Y-39454696D01*
X219795718Y-39454696D01*
G37*
X219795718Y-39454696D02*
X219901452Y-39455275D01*
X219977972Y-39456842D01*
X220030212Y-39459892D01*
X220063103Y-39464916D01*
X220081577Y-39472409D01*
X220090567Y-39482864D01*
X220095003Y-39496773D01*
X220095434Y-39498574D01*
X220102173Y-39531065D01*
X220114648Y-39595172D01*
X220131559Y-39684071D01*
X220151611Y-39790939D01*
X220173504Y-39908953D01*
X220174269Y-39913098D01*
X220196199Y-40028751D01*
X220216717Y-40130934D01*
X220234499Y-40213518D01*
X220248221Y-40270376D01*
X220256558Y-40295378D01*
X220256956Y-40295821D01*
X220281517Y-40308030D01*
X220332155Y-40328376D01*
X220397935Y-40352465D01*
X220398301Y-40352594D01*
X220481157Y-40383738D01*
X220578840Y-40423411D01*
X220670917Y-40463301D01*
X220675274Y-40465273D01*
X220825247Y-40533340D01*
X221157338Y-40306559D01*
X221259214Y-40237424D01*
X221351497Y-40175617D01*
X221428843Y-40124653D01*
X221485904Y-40088047D01*
X221517335Y-40069314D01*
X221520319Y-40067924D01*
X221543161Y-40074110D01*
X221585822Y-40103955D01*
X221649968Y-40158867D01*
X221737261Y-40240254D01*
X221826375Y-40326842D01*
X221912281Y-40412167D01*
X221989167Y-40490028D01*
X222052404Y-40555617D01*
X222097363Y-40604125D01*
X222119416Y-40630745D01*
X222120236Y-40632115D01*
X222122674Y-40650383D01*
X222113490Y-40680215D01*
X222090414Y-40725641D01*
X222051177Y-40790690D01*
X221993510Y-40879390D01*
X221916635Y-40993577D01*
X221848410Y-41094082D01*
X221787422Y-41184223D01*
X221737196Y-41258769D01*
X221701256Y-41312485D01*
X221683127Y-41340138D01*
X221681986Y-41342015D01*
X221684199Y-41368510D01*
X221700978Y-41420006D01*
X221728982Y-41486771D01*
X221738962Y-41508092D01*
X221782512Y-41603079D01*
X221828974Y-41710857D01*
X221866717Y-41804112D01*
X221893913Y-41873326D01*
X221915515Y-41925926D01*
X221927998Y-41953417D01*
X221929549Y-41955536D01*
X221952508Y-41959044D01*
X222006626Y-41968658D01*
X222084708Y-41983009D01*
X222179559Y-42000727D01*
X222283983Y-42020445D01*
X222390784Y-42040794D01*
X222492766Y-42060406D01*
X222582734Y-42077911D01*
X222653493Y-42091942D01*
X222697846Y-42101129D01*
X222708725Y-42103727D01*
X222719962Y-42110138D01*
X222728445Y-42124617D01*
X222734554Y-42152053D01*
X222738672Y-42197331D01*
X222741181Y-42265340D01*
X222742461Y-42360967D01*
X222742894Y-42489100D01*
X222742917Y-42541621D01*
X222742917Y-42968765D01*
X222640340Y-42989011D01*
X222583271Y-42999990D01*
X222498109Y-43016015D01*
X222395212Y-43035153D01*
X222284936Y-43055471D01*
X222254455Y-43061052D01*
X222152695Y-43080837D01*
X222064045Y-43100293D01*
X221995948Y-43117617D01*
X221955844Y-43131008D01*
X221949163Y-43134999D01*
X221932759Y-43163262D01*
X221909239Y-43218029D01*
X221883156Y-43288508D01*
X221877982Y-43303689D01*
X221843796Y-43397816D01*
X221801363Y-43504021D01*
X221759837Y-43599393D01*
X221759632Y-43599836D01*
X221690480Y-43749445D01*
X222145352Y-44418537D01*
X221853340Y-44711036D01*
X221765020Y-44798090D01*
X221684465Y-44874829D01*
X221616200Y-44937157D01*
X221564748Y-44980976D01*
X221534634Y-45002190D01*
X221530314Y-45003536D01*
X221504951Y-44992936D01*
X221453198Y-44963467D01*
X221380708Y-44918625D01*
X221293134Y-44861904D01*
X221198452Y-44798382D01*
X221102356Y-44733588D01*
X221016677Y-44677207D01*
X220946856Y-44632708D01*
X220898334Y-44603559D01*
X220876622Y-44593228D01*
X220850133Y-44601970D01*
X220799902Y-44625007D01*
X220736291Y-44657551D01*
X220729548Y-44661169D01*
X220643886Y-44704130D01*
X220585146Y-44725199D01*
X220548612Y-44725423D01*
X220529571Y-44705848D01*
X220529460Y-44705574D01*
X220519942Y-44682392D01*
X220497243Y-44627361D01*
X220463122Y-44544742D01*
X220419340Y-44438792D01*
X220367656Y-44313772D01*
X220309832Y-44173940D01*
X220253831Y-44038557D01*
X220192287Y-43889154D01*
X220135779Y-43750752D01*
X220086001Y-43627593D01*
X220044646Y-43523922D01*
X220013408Y-43443979D01*
X219993981Y-43392008D01*
X219987994Y-43372612D01*
X220003008Y-43350363D01*
X220042279Y-43314902D01*
X220094647Y-43275807D01*
X220243781Y-43152165D01*
X220360351Y-43010442D01*
X220442958Y-42853624D01*
X220490206Y-42684695D01*
X220500697Y-42506642D01*
X220493071Y-42424459D01*
X220451522Y-42253951D01*
X220379963Y-42103379D01*
X220282835Y-41974229D01*
X220164574Y-41867984D01*
X220029620Y-41786130D01*
X219882411Y-41730152D01*
X219727384Y-41701535D01*
X219568979Y-41701764D01*
X219411634Y-41732325D01*
X219259786Y-41794702D01*
X219117875Y-41890380D01*
X219058643Y-41944492D01*
X218945043Y-42083440D01*
X218865946Y-42235281D01*
X218820826Y-42395587D01*
X218809156Y-42559932D01*
X218830409Y-42723891D01*
X218884060Y-42883038D01*
X218969580Y-43032945D01*
X219086445Y-43169187D01*
X219217033Y-43275807D01*
X219271428Y-43316562D01*
X219309854Y-43351638D01*
X219323686Y-43372646D01*
X219316443Y-43395555D01*
X219295845Y-43450285D01*
X219263586Y-43532592D01*
X219221361Y-43638235D01*
X219170863Y-43762970D01*
X219113788Y-43902556D01*
X219057694Y-44038590D01*
X218995807Y-44188121D01*
X218938484Y-44326687D01*
X218887484Y-44450027D01*
X218844567Y-44553884D01*
X218811493Y-44634000D01*
X218790021Y-44686115D01*
X218782065Y-44705574D01*
X218763269Y-44725343D01*
X218726914Y-44725285D01*
X218668319Y-44704361D01*
X218582808Y-44661533D01*
X218582132Y-44661169D01*
X218517747Y-44627932D01*
X218465701Y-44603722D01*
X218436352Y-44593324D01*
X218435057Y-44593228D01*
X218412964Y-44603775D01*
X218364188Y-44633104D01*
X218294171Y-44677747D01*
X218208354Y-44734234D01*
X218113228Y-44798382D01*
X218016380Y-44863331D01*
X217929093Y-44919816D01*
X217857021Y-44964341D01*
X217805817Y-44993410D01*
X217781366Y-45003536D01*
X217758850Y-44990227D01*
X217713582Y-44953032D01*
X217650084Y-44896048D01*
X217572879Y-44823369D01*
X217486491Y-44739091D01*
X217458239Y-44710936D01*
X217166127Y-44418336D01*
X217388471Y-44092024D01*
X217456042Y-43991817D01*
X217515347Y-43901883D01*
X217563057Y-43827430D01*
X217595847Y-43773671D01*
X217610388Y-43745814D01*
X217610814Y-43743832D01*
X217603148Y-43717575D01*
X217582529Y-43664757D01*
X217552525Y-43594230D01*
X217531465Y-43547013D01*
X217492088Y-43456614D01*
X217455005Y-43365286D01*
X217426255Y-43288120D01*
X217418445Y-43264612D01*
X217396257Y-43201836D01*
X217374567Y-43153331D01*
X217362653Y-43134999D01*
X217336363Y-43123779D01*
X217278982Y-43107874D01*
X217197958Y-43089087D01*
X217100735Y-43069219D01*
X217057225Y-43061052D01*
X216946736Y-43040749D01*
X216840756Y-43021090D01*
X216749641Y-43004008D01*
X216683748Y-42991438D01*
X216671340Y-42989011D01*
X216568763Y-42968765D01*
X216568763Y-42541621D01*
X216568993Y-42401166D01*
X216569939Y-42294899D01*
X216571981Y-42217933D01*
X216575502Y-42165380D01*
X216580883Y-42132353D01*
X216588506Y-42113965D01*
X216598752Y-42105328D01*
X216602955Y-42103727D01*
X216628310Y-42098047D01*
X216684324Y-42086715D01*
X216763804Y-42071099D01*
X216859552Y-42052567D01*
X216964373Y-42032489D01*
X217071072Y-42012232D01*
X217172453Y-41993166D01*
X217261319Y-41976659D01*
X217330477Y-41964079D01*
X217372729Y-41956795D01*
X217382130Y-41955536D01*
X217390647Y-41938683D01*
X217409500Y-41893790D01*
X217435164Y-41829350D01*
X217444963Y-41804112D01*
X217484488Y-41706606D01*
X217531032Y-41598879D01*
X217572717Y-41508092D01*
X217603390Y-41438673D01*
X217623796Y-41381630D01*
X217630608Y-41346697D01*
X217629522Y-41342015D01*
X217615125Y-41319911D01*
X217582252Y-41270751D01*
X217534430Y-41199768D01*
X217475188Y-41112198D01*
X217408055Y-41013277D01*
X217394781Y-40993750D01*
X217316886Y-40878060D01*
X217259627Y-40789964D01*
X217220721Y-40725406D01*
X217197884Y-40680331D01*
X217188834Y-40650683D01*
X217191288Y-40632405D01*
X217191351Y-40632289D01*
X217210667Y-40608281D01*
X217253391Y-40561867D01*
X217314891Y-40497857D01*
X217390538Y-40421065D01*
X217475701Y-40336302D01*
X217485305Y-40326842D01*
X217592630Y-40222909D01*
X217675455Y-40146595D01*
X217735445Y-40096491D01*
X217774263Y-40071190D01*
X217791360Y-40067924D01*
X217816313Y-40082170D01*
X217868095Y-40115076D01*
X217941360Y-40163128D01*
X218030760Y-40222810D01*
X218130951Y-40290608D01*
X218154341Y-40306559D01*
X218486433Y-40533340D01*
X218636405Y-40465273D01*
X218727610Y-40425605D01*
X218825509Y-40385711D01*
X218909671Y-40353903D01*
X218913378Y-40352594D01*
X218979209Y-40328496D01*
X219029956Y-40308120D01*
X219054682Y-40295856D01*
X219054724Y-40295821D01*
X219062569Y-40273654D01*
X219075906Y-40219137D01*
X219093410Y-40138400D01*
X219113757Y-40037570D01*
X219135622Y-39922776D01*
X219137411Y-39913098D01*
X219159344Y-39794824D01*
X219179480Y-39687462D01*
X219196520Y-39597837D01*
X219209168Y-39532771D01*
X219216124Y-39499088D01*
X219216246Y-39498574D01*
X219220479Y-39484245D01*
X219228711Y-39473427D01*
X219245873Y-39465626D01*
X219276898Y-39460349D01*
X219326718Y-39457102D01*
X219400264Y-39455392D01*
X219502469Y-39454727D01*
X219638265Y-39454613D01*
X219655840Y-39454612D01*
X219795718Y-39454696D01*
G04 #@! TO.C,U1*
D13*
X123840306Y-27145186D02*
X123840306Y-27711853D01*
X123873640Y-27778520D01*
X123906973Y-27811853D01*
X123973640Y-27845186D01*
X124106973Y-27845186D01*
X124173640Y-27811853D01*
X124206973Y-27778520D01*
X124240306Y-27711853D01*
X124240306Y-27145186D01*
X124940306Y-27845186D02*
X124540306Y-27845186D01*
X124740306Y-27845186D02*
X124740306Y-27145186D01*
X124673640Y-27245186D01*
X124606973Y-27311853D01*
X124540306Y-27345186D01*
G04 #@! TO.C,P8*
X98154713Y-44093566D02*
X98154713Y-43393566D01*
X98421380Y-43393566D01*
X98488046Y-43426900D01*
X98521380Y-43460233D01*
X98554713Y-43526900D01*
X98554713Y-43626900D01*
X98521380Y-43693566D01*
X98488046Y-43726900D01*
X98421380Y-43760233D01*
X98154713Y-43760233D01*
X98954713Y-43693566D02*
X98888046Y-43660233D01*
X98854713Y-43626900D01*
X98821380Y-43560233D01*
X98821380Y-43526900D01*
X98854713Y-43460233D01*
X98888046Y-43426900D01*
X98954713Y-43393566D01*
X99088046Y-43393566D01*
X99154713Y-43426900D01*
X99188046Y-43460233D01*
X99221380Y-43526900D01*
X99221380Y-43560233D01*
X99188046Y-43626900D01*
X99154713Y-43660233D01*
X99088046Y-43693566D01*
X98954713Y-43693566D01*
X98888046Y-43726900D01*
X98854713Y-43760233D01*
X98821380Y-43826900D01*
X98821380Y-43960233D01*
X98854713Y-44026900D01*
X98888046Y-44060233D01*
X98954713Y-44093566D01*
X99088046Y-44093566D01*
X99154713Y-44060233D01*
X99188046Y-44026900D01*
X99221380Y-43960233D01*
X99221380Y-43826900D01*
X99188046Y-43760233D01*
X99154713Y-43726900D01*
X99088046Y-43693566D01*
G04 #@! TO.C,C9*
X135164640Y-13578666D02*
X135197973Y-13612000D01*
X135231306Y-13712000D01*
X135231306Y-13778666D01*
X135197973Y-13878666D01*
X135131306Y-13945333D01*
X135064640Y-13978666D01*
X134931306Y-14012000D01*
X134831306Y-14012000D01*
X134697973Y-13978666D01*
X134631306Y-13945333D01*
X134564640Y-13878666D01*
X134531306Y-13778666D01*
X134531306Y-13712000D01*
X134564640Y-13612000D01*
X134597973Y-13578666D01*
X135231306Y-13245333D02*
X135231306Y-13112000D01*
X135197973Y-13045333D01*
X135164640Y-13012000D01*
X135064640Y-12945333D01*
X134931306Y-12912000D01*
X134664640Y-12912000D01*
X134597973Y-12945333D01*
X134564640Y-12978666D01*
X134531306Y-13045333D01*
X134531306Y-13178666D01*
X134564640Y-13245333D01*
X134597973Y-13278666D01*
X134664640Y-13312000D01*
X134831306Y-13312000D01*
X134897973Y-13278666D01*
X134931306Y-13245333D01*
X134964640Y-13178666D01*
X134964640Y-13045333D01*
X134931306Y-12978666D01*
X134897973Y-12945333D01*
X134831306Y-12912000D01*
G04 #@! TO.C,DS1*
X10226940Y-30067686D02*
X10226940Y-29367686D01*
X10393606Y-29367686D01*
X10493606Y-29401020D01*
X10560273Y-29467686D01*
X10593606Y-29534353D01*
X10626940Y-29667686D01*
X10626940Y-29767686D01*
X10593606Y-29901020D01*
X10560273Y-29967686D01*
X10493606Y-30034353D01*
X10393606Y-30067686D01*
X10226940Y-30067686D01*
X10893606Y-30034353D02*
X10993606Y-30067686D01*
X11160273Y-30067686D01*
X11226940Y-30034353D01*
X11260273Y-30001020D01*
X11293606Y-29934353D01*
X11293606Y-29867686D01*
X11260273Y-29801020D01*
X11226940Y-29767686D01*
X11160273Y-29734353D01*
X11026940Y-29701020D01*
X10960273Y-29667686D01*
X10926940Y-29634353D01*
X10893606Y-29567686D01*
X10893606Y-29501020D01*
X10926940Y-29434353D01*
X10960273Y-29401020D01*
X11026940Y-29367686D01*
X11193606Y-29367686D01*
X11293606Y-29401020D01*
X11960273Y-30067686D02*
X11560273Y-30067686D01*
X11760273Y-30067686D02*
X11760273Y-29367686D01*
X11693606Y-29467686D01*
X11626940Y-29534353D01*
X11560273Y-29567686D01*
G04 #@! TO.C,C10*
X174352500Y-49777460D02*
X174319166Y-49810793D01*
X174219166Y-49844126D01*
X174152500Y-49844126D01*
X174052500Y-49810793D01*
X173985833Y-49744126D01*
X173952500Y-49677460D01*
X173919166Y-49544126D01*
X173919166Y-49444126D01*
X173952500Y-49310793D01*
X173985833Y-49244126D01*
X174052500Y-49177460D01*
X174152500Y-49144126D01*
X174219166Y-49144126D01*
X174319166Y-49177460D01*
X174352500Y-49210793D01*
X175019166Y-49844126D02*
X174619166Y-49844126D01*
X174819166Y-49844126D02*
X174819166Y-49144126D01*
X174752500Y-49244126D01*
X174685833Y-49310793D01*
X174619166Y-49344126D01*
X175452500Y-49144126D02*
X175519166Y-49144126D01*
X175585833Y-49177460D01*
X175619166Y-49210793D01*
X175652500Y-49277460D01*
X175685833Y-49410793D01*
X175685833Y-49577460D01*
X175652500Y-49710793D01*
X175619166Y-49777460D01*
X175585833Y-49810793D01*
X175519166Y-49844126D01*
X175452500Y-49844126D01*
X175385833Y-49810793D01*
X175352500Y-49777460D01*
X175319166Y-49710793D01*
X175285833Y-49577460D01*
X175285833Y-49410793D01*
X175319166Y-49277460D01*
X175352500Y-49210793D01*
X175385833Y-49177460D01*
X175452500Y-49144126D01*
G04 #@! TO.C,U3*
X111902306Y-25539906D02*
X111902306Y-26106573D01*
X111935640Y-26173240D01*
X111968973Y-26206573D01*
X112035640Y-26239906D01*
X112168973Y-26239906D01*
X112235640Y-26206573D01*
X112268973Y-26173240D01*
X112302306Y-26106573D01*
X112302306Y-25539906D01*
X112568973Y-25539906D02*
X113002306Y-25539906D01*
X112768973Y-25806573D01*
X112868973Y-25806573D01*
X112935640Y-25839906D01*
X112968973Y-25873240D01*
X113002306Y-25939906D01*
X113002306Y-26106573D01*
X112968973Y-26173240D01*
X112935640Y-26206573D01*
X112868973Y-26239906D01*
X112668973Y-26239906D01*
X112602306Y-26206573D01*
X112568973Y-26173240D01*
G04 #@! TO.C,Q2*
X96217533Y-34661466D02*
X96184200Y-34728133D01*
X96117533Y-34794800D01*
X96017533Y-34894800D01*
X95984200Y-34961466D01*
X95984200Y-35028133D01*
X96150866Y-34994800D02*
X96117533Y-35061466D01*
X96050866Y-35128133D01*
X95917533Y-35161466D01*
X95684200Y-35161466D01*
X95550866Y-35128133D01*
X95484200Y-35061466D01*
X95450866Y-34994800D01*
X95450866Y-34861466D01*
X95484200Y-34794800D01*
X95550866Y-34728133D01*
X95684200Y-34694800D01*
X95917533Y-34694800D01*
X96050866Y-34728133D01*
X96117533Y-34794800D01*
X96150866Y-34861466D01*
X96150866Y-34994800D01*
X95517533Y-34428133D02*
X95484200Y-34394800D01*
X95450866Y-34328133D01*
X95450866Y-34161466D01*
X95484200Y-34094800D01*
X95517533Y-34061466D01*
X95584200Y-34028133D01*
X95650866Y-34028133D01*
X95750866Y-34061466D01*
X96150866Y-34461466D01*
X96150866Y-34028133D01*
G04 #@! TO.C,C8*
X137209173Y-47276920D02*
X137175840Y-47310253D01*
X137075840Y-47343586D01*
X137009173Y-47343586D01*
X136909173Y-47310253D01*
X136842506Y-47243586D01*
X136809173Y-47176920D01*
X136775840Y-47043586D01*
X136775840Y-46943586D01*
X136809173Y-46810253D01*
X136842506Y-46743586D01*
X136909173Y-46676920D01*
X137009173Y-46643586D01*
X137075840Y-46643586D01*
X137175840Y-46676920D01*
X137209173Y-46710253D01*
X137609173Y-46943586D02*
X137542506Y-46910253D01*
X137509173Y-46876920D01*
X137475840Y-46810253D01*
X137475840Y-46776920D01*
X137509173Y-46710253D01*
X137542506Y-46676920D01*
X137609173Y-46643586D01*
X137742506Y-46643586D01*
X137809173Y-46676920D01*
X137842506Y-46710253D01*
X137875840Y-46776920D01*
X137875840Y-46810253D01*
X137842506Y-46876920D01*
X137809173Y-46910253D01*
X137742506Y-46943586D01*
X137609173Y-46943586D01*
X137542506Y-46976920D01*
X137509173Y-47010253D01*
X137475840Y-47076920D01*
X137475840Y-47210253D01*
X137509173Y-47276920D01*
X137542506Y-47310253D01*
X137609173Y-47343586D01*
X137742506Y-47343586D01*
X137809173Y-47310253D01*
X137842506Y-47276920D01*
X137875840Y-47210253D01*
X137875840Y-47076920D01*
X137842506Y-47010253D01*
X137809173Y-46976920D01*
X137742506Y-46943586D01*
G04 #@! TO.C,C7*
X149089173Y-43306920D02*
X149055840Y-43340253D01*
X148955840Y-43373586D01*
X148889173Y-43373586D01*
X148789173Y-43340253D01*
X148722506Y-43273586D01*
X148689173Y-43206920D01*
X148655840Y-43073586D01*
X148655840Y-42973586D01*
X148689173Y-42840253D01*
X148722506Y-42773586D01*
X148789173Y-42706920D01*
X148889173Y-42673586D01*
X148955840Y-42673586D01*
X149055840Y-42706920D01*
X149089173Y-42740253D01*
X149322506Y-42673586D02*
X149789173Y-42673586D01*
X149489173Y-43373586D01*
G04 #@! TO.C,C12*
X182255840Y-46133420D02*
X182289173Y-46166753D01*
X182322506Y-46266753D01*
X182322506Y-46333420D01*
X182289173Y-46433420D01*
X182222506Y-46500086D01*
X182155840Y-46533420D01*
X182022506Y-46566753D01*
X181922506Y-46566753D01*
X181789173Y-46533420D01*
X181722506Y-46500086D01*
X181655840Y-46433420D01*
X181622506Y-46333420D01*
X181622506Y-46266753D01*
X181655840Y-46166753D01*
X181689173Y-46133420D01*
X182322506Y-45466753D02*
X182322506Y-45866753D01*
X182322506Y-45666753D02*
X181622506Y-45666753D01*
X181722506Y-45733420D01*
X181789173Y-45800086D01*
X181822506Y-45866753D01*
X181689173Y-45200086D02*
X181655840Y-45166753D01*
X181622506Y-45100086D01*
X181622506Y-44933420D01*
X181655840Y-44866753D01*
X181689173Y-44833420D01*
X181755840Y-44800086D01*
X181822506Y-44800086D01*
X181922506Y-44833420D01*
X182322506Y-45233420D01*
X182322506Y-44800086D01*
G04 #@! TO.C,C4*
X114199480Y-18501186D02*
X114232813Y-18534520D01*
X114266146Y-18634520D01*
X114266146Y-18701186D01*
X114232813Y-18801186D01*
X114166146Y-18867853D01*
X114099480Y-18901186D01*
X113966146Y-18934520D01*
X113866146Y-18934520D01*
X113732813Y-18901186D01*
X113666146Y-18867853D01*
X113599480Y-18801186D01*
X113566146Y-18701186D01*
X113566146Y-18634520D01*
X113599480Y-18534520D01*
X113632813Y-18501186D01*
X113799480Y-17901186D02*
X114266146Y-17901186D01*
X113532813Y-18067853D02*
X114032813Y-18234520D01*
X114032813Y-17801186D01*
G04 #@! TO.C,C6*
X102027800Y-18501186D02*
X102061133Y-18534520D01*
X102094466Y-18634520D01*
X102094466Y-18701186D01*
X102061133Y-18801186D01*
X101994466Y-18867853D01*
X101927800Y-18901186D01*
X101794466Y-18934520D01*
X101694466Y-18934520D01*
X101561133Y-18901186D01*
X101494466Y-18867853D01*
X101427800Y-18801186D01*
X101394466Y-18701186D01*
X101394466Y-18634520D01*
X101427800Y-18534520D01*
X101461133Y-18501186D01*
X101394466Y-17901186D02*
X101394466Y-18034520D01*
X101427800Y-18101186D01*
X101461133Y-18134520D01*
X101561133Y-18201186D01*
X101694466Y-18234520D01*
X101961133Y-18234520D01*
X102027800Y-18201186D01*
X102061133Y-18167853D01*
X102094466Y-18101186D01*
X102094466Y-17967853D01*
X102061133Y-17901186D01*
X102027800Y-17867853D01*
X101961133Y-17834520D01*
X101794466Y-17834520D01*
X101727800Y-17867853D01*
X101694466Y-17901186D01*
X101661133Y-17967853D01*
X101661133Y-18101186D01*
X101694466Y-18167853D01*
X101727800Y-18201186D01*
X101794466Y-18234520D01*
G04 #@! TO.C,C1*
X660573Y-8017320D02*
X627240Y-8050653D01*
X527240Y-8083986D01*
X460573Y-8083986D01*
X360573Y-8050653D01*
X293906Y-7983986D01*
X260573Y-7917320D01*
X227240Y-7783986D01*
X227240Y-7683986D01*
X260573Y-7550653D01*
X293906Y-7483986D01*
X360573Y-7417320D01*
X460573Y-7383986D01*
X527240Y-7383986D01*
X627240Y-7417320D01*
X660573Y-7450653D01*
X1327240Y-8083986D02*
X927240Y-8083986D01*
X1127240Y-8083986D02*
X1127240Y-7383986D01*
X1060573Y-7483986D01*
X993906Y-7550653D01*
X927240Y-7583986D01*
G04 #@! TO.C,C2*
X2552873Y-8106220D02*
X2519540Y-8139553D01*
X2419540Y-8172886D01*
X2352873Y-8172886D01*
X2252873Y-8139553D01*
X2186206Y-8072886D01*
X2152873Y-8006220D01*
X2119540Y-7872886D01*
X2119540Y-7772886D01*
X2152873Y-7639553D01*
X2186206Y-7572886D01*
X2252873Y-7506220D01*
X2352873Y-7472886D01*
X2419540Y-7472886D01*
X2519540Y-7506220D01*
X2552873Y-7539553D01*
X2819540Y-7539553D02*
X2852873Y-7506220D01*
X2919540Y-7472886D01*
X3086206Y-7472886D01*
X3152873Y-7506220D01*
X3186206Y-7539553D01*
X3219540Y-7606220D01*
X3219540Y-7672886D01*
X3186206Y-7772886D01*
X2786206Y-8172886D01*
X3219540Y-8172886D01*
G04 #@! TO.C,C15*
X152055640Y-19088520D02*
X152088973Y-19121853D01*
X152122306Y-19221853D01*
X152122306Y-19288520D01*
X152088973Y-19388520D01*
X152022306Y-19455186D01*
X151955640Y-19488520D01*
X151822306Y-19521853D01*
X151722306Y-19521853D01*
X151588973Y-19488520D01*
X151522306Y-19455186D01*
X151455640Y-19388520D01*
X151422306Y-19288520D01*
X151422306Y-19221853D01*
X151455640Y-19121853D01*
X151488973Y-19088520D01*
X152122306Y-18421853D02*
X152122306Y-18821853D01*
X152122306Y-18621853D02*
X151422306Y-18621853D01*
X151522306Y-18688520D01*
X151588973Y-18755186D01*
X151622306Y-18821853D01*
X151422306Y-17788520D02*
X151422306Y-18121853D01*
X151755640Y-18155186D01*
X151722306Y-18121853D01*
X151688973Y-18055186D01*
X151688973Y-17888520D01*
X151722306Y-17821853D01*
X151755640Y-17788520D01*
X151822306Y-17755186D01*
X151988973Y-17755186D01*
X152055640Y-17788520D01*
X152088973Y-17821853D01*
X152122306Y-17888520D01*
X152122306Y-18055186D01*
X152088973Y-18121853D01*
X152055640Y-18155186D01*
G04 #@! TO.C,C16*
X154619540Y-21403120D02*
X154586206Y-21436453D01*
X154486206Y-21469786D01*
X154419540Y-21469786D01*
X154319540Y-21436453D01*
X154252873Y-21369786D01*
X154219540Y-21303120D01*
X154186206Y-21169786D01*
X154186206Y-21069786D01*
X154219540Y-20936453D01*
X154252873Y-20869786D01*
X154319540Y-20803120D01*
X154419540Y-20769786D01*
X154486206Y-20769786D01*
X154586206Y-20803120D01*
X154619540Y-20836453D01*
X155286206Y-21469786D02*
X154886206Y-21469786D01*
X155086206Y-21469786D02*
X155086206Y-20769786D01*
X155019540Y-20869786D01*
X154952873Y-20936453D01*
X154886206Y-20969786D01*
X155886206Y-20769786D02*
X155752873Y-20769786D01*
X155686206Y-20803120D01*
X155652873Y-20836453D01*
X155586206Y-20936453D01*
X155552873Y-21069786D01*
X155552873Y-21336453D01*
X155586206Y-21403120D01*
X155619540Y-21436453D01*
X155686206Y-21469786D01*
X155819540Y-21469786D01*
X155886206Y-21436453D01*
X155919540Y-21403120D01*
X155952873Y-21336453D01*
X155952873Y-21169786D01*
X155919540Y-21103120D01*
X155886206Y-21069786D01*
X155819540Y-21036453D01*
X155686206Y-21036453D01*
X155619540Y-21069786D01*
X155586206Y-21103120D01*
X155552873Y-21169786D01*
G04 #@! TO.C,D1*
X149152506Y-41593586D02*
X148452506Y-41593586D01*
X148452506Y-41426920D01*
X148485840Y-41326920D01*
X148552506Y-41260253D01*
X148619173Y-41226920D01*
X148752506Y-41193586D01*
X148852506Y-41193586D01*
X148985840Y-41226920D01*
X149052506Y-41260253D01*
X149119173Y-41326920D01*
X149152506Y-41426920D01*
X149152506Y-41593586D01*
X149152506Y-40526920D02*
X149152506Y-40926920D01*
X149152506Y-40726920D02*
X148452506Y-40726920D01*
X148552506Y-40793586D01*
X148619173Y-40860253D01*
X148652506Y-40926920D01*
D11*
X144108455Y-46651460D02*
X144108455Y-45651460D01*
X144679883Y-46651460D02*
X144251312Y-46080032D01*
X144679883Y-45651460D02*
X144108455Y-46222889D01*
X144025584Y-39934466D02*
X144501775Y-39934466D01*
X143930346Y-40220180D02*
X144263680Y-39220180D01*
X144597013Y-40220180D01*
G04 #@! TO.C,D3*
D13*
X142122506Y-50053586D02*
X141422506Y-50053586D01*
X141422506Y-49886920D01*
X141455840Y-49786920D01*
X141522506Y-49720253D01*
X141589173Y-49686920D01*
X141722506Y-49653586D01*
X141822506Y-49653586D01*
X141955840Y-49686920D01*
X142022506Y-49720253D01*
X142089173Y-49786920D01*
X142122506Y-49886920D01*
X142122506Y-50053586D01*
X141422506Y-49420253D02*
X141422506Y-48986920D01*
X141689173Y-49220253D01*
X141689173Y-49120253D01*
X141722506Y-49053586D01*
X141755840Y-49020253D01*
X141822506Y-48986920D01*
X141989173Y-48986920D01*
X142055840Y-49020253D01*
X142089173Y-49053586D01*
X142122506Y-49120253D01*
X142122506Y-49320253D01*
X142089173Y-49386920D01*
X142055840Y-49420253D01*
G04 #@! TO.C,D5*
X5391373Y-34515386D02*
X5391373Y-33815386D01*
X5558040Y-33815386D01*
X5658040Y-33848720D01*
X5724706Y-33915386D01*
X5758040Y-33982053D01*
X5791373Y-34115386D01*
X5791373Y-34215386D01*
X5758040Y-34348720D01*
X5724706Y-34415386D01*
X5658040Y-34482053D01*
X5558040Y-34515386D01*
X5391373Y-34515386D01*
X6424706Y-33815386D02*
X6091373Y-33815386D01*
X6058040Y-34148720D01*
X6091373Y-34115386D01*
X6158040Y-34082053D01*
X6324706Y-34082053D01*
X6391373Y-34115386D01*
X6424706Y-34148720D01*
X6458040Y-34215386D01*
X6458040Y-34382053D01*
X6424706Y-34448720D01*
X6391373Y-34482053D01*
X6324706Y-34515386D01*
X6158040Y-34515386D01*
X6091373Y-34482053D01*
X6058040Y-34448720D01*
G04 #@! TO.C,D6*
X81438973Y-34515386D02*
X81438973Y-33815386D01*
X81605640Y-33815386D01*
X81705640Y-33848720D01*
X81772306Y-33915386D01*
X81805640Y-33982053D01*
X81838973Y-34115386D01*
X81838973Y-34215386D01*
X81805640Y-34348720D01*
X81772306Y-34415386D01*
X81705640Y-34482053D01*
X81605640Y-34515386D01*
X81438973Y-34515386D01*
X82438973Y-33815386D02*
X82305640Y-33815386D01*
X82238973Y-33848720D01*
X82205640Y-33882053D01*
X82138973Y-33982053D01*
X82105640Y-34115386D01*
X82105640Y-34382053D01*
X82138973Y-34448720D01*
X82172306Y-34482053D01*
X82238973Y-34515386D01*
X82372306Y-34515386D01*
X82438973Y-34482053D01*
X82472306Y-34448720D01*
X82505640Y-34382053D01*
X82505640Y-34215386D01*
X82472306Y-34148720D01*
X82438973Y-34115386D01*
X82372306Y-34082053D01*
X82238973Y-34082053D01*
X82172306Y-34115386D01*
X82138973Y-34148720D01*
X82105640Y-34215386D01*
G04 #@! TO.C,D7*
X157791373Y-34515386D02*
X157791373Y-33815386D01*
X157958040Y-33815386D01*
X158058040Y-33848720D01*
X158124706Y-33915386D01*
X158158040Y-33982053D01*
X158191373Y-34115386D01*
X158191373Y-34215386D01*
X158158040Y-34348720D01*
X158124706Y-34415386D01*
X158058040Y-34482053D01*
X157958040Y-34515386D01*
X157791373Y-34515386D01*
X158424706Y-33815386D02*
X158891373Y-33815386D01*
X158591373Y-34515386D01*
G04 #@! TO.C,D8*
X233991373Y-34515386D02*
X233991373Y-33815386D01*
X234158040Y-33815386D01*
X234258040Y-33848720D01*
X234324706Y-33915386D01*
X234358040Y-33982053D01*
X234391373Y-34115386D01*
X234391373Y-34215386D01*
X234358040Y-34348720D01*
X234324706Y-34415386D01*
X234258040Y-34482053D01*
X234158040Y-34515386D01*
X233991373Y-34515386D01*
X234791373Y-34115386D02*
X234724706Y-34082053D01*
X234691373Y-34048720D01*
X234658040Y-33982053D01*
X234658040Y-33948720D01*
X234691373Y-33882053D01*
X234724706Y-33848720D01*
X234791373Y-33815386D01*
X234924706Y-33815386D01*
X234991373Y-33848720D01*
X235024706Y-33882053D01*
X235058040Y-33948720D01*
X235058040Y-33982053D01*
X235024706Y-34048720D01*
X234991373Y-34082053D01*
X234924706Y-34115386D01*
X234791373Y-34115386D01*
X234724706Y-34148720D01*
X234691373Y-34182053D01*
X234658040Y-34248720D01*
X234658040Y-34382053D01*
X234691373Y-34448720D01*
X234724706Y-34482053D01*
X234791373Y-34515386D01*
X234924706Y-34515386D01*
X234991373Y-34482053D01*
X235024706Y-34448720D01*
X235058040Y-34382053D01*
X235058040Y-34248720D01*
X235024706Y-34182053D01*
X234991373Y-34148720D01*
X234924706Y-34115386D01*
G04 #@! TO.C,P9*
X87679226Y-42613266D02*
X86979226Y-42613266D01*
X86979226Y-42346600D01*
X87012560Y-42279933D01*
X87045893Y-42246600D01*
X87112560Y-42213266D01*
X87212560Y-42213266D01*
X87279226Y-42246600D01*
X87312560Y-42279933D01*
X87345893Y-42346600D01*
X87345893Y-42613266D01*
X87679226Y-41879933D02*
X87679226Y-41746600D01*
X87645893Y-41679933D01*
X87612560Y-41646600D01*
X87512560Y-41579933D01*
X87379226Y-41546600D01*
X87112560Y-41546600D01*
X87045893Y-41579933D01*
X87012560Y-41613266D01*
X86979226Y-41679933D01*
X86979226Y-41813266D01*
X87012560Y-41879933D01*
X87045893Y-41913266D01*
X87112560Y-41946600D01*
X87279226Y-41946600D01*
X87345893Y-41913266D01*
X87379226Y-41879933D01*
X87412560Y-41813266D01*
X87412560Y-41679933D01*
X87379226Y-41613266D01*
X87345893Y-41579933D01*
X87279226Y-41546600D01*
G04 #@! TO.C,Q1*
X140209173Y-41340253D02*
X140142506Y-41306920D01*
X140075840Y-41240253D01*
X139975840Y-41140253D01*
X139909173Y-41106920D01*
X139842506Y-41106920D01*
X139875840Y-41273586D02*
X139809173Y-41240253D01*
X139742506Y-41173586D01*
X139709173Y-41040253D01*
X139709173Y-40806920D01*
X139742506Y-40673586D01*
X139809173Y-40606920D01*
X139875840Y-40573586D01*
X140009173Y-40573586D01*
X140075840Y-40606920D01*
X140142506Y-40673586D01*
X140175840Y-40806920D01*
X140175840Y-41040253D01*
X140142506Y-41173586D01*
X140075840Y-41240253D01*
X140009173Y-41273586D01*
X139875840Y-41273586D01*
X140842506Y-41273586D02*
X140442506Y-41273586D01*
X140642506Y-41273586D02*
X140642506Y-40573586D01*
X140575840Y-40673586D01*
X140509173Y-40740253D01*
X140442506Y-40773586D01*
G04 #@! TO.C,Q5*
X133096473Y-46121053D02*
X133029806Y-46087720D01*
X132963140Y-46021053D01*
X132863140Y-45921053D01*
X132796473Y-45887720D01*
X132729806Y-45887720D01*
X132763140Y-46054386D02*
X132696473Y-46021053D01*
X132629806Y-45954386D01*
X132596473Y-45821053D01*
X132596473Y-45587720D01*
X132629806Y-45454386D01*
X132696473Y-45387720D01*
X132763140Y-45354386D01*
X132896473Y-45354386D01*
X132963140Y-45387720D01*
X133029806Y-45454386D01*
X133063140Y-45587720D01*
X133063140Y-45821053D01*
X133029806Y-45954386D01*
X132963140Y-46021053D01*
X132896473Y-46054386D01*
X132763140Y-46054386D01*
X133696473Y-45354386D02*
X133363140Y-45354386D01*
X133329806Y-45687720D01*
X133363140Y-45654386D01*
X133429806Y-45621053D01*
X133596473Y-45621053D01*
X133663140Y-45654386D01*
X133696473Y-45687720D01*
X133729806Y-45754386D01*
X133729806Y-45921053D01*
X133696473Y-45987720D01*
X133663140Y-46021053D01*
X133596473Y-46054386D01*
X133429806Y-46054386D01*
X133363140Y-46021053D01*
X133329806Y-45987720D01*
G04 #@! TO.C,Q7*
X51448873Y-32052153D02*
X51382206Y-32018820D01*
X51315540Y-31952153D01*
X51215540Y-31852153D01*
X51148873Y-31818820D01*
X51082206Y-31818820D01*
X51115540Y-31985486D02*
X51048873Y-31952153D01*
X50982206Y-31885486D01*
X50948873Y-31752153D01*
X50948873Y-31518820D01*
X50982206Y-31385486D01*
X51048873Y-31318820D01*
X51115540Y-31285486D01*
X51248873Y-31285486D01*
X51315540Y-31318820D01*
X51382206Y-31385486D01*
X51415540Y-31518820D01*
X51415540Y-31752153D01*
X51382206Y-31885486D01*
X51315540Y-31952153D01*
X51248873Y-31985486D01*
X51115540Y-31985486D01*
X51648873Y-31285486D02*
X52115540Y-31285486D01*
X51815540Y-31985486D01*
G04 #@! TO.C,Q8*
X201019473Y-32115653D02*
X200952806Y-32082320D01*
X200886140Y-32015653D01*
X200786140Y-31915653D01*
X200719473Y-31882320D01*
X200652806Y-31882320D01*
X200686140Y-32048986D02*
X200619473Y-32015653D01*
X200552806Y-31948986D01*
X200519473Y-31815653D01*
X200519473Y-31582320D01*
X200552806Y-31448986D01*
X200619473Y-31382320D01*
X200686140Y-31348986D01*
X200819473Y-31348986D01*
X200886140Y-31382320D01*
X200952806Y-31448986D01*
X200986140Y-31582320D01*
X200986140Y-31815653D01*
X200952806Y-31948986D01*
X200886140Y-32015653D01*
X200819473Y-32048986D01*
X200686140Y-32048986D01*
X201386140Y-31648986D02*
X201319473Y-31615653D01*
X201286140Y-31582320D01*
X201252806Y-31515653D01*
X201252806Y-31482320D01*
X201286140Y-31415653D01*
X201319473Y-31382320D01*
X201386140Y-31348986D01*
X201519473Y-31348986D01*
X201586140Y-31382320D01*
X201619473Y-31415653D01*
X201652806Y-31482320D01*
X201652806Y-31515653D01*
X201619473Y-31582320D01*
X201586140Y-31615653D01*
X201519473Y-31648986D01*
X201386140Y-31648986D01*
X201319473Y-31682320D01*
X201286140Y-31715653D01*
X201252806Y-31782320D01*
X201252806Y-31915653D01*
X201286140Y-31982320D01*
X201319473Y-32015653D01*
X201386140Y-32048986D01*
X201519473Y-32048986D01*
X201586140Y-32015653D01*
X201619473Y-31982320D01*
X201652806Y-31915653D01*
X201652806Y-31782320D01*
X201619473Y-31715653D01*
X201586140Y-31682320D01*
X201519473Y-31648986D01*
G04 #@! TO.C,R3*
X142869173Y-41263586D02*
X142635840Y-40930253D01*
X142469173Y-41263586D02*
X142469173Y-40563586D01*
X142735840Y-40563586D01*
X142802506Y-40596920D01*
X142835840Y-40630253D01*
X142869173Y-40696920D01*
X142869173Y-40796920D01*
X142835840Y-40863586D01*
X142802506Y-40896920D01*
X142735840Y-40930253D01*
X142469173Y-40930253D01*
X143102506Y-40563586D02*
X143535840Y-40563586D01*
X143302506Y-40830253D01*
X143402506Y-40830253D01*
X143469173Y-40863586D01*
X143502506Y-40896920D01*
X143535840Y-40963586D01*
X143535840Y-41130253D01*
X143502506Y-41196920D01*
X143469173Y-41230253D01*
X143402506Y-41263586D01*
X143202506Y-41263586D01*
X143135840Y-41230253D01*
X143102506Y-41196920D01*
G04 #@! TO.C,R4*
X142869173Y-47733586D02*
X142635840Y-47400253D01*
X142469173Y-47733586D02*
X142469173Y-47033586D01*
X142735840Y-47033586D01*
X142802506Y-47066920D01*
X142835840Y-47100253D01*
X142869173Y-47166920D01*
X142869173Y-47266920D01*
X142835840Y-47333586D01*
X142802506Y-47366920D01*
X142735840Y-47400253D01*
X142469173Y-47400253D01*
X143469173Y-47266920D02*
X143469173Y-47733586D01*
X143302506Y-47000253D02*
X143135840Y-47500253D01*
X143569173Y-47500253D01*
G04 #@! TO.C,R8*
X136302506Y-41983586D02*
X135969173Y-42216920D01*
X136302506Y-42383586D02*
X135602506Y-42383586D01*
X135602506Y-42116920D01*
X135635840Y-42050253D01*
X135669173Y-42016920D01*
X135735840Y-41983586D01*
X135835840Y-41983586D01*
X135902506Y-42016920D01*
X135935840Y-42050253D01*
X135969173Y-42116920D01*
X135969173Y-42383586D01*
X135902506Y-41583586D02*
X135869173Y-41650253D01*
X135835840Y-41683586D01*
X135769173Y-41716920D01*
X135735840Y-41716920D01*
X135669173Y-41683586D01*
X135635840Y-41650253D01*
X135602506Y-41583586D01*
X135602506Y-41450253D01*
X135635840Y-41383586D01*
X135669173Y-41350253D01*
X135735840Y-41316920D01*
X135769173Y-41316920D01*
X135835840Y-41350253D01*
X135869173Y-41383586D01*
X135902506Y-41450253D01*
X135902506Y-41583586D01*
X135935840Y-41650253D01*
X135969173Y-41683586D01*
X136035840Y-41716920D01*
X136169173Y-41716920D01*
X136235840Y-41683586D01*
X136269173Y-41650253D01*
X136302506Y-41583586D01*
X136302506Y-41450253D01*
X136269173Y-41383586D01*
X136235840Y-41350253D01*
X136169173Y-41316920D01*
X136035840Y-41316920D01*
X135969173Y-41350253D01*
X135935840Y-41383586D01*
X135902506Y-41450253D01*
G04 #@! TO.C,R17*
X119682506Y-24246920D02*
X119349173Y-24480253D01*
X119682506Y-24646920D02*
X118982506Y-24646920D01*
X118982506Y-24380253D01*
X119015840Y-24313586D01*
X119049173Y-24280253D01*
X119115840Y-24246920D01*
X119215840Y-24246920D01*
X119282506Y-24280253D01*
X119315840Y-24313586D01*
X119349173Y-24380253D01*
X119349173Y-24646920D01*
X119682506Y-23580253D02*
X119682506Y-23980253D01*
X119682506Y-23780253D02*
X118982506Y-23780253D01*
X119082506Y-23846920D01*
X119149173Y-23913586D01*
X119182506Y-23980253D01*
X118982506Y-23346920D02*
X118982506Y-22880253D01*
X119682506Y-23180253D01*
G04 #@! TO.C,R1*
X33642506Y-39703586D02*
X33309173Y-39936920D01*
X33642506Y-40103586D02*
X32942506Y-40103586D01*
X32942506Y-39836920D01*
X32975840Y-39770253D01*
X33009173Y-39736920D01*
X33075840Y-39703586D01*
X33175840Y-39703586D01*
X33242506Y-39736920D01*
X33275840Y-39770253D01*
X33309173Y-39836920D01*
X33309173Y-40103586D01*
X33642506Y-39036920D02*
X33642506Y-39436920D01*
X33642506Y-39236920D02*
X32942506Y-39236920D01*
X33042506Y-39303586D01*
X33109173Y-39370253D01*
X33142506Y-39436920D01*
G04 #@! TO.C,R2*
X186032506Y-39873586D02*
X185699173Y-40106920D01*
X186032506Y-40273586D02*
X185332506Y-40273586D01*
X185332506Y-40006920D01*
X185365840Y-39940253D01*
X185399173Y-39906920D01*
X185465840Y-39873586D01*
X185565840Y-39873586D01*
X185632506Y-39906920D01*
X185665840Y-39940253D01*
X185699173Y-40006920D01*
X185699173Y-40273586D01*
X185399173Y-39606920D02*
X185365840Y-39573586D01*
X185332506Y-39506920D01*
X185332506Y-39340253D01*
X185365840Y-39273586D01*
X185399173Y-39240253D01*
X185465840Y-39206920D01*
X185532506Y-39206920D01*
X185632506Y-39240253D01*
X186032506Y-39640253D01*
X186032506Y-39206920D01*
G04 #@! TO.C,R11*
X42602506Y-39736920D02*
X42269173Y-39970253D01*
X42602506Y-40136920D02*
X41902506Y-40136920D01*
X41902506Y-39870253D01*
X41935840Y-39803586D01*
X41969173Y-39770253D01*
X42035840Y-39736920D01*
X42135840Y-39736920D01*
X42202506Y-39770253D01*
X42235840Y-39803586D01*
X42269173Y-39870253D01*
X42269173Y-40136920D01*
X42602506Y-39070253D02*
X42602506Y-39470253D01*
X42602506Y-39270253D02*
X41902506Y-39270253D01*
X42002506Y-39336920D01*
X42069173Y-39403586D01*
X42102506Y-39470253D01*
X42602506Y-38403586D02*
X42602506Y-38803586D01*
X42602506Y-38603586D02*
X41902506Y-38603586D01*
X42002506Y-38670253D01*
X42069173Y-38736920D01*
X42102506Y-38803586D01*
G04 #@! TO.C,R12*
X195022506Y-39786920D02*
X194689173Y-40020253D01*
X195022506Y-40186920D02*
X194322506Y-40186920D01*
X194322506Y-39920253D01*
X194355840Y-39853586D01*
X194389173Y-39820253D01*
X194455840Y-39786920D01*
X194555840Y-39786920D01*
X194622506Y-39820253D01*
X194655840Y-39853586D01*
X194689173Y-39920253D01*
X194689173Y-40186920D01*
X195022506Y-39120253D02*
X195022506Y-39520253D01*
X195022506Y-39320253D02*
X194322506Y-39320253D01*
X194422506Y-39386920D01*
X194489173Y-39453586D01*
X194522506Y-39520253D01*
X194389173Y-38853586D02*
X194355840Y-38820253D01*
X194322506Y-38753586D01*
X194322506Y-38586920D01*
X194355840Y-38520253D01*
X194389173Y-38486920D01*
X194455840Y-38453586D01*
X194522506Y-38453586D01*
X194622506Y-38486920D01*
X195022506Y-38886920D01*
X195022506Y-38453586D01*
G04 #@! TO.C,R19*
X47015840Y-34907786D02*
X46782506Y-34574453D01*
X46615840Y-34907786D02*
X46615840Y-34207786D01*
X46882506Y-34207786D01*
X46949173Y-34241120D01*
X46982506Y-34274453D01*
X47015840Y-34341120D01*
X47015840Y-34441120D01*
X46982506Y-34507786D01*
X46949173Y-34541120D01*
X46882506Y-34574453D01*
X46615840Y-34574453D01*
X47682506Y-34907786D02*
X47282506Y-34907786D01*
X47482506Y-34907786D02*
X47482506Y-34207786D01*
X47415840Y-34307786D01*
X47349173Y-34374453D01*
X47282506Y-34407786D01*
X48015840Y-34907786D02*
X48149173Y-34907786D01*
X48215840Y-34874453D01*
X48249173Y-34841120D01*
X48315840Y-34741120D01*
X48349173Y-34607786D01*
X48349173Y-34341120D01*
X48315840Y-34274453D01*
X48282506Y-34241120D01*
X48215840Y-34207786D01*
X48082506Y-34207786D01*
X48015840Y-34241120D01*
X47982506Y-34274453D01*
X47949173Y-34341120D01*
X47949173Y-34507786D01*
X47982506Y-34574453D01*
X48015840Y-34607786D01*
X48082506Y-34641120D01*
X48215840Y-34641120D01*
X48282506Y-34607786D01*
X48315840Y-34574453D01*
X48349173Y-34507786D01*
G04 #@! TO.C,R38*
X204655840Y-34897786D02*
X204422506Y-34564453D01*
X204255840Y-34897786D02*
X204255840Y-34197786D01*
X204522506Y-34197786D01*
X204589173Y-34231120D01*
X204622506Y-34264453D01*
X204655840Y-34331120D01*
X204655840Y-34431120D01*
X204622506Y-34497786D01*
X204589173Y-34531120D01*
X204522506Y-34564453D01*
X204255840Y-34564453D01*
X204889173Y-34197786D02*
X205322506Y-34197786D01*
X205089173Y-34464453D01*
X205189173Y-34464453D01*
X205255840Y-34497786D01*
X205289173Y-34531120D01*
X205322506Y-34597786D01*
X205322506Y-34764453D01*
X205289173Y-34831120D01*
X205255840Y-34864453D01*
X205189173Y-34897786D01*
X204989173Y-34897786D01*
X204922506Y-34864453D01*
X204889173Y-34831120D01*
X205722506Y-34497786D02*
X205655840Y-34464453D01*
X205622506Y-34431120D01*
X205589173Y-34364453D01*
X205589173Y-34331120D01*
X205622506Y-34264453D01*
X205655840Y-34231120D01*
X205722506Y-34197786D01*
X205855840Y-34197786D01*
X205922506Y-34231120D01*
X205955840Y-34264453D01*
X205989173Y-34331120D01*
X205989173Y-34364453D01*
X205955840Y-34431120D01*
X205922506Y-34464453D01*
X205855840Y-34497786D01*
X205722506Y-34497786D01*
X205655840Y-34531120D01*
X205622506Y-34564453D01*
X205589173Y-34631120D01*
X205589173Y-34764453D01*
X205622506Y-34831120D01*
X205655840Y-34864453D01*
X205722506Y-34897786D01*
X205855840Y-34897786D01*
X205922506Y-34864453D01*
X205955840Y-34831120D01*
X205989173Y-34764453D01*
X205989173Y-34631120D01*
X205955840Y-34564453D01*
X205922506Y-34531120D01*
X205855840Y-34497786D01*
G04 #@! TO.C,RT1*
X148072506Y-48840253D02*
X147739173Y-49073586D01*
X148072506Y-49240253D02*
X147372506Y-49240253D01*
X147372506Y-48973586D01*
X147405840Y-48906920D01*
X147439173Y-48873586D01*
X147505840Y-48840253D01*
X147605840Y-48840253D01*
X147672506Y-48873586D01*
X147705840Y-48906920D01*
X147739173Y-48973586D01*
X147739173Y-49240253D01*
X147372506Y-48640253D02*
X147372506Y-48240253D01*
X148072506Y-48440253D02*
X147372506Y-48440253D01*
X148072506Y-47640253D02*
X148072506Y-48040253D01*
X148072506Y-47840253D02*
X147372506Y-47840253D01*
X147472506Y-47906920D01*
X147539173Y-47973586D01*
X147572506Y-48040253D01*
G04 #@! TO.C,U2*
X158677726Y-44791606D02*
X158677726Y-45358273D01*
X158711060Y-45424940D01*
X158744393Y-45458273D01*
X158811060Y-45491606D01*
X158944393Y-45491606D01*
X159011060Y-45458273D01*
X159044393Y-45424940D01*
X159077726Y-45358273D01*
X159077726Y-44791606D01*
X159377726Y-44858273D02*
X159411060Y-44824940D01*
X159477726Y-44791606D01*
X159644393Y-44791606D01*
X159711060Y-44824940D01*
X159744393Y-44858273D01*
X159777726Y-44924940D01*
X159777726Y-44991606D01*
X159744393Y-45091606D01*
X159344393Y-45491606D01*
X159777726Y-45491606D01*
G04 #@! TO.C,Y1*
X114370526Y-20211893D02*
X114370526Y-20545226D01*
X114137193Y-19845226D02*
X114370526Y-20211893D01*
X114603860Y-19845226D01*
X115203860Y-20545226D02*
X114803860Y-20545226D01*
X115003860Y-20545226D02*
X115003860Y-19845226D01*
X114937193Y-19945226D01*
X114870526Y-20011893D01*
X114803860Y-20045226D01*
G04 #@! TO.C,DS2*
X237656806Y-4273920D02*
X236956806Y-4273920D01*
X236956806Y-4107253D01*
X236990140Y-4007253D01*
X237056806Y-3940586D01*
X237123473Y-3907253D01*
X237256806Y-3873920D01*
X237356806Y-3873920D01*
X237490140Y-3907253D01*
X237556806Y-3940586D01*
X237623473Y-4007253D01*
X237656806Y-4107253D01*
X237656806Y-4273920D01*
X237623473Y-3607253D02*
X237656806Y-3507253D01*
X237656806Y-3340586D01*
X237623473Y-3273920D01*
X237590140Y-3240586D01*
X237523473Y-3207253D01*
X237456806Y-3207253D01*
X237390140Y-3240586D01*
X237356806Y-3273920D01*
X237323473Y-3340586D01*
X237290140Y-3473920D01*
X237256806Y-3540586D01*
X237223473Y-3573920D01*
X237156806Y-3607253D01*
X237090140Y-3607253D01*
X237023473Y-3573920D01*
X236990140Y-3540586D01*
X236956806Y-3473920D01*
X236956806Y-3307253D01*
X236990140Y-3207253D01*
X237023473Y-2940586D02*
X236990140Y-2907253D01*
X236956806Y-2840586D01*
X236956806Y-2673920D01*
X236990140Y-2607253D01*
X237023473Y-2573920D01*
X237090140Y-2540586D01*
X237156806Y-2540586D01*
X237256806Y-2573920D01*
X237656806Y-2973920D01*
X237656806Y-2540586D01*
G04 #@! TO.C,C19*
X124901540Y-7481380D02*
X124868206Y-7514713D01*
X124768206Y-7548046D01*
X124701540Y-7548046D01*
X124601540Y-7514713D01*
X124534873Y-7448046D01*
X124501540Y-7381380D01*
X124468206Y-7248046D01*
X124468206Y-7148046D01*
X124501540Y-7014713D01*
X124534873Y-6948046D01*
X124601540Y-6881380D01*
X124701540Y-6848046D01*
X124768206Y-6848046D01*
X124868206Y-6881380D01*
X124901540Y-6914713D01*
X125568206Y-7548046D02*
X125168206Y-7548046D01*
X125368206Y-7548046D02*
X125368206Y-6848046D01*
X125301540Y-6948046D01*
X125234873Y-7014713D01*
X125168206Y-7048046D01*
X125901540Y-7548046D02*
X126034873Y-7548046D01*
X126101540Y-7514713D01*
X126134873Y-7481380D01*
X126201540Y-7381380D01*
X126234873Y-7248046D01*
X126234873Y-6981380D01*
X126201540Y-6914713D01*
X126168206Y-6881380D01*
X126101540Y-6848046D01*
X125968206Y-6848046D01*
X125901540Y-6881380D01*
X125868206Y-6914713D01*
X125834873Y-6981380D01*
X125834873Y-7148046D01*
X125868206Y-7214713D01*
X125901540Y-7248046D01*
X125968206Y-7281380D01*
X126101540Y-7281380D01*
X126168206Y-7248046D01*
X126201540Y-7214713D01*
X126234873Y-7148046D01*
G04 #@! TO.C,P7*
X119660893Y1763594D02*
X119660893Y2463594D01*
X119927560Y2463594D01*
X119994226Y2430260D01*
X120027560Y2396927D01*
X120060893Y2330260D01*
X120060893Y2230260D01*
X120027560Y2163594D01*
X119994226Y2130260D01*
X119927560Y2096927D01*
X119660893Y2096927D01*
X120294226Y2463594D02*
X120760893Y2463594D01*
X120460893Y1763594D01*
G04 #@! TO.C,Q6*
X139283233Y-14112866D02*
X139249900Y-14179533D01*
X139183233Y-14246200D01*
X139083233Y-14346200D01*
X139049900Y-14412866D01*
X139049900Y-14479533D01*
X139216566Y-14446200D02*
X139183233Y-14512866D01*
X139116566Y-14579533D01*
X138983233Y-14612866D01*
X138749900Y-14612866D01*
X138616566Y-14579533D01*
X138549900Y-14512866D01*
X138516566Y-14446200D01*
X138516566Y-14312866D01*
X138549900Y-14246200D01*
X138616566Y-14179533D01*
X138749900Y-14146200D01*
X138983233Y-14146200D01*
X139116566Y-14179533D01*
X139183233Y-14246200D01*
X139216566Y-14312866D01*
X139216566Y-14446200D01*
X138516566Y-13546200D02*
X138516566Y-13679533D01*
X138549900Y-13746200D01*
X138583233Y-13779533D01*
X138683233Y-13846200D01*
X138816566Y-13879533D01*
X139083233Y-13879533D01*
X139149900Y-13846200D01*
X139183233Y-13812866D01*
X139216566Y-13746200D01*
X139216566Y-13612866D01*
X139183233Y-13546200D01*
X139149900Y-13512866D01*
X139083233Y-13479533D01*
X138916566Y-13479533D01*
X138849900Y-13512866D01*
X138816566Y-13546200D01*
X138783233Y-13612866D01*
X138783233Y-13746200D01*
X138816566Y-13812866D01*
X138849900Y-13846200D01*
X138916566Y-13879533D01*
G04 #@! TO.C,R16*
X142676046Y-12159400D02*
X142342713Y-12392733D01*
X142676046Y-12559400D02*
X141976046Y-12559400D01*
X141976046Y-12292733D01*
X142009380Y-12226066D01*
X142042713Y-12192733D01*
X142109380Y-12159400D01*
X142209380Y-12159400D01*
X142276046Y-12192733D01*
X142309380Y-12226066D01*
X142342713Y-12292733D01*
X142342713Y-12559400D01*
X142676046Y-11492733D02*
X142676046Y-11892733D01*
X142676046Y-11692733D02*
X141976046Y-11692733D01*
X142076046Y-11759400D01*
X142142713Y-11826066D01*
X142176046Y-11892733D01*
X141976046Y-10892733D02*
X141976046Y-11026066D01*
X142009380Y-11092733D01*
X142042713Y-11126066D01*
X142142713Y-11192733D01*
X142276046Y-11226066D01*
X142542713Y-11226066D01*
X142609380Y-11192733D01*
X142642713Y-11159400D01*
X142676046Y-11092733D01*
X142676046Y-10959400D01*
X142642713Y-10892733D01*
X142609380Y-10859400D01*
X142542713Y-10826066D01*
X142376046Y-10826066D01*
X142309380Y-10859400D01*
X142276046Y-10892733D01*
X142242713Y-10959400D01*
X142242713Y-11092733D01*
X142276046Y-11159400D01*
X142309380Y-11192733D01*
X142376046Y-11226066D01*
G04 #@! TO.C,R37*
X123623506Y-6500280D02*
X123290173Y-6733613D01*
X123623506Y-6900280D02*
X122923506Y-6900280D01*
X122923506Y-6633613D01*
X122956840Y-6566946D01*
X122990173Y-6533613D01*
X123056840Y-6500280D01*
X123156840Y-6500280D01*
X123223506Y-6533613D01*
X123256840Y-6566946D01*
X123290173Y-6633613D01*
X123290173Y-6900280D01*
X122923506Y-6266946D02*
X122923506Y-5833613D01*
X123190173Y-6066946D01*
X123190173Y-5966946D01*
X123223506Y-5900280D01*
X123256840Y-5866946D01*
X123323506Y-5833613D01*
X123490173Y-5833613D01*
X123556840Y-5866946D01*
X123590173Y-5900280D01*
X123623506Y-5966946D01*
X123623506Y-6166946D01*
X123590173Y-6233613D01*
X123556840Y-6266946D01*
X122923506Y-5600280D02*
X122923506Y-5133613D01*
X123623506Y-5433613D01*
G04 #@! TO.C,R5*
X101447773Y-35439786D02*
X101214440Y-35106453D01*
X101047773Y-35439786D02*
X101047773Y-34739786D01*
X101314440Y-34739786D01*
X101381106Y-34773120D01*
X101414440Y-34806453D01*
X101447773Y-34873120D01*
X101447773Y-34973120D01*
X101414440Y-35039786D01*
X101381106Y-35073120D01*
X101314440Y-35106453D01*
X101047773Y-35106453D01*
X102081106Y-34739786D02*
X101747773Y-34739786D01*
X101714440Y-35073120D01*
X101747773Y-35039786D01*
X101814440Y-35006453D01*
X101981106Y-35006453D01*
X102047773Y-35039786D01*
X102081106Y-35073120D01*
X102114440Y-35139786D01*
X102114440Y-35306453D01*
X102081106Y-35373120D01*
X102047773Y-35406453D01*
X101981106Y-35439786D01*
X101814440Y-35439786D01*
X101747773Y-35406453D01*
X101714440Y-35373120D01*
G04 #@! TO.C,R7*
X99720573Y-35439786D02*
X99487240Y-35106453D01*
X99320573Y-35439786D02*
X99320573Y-34739786D01*
X99587240Y-34739786D01*
X99653906Y-34773120D01*
X99687240Y-34806453D01*
X99720573Y-34873120D01*
X99720573Y-34973120D01*
X99687240Y-35039786D01*
X99653906Y-35073120D01*
X99587240Y-35106453D01*
X99320573Y-35106453D01*
X99953906Y-34739786D02*
X100420573Y-34739786D01*
X100120573Y-35439786D01*
G04 #@! TO.C,R26*
X121053026Y-6170080D02*
X120719693Y-6403413D01*
X121053026Y-6570080D02*
X120353026Y-6570080D01*
X120353026Y-6303413D01*
X120386360Y-6236746D01*
X120419693Y-6203413D01*
X120486360Y-6170080D01*
X120586360Y-6170080D01*
X120653026Y-6203413D01*
X120686360Y-6236746D01*
X120719693Y-6303413D01*
X120719693Y-6570080D01*
X120419693Y-5903413D02*
X120386360Y-5870080D01*
X120353026Y-5803413D01*
X120353026Y-5636746D01*
X120386360Y-5570080D01*
X120419693Y-5536746D01*
X120486360Y-5503413D01*
X120553026Y-5503413D01*
X120653026Y-5536746D01*
X121053026Y-5936746D01*
X121053026Y-5503413D01*
X120353026Y-4903413D02*
X120353026Y-5036746D01*
X120386360Y-5103413D01*
X120419693Y-5136746D01*
X120519693Y-5203413D01*
X120653026Y-5236746D01*
X120919693Y-5236746D01*
X120986360Y-5203413D01*
X121019693Y-5170080D01*
X121053026Y-5103413D01*
X121053026Y-4970080D01*
X121019693Y-4903413D01*
X120986360Y-4870080D01*
X120919693Y-4836746D01*
X120753026Y-4836746D01*
X120686360Y-4870080D01*
X120653026Y-4903413D01*
X120619693Y-4970080D01*
X120619693Y-5103413D01*
X120653026Y-5170080D01*
X120686360Y-5203413D01*
X120753026Y-5236746D01*
G04 #@! TO.C,R27*
X119300426Y-6175160D02*
X118967093Y-6408493D01*
X119300426Y-6575160D02*
X118600426Y-6575160D01*
X118600426Y-6308493D01*
X118633760Y-6241826D01*
X118667093Y-6208493D01*
X118733760Y-6175160D01*
X118833760Y-6175160D01*
X118900426Y-6208493D01*
X118933760Y-6241826D01*
X118967093Y-6308493D01*
X118967093Y-6575160D01*
X118667093Y-5908493D02*
X118633760Y-5875160D01*
X118600426Y-5808493D01*
X118600426Y-5641826D01*
X118633760Y-5575160D01*
X118667093Y-5541826D01*
X118733760Y-5508493D01*
X118800426Y-5508493D01*
X118900426Y-5541826D01*
X119300426Y-5941826D01*
X119300426Y-5508493D01*
X118600426Y-5275160D02*
X118600426Y-4808493D01*
X119300426Y-5108493D01*
G04 #@! TO.C,J1*
X113904106Y-7942786D02*
X113904106Y-8442786D01*
X113870773Y-8542786D01*
X113804106Y-8609453D01*
X113704106Y-8642786D01*
X113637440Y-8642786D01*
X114604106Y-8642786D02*
X114204106Y-8642786D01*
X114404106Y-8642786D02*
X114404106Y-7942786D01*
X114337440Y-8042786D01*
X114270773Y-8109453D01*
X114204106Y-8142786D01*
G04 #@! TO.C,J2*
X143037906Y-7980886D02*
X143037906Y-8480886D01*
X143004573Y-8580886D01*
X142937906Y-8647553D01*
X142837906Y-8680886D01*
X142771240Y-8680886D01*
X143337906Y-8047553D02*
X143371240Y-8014220D01*
X143437906Y-7980886D01*
X143604573Y-7980886D01*
X143671240Y-8014220D01*
X143704573Y-8047553D01*
X143737906Y-8114220D01*
X143737906Y-8180886D01*
X143704573Y-8280886D01*
X143304573Y-8680886D01*
X143737906Y-8680886D01*
G04 #@! TO.C,P3*
X137109526Y-32843586D02*
X136409526Y-32843586D01*
X136409526Y-32576920D01*
X136442860Y-32510253D01*
X136476193Y-32476920D01*
X136542860Y-32443586D01*
X136642860Y-32443586D01*
X136709526Y-32476920D01*
X136742860Y-32510253D01*
X136776193Y-32576920D01*
X136776193Y-32843586D01*
X136409526Y-32210253D02*
X136409526Y-31776920D01*
X136676193Y-32010253D01*
X136676193Y-31910253D01*
X136709526Y-31843586D01*
X136742860Y-31810253D01*
X136809526Y-31776920D01*
X136976193Y-31776920D01*
X137042860Y-31810253D01*
X137076193Y-31843586D01*
X137109526Y-31910253D01*
X137109526Y-32110253D01*
X137076193Y-32176920D01*
X137042860Y-32210253D01*
G04 #@! TO.C,C5*
X155405453Y-43207620D02*
X155372120Y-43240953D01*
X155272120Y-43274286D01*
X155205453Y-43274286D01*
X155105453Y-43240953D01*
X155038786Y-43174286D01*
X155005453Y-43107620D01*
X154972120Y-42974286D01*
X154972120Y-42874286D01*
X155005453Y-42740953D01*
X155038786Y-42674286D01*
X155105453Y-42607620D01*
X155205453Y-42574286D01*
X155272120Y-42574286D01*
X155372120Y-42607620D01*
X155405453Y-42640953D01*
X156038786Y-42574286D02*
X155705453Y-42574286D01*
X155672120Y-42907620D01*
X155705453Y-42874286D01*
X155772120Y-42840953D01*
X155938786Y-42840953D01*
X156005453Y-42874286D01*
X156038786Y-42907620D01*
X156072120Y-42974286D01*
X156072120Y-43140953D01*
X156038786Y-43207620D01*
X156005453Y-43240953D01*
X155938786Y-43274286D01*
X155772120Y-43274286D01*
X155705453Y-43240953D01*
X155672120Y-43207620D01*
G04 #@! TO.C,C3*
X15675420Y-32420386D02*
X15708753Y-32453720D01*
X15742086Y-32553720D01*
X15742086Y-32620386D01*
X15708753Y-32720386D01*
X15642086Y-32787053D01*
X15575420Y-32820386D01*
X15442086Y-32853720D01*
X15342086Y-32853720D01*
X15208753Y-32820386D01*
X15142086Y-32787053D01*
X15075420Y-32720386D01*
X15042086Y-32620386D01*
X15042086Y-32553720D01*
X15075420Y-32453720D01*
X15108753Y-32420386D01*
X15042086Y-32187053D02*
X15042086Y-31753720D01*
X15308753Y-31987053D01*
X15308753Y-31887053D01*
X15342086Y-31820386D01*
X15375420Y-31787053D01*
X15442086Y-31753720D01*
X15608753Y-31753720D01*
X15675420Y-31787053D01*
X15708753Y-31820386D01*
X15742086Y-31887053D01*
X15742086Y-32087053D01*
X15708753Y-32153720D01*
X15675420Y-32187053D01*
G04 #@! TO.C,C17*
X168047480Y-32829920D02*
X168080813Y-32863253D01*
X168114146Y-32963253D01*
X168114146Y-33029920D01*
X168080813Y-33129920D01*
X168014146Y-33196586D01*
X167947480Y-33229920D01*
X167814146Y-33263253D01*
X167714146Y-33263253D01*
X167580813Y-33229920D01*
X167514146Y-33196586D01*
X167447480Y-33129920D01*
X167414146Y-33029920D01*
X167414146Y-32963253D01*
X167447480Y-32863253D01*
X167480813Y-32829920D01*
X168114146Y-32163253D02*
X168114146Y-32563253D01*
X168114146Y-32363253D02*
X167414146Y-32363253D01*
X167514146Y-32429920D01*
X167580813Y-32496586D01*
X167614146Y-32563253D01*
X167414146Y-31929920D02*
X167414146Y-31463253D01*
X168114146Y-31763253D01*
G04 #@! TO.C,Q3*
X98312613Y-28907533D02*
X98245946Y-28874200D01*
X98179280Y-28807533D01*
X98079280Y-28707533D01*
X98012613Y-28674200D01*
X97945946Y-28674200D01*
X97979280Y-28840866D02*
X97912613Y-28807533D01*
X97845946Y-28740866D01*
X97812613Y-28607533D01*
X97812613Y-28374200D01*
X97845946Y-28240866D01*
X97912613Y-28174200D01*
X97979280Y-28140866D01*
X98112613Y-28140866D01*
X98179280Y-28174200D01*
X98245946Y-28240866D01*
X98279280Y-28374200D01*
X98279280Y-28607533D01*
X98245946Y-28740866D01*
X98179280Y-28807533D01*
X98112613Y-28840866D01*
X97979280Y-28840866D01*
X98512613Y-28140866D02*
X98945946Y-28140866D01*
X98712613Y-28407533D01*
X98812613Y-28407533D01*
X98879280Y-28440866D01*
X98912613Y-28474200D01*
X98945946Y-28540866D01*
X98945946Y-28707533D01*
X98912613Y-28774200D01*
X98879280Y-28807533D01*
X98812613Y-28840866D01*
X98612613Y-28840866D01*
X98545946Y-28807533D01*
X98512613Y-28774200D01*
G04 #@! TO.C,R9*
X21388506Y-34401586D02*
X21055173Y-34634920D01*
X21388506Y-34801586D02*
X20688506Y-34801586D01*
X20688506Y-34534920D01*
X20721840Y-34468253D01*
X20755173Y-34434920D01*
X20821840Y-34401586D01*
X20921840Y-34401586D01*
X20988506Y-34434920D01*
X21021840Y-34468253D01*
X21055173Y-34534920D01*
X21055173Y-34801586D01*
X21388506Y-34068253D02*
X21388506Y-33934920D01*
X21355173Y-33868253D01*
X21321840Y-33834920D01*
X21221840Y-33768253D01*
X21088506Y-33734920D01*
X20821840Y-33734920D01*
X20755173Y-33768253D01*
X20721840Y-33801586D01*
X20688506Y-33868253D01*
X20688506Y-34001586D01*
X20721840Y-34068253D01*
X20755173Y-34101586D01*
X20821840Y-34134920D01*
X20988506Y-34134920D01*
X21055173Y-34101586D01*
X21088506Y-34068253D01*
X21121840Y-34001586D01*
X21121840Y-33868253D01*
X21088506Y-33801586D01*
X21055173Y-33768253D01*
X20988506Y-33734920D01*
G04 #@! TO.C,R10*
X94261106Y-30467720D02*
X93927773Y-30701053D01*
X94261106Y-30867720D02*
X93561106Y-30867720D01*
X93561106Y-30601053D01*
X93594440Y-30534386D01*
X93627773Y-30501053D01*
X93694440Y-30467720D01*
X93794440Y-30467720D01*
X93861106Y-30501053D01*
X93894440Y-30534386D01*
X93927773Y-30601053D01*
X93927773Y-30867720D01*
X94261106Y-29801053D02*
X94261106Y-30201053D01*
X94261106Y-30001053D02*
X93561106Y-30001053D01*
X93661106Y-30067720D01*
X93727773Y-30134386D01*
X93761106Y-30201053D01*
X93561106Y-29367720D02*
X93561106Y-29301053D01*
X93594440Y-29234386D01*
X93627773Y-29201053D01*
X93694440Y-29167720D01*
X93827773Y-29134386D01*
X93994440Y-29134386D01*
X94127773Y-29167720D01*
X94194440Y-29201053D01*
X94227773Y-29234386D01*
X94261106Y-29301053D01*
X94261106Y-29367720D01*
X94227773Y-29434386D01*
X94194440Y-29467720D01*
X94127773Y-29501053D01*
X93994440Y-29534386D01*
X93827773Y-29534386D01*
X93694440Y-29501053D01*
X93627773Y-29467720D01*
X93594440Y-29434386D01*
X93561106Y-29367720D01*
G04 #@! TO.C,R15*
X19524146Y-34999080D02*
X19190813Y-35232413D01*
X19524146Y-35399080D02*
X18824146Y-35399080D01*
X18824146Y-35132413D01*
X18857480Y-35065746D01*
X18890813Y-35032413D01*
X18957480Y-34999080D01*
X19057480Y-34999080D01*
X19124146Y-35032413D01*
X19157480Y-35065746D01*
X19190813Y-35132413D01*
X19190813Y-35399080D01*
X19524146Y-34332413D02*
X19524146Y-34732413D01*
X19524146Y-34532413D02*
X18824146Y-34532413D01*
X18924146Y-34599080D01*
X18990813Y-34665746D01*
X19024146Y-34732413D01*
X18824146Y-33699080D02*
X18824146Y-34032413D01*
X19157480Y-34065746D01*
X19124146Y-34032413D01*
X19090813Y-33965746D01*
X19090813Y-33799080D01*
X19124146Y-33732413D01*
X19157480Y-33699080D01*
X19224146Y-33665746D01*
X19390813Y-33665746D01*
X19457480Y-33699080D01*
X19490813Y-33732413D01*
X19524146Y-33799080D01*
X19524146Y-33965746D01*
X19490813Y-34032413D01*
X19457480Y-34065746D01*
G04 #@! TO.C,R21*
X173760566Y-34910180D02*
X173427233Y-35143513D01*
X173760566Y-35310180D02*
X173060566Y-35310180D01*
X173060566Y-35043513D01*
X173093900Y-34976846D01*
X173127233Y-34943513D01*
X173193900Y-34910180D01*
X173293900Y-34910180D01*
X173360566Y-34943513D01*
X173393900Y-34976846D01*
X173427233Y-35043513D01*
X173427233Y-35310180D01*
X173127233Y-34643513D02*
X173093900Y-34610180D01*
X173060566Y-34543513D01*
X173060566Y-34376846D01*
X173093900Y-34310180D01*
X173127233Y-34276846D01*
X173193900Y-34243513D01*
X173260566Y-34243513D01*
X173360566Y-34276846D01*
X173760566Y-34676846D01*
X173760566Y-34243513D01*
X173760566Y-33576846D02*
X173760566Y-33976846D01*
X173760566Y-33776846D02*
X173060566Y-33776846D01*
X173160566Y-33843513D01*
X173227233Y-33910180D01*
X173260566Y-33976846D01*
G04 #@! TO.C,R22*
X171893666Y-34933040D02*
X171560333Y-35166373D01*
X171893666Y-35333040D02*
X171193666Y-35333040D01*
X171193666Y-35066373D01*
X171227000Y-34999706D01*
X171260333Y-34966373D01*
X171327000Y-34933040D01*
X171427000Y-34933040D01*
X171493666Y-34966373D01*
X171527000Y-34999706D01*
X171560333Y-35066373D01*
X171560333Y-35333040D01*
X171260333Y-34666373D02*
X171227000Y-34633040D01*
X171193666Y-34566373D01*
X171193666Y-34399706D01*
X171227000Y-34333040D01*
X171260333Y-34299706D01*
X171327000Y-34266373D01*
X171393666Y-34266373D01*
X171493666Y-34299706D01*
X171893666Y-34699706D01*
X171893666Y-34266373D01*
X171260333Y-33999706D02*
X171227000Y-33966373D01*
X171193666Y-33899706D01*
X171193666Y-33733040D01*
X171227000Y-33666373D01*
X171260333Y-33633040D01*
X171327000Y-33599706D01*
X171393666Y-33599706D01*
X171493666Y-33633040D01*
X171893666Y-34033040D01*
X171893666Y-33599706D01*
G04 #@! TO.C,P6*
D11*
X134650420Y-13166315D02*
X133650420Y-13166315D01*
X133650420Y-12785362D01*
X133698040Y-12690124D01*
X133745659Y-12642505D01*
X133840897Y-12594886D01*
X133983754Y-12594886D01*
X134078992Y-12642505D01*
X134126611Y-12690124D01*
X134174230Y-12785362D01*
X134174230Y-13166315D01*
X133650420Y-11737743D02*
X133650420Y-11928220D01*
X133698040Y-12023458D01*
X133745659Y-12071077D01*
X133888516Y-12166315D01*
X134078992Y-12213934D01*
X134459944Y-12213934D01*
X134555182Y-12166315D01*
X134602801Y-12118696D01*
X134650420Y-12023458D01*
X134650420Y-11832981D01*
X134602801Y-11737743D01*
X134555182Y-11690124D01*
X134459944Y-11642505D01*
X134221849Y-11642505D01*
X134126611Y-11690124D01*
X134078992Y-11737743D01*
X134031373Y-11832981D01*
X134031373Y-12023458D01*
X134078992Y-12118696D01*
X134126611Y-12166315D01*
X134221849Y-12213934D01*
G04 #@! TO.C,R40*
D13*
X121682506Y-24246920D02*
X121349173Y-24480253D01*
X121682506Y-24646920D02*
X120982506Y-24646920D01*
X120982506Y-24380253D01*
X121015840Y-24313586D01*
X121049173Y-24280253D01*
X121115840Y-24246920D01*
X121215840Y-24246920D01*
X121282506Y-24280253D01*
X121315840Y-24313586D01*
X121349173Y-24380253D01*
X121349173Y-24646920D01*
X121215840Y-23646920D02*
X121682506Y-23646920D01*
X120949173Y-23813586D02*
X121449173Y-23980253D01*
X121449173Y-23546920D01*
X120982506Y-23146920D02*
X120982506Y-23080253D01*
X121015840Y-23013586D01*
X121049173Y-22980253D01*
X121115840Y-22946920D01*
X121249173Y-22913586D01*
X121415840Y-22913586D01*
X121549173Y-22946920D01*
X121615840Y-22980253D01*
X121649173Y-23013586D01*
X121682506Y-23080253D01*
X121682506Y-23146920D01*
X121649173Y-23213586D01*
X121615840Y-23246920D01*
X121549173Y-23280253D01*
X121415840Y-23313586D01*
X121249173Y-23313586D01*
X121115840Y-23280253D01*
X121049173Y-23246920D01*
X121015840Y-23213586D01*
X120982506Y-23146920D01*
G04 #@! TD*
M02*
